M48
; DRILL file {KiCad (5.1.8)-1} date 03/10/21 15:16:57
; FORMAT={-:-/ absolute / inch / decimal}
; #@! TF.CreationDate,2021-03-10T15:16:57+00:00
; #@! TF.GenerationSoftware,Kicad,Pcbnew,(5.1.8)-1
; #@! TF.FileFunction,Plated,1,4,PTH
FMAT,2
INCH
T1C0.0157
T2C0.0197
T3C0.0217
T4C0.0236
T5C0.0394
T6C0.0433
T7C0.0461
T8C0.0591
T9C0.0709
T10C0.0787
%
G90
G05
T1
X5.0472Y-4.8228
X5.0925Y-5.4449
X5.0984Y-5.2323
X5.1457Y-4.1535
X5.1567Y-5.4063
X5.2183Y-5.1553
X5.2835Y-5.0984
X5.3031Y-5.1811
X5.3228Y-5.1181
X5.3776Y-4.0368
X5.4213Y-4.9213
X5.5197Y-4.626
X5.5335Y-4.8445
X5.5787Y-4.4075
X5.6339Y-5.0295
X5.6575Y-4.6654
X5.717Y-4.6462
X5.7953Y-4.626
X5.8543Y-4.5669
X5.8947Y-4.5089
X5.9173Y-4.6319
X5.9724Y-4.685
X5.9843Y-4.9429
X5.9921Y-4.2126
X5.9921Y-4.2717
X5.9921Y-4.5669
X6.0709Y-4.7835
X6.0913Y-4.8432
X6.2087Y-4.252
X6.2087Y-4.7441
X6.2697Y-4.8524
X6.6654Y-4.8346
X6.8091Y-4.7835
X6.8583Y-5.4528
X6.8693Y-4.7685
X6.9173Y-4.2323
X7.0551Y-4.6713
X7.3307Y-4.4685
T4
X5.2638Y-4.0709
X6.8976Y-5.1378
X7.0098Y-4.3051
T5
X7.5969Y-4.5
X7.6969Y-4.5
X7.5969Y-4.9882
X7.6969Y-4.9882
X7.5969Y-4.0551
X7.6969Y-4.0551
X4.5669Y-4.3622
X4.5669Y-4.9331
X4.6654Y-4.3622
X4.7638Y-4.3622
X4.7638Y-4.9331
X7.5969Y-4.2008
X7.6969Y-4.2008
X7.5969Y-4.3504
X7.6969Y-4.3504
X7.5969Y-4.6496
X7.6969Y-4.6496
X7.5969Y-4.7992
X7.6969Y-4.7992
X6.5913Y-3.878
X6.6913Y-3.878
X6.7913Y-3.878
X6.8913Y-3.878
X6.9913Y-3.878
X7.0913Y-3.878
X7.1913Y-3.878
X7.2913Y-3.878
X6.2252Y-4.1535
X6.3252Y-4.1535
X6.4252Y-4.1535
X6.5252Y-4.1535
X6.6252Y-4.1535
T6
X7.2126Y-5.189
X7.2126Y-5.289
X7.2126Y-5.389
T7
X6.9488Y-4.8898
T8
X6.9488Y-4.1024
T10
X5.5052Y-4.1835
X5.5052Y-5.1235
X7.3452Y-4.1835
X7.3452Y-5.1235
T2
G00X4.4567Y-5.3888
M15
G01X4.4567Y-5.4144
M16
G05
G00X4.7323Y-5.3888
M15
G01X4.7323Y-5.4144
M16
G05
T3
G00X4.4902Y-5.2953
M15
G01X4.502Y-5.2953
M16
G05
G00X4.687Y-5.2953
M15
G01X4.6988Y-5.2953
M16
G05
T5
G00X7.4961Y-5.3248
M15
G01X7.4961Y-5.2264
M16
G05
G00X7.565Y-5.4606
M15
G01X7.6634Y-5.4606
M16
G05
G00X7.7323Y-5.3248
M15
G01X7.7323Y-5.2264
M16
G05
T9
G00X4.4409Y-4.6417
M15
G01X4.4409Y-4.6732
M16
G05
G00X4.8898Y-4.6417
M15
G01X4.8898Y-4.6732
M16
G05
T0
M30
