%TF.GenerationSoftware,KiCad,Pcbnew,(5.1.8)-1*%
%TF.CreationDate,2021-03-10T15:17:51+00:00*%
%TF.ProjectId,Project_2_smaller,50726f6a-6563-4745-9f32-5f736d616c6c,rev?*%
%TF.SameCoordinates,Original*%
%TF.FileFunction,Soldermask,Bot*%
%TF.FilePolarity,Negative*%
%FSLAX46Y46*%
G04 Gerber Fmt 4.6, Leading zero omitted, Abs format (unit mm)*
G04 Created by KiCad (PCBNEW (5.1.8)-1) date 2021-03-10 15:17:51*
%MOMM*%
%LPD*%
G01*
G04 APERTURE LIST*
%ADD10C,2.200000*%
%ADD11O,1.000000X1.550000*%
%ADD12O,1.250000X0.950000*%
%ADD13R,4.500000X2.000000*%
%ADD14R,2.000000X4.500000*%
%ADD15O,1.700000X1.700000*%
%ADD16R,1.700000X1.700000*%
%ADD17C,2.000000*%
%ADD18C,0.950000*%
%ADD19R,2.170000X2.170000*%
%ADD20C,2.500000*%
%ADD21R,2.800000X3.600000*%
%ADD22O,3.500000X3.500000*%
%ADD23R,2.000000X1.905000*%
%ADD24O,2.000000X1.905000*%
G04 APERTURE END LIST*
D10*
%TO.C,REF\u002A\u002A*%
X107500000Y-135000000D03*
%TD*%
%TO.C,REF\u002A\u002A*%
X107500000Y-100000000D03*
%TD*%
D11*
%TO.C,J1*%
X120200000Y-137200000D03*
X113200000Y-137200000D03*
D12*
X114200000Y-134500000D03*
X119200000Y-134500000D03*
%TD*%
D13*
%TO.C,J2*%
X193400000Y-138700000D03*
D14*
X190400000Y-134000000D03*
X196400000Y-134000000D03*
%TD*%
D15*
%TO.C,J13*%
X158120000Y-105500000D03*
X160660000Y-105500000D03*
X163200000Y-105500000D03*
X165740000Y-105500000D03*
D16*
X168280000Y-105500000D03*
D17*
X139832000Y-106262000D03*
X186568000Y-106262000D03*
X186568000Y-130138000D03*
X139832000Y-130138000D03*
%TD*%
D18*
%TO.C,J3*%
X149300000Y-136000000D03*
X156100000Y-136000000D03*
%TD*%
D19*
%TO.C,BT1*%
X176500000Y-124200000D03*
D20*
X176500000Y-104200000D03*
%TD*%
D16*
%TO.C,J5*%
X185200000Y-98500000D03*
D15*
X182660000Y-98500000D03*
X180120000Y-98500000D03*
X177580000Y-98500000D03*
X175040000Y-98500000D03*
X172500000Y-98500000D03*
X169960000Y-98500000D03*
X167420000Y-98500000D03*
%TD*%
D16*
%TO.C,J6*%
X195500000Y-126700000D03*
D15*
X192960000Y-126700000D03*
%TD*%
D16*
%TO.C,J7*%
X195500000Y-121900000D03*
D15*
X192960000Y-121900000D03*
%TD*%
%TO.C,J8*%
X192960000Y-118100000D03*
D16*
X195500000Y-118100000D03*
%TD*%
%TO.C,J9*%
X195500000Y-114300000D03*
D15*
X192960000Y-114300000D03*
%TD*%
D16*
%TO.C,J10*%
X195500000Y-110500000D03*
D15*
X192960000Y-110500000D03*
%TD*%
%TO.C,J11*%
X192960000Y-106700000D03*
D16*
X195500000Y-106700000D03*
%TD*%
D15*
%TO.C,J12*%
X192960000Y-103000000D03*
D16*
X195500000Y-103000000D03*
%TD*%
D17*
%TO.C,S1*%
X121000000Y-110800000D03*
X118500000Y-110800000D03*
X116000000Y-110800000D03*
X121000000Y-125300000D03*
X116000000Y-125300000D03*
D21*
X124200000Y-118300000D03*
X112800000Y-118300000D03*
%TD*%
D22*
%TO.C,U2*%
X166540000Y-134340000D03*
D23*
X183200000Y-131800000D03*
D24*
X183200000Y-134340000D03*
X183200000Y-136880000D03*
%TD*%
M02*
