%TF.GenerationSoftware,KiCad,Pcbnew,(5.1.8)-1*%
%TF.CreationDate,2021-03-10T15:17:51+00:00*%
%TF.ProjectId,Project_2_smaller,50726f6a-6563-4745-9f32-5f736d616c6c,rev?*%
%TF.SameCoordinates,Original*%
%TF.FileFunction,Copper,L4,Bot*%
%TF.FilePolarity,Positive*%
%FSLAX46Y46*%
G04 Gerber Fmt 4.6, Leading zero omitted, Abs format (unit mm)*
G04 Created by KiCad (PCBNEW (5.1.8)-1) date 2021-03-10 15:17:51*
%MOMM*%
%LPD*%
G01*
G04 APERTURE LIST*
%TA.AperFunction,ComponentPad*%
%ADD10O,1.000000X1.550000*%
%TD*%
%TA.AperFunction,ComponentPad*%
%ADD11O,1.250000X0.950000*%
%TD*%
%TA.AperFunction,ComponentPad*%
%ADD12R,4.500000X2.000000*%
%TD*%
%TA.AperFunction,ComponentPad*%
%ADD13R,2.000000X4.500000*%
%TD*%
%TA.AperFunction,ComponentPad*%
%ADD14O,1.700000X1.700000*%
%TD*%
%TA.AperFunction,ComponentPad*%
%ADD15R,1.700000X1.700000*%
%TD*%
%TA.AperFunction,ComponentPad*%
%ADD16C,2.000000*%
%TD*%
%TA.AperFunction,ComponentPad*%
%ADD17R,2.170000X2.170000*%
%TD*%
%TA.AperFunction,ComponentPad*%
%ADD18C,2.500000*%
%TD*%
%TA.AperFunction,ComponentPad*%
%ADD19R,2.800000X3.600000*%
%TD*%
%TA.AperFunction,ComponentPad*%
%ADD20R,2.000000X1.905000*%
%TD*%
%TA.AperFunction,ComponentPad*%
%ADD21O,2.000000X1.905000*%
%TD*%
%TA.AperFunction,ViaPad*%
%ADD22C,0.800000*%
%TD*%
%TA.AperFunction,ViaPad*%
%ADD23C,1.000000*%
%TD*%
%TA.AperFunction,Conductor*%
%ADD24C,0.250000*%
%TD*%
%TA.AperFunction,Conductor*%
%ADD25C,1.000000*%
%TD*%
%TA.AperFunction,Conductor*%
%ADD26C,0.254000*%
%TD*%
%TA.AperFunction,Conductor*%
%ADD27C,0.100000*%
%TD*%
G04 APERTURE END LIST*
D10*
%TO.P,J1,6*%
%TO.N,Earth*%
X120200000Y-137200000D03*
X113200000Y-137200000D03*
D11*
X114200000Y-134500000D03*
X119200000Y-134500000D03*
%TD*%
D12*
%TO.P,J2,3*%
%TO.N,N/C*%
X193400000Y-138700000D03*
D13*
%TO.P,J2,1*%
%TO.N,LINE*%
X190400000Y-134000000D03*
%TO.P,J2,2*%
%TO.N,Earth*%
X196400000Y-134000000D03*
%TD*%
D14*
%TO.P,J13,5*%
%TO.N,SCL*%
X158120000Y-105500000D03*
%TO.P,J13,4*%
%TO.N,SDA*%
X160660000Y-105500000D03*
%TO.P,J13,3*%
%TO.N,Earth*%
X163200000Y-105500000D03*
%TO.P,J13,2*%
%TO.N,+3V3*%
X165740000Y-105500000D03*
D15*
%TO.P,J13,1*%
X168280000Y-105500000D03*
D16*
%TO.P,J13,*%
%TO.N,*%
X139832000Y-106262000D03*
X186568000Y-106262000D03*
X186568000Y-130138000D03*
X139832000Y-130138000D03*
%TD*%
D17*
%TO.P,BT1,2*%
%TO.N,Earth*%
X176500000Y-124200000D03*
D18*
%TO.P,BT1,1*%
%TO.N,Net-(BT1-Pad1)*%
X176500000Y-104200000D03*
%TD*%
D15*
%TO.P,J5,1*%
%TO.N,+12V*%
X185200000Y-98500000D03*
D14*
%TO.P,J5,2*%
%TO.N,/PWM6*%
X182660000Y-98500000D03*
%TO.P,J5,3*%
%TO.N,/PWM5*%
X180120000Y-98500000D03*
%TO.P,J5,4*%
%TO.N,/PWM4*%
X177580000Y-98500000D03*
%TO.P,J5,5*%
%TO.N,/PWM3*%
X175040000Y-98500000D03*
%TO.P,J5,6*%
%TO.N,/PWM2*%
X172500000Y-98500000D03*
%TO.P,J5,7*%
%TO.N,/PWM1*%
X169960000Y-98500000D03*
%TO.P,J5,8*%
%TO.N,Earth*%
X167420000Y-98500000D03*
%TD*%
D15*
%TO.P,J6,1*%
%TO.N,/OnOff*%
X195500000Y-126700000D03*
D14*
%TO.P,J6,2*%
%TO.N,Earth*%
X192960000Y-126700000D03*
%TD*%
D15*
%TO.P,J7,1*%
%TO.N,+12V*%
X195500000Y-121900000D03*
D14*
%TO.P,J7,2*%
%TO.N,Earth*%
X192960000Y-121900000D03*
%TD*%
%TO.P,J8,2*%
%TO.N,Earth*%
X192960000Y-118100000D03*
D15*
%TO.P,J8,1*%
%TO.N,+12V*%
X195500000Y-118100000D03*
%TD*%
%TO.P,J9,1*%
%TO.N,+3V3*%
X195500000Y-114300000D03*
D14*
%TO.P,J9,2*%
%TO.N,Earth*%
X192960000Y-114300000D03*
%TD*%
D15*
%TO.P,J10,1*%
%TO.N,+3V3*%
X195500000Y-110500000D03*
D14*
%TO.P,J10,2*%
%TO.N,Earth*%
X192960000Y-110500000D03*
%TD*%
%TO.P,J11,2*%
%TO.N,SDA*%
X192960000Y-106700000D03*
D15*
%TO.P,J11,1*%
%TO.N,SCL*%
X195500000Y-106700000D03*
%TD*%
D14*
%TO.P,J12,2*%
%TO.N,SDA*%
X192960000Y-103000000D03*
D15*
%TO.P,J12,1*%
%TO.N,SCL*%
X195500000Y-103000000D03*
%TD*%
D16*
%TO.P,S1,B*%
%TO.N,Net-(R11-Pad2)*%
X121000000Y-110800000D03*
%TO.P,S1,C*%
%TO.N,Earth*%
X118500000Y-110800000D03*
%TO.P,S1,A*%
%TO.N,Net-(R10-Pad2)*%
X116000000Y-110800000D03*
%TO.P,S1,2*%
%TO.N,/Button*%
X121000000Y-125300000D03*
%TO.P,S1,1*%
%TO.N,+3V3*%
X116000000Y-125300000D03*
D19*
%TO.P,S1,3*%
%TO.N,Earth*%
X124200000Y-118300000D03*
X112800000Y-118300000D03*
%TD*%
D20*
%TO.P,U2,1*%
%TO.N,LINE*%
X183200000Y-131800000D03*
D21*
%TO.P,U2,2*%
%TO.N,Earth*%
X183200000Y-134340000D03*
%TO.P,U2,3*%
%TO.N,+12V*%
X183200000Y-136880000D03*
%TD*%
D22*
%TO.N,*%
X141700000Y-111950000D03*
D23*
%TO.N,Earth*%
X178050000Y-109350000D03*
D22*
X136589999Y-102534999D03*
X143100000Y-127750000D03*
X140550000Y-123050000D03*
X129500000Y-132900000D03*
X179200000Y-118650000D03*
X174480000Y-121120000D03*
X129350000Y-138300000D03*
D23*
%TO.N,+3V3*%
X133700000Y-103400000D03*
D22*
X186200000Y-113500000D03*
X174200000Y-138500000D03*
D23*
X175200000Y-130500000D03*
D22*
X172950000Y-121500000D03*
X152000000Y-125550000D03*
X130980000Y-137320000D03*
X159250000Y-123250000D03*
%TO.N,/RESET*%
X128200000Y-122500000D03*
X130700000Y-105500000D03*
%TO.N,SDA*%
X157700000Y-108000000D03*
%TO.N,TXD*%
X152200000Y-107000000D03*
X134200000Y-129500000D03*
%TO.N,RXD*%
X135200000Y-130000000D03*
X152200000Y-108500000D03*
%TO.N,/IO0*%
X137700000Y-125000000D03*
X157700000Y-120500000D03*
%TO.N,Net-(Q1-Pad2)*%
X134700000Y-131600000D03*
X132545131Y-130945131D03*
%TO.N,/RTC-INTSQW*%
X150300000Y-117650000D03*
X169300000Y-122800000D03*
%TO.N,MOSI*%
X154200000Y-121500000D03*
X152200000Y-116000000D03*
%TO.N,Net-(BT1-Pad1)*%
X175700000Y-107500000D03*
%TO.N,/!SD_SS*%
X154717805Y-123017449D03*
X151700000Y-119000000D03*
%TO.N,/PWM6*%
X147200000Y-117500000D03*
%TO.N,/PWM5*%
X148700000Y-116000000D03*
%TO.N,/PWM4*%
X149725306Y-114525306D03*
%TO.N,/PWM3*%
X145212653Y-118012653D03*
%TO.N,/PWM2*%
X143700000Y-118500000D03*
%TO.N,/PWM1*%
X140200000Y-117500000D03*
%TD*%
D24*
%TO.N,/RESET*%
X128200000Y-108000000D02*
X130700000Y-105500000D01*
X128200000Y-122500000D02*
X128200000Y-108000000D01*
D25*
%TO.N,+12V*%
X184867999Y-98832001D02*
X184867999Y-102982001D01*
X185200000Y-98500000D02*
X184867999Y-98832001D01*
X184867999Y-102982001D02*
X181400000Y-106450000D01*
X181400000Y-106450000D02*
X181400000Y-126950000D01*
X181400000Y-126950000D02*
X179500000Y-128850000D01*
X179500000Y-128850000D02*
X179500000Y-135450000D01*
X180930000Y-136880000D02*
X183200000Y-136880000D01*
X179500000Y-135450000D02*
X180930000Y-136880000D01*
D24*
%TO.N,SDA*%
X160200000Y-105500000D02*
X160660000Y-105500000D01*
X157700000Y-108000000D02*
X160200000Y-105500000D01*
%TO.N,TXD*%
X134200000Y-125000000D02*
X134200000Y-129500000D01*
X152200000Y-107000000D02*
X134200000Y-125000000D01*
%TO.N,RXD*%
X135200000Y-125500000D02*
X152200000Y-108500000D01*
X135200000Y-130000000D02*
X135200000Y-125500000D01*
%TO.N,/IO0*%
X137700000Y-125000000D02*
X139200000Y-126500000D01*
X139200000Y-126500000D02*
X155700000Y-126500000D01*
X157700000Y-124500000D02*
X157700000Y-120500000D01*
X155700000Y-126500000D02*
X157700000Y-124500000D01*
%TO.N,Net-(Q1-Pad2)*%
X133200000Y-131600000D02*
X132545131Y-130945131D01*
X134700000Y-131600000D02*
X133200000Y-131600000D01*
%TO.N,/RTC-INTSQW*%
X161774999Y-115274999D02*
X169300000Y-122800000D01*
X151851999Y-115274999D02*
X161774999Y-115274999D01*
X150300000Y-116826998D02*
X151851999Y-115274999D01*
X150300000Y-117650000D02*
X150300000Y-116826998D01*
%TO.N,MOSI*%
X154200000Y-118000000D02*
X152200000Y-116000000D01*
X154200000Y-121500000D02*
X154200000Y-118000000D01*
%TO.N,Net-(BT1-Pad1)*%
X176500000Y-106700000D02*
X176500000Y-104200000D01*
X175700000Y-107500000D02*
X176500000Y-106700000D01*
%TO.N,/!SD_SS*%
X151700000Y-120573002D02*
X151700000Y-119000000D01*
X154144447Y-123017449D02*
X151700000Y-120573002D01*
X154717805Y-123017449D02*
X154144447Y-123017449D01*
%TO.N,/PWM6*%
X147200000Y-117500000D02*
X148700000Y-117500000D01*
X182660000Y-102676410D02*
X182660000Y-98500000D01*
X155249990Y-110950010D02*
X174386400Y-110950010D01*
X174386400Y-110950010D02*
X182660000Y-102676410D01*
X148700000Y-117500000D02*
X155249990Y-110950010D01*
%TO.N,/PWM5*%
X180120000Y-104580000D02*
X180120000Y-98500000D01*
X167349972Y-110350028D02*
X174349972Y-110350028D01*
X167200000Y-110500000D02*
X167349972Y-110350028D01*
X154823614Y-110500000D02*
X167200000Y-110500000D01*
X174349972Y-110350028D02*
X180120000Y-104580000D01*
X149323614Y-116000000D02*
X154823614Y-110500000D01*
X148700000Y-116000000D02*
X149323614Y-116000000D01*
%TO.N,/PWM4*%
X174924999Y-101155001D02*
X177580000Y-98500000D01*
X174924999Y-103547821D02*
X174924999Y-101155001D01*
X168572802Y-109900018D02*
X174924999Y-103547821D01*
X154350594Y-109900018D02*
X168572802Y-109900018D01*
X149725306Y-114525306D02*
X154350594Y-109900018D01*
%TO.N,/PWM3*%
X151950307Y-111274999D02*
X151950307Y-111249693D01*
X145212653Y-118012653D02*
X151950307Y-111274999D01*
X168386401Y-109450009D02*
X173700000Y-104136410D01*
X153749990Y-109450010D02*
X168386401Y-109450009D01*
X151950307Y-111249693D02*
X153749990Y-109450010D01*
X173700000Y-99840000D02*
X175040000Y-98500000D01*
X173700000Y-104136410D02*
X173700000Y-99840000D01*
%TO.N,/PWM2*%
X143700000Y-118500000D02*
X153200000Y-109000000D01*
X153200000Y-109000000D02*
X168200000Y-109000000D01*
X172500000Y-104700000D02*
X172500000Y-98500000D01*
X168200000Y-109000000D02*
X172500000Y-104700000D01*
%TO.N,/PWM1*%
X140200000Y-117500000D02*
X154700000Y-103000000D01*
X165460000Y-103000000D02*
X169960000Y-98500000D01*
X154700000Y-103000000D02*
X165460000Y-103000000D01*
%TD*%
D26*
%TO.N,Earth*%
X131073000Y-102500000D02*
X131075440Y-102524776D01*
X131082667Y-102548601D01*
X131094403Y-102570557D01*
X131110197Y-102589803D01*
X131129443Y-102605597D01*
X131151399Y-102617333D01*
X131175224Y-102624560D01*
X131200000Y-102627000D01*
X132867868Y-102627000D01*
X132818388Y-102676480D01*
X132694176Y-102862376D01*
X132608617Y-103068933D01*
X132565000Y-103288212D01*
X132565000Y-103511788D01*
X132608617Y-103731067D01*
X132694176Y-103937624D01*
X132818388Y-104123520D01*
X132976480Y-104281612D01*
X133162376Y-104405824D01*
X133368933Y-104491383D01*
X133588212Y-104535000D01*
X133811788Y-104535000D01*
X134031067Y-104491383D01*
X134237624Y-104405824D01*
X134423520Y-104281612D01*
X134581612Y-104123520D01*
X134705824Y-103937624D01*
X134791383Y-103731067D01*
X134835000Y-103511788D01*
X134835000Y-103288212D01*
X134791383Y-103068933D01*
X134705824Y-102862376D01*
X134581612Y-102676480D01*
X134532132Y-102627000D01*
X153998198Y-102627000D01*
X140160199Y-116465000D01*
X140098061Y-116465000D01*
X139898102Y-116504774D01*
X139709744Y-116582795D01*
X139540226Y-116696063D01*
X139396063Y-116840226D01*
X139282795Y-117009744D01*
X139204774Y-117198102D01*
X139165000Y-117398061D01*
X139165000Y-117601939D01*
X139204774Y-117801898D01*
X139282795Y-117990256D01*
X139396063Y-118159774D01*
X139540226Y-118303937D01*
X139708695Y-118416504D01*
X133689003Y-124436196D01*
X133659999Y-124459999D01*
X133627171Y-124500001D01*
X133565026Y-124575724D01*
X133525866Y-124648987D01*
X133494454Y-124707754D01*
X133450997Y-124851015D01*
X133440000Y-124962668D01*
X133440000Y-124962678D01*
X133436324Y-125000000D01*
X133440000Y-125037323D01*
X133440001Y-128796288D01*
X133396063Y-128840226D01*
X133282795Y-129009744D01*
X133204774Y-129198102D01*
X133165000Y-129398061D01*
X133165000Y-129601939D01*
X133204774Y-129801898D01*
X133282795Y-129990256D01*
X133396063Y-130159774D01*
X133540226Y-130303937D01*
X133709744Y-130417205D01*
X133898102Y-130495226D01*
X134098061Y-130535000D01*
X134301939Y-130535000D01*
X134311430Y-130533112D01*
X134367722Y-130617358D01*
X134209744Y-130682795D01*
X134040226Y-130796063D01*
X133996289Y-130840000D01*
X133579496Y-130840000D01*
X133540357Y-130643233D01*
X133462336Y-130454875D01*
X133349068Y-130285357D01*
X133204905Y-130141194D01*
X133035387Y-130027926D01*
X132847029Y-129949905D01*
X132647070Y-129910131D01*
X132443192Y-129910131D01*
X132243233Y-129949905D01*
X132054875Y-130027926D01*
X131885357Y-130141194D01*
X131741194Y-130285357D01*
X131627926Y-130454875D01*
X131549905Y-130643233D01*
X131510131Y-130843192D01*
X131510131Y-131047070D01*
X131549905Y-131247029D01*
X131627926Y-131435387D01*
X131741194Y-131604905D01*
X131885357Y-131749068D01*
X132054875Y-131862336D01*
X132243233Y-131940357D01*
X132443192Y-131980131D01*
X132505329Y-131980131D01*
X132636200Y-132111002D01*
X132659999Y-132140001D01*
X132688997Y-132163799D01*
X132775724Y-132234974D01*
X132907753Y-132305546D01*
X133051014Y-132349003D01*
X133200000Y-132363677D01*
X133237333Y-132360000D01*
X133996289Y-132360000D01*
X134040226Y-132403937D01*
X134209744Y-132517205D01*
X134398102Y-132595226D01*
X134598061Y-132635000D01*
X134801939Y-132635000D01*
X135001898Y-132595226D01*
X135190256Y-132517205D01*
X135359774Y-132403937D01*
X135503937Y-132259774D01*
X135617205Y-132090256D01*
X135695226Y-131901898D01*
X135735000Y-131701939D01*
X135735000Y-131498061D01*
X135695226Y-131298102D01*
X135617205Y-131109744D01*
X135532278Y-130982642D01*
X135690256Y-130917205D01*
X135859774Y-130803937D01*
X136003937Y-130659774D01*
X136117205Y-130490256D01*
X136195226Y-130301898D01*
X136235000Y-130101939D01*
X136235000Y-129976967D01*
X138197000Y-129976967D01*
X138197000Y-130299033D01*
X138259832Y-130614912D01*
X138383082Y-130912463D01*
X138562013Y-131180252D01*
X138789748Y-131407987D01*
X139057537Y-131586918D01*
X139355088Y-131710168D01*
X139670967Y-131773000D01*
X139993033Y-131773000D01*
X140308912Y-131710168D01*
X140606463Y-131586918D01*
X140874252Y-131407987D01*
X141101987Y-131180252D01*
X141280918Y-130912463D01*
X141404168Y-130614912D01*
X141449261Y-130388212D01*
X174065000Y-130388212D01*
X174065000Y-130611788D01*
X174108617Y-130831067D01*
X174194176Y-131037624D01*
X174318388Y-131223520D01*
X174476480Y-131381612D01*
X174662376Y-131505824D01*
X174868933Y-131591383D01*
X175088212Y-131635000D01*
X175311788Y-131635000D01*
X175531067Y-131591383D01*
X175737624Y-131505824D01*
X175923520Y-131381612D01*
X176081612Y-131223520D01*
X176205824Y-131037624D01*
X176291383Y-130831067D01*
X176335000Y-130611788D01*
X176335000Y-130388212D01*
X176291383Y-130168933D01*
X176205824Y-129962376D01*
X176081612Y-129776480D01*
X175923520Y-129618388D01*
X175737624Y-129494176D01*
X175531067Y-129408617D01*
X175311788Y-129365000D01*
X175088212Y-129365000D01*
X174868933Y-129408617D01*
X174662376Y-129494176D01*
X174476480Y-129618388D01*
X174318388Y-129776480D01*
X174194176Y-129962376D01*
X174108617Y-130168933D01*
X174065000Y-130388212D01*
X141449261Y-130388212D01*
X141467000Y-130299033D01*
X141467000Y-129976967D01*
X141404168Y-129661088D01*
X141280918Y-129363537D01*
X141101987Y-129095748D01*
X140874252Y-128868013D01*
X140606463Y-128689082D01*
X140308912Y-128565832D01*
X139993033Y-128503000D01*
X139670967Y-128503000D01*
X139355088Y-128565832D01*
X139057537Y-128689082D01*
X138789748Y-128868013D01*
X138562013Y-129095748D01*
X138383082Y-129363537D01*
X138259832Y-129661088D01*
X138197000Y-129976967D01*
X136235000Y-129976967D01*
X136235000Y-129898061D01*
X136195226Y-129698102D01*
X136117205Y-129509744D01*
X136003937Y-129340226D01*
X135960000Y-129296289D01*
X135960000Y-125814801D01*
X136666304Y-125108497D01*
X136704774Y-125301898D01*
X136782795Y-125490256D01*
X136896063Y-125659774D01*
X137040226Y-125803937D01*
X137209744Y-125917205D01*
X137398102Y-125995226D01*
X137598061Y-126035000D01*
X137660199Y-126035000D01*
X138636201Y-127011003D01*
X138659999Y-127040001D01*
X138775724Y-127134974D01*
X138907753Y-127205546D01*
X139051014Y-127249003D01*
X139162667Y-127260000D01*
X139162676Y-127260000D01*
X139199999Y-127263676D01*
X139237322Y-127260000D01*
X155662678Y-127260000D01*
X155700000Y-127263676D01*
X155737322Y-127260000D01*
X155737333Y-127260000D01*
X155848986Y-127249003D01*
X155992247Y-127205546D01*
X156124276Y-127134974D01*
X156240001Y-127040001D01*
X156263804Y-127010997D01*
X157989801Y-125285000D01*
X174776928Y-125285000D01*
X174789188Y-125409482D01*
X174825498Y-125529180D01*
X174884463Y-125639494D01*
X174963815Y-125736185D01*
X175060506Y-125815537D01*
X175170820Y-125874502D01*
X175290518Y-125910812D01*
X175415000Y-125923072D01*
X176214250Y-125920000D01*
X176373000Y-125761250D01*
X176373000Y-124327000D01*
X176627000Y-124327000D01*
X176627000Y-125761250D01*
X176785750Y-125920000D01*
X177585000Y-125923072D01*
X177709482Y-125910812D01*
X177829180Y-125874502D01*
X177939494Y-125815537D01*
X178036185Y-125736185D01*
X178115537Y-125639494D01*
X178174502Y-125529180D01*
X178210812Y-125409482D01*
X178223072Y-125285000D01*
X178220000Y-124485750D01*
X178061250Y-124327000D01*
X176627000Y-124327000D01*
X176373000Y-124327000D01*
X174938750Y-124327000D01*
X174780000Y-124485750D01*
X174776928Y-125285000D01*
X157989801Y-125285000D01*
X158211004Y-125063798D01*
X158240001Y-125040001D01*
X158303467Y-124962668D01*
X158334974Y-124924277D01*
X158405546Y-124792247D01*
X158418059Y-124750997D01*
X158449003Y-124648986D01*
X158460000Y-124537333D01*
X158460000Y-124537324D01*
X158463676Y-124500001D01*
X158460000Y-124462678D01*
X158460000Y-123923711D01*
X158590226Y-124053937D01*
X158759744Y-124167205D01*
X158948102Y-124245226D01*
X159148061Y-124285000D01*
X159351939Y-124285000D01*
X159551898Y-124245226D01*
X159740256Y-124167205D01*
X159909774Y-124053937D01*
X160053937Y-123909774D01*
X160167205Y-123740256D01*
X160245226Y-123551898D01*
X160285000Y-123351939D01*
X160285000Y-123148061D01*
X160245226Y-122948102D01*
X160167205Y-122759744D01*
X160053937Y-122590226D01*
X159909774Y-122446063D01*
X159740256Y-122332795D01*
X159551898Y-122254774D01*
X159351939Y-122215000D01*
X159148061Y-122215000D01*
X158948102Y-122254774D01*
X158759744Y-122332795D01*
X158590226Y-122446063D01*
X158460000Y-122576289D01*
X158460000Y-121203711D01*
X158503937Y-121159774D01*
X158617205Y-120990256D01*
X158695226Y-120801898D01*
X158735000Y-120601939D01*
X158735000Y-120398061D01*
X158695226Y-120198102D01*
X158617205Y-120009744D01*
X158503937Y-119840226D01*
X158359774Y-119696063D01*
X158190256Y-119582795D01*
X158001898Y-119504774D01*
X157801939Y-119465000D01*
X157598061Y-119465000D01*
X157398102Y-119504774D01*
X157209744Y-119582795D01*
X157040226Y-119696063D01*
X156896063Y-119840226D01*
X156782795Y-120009744D01*
X156704774Y-120198102D01*
X156665000Y-120398061D01*
X156665000Y-120601939D01*
X156704774Y-120801898D01*
X156782795Y-120990256D01*
X156896063Y-121159774D01*
X156940001Y-121203712D01*
X156940000Y-124185198D01*
X155385199Y-125740000D01*
X153017484Y-125740000D01*
X153035000Y-125651939D01*
X153035000Y-125448061D01*
X152995226Y-125248102D01*
X152917205Y-125059744D01*
X152803937Y-124890226D01*
X152659774Y-124746063D01*
X152490256Y-124632795D01*
X152301898Y-124554774D01*
X152101939Y-124515000D01*
X151898061Y-124515000D01*
X151698102Y-124554774D01*
X151509744Y-124632795D01*
X151340226Y-124746063D01*
X151196063Y-124890226D01*
X151082795Y-125059744D01*
X151004774Y-125248102D01*
X150965000Y-125448061D01*
X150965000Y-125651939D01*
X150982516Y-125740000D01*
X139514802Y-125740000D01*
X138735000Y-124960199D01*
X138735000Y-124898061D01*
X138695226Y-124698102D01*
X138617205Y-124509744D01*
X138503937Y-124340226D01*
X138359774Y-124196063D01*
X138190256Y-124082795D01*
X138001898Y-124004774D01*
X137808497Y-123966304D01*
X142783496Y-118991305D01*
X142896063Y-119159774D01*
X143040226Y-119303937D01*
X143209744Y-119417205D01*
X143398102Y-119495226D01*
X143598061Y-119535000D01*
X143801939Y-119535000D01*
X144001898Y-119495226D01*
X144190256Y-119417205D01*
X144359774Y-119303937D01*
X144503937Y-119159774D01*
X144617205Y-118990256D01*
X144659602Y-118887900D01*
X144722397Y-118929858D01*
X144910755Y-119007879D01*
X145110714Y-119047653D01*
X145314592Y-119047653D01*
X145514551Y-119007879D01*
X145702909Y-118929858D01*
X145872427Y-118816590D01*
X146016590Y-118672427D01*
X146129858Y-118502909D01*
X146207879Y-118314551D01*
X146247653Y-118114592D01*
X146247653Y-118052454D01*
X146293632Y-118006475D01*
X146396063Y-118159774D01*
X146540226Y-118303937D01*
X146709744Y-118417205D01*
X146898102Y-118495226D01*
X147098061Y-118535000D01*
X147301939Y-118535000D01*
X147501898Y-118495226D01*
X147690256Y-118417205D01*
X147859774Y-118303937D01*
X147903711Y-118260000D01*
X148662678Y-118260000D01*
X148700000Y-118263676D01*
X148737322Y-118260000D01*
X148737333Y-118260000D01*
X148848986Y-118249003D01*
X148992247Y-118205546D01*
X149124276Y-118134974D01*
X149240001Y-118040001D01*
X149263804Y-118010997D01*
X149310084Y-117964717D01*
X149382795Y-118140256D01*
X149496063Y-118309774D01*
X149640226Y-118453937D01*
X149809744Y-118567205D01*
X149998102Y-118645226D01*
X150198061Y-118685000D01*
X150401939Y-118685000D01*
X150601898Y-118645226D01*
X150752519Y-118582836D01*
X150704774Y-118698102D01*
X150665000Y-118898061D01*
X150665000Y-119101939D01*
X150704774Y-119301898D01*
X150782795Y-119490256D01*
X150896063Y-119659774D01*
X150940001Y-119703712D01*
X150940000Y-120535679D01*
X150936324Y-120573002D01*
X150940000Y-120610324D01*
X150940000Y-120610334D01*
X150950997Y-120721987D01*
X150976427Y-120805820D01*
X150994454Y-120865248D01*
X151065026Y-120997278D01*
X151075257Y-121009744D01*
X151159999Y-121113003D01*
X151189003Y-121136806D01*
X153580648Y-123528452D01*
X153604446Y-123557450D01*
X153633444Y-123581248D01*
X153720170Y-123652423D01*
X153841368Y-123717205D01*
X153852200Y-123722995D01*
X153995461Y-123766452D01*
X154003931Y-123767286D01*
X154058031Y-123821386D01*
X154227549Y-123934654D01*
X154415907Y-124012675D01*
X154615866Y-124052449D01*
X154819744Y-124052449D01*
X155019703Y-124012675D01*
X155208061Y-123934654D01*
X155377579Y-123821386D01*
X155521742Y-123677223D01*
X155635010Y-123507705D01*
X155713031Y-123319347D01*
X155752805Y-123119388D01*
X155752805Y-122915510D01*
X155713031Y-122715551D01*
X155635010Y-122527193D01*
X155521742Y-122357675D01*
X155377579Y-122213512D01*
X155208061Y-122100244D01*
X155079340Y-122046926D01*
X155117205Y-121990256D01*
X155195226Y-121801898D01*
X155235000Y-121601939D01*
X155235000Y-121398061D01*
X155195226Y-121198102D01*
X155117205Y-121009744D01*
X155003937Y-120840226D01*
X154960000Y-120796289D01*
X154960000Y-118037322D01*
X154963676Y-117999999D01*
X154960000Y-117962676D01*
X154960000Y-117962667D01*
X154949003Y-117851014D01*
X154905546Y-117707753D01*
X154834974Y-117575723D01*
X154763799Y-117488997D01*
X154740001Y-117459999D01*
X154711003Y-117436201D01*
X153309800Y-116034999D01*
X161460198Y-116034999D01*
X168265000Y-122839803D01*
X168265000Y-122901939D01*
X168304774Y-123101898D01*
X168382795Y-123290256D01*
X168496063Y-123459774D01*
X168640226Y-123603937D01*
X168809744Y-123717205D01*
X168998102Y-123795226D01*
X169198061Y-123835000D01*
X169401939Y-123835000D01*
X169601898Y-123795226D01*
X169790256Y-123717205D01*
X169959774Y-123603937D01*
X170103937Y-123459774D01*
X170217205Y-123290256D01*
X170289798Y-123115000D01*
X174776928Y-123115000D01*
X174780000Y-123914250D01*
X174938750Y-124073000D01*
X176373000Y-124073000D01*
X176373000Y-122638750D01*
X176627000Y-122638750D01*
X176627000Y-124073000D01*
X178061250Y-124073000D01*
X178220000Y-123914250D01*
X178223072Y-123115000D01*
X178210812Y-122990518D01*
X178174502Y-122870820D01*
X178115537Y-122760506D01*
X178036185Y-122663815D01*
X177939494Y-122584463D01*
X177829180Y-122525498D01*
X177709482Y-122489188D01*
X177585000Y-122476928D01*
X176785750Y-122480000D01*
X176627000Y-122638750D01*
X176373000Y-122638750D01*
X176214250Y-122480000D01*
X175415000Y-122476928D01*
X175290518Y-122489188D01*
X175170820Y-122525498D01*
X175060506Y-122584463D01*
X174963815Y-122663815D01*
X174884463Y-122760506D01*
X174825498Y-122870820D01*
X174789188Y-122990518D01*
X174776928Y-123115000D01*
X170289798Y-123115000D01*
X170295226Y-123101898D01*
X170335000Y-122901939D01*
X170335000Y-122698061D01*
X170295226Y-122498102D01*
X170217205Y-122309744D01*
X170103937Y-122140226D01*
X169959774Y-121996063D01*
X169790256Y-121882795D01*
X169601898Y-121804774D01*
X169401939Y-121765000D01*
X169339803Y-121765000D01*
X168972864Y-121398061D01*
X171915000Y-121398061D01*
X171915000Y-121601939D01*
X171954774Y-121801898D01*
X172032795Y-121990256D01*
X172146063Y-122159774D01*
X172290226Y-122303937D01*
X172459744Y-122417205D01*
X172648102Y-122495226D01*
X172848061Y-122535000D01*
X173051939Y-122535000D01*
X173251898Y-122495226D01*
X173440256Y-122417205D01*
X173609774Y-122303937D01*
X173753937Y-122159774D01*
X173867205Y-121990256D01*
X173945226Y-121801898D01*
X173985000Y-121601939D01*
X173985000Y-121398061D01*
X173945226Y-121198102D01*
X173867205Y-121009744D01*
X173753937Y-120840226D01*
X173609774Y-120696063D01*
X173440256Y-120582795D01*
X173251898Y-120504774D01*
X173051939Y-120465000D01*
X172848061Y-120465000D01*
X172648102Y-120504774D01*
X172459744Y-120582795D01*
X172290226Y-120696063D01*
X172146063Y-120840226D01*
X172032795Y-121009744D01*
X171954774Y-121198102D01*
X171915000Y-121398061D01*
X168972864Y-121398061D01*
X162338803Y-114764002D01*
X162315000Y-114734998D01*
X162199275Y-114640025D01*
X162067246Y-114569453D01*
X161923985Y-114525996D01*
X161812332Y-114514999D01*
X161812321Y-114514999D01*
X161774999Y-114511323D01*
X161737677Y-114514999D01*
X152759803Y-114514999D01*
X155564792Y-111710010D01*
X174349078Y-111710010D01*
X174386400Y-111713686D01*
X174423722Y-111710010D01*
X174423733Y-111710010D01*
X174535386Y-111699013D01*
X174678647Y-111655556D01*
X174810676Y-111584984D01*
X174926401Y-111490011D01*
X174950204Y-111461007D01*
X180323971Y-106087240D01*
X180281423Y-106227502D01*
X180259509Y-106450000D01*
X180265000Y-106505751D01*
X180265001Y-126479867D01*
X178736865Y-128008004D01*
X178693551Y-128043551D01*
X178551716Y-128216377D01*
X178446325Y-128413553D01*
X178446324Y-128413554D01*
X178381423Y-128627502D01*
X178359509Y-128850000D01*
X178365000Y-128905752D01*
X178365001Y-135394239D01*
X178359509Y-135450000D01*
X178381423Y-135672498D01*
X178446324Y-135886446D01*
X178484061Y-135957046D01*
X178551717Y-136083623D01*
X178693552Y-136256449D01*
X178736860Y-136291991D01*
X180088008Y-137643140D01*
X180123551Y-137686449D01*
X180296377Y-137828284D01*
X180493553Y-137933676D01*
X180707501Y-137998577D01*
X180874248Y-138015000D01*
X180874257Y-138015000D01*
X180929999Y-138020490D01*
X180985741Y-138015000D01*
X182033112Y-138015000D01*
X182266265Y-138206345D01*
X182542051Y-138353755D01*
X182841296Y-138444530D01*
X183074514Y-138467500D01*
X183325486Y-138467500D01*
X183558704Y-138444530D01*
X183857949Y-138353755D01*
X184133735Y-138206345D01*
X184375463Y-138007963D01*
X184573845Y-137766235D01*
X184721255Y-137490449D01*
X184812030Y-137191204D01*
X184842681Y-136880000D01*
X184812030Y-136568796D01*
X184721255Y-136269551D01*
X184573845Y-135993765D01*
X184375463Y-135752037D01*
X184196101Y-135604837D01*
X184381315Y-135449437D01*
X184575969Y-135206923D01*
X184719571Y-134931094D01*
X184790563Y-134712980D01*
X184670594Y-134467000D01*
X183327000Y-134467000D01*
X183327000Y-134487000D01*
X183073000Y-134487000D01*
X183073000Y-134467000D01*
X181729406Y-134467000D01*
X181609437Y-134712980D01*
X181680429Y-134931094D01*
X181824031Y-135206923D01*
X182018685Y-135449437D01*
X182203899Y-135604837D01*
X182033112Y-135745000D01*
X181400132Y-135745000D01*
X180635000Y-134979869D01*
X180635000Y-130847500D01*
X181561928Y-130847500D01*
X181561928Y-132752500D01*
X181574188Y-132876982D01*
X181610498Y-132996680D01*
X181669463Y-133106994D01*
X181748815Y-133203685D01*
X181845506Y-133283037D01*
X181937219Y-133332059D01*
X181824031Y-133473077D01*
X181680429Y-133748906D01*
X181609437Y-133967020D01*
X181729406Y-134213000D01*
X183073000Y-134213000D01*
X183073000Y-134193000D01*
X183327000Y-134193000D01*
X183327000Y-134213000D01*
X184670594Y-134213000D01*
X184790563Y-133967020D01*
X184719571Y-133748906D01*
X184575969Y-133473077D01*
X184462781Y-133332059D01*
X184554494Y-133283037D01*
X184651185Y-133203685D01*
X184730537Y-133106994D01*
X184789502Y-132996680D01*
X184825812Y-132876982D01*
X184838072Y-132752500D01*
X184838072Y-130847500D01*
X184825812Y-130723018D01*
X184789502Y-130603320D01*
X184730537Y-130493006D01*
X184651185Y-130396315D01*
X184554494Y-130316963D01*
X184444180Y-130257998D01*
X184324482Y-130221688D01*
X184200000Y-130209428D01*
X182200000Y-130209428D01*
X182075518Y-130221688D01*
X181955820Y-130257998D01*
X181845506Y-130316963D01*
X181748815Y-130396315D01*
X181669463Y-130493006D01*
X181610498Y-130603320D01*
X181574188Y-130723018D01*
X181561928Y-130847500D01*
X180635000Y-130847500D01*
X180635000Y-129976967D01*
X184933000Y-129976967D01*
X184933000Y-130299033D01*
X184995832Y-130614912D01*
X185119082Y-130912463D01*
X185298013Y-131180252D01*
X185525748Y-131407987D01*
X185793537Y-131586918D01*
X186091088Y-131710168D01*
X186406967Y-131773000D01*
X186729033Y-131773000D01*
X186844662Y-131750000D01*
X188761928Y-131750000D01*
X188761928Y-136250000D01*
X188774188Y-136374482D01*
X188810498Y-136494180D01*
X188869463Y-136604494D01*
X188948815Y-136701185D01*
X189045506Y-136780537D01*
X189155820Y-136839502D01*
X189275518Y-136875812D01*
X189400000Y-136888072D01*
X191400000Y-136888072D01*
X191524482Y-136875812D01*
X191644180Y-136839502D01*
X191754494Y-136780537D01*
X191851185Y-136701185D01*
X191930537Y-136604494D01*
X191989502Y-136494180D01*
X192025812Y-136374482D01*
X192038072Y-136250000D01*
X194761928Y-136250000D01*
X194774188Y-136374482D01*
X194810498Y-136494180D01*
X194869463Y-136604494D01*
X194948815Y-136701185D01*
X195045506Y-136780537D01*
X195155820Y-136839502D01*
X195275518Y-136875812D01*
X195400000Y-136888072D01*
X196114250Y-136885000D01*
X196273000Y-136726250D01*
X196273000Y-134127000D01*
X194923750Y-134127000D01*
X194765000Y-134285750D01*
X194761928Y-136250000D01*
X192038072Y-136250000D01*
X192038072Y-131750000D01*
X194761928Y-131750000D01*
X194765000Y-133714250D01*
X194923750Y-133873000D01*
X196273000Y-133873000D01*
X196273000Y-131273750D01*
X196114250Y-131115000D01*
X195400000Y-131111928D01*
X195275518Y-131124188D01*
X195155820Y-131160498D01*
X195045506Y-131219463D01*
X194948815Y-131298815D01*
X194869463Y-131395506D01*
X194810498Y-131505820D01*
X194774188Y-131625518D01*
X194761928Y-131750000D01*
X192038072Y-131750000D01*
X192025812Y-131625518D01*
X191989502Y-131505820D01*
X191930537Y-131395506D01*
X191851185Y-131298815D01*
X191754494Y-131219463D01*
X191644180Y-131160498D01*
X191524482Y-131124188D01*
X191400000Y-131111928D01*
X189400000Y-131111928D01*
X189275518Y-131124188D01*
X189155820Y-131160498D01*
X189045506Y-131219463D01*
X188948815Y-131298815D01*
X188869463Y-131395506D01*
X188810498Y-131505820D01*
X188774188Y-131625518D01*
X188761928Y-131750000D01*
X186844662Y-131750000D01*
X187044912Y-131710168D01*
X187342463Y-131586918D01*
X187610252Y-131407987D01*
X187837987Y-131180252D01*
X188016918Y-130912463D01*
X188140168Y-130614912D01*
X188203000Y-130299033D01*
X188203000Y-129976967D01*
X188140168Y-129661088D01*
X188016918Y-129363537D01*
X187837987Y-129095748D01*
X187610252Y-128868013D01*
X187342463Y-128689082D01*
X187044912Y-128565832D01*
X186729033Y-128503000D01*
X186406967Y-128503000D01*
X186091088Y-128565832D01*
X185793537Y-128689082D01*
X185525748Y-128868013D01*
X185298013Y-129095748D01*
X185119082Y-129363537D01*
X184995832Y-129661088D01*
X184933000Y-129976967D01*
X180635000Y-129976967D01*
X180635000Y-129320131D01*
X182163141Y-127791991D01*
X182206449Y-127756449D01*
X182348284Y-127583623D01*
X182453676Y-127386447D01*
X182518577Y-127172499D01*
X182529963Y-127056891D01*
X191518519Y-127056891D01*
X191615843Y-127331252D01*
X191764822Y-127581355D01*
X191959731Y-127797588D01*
X192193080Y-127971641D01*
X192455901Y-128096825D01*
X192603110Y-128141476D01*
X192833000Y-128020155D01*
X192833000Y-126827000D01*
X191639186Y-126827000D01*
X191518519Y-127056891D01*
X182529963Y-127056891D01*
X182535000Y-127005752D01*
X182540491Y-126950000D01*
X182535000Y-126894248D01*
X182535000Y-126343109D01*
X191518519Y-126343109D01*
X191639186Y-126573000D01*
X192833000Y-126573000D01*
X192833000Y-125379845D01*
X193087000Y-125379845D01*
X193087000Y-126573000D01*
X193107000Y-126573000D01*
X193107000Y-126827000D01*
X193087000Y-126827000D01*
X193087000Y-128020155D01*
X193316890Y-128141476D01*
X193464099Y-128096825D01*
X193726920Y-127971641D01*
X193960269Y-127797588D01*
X194036034Y-127713534D01*
X194060498Y-127794180D01*
X194119463Y-127904494D01*
X194198815Y-128001185D01*
X194295506Y-128080537D01*
X194405820Y-128139502D01*
X194525518Y-128175812D01*
X194650000Y-128188072D01*
X196350000Y-128188072D01*
X196474482Y-128175812D01*
X196594180Y-128139502D01*
X196704494Y-128080537D01*
X196801185Y-128001185D01*
X196880537Y-127904494D01*
X196939502Y-127794180D01*
X196975812Y-127674482D01*
X196988072Y-127550000D01*
X196988072Y-125850000D01*
X196975812Y-125725518D01*
X196939502Y-125605820D01*
X196880537Y-125495506D01*
X196801185Y-125398815D01*
X196704494Y-125319463D01*
X196594180Y-125260498D01*
X196474482Y-125224188D01*
X196350000Y-125211928D01*
X194650000Y-125211928D01*
X194525518Y-125224188D01*
X194405820Y-125260498D01*
X194295506Y-125319463D01*
X194198815Y-125398815D01*
X194119463Y-125495506D01*
X194060498Y-125605820D01*
X194036034Y-125686466D01*
X193960269Y-125602412D01*
X193726920Y-125428359D01*
X193464099Y-125303175D01*
X193316890Y-125258524D01*
X193087000Y-125379845D01*
X192833000Y-125379845D01*
X192603110Y-125258524D01*
X192455901Y-125303175D01*
X192193080Y-125428359D01*
X191959731Y-125602412D01*
X191764822Y-125818645D01*
X191615843Y-126068748D01*
X191518519Y-126343109D01*
X182535000Y-126343109D01*
X182535000Y-122256891D01*
X191518519Y-122256891D01*
X191615843Y-122531252D01*
X191764822Y-122781355D01*
X191959731Y-122997588D01*
X192193080Y-123171641D01*
X192455901Y-123296825D01*
X192603110Y-123341476D01*
X192833000Y-123220155D01*
X192833000Y-122027000D01*
X191639186Y-122027000D01*
X191518519Y-122256891D01*
X182535000Y-122256891D01*
X182535000Y-121543109D01*
X191518519Y-121543109D01*
X191639186Y-121773000D01*
X192833000Y-121773000D01*
X192833000Y-120579845D01*
X193087000Y-120579845D01*
X193087000Y-121773000D01*
X193107000Y-121773000D01*
X193107000Y-122027000D01*
X193087000Y-122027000D01*
X193087000Y-123220155D01*
X193316890Y-123341476D01*
X193464099Y-123296825D01*
X193726920Y-123171641D01*
X193960269Y-122997588D01*
X194036034Y-122913534D01*
X194060498Y-122994180D01*
X194119463Y-123104494D01*
X194198815Y-123201185D01*
X194295506Y-123280537D01*
X194405820Y-123339502D01*
X194525518Y-123375812D01*
X194650000Y-123388072D01*
X196350000Y-123388072D01*
X196474482Y-123375812D01*
X196594180Y-123339502D01*
X196704494Y-123280537D01*
X196801185Y-123201185D01*
X196880537Y-123104494D01*
X196939502Y-122994180D01*
X196975812Y-122874482D01*
X196988072Y-122750000D01*
X196988072Y-121050000D01*
X196975812Y-120925518D01*
X196939502Y-120805820D01*
X196880537Y-120695506D01*
X196801185Y-120598815D01*
X196704494Y-120519463D01*
X196594180Y-120460498D01*
X196474482Y-120424188D01*
X196350000Y-120411928D01*
X194650000Y-120411928D01*
X194525518Y-120424188D01*
X194405820Y-120460498D01*
X194295506Y-120519463D01*
X194198815Y-120598815D01*
X194119463Y-120695506D01*
X194060498Y-120805820D01*
X194036034Y-120886466D01*
X193960269Y-120802412D01*
X193726920Y-120628359D01*
X193464099Y-120503175D01*
X193316890Y-120458524D01*
X193087000Y-120579845D01*
X192833000Y-120579845D01*
X192603110Y-120458524D01*
X192455901Y-120503175D01*
X192193080Y-120628359D01*
X191959731Y-120802412D01*
X191764822Y-121018645D01*
X191615843Y-121268748D01*
X191518519Y-121543109D01*
X182535000Y-121543109D01*
X182535000Y-118456891D01*
X191518519Y-118456891D01*
X191615843Y-118731252D01*
X191764822Y-118981355D01*
X191959731Y-119197588D01*
X192193080Y-119371641D01*
X192455901Y-119496825D01*
X192603110Y-119541476D01*
X192833000Y-119420155D01*
X192833000Y-118227000D01*
X191639186Y-118227000D01*
X191518519Y-118456891D01*
X182535000Y-118456891D01*
X182535000Y-117743109D01*
X191518519Y-117743109D01*
X191639186Y-117973000D01*
X192833000Y-117973000D01*
X192833000Y-116779845D01*
X193087000Y-116779845D01*
X193087000Y-117973000D01*
X193107000Y-117973000D01*
X193107000Y-118227000D01*
X193087000Y-118227000D01*
X193087000Y-119420155D01*
X193316890Y-119541476D01*
X193464099Y-119496825D01*
X193726920Y-119371641D01*
X193960269Y-119197588D01*
X194036034Y-119113534D01*
X194060498Y-119194180D01*
X194119463Y-119304494D01*
X194198815Y-119401185D01*
X194295506Y-119480537D01*
X194405820Y-119539502D01*
X194525518Y-119575812D01*
X194650000Y-119588072D01*
X196350000Y-119588072D01*
X196474482Y-119575812D01*
X196594180Y-119539502D01*
X196704494Y-119480537D01*
X196801185Y-119401185D01*
X196880537Y-119304494D01*
X196939502Y-119194180D01*
X196975812Y-119074482D01*
X196988072Y-118950000D01*
X196988072Y-117250000D01*
X196975812Y-117125518D01*
X196939502Y-117005820D01*
X196880537Y-116895506D01*
X196801185Y-116798815D01*
X196704494Y-116719463D01*
X196594180Y-116660498D01*
X196474482Y-116624188D01*
X196350000Y-116611928D01*
X194650000Y-116611928D01*
X194525518Y-116624188D01*
X194405820Y-116660498D01*
X194295506Y-116719463D01*
X194198815Y-116798815D01*
X194119463Y-116895506D01*
X194060498Y-117005820D01*
X194036034Y-117086466D01*
X193960269Y-117002412D01*
X193726920Y-116828359D01*
X193464099Y-116703175D01*
X193316890Y-116658524D01*
X193087000Y-116779845D01*
X192833000Y-116779845D01*
X192603110Y-116658524D01*
X192455901Y-116703175D01*
X192193080Y-116828359D01*
X191959731Y-117002412D01*
X191764822Y-117218645D01*
X191615843Y-117468748D01*
X191518519Y-117743109D01*
X182535000Y-117743109D01*
X182535000Y-114656891D01*
X191518519Y-114656891D01*
X191615843Y-114931252D01*
X191764822Y-115181355D01*
X191959731Y-115397588D01*
X192193080Y-115571641D01*
X192455901Y-115696825D01*
X192603110Y-115741476D01*
X192833000Y-115620155D01*
X192833000Y-114427000D01*
X191639186Y-114427000D01*
X191518519Y-114656891D01*
X182535000Y-114656891D01*
X182535000Y-113398061D01*
X185165000Y-113398061D01*
X185165000Y-113601939D01*
X185204774Y-113801898D01*
X185282795Y-113990256D01*
X185396063Y-114159774D01*
X185540226Y-114303937D01*
X185709744Y-114417205D01*
X185898102Y-114495226D01*
X186098061Y-114535000D01*
X186301939Y-114535000D01*
X186501898Y-114495226D01*
X186690256Y-114417205D01*
X186859774Y-114303937D01*
X187003937Y-114159774D01*
X187117205Y-113990256D01*
X187136734Y-113943109D01*
X191518519Y-113943109D01*
X191639186Y-114173000D01*
X192833000Y-114173000D01*
X192833000Y-112979845D01*
X193087000Y-112979845D01*
X193087000Y-114173000D01*
X193107000Y-114173000D01*
X193107000Y-114427000D01*
X193087000Y-114427000D01*
X193087000Y-115620155D01*
X193316890Y-115741476D01*
X193464099Y-115696825D01*
X193726920Y-115571641D01*
X193960269Y-115397588D01*
X194036034Y-115313534D01*
X194060498Y-115394180D01*
X194119463Y-115504494D01*
X194198815Y-115601185D01*
X194295506Y-115680537D01*
X194405820Y-115739502D01*
X194525518Y-115775812D01*
X194650000Y-115788072D01*
X196350000Y-115788072D01*
X196474482Y-115775812D01*
X196594180Y-115739502D01*
X196704494Y-115680537D01*
X196801185Y-115601185D01*
X196880537Y-115504494D01*
X196939502Y-115394180D01*
X196975812Y-115274482D01*
X196988072Y-115150000D01*
X196988072Y-113450000D01*
X196975812Y-113325518D01*
X196939502Y-113205820D01*
X196880537Y-113095506D01*
X196801185Y-112998815D01*
X196704494Y-112919463D01*
X196594180Y-112860498D01*
X196474482Y-112824188D01*
X196350000Y-112811928D01*
X194650000Y-112811928D01*
X194525518Y-112824188D01*
X194405820Y-112860498D01*
X194295506Y-112919463D01*
X194198815Y-112998815D01*
X194119463Y-113095506D01*
X194060498Y-113205820D01*
X194036034Y-113286466D01*
X193960269Y-113202412D01*
X193726920Y-113028359D01*
X193464099Y-112903175D01*
X193316890Y-112858524D01*
X193087000Y-112979845D01*
X192833000Y-112979845D01*
X192603110Y-112858524D01*
X192455901Y-112903175D01*
X192193080Y-113028359D01*
X191959731Y-113202412D01*
X191764822Y-113418645D01*
X191615843Y-113668748D01*
X191518519Y-113943109D01*
X187136734Y-113943109D01*
X187195226Y-113801898D01*
X187235000Y-113601939D01*
X187235000Y-113398061D01*
X187195226Y-113198102D01*
X187117205Y-113009744D01*
X187003937Y-112840226D01*
X186859774Y-112696063D01*
X186690256Y-112582795D01*
X186501898Y-112504774D01*
X186301939Y-112465000D01*
X186098061Y-112465000D01*
X185898102Y-112504774D01*
X185709744Y-112582795D01*
X185540226Y-112696063D01*
X185396063Y-112840226D01*
X185282795Y-113009744D01*
X185204774Y-113198102D01*
X185165000Y-113398061D01*
X182535000Y-113398061D01*
X182535000Y-110856891D01*
X191518519Y-110856891D01*
X191615843Y-111131252D01*
X191764822Y-111381355D01*
X191959731Y-111597588D01*
X192193080Y-111771641D01*
X192455901Y-111896825D01*
X192603110Y-111941476D01*
X192833000Y-111820155D01*
X192833000Y-110627000D01*
X191639186Y-110627000D01*
X191518519Y-110856891D01*
X182535000Y-110856891D01*
X182535000Y-110143109D01*
X191518519Y-110143109D01*
X191639186Y-110373000D01*
X192833000Y-110373000D01*
X192833000Y-109179845D01*
X193087000Y-109179845D01*
X193087000Y-110373000D01*
X193107000Y-110373000D01*
X193107000Y-110627000D01*
X193087000Y-110627000D01*
X193087000Y-111820155D01*
X193316890Y-111941476D01*
X193464099Y-111896825D01*
X193726920Y-111771641D01*
X193960269Y-111597588D01*
X194036034Y-111513534D01*
X194060498Y-111594180D01*
X194119463Y-111704494D01*
X194198815Y-111801185D01*
X194295506Y-111880537D01*
X194405820Y-111939502D01*
X194525518Y-111975812D01*
X194650000Y-111988072D01*
X196350000Y-111988072D01*
X196474482Y-111975812D01*
X196594180Y-111939502D01*
X196704494Y-111880537D01*
X196801185Y-111801185D01*
X196880537Y-111704494D01*
X196939502Y-111594180D01*
X196975812Y-111474482D01*
X196988072Y-111350000D01*
X196988072Y-109650000D01*
X196975812Y-109525518D01*
X196939502Y-109405820D01*
X196880537Y-109295506D01*
X196801185Y-109198815D01*
X196704494Y-109119463D01*
X196594180Y-109060498D01*
X196474482Y-109024188D01*
X196350000Y-109011928D01*
X194650000Y-109011928D01*
X194525518Y-109024188D01*
X194405820Y-109060498D01*
X194295506Y-109119463D01*
X194198815Y-109198815D01*
X194119463Y-109295506D01*
X194060498Y-109405820D01*
X194036034Y-109486466D01*
X193960269Y-109402412D01*
X193726920Y-109228359D01*
X193464099Y-109103175D01*
X193316890Y-109058524D01*
X193087000Y-109179845D01*
X192833000Y-109179845D01*
X192603110Y-109058524D01*
X192455901Y-109103175D01*
X192193080Y-109228359D01*
X191959731Y-109402412D01*
X191764822Y-109618645D01*
X191615843Y-109868748D01*
X191518519Y-110143109D01*
X182535000Y-110143109D01*
X182535000Y-106920131D01*
X183354164Y-106100967D01*
X184933000Y-106100967D01*
X184933000Y-106423033D01*
X184995832Y-106738912D01*
X185119082Y-107036463D01*
X185298013Y-107304252D01*
X185525748Y-107531987D01*
X185793537Y-107710918D01*
X186091088Y-107834168D01*
X186406967Y-107897000D01*
X186729033Y-107897000D01*
X187044912Y-107834168D01*
X187342463Y-107710918D01*
X187610252Y-107531987D01*
X187837987Y-107304252D01*
X188016918Y-107036463D01*
X188140168Y-106738912D01*
X188177000Y-106553740D01*
X191475000Y-106553740D01*
X191475000Y-106846260D01*
X191532068Y-107133158D01*
X191644010Y-107403411D01*
X191806525Y-107646632D01*
X192013368Y-107853475D01*
X192256589Y-108015990D01*
X192526842Y-108127932D01*
X192813740Y-108185000D01*
X193106260Y-108185000D01*
X193393158Y-108127932D01*
X193663411Y-108015990D01*
X193906632Y-107853475D01*
X194038487Y-107721620D01*
X194060498Y-107794180D01*
X194119463Y-107904494D01*
X194198815Y-108001185D01*
X194295506Y-108080537D01*
X194405820Y-108139502D01*
X194525518Y-108175812D01*
X194650000Y-108188072D01*
X196350000Y-108188072D01*
X196474482Y-108175812D01*
X196594180Y-108139502D01*
X196704494Y-108080537D01*
X196801185Y-108001185D01*
X196880537Y-107904494D01*
X196939502Y-107794180D01*
X196975812Y-107674482D01*
X196988072Y-107550000D01*
X196988072Y-105850000D01*
X196975812Y-105725518D01*
X196939502Y-105605820D01*
X196880537Y-105495506D01*
X196801185Y-105398815D01*
X196704494Y-105319463D01*
X196594180Y-105260498D01*
X196474482Y-105224188D01*
X196350000Y-105211928D01*
X194650000Y-105211928D01*
X194525518Y-105224188D01*
X194405820Y-105260498D01*
X194295506Y-105319463D01*
X194198815Y-105398815D01*
X194119463Y-105495506D01*
X194060498Y-105605820D01*
X194038487Y-105678380D01*
X193906632Y-105546525D01*
X193663411Y-105384010D01*
X193393158Y-105272068D01*
X193106260Y-105215000D01*
X192813740Y-105215000D01*
X192526842Y-105272068D01*
X192256589Y-105384010D01*
X192013368Y-105546525D01*
X191806525Y-105753368D01*
X191644010Y-105996589D01*
X191532068Y-106266842D01*
X191475000Y-106553740D01*
X188177000Y-106553740D01*
X188203000Y-106423033D01*
X188203000Y-106100967D01*
X188140168Y-105785088D01*
X188016918Y-105487537D01*
X187837987Y-105219748D01*
X187610252Y-104992013D01*
X187342463Y-104813082D01*
X187044912Y-104689832D01*
X186729033Y-104627000D01*
X186406967Y-104627000D01*
X186091088Y-104689832D01*
X185793537Y-104813082D01*
X185525748Y-104992013D01*
X185298013Y-105219748D01*
X185119082Y-105487537D01*
X184995832Y-105785088D01*
X184933000Y-106100967D01*
X183354164Y-106100967D01*
X185631140Y-103823992D01*
X185674448Y-103788450D01*
X185816283Y-103615624D01*
X185921675Y-103418448D01*
X185986576Y-103204500D01*
X186002999Y-103037753D01*
X186002999Y-103037746D01*
X186008489Y-102982002D01*
X186002999Y-102926258D01*
X186002999Y-102853740D01*
X191475000Y-102853740D01*
X191475000Y-103146260D01*
X191532068Y-103433158D01*
X191644010Y-103703411D01*
X191806525Y-103946632D01*
X192013368Y-104153475D01*
X192256589Y-104315990D01*
X192526842Y-104427932D01*
X192813740Y-104485000D01*
X193106260Y-104485000D01*
X193393158Y-104427932D01*
X193663411Y-104315990D01*
X193906632Y-104153475D01*
X194038487Y-104021620D01*
X194060498Y-104094180D01*
X194119463Y-104204494D01*
X194198815Y-104301185D01*
X194295506Y-104380537D01*
X194405820Y-104439502D01*
X194525518Y-104475812D01*
X194650000Y-104488072D01*
X196350000Y-104488072D01*
X196474482Y-104475812D01*
X196594180Y-104439502D01*
X196704494Y-104380537D01*
X196801185Y-104301185D01*
X196880537Y-104204494D01*
X196939502Y-104094180D01*
X196975812Y-103974482D01*
X196988072Y-103850000D01*
X196988072Y-102150000D01*
X196975812Y-102025518D01*
X196939502Y-101905820D01*
X196880537Y-101795506D01*
X196801185Y-101698815D01*
X196704494Y-101619463D01*
X196594180Y-101560498D01*
X196474482Y-101524188D01*
X196350000Y-101511928D01*
X194650000Y-101511928D01*
X194525518Y-101524188D01*
X194405820Y-101560498D01*
X194295506Y-101619463D01*
X194198815Y-101698815D01*
X194119463Y-101795506D01*
X194060498Y-101905820D01*
X194038487Y-101978380D01*
X193906632Y-101846525D01*
X193663411Y-101684010D01*
X193393158Y-101572068D01*
X193106260Y-101515000D01*
X192813740Y-101515000D01*
X192526842Y-101572068D01*
X192256589Y-101684010D01*
X192013368Y-101846525D01*
X191806525Y-102053368D01*
X191644010Y-102296589D01*
X191532068Y-102566842D01*
X191475000Y-102853740D01*
X186002999Y-102853740D01*
X186002999Y-99988072D01*
X186050000Y-99988072D01*
X186174482Y-99975812D01*
X186294180Y-99939502D01*
X186404494Y-99880537D01*
X186501185Y-99801185D01*
X186580537Y-99704494D01*
X186639502Y-99594180D01*
X186675812Y-99474482D01*
X186688072Y-99350000D01*
X186688072Y-97650000D01*
X186675812Y-97525518D01*
X186639502Y-97405820D01*
X186580537Y-97295506D01*
X186501185Y-97198815D01*
X186404494Y-97119463D01*
X186294180Y-97060498D01*
X186174482Y-97024188D01*
X186050000Y-97011928D01*
X184350000Y-97011928D01*
X184225518Y-97024188D01*
X184105820Y-97060498D01*
X183995506Y-97119463D01*
X183898815Y-97198815D01*
X183819463Y-97295506D01*
X183760498Y-97405820D01*
X183738487Y-97478380D01*
X183606632Y-97346525D01*
X183363411Y-97184010D01*
X183093158Y-97072068D01*
X182806260Y-97015000D01*
X182513740Y-97015000D01*
X182226842Y-97072068D01*
X181956589Y-97184010D01*
X181713368Y-97346525D01*
X181506525Y-97553368D01*
X181390000Y-97727760D01*
X181273475Y-97553368D01*
X181066632Y-97346525D01*
X180823411Y-97184010D01*
X180553158Y-97072068D01*
X180266260Y-97015000D01*
X179973740Y-97015000D01*
X179686842Y-97072068D01*
X179416589Y-97184010D01*
X179173368Y-97346525D01*
X178966525Y-97553368D01*
X178850000Y-97727760D01*
X178733475Y-97553368D01*
X178526632Y-97346525D01*
X178283411Y-97184010D01*
X178013158Y-97072068D01*
X177726260Y-97015000D01*
X177433740Y-97015000D01*
X177146842Y-97072068D01*
X176876589Y-97184010D01*
X176633368Y-97346525D01*
X176426525Y-97553368D01*
X176310000Y-97727760D01*
X176193475Y-97553368D01*
X175986632Y-97346525D01*
X175743411Y-97184010D01*
X175473158Y-97072068D01*
X175186260Y-97015000D01*
X174893740Y-97015000D01*
X174606842Y-97072068D01*
X174336589Y-97184010D01*
X174093368Y-97346525D01*
X173886525Y-97553368D01*
X173770000Y-97727760D01*
X173653475Y-97553368D01*
X173446632Y-97346525D01*
X173203411Y-97184010D01*
X172933158Y-97072068D01*
X172646260Y-97015000D01*
X172353740Y-97015000D01*
X172066842Y-97072068D01*
X171796589Y-97184010D01*
X171553368Y-97346525D01*
X171346525Y-97553368D01*
X171230000Y-97727760D01*
X171113475Y-97553368D01*
X170906632Y-97346525D01*
X170663411Y-97184010D01*
X170393158Y-97072068D01*
X170106260Y-97015000D01*
X169813740Y-97015000D01*
X169526842Y-97072068D01*
X169256589Y-97184010D01*
X169013368Y-97346525D01*
X168806525Y-97553368D01*
X168684805Y-97735534D01*
X168615178Y-97618645D01*
X168420269Y-97402412D01*
X168186920Y-97228359D01*
X167924099Y-97103175D01*
X167776890Y-97058524D01*
X167547000Y-97179845D01*
X167547000Y-98373000D01*
X167567000Y-98373000D01*
X167567000Y-98627000D01*
X167547000Y-98627000D01*
X167547000Y-98647000D01*
X167293000Y-98647000D01*
X167293000Y-98627000D01*
X166099186Y-98627000D01*
X165978519Y-98856891D01*
X166075843Y-99131252D01*
X166224822Y-99381355D01*
X166419731Y-99597588D01*
X166653080Y-99771641D01*
X166915901Y-99896825D01*
X167063110Y-99941476D01*
X167292998Y-99820156D01*
X167292998Y-99985000D01*
X167400199Y-99985000D01*
X165145199Y-102240000D01*
X161327000Y-102240000D01*
X161327000Y-98143109D01*
X165978519Y-98143109D01*
X166099186Y-98373000D01*
X167293000Y-98373000D01*
X167293000Y-97179845D01*
X167063110Y-97058524D01*
X166915901Y-97103175D01*
X166653080Y-97228359D01*
X166419731Y-97402412D01*
X166224822Y-97618645D01*
X166075843Y-97868748D01*
X165978519Y-98143109D01*
X161327000Y-98143109D01*
X161327000Y-96627000D01*
X197073000Y-96627000D01*
X197073000Y-131113334D01*
X196685750Y-131115000D01*
X196527000Y-131273750D01*
X196527000Y-133873000D01*
X196547000Y-133873000D01*
X196547000Y-134127000D01*
X196527000Y-134127000D01*
X196527000Y-136726250D01*
X196685750Y-136885000D01*
X197073000Y-136886666D01*
X197073000Y-139373000D01*
X196288072Y-139373000D01*
X196288072Y-137700000D01*
X196275812Y-137575518D01*
X196239502Y-137455820D01*
X196180537Y-137345506D01*
X196101185Y-137248815D01*
X196004494Y-137169463D01*
X195894180Y-137110498D01*
X195774482Y-137074188D01*
X195650000Y-137061928D01*
X191150000Y-137061928D01*
X191025518Y-137074188D01*
X190905820Y-137110498D01*
X190795506Y-137169463D01*
X190698815Y-137248815D01*
X190619463Y-137345506D01*
X190560498Y-137455820D01*
X190524188Y-137575518D01*
X190511928Y-137700000D01*
X190511928Y-139373000D01*
X174756414Y-139373000D01*
X174859774Y-139303937D01*
X175003937Y-139159774D01*
X175117205Y-138990256D01*
X175195226Y-138801898D01*
X175235000Y-138601939D01*
X175235000Y-138398061D01*
X175195226Y-138198102D01*
X175117205Y-138009744D01*
X175003937Y-137840226D01*
X174859774Y-137696063D01*
X174690256Y-137582795D01*
X174501898Y-137504774D01*
X174301939Y-137465000D01*
X174098061Y-137465000D01*
X173898102Y-137504774D01*
X173709744Y-137582795D01*
X173540226Y-137696063D01*
X173396063Y-137840226D01*
X173282795Y-138009744D01*
X173204774Y-138198102D01*
X173165000Y-138398061D01*
X173165000Y-138601939D01*
X173204774Y-138801898D01*
X173282795Y-138990256D01*
X173396063Y-139159774D01*
X173540226Y-139303937D01*
X173643586Y-139373000D01*
X104327000Y-139373000D01*
X104327000Y-137327000D01*
X112065000Y-137327000D01*
X112065000Y-137602000D01*
X112111585Y-137820987D01*
X112199997Y-138026678D01*
X112326839Y-138211169D01*
X112487236Y-138367369D01*
X112675024Y-138489276D01*
X112898126Y-138569119D01*
X113073000Y-138442954D01*
X113073000Y-137327000D01*
X113327000Y-137327000D01*
X113327000Y-138442954D01*
X113501874Y-138569119D01*
X113724976Y-138489276D01*
X113912764Y-138367369D01*
X114073161Y-138211169D01*
X114200003Y-138026678D01*
X114288415Y-137820987D01*
X114335000Y-137602000D01*
X114335000Y-137327000D01*
X119065000Y-137327000D01*
X119065000Y-137602000D01*
X119111585Y-137820987D01*
X119199997Y-138026678D01*
X119326839Y-138211169D01*
X119487236Y-138367369D01*
X119675024Y-138489276D01*
X119898126Y-138569119D01*
X120073000Y-138442954D01*
X120073000Y-137327000D01*
X120327000Y-137327000D01*
X120327000Y-138442954D01*
X120501874Y-138569119D01*
X120724976Y-138489276D01*
X120912764Y-138367369D01*
X121073161Y-138211169D01*
X121200003Y-138026678D01*
X121288415Y-137820987D01*
X121335000Y-137602000D01*
X121335000Y-137327000D01*
X120327000Y-137327000D01*
X120073000Y-137327000D01*
X119065000Y-137327000D01*
X114335000Y-137327000D01*
X113327000Y-137327000D01*
X113073000Y-137327000D01*
X112065000Y-137327000D01*
X104327000Y-137327000D01*
X104327000Y-137218061D01*
X129945000Y-137218061D01*
X129945000Y-137421939D01*
X129984774Y-137621898D01*
X130062795Y-137810256D01*
X130176063Y-137979774D01*
X130320226Y-138123937D01*
X130489744Y-138237205D01*
X130678102Y-138315226D01*
X130878061Y-138355000D01*
X131081939Y-138355000D01*
X131281898Y-138315226D01*
X131470256Y-138237205D01*
X131639774Y-138123937D01*
X131783937Y-137979774D01*
X131897205Y-137810256D01*
X131975226Y-137621898D01*
X132015000Y-137421939D01*
X132015000Y-137218061D01*
X131975226Y-137018102D01*
X131897205Y-136829744D01*
X131783937Y-136660226D01*
X131639774Y-136516063D01*
X131470256Y-136402795D01*
X131281898Y-136324774D01*
X131081939Y-136285000D01*
X130878061Y-136285000D01*
X130678102Y-136324774D01*
X130489744Y-136402795D01*
X130320226Y-136516063D01*
X130176063Y-136660226D01*
X130062795Y-136829744D01*
X129984774Y-137018102D01*
X129945000Y-137218061D01*
X104327000Y-137218061D01*
X104327000Y-136798000D01*
X112065000Y-136798000D01*
X112065000Y-137073000D01*
X113073000Y-137073000D01*
X113073000Y-135957046D01*
X113327000Y-135957046D01*
X113327000Y-137073000D01*
X114335000Y-137073000D01*
X114335000Y-136798000D01*
X119065000Y-136798000D01*
X119065000Y-137073000D01*
X120073000Y-137073000D01*
X120073000Y-135957046D01*
X120327000Y-135957046D01*
X120327000Y-137073000D01*
X121335000Y-137073000D01*
X121335000Y-136798000D01*
X121288415Y-136579013D01*
X121200003Y-136373322D01*
X121073161Y-136188831D01*
X120912764Y-136032631D01*
X120724976Y-135910724D01*
X120668954Y-135890675D01*
X148190000Y-135890675D01*
X148190000Y-136109325D01*
X148232657Y-136323775D01*
X148316331Y-136525782D01*
X148437807Y-136707584D01*
X148592416Y-136862193D01*
X148774218Y-136983669D01*
X148976225Y-137067343D01*
X149190675Y-137110000D01*
X149409325Y-137110000D01*
X149623775Y-137067343D01*
X149825782Y-136983669D01*
X150007584Y-136862193D01*
X150162193Y-136707584D01*
X150283669Y-136525782D01*
X150367343Y-136323775D01*
X150410000Y-136109325D01*
X150410000Y-135890675D01*
X154990000Y-135890675D01*
X154990000Y-136109325D01*
X155032657Y-136323775D01*
X155116331Y-136525782D01*
X155237807Y-136707584D01*
X155392416Y-136862193D01*
X155574218Y-136983669D01*
X155776225Y-137067343D01*
X155990675Y-137110000D01*
X156209325Y-137110000D01*
X156423775Y-137067343D01*
X156625782Y-136983669D01*
X156807584Y-136862193D01*
X156962193Y-136707584D01*
X157083669Y-136525782D01*
X157167343Y-136323775D01*
X157210000Y-136109325D01*
X157210000Y-135890675D01*
X157167343Y-135676225D01*
X157083669Y-135474218D01*
X156962193Y-135292416D01*
X156807584Y-135137807D01*
X156625782Y-135016331D01*
X156423775Y-134932657D01*
X156209325Y-134890000D01*
X155990675Y-134890000D01*
X155776225Y-134932657D01*
X155574218Y-135016331D01*
X155392416Y-135137807D01*
X155237807Y-135292416D01*
X155116331Y-135474218D01*
X155032657Y-135676225D01*
X154990000Y-135890675D01*
X150410000Y-135890675D01*
X150367343Y-135676225D01*
X150283669Y-135474218D01*
X150162193Y-135292416D01*
X150007584Y-135137807D01*
X149825782Y-135016331D01*
X149623775Y-134932657D01*
X149409325Y-134890000D01*
X149190675Y-134890000D01*
X148976225Y-134932657D01*
X148774218Y-135016331D01*
X148592416Y-135137807D01*
X148437807Y-135292416D01*
X148316331Y-135474218D01*
X148232657Y-135676225D01*
X148190000Y-135890675D01*
X120668954Y-135890675D01*
X120501874Y-135830881D01*
X120327000Y-135957046D01*
X120073000Y-135957046D01*
X119898126Y-135830881D01*
X119675024Y-135910724D01*
X119487236Y-136032631D01*
X119326839Y-136188831D01*
X119199997Y-136373322D01*
X119111585Y-136579013D01*
X119065000Y-136798000D01*
X114335000Y-136798000D01*
X114288415Y-136579013D01*
X114200003Y-136373322D01*
X114073161Y-136188831D01*
X113912764Y-136032631D01*
X113724976Y-135910724D01*
X113501874Y-135830881D01*
X113327000Y-135957046D01*
X113073000Y-135957046D01*
X112898126Y-135830881D01*
X112675024Y-135910724D01*
X112487236Y-136032631D01*
X112326839Y-136188831D01*
X112199997Y-136373322D01*
X112111585Y-136579013D01*
X112065000Y-136798000D01*
X104327000Y-136798000D01*
X104327000Y-134829117D01*
X105765000Y-134829117D01*
X105765000Y-135170883D01*
X105831675Y-135506081D01*
X105962463Y-135821831D01*
X106152337Y-136105998D01*
X106394002Y-136347663D01*
X106678169Y-136537537D01*
X106993919Y-136668325D01*
X107329117Y-136735000D01*
X107670883Y-136735000D01*
X108006081Y-136668325D01*
X108321831Y-136537537D01*
X108605998Y-136347663D01*
X108847663Y-136105998D01*
X109037537Y-135821831D01*
X109168325Y-135506081D01*
X109235000Y-135170883D01*
X109235000Y-134829117D01*
X109228799Y-134797938D01*
X112980732Y-134797938D01*
X113050397Y-134986150D01*
X113164447Y-135171822D01*
X113312529Y-135331676D01*
X113488951Y-135459569D01*
X113686934Y-135550586D01*
X113898869Y-135601230D01*
X114073000Y-135452564D01*
X114073000Y-134627000D01*
X114327000Y-134627000D01*
X114327000Y-135452564D01*
X114501131Y-135601230D01*
X114713066Y-135550586D01*
X114911049Y-135459569D01*
X115087471Y-135331676D01*
X115235553Y-135171822D01*
X115349603Y-134986150D01*
X115419268Y-134797938D01*
X117980732Y-134797938D01*
X118050397Y-134986150D01*
X118164447Y-135171822D01*
X118312529Y-135331676D01*
X118488951Y-135459569D01*
X118686934Y-135550586D01*
X118898869Y-135601230D01*
X119073000Y-135452564D01*
X119073000Y-134627000D01*
X119327000Y-134627000D01*
X119327000Y-135452564D01*
X119501131Y-135601230D01*
X119713066Y-135550586D01*
X119911049Y-135459569D01*
X120087471Y-135331676D01*
X120235553Y-135171822D01*
X120349603Y-134986150D01*
X120419268Y-134797938D01*
X120292734Y-134627000D01*
X119327000Y-134627000D01*
X119073000Y-134627000D01*
X118107266Y-134627000D01*
X117980732Y-134797938D01*
X115419268Y-134797938D01*
X115292734Y-134627000D01*
X114327000Y-134627000D01*
X114073000Y-134627000D01*
X113107266Y-134627000D01*
X112980732Y-134797938D01*
X109228799Y-134797938D01*
X109168325Y-134493919D01*
X109047434Y-134202062D01*
X112980732Y-134202062D01*
X113107266Y-134373000D01*
X114073000Y-134373000D01*
X114073000Y-133547436D01*
X114327000Y-133547436D01*
X114327000Y-134373000D01*
X115292734Y-134373000D01*
X115419268Y-134202062D01*
X117980732Y-134202062D01*
X118107266Y-134373000D01*
X119073000Y-134373000D01*
X119073000Y-133547436D01*
X119327000Y-133547436D01*
X119327000Y-134373000D01*
X120292734Y-134373000D01*
X120419268Y-134202062D01*
X120383378Y-134105098D01*
X164155000Y-134105098D01*
X164155000Y-134574902D01*
X164246654Y-135035679D01*
X164426440Y-135469721D01*
X164687450Y-135860349D01*
X165019651Y-136192550D01*
X165410279Y-136453560D01*
X165844321Y-136633346D01*
X166305098Y-136725000D01*
X166774902Y-136725000D01*
X167235679Y-136633346D01*
X167669721Y-136453560D01*
X168060349Y-136192550D01*
X168392550Y-135860349D01*
X168653560Y-135469721D01*
X168833346Y-135035679D01*
X168925000Y-134574902D01*
X168925000Y-134105098D01*
X168833346Y-133644321D01*
X168653560Y-133210279D01*
X168392550Y-132819651D01*
X168060349Y-132487450D01*
X167669721Y-132226440D01*
X167235679Y-132046654D01*
X166774902Y-131955000D01*
X166305098Y-131955000D01*
X165844321Y-132046654D01*
X165410279Y-132226440D01*
X165019651Y-132487450D01*
X164687450Y-132819651D01*
X164426440Y-133210279D01*
X164246654Y-133644321D01*
X164155000Y-134105098D01*
X120383378Y-134105098D01*
X120349603Y-134013850D01*
X120235553Y-133828178D01*
X120087471Y-133668324D01*
X119911049Y-133540431D01*
X119713066Y-133449414D01*
X119501131Y-133398770D01*
X119327000Y-133547436D01*
X119073000Y-133547436D01*
X118898869Y-133398770D01*
X118686934Y-133449414D01*
X118488951Y-133540431D01*
X118312529Y-133668324D01*
X118164447Y-133828178D01*
X118050397Y-134013850D01*
X117980732Y-134202062D01*
X115419268Y-134202062D01*
X115349603Y-134013850D01*
X115235553Y-133828178D01*
X115087471Y-133668324D01*
X114911049Y-133540431D01*
X114713066Y-133449414D01*
X114501131Y-133398770D01*
X114327000Y-133547436D01*
X114073000Y-133547436D01*
X113898869Y-133398770D01*
X113686934Y-133449414D01*
X113488951Y-133540431D01*
X113312529Y-133668324D01*
X113164447Y-133828178D01*
X113050397Y-134013850D01*
X112980732Y-134202062D01*
X109047434Y-134202062D01*
X109037537Y-134178169D01*
X108847663Y-133894002D01*
X108605998Y-133652337D01*
X108321831Y-133462463D01*
X108006081Y-133331675D01*
X107670883Y-133265000D01*
X107329117Y-133265000D01*
X106993919Y-133331675D01*
X106678169Y-133462463D01*
X106394002Y-133652337D01*
X106152337Y-133894002D01*
X105962463Y-134178169D01*
X105831675Y-134493919D01*
X105765000Y-134829117D01*
X104327000Y-134829117D01*
X104327000Y-125138967D01*
X114365000Y-125138967D01*
X114365000Y-125461033D01*
X114427832Y-125776912D01*
X114551082Y-126074463D01*
X114730013Y-126342252D01*
X114957748Y-126569987D01*
X115225537Y-126748918D01*
X115523088Y-126872168D01*
X115838967Y-126935000D01*
X116161033Y-126935000D01*
X116476912Y-126872168D01*
X116774463Y-126748918D01*
X117042252Y-126569987D01*
X117269987Y-126342252D01*
X117448918Y-126074463D01*
X117572168Y-125776912D01*
X117635000Y-125461033D01*
X117635000Y-125138967D01*
X119365000Y-125138967D01*
X119365000Y-125461033D01*
X119427832Y-125776912D01*
X119551082Y-126074463D01*
X119730013Y-126342252D01*
X119957748Y-126569987D01*
X120225537Y-126748918D01*
X120523088Y-126872168D01*
X120838967Y-126935000D01*
X121161033Y-126935000D01*
X121476912Y-126872168D01*
X121774463Y-126748918D01*
X122042252Y-126569987D01*
X122269987Y-126342252D01*
X122448918Y-126074463D01*
X122572168Y-125776912D01*
X122635000Y-125461033D01*
X122635000Y-125138967D01*
X122572168Y-124823088D01*
X122448918Y-124525537D01*
X122269987Y-124257748D01*
X122042252Y-124030013D01*
X121774463Y-123851082D01*
X121476912Y-123727832D01*
X121161033Y-123665000D01*
X120838967Y-123665000D01*
X120523088Y-123727832D01*
X120225537Y-123851082D01*
X119957748Y-124030013D01*
X119730013Y-124257748D01*
X119551082Y-124525537D01*
X119427832Y-124823088D01*
X119365000Y-125138967D01*
X117635000Y-125138967D01*
X117572168Y-124823088D01*
X117448918Y-124525537D01*
X117269987Y-124257748D01*
X117042252Y-124030013D01*
X116774463Y-123851082D01*
X116476912Y-123727832D01*
X116161033Y-123665000D01*
X115838967Y-123665000D01*
X115523088Y-123727832D01*
X115225537Y-123851082D01*
X114957748Y-124030013D01*
X114730013Y-124257748D01*
X114551082Y-124525537D01*
X114427832Y-124823088D01*
X114365000Y-125138967D01*
X104327000Y-125138967D01*
X104327000Y-122398061D01*
X127165000Y-122398061D01*
X127165000Y-122601939D01*
X127204774Y-122801898D01*
X127282795Y-122990256D01*
X127396063Y-123159774D01*
X127540226Y-123303937D01*
X127709744Y-123417205D01*
X127898102Y-123495226D01*
X128098061Y-123535000D01*
X128301939Y-123535000D01*
X128501898Y-123495226D01*
X128690256Y-123417205D01*
X128859774Y-123303937D01*
X129003937Y-123159774D01*
X129117205Y-122990256D01*
X129195226Y-122801898D01*
X129235000Y-122601939D01*
X129235000Y-122398061D01*
X129195226Y-122198102D01*
X129117205Y-122009744D01*
X129003937Y-121840226D01*
X128960000Y-121796289D01*
X128960000Y-111848061D01*
X140665000Y-111848061D01*
X140665000Y-112051939D01*
X140704774Y-112251898D01*
X140782795Y-112440256D01*
X140896063Y-112609774D01*
X141040226Y-112753937D01*
X141209744Y-112867205D01*
X141398102Y-112945226D01*
X141598061Y-112985000D01*
X141801939Y-112985000D01*
X142001898Y-112945226D01*
X142190256Y-112867205D01*
X142359774Y-112753937D01*
X142503937Y-112609774D01*
X142617205Y-112440256D01*
X142695226Y-112251898D01*
X142735000Y-112051939D01*
X142735000Y-111848061D01*
X142695226Y-111648102D01*
X142617205Y-111459744D01*
X142503937Y-111290226D01*
X142359774Y-111146063D01*
X142190256Y-111032795D01*
X142001898Y-110954774D01*
X141801939Y-110915000D01*
X141598061Y-110915000D01*
X141398102Y-110954774D01*
X141209744Y-111032795D01*
X141040226Y-111146063D01*
X140896063Y-111290226D01*
X140782795Y-111459744D01*
X140704774Y-111648102D01*
X140665000Y-111848061D01*
X128960000Y-111848061D01*
X128960000Y-108314801D01*
X130739802Y-106535000D01*
X130801939Y-106535000D01*
X131001898Y-106495226D01*
X131190256Y-106417205D01*
X131359774Y-106303937D01*
X131503937Y-106159774D01*
X131543230Y-106100967D01*
X138197000Y-106100967D01*
X138197000Y-106423033D01*
X138259832Y-106738912D01*
X138383082Y-107036463D01*
X138562013Y-107304252D01*
X138789748Y-107531987D01*
X139057537Y-107710918D01*
X139355088Y-107834168D01*
X139670967Y-107897000D01*
X139993033Y-107897000D01*
X140308912Y-107834168D01*
X140606463Y-107710918D01*
X140874252Y-107531987D01*
X141101987Y-107304252D01*
X141280918Y-107036463D01*
X141404168Y-106738912D01*
X141467000Y-106423033D01*
X141467000Y-106100967D01*
X141404168Y-105785088D01*
X141280918Y-105487537D01*
X141101987Y-105219748D01*
X140874252Y-104992013D01*
X140606463Y-104813082D01*
X140308912Y-104689832D01*
X139993033Y-104627000D01*
X139670967Y-104627000D01*
X139355088Y-104689832D01*
X139057537Y-104813082D01*
X138789748Y-104992013D01*
X138562013Y-105219748D01*
X138383082Y-105487537D01*
X138259832Y-105785088D01*
X138197000Y-106100967D01*
X131543230Y-106100967D01*
X131617205Y-105990256D01*
X131695226Y-105801898D01*
X131735000Y-105601939D01*
X131735000Y-105398061D01*
X131695226Y-105198102D01*
X131617205Y-105009744D01*
X131503937Y-104840226D01*
X131359774Y-104696063D01*
X131190256Y-104582795D01*
X131001898Y-104504774D01*
X130801939Y-104465000D01*
X130598061Y-104465000D01*
X130398102Y-104504774D01*
X130209744Y-104582795D01*
X130040226Y-104696063D01*
X129896063Y-104840226D01*
X129782795Y-105009744D01*
X129704774Y-105198102D01*
X129665000Y-105398061D01*
X129665000Y-105460198D01*
X127688998Y-107436201D01*
X127660000Y-107459999D01*
X127636202Y-107488997D01*
X127636201Y-107488998D01*
X127565026Y-107575724D01*
X127494454Y-107707754D01*
X127481337Y-107750997D01*
X127454271Y-107840226D01*
X127450998Y-107851015D01*
X127436324Y-108000000D01*
X127440001Y-108037332D01*
X127440000Y-121796289D01*
X127396063Y-121840226D01*
X127282795Y-122009744D01*
X127204774Y-122198102D01*
X127165000Y-122398061D01*
X104327000Y-122398061D01*
X104327000Y-120100000D01*
X110761928Y-120100000D01*
X110774188Y-120224482D01*
X110810498Y-120344180D01*
X110869463Y-120454494D01*
X110948815Y-120551185D01*
X111045506Y-120630537D01*
X111155820Y-120689502D01*
X111275518Y-120725812D01*
X111400000Y-120738072D01*
X112514250Y-120735000D01*
X112673000Y-120576250D01*
X112673000Y-118427000D01*
X112927000Y-118427000D01*
X112927000Y-120576250D01*
X113085750Y-120735000D01*
X114200000Y-120738072D01*
X114324482Y-120725812D01*
X114444180Y-120689502D01*
X114554494Y-120630537D01*
X114651185Y-120551185D01*
X114730537Y-120454494D01*
X114789502Y-120344180D01*
X114825812Y-120224482D01*
X114838072Y-120100000D01*
X122161928Y-120100000D01*
X122174188Y-120224482D01*
X122210498Y-120344180D01*
X122269463Y-120454494D01*
X122348815Y-120551185D01*
X122445506Y-120630537D01*
X122555820Y-120689502D01*
X122675518Y-120725812D01*
X122800000Y-120738072D01*
X123914250Y-120735000D01*
X124073000Y-120576250D01*
X124073000Y-118427000D01*
X124327000Y-118427000D01*
X124327000Y-120576250D01*
X124485750Y-120735000D01*
X125600000Y-120738072D01*
X125724482Y-120725812D01*
X125844180Y-120689502D01*
X125954494Y-120630537D01*
X126051185Y-120551185D01*
X126130537Y-120454494D01*
X126189502Y-120344180D01*
X126225812Y-120224482D01*
X126238072Y-120100000D01*
X126235000Y-118585750D01*
X126076250Y-118427000D01*
X124327000Y-118427000D01*
X124073000Y-118427000D01*
X122323750Y-118427000D01*
X122165000Y-118585750D01*
X122161928Y-120100000D01*
X114838072Y-120100000D01*
X114835000Y-118585750D01*
X114676250Y-118427000D01*
X112927000Y-118427000D01*
X112673000Y-118427000D01*
X110923750Y-118427000D01*
X110765000Y-118585750D01*
X110761928Y-120100000D01*
X104327000Y-120100000D01*
X104327000Y-116500000D01*
X110761928Y-116500000D01*
X110765000Y-118014250D01*
X110923750Y-118173000D01*
X112673000Y-118173000D01*
X112673000Y-116023750D01*
X112927000Y-116023750D01*
X112927000Y-118173000D01*
X114676250Y-118173000D01*
X114835000Y-118014250D01*
X114838072Y-116500000D01*
X122161928Y-116500000D01*
X122165000Y-118014250D01*
X122323750Y-118173000D01*
X124073000Y-118173000D01*
X124073000Y-116023750D01*
X124327000Y-116023750D01*
X124327000Y-118173000D01*
X126076250Y-118173000D01*
X126235000Y-118014250D01*
X126238072Y-116500000D01*
X126225812Y-116375518D01*
X126189502Y-116255820D01*
X126130537Y-116145506D01*
X126051185Y-116048815D01*
X125954494Y-115969463D01*
X125844180Y-115910498D01*
X125724482Y-115874188D01*
X125600000Y-115861928D01*
X124485750Y-115865000D01*
X124327000Y-116023750D01*
X124073000Y-116023750D01*
X123914250Y-115865000D01*
X122800000Y-115861928D01*
X122675518Y-115874188D01*
X122555820Y-115910498D01*
X122445506Y-115969463D01*
X122348815Y-116048815D01*
X122269463Y-116145506D01*
X122210498Y-116255820D01*
X122174188Y-116375518D01*
X122161928Y-116500000D01*
X114838072Y-116500000D01*
X114825812Y-116375518D01*
X114789502Y-116255820D01*
X114730537Y-116145506D01*
X114651185Y-116048815D01*
X114554494Y-115969463D01*
X114444180Y-115910498D01*
X114324482Y-115874188D01*
X114200000Y-115861928D01*
X113085750Y-115865000D01*
X112927000Y-116023750D01*
X112673000Y-116023750D01*
X112514250Y-115865000D01*
X111400000Y-115861928D01*
X111275518Y-115874188D01*
X111155820Y-115910498D01*
X111045506Y-115969463D01*
X110948815Y-116048815D01*
X110869463Y-116145506D01*
X110810498Y-116255820D01*
X110774188Y-116375518D01*
X110761928Y-116500000D01*
X104327000Y-116500000D01*
X104327000Y-110638967D01*
X114365000Y-110638967D01*
X114365000Y-110961033D01*
X114427832Y-111276912D01*
X114551082Y-111574463D01*
X114730013Y-111842252D01*
X114957748Y-112069987D01*
X115225537Y-112248918D01*
X115523088Y-112372168D01*
X115838967Y-112435000D01*
X116161033Y-112435000D01*
X116476912Y-112372168D01*
X116774463Y-112248918D01*
X117042252Y-112069987D01*
X117176826Y-111935413D01*
X117544192Y-111935413D01*
X117639956Y-112199814D01*
X117929571Y-112340704D01*
X118241108Y-112422384D01*
X118562595Y-112441718D01*
X118881675Y-112397961D01*
X119186088Y-112292795D01*
X119360044Y-112199814D01*
X119455808Y-111935413D01*
X118500000Y-110979605D01*
X117544192Y-111935413D01*
X117176826Y-111935413D01*
X117269987Y-111842252D01*
X117334925Y-111745065D01*
X117364587Y-111755808D01*
X118320395Y-110800000D01*
X118679605Y-110800000D01*
X119635413Y-111755808D01*
X119665075Y-111745065D01*
X119730013Y-111842252D01*
X119957748Y-112069987D01*
X120225537Y-112248918D01*
X120523088Y-112372168D01*
X120838967Y-112435000D01*
X121161033Y-112435000D01*
X121476912Y-112372168D01*
X121774463Y-112248918D01*
X122042252Y-112069987D01*
X122269987Y-111842252D01*
X122448918Y-111574463D01*
X122572168Y-111276912D01*
X122635000Y-110961033D01*
X122635000Y-110638967D01*
X122572168Y-110323088D01*
X122448918Y-110025537D01*
X122269987Y-109757748D01*
X122042252Y-109530013D01*
X121774463Y-109351082D01*
X121476912Y-109227832D01*
X121161033Y-109165000D01*
X120838967Y-109165000D01*
X120523088Y-109227832D01*
X120225537Y-109351082D01*
X119957748Y-109530013D01*
X119730013Y-109757748D01*
X119665075Y-109854935D01*
X119635413Y-109844192D01*
X118679605Y-110800000D01*
X118320395Y-110800000D01*
X117364587Y-109844192D01*
X117334925Y-109854935D01*
X117269987Y-109757748D01*
X117176826Y-109664587D01*
X117544192Y-109664587D01*
X118500000Y-110620395D01*
X119455808Y-109664587D01*
X119360044Y-109400186D01*
X119070429Y-109259296D01*
X118758892Y-109177616D01*
X118437405Y-109158282D01*
X118118325Y-109202039D01*
X117813912Y-109307205D01*
X117639956Y-109400186D01*
X117544192Y-109664587D01*
X117176826Y-109664587D01*
X117042252Y-109530013D01*
X116774463Y-109351082D01*
X116476912Y-109227832D01*
X116161033Y-109165000D01*
X115838967Y-109165000D01*
X115523088Y-109227832D01*
X115225537Y-109351082D01*
X114957748Y-109530013D01*
X114730013Y-109757748D01*
X114551082Y-110025537D01*
X114427832Y-110323088D01*
X114365000Y-110638967D01*
X104327000Y-110638967D01*
X104327000Y-99829117D01*
X105765000Y-99829117D01*
X105765000Y-100170883D01*
X105831675Y-100506081D01*
X105962463Y-100821831D01*
X106152337Y-101105998D01*
X106394002Y-101347663D01*
X106678169Y-101537537D01*
X106993919Y-101668325D01*
X107329117Y-101735000D01*
X107670883Y-101735000D01*
X108006081Y-101668325D01*
X108321831Y-101537537D01*
X108605998Y-101347663D01*
X108847663Y-101105998D01*
X109037537Y-100821831D01*
X109168325Y-100506081D01*
X109235000Y-100170883D01*
X109235000Y-99829117D01*
X109168325Y-99493919D01*
X109037537Y-99178169D01*
X108847663Y-98894002D01*
X108605998Y-98652337D01*
X108321831Y-98462463D01*
X108006081Y-98331675D01*
X107670883Y-98265000D01*
X107329117Y-98265000D01*
X106993919Y-98331675D01*
X106678169Y-98462463D01*
X106394002Y-98652337D01*
X106152337Y-98894002D01*
X105962463Y-99178169D01*
X105831675Y-99493919D01*
X105765000Y-99829117D01*
X104327000Y-99829117D01*
X104327000Y-96627000D01*
X131073000Y-96627000D01*
X131073000Y-102500000D01*
%TA.AperFunction,Conductor*%
D27*
G36*
X131073000Y-102500000D02*
G01*
X131075440Y-102524776D01*
X131082667Y-102548601D01*
X131094403Y-102570557D01*
X131110197Y-102589803D01*
X131129443Y-102605597D01*
X131151399Y-102617333D01*
X131175224Y-102624560D01*
X131200000Y-102627000D01*
X132867868Y-102627000D01*
X132818388Y-102676480D01*
X132694176Y-102862376D01*
X132608617Y-103068933D01*
X132565000Y-103288212D01*
X132565000Y-103511788D01*
X132608617Y-103731067D01*
X132694176Y-103937624D01*
X132818388Y-104123520D01*
X132976480Y-104281612D01*
X133162376Y-104405824D01*
X133368933Y-104491383D01*
X133588212Y-104535000D01*
X133811788Y-104535000D01*
X134031067Y-104491383D01*
X134237624Y-104405824D01*
X134423520Y-104281612D01*
X134581612Y-104123520D01*
X134705824Y-103937624D01*
X134791383Y-103731067D01*
X134835000Y-103511788D01*
X134835000Y-103288212D01*
X134791383Y-103068933D01*
X134705824Y-102862376D01*
X134581612Y-102676480D01*
X134532132Y-102627000D01*
X153998198Y-102627000D01*
X140160199Y-116465000D01*
X140098061Y-116465000D01*
X139898102Y-116504774D01*
X139709744Y-116582795D01*
X139540226Y-116696063D01*
X139396063Y-116840226D01*
X139282795Y-117009744D01*
X139204774Y-117198102D01*
X139165000Y-117398061D01*
X139165000Y-117601939D01*
X139204774Y-117801898D01*
X139282795Y-117990256D01*
X139396063Y-118159774D01*
X139540226Y-118303937D01*
X139708695Y-118416504D01*
X133689003Y-124436196D01*
X133659999Y-124459999D01*
X133627171Y-124500001D01*
X133565026Y-124575724D01*
X133525866Y-124648987D01*
X133494454Y-124707754D01*
X133450997Y-124851015D01*
X133440000Y-124962668D01*
X133440000Y-124962678D01*
X133436324Y-125000000D01*
X133440000Y-125037323D01*
X133440001Y-128796288D01*
X133396063Y-128840226D01*
X133282795Y-129009744D01*
X133204774Y-129198102D01*
X133165000Y-129398061D01*
X133165000Y-129601939D01*
X133204774Y-129801898D01*
X133282795Y-129990256D01*
X133396063Y-130159774D01*
X133540226Y-130303937D01*
X133709744Y-130417205D01*
X133898102Y-130495226D01*
X134098061Y-130535000D01*
X134301939Y-130535000D01*
X134311430Y-130533112D01*
X134367722Y-130617358D01*
X134209744Y-130682795D01*
X134040226Y-130796063D01*
X133996289Y-130840000D01*
X133579496Y-130840000D01*
X133540357Y-130643233D01*
X133462336Y-130454875D01*
X133349068Y-130285357D01*
X133204905Y-130141194D01*
X133035387Y-130027926D01*
X132847029Y-129949905D01*
X132647070Y-129910131D01*
X132443192Y-129910131D01*
X132243233Y-129949905D01*
X132054875Y-130027926D01*
X131885357Y-130141194D01*
X131741194Y-130285357D01*
X131627926Y-130454875D01*
X131549905Y-130643233D01*
X131510131Y-130843192D01*
X131510131Y-131047070D01*
X131549905Y-131247029D01*
X131627926Y-131435387D01*
X131741194Y-131604905D01*
X131885357Y-131749068D01*
X132054875Y-131862336D01*
X132243233Y-131940357D01*
X132443192Y-131980131D01*
X132505329Y-131980131D01*
X132636200Y-132111002D01*
X132659999Y-132140001D01*
X132688997Y-132163799D01*
X132775724Y-132234974D01*
X132907753Y-132305546D01*
X133051014Y-132349003D01*
X133200000Y-132363677D01*
X133237333Y-132360000D01*
X133996289Y-132360000D01*
X134040226Y-132403937D01*
X134209744Y-132517205D01*
X134398102Y-132595226D01*
X134598061Y-132635000D01*
X134801939Y-132635000D01*
X135001898Y-132595226D01*
X135190256Y-132517205D01*
X135359774Y-132403937D01*
X135503937Y-132259774D01*
X135617205Y-132090256D01*
X135695226Y-131901898D01*
X135735000Y-131701939D01*
X135735000Y-131498061D01*
X135695226Y-131298102D01*
X135617205Y-131109744D01*
X135532278Y-130982642D01*
X135690256Y-130917205D01*
X135859774Y-130803937D01*
X136003937Y-130659774D01*
X136117205Y-130490256D01*
X136195226Y-130301898D01*
X136235000Y-130101939D01*
X136235000Y-129976967D01*
X138197000Y-129976967D01*
X138197000Y-130299033D01*
X138259832Y-130614912D01*
X138383082Y-130912463D01*
X138562013Y-131180252D01*
X138789748Y-131407987D01*
X139057537Y-131586918D01*
X139355088Y-131710168D01*
X139670967Y-131773000D01*
X139993033Y-131773000D01*
X140308912Y-131710168D01*
X140606463Y-131586918D01*
X140874252Y-131407987D01*
X141101987Y-131180252D01*
X141280918Y-130912463D01*
X141404168Y-130614912D01*
X141449261Y-130388212D01*
X174065000Y-130388212D01*
X174065000Y-130611788D01*
X174108617Y-130831067D01*
X174194176Y-131037624D01*
X174318388Y-131223520D01*
X174476480Y-131381612D01*
X174662376Y-131505824D01*
X174868933Y-131591383D01*
X175088212Y-131635000D01*
X175311788Y-131635000D01*
X175531067Y-131591383D01*
X175737624Y-131505824D01*
X175923520Y-131381612D01*
X176081612Y-131223520D01*
X176205824Y-131037624D01*
X176291383Y-130831067D01*
X176335000Y-130611788D01*
X176335000Y-130388212D01*
X176291383Y-130168933D01*
X176205824Y-129962376D01*
X176081612Y-129776480D01*
X175923520Y-129618388D01*
X175737624Y-129494176D01*
X175531067Y-129408617D01*
X175311788Y-129365000D01*
X175088212Y-129365000D01*
X174868933Y-129408617D01*
X174662376Y-129494176D01*
X174476480Y-129618388D01*
X174318388Y-129776480D01*
X174194176Y-129962376D01*
X174108617Y-130168933D01*
X174065000Y-130388212D01*
X141449261Y-130388212D01*
X141467000Y-130299033D01*
X141467000Y-129976967D01*
X141404168Y-129661088D01*
X141280918Y-129363537D01*
X141101987Y-129095748D01*
X140874252Y-128868013D01*
X140606463Y-128689082D01*
X140308912Y-128565832D01*
X139993033Y-128503000D01*
X139670967Y-128503000D01*
X139355088Y-128565832D01*
X139057537Y-128689082D01*
X138789748Y-128868013D01*
X138562013Y-129095748D01*
X138383082Y-129363537D01*
X138259832Y-129661088D01*
X138197000Y-129976967D01*
X136235000Y-129976967D01*
X136235000Y-129898061D01*
X136195226Y-129698102D01*
X136117205Y-129509744D01*
X136003937Y-129340226D01*
X135960000Y-129296289D01*
X135960000Y-125814801D01*
X136666304Y-125108497D01*
X136704774Y-125301898D01*
X136782795Y-125490256D01*
X136896063Y-125659774D01*
X137040226Y-125803937D01*
X137209744Y-125917205D01*
X137398102Y-125995226D01*
X137598061Y-126035000D01*
X137660199Y-126035000D01*
X138636201Y-127011003D01*
X138659999Y-127040001D01*
X138775724Y-127134974D01*
X138907753Y-127205546D01*
X139051014Y-127249003D01*
X139162667Y-127260000D01*
X139162676Y-127260000D01*
X139199999Y-127263676D01*
X139237322Y-127260000D01*
X155662678Y-127260000D01*
X155700000Y-127263676D01*
X155737322Y-127260000D01*
X155737333Y-127260000D01*
X155848986Y-127249003D01*
X155992247Y-127205546D01*
X156124276Y-127134974D01*
X156240001Y-127040001D01*
X156263804Y-127010997D01*
X157989801Y-125285000D01*
X174776928Y-125285000D01*
X174789188Y-125409482D01*
X174825498Y-125529180D01*
X174884463Y-125639494D01*
X174963815Y-125736185D01*
X175060506Y-125815537D01*
X175170820Y-125874502D01*
X175290518Y-125910812D01*
X175415000Y-125923072D01*
X176214250Y-125920000D01*
X176373000Y-125761250D01*
X176373000Y-124327000D01*
X176627000Y-124327000D01*
X176627000Y-125761250D01*
X176785750Y-125920000D01*
X177585000Y-125923072D01*
X177709482Y-125910812D01*
X177829180Y-125874502D01*
X177939494Y-125815537D01*
X178036185Y-125736185D01*
X178115537Y-125639494D01*
X178174502Y-125529180D01*
X178210812Y-125409482D01*
X178223072Y-125285000D01*
X178220000Y-124485750D01*
X178061250Y-124327000D01*
X176627000Y-124327000D01*
X176373000Y-124327000D01*
X174938750Y-124327000D01*
X174780000Y-124485750D01*
X174776928Y-125285000D01*
X157989801Y-125285000D01*
X158211004Y-125063798D01*
X158240001Y-125040001D01*
X158303467Y-124962668D01*
X158334974Y-124924277D01*
X158405546Y-124792247D01*
X158418059Y-124750997D01*
X158449003Y-124648986D01*
X158460000Y-124537333D01*
X158460000Y-124537324D01*
X158463676Y-124500001D01*
X158460000Y-124462678D01*
X158460000Y-123923711D01*
X158590226Y-124053937D01*
X158759744Y-124167205D01*
X158948102Y-124245226D01*
X159148061Y-124285000D01*
X159351939Y-124285000D01*
X159551898Y-124245226D01*
X159740256Y-124167205D01*
X159909774Y-124053937D01*
X160053937Y-123909774D01*
X160167205Y-123740256D01*
X160245226Y-123551898D01*
X160285000Y-123351939D01*
X160285000Y-123148061D01*
X160245226Y-122948102D01*
X160167205Y-122759744D01*
X160053937Y-122590226D01*
X159909774Y-122446063D01*
X159740256Y-122332795D01*
X159551898Y-122254774D01*
X159351939Y-122215000D01*
X159148061Y-122215000D01*
X158948102Y-122254774D01*
X158759744Y-122332795D01*
X158590226Y-122446063D01*
X158460000Y-122576289D01*
X158460000Y-121203711D01*
X158503937Y-121159774D01*
X158617205Y-120990256D01*
X158695226Y-120801898D01*
X158735000Y-120601939D01*
X158735000Y-120398061D01*
X158695226Y-120198102D01*
X158617205Y-120009744D01*
X158503937Y-119840226D01*
X158359774Y-119696063D01*
X158190256Y-119582795D01*
X158001898Y-119504774D01*
X157801939Y-119465000D01*
X157598061Y-119465000D01*
X157398102Y-119504774D01*
X157209744Y-119582795D01*
X157040226Y-119696063D01*
X156896063Y-119840226D01*
X156782795Y-120009744D01*
X156704774Y-120198102D01*
X156665000Y-120398061D01*
X156665000Y-120601939D01*
X156704774Y-120801898D01*
X156782795Y-120990256D01*
X156896063Y-121159774D01*
X156940001Y-121203712D01*
X156940000Y-124185198D01*
X155385199Y-125740000D01*
X153017484Y-125740000D01*
X153035000Y-125651939D01*
X153035000Y-125448061D01*
X152995226Y-125248102D01*
X152917205Y-125059744D01*
X152803937Y-124890226D01*
X152659774Y-124746063D01*
X152490256Y-124632795D01*
X152301898Y-124554774D01*
X152101939Y-124515000D01*
X151898061Y-124515000D01*
X151698102Y-124554774D01*
X151509744Y-124632795D01*
X151340226Y-124746063D01*
X151196063Y-124890226D01*
X151082795Y-125059744D01*
X151004774Y-125248102D01*
X150965000Y-125448061D01*
X150965000Y-125651939D01*
X150982516Y-125740000D01*
X139514802Y-125740000D01*
X138735000Y-124960199D01*
X138735000Y-124898061D01*
X138695226Y-124698102D01*
X138617205Y-124509744D01*
X138503937Y-124340226D01*
X138359774Y-124196063D01*
X138190256Y-124082795D01*
X138001898Y-124004774D01*
X137808497Y-123966304D01*
X142783496Y-118991305D01*
X142896063Y-119159774D01*
X143040226Y-119303937D01*
X143209744Y-119417205D01*
X143398102Y-119495226D01*
X143598061Y-119535000D01*
X143801939Y-119535000D01*
X144001898Y-119495226D01*
X144190256Y-119417205D01*
X144359774Y-119303937D01*
X144503937Y-119159774D01*
X144617205Y-118990256D01*
X144659602Y-118887900D01*
X144722397Y-118929858D01*
X144910755Y-119007879D01*
X145110714Y-119047653D01*
X145314592Y-119047653D01*
X145514551Y-119007879D01*
X145702909Y-118929858D01*
X145872427Y-118816590D01*
X146016590Y-118672427D01*
X146129858Y-118502909D01*
X146207879Y-118314551D01*
X146247653Y-118114592D01*
X146247653Y-118052454D01*
X146293632Y-118006475D01*
X146396063Y-118159774D01*
X146540226Y-118303937D01*
X146709744Y-118417205D01*
X146898102Y-118495226D01*
X147098061Y-118535000D01*
X147301939Y-118535000D01*
X147501898Y-118495226D01*
X147690256Y-118417205D01*
X147859774Y-118303937D01*
X147903711Y-118260000D01*
X148662678Y-118260000D01*
X148700000Y-118263676D01*
X148737322Y-118260000D01*
X148737333Y-118260000D01*
X148848986Y-118249003D01*
X148992247Y-118205546D01*
X149124276Y-118134974D01*
X149240001Y-118040001D01*
X149263804Y-118010997D01*
X149310084Y-117964717D01*
X149382795Y-118140256D01*
X149496063Y-118309774D01*
X149640226Y-118453937D01*
X149809744Y-118567205D01*
X149998102Y-118645226D01*
X150198061Y-118685000D01*
X150401939Y-118685000D01*
X150601898Y-118645226D01*
X150752519Y-118582836D01*
X150704774Y-118698102D01*
X150665000Y-118898061D01*
X150665000Y-119101939D01*
X150704774Y-119301898D01*
X150782795Y-119490256D01*
X150896063Y-119659774D01*
X150940001Y-119703712D01*
X150940000Y-120535679D01*
X150936324Y-120573002D01*
X150940000Y-120610324D01*
X150940000Y-120610334D01*
X150950997Y-120721987D01*
X150976427Y-120805820D01*
X150994454Y-120865248D01*
X151065026Y-120997278D01*
X151075257Y-121009744D01*
X151159999Y-121113003D01*
X151189003Y-121136806D01*
X153580648Y-123528452D01*
X153604446Y-123557450D01*
X153633444Y-123581248D01*
X153720170Y-123652423D01*
X153841368Y-123717205D01*
X153852200Y-123722995D01*
X153995461Y-123766452D01*
X154003931Y-123767286D01*
X154058031Y-123821386D01*
X154227549Y-123934654D01*
X154415907Y-124012675D01*
X154615866Y-124052449D01*
X154819744Y-124052449D01*
X155019703Y-124012675D01*
X155208061Y-123934654D01*
X155377579Y-123821386D01*
X155521742Y-123677223D01*
X155635010Y-123507705D01*
X155713031Y-123319347D01*
X155752805Y-123119388D01*
X155752805Y-122915510D01*
X155713031Y-122715551D01*
X155635010Y-122527193D01*
X155521742Y-122357675D01*
X155377579Y-122213512D01*
X155208061Y-122100244D01*
X155079340Y-122046926D01*
X155117205Y-121990256D01*
X155195226Y-121801898D01*
X155235000Y-121601939D01*
X155235000Y-121398061D01*
X155195226Y-121198102D01*
X155117205Y-121009744D01*
X155003937Y-120840226D01*
X154960000Y-120796289D01*
X154960000Y-118037322D01*
X154963676Y-117999999D01*
X154960000Y-117962676D01*
X154960000Y-117962667D01*
X154949003Y-117851014D01*
X154905546Y-117707753D01*
X154834974Y-117575723D01*
X154763799Y-117488997D01*
X154740001Y-117459999D01*
X154711003Y-117436201D01*
X153309800Y-116034999D01*
X161460198Y-116034999D01*
X168265000Y-122839803D01*
X168265000Y-122901939D01*
X168304774Y-123101898D01*
X168382795Y-123290256D01*
X168496063Y-123459774D01*
X168640226Y-123603937D01*
X168809744Y-123717205D01*
X168998102Y-123795226D01*
X169198061Y-123835000D01*
X169401939Y-123835000D01*
X169601898Y-123795226D01*
X169790256Y-123717205D01*
X169959774Y-123603937D01*
X170103937Y-123459774D01*
X170217205Y-123290256D01*
X170289798Y-123115000D01*
X174776928Y-123115000D01*
X174780000Y-123914250D01*
X174938750Y-124073000D01*
X176373000Y-124073000D01*
X176373000Y-122638750D01*
X176627000Y-122638750D01*
X176627000Y-124073000D01*
X178061250Y-124073000D01*
X178220000Y-123914250D01*
X178223072Y-123115000D01*
X178210812Y-122990518D01*
X178174502Y-122870820D01*
X178115537Y-122760506D01*
X178036185Y-122663815D01*
X177939494Y-122584463D01*
X177829180Y-122525498D01*
X177709482Y-122489188D01*
X177585000Y-122476928D01*
X176785750Y-122480000D01*
X176627000Y-122638750D01*
X176373000Y-122638750D01*
X176214250Y-122480000D01*
X175415000Y-122476928D01*
X175290518Y-122489188D01*
X175170820Y-122525498D01*
X175060506Y-122584463D01*
X174963815Y-122663815D01*
X174884463Y-122760506D01*
X174825498Y-122870820D01*
X174789188Y-122990518D01*
X174776928Y-123115000D01*
X170289798Y-123115000D01*
X170295226Y-123101898D01*
X170335000Y-122901939D01*
X170335000Y-122698061D01*
X170295226Y-122498102D01*
X170217205Y-122309744D01*
X170103937Y-122140226D01*
X169959774Y-121996063D01*
X169790256Y-121882795D01*
X169601898Y-121804774D01*
X169401939Y-121765000D01*
X169339803Y-121765000D01*
X168972864Y-121398061D01*
X171915000Y-121398061D01*
X171915000Y-121601939D01*
X171954774Y-121801898D01*
X172032795Y-121990256D01*
X172146063Y-122159774D01*
X172290226Y-122303937D01*
X172459744Y-122417205D01*
X172648102Y-122495226D01*
X172848061Y-122535000D01*
X173051939Y-122535000D01*
X173251898Y-122495226D01*
X173440256Y-122417205D01*
X173609774Y-122303937D01*
X173753937Y-122159774D01*
X173867205Y-121990256D01*
X173945226Y-121801898D01*
X173985000Y-121601939D01*
X173985000Y-121398061D01*
X173945226Y-121198102D01*
X173867205Y-121009744D01*
X173753937Y-120840226D01*
X173609774Y-120696063D01*
X173440256Y-120582795D01*
X173251898Y-120504774D01*
X173051939Y-120465000D01*
X172848061Y-120465000D01*
X172648102Y-120504774D01*
X172459744Y-120582795D01*
X172290226Y-120696063D01*
X172146063Y-120840226D01*
X172032795Y-121009744D01*
X171954774Y-121198102D01*
X171915000Y-121398061D01*
X168972864Y-121398061D01*
X162338803Y-114764002D01*
X162315000Y-114734998D01*
X162199275Y-114640025D01*
X162067246Y-114569453D01*
X161923985Y-114525996D01*
X161812332Y-114514999D01*
X161812321Y-114514999D01*
X161774999Y-114511323D01*
X161737677Y-114514999D01*
X152759803Y-114514999D01*
X155564792Y-111710010D01*
X174349078Y-111710010D01*
X174386400Y-111713686D01*
X174423722Y-111710010D01*
X174423733Y-111710010D01*
X174535386Y-111699013D01*
X174678647Y-111655556D01*
X174810676Y-111584984D01*
X174926401Y-111490011D01*
X174950204Y-111461007D01*
X180323971Y-106087240D01*
X180281423Y-106227502D01*
X180259509Y-106450000D01*
X180265000Y-106505751D01*
X180265001Y-126479867D01*
X178736865Y-128008004D01*
X178693551Y-128043551D01*
X178551716Y-128216377D01*
X178446325Y-128413553D01*
X178446324Y-128413554D01*
X178381423Y-128627502D01*
X178359509Y-128850000D01*
X178365000Y-128905752D01*
X178365001Y-135394239D01*
X178359509Y-135450000D01*
X178381423Y-135672498D01*
X178446324Y-135886446D01*
X178484061Y-135957046D01*
X178551717Y-136083623D01*
X178693552Y-136256449D01*
X178736860Y-136291991D01*
X180088008Y-137643140D01*
X180123551Y-137686449D01*
X180296377Y-137828284D01*
X180493553Y-137933676D01*
X180707501Y-137998577D01*
X180874248Y-138015000D01*
X180874257Y-138015000D01*
X180929999Y-138020490D01*
X180985741Y-138015000D01*
X182033112Y-138015000D01*
X182266265Y-138206345D01*
X182542051Y-138353755D01*
X182841296Y-138444530D01*
X183074514Y-138467500D01*
X183325486Y-138467500D01*
X183558704Y-138444530D01*
X183857949Y-138353755D01*
X184133735Y-138206345D01*
X184375463Y-138007963D01*
X184573845Y-137766235D01*
X184721255Y-137490449D01*
X184812030Y-137191204D01*
X184842681Y-136880000D01*
X184812030Y-136568796D01*
X184721255Y-136269551D01*
X184573845Y-135993765D01*
X184375463Y-135752037D01*
X184196101Y-135604837D01*
X184381315Y-135449437D01*
X184575969Y-135206923D01*
X184719571Y-134931094D01*
X184790563Y-134712980D01*
X184670594Y-134467000D01*
X183327000Y-134467000D01*
X183327000Y-134487000D01*
X183073000Y-134487000D01*
X183073000Y-134467000D01*
X181729406Y-134467000D01*
X181609437Y-134712980D01*
X181680429Y-134931094D01*
X181824031Y-135206923D01*
X182018685Y-135449437D01*
X182203899Y-135604837D01*
X182033112Y-135745000D01*
X181400132Y-135745000D01*
X180635000Y-134979869D01*
X180635000Y-130847500D01*
X181561928Y-130847500D01*
X181561928Y-132752500D01*
X181574188Y-132876982D01*
X181610498Y-132996680D01*
X181669463Y-133106994D01*
X181748815Y-133203685D01*
X181845506Y-133283037D01*
X181937219Y-133332059D01*
X181824031Y-133473077D01*
X181680429Y-133748906D01*
X181609437Y-133967020D01*
X181729406Y-134213000D01*
X183073000Y-134213000D01*
X183073000Y-134193000D01*
X183327000Y-134193000D01*
X183327000Y-134213000D01*
X184670594Y-134213000D01*
X184790563Y-133967020D01*
X184719571Y-133748906D01*
X184575969Y-133473077D01*
X184462781Y-133332059D01*
X184554494Y-133283037D01*
X184651185Y-133203685D01*
X184730537Y-133106994D01*
X184789502Y-132996680D01*
X184825812Y-132876982D01*
X184838072Y-132752500D01*
X184838072Y-130847500D01*
X184825812Y-130723018D01*
X184789502Y-130603320D01*
X184730537Y-130493006D01*
X184651185Y-130396315D01*
X184554494Y-130316963D01*
X184444180Y-130257998D01*
X184324482Y-130221688D01*
X184200000Y-130209428D01*
X182200000Y-130209428D01*
X182075518Y-130221688D01*
X181955820Y-130257998D01*
X181845506Y-130316963D01*
X181748815Y-130396315D01*
X181669463Y-130493006D01*
X181610498Y-130603320D01*
X181574188Y-130723018D01*
X181561928Y-130847500D01*
X180635000Y-130847500D01*
X180635000Y-129976967D01*
X184933000Y-129976967D01*
X184933000Y-130299033D01*
X184995832Y-130614912D01*
X185119082Y-130912463D01*
X185298013Y-131180252D01*
X185525748Y-131407987D01*
X185793537Y-131586918D01*
X186091088Y-131710168D01*
X186406967Y-131773000D01*
X186729033Y-131773000D01*
X186844662Y-131750000D01*
X188761928Y-131750000D01*
X188761928Y-136250000D01*
X188774188Y-136374482D01*
X188810498Y-136494180D01*
X188869463Y-136604494D01*
X188948815Y-136701185D01*
X189045506Y-136780537D01*
X189155820Y-136839502D01*
X189275518Y-136875812D01*
X189400000Y-136888072D01*
X191400000Y-136888072D01*
X191524482Y-136875812D01*
X191644180Y-136839502D01*
X191754494Y-136780537D01*
X191851185Y-136701185D01*
X191930537Y-136604494D01*
X191989502Y-136494180D01*
X192025812Y-136374482D01*
X192038072Y-136250000D01*
X194761928Y-136250000D01*
X194774188Y-136374482D01*
X194810498Y-136494180D01*
X194869463Y-136604494D01*
X194948815Y-136701185D01*
X195045506Y-136780537D01*
X195155820Y-136839502D01*
X195275518Y-136875812D01*
X195400000Y-136888072D01*
X196114250Y-136885000D01*
X196273000Y-136726250D01*
X196273000Y-134127000D01*
X194923750Y-134127000D01*
X194765000Y-134285750D01*
X194761928Y-136250000D01*
X192038072Y-136250000D01*
X192038072Y-131750000D01*
X194761928Y-131750000D01*
X194765000Y-133714250D01*
X194923750Y-133873000D01*
X196273000Y-133873000D01*
X196273000Y-131273750D01*
X196114250Y-131115000D01*
X195400000Y-131111928D01*
X195275518Y-131124188D01*
X195155820Y-131160498D01*
X195045506Y-131219463D01*
X194948815Y-131298815D01*
X194869463Y-131395506D01*
X194810498Y-131505820D01*
X194774188Y-131625518D01*
X194761928Y-131750000D01*
X192038072Y-131750000D01*
X192025812Y-131625518D01*
X191989502Y-131505820D01*
X191930537Y-131395506D01*
X191851185Y-131298815D01*
X191754494Y-131219463D01*
X191644180Y-131160498D01*
X191524482Y-131124188D01*
X191400000Y-131111928D01*
X189400000Y-131111928D01*
X189275518Y-131124188D01*
X189155820Y-131160498D01*
X189045506Y-131219463D01*
X188948815Y-131298815D01*
X188869463Y-131395506D01*
X188810498Y-131505820D01*
X188774188Y-131625518D01*
X188761928Y-131750000D01*
X186844662Y-131750000D01*
X187044912Y-131710168D01*
X187342463Y-131586918D01*
X187610252Y-131407987D01*
X187837987Y-131180252D01*
X188016918Y-130912463D01*
X188140168Y-130614912D01*
X188203000Y-130299033D01*
X188203000Y-129976967D01*
X188140168Y-129661088D01*
X188016918Y-129363537D01*
X187837987Y-129095748D01*
X187610252Y-128868013D01*
X187342463Y-128689082D01*
X187044912Y-128565832D01*
X186729033Y-128503000D01*
X186406967Y-128503000D01*
X186091088Y-128565832D01*
X185793537Y-128689082D01*
X185525748Y-128868013D01*
X185298013Y-129095748D01*
X185119082Y-129363537D01*
X184995832Y-129661088D01*
X184933000Y-129976967D01*
X180635000Y-129976967D01*
X180635000Y-129320131D01*
X182163141Y-127791991D01*
X182206449Y-127756449D01*
X182348284Y-127583623D01*
X182453676Y-127386447D01*
X182518577Y-127172499D01*
X182529963Y-127056891D01*
X191518519Y-127056891D01*
X191615843Y-127331252D01*
X191764822Y-127581355D01*
X191959731Y-127797588D01*
X192193080Y-127971641D01*
X192455901Y-128096825D01*
X192603110Y-128141476D01*
X192833000Y-128020155D01*
X192833000Y-126827000D01*
X191639186Y-126827000D01*
X191518519Y-127056891D01*
X182529963Y-127056891D01*
X182535000Y-127005752D01*
X182540491Y-126950000D01*
X182535000Y-126894248D01*
X182535000Y-126343109D01*
X191518519Y-126343109D01*
X191639186Y-126573000D01*
X192833000Y-126573000D01*
X192833000Y-125379845D01*
X193087000Y-125379845D01*
X193087000Y-126573000D01*
X193107000Y-126573000D01*
X193107000Y-126827000D01*
X193087000Y-126827000D01*
X193087000Y-128020155D01*
X193316890Y-128141476D01*
X193464099Y-128096825D01*
X193726920Y-127971641D01*
X193960269Y-127797588D01*
X194036034Y-127713534D01*
X194060498Y-127794180D01*
X194119463Y-127904494D01*
X194198815Y-128001185D01*
X194295506Y-128080537D01*
X194405820Y-128139502D01*
X194525518Y-128175812D01*
X194650000Y-128188072D01*
X196350000Y-128188072D01*
X196474482Y-128175812D01*
X196594180Y-128139502D01*
X196704494Y-128080537D01*
X196801185Y-128001185D01*
X196880537Y-127904494D01*
X196939502Y-127794180D01*
X196975812Y-127674482D01*
X196988072Y-127550000D01*
X196988072Y-125850000D01*
X196975812Y-125725518D01*
X196939502Y-125605820D01*
X196880537Y-125495506D01*
X196801185Y-125398815D01*
X196704494Y-125319463D01*
X196594180Y-125260498D01*
X196474482Y-125224188D01*
X196350000Y-125211928D01*
X194650000Y-125211928D01*
X194525518Y-125224188D01*
X194405820Y-125260498D01*
X194295506Y-125319463D01*
X194198815Y-125398815D01*
X194119463Y-125495506D01*
X194060498Y-125605820D01*
X194036034Y-125686466D01*
X193960269Y-125602412D01*
X193726920Y-125428359D01*
X193464099Y-125303175D01*
X193316890Y-125258524D01*
X193087000Y-125379845D01*
X192833000Y-125379845D01*
X192603110Y-125258524D01*
X192455901Y-125303175D01*
X192193080Y-125428359D01*
X191959731Y-125602412D01*
X191764822Y-125818645D01*
X191615843Y-126068748D01*
X191518519Y-126343109D01*
X182535000Y-126343109D01*
X182535000Y-122256891D01*
X191518519Y-122256891D01*
X191615843Y-122531252D01*
X191764822Y-122781355D01*
X191959731Y-122997588D01*
X192193080Y-123171641D01*
X192455901Y-123296825D01*
X192603110Y-123341476D01*
X192833000Y-123220155D01*
X192833000Y-122027000D01*
X191639186Y-122027000D01*
X191518519Y-122256891D01*
X182535000Y-122256891D01*
X182535000Y-121543109D01*
X191518519Y-121543109D01*
X191639186Y-121773000D01*
X192833000Y-121773000D01*
X192833000Y-120579845D01*
X193087000Y-120579845D01*
X193087000Y-121773000D01*
X193107000Y-121773000D01*
X193107000Y-122027000D01*
X193087000Y-122027000D01*
X193087000Y-123220155D01*
X193316890Y-123341476D01*
X193464099Y-123296825D01*
X193726920Y-123171641D01*
X193960269Y-122997588D01*
X194036034Y-122913534D01*
X194060498Y-122994180D01*
X194119463Y-123104494D01*
X194198815Y-123201185D01*
X194295506Y-123280537D01*
X194405820Y-123339502D01*
X194525518Y-123375812D01*
X194650000Y-123388072D01*
X196350000Y-123388072D01*
X196474482Y-123375812D01*
X196594180Y-123339502D01*
X196704494Y-123280537D01*
X196801185Y-123201185D01*
X196880537Y-123104494D01*
X196939502Y-122994180D01*
X196975812Y-122874482D01*
X196988072Y-122750000D01*
X196988072Y-121050000D01*
X196975812Y-120925518D01*
X196939502Y-120805820D01*
X196880537Y-120695506D01*
X196801185Y-120598815D01*
X196704494Y-120519463D01*
X196594180Y-120460498D01*
X196474482Y-120424188D01*
X196350000Y-120411928D01*
X194650000Y-120411928D01*
X194525518Y-120424188D01*
X194405820Y-120460498D01*
X194295506Y-120519463D01*
X194198815Y-120598815D01*
X194119463Y-120695506D01*
X194060498Y-120805820D01*
X194036034Y-120886466D01*
X193960269Y-120802412D01*
X193726920Y-120628359D01*
X193464099Y-120503175D01*
X193316890Y-120458524D01*
X193087000Y-120579845D01*
X192833000Y-120579845D01*
X192603110Y-120458524D01*
X192455901Y-120503175D01*
X192193080Y-120628359D01*
X191959731Y-120802412D01*
X191764822Y-121018645D01*
X191615843Y-121268748D01*
X191518519Y-121543109D01*
X182535000Y-121543109D01*
X182535000Y-118456891D01*
X191518519Y-118456891D01*
X191615843Y-118731252D01*
X191764822Y-118981355D01*
X191959731Y-119197588D01*
X192193080Y-119371641D01*
X192455901Y-119496825D01*
X192603110Y-119541476D01*
X192833000Y-119420155D01*
X192833000Y-118227000D01*
X191639186Y-118227000D01*
X191518519Y-118456891D01*
X182535000Y-118456891D01*
X182535000Y-117743109D01*
X191518519Y-117743109D01*
X191639186Y-117973000D01*
X192833000Y-117973000D01*
X192833000Y-116779845D01*
X193087000Y-116779845D01*
X193087000Y-117973000D01*
X193107000Y-117973000D01*
X193107000Y-118227000D01*
X193087000Y-118227000D01*
X193087000Y-119420155D01*
X193316890Y-119541476D01*
X193464099Y-119496825D01*
X193726920Y-119371641D01*
X193960269Y-119197588D01*
X194036034Y-119113534D01*
X194060498Y-119194180D01*
X194119463Y-119304494D01*
X194198815Y-119401185D01*
X194295506Y-119480537D01*
X194405820Y-119539502D01*
X194525518Y-119575812D01*
X194650000Y-119588072D01*
X196350000Y-119588072D01*
X196474482Y-119575812D01*
X196594180Y-119539502D01*
X196704494Y-119480537D01*
X196801185Y-119401185D01*
X196880537Y-119304494D01*
X196939502Y-119194180D01*
X196975812Y-119074482D01*
X196988072Y-118950000D01*
X196988072Y-117250000D01*
X196975812Y-117125518D01*
X196939502Y-117005820D01*
X196880537Y-116895506D01*
X196801185Y-116798815D01*
X196704494Y-116719463D01*
X196594180Y-116660498D01*
X196474482Y-116624188D01*
X196350000Y-116611928D01*
X194650000Y-116611928D01*
X194525518Y-116624188D01*
X194405820Y-116660498D01*
X194295506Y-116719463D01*
X194198815Y-116798815D01*
X194119463Y-116895506D01*
X194060498Y-117005820D01*
X194036034Y-117086466D01*
X193960269Y-117002412D01*
X193726920Y-116828359D01*
X193464099Y-116703175D01*
X193316890Y-116658524D01*
X193087000Y-116779845D01*
X192833000Y-116779845D01*
X192603110Y-116658524D01*
X192455901Y-116703175D01*
X192193080Y-116828359D01*
X191959731Y-117002412D01*
X191764822Y-117218645D01*
X191615843Y-117468748D01*
X191518519Y-117743109D01*
X182535000Y-117743109D01*
X182535000Y-114656891D01*
X191518519Y-114656891D01*
X191615843Y-114931252D01*
X191764822Y-115181355D01*
X191959731Y-115397588D01*
X192193080Y-115571641D01*
X192455901Y-115696825D01*
X192603110Y-115741476D01*
X192833000Y-115620155D01*
X192833000Y-114427000D01*
X191639186Y-114427000D01*
X191518519Y-114656891D01*
X182535000Y-114656891D01*
X182535000Y-113398061D01*
X185165000Y-113398061D01*
X185165000Y-113601939D01*
X185204774Y-113801898D01*
X185282795Y-113990256D01*
X185396063Y-114159774D01*
X185540226Y-114303937D01*
X185709744Y-114417205D01*
X185898102Y-114495226D01*
X186098061Y-114535000D01*
X186301939Y-114535000D01*
X186501898Y-114495226D01*
X186690256Y-114417205D01*
X186859774Y-114303937D01*
X187003937Y-114159774D01*
X187117205Y-113990256D01*
X187136734Y-113943109D01*
X191518519Y-113943109D01*
X191639186Y-114173000D01*
X192833000Y-114173000D01*
X192833000Y-112979845D01*
X193087000Y-112979845D01*
X193087000Y-114173000D01*
X193107000Y-114173000D01*
X193107000Y-114427000D01*
X193087000Y-114427000D01*
X193087000Y-115620155D01*
X193316890Y-115741476D01*
X193464099Y-115696825D01*
X193726920Y-115571641D01*
X193960269Y-115397588D01*
X194036034Y-115313534D01*
X194060498Y-115394180D01*
X194119463Y-115504494D01*
X194198815Y-115601185D01*
X194295506Y-115680537D01*
X194405820Y-115739502D01*
X194525518Y-115775812D01*
X194650000Y-115788072D01*
X196350000Y-115788072D01*
X196474482Y-115775812D01*
X196594180Y-115739502D01*
X196704494Y-115680537D01*
X196801185Y-115601185D01*
X196880537Y-115504494D01*
X196939502Y-115394180D01*
X196975812Y-115274482D01*
X196988072Y-115150000D01*
X196988072Y-113450000D01*
X196975812Y-113325518D01*
X196939502Y-113205820D01*
X196880537Y-113095506D01*
X196801185Y-112998815D01*
X196704494Y-112919463D01*
X196594180Y-112860498D01*
X196474482Y-112824188D01*
X196350000Y-112811928D01*
X194650000Y-112811928D01*
X194525518Y-112824188D01*
X194405820Y-112860498D01*
X194295506Y-112919463D01*
X194198815Y-112998815D01*
X194119463Y-113095506D01*
X194060498Y-113205820D01*
X194036034Y-113286466D01*
X193960269Y-113202412D01*
X193726920Y-113028359D01*
X193464099Y-112903175D01*
X193316890Y-112858524D01*
X193087000Y-112979845D01*
X192833000Y-112979845D01*
X192603110Y-112858524D01*
X192455901Y-112903175D01*
X192193080Y-113028359D01*
X191959731Y-113202412D01*
X191764822Y-113418645D01*
X191615843Y-113668748D01*
X191518519Y-113943109D01*
X187136734Y-113943109D01*
X187195226Y-113801898D01*
X187235000Y-113601939D01*
X187235000Y-113398061D01*
X187195226Y-113198102D01*
X187117205Y-113009744D01*
X187003937Y-112840226D01*
X186859774Y-112696063D01*
X186690256Y-112582795D01*
X186501898Y-112504774D01*
X186301939Y-112465000D01*
X186098061Y-112465000D01*
X185898102Y-112504774D01*
X185709744Y-112582795D01*
X185540226Y-112696063D01*
X185396063Y-112840226D01*
X185282795Y-113009744D01*
X185204774Y-113198102D01*
X185165000Y-113398061D01*
X182535000Y-113398061D01*
X182535000Y-110856891D01*
X191518519Y-110856891D01*
X191615843Y-111131252D01*
X191764822Y-111381355D01*
X191959731Y-111597588D01*
X192193080Y-111771641D01*
X192455901Y-111896825D01*
X192603110Y-111941476D01*
X192833000Y-111820155D01*
X192833000Y-110627000D01*
X191639186Y-110627000D01*
X191518519Y-110856891D01*
X182535000Y-110856891D01*
X182535000Y-110143109D01*
X191518519Y-110143109D01*
X191639186Y-110373000D01*
X192833000Y-110373000D01*
X192833000Y-109179845D01*
X193087000Y-109179845D01*
X193087000Y-110373000D01*
X193107000Y-110373000D01*
X193107000Y-110627000D01*
X193087000Y-110627000D01*
X193087000Y-111820155D01*
X193316890Y-111941476D01*
X193464099Y-111896825D01*
X193726920Y-111771641D01*
X193960269Y-111597588D01*
X194036034Y-111513534D01*
X194060498Y-111594180D01*
X194119463Y-111704494D01*
X194198815Y-111801185D01*
X194295506Y-111880537D01*
X194405820Y-111939502D01*
X194525518Y-111975812D01*
X194650000Y-111988072D01*
X196350000Y-111988072D01*
X196474482Y-111975812D01*
X196594180Y-111939502D01*
X196704494Y-111880537D01*
X196801185Y-111801185D01*
X196880537Y-111704494D01*
X196939502Y-111594180D01*
X196975812Y-111474482D01*
X196988072Y-111350000D01*
X196988072Y-109650000D01*
X196975812Y-109525518D01*
X196939502Y-109405820D01*
X196880537Y-109295506D01*
X196801185Y-109198815D01*
X196704494Y-109119463D01*
X196594180Y-109060498D01*
X196474482Y-109024188D01*
X196350000Y-109011928D01*
X194650000Y-109011928D01*
X194525518Y-109024188D01*
X194405820Y-109060498D01*
X194295506Y-109119463D01*
X194198815Y-109198815D01*
X194119463Y-109295506D01*
X194060498Y-109405820D01*
X194036034Y-109486466D01*
X193960269Y-109402412D01*
X193726920Y-109228359D01*
X193464099Y-109103175D01*
X193316890Y-109058524D01*
X193087000Y-109179845D01*
X192833000Y-109179845D01*
X192603110Y-109058524D01*
X192455901Y-109103175D01*
X192193080Y-109228359D01*
X191959731Y-109402412D01*
X191764822Y-109618645D01*
X191615843Y-109868748D01*
X191518519Y-110143109D01*
X182535000Y-110143109D01*
X182535000Y-106920131D01*
X183354164Y-106100967D01*
X184933000Y-106100967D01*
X184933000Y-106423033D01*
X184995832Y-106738912D01*
X185119082Y-107036463D01*
X185298013Y-107304252D01*
X185525748Y-107531987D01*
X185793537Y-107710918D01*
X186091088Y-107834168D01*
X186406967Y-107897000D01*
X186729033Y-107897000D01*
X187044912Y-107834168D01*
X187342463Y-107710918D01*
X187610252Y-107531987D01*
X187837987Y-107304252D01*
X188016918Y-107036463D01*
X188140168Y-106738912D01*
X188177000Y-106553740D01*
X191475000Y-106553740D01*
X191475000Y-106846260D01*
X191532068Y-107133158D01*
X191644010Y-107403411D01*
X191806525Y-107646632D01*
X192013368Y-107853475D01*
X192256589Y-108015990D01*
X192526842Y-108127932D01*
X192813740Y-108185000D01*
X193106260Y-108185000D01*
X193393158Y-108127932D01*
X193663411Y-108015990D01*
X193906632Y-107853475D01*
X194038487Y-107721620D01*
X194060498Y-107794180D01*
X194119463Y-107904494D01*
X194198815Y-108001185D01*
X194295506Y-108080537D01*
X194405820Y-108139502D01*
X194525518Y-108175812D01*
X194650000Y-108188072D01*
X196350000Y-108188072D01*
X196474482Y-108175812D01*
X196594180Y-108139502D01*
X196704494Y-108080537D01*
X196801185Y-108001185D01*
X196880537Y-107904494D01*
X196939502Y-107794180D01*
X196975812Y-107674482D01*
X196988072Y-107550000D01*
X196988072Y-105850000D01*
X196975812Y-105725518D01*
X196939502Y-105605820D01*
X196880537Y-105495506D01*
X196801185Y-105398815D01*
X196704494Y-105319463D01*
X196594180Y-105260498D01*
X196474482Y-105224188D01*
X196350000Y-105211928D01*
X194650000Y-105211928D01*
X194525518Y-105224188D01*
X194405820Y-105260498D01*
X194295506Y-105319463D01*
X194198815Y-105398815D01*
X194119463Y-105495506D01*
X194060498Y-105605820D01*
X194038487Y-105678380D01*
X193906632Y-105546525D01*
X193663411Y-105384010D01*
X193393158Y-105272068D01*
X193106260Y-105215000D01*
X192813740Y-105215000D01*
X192526842Y-105272068D01*
X192256589Y-105384010D01*
X192013368Y-105546525D01*
X191806525Y-105753368D01*
X191644010Y-105996589D01*
X191532068Y-106266842D01*
X191475000Y-106553740D01*
X188177000Y-106553740D01*
X188203000Y-106423033D01*
X188203000Y-106100967D01*
X188140168Y-105785088D01*
X188016918Y-105487537D01*
X187837987Y-105219748D01*
X187610252Y-104992013D01*
X187342463Y-104813082D01*
X187044912Y-104689832D01*
X186729033Y-104627000D01*
X186406967Y-104627000D01*
X186091088Y-104689832D01*
X185793537Y-104813082D01*
X185525748Y-104992013D01*
X185298013Y-105219748D01*
X185119082Y-105487537D01*
X184995832Y-105785088D01*
X184933000Y-106100967D01*
X183354164Y-106100967D01*
X185631140Y-103823992D01*
X185674448Y-103788450D01*
X185816283Y-103615624D01*
X185921675Y-103418448D01*
X185986576Y-103204500D01*
X186002999Y-103037753D01*
X186002999Y-103037746D01*
X186008489Y-102982002D01*
X186002999Y-102926258D01*
X186002999Y-102853740D01*
X191475000Y-102853740D01*
X191475000Y-103146260D01*
X191532068Y-103433158D01*
X191644010Y-103703411D01*
X191806525Y-103946632D01*
X192013368Y-104153475D01*
X192256589Y-104315990D01*
X192526842Y-104427932D01*
X192813740Y-104485000D01*
X193106260Y-104485000D01*
X193393158Y-104427932D01*
X193663411Y-104315990D01*
X193906632Y-104153475D01*
X194038487Y-104021620D01*
X194060498Y-104094180D01*
X194119463Y-104204494D01*
X194198815Y-104301185D01*
X194295506Y-104380537D01*
X194405820Y-104439502D01*
X194525518Y-104475812D01*
X194650000Y-104488072D01*
X196350000Y-104488072D01*
X196474482Y-104475812D01*
X196594180Y-104439502D01*
X196704494Y-104380537D01*
X196801185Y-104301185D01*
X196880537Y-104204494D01*
X196939502Y-104094180D01*
X196975812Y-103974482D01*
X196988072Y-103850000D01*
X196988072Y-102150000D01*
X196975812Y-102025518D01*
X196939502Y-101905820D01*
X196880537Y-101795506D01*
X196801185Y-101698815D01*
X196704494Y-101619463D01*
X196594180Y-101560498D01*
X196474482Y-101524188D01*
X196350000Y-101511928D01*
X194650000Y-101511928D01*
X194525518Y-101524188D01*
X194405820Y-101560498D01*
X194295506Y-101619463D01*
X194198815Y-101698815D01*
X194119463Y-101795506D01*
X194060498Y-101905820D01*
X194038487Y-101978380D01*
X193906632Y-101846525D01*
X193663411Y-101684010D01*
X193393158Y-101572068D01*
X193106260Y-101515000D01*
X192813740Y-101515000D01*
X192526842Y-101572068D01*
X192256589Y-101684010D01*
X192013368Y-101846525D01*
X191806525Y-102053368D01*
X191644010Y-102296589D01*
X191532068Y-102566842D01*
X191475000Y-102853740D01*
X186002999Y-102853740D01*
X186002999Y-99988072D01*
X186050000Y-99988072D01*
X186174482Y-99975812D01*
X186294180Y-99939502D01*
X186404494Y-99880537D01*
X186501185Y-99801185D01*
X186580537Y-99704494D01*
X186639502Y-99594180D01*
X186675812Y-99474482D01*
X186688072Y-99350000D01*
X186688072Y-97650000D01*
X186675812Y-97525518D01*
X186639502Y-97405820D01*
X186580537Y-97295506D01*
X186501185Y-97198815D01*
X186404494Y-97119463D01*
X186294180Y-97060498D01*
X186174482Y-97024188D01*
X186050000Y-97011928D01*
X184350000Y-97011928D01*
X184225518Y-97024188D01*
X184105820Y-97060498D01*
X183995506Y-97119463D01*
X183898815Y-97198815D01*
X183819463Y-97295506D01*
X183760498Y-97405820D01*
X183738487Y-97478380D01*
X183606632Y-97346525D01*
X183363411Y-97184010D01*
X183093158Y-97072068D01*
X182806260Y-97015000D01*
X182513740Y-97015000D01*
X182226842Y-97072068D01*
X181956589Y-97184010D01*
X181713368Y-97346525D01*
X181506525Y-97553368D01*
X181390000Y-97727760D01*
X181273475Y-97553368D01*
X181066632Y-97346525D01*
X180823411Y-97184010D01*
X180553158Y-97072068D01*
X180266260Y-97015000D01*
X179973740Y-97015000D01*
X179686842Y-97072068D01*
X179416589Y-97184010D01*
X179173368Y-97346525D01*
X178966525Y-97553368D01*
X178850000Y-97727760D01*
X178733475Y-97553368D01*
X178526632Y-97346525D01*
X178283411Y-97184010D01*
X178013158Y-97072068D01*
X177726260Y-97015000D01*
X177433740Y-97015000D01*
X177146842Y-97072068D01*
X176876589Y-97184010D01*
X176633368Y-97346525D01*
X176426525Y-97553368D01*
X176310000Y-97727760D01*
X176193475Y-97553368D01*
X175986632Y-97346525D01*
X175743411Y-97184010D01*
X175473158Y-97072068D01*
X175186260Y-97015000D01*
X174893740Y-97015000D01*
X174606842Y-97072068D01*
X174336589Y-97184010D01*
X174093368Y-97346525D01*
X173886525Y-97553368D01*
X173770000Y-97727760D01*
X173653475Y-97553368D01*
X173446632Y-97346525D01*
X173203411Y-97184010D01*
X172933158Y-97072068D01*
X172646260Y-97015000D01*
X172353740Y-97015000D01*
X172066842Y-97072068D01*
X171796589Y-97184010D01*
X171553368Y-97346525D01*
X171346525Y-97553368D01*
X171230000Y-97727760D01*
X171113475Y-97553368D01*
X170906632Y-97346525D01*
X170663411Y-97184010D01*
X170393158Y-97072068D01*
X170106260Y-97015000D01*
X169813740Y-97015000D01*
X169526842Y-97072068D01*
X169256589Y-97184010D01*
X169013368Y-97346525D01*
X168806525Y-97553368D01*
X168684805Y-97735534D01*
X168615178Y-97618645D01*
X168420269Y-97402412D01*
X168186920Y-97228359D01*
X167924099Y-97103175D01*
X167776890Y-97058524D01*
X167547000Y-97179845D01*
X167547000Y-98373000D01*
X167567000Y-98373000D01*
X167567000Y-98627000D01*
X167547000Y-98627000D01*
X167547000Y-98647000D01*
X167293000Y-98647000D01*
X167293000Y-98627000D01*
X166099186Y-98627000D01*
X165978519Y-98856891D01*
X166075843Y-99131252D01*
X166224822Y-99381355D01*
X166419731Y-99597588D01*
X166653080Y-99771641D01*
X166915901Y-99896825D01*
X167063110Y-99941476D01*
X167292998Y-99820156D01*
X167292998Y-99985000D01*
X167400199Y-99985000D01*
X165145199Y-102240000D01*
X161327000Y-102240000D01*
X161327000Y-98143109D01*
X165978519Y-98143109D01*
X166099186Y-98373000D01*
X167293000Y-98373000D01*
X167293000Y-97179845D01*
X167063110Y-97058524D01*
X166915901Y-97103175D01*
X166653080Y-97228359D01*
X166419731Y-97402412D01*
X166224822Y-97618645D01*
X166075843Y-97868748D01*
X165978519Y-98143109D01*
X161327000Y-98143109D01*
X161327000Y-96627000D01*
X197073000Y-96627000D01*
X197073000Y-131113334D01*
X196685750Y-131115000D01*
X196527000Y-131273750D01*
X196527000Y-133873000D01*
X196547000Y-133873000D01*
X196547000Y-134127000D01*
X196527000Y-134127000D01*
X196527000Y-136726250D01*
X196685750Y-136885000D01*
X197073000Y-136886666D01*
X197073000Y-139373000D01*
X196288072Y-139373000D01*
X196288072Y-137700000D01*
X196275812Y-137575518D01*
X196239502Y-137455820D01*
X196180537Y-137345506D01*
X196101185Y-137248815D01*
X196004494Y-137169463D01*
X195894180Y-137110498D01*
X195774482Y-137074188D01*
X195650000Y-137061928D01*
X191150000Y-137061928D01*
X191025518Y-137074188D01*
X190905820Y-137110498D01*
X190795506Y-137169463D01*
X190698815Y-137248815D01*
X190619463Y-137345506D01*
X190560498Y-137455820D01*
X190524188Y-137575518D01*
X190511928Y-137700000D01*
X190511928Y-139373000D01*
X174756414Y-139373000D01*
X174859774Y-139303937D01*
X175003937Y-139159774D01*
X175117205Y-138990256D01*
X175195226Y-138801898D01*
X175235000Y-138601939D01*
X175235000Y-138398061D01*
X175195226Y-138198102D01*
X175117205Y-138009744D01*
X175003937Y-137840226D01*
X174859774Y-137696063D01*
X174690256Y-137582795D01*
X174501898Y-137504774D01*
X174301939Y-137465000D01*
X174098061Y-137465000D01*
X173898102Y-137504774D01*
X173709744Y-137582795D01*
X173540226Y-137696063D01*
X173396063Y-137840226D01*
X173282795Y-138009744D01*
X173204774Y-138198102D01*
X173165000Y-138398061D01*
X173165000Y-138601939D01*
X173204774Y-138801898D01*
X173282795Y-138990256D01*
X173396063Y-139159774D01*
X173540226Y-139303937D01*
X173643586Y-139373000D01*
X104327000Y-139373000D01*
X104327000Y-137327000D01*
X112065000Y-137327000D01*
X112065000Y-137602000D01*
X112111585Y-137820987D01*
X112199997Y-138026678D01*
X112326839Y-138211169D01*
X112487236Y-138367369D01*
X112675024Y-138489276D01*
X112898126Y-138569119D01*
X113073000Y-138442954D01*
X113073000Y-137327000D01*
X113327000Y-137327000D01*
X113327000Y-138442954D01*
X113501874Y-138569119D01*
X113724976Y-138489276D01*
X113912764Y-138367369D01*
X114073161Y-138211169D01*
X114200003Y-138026678D01*
X114288415Y-137820987D01*
X114335000Y-137602000D01*
X114335000Y-137327000D01*
X119065000Y-137327000D01*
X119065000Y-137602000D01*
X119111585Y-137820987D01*
X119199997Y-138026678D01*
X119326839Y-138211169D01*
X119487236Y-138367369D01*
X119675024Y-138489276D01*
X119898126Y-138569119D01*
X120073000Y-138442954D01*
X120073000Y-137327000D01*
X120327000Y-137327000D01*
X120327000Y-138442954D01*
X120501874Y-138569119D01*
X120724976Y-138489276D01*
X120912764Y-138367369D01*
X121073161Y-138211169D01*
X121200003Y-138026678D01*
X121288415Y-137820987D01*
X121335000Y-137602000D01*
X121335000Y-137327000D01*
X120327000Y-137327000D01*
X120073000Y-137327000D01*
X119065000Y-137327000D01*
X114335000Y-137327000D01*
X113327000Y-137327000D01*
X113073000Y-137327000D01*
X112065000Y-137327000D01*
X104327000Y-137327000D01*
X104327000Y-137218061D01*
X129945000Y-137218061D01*
X129945000Y-137421939D01*
X129984774Y-137621898D01*
X130062795Y-137810256D01*
X130176063Y-137979774D01*
X130320226Y-138123937D01*
X130489744Y-138237205D01*
X130678102Y-138315226D01*
X130878061Y-138355000D01*
X131081939Y-138355000D01*
X131281898Y-138315226D01*
X131470256Y-138237205D01*
X131639774Y-138123937D01*
X131783937Y-137979774D01*
X131897205Y-137810256D01*
X131975226Y-137621898D01*
X132015000Y-137421939D01*
X132015000Y-137218061D01*
X131975226Y-137018102D01*
X131897205Y-136829744D01*
X131783937Y-136660226D01*
X131639774Y-136516063D01*
X131470256Y-136402795D01*
X131281898Y-136324774D01*
X131081939Y-136285000D01*
X130878061Y-136285000D01*
X130678102Y-136324774D01*
X130489744Y-136402795D01*
X130320226Y-136516063D01*
X130176063Y-136660226D01*
X130062795Y-136829744D01*
X129984774Y-137018102D01*
X129945000Y-137218061D01*
X104327000Y-137218061D01*
X104327000Y-136798000D01*
X112065000Y-136798000D01*
X112065000Y-137073000D01*
X113073000Y-137073000D01*
X113073000Y-135957046D01*
X113327000Y-135957046D01*
X113327000Y-137073000D01*
X114335000Y-137073000D01*
X114335000Y-136798000D01*
X119065000Y-136798000D01*
X119065000Y-137073000D01*
X120073000Y-137073000D01*
X120073000Y-135957046D01*
X120327000Y-135957046D01*
X120327000Y-137073000D01*
X121335000Y-137073000D01*
X121335000Y-136798000D01*
X121288415Y-136579013D01*
X121200003Y-136373322D01*
X121073161Y-136188831D01*
X120912764Y-136032631D01*
X120724976Y-135910724D01*
X120668954Y-135890675D01*
X148190000Y-135890675D01*
X148190000Y-136109325D01*
X148232657Y-136323775D01*
X148316331Y-136525782D01*
X148437807Y-136707584D01*
X148592416Y-136862193D01*
X148774218Y-136983669D01*
X148976225Y-137067343D01*
X149190675Y-137110000D01*
X149409325Y-137110000D01*
X149623775Y-137067343D01*
X149825782Y-136983669D01*
X150007584Y-136862193D01*
X150162193Y-136707584D01*
X150283669Y-136525782D01*
X150367343Y-136323775D01*
X150410000Y-136109325D01*
X150410000Y-135890675D01*
X154990000Y-135890675D01*
X154990000Y-136109325D01*
X155032657Y-136323775D01*
X155116331Y-136525782D01*
X155237807Y-136707584D01*
X155392416Y-136862193D01*
X155574218Y-136983669D01*
X155776225Y-137067343D01*
X155990675Y-137110000D01*
X156209325Y-137110000D01*
X156423775Y-137067343D01*
X156625782Y-136983669D01*
X156807584Y-136862193D01*
X156962193Y-136707584D01*
X157083669Y-136525782D01*
X157167343Y-136323775D01*
X157210000Y-136109325D01*
X157210000Y-135890675D01*
X157167343Y-135676225D01*
X157083669Y-135474218D01*
X156962193Y-135292416D01*
X156807584Y-135137807D01*
X156625782Y-135016331D01*
X156423775Y-134932657D01*
X156209325Y-134890000D01*
X155990675Y-134890000D01*
X155776225Y-134932657D01*
X155574218Y-135016331D01*
X155392416Y-135137807D01*
X155237807Y-135292416D01*
X155116331Y-135474218D01*
X155032657Y-135676225D01*
X154990000Y-135890675D01*
X150410000Y-135890675D01*
X150367343Y-135676225D01*
X150283669Y-135474218D01*
X150162193Y-135292416D01*
X150007584Y-135137807D01*
X149825782Y-135016331D01*
X149623775Y-134932657D01*
X149409325Y-134890000D01*
X149190675Y-134890000D01*
X148976225Y-134932657D01*
X148774218Y-135016331D01*
X148592416Y-135137807D01*
X148437807Y-135292416D01*
X148316331Y-135474218D01*
X148232657Y-135676225D01*
X148190000Y-135890675D01*
X120668954Y-135890675D01*
X120501874Y-135830881D01*
X120327000Y-135957046D01*
X120073000Y-135957046D01*
X119898126Y-135830881D01*
X119675024Y-135910724D01*
X119487236Y-136032631D01*
X119326839Y-136188831D01*
X119199997Y-136373322D01*
X119111585Y-136579013D01*
X119065000Y-136798000D01*
X114335000Y-136798000D01*
X114288415Y-136579013D01*
X114200003Y-136373322D01*
X114073161Y-136188831D01*
X113912764Y-136032631D01*
X113724976Y-135910724D01*
X113501874Y-135830881D01*
X113327000Y-135957046D01*
X113073000Y-135957046D01*
X112898126Y-135830881D01*
X112675024Y-135910724D01*
X112487236Y-136032631D01*
X112326839Y-136188831D01*
X112199997Y-136373322D01*
X112111585Y-136579013D01*
X112065000Y-136798000D01*
X104327000Y-136798000D01*
X104327000Y-134829117D01*
X105765000Y-134829117D01*
X105765000Y-135170883D01*
X105831675Y-135506081D01*
X105962463Y-135821831D01*
X106152337Y-136105998D01*
X106394002Y-136347663D01*
X106678169Y-136537537D01*
X106993919Y-136668325D01*
X107329117Y-136735000D01*
X107670883Y-136735000D01*
X108006081Y-136668325D01*
X108321831Y-136537537D01*
X108605998Y-136347663D01*
X108847663Y-136105998D01*
X109037537Y-135821831D01*
X109168325Y-135506081D01*
X109235000Y-135170883D01*
X109235000Y-134829117D01*
X109228799Y-134797938D01*
X112980732Y-134797938D01*
X113050397Y-134986150D01*
X113164447Y-135171822D01*
X113312529Y-135331676D01*
X113488951Y-135459569D01*
X113686934Y-135550586D01*
X113898869Y-135601230D01*
X114073000Y-135452564D01*
X114073000Y-134627000D01*
X114327000Y-134627000D01*
X114327000Y-135452564D01*
X114501131Y-135601230D01*
X114713066Y-135550586D01*
X114911049Y-135459569D01*
X115087471Y-135331676D01*
X115235553Y-135171822D01*
X115349603Y-134986150D01*
X115419268Y-134797938D01*
X117980732Y-134797938D01*
X118050397Y-134986150D01*
X118164447Y-135171822D01*
X118312529Y-135331676D01*
X118488951Y-135459569D01*
X118686934Y-135550586D01*
X118898869Y-135601230D01*
X119073000Y-135452564D01*
X119073000Y-134627000D01*
X119327000Y-134627000D01*
X119327000Y-135452564D01*
X119501131Y-135601230D01*
X119713066Y-135550586D01*
X119911049Y-135459569D01*
X120087471Y-135331676D01*
X120235553Y-135171822D01*
X120349603Y-134986150D01*
X120419268Y-134797938D01*
X120292734Y-134627000D01*
X119327000Y-134627000D01*
X119073000Y-134627000D01*
X118107266Y-134627000D01*
X117980732Y-134797938D01*
X115419268Y-134797938D01*
X115292734Y-134627000D01*
X114327000Y-134627000D01*
X114073000Y-134627000D01*
X113107266Y-134627000D01*
X112980732Y-134797938D01*
X109228799Y-134797938D01*
X109168325Y-134493919D01*
X109047434Y-134202062D01*
X112980732Y-134202062D01*
X113107266Y-134373000D01*
X114073000Y-134373000D01*
X114073000Y-133547436D01*
X114327000Y-133547436D01*
X114327000Y-134373000D01*
X115292734Y-134373000D01*
X115419268Y-134202062D01*
X117980732Y-134202062D01*
X118107266Y-134373000D01*
X119073000Y-134373000D01*
X119073000Y-133547436D01*
X119327000Y-133547436D01*
X119327000Y-134373000D01*
X120292734Y-134373000D01*
X120419268Y-134202062D01*
X120383378Y-134105098D01*
X164155000Y-134105098D01*
X164155000Y-134574902D01*
X164246654Y-135035679D01*
X164426440Y-135469721D01*
X164687450Y-135860349D01*
X165019651Y-136192550D01*
X165410279Y-136453560D01*
X165844321Y-136633346D01*
X166305098Y-136725000D01*
X166774902Y-136725000D01*
X167235679Y-136633346D01*
X167669721Y-136453560D01*
X168060349Y-136192550D01*
X168392550Y-135860349D01*
X168653560Y-135469721D01*
X168833346Y-135035679D01*
X168925000Y-134574902D01*
X168925000Y-134105098D01*
X168833346Y-133644321D01*
X168653560Y-133210279D01*
X168392550Y-132819651D01*
X168060349Y-132487450D01*
X167669721Y-132226440D01*
X167235679Y-132046654D01*
X166774902Y-131955000D01*
X166305098Y-131955000D01*
X165844321Y-132046654D01*
X165410279Y-132226440D01*
X165019651Y-132487450D01*
X164687450Y-132819651D01*
X164426440Y-133210279D01*
X164246654Y-133644321D01*
X164155000Y-134105098D01*
X120383378Y-134105098D01*
X120349603Y-134013850D01*
X120235553Y-133828178D01*
X120087471Y-133668324D01*
X119911049Y-133540431D01*
X119713066Y-133449414D01*
X119501131Y-133398770D01*
X119327000Y-133547436D01*
X119073000Y-133547436D01*
X118898869Y-133398770D01*
X118686934Y-133449414D01*
X118488951Y-133540431D01*
X118312529Y-133668324D01*
X118164447Y-133828178D01*
X118050397Y-134013850D01*
X117980732Y-134202062D01*
X115419268Y-134202062D01*
X115349603Y-134013850D01*
X115235553Y-133828178D01*
X115087471Y-133668324D01*
X114911049Y-133540431D01*
X114713066Y-133449414D01*
X114501131Y-133398770D01*
X114327000Y-133547436D01*
X114073000Y-133547436D01*
X113898869Y-133398770D01*
X113686934Y-133449414D01*
X113488951Y-133540431D01*
X113312529Y-133668324D01*
X113164447Y-133828178D01*
X113050397Y-134013850D01*
X112980732Y-134202062D01*
X109047434Y-134202062D01*
X109037537Y-134178169D01*
X108847663Y-133894002D01*
X108605998Y-133652337D01*
X108321831Y-133462463D01*
X108006081Y-133331675D01*
X107670883Y-133265000D01*
X107329117Y-133265000D01*
X106993919Y-133331675D01*
X106678169Y-133462463D01*
X106394002Y-133652337D01*
X106152337Y-133894002D01*
X105962463Y-134178169D01*
X105831675Y-134493919D01*
X105765000Y-134829117D01*
X104327000Y-134829117D01*
X104327000Y-125138967D01*
X114365000Y-125138967D01*
X114365000Y-125461033D01*
X114427832Y-125776912D01*
X114551082Y-126074463D01*
X114730013Y-126342252D01*
X114957748Y-126569987D01*
X115225537Y-126748918D01*
X115523088Y-126872168D01*
X115838967Y-126935000D01*
X116161033Y-126935000D01*
X116476912Y-126872168D01*
X116774463Y-126748918D01*
X117042252Y-126569987D01*
X117269987Y-126342252D01*
X117448918Y-126074463D01*
X117572168Y-125776912D01*
X117635000Y-125461033D01*
X117635000Y-125138967D01*
X119365000Y-125138967D01*
X119365000Y-125461033D01*
X119427832Y-125776912D01*
X119551082Y-126074463D01*
X119730013Y-126342252D01*
X119957748Y-126569987D01*
X120225537Y-126748918D01*
X120523088Y-126872168D01*
X120838967Y-126935000D01*
X121161033Y-126935000D01*
X121476912Y-126872168D01*
X121774463Y-126748918D01*
X122042252Y-126569987D01*
X122269987Y-126342252D01*
X122448918Y-126074463D01*
X122572168Y-125776912D01*
X122635000Y-125461033D01*
X122635000Y-125138967D01*
X122572168Y-124823088D01*
X122448918Y-124525537D01*
X122269987Y-124257748D01*
X122042252Y-124030013D01*
X121774463Y-123851082D01*
X121476912Y-123727832D01*
X121161033Y-123665000D01*
X120838967Y-123665000D01*
X120523088Y-123727832D01*
X120225537Y-123851082D01*
X119957748Y-124030013D01*
X119730013Y-124257748D01*
X119551082Y-124525537D01*
X119427832Y-124823088D01*
X119365000Y-125138967D01*
X117635000Y-125138967D01*
X117572168Y-124823088D01*
X117448918Y-124525537D01*
X117269987Y-124257748D01*
X117042252Y-124030013D01*
X116774463Y-123851082D01*
X116476912Y-123727832D01*
X116161033Y-123665000D01*
X115838967Y-123665000D01*
X115523088Y-123727832D01*
X115225537Y-123851082D01*
X114957748Y-124030013D01*
X114730013Y-124257748D01*
X114551082Y-124525537D01*
X114427832Y-124823088D01*
X114365000Y-125138967D01*
X104327000Y-125138967D01*
X104327000Y-122398061D01*
X127165000Y-122398061D01*
X127165000Y-122601939D01*
X127204774Y-122801898D01*
X127282795Y-122990256D01*
X127396063Y-123159774D01*
X127540226Y-123303937D01*
X127709744Y-123417205D01*
X127898102Y-123495226D01*
X128098061Y-123535000D01*
X128301939Y-123535000D01*
X128501898Y-123495226D01*
X128690256Y-123417205D01*
X128859774Y-123303937D01*
X129003937Y-123159774D01*
X129117205Y-122990256D01*
X129195226Y-122801898D01*
X129235000Y-122601939D01*
X129235000Y-122398061D01*
X129195226Y-122198102D01*
X129117205Y-122009744D01*
X129003937Y-121840226D01*
X128960000Y-121796289D01*
X128960000Y-111848061D01*
X140665000Y-111848061D01*
X140665000Y-112051939D01*
X140704774Y-112251898D01*
X140782795Y-112440256D01*
X140896063Y-112609774D01*
X141040226Y-112753937D01*
X141209744Y-112867205D01*
X141398102Y-112945226D01*
X141598061Y-112985000D01*
X141801939Y-112985000D01*
X142001898Y-112945226D01*
X142190256Y-112867205D01*
X142359774Y-112753937D01*
X142503937Y-112609774D01*
X142617205Y-112440256D01*
X142695226Y-112251898D01*
X142735000Y-112051939D01*
X142735000Y-111848061D01*
X142695226Y-111648102D01*
X142617205Y-111459744D01*
X142503937Y-111290226D01*
X142359774Y-111146063D01*
X142190256Y-111032795D01*
X142001898Y-110954774D01*
X141801939Y-110915000D01*
X141598061Y-110915000D01*
X141398102Y-110954774D01*
X141209744Y-111032795D01*
X141040226Y-111146063D01*
X140896063Y-111290226D01*
X140782795Y-111459744D01*
X140704774Y-111648102D01*
X140665000Y-111848061D01*
X128960000Y-111848061D01*
X128960000Y-108314801D01*
X130739802Y-106535000D01*
X130801939Y-106535000D01*
X131001898Y-106495226D01*
X131190256Y-106417205D01*
X131359774Y-106303937D01*
X131503937Y-106159774D01*
X131543230Y-106100967D01*
X138197000Y-106100967D01*
X138197000Y-106423033D01*
X138259832Y-106738912D01*
X138383082Y-107036463D01*
X138562013Y-107304252D01*
X138789748Y-107531987D01*
X139057537Y-107710918D01*
X139355088Y-107834168D01*
X139670967Y-107897000D01*
X139993033Y-107897000D01*
X140308912Y-107834168D01*
X140606463Y-107710918D01*
X140874252Y-107531987D01*
X141101987Y-107304252D01*
X141280918Y-107036463D01*
X141404168Y-106738912D01*
X141467000Y-106423033D01*
X141467000Y-106100967D01*
X141404168Y-105785088D01*
X141280918Y-105487537D01*
X141101987Y-105219748D01*
X140874252Y-104992013D01*
X140606463Y-104813082D01*
X140308912Y-104689832D01*
X139993033Y-104627000D01*
X139670967Y-104627000D01*
X139355088Y-104689832D01*
X139057537Y-104813082D01*
X138789748Y-104992013D01*
X138562013Y-105219748D01*
X138383082Y-105487537D01*
X138259832Y-105785088D01*
X138197000Y-106100967D01*
X131543230Y-106100967D01*
X131617205Y-105990256D01*
X131695226Y-105801898D01*
X131735000Y-105601939D01*
X131735000Y-105398061D01*
X131695226Y-105198102D01*
X131617205Y-105009744D01*
X131503937Y-104840226D01*
X131359774Y-104696063D01*
X131190256Y-104582795D01*
X131001898Y-104504774D01*
X130801939Y-104465000D01*
X130598061Y-104465000D01*
X130398102Y-104504774D01*
X130209744Y-104582795D01*
X130040226Y-104696063D01*
X129896063Y-104840226D01*
X129782795Y-105009744D01*
X129704774Y-105198102D01*
X129665000Y-105398061D01*
X129665000Y-105460198D01*
X127688998Y-107436201D01*
X127660000Y-107459999D01*
X127636202Y-107488997D01*
X127636201Y-107488998D01*
X127565026Y-107575724D01*
X127494454Y-107707754D01*
X127481337Y-107750997D01*
X127454271Y-107840226D01*
X127450998Y-107851015D01*
X127436324Y-108000000D01*
X127440001Y-108037332D01*
X127440000Y-121796289D01*
X127396063Y-121840226D01*
X127282795Y-122009744D01*
X127204774Y-122198102D01*
X127165000Y-122398061D01*
X104327000Y-122398061D01*
X104327000Y-120100000D01*
X110761928Y-120100000D01*
X110774188Y-120224482D01*
X110810498Y-120344180D01*
X110869463Y-120454494D01*
X110948815Y-120551185D01*
X111045506Y-120630537D01*
X111155820Y-120689502D01*
X111275518Y-120725812D01*
X111400000Y-120738072D01*
X112514250Y-120735000D01*
X112673000Y-120576250D01*
X112673000Y-118427000D01*
X112927000Y-118427000D01*
X112927000Y-120576250D01*
X113085750Y-120735000D01*
X114200000Y-120738072D01*
X114324482Y-120725812D01*
X114444180Y-120689502D01*
X114554494Y-120630537D01*
X114651185Y-120551185D01*
X114730537Y-120454494D01*
X114789502Y-120344180D01*
X114825812Y-120224482D01*
X114838072Y-120100000D01*
X122161928Y-120100000D01*
X122174188Y-120224482D01*
X122210498Y-120344180D01*
X122269463Y-120454494D01*
X122348815Y-120551185D01*
X122445506Y-120630537D01*
X122555820Y-120689502D01*
X122675518Y-120725812D01*
X122800000Y-120738072D01*
X123914250Y-120735000D01*
X124073000Y-120576250D01*
X124073000Y-118427000D01*
X124327000Y-118427000D01*
X124327000Y-120576250D01*
X124485750Y-120735000D01*
X125600000Y-120738072D01*
X125724482Y-120725812D01*
X125844180Y-120689502D01*
X125954494Y-120630537D01*
X126051185Y-120551185D01*
X126130537Y-120454494D01*
X126189502Y-120344180D01*
X126225812Y-120224482D01*
X126238072Y-120100000D01*
X126235000Y-118585750D01*
X126076250Y-118427000D01*
X124327000Y-118427000D01*
X124073000Y-118427000D01*
X122323750Y-118427000D01*
X122165000Y-118585750D01*
X122161928Y-120100000D01*
X114838072Y-120100000D01*
X114835000Y-118585750D01*
X114676250Y-118427000D01*
X112927000Y-118427000D01*
X112673000Y-118427000D01*
X110923750Y-118427000D01*
X110765000Y-118585750D01*
X110761928Y-120100000D01*
X104327000Y-120100000D01*
X104327000Y-116500000D01*
X110761928Y-116500000D01*
X110765000Y-118014250D01*
X110923750Y-118173000D01*
X112673000Y-118173000D01*
X112673000Y-116023750D01*
X112927000Y-116023750D01*
X112927000Y-118173000D01*
X114676250Y-118173000D01*
X114835000Y-118014250D01*
X114838072Y-116500000D01*
X122161928Y-116500000D01*
X122165000Y-118014250D01*
X122323750Y-118173000D01*
X124073000Y-118173000D01*
X124073000Y-116023750D01*
X124327000Y-116023750D01*
X124327000Y-118173000D01*
X126076250Y-118173000D01*
X126235000Y-118014250D01*
X126238072Y-116500000D01*
X126225812Y-116375518D01*
X126189502Y-116255820D01*
X126130537Y-116145506D01*
X126051185Y-116048815D01*
X125954494Y-115969463D01*
X125844180Y-115910498D01*
X125724482Y-115874188D01*
X125600000Y-115861928D01*
X124485750Y-115865000D01*
X124327000Y-116023750D01*
X124073000Y-116023750D01*
X123914250Y-115865000D01*
X122800000Y-115861928D01*
X122675518Y-115874188D01*
X122555820Y-115910498D01*
X122445506Y-115969463D01*
X122348815Y-116048815D01*
X122269463Y-116145506D01*
X122210498Y-116255820D01*
X122174188Y-116375518D01*
X122161928Y-116500000D01*
X114838072Y-116500000D01*
X114825812Y-116375518D01*
X114789502Y-116255820D01*
X114730537Y-116145506D01*
X114651185Y-116048815D01*
X114554494Y-115969463D01*
X114444180Y-115910498D01*
X114324482Y-115874188D01*
X114200000Y-115861928D01*
X113085750Y-115865000D01*
X112927000Y-116023750D01*
X112673000Y-116023750D01*
X112514250Y-115865000D01*
X111400000Y-115861928D01*
X111275518Y-115874188D01*
X111155820Y-115910498D01*
X111045506Y-115969463D01*
X110948815Y-116048815D01*
X110869463Y-116145506D01*
X110810498Y-116255820D01*
X110774188Y-116375518D01*
X110761928Y-116500000D01*
X104327000Y-116500000D01*
X104327000Y-110638967D01*
X114365000Y-110638967D01*
X114365000Y-110961033D01*
X114427832Y-111276912D01*
X114551082Y-111574463D01*
X114730013Y-111842252D01*
X114957748Y-112069987D01*
X115225537Y-112248918D01*
X115523088Y-112372168D01*
X115838967Y-112435000D01*
X116161033Y-112435000D01*
X116476912Y-112372168D01*
X116774463Y-112248918D01*
X117042252Y-112069987D01*
X117176826Y-111935413D01*
X117544192Y-111935413D01*
X117639956Y-112199814D01*
X117929571Y-112340704D01*
X118241108Y-112422384D01*
X118562595Y-112441718D01*
X118881675Y-112397961D01*
X119186088Y-112292795D01*
X119360044Y-112199814D01*
X119455808Y-111935413D01*
X118500000Y-110979605D01*
X117544192Y-111935413D01*
X117176826Y-111935413D01*
X117269987Y-111842252D01*
X117334925Y-111745065D01*
X117364587Y-111755808D01*
X118320395Y-110800000D01*
X118679605Y-110800000D01*
X119635413Y-111755808D01*
X119665075Y-111745065D01*
X119730013Y-111842252D01*
X119957748Y-112069987D01*
X120225537Y-112248918D01*
X120523088Y-112372168D01*
X120838967Y-112435000D01*
X121161033Y-112435000D01*
X121476912Y-112372168D01*
X121774463Y-112248918D01*
X122042252Y-112069987D01*
X122269987Y-111842252D01*
X122448918Y-111574463D01*
X122572168Y-111276912D01*
X122635000Y-110961033D01*
X122635000Y-110638967D01*
X122572168Y-110323088D01*
X122448918Y-110025537D01*
X122269987Y-109757748D01*
X122042252Y-109530013D01*
X121774463Y-109351082D01*
X121476912Y-109227832D01*
X121161033Y-109165000D01*
X120838967Y-109165000D01*
X120523088Y-109227832D01*
X120225537Y-109351082D01*
X119957748Y-109530013D01*
X119730013Y-109757748D01*
X119665075Y-109854935D01*
X119635413Y-109844192D01*
X118679605Y-110800000D01*
X118320395Y-110800000D01*
X117364587Y-109844192D01*
X117334925Y-109854935D01*
X117269987Y-109757748D01*
X117176826Y-109664587D01*
X117544192Y-109664587D01*
X118500000Y-110620395D01*
X119455808Y-109664587D01*
X119360044Y-109400186D01*
X119070429Y-109259296D01*
X118758892Y-109177616D01*
X118437405Y-109158282D01*
X118118325Y-109202039D01*
X117813912Y-109307205D01*
X117639956Y-109400186D01*
X117544192Y-109664587D01*
X117176826Y-109664587D01*
X117042252Y-109530013D01*
X116774463Y-109351082D01*
X116476912Y-109227832D01*
X116161033Y-109165000D01*
X115838967Y-109165000D01*
X115523088Y-109227832D01*
X115225537Y-109351082D01*
X114957748Y-109530013D01*
X114730013Y-109757748D01*
X114551082Y-110025537D01*
X114427832Y-110323088D01*
X114365000Y-110638967D01*
X104327000Y-110638967D01*
X104327000Y-99829117D01*
X105765000Y-99829117D01*
X105765000Y-100170883D01*
X105831675Y-100506081D01*
X105962463Y-100821831D01*
X106152337Y-101105998D01*
X106394002Y-101347663D01*
X106678169Y-101537537D01*
X106993919Y-101668325D01*
X107329117Y-101735000D01*
X107670883Y-101735000D01*
X108006081Y-101668325D01*
X108321831Y-101537537D01*
X108605998Y-101347663D01*
X108847663Y-101105998D01*
X109037537Y-100821831D01*
X109168325Y-100506081D01*
X109235000Y-100170883D01*
X109235000Y-99829117D01*
X109168325Y-99493919D01*
X109037537Y-99178169D01*
X108847663Y-98894002D01*
X108605998Y-98652337D01*
X108321831Y-98462463D01*
X108006081Y-98331675D01*
X107670883Y-98265000D01*
X107329117Y-98265000D01*
X106993919Y-98331675D01*
X106678169Y-98462463D01*
X106394002Y-98652337D01*
X106152337Y-98894002D01*
X105962463Y-99178169D01*
X105831675Y-99493919D01*
X105765000Y-99829117D01*
X104327000Y-99829117D01*
X104327000Y-96627000D01*
X131073000Y-96627000D01*
X131073000Y-102500000D01*
G37*
%TD.AperFunction*%
D26*
X171346525Y-99446632D02*
X171553368Y-99653475D01*
X171740001Y-99778179D01*
X171740000Y-104385198D01*
X169767293Y-106357905D01*
X169768072Y-106350000D01*
X169768072Y-104650000D01*
X169755812Y-104525518D01*
X169719502Y-104405820D01*
X169660537Y-104295506D01*
X169581185Y-104198815D01*
X169484494Y-104119463D01*
X169374180Y-104060498D01*
X169254482Y-104024188D01*
X169130000Y-104011928D01*
X167430000Y-104011928D01*
X167305518Y-104024188D01*
X167185820Y-104060498D01*
X167075506Y-104119463D01*
X166978815Y-104198815D01*
X166899463Y-104295506D01*
X166840498Y-104405820D01*
X166818487Y-104478380D01*
X166686632Y-104346525D01*
X166443411Y-104184010D01*
X166173158Y-104072068D01*
X165886260Y-104015000D01*
X165593740Y-104015000D01*
X165306842Y-104072068D01*
X165036589Y-104184010D01*
X164793368Y-104346525D01*
X164586525Y-104553368D01*
X164464805Y-104735534D01*
X164395178Y-104618645D01*
X164200269Y-104402412D01*
X163966920Y-104228359D01*
X163704099Y-104103175D01*
X163556890Y-104058524D01*
X163327000Y-104179845D01*
X163327000Y-105373000D01*
X163347000Y-105373000D01*
X163347000Y-105627000D01*
X163327000Y-105627000D01*
X163327000Y-106820155D01*
X163556890Y-106941476D01*
X163704099Y-106896825D01*
X163966920Y-106771641D01*
X164200269Y-106597588D01*
X164395178Y-106381355D01*
X164464805Y-106264466D01*
X164586525Y-106446632D01*
X164793368Y-106653475D01*
X165036589Y-106815990D01*
X165306842Y-106927932D01*
X165593740Y-106985000D01*
X165886260Y-106985000D01*
X166173158Y-106927932D01*
X166443411Y-106815990D01*
X166686632Y-106653475D01*
X166818487Y-106521620D01*
X166840498Y-106594180D01*
X166899463Y-106704494D01*
X166978815Y-106801185D01*
X167075506Y-106880537D01*
X167185820Y-106939502D01*
X167305518Y-106975812D01*
X167430000Y-106988072D01*
X169130000Y-106988072D01*
X169137905Y-106987293D01*
X167885199Y-108240000D01*
X158707538Y-108240000D01*
X158735000Y-108101939D01*
X158735000Y-108039801D01*
X159958161Y-106816641D01*
X160226842Y-106927932D01*
X160513740Y-106985000D01*
X160806260Y-106985000D01*
X161093158Y-106927932D01*
X161363411Y-106815990D01*
X161606632Y-106653475D01*
X161813475Y-106446632D01*
X161935195Y-106264466D01*
X162004822Y-106381355D01*
X162199731Y-106597588D01*
X162433080Y-106771641D01*
X162695901Y-106896825D01*
X162843110Y-106941476D01*
X163073000Y-106820155D01*
X163073000Y-105627000D01*
X163053000Y-105627000D01*
X163053000Y-105373000D01*
X163073000Y-105373000D01*
X163073000Y-104179845D01*
X162843110Y-104058524D01*
X162695901Y-104103175D01*
X162433080Y-104228359D01*
X162199731Y-104402412D01*
X162004822Y-104618645D01*
X161935195Y-104735534D01*
X161813475Y-104553368D01*
X161606632Y-104346525D01*
X161363411Y-104184010D01*
X161093158Y-104072068D01*
X160806260Y-104015000D01*
X160513740Y-104015000D01*
X160226842Y-104072068D01*
X159956589Y-104184010D01*
X159713368Y-104346525D01*
X159506525Y-104553368D01*
X159390000Y-104727760D01*
X159273475Y-104553368D01*
X159066632Y-104346525D01*
X158823411Y-104184010D01*
X158553158Y-104072068D01*
X158266260Y-104015000D01*
X157973740Y-104015000D01*
X157686842Y-104072068D01*
X157416589Y-104184010D01*
X157173368Y-104346525D01*
X156966525Y-104553368D01*
X156804010Y-104796589D01*
X156692068Y-105066842D01*
X156635000Y-105353740D01*
X156635000Y-105646260D01*
X156692068Y-105933158D01*
X156804010Y-106203411D01*
X156966525Y-106446632D01*
X157173368Y-106653475D01*
X157416589Y-106815990D01*
X157686842Y-106927932D01*
X157695537Y-106929662D01*
X157660199Y-106965000D01*
X157598061Y-106965000D01*
X157398102Y-107004774D01*
X157209744Y-107082795D01*
X157040226Y-107196063D01*
X156896063Y-107340226D01*
X156782795Y-107509744D01*
X156704774Y-107698102D01*
X156665000Y-107898061D01*
X156665000Y-108101939D01*
X156692462Y-108240000D01*
X153237323Y-108240000D01*
X153202885Y-108236608D01*
X153195226Y-108198102D01*
X153117205Y-108009744D01*
X153003937Y-107840226D01*
X152913711Y-107750000D01*
X153003937Y-107659774D01*
X153117205Y-107490256D01*
X153195226Y-107301898D01*
X153235000Y-107101939D01*
X153235000Y-106898061D01*
X153195226Y-106698102D01*
X153117205Y-106509744D01*
X153003937Y-106340226D01*
X152859774Y-106196063D01*
X152691306Y-106083496D01*
X155014802Y-103760000D01*
X165422678Y-103760000D01*
X165460000Y-103763676D01*
X165497322Y-103760000D01*
X165497333Y-103760000D01*
X165608986Y-103749003D01*
X165752247Y-103705546D01*
X165884276Y-103634974D01*
X166000001Y-103540001D01*
X166023804Y-103510997D01*
X169593592Y-99941210D01*
X169813740Y-99985000D01*
X170106260Y-99985000D01*
X170393158Y-99927932D01*
X170663411Y-99815990D01*
X170906632Y-99653475D01*
X171113475Y-99446632D01*
X171230000Y-99272240D01*
X171346525Y-99446632D01*
%TA.AperFunction,Conductor*%
D27*
G36*
X171346525Y-99446632D02*
G01*
X171553368Y-99653475D01*
X171740001Y-99778179D01*
X171740000Y-104385198D01*
X169767293Y-106357905D01*
X169768072Y-106350000D01*
X169768072Y-104650000D01*
X169755812Y-104525518D01*
X169719502Y-104405820D01*
X169660537Y-104295506D01*
X169581185Y-104198815D01*
X169484494Y-104119463D01*
X169374180Y-104060498D01*
X169254482Y-104024188D01*
X169130000Y-104011928D01*
X167430000Y-104011928D01*
X167305518Y-104024188D01*
X167185820Y-104060498D01*
X167075506Y-104119463D01*
X166978815Y-104198815D01*
X166899463Y-104295506D01*
X166840498Y-104405820D01*
X166818487Y-104478380D01*
X166686632Y-104346525D01*
X166443411Y-104184010D01*
X166173158Y-104072068D01*
X165886260Y-104015000D01*
X165593740Y-104015000D01*
X165306842Y-104072068D01*
X165036589Y-104184010D01*
X164793368Y-104346525D01*
X164586525Y-104553368D01*
X164464805Y-104735534D01*
X164395178Y-104618645D01*
X164200269Y-104402412D01*
X163966920Y-104228359D01*
X163704099Y-104103175D01*
X163556890Y-104058524D01*
X163327000Y-104179845D01*
X163327000Y-105373000D01*
X163347000Y-105373000D01*
X163347000Y-105627000D01*
X163327000Y-105627000D01*
X163327000Y-106820155D01*
X163556890Y-106941476D01*
X163704099Y-106896825D01*
X163966920Y-106771641D01*
X164200269Y-106597588D01*
X164395178Y-106381355D01*
X164464805Y-106264466D01*
X164586525Y-106446632D01*
X164793368Y-106653475D01*
X165036589Y-106815990D01*
X165306842Y-106927932D01*
X165593740Y-106985000D01*
X165886260Y-106985000D01*
X166173158Y-106927932D01*
X166443411Y-106815990D01*
X166686632Y-106653475D01*
X166818487Y-106521620D01*
X166840498Y-106594180D01*
X166899463Y-106704494D01*
X166978815Y-106801185D01*
X167075506Y-106880537D01*
X167185820Y-106939502D01*
X167305518Y-106975812D01*
X167430000Y-106988072D01*
X169130000Y-106988072D01*
X169137905Y-106987293D01*
X167885199Y-108240000D01*
X158707538Y-108240000D01*
X158735000Y-108101939D01*
X158735000Y-108039801D01*
X159958161Y-106816641D01*
X160226842Y-106927932D01*
X160513740Y-106985000D01*
X160806260Y-106985000D01*
X161093158Y-106927932D01*
X161363411Y-106815990D01*
X161606632Y-106653475D01*
X161813475Y-106446632D01*
X161935195Y-106264466D01*
X162004822Y-106381355D01*
X162199731Y-106597588D01*
X162433080Y-106771641D01*
X162695901Y-106896825D01*
X162843110Y-106941476D01*
X163073000Y-106820155D01*
X163073000Y-105627000D01*
X163053000Y-105627000D01*
X163053000Y-105373000D01*
X163073000Y-105373000D01*
X163073000Y-104179845D01*
X162843110Y-104058524D01*
X162695901Y-104103175D01*
X162433080Y-104228359D01*
X162199731Y-104402412D01*
X162004822Y-104618645D01*
X161935195Y-104735534D01*
X161813475Y-104553368D01*
X161606632Y-104346525D01*
X161363411Y-104184010D01*
X161093158Y-104072068D01*
X160806260Y-104015000D01*
X160513740Y-104015000D01*
X160226842Y-104072068D01*
X159956589Y-104184010D01*
X159713368Y-104346525D01*
X159506525Y-104553368D01*
X159390000Y-104727760D01*
X159273475Y-104553368D01*
X159066632Y-104346525D01*
X158823411Y-104184010D01*
X158553158Y-104072068D01*
X158266260Y-104015000D01*
X157973740Y-104015000D01*
X157686842Y-104072068D01*
X157416589Y-104184010D01*
X157173368Y-104346525D01*
X156966525Y-104553368D01*
X156804010Y-104796589D01*
X156692068Y-105066842D01*
X156635000Y-105353740D01*
X156635000Y-105646260D01*
X156692068Y-105933158D01*
X156804010Y-106203411D01*
X156966525Y-106446632D01*
X157173368Y-106653475D01*
X157416589Y-106815990D01*
X157686842Y-106927932D01*
X157695537Y-106929662D01*
X157660199Y-106965000D01*
X157598061Y-106965000D01*
X157398102Y-107004774D01*
X157209744Y-107082795D01*
X157040226Y-107196063D01*
X156896063Y-107340226D01*
X156782795Y-107509744D01*
X156704774Y-107698102D01*
X156665000Y-107898061D01*
X156665000Y-108101939D01*
X156692462Y-108240000D01*
X153237323Y-108240000D01*
X153202885Y-108236608D01*
X153195226Y-108198102D01*
X153117205Y-108009744D01*
X153003937Y-107840226D01*
X152913711Y-107750000D01*
X153003937Y-107659774D01*
X153117205Y-107490256D01*
X153195226Y-107301898D01*
X153235000Y-107101939D01*
X153235000Y-106898061D01*
X153195226Y-106698102D01*
X153117205Y-106509744D01*
X153003937Y-106340226D01*
X152859774Y-106196063D01*
X152691306Y-106083496D01*
X155014802Y-103760000D01*
X165422678Y-103760000D01*
X165460000Y-103763676D01*
X165497322Y-103760000D01*
X165497333Y-103760000D01*
X165608986Y-103749003D01*
X165752247Y-103705546D01*
X165884276Y-103634974D01*
X166000001Y-103540001D01*
X166023804Y-103510997D01*
X169593592Y-99941210D01*
X169813740Y-99985000D01*
X170106260Y-99985000D01*
X170393158Y-99927932D01*
X170663411Y-99815990D01*
X170906632Y-99653475D01*
X171113475Y-99446632D01*
X171230000Y-99272240D01*
X171346525Y-99446632D01*
G37*
%TD.AperFunction*%
%TD*%
M02*
