%TF.GenerationSoftware,KiCad,Pcbnew,(5.1.8)-1*%
%TF.CreationDate,2021-03-10T15:17:51+00:00*%
%TF.ProjectId,Project_2_smaller,50726f6a-6563-4745-9f32-5f736d616c6c,rev?*%
%TF.SameCoordinates,Original*%
%TF.FileFunction,Legend,Bot*%
%TF.FilePolarity,Positive*%
%FSLAX46Y46*%
G04 Gerber Fmt 4.6, Leading zero omitted, Abs format (unit mm)*
G04 Created by KiCad (PCBNEW (5.1.8)-1) date 2021-03-10 15:17:51*
%MOMM*%
%LPD*%
G01*
G04 APERTURE LIST*
%ADD10C,0.100000*%
%ADD11C,0.120000*%
%ADD12C,0.150000*%
G04 APERTURE END LIST*
D10*
%TO.C,J2*%
X189600000Y-129400000D02*
X189600000Y-129900000D01*
X189600000Y-129400000D02*
X190100000Y-129400000D01*
X189600000Y-138600000D02*
X189600000Y-138100000D01*
X189600000Y-138600000D02*
X190100000Y-138600000D01*
X195200000Y-135200000D02*
X195200000Y-132800000D01*
X204200000Y-138600000D02*
X203700000Y-138600000D01*
X204200000Y-138600000D02*
X204200000Y-138100000D01*
X204200000Y-129400000D02*
X204200000Y-129900000D01*
X204200000Y-129400000D02*
X203700000Y-129400000D01*
X196900000Y-138600000D02*
X197900000Y-138600000D01*
X196900000Y-129400000D02*
X197900000Y-129400000D01*
D11*
%TO.C,J13*%
X163200000Y-104230000D02*
X140340000Y-104230000D01*
X163200000Y-104230000D02*
X186060000Y-104230000D01*
X186060000Y-104230000D02*
X186060000Y-104230000D01*
X140340000Y-104230000D02*
X140340000Y-104230000D01*
X188600000Y-106770000D02*
X188600000Y-120740000D01*
X188600000Y-120740000D02*
X188600000Y-122010000D01*
X137800000Y-106770000D02*
X137800000Y-129630000D01*
X140340000Y-132170000D02*
X186060000Y-132170000D01*
X188600000Y-129630000D02*
X188600000Y-122010000D01*
X137800000Y-129630000D02*
G75*
G03*
X140340000Y-132170000I2540000J0D01*
G01*
X140340000Y-104230000D02*
G75*
G03*
X137800000Y-106770000I0J-2540000D01*
G01*
X186060000Y-132170000D02*
G75*
G03*
X188600000Y-129630000I0J2540000D01*
G01*
X188600000Y-106770000D02*
G75*
G03*
X186060000Y-104230000I-2540000J0D01*
G01*
D10*
%TO.C,BT1*%
X187726800Y-116732400D02*
G75*
G03*
X187726800Y-116732400I-11226800J0D01*
G01*
X180411600Y-106166000D02*
X180411600Y-103422800D01*
X172588400Y-106166000D02*
X172588400Y-103422800D01*
X180411600Y-103422800D02*
X177566800Y-103422800D01*
X172588400Y-103422800D02*
X175433200Y-103422800D01*
%TO.C,S1*%
X124875000Y-125125000D02*
X124875000Y-124625000D01*
X124175000Y-125125000D02*
X124875000Y-125125000D01*
X124875000Y-111475000D02*
X124075000Y-111475000D01*
X124875000Y-112050000D02*
X124875000Y-111475000D01*
X112125000Y-125125000D02*
X112125000Y-124450000D01*
X112975000Y-125125000D02*
X112125000Y-125125000D01*
X112125000Y-111475000D02*
X112125000Y-112150000D01*
X113075000Y-111475000D02*
X112125000Y-111475000D01*
D11*
%TO.C,U2*%
X179510000Y-136880000D02*
X182050000Y-136880000D01*
X179510000Y-134340000D02*
X182050000Y-134340000D01*
X179510000Y-131800000D02*
X182050000Y-131800000D01*
X163620000Y-139460000D02*
X179510000Y-139460000D01*
X163620000Y-129220000D02*
X179510000Y-129220000D01*
X163620000Y-129220000D02*
X163620000Y-139460000D01*
X179510000Y-129220000D02*
X179510000Y-139460000D01*
%TO.C,J2*%
D12*
X206047619Y-134333333D02*
X205333333Y-134333333D01*
X205190476Y-134380952D01*
X205095238Y-134476190D01*
X205047619Y-134619047D01*
X205047619Y-134714285D01*
X205952380Y-133904761D02*
X206000000Y-133857142D01*
X206047619Y-133761904D01*
X206047619Y-133523809D01*
X206000000Y-133428571D01*
X205952380Y-133380952D01*
X205857142Y-133333333D01*
X205761904Y-133333333D01*
X205619047Y-133380952D01*
X205047619Y-133952380D01*
X205047619Y-133333333D01*
%TO.C,J13*%
X170502380Y-104690476D02*
X171216666Y-104690476D01*
X171359523Y-104642857D01*
X171454761Y-104547619D01*
X171502380Y-104404761D01*
X171502380Y-104309523D01*
X171502380Y-105690476D02*
X171502380Y-105119047D01*
X171502380Y-105404761D02*
X170502380Y-105404761D01*
X170645238Y-105309523D01*
X170740476Y-105214285D01*
X170788095Y-105119047D01*
X170502380Y-106023809D02*
X170502380Y-106642857D01*
X170883333Y-106309523D01*
X170883333Y-106452380D01*
X170930952Y-106547619D01*
X170978571Y-106595238D01*
X171073809Y-106642857D01*
X171311904Y-106642857D01*
X171407142Y-106595238D01*
X171454761Y-106547619D01*
X171502380Y-106452380D01*
X171502380Y-106166666D01*
X171454761Y-106071428D01*
X171407142Y-106023809D01*
%TO.C,BT1*%
X188734871Y-115885725D02*
X188782490Y-116028582D01*
X188830109Y-116076201D01*
X188925347Y-116123820D01*
X189068204Y-116123820D01*
X189163442Y-116076201D01*
X189211061Y-116028582D01*
X189258680Y-115933344D01*
X189258680Y-115552392D01*
X188258680Y-115552392D01*
X188258680Y-115885725D01*
X188306300Y-115980963D01*
X188353919Y-116028582D01*
X188449157Y-116076201D01*
X188544395Y-116076201D01*
X188639633Y-116028582D01*
X188687252Y-115980963D01*
X188734871Y-115885725D01*
X188734871Y-115552392D01*
X188258680Y-116409535D02*
X188258680Y-116980963D01*
X189258680Y-116695249D02*
X188258680Y-116695249D01*
X189258680Y-117838106D02*
X189258680Y-117266678D01*
X189258680Y-117552392D02*
X188258680Y-117552392D01*
X188401538Y-117457154D01*
X188496776Y-117361916D01*
X188544395Y-117266678D01*
%TO.C,S1*%
X118836904Y-128104761D02*
X118694047Y-128152380D01*
X118455952Y-128152380D01*
X118360714Y-128104761D01*
X118313095Y-128057142D01*
X118265476Y-127961904D01*
X118265476Y-127866666D01*
X118313095Y-127771428D01*
X118360714Y-127723809D01*
X118455952Y-127676190D01*
X118646428Y-127628571D01*
X118741666Y-127580952D01*
X118789285Y-127533333D01*
X118836904Y-127438095D01*
X118836904Y-127342857D01*
X118789285Y-127247619D01*
X118741666Y-127200000D01*
X118646428Y-127152380D01*
X118408333Y-127152380D01*
X118265476Y-127200000D01*
X117313095Y-128152380D02*
X117884523Y-128152380D01*
X117598809Y-128152380D02*
X117598809Y-127152380D01*
X117694047Y-127295238D01*
X117789285Y-127390476D01*
X117884523Y-127438095D01*
%TO.C,U2*%
X162072380Y-133578095D02*
X162881904Y-133578095D01*
X162977142Y-133625714D01*
X163024761Y-133673333D01*
X163072380Y-133768571D01*
X163072380Y-133959047D01*
X163024761Y-134054285D01*
X162977142Y-134101904D01*
X162881904Y-134149523D01*
X162072380Y-134149523D01*
X162167619Y-134578095D02*
X162120000Y-134625714D01*
X162072380Y-134720952D01*
X162072380Y-134959047D01*
X162120000Y-135054285D01*
X162167619Y-135101904D01*
X162262857Y-135149523D01*
X162358095Y-135149523D01*
X162500952Y-135101904D01*
X163072380Y-134530476D01*
X163072380Y-135149523D01*
%TD*%
M02*
