M48
; DRILL file {KiCad (5.1.8)-1} date 12/09/20 14:15:43
; FORMAT={-:-/ absolute / inch / decimal}
; #@! TF.CreationDate,2020-12-09T14:15:43+00:00
; #@! TF.GenerationSoftware,Kicad,Pcbnew,(5.1.8)-1
; #@! TF.FileFunction,Plated,1,4,PTH
FMAT,2
INCH
T1C0.0157
T2C0.0197
T3C0.0217
T4C0.0236
T5C0.0315
T6C0.0394
T7C0.0433
T8C0.0461
T9C0.0591
T10C0.0709
%
G90
G05
T1
X3.8976Y-3.1693
X3.9173Y-3.9173
X3.9764Y-3.9173
X3.9961Y-2.8937
X4.0472Y-2.9803
X4.1024Y-2.9764
X4.1457Y-4.1654
X4.1732Y-2.4409
X4.2126Y-1.2402
X4.2126Y-4.0945
X4.2362Y-1.878
X4.311Y-2.874
X4.3307Y-2.7677
X4.3307Y-3.4646
X4.3504Y-3.6024
X4.3504Y-3.6516
X4.3504Y-3.7008
X4.4031Y-2.8808
X4.4094Y-4.1339
X4.44Y-3.6516
X4.4409Y-3.9764
X4.5079Y-3.8386
X4.5276Y-2.7559
X4.6457Y-2.3031
X4.6654Y-3.5728
X4.7047Y-2.0079
X4.7165Y-3.7598
X4.7638Y-1.5551
X4.7717Y-3.252
X4.8189Y-3.1181
X4.8937Y-4.0157
X4.8976Y-3.4409
X4.944Y-3.5245
X5.0787Y-3.4252
X5.0787Y-3.622
X6.1096Y-4.0286
X6.148Y-4.0158
X6.1481Y-3.9763
X6.207Y-4.255
X6.2205Y-4.1732
X6.2697Y-4.2028
X6.378Y-4.124
X6.378Y-4.124
X6.5856Y-4.0748
T4
X4.3563Y-1.7972
X4.378Y-2.9161
X4.4193Y-3.1988
X4.5Y-1.937
X4.5039Y-3.626
X4.5866Y-1.7323
X4.5866Y-1.9094
X4.6187Y-2.0939
X4.6654Y-1.8307
X6.0984Y-2.1457
X6.1181Y-1.9843
X6.1417Y-1.4016
X6.1417Y-1.811
X6.1614Y-1.6732
X6.1693Y-1.5433
T5
X6.8583Y-2.3346
X7.3583Y-2.3346
X6.8583Y-1.3898
X7.3583Y-1.3898
X6.8583Y-1.626
X7.3583Y-1.626
X6.8583Y-2.5709
X7.3583Y-2.5709
X6.8583Y-1.8622
X7.3583Y-1.8622
X6.8583Y-2.0984
X7.3583Y-2.0984
T6
X3.95Y-2.5
X4.05Y-2.5
X3.9551Y-2.1949
X4.0551Y-2.1949
X3.9551Y-1.8898
X4.0551Y-1.8898
X4.7772Y-1.8976
X4.8772Y-1.8976
X4.9772Y-1.8976
X5.0772Y-1.8976
X5.1772Y-1.8976
X3.9551Y-1.7323
X4.0551Y-1.7323
X5.3331Y-3.9323
X5.3331Y-4.0323
X5.3331Y-4.1323
X5.3331Y-4.2323
X5.4331Y-3.9323
X5.4331Y-4.0323
X5.4331Y-4.1323
X5.4331Y-4.2323
X4.7165Y-3.6614
X4.7165Y-4.2323
X4.815Y-4.2323
X4.9134Y-3.6614
X4.9134Y-4.2323
X5.748Y-1.3386
X5.748Y-1.4386
X5.748Y-1.5386
X5.748Y-1.6386
X5.748Y-1.7386
X5.748Y-1.8386
X5.748Y-1.9386
X5.748Y-2.0386
X5.748Y-3.937
X5.748Y-4.037
X5.748Y-4.137
X5.748Y-4.237
X5.848Y-3.937
X5.848Y-4.037
X5.848Y-4.137
X5.848Y-4.237
X3.9551Y-2.6575
X4.0551Y-2.6575
X3.9551Y-2.3425
X4.0551Y-2.3425
X5.4331Y-1.3472
X5.4331Y-1.4472
X5.4331Y-1.5472
X5.4331Y-1.6472
X5.4331Y-1.7472
X5.4331Y-1.8472
X5.4331Y-1.9472
X5.4331Y-2.0472
X3.9551Y-2.0472
X4.0551Y-2.0472
T7
X4.25Y-1.45
X4.25Y-1.55
X4.25Y-1.65
T8
X5.0984Y-2.2835
T9
X5.0984Y-3.0709
T2
G00X6.6289Y-3.9567
M15
G01X6.6545Y-3.9567
M16
G05
G00X6.6289Y-4.2323
M15
G01X6.6545Y-4.2323
M16
G05
T3
G00X6.5354Y-4.002
M15
G01X6.5354Y-3.9902
M16
G05
G00X6.5354Y-4.1988
M15
G01X6.5354Y-4.187
M16
G05
T6
G00X3.8319Y-1.4469
M15
G01X3.8319Y-1.3484
M16
G05
G00X3.9008Y-1.5827
M15
G01X3.9992Y-1.5827
M16
G05
G00X4.0681Y-1.4469
M15
G01X4.0681Y-1.3484
M16
G05
T10
G00X4.5906Y-3.9528
M15
G01X4.5906Y-3.9213
M16
G05
G00X5.0394Y-3.9528
M15
G01X5.0394Y-3.9213
M16
G05
T0
M30
