%TF.GenerationSoftware,KiCad,Pcbnew,(5.1.8)-1*%
%TF.CreationDate,2021-03-10T16:05:31+00:00*%
%TF.ProjectId,Project_2_smaller,50726f6a-6563-4745-9f32-5f736d616c6c,rev?*%
%TF.SameCoordinates,Original*%
%TF.FileFunction,Legend,Top*%
%TF.FilePolarity,Positive*%
%FSLAX46Y46*%
G04 Gerber Fmt 4.6, Leading zero omitted, Abs format (unit mm)*
G04 Created by KiCad (PCBNEW (5.1.8)-1) date 2021-03-10 16:05:31*
%MOMM*%
%LPD*%
G01*
G04 APERTURE LIST*
%ADD10C,0.100000*%
%ADD11C,0.200000*%
%ADD12C,0.240000*%
%ADD13C,0.120000*%
%ADD14C,0.150000*%
%ADD15C,0.015000*%
G04 APERTURE END LIST*
D10*
%TO.C,J1*%
X94400000Y-104400000D02*
X94250000Y-104400000D01*
X94400000Y-104100000D02*
X94400000Y-104400000D01*
X94700000Y-103750000D02*
X94400000Y-104100000D01*
X95150000Y-103750000D02*
X94700000Y-103750000D01*
X102600000Y-103750000D02*
X102600000Y-104450000D01*
X102100000Y-103750000D02*
X102600000Y-103750000D01*
X102600000Y-109450000D02*
X102200000Y-109450000D01*
X102600000Y-108850000D02*
X102600000Y-109450000D01*
X94400000Y-109450000D02*
X95050000Y-109450000D01*
X94400000Y-108900000D02*
X94400000Y-109450000D01*
D11*
%TO.C,J3*%
X127450000Y-109480000D02*
X140700000Y-109480000D01*
X127450000Y-109480000D02*
X127450000Y-106700000D01*
X127450000Y-103500000D02*
X127450000Y-97700000D01*
X137700000Y-94730000D02*
X142200000Y-94730000D01*
X142500000Y-103500000D02*
X142500000Y-97700000D01*
D12*
X137820000Y-93000000D02*
G75*
G03*
X137820000Y-93000000I-120000J0D01*
G01*
D11*
X140700000Y-109480000D02*
X140700000Y-109730000D01*
X140700000Y-109730000D02*
X141800000Y-109730000D01*
X141800000Y-109730000D02*
X141800000Y-109480000D01*
X141800000Y-109480000D02*
X142500000Y-109480000D01*
X142500000Y-109480000D02*
X142500000Y-106700000D01*
D13*
%TO.C,R7*%
X114522500Y-98837258D02*
X114522500Y-98362742D01*
X113477500Y-98837258D02*
X113477500Y-98362742D01*
%TO.C,C1*%
X116660000Y-72622835D02*
X116660000Y-72407163D01*
X115940000Y-72622835D02*
X115940000Y-72407163D01*
%TO.C,C2*%
X117635001Y-72622835D02*
X117635001Y-72407163D01*
X116915001Y-72622835D02*
X116915001Y-72407163D01*
%TO.C,C3*%
X115660000Y-75807836D02*
X115660000Y-75592164D01*
X114940000Y-75807836D02*
X114940000Y-75592164D01*
%TO.C,C4*%
X113660000Y-107192164D02*
X113660000Y-107407836D01*
X112940000Y-107192164D02*
X112940000Y-107407836D01*
%TO.C,C5*%
X155692164Y-89640000D02*
X155907836Y-89640000D01*
X155692164Y-90360000D02*
X155907836Y-90360000D01*
%TO.C,C6*%
X111940000Y-107192164D02*
X111940000Y-107407836D01*
X112660000Y-107192164D02*
X112660000Y-107407836D01*
%TO.C,C7*%
X155692164Y-91360000D02*
X155907836Y-91360000D01*
X155692164Y-90640000D02*
X155907836Y-90640000D01*
%TO.C,C8*%
X168840000Y-102592164D02*
X168840000Y-102807836D01*
X169560000Y-102592164D02*
X169560000Y-102807836D01*
%TO.C,C9*%
X167840000Y-102592164D02*
X167840000Y-102807836D01*
X168560000Y-102592164D02*
X168560000Y-102807836D01*
%TO.C,C10*%
X169560000Y-105007836D02*
X169560000Y-104792164D01*
X168840000Y-105007836D02*
X168840000Y-104792164D01*
%TO.C,C11*%
X167840000Y-105007836D02*
X167840000Y-104792164D01*
X168560000Y-105007836D02*
X168560000Y-104792164D01*
%TO.C,C12*%
X139540000Y-92307836D02*
X139540000Y-92092164D01*
X140260000Y-92307836D02*
X140260000Y-92092164D01*
%TO.C,C13*%
X139245001Y-92307836D02*
X139245001Y-92092164D01*
X138525001Y-92307836D02*
X138525001Y-92092164D01*
%TO.C,C14*%
X155507836Y-106160000D02*
X155292164Y-106160000D01*
X155507836Y-105440000D02*
X155292164Y-105440000D01*
%TO.C,C15*%
X155507836Y-106440000D02*
X155292164Y-106440000D01*
X155507836Y-107160000D02*
X155292164Y-107160000D01*
%TO.C,C16*%
X105440000Y-79307836D02*
X105440000Y-79092164D01*
X106160000Y-79307836D02*
X106160000Y-79092164D01*
%TO.C,C17*%
X106440000Y-78092164D02*
X106440000Y-78307836D01*
X107160000Y-78092164D02*
X107160000Y-78307836D01*
%TO.C,C18*%
X103892164Y-91640000D02*
X104107836Y-91640000D01*
X103892164Y-92360000D02*
X104107836Y-92360000D01*
%TO.C,D1*%
X169760000Y-87580000D02*
X168300000Y-87580000D01*
X169760000Y-84420000D02*
X167600000Y-84420000D01*
X169760000Y-84420000D02*
X169760000Y-85350000D01*
X169760000Y-87580000D02*
X169760000Y-86650000D01*
%TO.C,D2*%
X177480000Y-67840000D02*
X176550000Y-67840000D01*
X174320000Y-67840000D02*
X175250000Y-67840000D01*
X174320000Y-67840000D02*
X174320000Y-70000000D01*
X177480000Y-67840000D02*
X177480000Y-69300000D01*
%TO.C,J5*%
X147890000Y-66670000D02*
X147890000Y-69330000D01*
X165730000Y-66670000D02*
X147890000Y-66670000D01*
X165730000Y-69330000D02*
X147890000Y-69330000D01*
X165730000Y-66670000D02*
X165730000Y-69330000D01*
X167000000Y-66670000D02*
X168330000Y-66670000D01*
X168330000Y-66670000D02*
X168330000Y-68000000D01*
%TO.C,J6*%
X173430000Y-94870000D02*
X173430000Y-97530000D01*
X176030000Y-94870000D02*
X173430000Y-94870000D01*
X176030000Y-97530000D02*
X173430000Y-97530000D01*
X176030000Y-94870000D02*
X176030000Y-97530000D01*
X177300000Y-94870000D02*
X178630000Y-94870000D01*
X178630000Y-94870000D02*
X178630000Y-96200000D01*
%TO.C,J7*%
X173430000Y-90070000D02*
X173430000Y-92730000D01*
X176030000Y-90070000D02*
X173430000Y-90070000D01*
X176030000Y-92730000D02*
X173430000Y-92730000D01*
X176030000Y-90070000D02*
X176030000Y-92730000D01*
X177300000Y-90070000D02*
X178630000Y-90070000D01*
X178630000Y-90070000D02*
X178630000Y-91400000D01*
%TO.C,J8*%
X178630000Y-86270000D02*
X178630000Y-87600000D01*
X177300000Y-86270000D02*
X178630000Y-86270000D01*
X176030000Y-86270000D02*
X176030000Y-88930000D01*
X176030000Y-88930000D02*
X173430000Y-88930000D01*
X176030000Y-86270000D02*
X173430000Y-86270000D01*
X173430000Y-86270000D02*
X173430000Y-88930000D01*
%TO.C,J9*%
X173430000Y-82470000D02*
X173430000Y-85130000D01*
X176030000Y-82470000D02*
X173430000Y-82470000D01*
X176030000Y-85130000D02*
X173430000Y-85130000D01*
X176030000Y-82470000D02*
X176030000Y-85130000D01*
X177300000Y-82470000D02*
X178630000Y-82470000D01*
X178630000Y-82470000D02*
X178630000Y-83800000D01*
%TO.C,J10*%
X173430000Y-78670000D02*
X173430000Y-81330000D01*
X176030000Y-78670000D02*
X173430000Y-78670000D01*
X176030000Y-81330000D02*
X173430000Y-81330000D01*
X176030000Y-78670000D02*
X176030000Y-81330000D01*
X177300000Y-78670000D02*
X178630000Y-78670000D01*
X178630000Y-78670000D02*
X178630000Y-80000000D01*
%TO.C,J11*%
X178630000Y-74870000D02*
X178630000Y-76200000D01*
X177300000Y-74870000D02*
X178630000Y-74870000D01*
X176030000Y-74870000D02*
X176030000Y-77530000D01*
X176030000Y-77530000D02*
X173430000Y-77530000D01*
X176030000Y-74870000D02*
X173430000Y-74870000D01*
X173430000Y-74870000D02*
X173430000Y-77530000D01*
%TO.C,J12*%
X178630000Y-71170000D02*
X178630000Y-72500000D01*
X177300000Y-71170000D02*
X178630000Y-71170000D01*
X176030000Y-71170000D02*
X176030000Y-73830000D01*
X176030000Y-73830000D02*
X173430000Y-73830000D01*
X176030000Y-71170000D02*
X173430000Y-71170000D01*
X173430000Y-71170000D02*
X173430000Y-73830000D01*
%TO.C,Q1*%
X110240000Y-93020000D02*
X111700000Y-93020000D01*
X110240000Y-96180000D02*
X112400000Y-96180000D01*
X110240000Y-96180000D02*
X110240000Y-95250000D01*
X110240000Y-93020000D02*
X110240000Y-93950000D01*
%TO.C,Q2*%
X115760000Y-96180000D02*
X115760000Y-95250000D01*
X115760000Y-93020000D02*
X115760000Y-93950000D01*
X115760000Y-93020000D02*
X113600000Y-93020000D01*
X115760000Y-96180000D02*
X114300000Y-96180000D01*
%TO.C,R1*%
X116377500Y-75337258D02*
X116377500Y-74862742D01*
X117422500Y-75337258D02*
X117422500Y-74862742D01*
%TO.C,R2*%
X153477500Y-91737258D02*
X153477500Y-91262742D01*
X154522500Y-91737258D02*
X154522500Y-91262742D01*
%TO.C,R3*%
X151477500Y-89262742D02*
X151477500Y-89737258D01*
X152522500Y-89262742D02*
X152522500Y-89737258D01*
%TO.C,R4*%
X148822500Y-79037258D02*
X148822500Y-78562742D01*
X147777500Y-79037258D02*
X147777500Y-78562742D01*
%TO.C,R5*%
X147172500Y-78287258D02*
X147172500Y-77812742D01*
X146127500Y-78287258D02*
X146127500Y-77812742D01*
%TO.C,R6*%
X110977500Y-98837258D02*
X110977500Y-98362742D01*
X112022500Y-98837258D02*
X112022500Y-98362742D01*
%TO.C,R8*%
X97362742Y-84122500D02*
X97837258Y-84122500D01*
X97362742Y-83077500D02*
X97837258Y-83077500D01*
%TO.C,R9*%
X103237258Y-83077500D02*
X102762742Y-83077500D01*
X103237258Y-84122500D02*
X102762742Y-84122500D01*
%TO.C,R10*%
X100122500Y-87837258D02*
X100122500Y-87362742D01*
X99077500Y-87837258D02*
X99077500Y-87362742D01*
%TO.C,R11*%
X101722500Y-87862258D02*
X101722500Y-87387742D01*
X100677500Y-87862258D02*
X100677500Y-87387742D01*
D10*
%TO.C,SW1*%
X111900000Y-72100000D02*
X112500000Y-72100000D01*
X111900000Y-72100000D02*
X111300000Y-72100000D01*
X109500000Y-74500000D02*
X109500000Y-75100000D01*
X109500000Y-74500000D02*
X109500000Y-73900000D01*
X111900000Y-76900000D02*
X112500000Y-76900000D01*
X111900000Y-76900000D02*
X111300000Y-76900000D01*
X114300000Y-74500000D02*
X114300000Y-75100000D01*
X114300000Y-74500000D02*
X114300000Y-73900000D01*
D13*
%TO.C,U1*%
X118580000Y-71655000D02*
X118200000Y-71655000D01*
X118580000Y-65235000D02*
X118580000Y-71655000D01*
X136820000Y-65235000D02*
X136820000Y-71655000D01*
X118580000Y-65235000D02*
X136820000Y-65235000D01*
X136820000Y-90980000D02*
X135820000Y-90980000D01*
X136820000Y-90200000D02*
X136820000Y-90980000D01*
X118580000Y-90980000D02*
X119580000Y-90980000D01*
X118580000Y-90200000D02*
X118580000Y-90980000D01*
%TO.C,U3*%
X163760000Y-83500000D02*
X163760000Y-79640000D01*
X163760000Y-79640000D02*
X163505000Y-79640000D01*
X163760000Y-83500000D02*
X163760000Y-87360000D01*
X163760000Y-87360000D02*
X163505000Y-87360000D01*
X153240000Y-83500000D02*
X153240000Y-79640000D01*
X153240000Y-79640000D02*
X153495000Y-79640000D01*
X153240000Y-83500000D02*
X153240000Y-87360000D01*
X153240000Y-87360000D02*
X153495000Y-87360000D01*
X153495000Y-87360000D02*
X153495000Y-89175000D01*
%TO.C,U4*%
X112865000Y-101490000D02*
X112390000Y-101490000D01*
X116610000Y-105710000D02*
X116610000Y-105235000D01*
X116135000Y-105710000D02*
X116610000Y-105710000D01*
X112390000Y-105710000D02*
X112390000Y-105235000D01*
X112865000Y-105710000D02*
X112390000Y-105710000D01*
X116610000Y-101490000D02*
X116610000Y-101965000D01*
X116135000Y-101490000D02*
X116610000Y-101490000D01*
%TO.C,U5*%
X160210000Y-98690000D02*
X158950000Y-98690000D01*
X153390000Y-98690000D02*
X154650000Y-98690000D01*
X160210000Y-102450000D02*
X160210000Y-98690000D01*
X153390000Y-104700000D02*
X153390000Y-98690000D01*
%TO.C,J1*%
D14*
X102952380Y-104333333D02*
X103666666Y-104333333D01*
X103809523Y-104380952D01*
X103904761Y-104476190D01*
X103952380Y-104619047D01*
X103952380Y-104714285D01*
X103952380Y-103333333D02*
X103952380Y-103904761D01*
X103952380Y-103619047D02*
X102952380Y-103619047D01*
X103095238Y-103714285D01*
X103190476Y-103809523D01*
X103238095Y-103904761D01*
%TO.C,J3*%
D15*
X141166666Y-93452380D02*
X141166666Y-94166666D01*
X141119047Y-94309523D01*
X141023809Y-94404761D01*
X140880952Y-94452380D01*
X140785714Y-94452380D01*
X141547619Y-93452380D02*
X142166666Y-93452380D01*
X141833333Y-93833333D01*
X141976190Y-93833333D01*
X142071428Y-93880952D01*
X142119047Y-93928571D01*
X142166666Y-94023809D01*
X142166666Y-94261904D01*
X142119047Y-94357142D01*
X142071428Y-94404761D01*
X141976190Y-94452380D01*
X141690476Y-94452380D01*
X141595238Y-94404761D01*
X141547619Y-94357142D01*
%TO.C,R7*%
D14*
X115952380Y-98766666D02*
X115476190Y-99100000D01*
X115952380Y-99338095D02*
X114952380Y-99338095D01*
X114952380Y-98957142D01*
X115000000Y-98861904D01*
X115047619Y-98814285D01*
X115142857Y-98766666D01*
X115285714Y-98766666D01*
X115380952Y-98814285D01*
X115428571Y-98861904D01*
X115476190Y-98957142D01*
X115476190Y-99338095D01*
X114952380Y-98433333D02*
X114952380Y-97766666D01*
X115952380Y-98195238D01*
%TO.C,C1*%
X115497142Y-72681665D02*
X115544761Y-72729284D01*
X115592380Y-72872141D01*
X115592380Y-72967379D01*
X115544761Y-73110237D01*
X115449523Y-73205475D01*
X115354285Y-73253094D01*
X115163809Y-73300713D01*
X115020952Y-73300713D01*
X114830476Y-73253094D01*
X114735238Y-73205475D01*
X114640000Y-73110237D01*
X114592380Y-72967379D01*
X114592380Y-72872141D01*
X114640000Y-72729284D01*
X114687619Y-72681665D01*
X115592380Y-71729284D02*
X115592380Y-72300713D01*
X115592380Y-72014999D02*
X114592380Y-72014999D01*
X114735238Y-72110237D01*
X114830476Y-72205475D01*
X114878095Y-72300713D01*
%TO.C,C2*%
X118657142Y-72681665D02*
X118704761Y-72729284D01*
X118752380Y-72872141D01*
X118752380Y-72967379D01*
X118704761Y-73110237D01*
X118609523Y-73205475D01*
X118514285Y-73253094D01*
X118323809Y-73300713D01*
X118180952Y-73300713D01*
X117990476Y-73253094D01*
X117895238Y-73205475D01*
X117800000Y-73110237D01*
X117752380Y-72967379D01*
X117752380Y-72872141D01*
X117800000Y-72729284D01*
X117847619Y-72681665D01*
X117847619Y-72300713D02*
X117800000Y-72253094D01*
X117752380Y-72157856D01*
X117752380Y-71919760D01*
X117800000Y-71824522D01*
X117847619Y-71776903D01*
X117942857Y-71729284D01*
X118038095Y-71729284D01*
X118180952Y-71776903D01*
X118752380Y-72348332D01*
X118752380Y-71729284D01*
%TO.C,C3*%
X115133333Y-77657142D02*
X115085714Y-77704761D01*
X114942857Y-77752380D01*
X114847619Y-77752380D01*
X114704761Y-77704761D01*
X114609523Y-77609523D01*
X114561904Y-77514285D01*
X114514285Y-77323809D01*
X114514285Y-77180952D01*
X114561904Y-76990476D01*
X114609523Y-76895238D01*
X114704761Y-76800000D01*
X114847619Y-76752380D01*
X114942857Y-76752380D01*
X115085714Y-76800000D01*
X115133333Y-76847619D01*
X115466666Y-76752380D02*
X116085714Y-76752380D01*
X115752380Y-77133333D01*
X115895238Y-77133333D01*
X115990476Y-77180952D01*
X116038095Y-77228571D01*
X116085714Y-77323809D01*
X116085714Y-77561904D01*
X116038095Y-77657142D01*
X115990476Y-77704761D01*
X115895238Y-77752380D01*
X115609523Y-77752380D01*
X115514285Y-77704761D01*
X115466666Y-77657142D01*
%TO.C,C4*%
X114817142Y-107466666D02*
X114864761Y-107514285D01*
X114912380Y-107657142D01*
X114912380Y-107752380D01*
X114864761Y-107895238D01*
X114769523Y-107990476D01*
X114674285Y-108038095D01*
X114483809Y-108085714D01*
X114340952Y-108085714D01*
X114150476Y-108038095D01*
X114055238Y-107990476D01*
X113960000Y-107895238D01*
X113912380Y-107752380D01*
X113912380Y-107657142D01*
X113960000Y-107514285D01*
X114007619Y-107466666D01*
X114245714Y-106609523D02*
X114912380Y-106609523D01*
X113864761Y-106847619D02*
X114579047Y-107085714D01*
X114579047Y-106466666D01*
%TO.C,C5*%
X153842857Y-90033333D02*
X153795238Y-89985714D01*
X153747619Y-89842857D01*
X153747619Y-89747619D01*
X153795238Y-89604761D01*
X153890476Y-89509523D01*
X153985714Y-89461904D01*
X154176190Y-89414285D01*
X154319047Y-89414285D01*
X154509523Y-89461904D01*
X154604761Y-89509523D01*
X154700000Y-89604761D01*
X154747619Y-89747619D01*
X154747619Y-89842857D01*
X154700000Y-89985714D01*
X154652380Y-90033333D01*
X154747619Y-90938095D02*
X154747619Y-90461904D01*
X154271428Y-90414285D01*
X154319047Y-90461904D01*
X154366666Y-90557142D01*
X154366666Y-90795238D01*
X154319047Y-90890476D01*
X154271428Y-90938095D01*
X154176190Y-90985714D01*
X153938095Y-90985714D01*
X153842857Y-90938095D01*
X153795238Y-90890476D01*
X153747619Y-90795238D01*
X153747619Y-90557142D01*
X153795238Y-90461904D01*
X153842857Y-90414285D01*
%TO.C,C6*%
X111657142Y-107466666D02*
X111704761Y-107514285D01*
X111752380Y-107657142D01*
X111752380Y-107752380D01*
X111704761Y-107895238D01*
X111609523Y-107990476D01*
X111514285Y-108038095D01*
X111323809Y-108085714D01*
X111180952Y-108085714D01*
X110990476Y-108038095D01*
X110895238Y-107990476D01*
X110800000Y-107895238D01*
X110752380Y-107752380D01*
X110752380Y-107657142D01*
X110800000Y-107514285D01*
X110847619Y-107466666D01*
X110752380Y-106609523D02*
X110752380Y-106800000D01*
X110800000Y-106895238D01*
X110847619Y-106942857D01*
X110990476Y-107038095D01*
X111180952Y-107085714D01*
X111561904Y-107085714D01*
X111657142Y-107038095D01*
X111704761Y-106990476D01*
X111752380Y-106895238D01*
X111752380Y-106704761D01*
X111704761Y-106609523D01*
X111657142Y-106561904D01*
X111561904Y-106514285D01*
X111323809Y-106514285D01*
X111228571Y-106561904D01*
X111180952Y-106609523D01*
X111133333Y-106704761D01*
X111133333Y-106895238D01*
X111180952Y-106990476D01*
X111228571Y-107038095D01*
X111323809Y-107085714D01*
%TO.C,C7*%
X157242857Y-91033333D02*
X157195238Y-90985714D01*
X157147619Y-90842857D01*
X157147619Y-90747619D01*
X157195238Y-90604761D01*
X157290476Y-90509523D01*
X157385714Y-90461904D01*
X157576190Y-90414285D01*
X157719047Y-90414285D01*
X157909523Y-90461904D01*
X158004761Y-90509523D01*
X158100000Y-90604761D01*
X158147619Y-90747619D01*
X158147619Y-90842857D01*
X158100000Y-90985714D01*
X158052380Y-91033333D01*
X158147619Y-91366666D02*
X158147619Y-92033333D01*
X157147619Y-91604761D01*
%TO.C,C8*%
X170717142Y-102866666D02*
X170764761Y-102914285D01*
X170812380Y-103057142D01*
X170812380Y-103152380D01*
X170764761Y-103295238D01*
X170669523Y-103390476D01*
X170574285Y-103438095D01*
X170383809Y-103485714D01*
X170240952Y-103485714D01*
X170050476Y-103438095D01*
X169955238Y-103390476D01*
X169860000Y-103295238D01*
X169812380Y-103152380D01*
X169812380Y-103057142D01*
X169860000Y-102914285D01*
X169907619Y-102866666D01*
X170240952Y-102295238D02*
X170193333Y-102390476D01*
X170145714Y-102438095D01*
X170050476Y-102485714D01*
X170002857Y-102485714D01*
X169907619Y-102438095D01*
X169860000Y-102390476D01*
X169812380Y-102295238D01*
X169812380Y-102104761D01*
X169860000Y-102009523D01*
X169907619Y-101961904D01*
X170002857Y-101914285D01*
X170050476Y-101914285D01*
X170145714Y-101961904D01*
X170193333Y-102009523D01*
X170240952Y-102104761D01*
X170240952Y-102295238D01*
X170288571Y-102390476D01*
X170336190Y-102438095D01*
X170431428Y-102485714D01*
X170621904Y-102485714D01*
X170717142Y-102438095D01*
X170764761Y-102390476D01*
X170812380Y-102295238D01*
X170812380Y-102104761D01*
X170764761Y-102009523D01*
X170717142Y-101961904D01*
X170621904Y-101914285D01*
X170431428Y-101914285D01*
X170336190Y-101961904D01*
X170288571Y-102009523D01*
X170240952Y-102104761D01*
%TO.C,C9*%
X167557142Y-102866666D02*
X167604761Y-102914285D01*
X167652380Y-103057142D01*
X167652380Y-103152380D01*
X167604761Y-103295238D01*
X167509523Y-103390476D01*
X167414285Y-103438095D01*
X167223809Y-103485714D01*
X167080952Y-103485714D01*
X166890476Y-103438095D01*
X166795238Y-103390476D01*
X166700000Y-103295238D01*
X166652380Y-103152380D01*
X166652380Y-103057142D01*
X166700000Y-102914285D01*
X166747619Y-102866666D01*
X167652380Y-102390476D02*
X167652380Y-102200000D01*
X167604761Y-102104761D01*
X167557142Y-102057142D01*
X167414285Y-101961904D01*
X167223809Y-101914285D01*
X166842857Y-101914285D01*
X166747619Y-101961904D01*
X166700000Y-102009523D01*
X166652380Y-102104761D01*
X166652380Y-102295238D01*
X166700000Y-102390476D01*
X166747619Y-102438095D01*
X166842857Y-102485714D01*
X167080952Y-102485714D01*
X167176190Y-102438095D01*
X167223809Y-102390476D01*
X167271428Y-102295238D01*
X167271428Y-102104761D01*
X167223809Y-102009523D01*
X167176190Y-101961904D01*
X167080952Y-101914285D01*
%TO.C,C10*%
X170757142Y-105742857D02*
X170804761Y-105790476D01*
X170852380Y-105933333D01*
X170852380Y-106028571D01*
X170804761Y-106171428D01*
X170709523Y-106266666D01*
X170614285Y-106314285D01*
X170423809Y-106361904D01*
X170280952Y-106361904D01*
X170090476Y-106314285D01*
X169995238Y-106266666D01*
X169900000Y-106171428D01*
X169852380Y-106028571D01*
X169852380Y-105933333D01*
X169900000Y-105790476D01*
X169947619Y-105742857D01*
X170852380Y-104790476D02*
X170852380Y-105361904D01*
X170852380Y-105076190D02*
X169852380Y-105076190D01*
X169995238Y-105171428D01*
X170090476Y-105266666D01*
X170138095Y-105361904D01*
X169852380Y-104171428D02*
X169852380Y-104076190D01*
X169900000Y-103980952D01*
X169947619Y-103933333D01*
X170042857Y-103885714D01*
X170233333Y-103838095D01*
X170471428Y-103838095D01*
X170661904Y-103885714D01*
X170757142Y-103933333D01*
X170804761Y-103980952D01*
X170852380Y-104076190D01*
X170852380Y-104171428D01*
X170804761Y-104266666D01*
X170757142Y-104314285D01*
X170661904Y-104361904D01*
X170471428Y-104409523D01*
X170233333Y-104409523D01*
X170042857Y-104361904D01*
X169947619Y-104314285D01*
X169900000Y-104266666D01*
X169852380Y-104171428D01*
%TO.C,C11*%
X167397142Y-105542857D02*
X167444761Y-105590476D01*
X167492380Y-105733333D01*
X167492380Y-105828571D01*
X167444761Y-105971428D01*
X167349523Y-106066666D01*
X167254285Y-106114285D01*
X167063809Y-106161904D01*
X166920952Y-106161904D01*
X166730476Y-106114285D01*
X166635238Y-106066666D01*
X166540000Y-105971428D01*
X166492380Y-105828571D01*
X166492380Y-105733333D01*
X166540000Y-105590476D01*
X166587619Y-105542857D01*
X167492380Y-104590476D02*
X167492380Y-105161904D01*
X167492380Y-104876190D02*
X166492380Y-104876190D01*
X166635238Y-104971428D01*
X166730476Y-105066666D01*
X166778095Y-105161904D01*
X167492380Y-103638095D02*
X167492380Y-104209523D01*
X167492380Y-103923809D02*
X166492380Y-103923809D01*
X166635238Y-104019047D01*
X166730476Y-104114285D01*
X166778095Y-104209523D01*
%TO.C,C12*%
X141457142Y-92842857D02*
X141504761Y-92890476D01*
X141552380Y-93033333D01*
X141552380Y-93128571D01*
X141504761Y-93271428D01*
X141409523Y-93366666D01*
X141314285Y-93414285D01*
X141123809Y-93461904D01*
X140980952Y-93461904D01*
X140790476Y-93414285D01*
X140695238Y-93366666D01*
X140600000Y-93271428D01*
X140552380Y-93128571D01*
X140552380Y-93033333D01*
X140600000Y-92890476D01*
X140647619Y-92842857D01*
X141552380Y-91890476D02*
X141552380Y-92461904D01*
X141552380Y-92176190D02*
X140552380Y-92176190D01*
X140695238Y-92271428D01*
X140790476Y-92366666D01*
X140838095Y-92461904D01*
X140647619Y-91509523D02*
X140600000Y-91461904D01*
X140552380Y-91366666D01*
X140552380Y-91128571D01*
X140600000Y-91033333D01*
X140647619Y-90985714D01*
X140742857Y-90938095D01*
X140838095Y-90938095D01*
X140980952Y-90985714D01*
X141552380Y-91557142D01*
X141552380Y-90938095D01*
%TO.C,C13*%
X138082143Y-92842857D02*
X138129762Y-92890476D01*
X138177381Y-93033333D01*
X138177381Y-93128571D01*
X138129762Y-93271428D01*
X138034524Y-93366666D01*
X137939286Y-93414285D01*
X137748810Y-93461904D01*
X137605953Y-93461904D01*
X137415477Y-93414285D01*
X137320239Y-93366666D01*
X137225001Y-93271428D01*
X137177381Y-93128571D01*
X137177381Y-93033333D01*
X137225001Y-92890476D01*
X137272620Y-92842857D01*
X138177381Y-91890476D02*
X138177381Y-92461904D01*
X138177381Y-92176190D02*
X137177381Y-92176190D01*
X137320239Y-92271428D01*
X137415477Y-92366666D01*
X137463096Y-92461904D01*
X137177381Y-91557142D02*
X137177381Y-90938095D01*
X137558334Y-91271428D01*
X137558334Y-91128571D01*
X137605953Y-91033333D01*
X137653572Y-90985714D01*
X137748810Y-90938095D01*
X137986905Y-90938095D01*
X138082143Y-90985714D01*
X138129762Y-91033333D01*
X138177381Y-91128571D01*
X138177381Y-91414285D01*
X138129762Y-91509523D01*
X138082143Y-91557142D01*
%TO.C,C14*%
X157157142Y-106842857D02*
X157204761Y-106890476D01*
X157252380Y-107033333D01*
X157252380Y-107128571D01*
X157204761Y-107271428D01*
X157109523Y-107366666D01*
X157014285Y-107414285D01*
X156823809Y-107461904D01*
X156680952Y-107461904D01*
X156490476Y-107414285D01*
X156395238Y-107366666D01*
X156300000Y-107271428D01*
X156252380Y-107128571D01*
X156252380Y-107033333D01*
X156300000Y-106890476D01*
X156347619Y-106842857D01*
X157252380Y-105890476D02*
X157252380Y-106461904D01*
X157252380Y-106176190D02*
X156252380Y-106176190D01*
X156395238Y-106271428D01*
X156490476Y-106366666D01*
X156538095Y-106461904D01*
X156585714Y-105033333D02*
X157252380Y-105033333D01*
X156204761Y-105271428D02*
X156919047Y-105509523D01*
X156919047Y-104890476D01*
%TO.C,C15*%
X154157142Y-107642857D02*
X154204761Y-107690476D01*
X154252380Y-107833333D01*
X154252380Y-107928571D01*
X154204761Y-108071428D01*
X154109523Y-108166666D01*
X154014285Y-108214285D01*
X153823809Y-108261904D01*
X153680952Y-108261904D01*
X153490476Y-108214285D01*
X153395238Y-108166666D01*
X153300000Y-108071428D01*
X153252380Y-107928571D01*
X153252380Y-107833333D01*
X153300000Y-107690476D01*
X153347619Y-107642857D01*
X154252380Y-106690476D02*
X154252380Y-107261904D01*
X154252380Y-106976190D02*
X153252380Y-106976190D01*
X153395238Y-107071428D01*
X153490476Y-107166666D01*
X153538095Y-107261904D01*
X153252380Y-105785714D02*
X153252380Y-106261904D01*
X153728571Y-106309523D01*
X153680952Y-106261904D01*
X153633333Y-106166666D01*
X153633333Y-105928571D01*
X153680952Y-105833333D01*
X153728571Y-105785714D01*
X153823809Y-105738095D01*
X154061904Y-105738095D01*
X154157142Y-105785714D01*
X154204761Y-105833333D01*
X154252380Y-105928571D01*
X154252380Y-106166666D01*
X154204761Y-106261904D01*
X154157142Y-106309523D01*
%TO.C,C16*%
X104997142Y-79842857D02*
X105044761Y-79890476D01*
X105092380Y-80033333D01*
X105092380Y-80128571D01*
X105044761Y-80271428D01*
X104949523Y-80366666D01*
X104854285Y-80414285D01*
X104663809Y-80461904D01*
X104520952Y-80461904D01*
X104330476Y-80414285D01*
X104235238Y-80366666D01*
X104140000Y-80271428D01*
X104092380Y-80128571D01*
X104092380Y-80033333D01*
X104140000Y-79890476D01*
X104187619Y-79842857D01*
X105092380Y-78890476D02*
X105092380Y-79461904D01*
X105092380Y-79176190D02*
X104092380Y-79176190D01*
X104235238Y-79271428D01*
X104330476Y-79366666D01*
X104378095Y-79461904D01*
X104092380Y-78033333D02*
X104092380Y-78223809D01*
X104140000Y-78319047D01*
X104187619Y-78366666D01*
X104330476Y-78461904D01*
X104520952Y-78509523D01*
X104901904Y-78509523D01*
X104997142Y-78461904D01*
X105044761Y-78414285D01*
X105092380Y-78319047D01*
X105092380Y-78128571D01*
X105044761Y-78033333D01*
X104997142Y-77985714D01*
X104901904Y-77938095D01*
X104663809Y-77938095D01*
X104568571Y-77985714D01*
X104520952Y-78033333D01*
X104473333Y-78128571D01*
X104473333Y-78319047D01*
X104520952Y-78414285D01*
X104568571Y-78461904D01*
X104663809Y-78509523D01*
%TO.C,C17*%
X108317142Y-78842857D02*
X108364761Y-78890476D01*
X108412380Y-79033333D01*
X108412380Y-79128571D01*
X108364761Y-79271428D01*
X108269523Y-79366666D01*
X108174285Y-79414285D01*
X107983809Y-79461904D01*
X107840952Y-79461904D01*
X107650476Y-79414285D01*
X107555238Y-79366666D01*
X107460000Y-79271428D01*
X107412380Y-79128571D01*
X107412380Y-79033333D01*
X107460000Y-78890476D01*
X107507619Y-78842857D01*
X108412380Y-77890476D02*
X108412380Y-78461904D01*
X108412380Y-78176190D02*
X107412380Y-78176190D01*
X107555238Y-78271428D01*
X107650476Y-78366666D01*
X107698095Y-78461904D01*
X107412380Y-77557142D02*
X107412380Y-76890476D01*
X108412380Y-77319047D01*
%TO.C,C18*%
X103357142Y-91197142D02*
X103309523Y-91244761D01*
X103166666Y-91292380D01*
X103071428Y-91292380D01*
X102928571Y-91244761D01*
X102833333Y-91149523D01*
X102785714Y-91054285D01*
X102738095Y-90863809D01*
X102738095Y-90720952D01*
X102785714Y-90530476D01*
X102833333Y-90435238D01*
X102928571Y-90340000D01*
X103071428Y-90292380D01*
X103166666Y-90292380D01*
X103309523Y-90340000D01*
X103357142Y-90387619D01*
X104309523Y-91292380D02*
X103738095Y-91292380D01*
X104023809Y-91292380D02*
X104023809Y-90292380D01*
X103928571Y-90435238D01*
X103833333Y-90530476D01*
X103738095Y-90578095D01*
X104880952Y-90720952D02*
X104785714Y-90673333D01*
X104738095Y-90625714D01*
X104690476Y-90530476D01*
X104690476Y-90482857D01*
X104738095Y-90387619D01*
X104785714Y-90340000D01*
X104880952Y-90292380D01*
X105071428Y-90292380D01*
X105166666Y-90340000D01*
X105214285Y-90387619D01*
X105261904Y-90482857D01*
X105261904Y-90530476D01*
X105214285Y-90625714D01*
X105166666Y-90673333D01*
X105071428Y-90720952D01*
X104880952Y-90720952D01*
X104785714Y-90768571D01*
X104738095Y-90816190D01*
X104690476Y-90911428D01*
X104690476Y-91101904D01*
X104738095Y-91197142D01*
X104785714Y-91244761D01*
X104880952Y-91292380D01*
X105071428Y-91292380D01*
X105166666Y-91244761D01*
X105214285Y-91197142D01*
X105261904Y-91101904D01*
X105261904Y-90911428D01*
X105214285Y-90816190D01*
X105166666Y-90768571D01*
X105071428Y-90720952D01*
%TO.C,D1*%
X168261904Y-83952380D02*
X168261904Y-82952380D01*
X168500000Y-82952380D01*
X168642857Y-83000000D01*
X168738095Y-83095238D01*
X168785714Y-83190476D01*
X168833333Y-83380952D01*
X168833333Y-83523809D01*
X168785714Y-83714285D01*
X168738095Y-83809523D01*
X168642857Y-83904761D01*
X168500000Y-83952380D01*
X168261904Y-83952380D01*
X169785714Y-83952380D02*
X169214285Y-83952380D01*
X169500000Y-83952380D02*
X169500000Y-82952380D01*
X169404761Y-83095238D01*
X169309523Y-83190476D01*
X169214285Y-83238095D01*
%TO.C,D2*%
X173852380Y-69338095D02*
X172852380Y-69338095D01*
X172852380Y-69100000D01*
X172900000Y-68957142D01*
X172995238Y-68861904D01*
X173090476Y-68814285D01*
X173280952Y-68766666D01*
X173423809Y-68766666D01*
X173614285Y-68814285D01*
X173709523Y-68861904D01*
X173804761Y-68957142D01*
X173852380Y-69100000D01*
X173852380Y-69338095D01*
X172947619Y-68385714D02*
X172900000Y-68338095D01*
X172852380Y-68242857D01*
X172852380Y-68004761D01*
X172900000Y-67909523D01*
X172947619Y-67861904D01*
X173042857Y-67814285D01*
X173138095Y-67814285D01*
X173280952Y-67861904D01*
X173852380Y-68433333D01*
X173852380Y-67814285D01*
%TO.C,J5*%
X168782380Y-68333333D02*
X169496666Y-68333333D01*
X169639523Y-68380952D01*
X169734761Y-68476190D01*
X169782380Y-68619047D01*
X169782380Y-68714285D01*
X168782380Y-67380952D02*
X168782380Y-67857142D01*
X169258571Y-67904761D01*
X169210952Y-67857142D01*
X169163333Y-67761904D01*
X169163333Y-67523809D01*
X169210952Y-67428571D01*
X169258571Y-67380952D01*
X169353809Y-67333333D01*
X169591904Y-67333333D01*
X169687142Y-67380952D01*
X169734761Y-67428571D01*
X169782380Y-67523809D01*
X169782380Y-67761904D01*
X169734761Y-67857142D01*
X169687142Y-67904761D01*
%TO.C,J6*%
X172152380Y-96533333D02*
X172866666Y-96533333D01*
X173009523Y-96580952D01*
X173104761Y-96676190D01*
X173152380Y-96819047D01*
X173152380Y-96914285D01*
X172152380Y-95628571D02*
X172152380Y-95819047D01*
X172200000Y-95914285D01*
X172247619Y-95961904D01*
X172390476Y-96057142D01*
X172580952Y-96104761D01*
X172961904Y-96104761D01*
X173057142Y-96057142D01*
X173104761Y-96009523D01*
X173152380Y-95914285D01*
X173152380Y-95723809D01*
X173104761Y-95628571D01*
X173057142Y-95580952D01*
X172961904Y-95533333D01*
X172723809Y-95533333D01*
X172628571Y-95580952D01*
X172580952Y-95628571D01*
X172533333Y-95723809D01*
X172533333Y-95914285D01*
X172580952Y-96009523D01*
X172628571Y-96057142D01*
X172723809Y-96104761D01*
%TO.C,J7*%
X172152380Y-91733333D02*
X172866666Y-91733333D01*
X173009523Y-91780952D01*
X173104761Y-91876190D01*
X173152380Y-92019047D01*
X173152380Y-92114285D01*
X172152380Y-91352380D02*
X172152380Y-90685714D01*
X173152380Y-91114285D01*
%TO.C,J8*%
X172152380Y-87933333D02*
X172866666Y-87933333D01*
X173009523Y-87980952D01*
X173104761Y-88076190D01*
X173152380Y-88219047D01*
X173152380Y-88314285D01*
X172580952Y-87314285D02*
X172533333Y-87409523D01*
X172485714Y-87457142D01*
X172390476Y-87504761D01*
X172342857Y-87504761D01*
X172247619Y-87457142D01*
X172200000Y-87409523D01*
X172152380Y-87314285D01*
X172152380Y-87123809D01*
X172200000Y-87028571D01*
X172247619Y-86980952D01*
X172342857Y-86933333D01*
X172390476Y-86933333D01*
X172485714Y-86980952D01*
X172533333Y-87028571D01*
X172580952Y-87123809D01*
X172580952Y-87314285D01*
X172628571Y-87409523D01*
X172676190Y-87457142D01*
X172771428Y-87504761D01*
X172961904Y-87504761D01*
X173057142Y-87457142D01*
X173104761Y-87409523D01*
X173152380Y-87314285D01*
X173152380Y-87123809D01*
X173104761Y-87028571D01*
X173057142Y-86980952D01*
X172961904Y-86933333D01*
X172771428Y-86933333D01*
X172676190Y-86980952D01*
X172628571Y-87028571D01*
X172580952Y-87123809D01*
%TO.C,J9*%
X172152380Y-84133333D02*
X172866666Y-84133333D01*
X173009523Y-84180952D01*
X173104761Y-84276190D01*
X173152380Y-84419047D01*
X173152380Y-84514285D01*
X173152380Y-83609523D02*
X173152380Y-83419047D01*
X173104761Y-83323809D01*
X173057142Y-83276190D01*
X172914285Y-83180952D01*
X172723809Y-83133333D01*
X172342857Y-83133333D01*
X172247619Y-83180952D01*
X172200000Y-83228571D01*
X172152380Y-83323809D01*
X172152380Y-83514285D01*
X172200000Y-83609523D01*
X172247619Y-83657142D01*
X172342857Y-83704761D01*
X172580952Y-83704761D01*
X172676190Y-83657142D01*
X172723809Y-83609523D01*
X172771428Y-83514285D01*
X172771428Y-83323809D01*
X172723809Y-83228571D01*
X172676190Y-83180952D01*
X172580952Y-83133333D01*
%TO.C,J10*%
X172152380Y-80809523D02*
X172866666Y-80809523D01*
X173009523Y-80857142D01*
X173104761Y-80952380D01*
X173152380Y-81095238D01*
X173152380Y-81190476D01*
X173152380Y-79809523D02*
X173152380Y-80380952D01*
X173152380Y-80095238D02*
X172152380Y-80095238D01*
X172295238Y-80190476D01*
X172390476Y-80285714D01*
X172438095Y-80380952D01*
X172152380Y-79190476D02*
X172152380Y-79095238D01*
X172200000Y-79000000D01*
X172247619Y-78952380D01*
X172342857Y-78904761D01*
X172533333Y-78857142D01*
X172771428Y-78857142D01*
X172961904Y-78904761D01*
X173057142Y-78952380D01*
X173104761Y-79000000D01*
X173152380Y-79095238D01*
X173152380Y-79190476D01*
X173104761Y-79285714D01*
X173057142Y-79333333D01*
X172961904Y-79380952D01*
X172771428Y-79428571D01*
X172533333Y-79428571D01*
X172342857Y-79380952D01*
X172247619Y-79333333D01*
X172200000Y-79285714D01*
X172152380Y-79190476D01*
%TO.C,J11*%
X172152380Y-77009523D02*
X172866666Y-77009523D01*
X173009523Y-77057142D01*
X173104761Y-77152380D01*
X173152380Y-77295238D01*
X173152380Y-77390476D01*
X173152380Y-76009523D02*
X173152380Y-76580952D01*
X173152380Y-76295238D02*
X172152380Y-76295238D01*
X172295238Y-76390476D01*
X172390476Y-76485714D01*
X172438095Y-76580952D01*
X173152380Y-75057142D02*
X173152380Y-75628571D01*
X173152380Y-75342857D02*
X172152380Y-75342857D01*
X172295238Y-75438095D01*
X172390476Y-75533333D01*
X172438095Y-75628571D01*
%TO.C,J12*%
X172152380Y-73309523D02*
X172866666Y-73309523D01*
X173009523Y-73357142D01*
X173104761Y-73452380D01*
X173152380Y-73595238D01*
X173152380Y-73690476D01*
X173152380Y-72309523D02*
X173152380Y-72880952D01*
X173152380Y-72595238D02*
X172152380Y-72595238D01*
X172295238Y-72690476D01*
X172390476Y-72785714D01*
X172438095Y-72880952D01*
X172247619Y-71928571D02*
X172200000Y-71880952D01*
X172152380Y-71785714D01*
X172152380Y-71547619D01*
X172200000Y-71452380D01*
X172247619Y-71404761D01*
X172342857Y-71357142D01*
X172438095Y-71357142D01*
X172580952Y-71404761D01*
X173152380Y-71976190D01*
X173152380Y-71357142D01*
%TO.C,Q1*%
X110904761Y-92647619D02*
X110809523Y-92600000D01*
X110714285Y-92504761D01*
X110571428Y-92361904D01*
X110476190Y-92314285D01*
X110380952Y-92314285D01*
X110428571Y-92552380D02*
X110333333Y-92504761D01*
X110238095Y-92409523D01*
X110190476Y-92219047D01*
X110190476Y-91885714D01*
X110238095Y-91695238D01*
X110333333Y-91600000D01*
X110428571Y-91552380D01*
X110619047Y-91552380D01*
X110714285Y-91600000D01*
X110809523Y-91695238D01*
X110857142Y-91885714D01*
X110857142Y-92219047D01*
X110809523Y-92409523D01*
X110714285Y-92504761D01*
X110619047Y-92552380D01*
X110428571Y-92552380D01*
X111809523Y-92552380D02*
X111238095Y-92552380D01*
X111523809Y-92552380D02*
X111523809Y-91552380D01*
X111428571Y-91695238D01*
X111333333Y-91790476D01*
X111238095Y-91838095D01*
%TO.C,Q2*%
X114904761Y-92647619D02*
X114809523Y-92600000D01*
X114714285Y-92504761D01*
X114571428Y-92361904D01*
X114476190Y-92314285D01*
X114380952Y-92314285D01*
X114428571Y-92552380D02*
X114333333Y-92504761D01*
X114238095Y-92409523D01*
X114190476Y-92219047D01*
X114190476Y-91885714D01*
X114238095Y-91695238D01*
X114333333Y-91600000D01*
X114428571Y-91552380D01*
X114619047Y-91552380D01*
X114714285Y-91600000D01*
X114809523Y-91695238D01*
X114857142Y-91885714D01*
X114857142Y-92219047D01*
X114809523Y-92409523D01*
X114714285Y-92504761D01*
X114619047Y-92552380D01*
X114428571Y-92552380D01*
X115238095Y-91647619D02*
X115285714Y-91600000D01*
X115380952Y-91552380D01*
X115619047Y-91552380D01*
X115714285Y-91600000D01*
X115761904Y-91647619D01*
X115809523Y-91742857D01*
X115809523Y-91838095D01*
X115761904Y-91980952D01*
X115190476Y-92552380D01*
X115809523Y-92552380D01*
%TO.C,R1*%
X116733333Y-77752380D02*
X116400000Y-77276190D01*
X116161904Y-77752380D02*
X116161904Y-76752380D01*
X116542857Y-76752380D01*
X116638095Y-76800000D01*
X116685714Y-76847619D01*
X116733333Y-76942857D01*
X116733333Y-77085714D01*
X116685714Y-77180952D01*
X116638095Y-77228571D01*
X116542857Y-77276190D01*
X116161904Y-77276190D01*
X117685714Y-77752380D02*
X117114285Y-77752380D01*
X117400000Y-77752380D02*
X117400000Y-76752380D01*
X117304761Y-76895238D01*
X117209523Y-76990476D01*
X117114285Y-77038095D01*
%TO.C,R2*%
X153022380Y-91666666D02*
X152546190Y-92000000D01*
X153022380Y-92238095D02*
X152022380Y-92238095D01*
X152022380Y-91857142D01*
X152070000Y-91761904D01*
X152117619Y-91714285D01*
X152212857Y-91666666D01*
X152355714Y-91666666D01*
X152450952Y-91714285D01*
X152498571Y-91761904D01*
X152546190Y-91857142D01*
X152546190Y-92238095D01*
X152117619Y-91285714D02*
X152070000Y-91238095D01*
X152022380Y-91142857D01*
X152022380Y-90904761D01*
X152070000Y-90809523D01*
X152117619Y-90761904D01*
X152212857Y-90714285D01*
X152308095Y-90714285D01*
X152450952Y-90761904D01*
X153022380Y-91333333D01*
X153022380Y-90714285D01*
%TO.C,R3*%
X153882380Y-89666666D02*
X153406190Y-90000000D01*
X153882380Y-90238095D02*
X152882380Y-90238095D01*
X152882380Y-89857142D01*
X152930000Y-89761904D01*
X152977619Y-89714285D01*
X153072857Y-89666666D01*
X153215714Y-89666666D01*
X153310952Y-89714285D01*
X153358571Y-89761904D01*
X153406190Y-89857142D01*
X153406190Y-90238095D01*
X152882380Y-89333333D02*
X152882380Y-88714285D01*
X153263333Y-89047619D01*
X153263333Y-88904761D01*
X153310952Y-88809523D01*
X153358571Y-88761904D01*
X153453809Y-88714285D01*
X153691904Y-88714285D01*
X153787142Y-88761904D01*
X153834761Y-88809523D01*
X153882380Y-88904761D01*
X153882380Y-89190476D01*
X153834761Y-89285714D01*
X153787142Y-89333333D01*
%TO.C,R4*%
X150252380Y-77616666D02*
X149776190Y-77950000D01*
X150252380Y-78188095D02*
X149252380Y-78188095D01*
X149252380Y-77807142D01*
X149300000Y-77711904D01*
X149347619Y-77664285D01*
X149442857Y-77616666D01*
X149585714Y-77616666D01*
X149680952Y-77664285D01*
X149728571Y-77711904D01*
X149776190Y-77807142D01*
X149776190Y-78188095D01*
X149585714Y-76759523D02*
X150252380Y-76759523D01*
X149204761Y-76997619D02*
X149919047Y-77235714D01*
X149919047Y-76616666D01*
%TO.C,R5*%
X146102380Y-80716666D02*
X145626190Y-81050000D01*
X146102380Y-81288095D02*
X145102380Y-81288095D01*
X145102380Y-80907142D01*
X145150000Y-80811904D01*
X145197619Y-80764285D01*
X145292857Y-80716666D01*
X145435714Y-80716666D01*
X145530952Y-80764285D01*
X145578571Y-80811904D01*
X145626190Y-80907142D01*
X145626190Y-81288095D01*
X145102380Y-79811904D02*
X145102380Y-80288095D01*
X145578571Y-80335714D01*
X145530952Y-80288095D01*
X145483333Y-80192857D01*
X145483333Y-79954761D01*
X145530952Y-79859523D01*
X145578571Y-79811904D01*
X145673809Y-79764285D01*
X145911904Y-79764285D01*
X146007142Y-79811904D01*
X146054761Y-79859523D01*
X146102380Y-79954761D01*
X146102380Y-80192857D01*
X146054761Y-80288095D01*
X146007142Y-80335714D01*
%TO.C,R6*%
X110522380Y-98766666D02*
X110046190Y-99100000D01*
X110522380Y-99338095D02*
X109522380Y-99338095D01*
X109522380Y-98957142D01*
X109570000Y-98861904D01*
X109617619Y-98814285D01*
X109712857Y-98766666D01*
X109855714Y-98766666D01*
X109950952Y-98814285D01*
X109998571Y-98861904D01*
X110046190Y-98957142D01*
X110046190Y-99338095D01*
X109522380Y-97909523D02*
X109522380Y-98100000D01*
X109570000Y-98195238D01*
X109617619Y-98242857D01*
X109760476Y-98338095D01*
X109950952Y-98385714D01*
X110331904Y-98385714D01*
X110427142Y-98338095D01*
X110474761Y-98290476D01*
X110522380Y-98195238D01*
X110522380Y-98004761D01*
X110474761Y-97909523D01*
X110427142Y-97861904D01*
X110331904Y-97814285D01*
X110093809Y-97814285D01*
X109998571Y-97861904D01*
X109950952Y-97909523D01*
X109903333Y-98004761D01*
X109903333Y-98195238D01*
X109950952Y-98290476D01*
X109998571Y-98338095D01*
X110093809Y-98385714D01*
%TO.C,R8*%
X97433333Y-85052380D02*
X97100000Y-84576190D01*
X96861904Y-85052380D02*
X96861904Y-84052380D01*
X97242857Y-84052380D01*
X97338095Y-84100000D01*
X97385714Y-84147619D01*
X97433333Y-84242857D01*
X97433333Y-84385714D01*
X97385714Y-84480952D01*
X97338095Y-84528571D01*
X97242857Y-84576190D01*
X96861904Y-84576190D01*
X98004761Y-84480952D02*
X97909523Y-84433333D01*
X97861904Y-84385714D01*
X97814285Y-84290476D01*
X97814285Y-84242857D01*
X97861904Y-84147619D01*
X97909523Y-84100000D01*
X98004761Y-84052380D01*
X98195238Y-84052380D01*
X98290476Y-84100000D01*
X98338095Y-84147619D01*
X98385714Y-84242857D01*
X98385714Y-84290476D01*
X98338095Y-84385714D01*
X98290476Y-84433333D01*
X98195238Y-84480952D01*
X98004761Y-84480952D01*
X97909523Y-84528571D01*
X97861904Y-84576190D01*
X97814285Y-84671428D01*
X97814285Y-84861904D01*
X97861904Y-84957142D01*
X97909523Y-85004761D01*
X98004761Y-85052380D01*
X98195238Y-85052380D01*
X98290476Y-85004761D01*
X98338095Y-84957142D01*
X98385714Y-84861904D01*
X98385714Y-84671428D01*
X98338095Y-84576190D01*
X98290476Y-84528571D01*
X98195238Y-84480952D01*
%TO.C,R9*%
X102833333Y-85482380D02*
X102500000Y-85006190D01*
X102261904Y-85482380D02*
X102261904Y-84482380D01*
X102642857Y-84482380D01*
X102738095Y-84530000D01*
X102785714Y-84577619D01*
X102833333Y-84672857D01*
X102833333Y-84815714D01*
X102785714Y-84910952D01*
X102738095Y-84958571D01*
X102642857Y-85006190D01*
X102261904Y-85006190D01*
X103309523Y-85482380D02*
X103500000Y-85482380D01*
X103595238Y-85434761D01*
X103642857Y-85387142D01*
X103738095Y-85244285D01*
X103785714Y-85053809D01*
X103785714Y-84672857D01*
X103738095Y-84577619D01*
X103690476Y-84530000D01*
X103595238Y-84482380D01*
X103404761Y-84482380D01*
X103309523Y-84530000D01*
X103261904Y-84577619D01*
X103214285Y-84672857D01*
X103214285Y-84910952D01*
X103261904Y-85006190D01*
X103309523Y-85053809D01*
X103404761Y-85101428D01*
X103595238Y-85101428D01*
X103690476Y-85053809D01*
X103738095Y-85006190D01*
X103785714Y-84910952D01*
%TO.C,R10*%
X98622380Y-88242857D02*
X98146190Y-88576190D01*
X98622380Y-88814285D02*
X97622380Y-88814285D01*
X97622380Y-88433333D01*
X97670000Y-88338095D01*
X97717619Y-88290476D01*
X97812857Y-88242857D01*
X97955714Y-88242857D01*
X98050952Y-88290476D01*
X98098571Y-88338095D01*
X98146190Y-88433333D01*
X98146190Y-88814285D01*
X98622380Y-87290476D02*
X98622380Y-87861904D01*
X98622380Y-87576190D02*
X97622380Y-87576190D01*
X97765238Y-87671428D01*
X97860476Y-87766666D01*
X97908095Y-87861904D01*
X97622380Y-86671428D02*
X97622380Y-86576190D01*
X97670000Y-86480952D01*
X97717619Y-86433333D01*
X97812857Y-86385714D01*
X98003333Y-86338095D01*
X98241428Y-86338095D01*
X98431904Y-86385714D01*
X98527142Y-86433333D01*
X98574761Y-86480952D01*
X98622380Y-86576190D01*
X98622380Y-86671428D01*
X98574761Y-86766666D01*
X98527142Y-86814285D01*
X98431904Y-86861904D01*
X98241428Y-86909523D01*
X98003333Y-86909523D01*
X97812857Y-86861904D01*
X97717619Y-86814285D01*
X97670000Y-86766666D01*
X97622380Y-86671428D01*
%TO.C,R11*%
X103052380Y-88267857D02*
X102576190Y-88601190D01*
X103052380Y-88839285D02*
X102052380Y-88839285D01*
X102052380Y-88458333D01*
X102100000Y-88363095D01*
X102147619Y-88315476D01*
X102242857Y-88267857D01*
X102385714Y-88267857D01*
X102480952Y-88315476D01*
X102528571Y-88363095D01*
X102576190Y-88458333D01*
X102576190Y-88839285D01*
X103052380Y-87315476D02*
X103052380Y-87886904D01*
X103052380Y-87601190D02*
X102052380Y-87601190D01*
X102195238Y-87696428D01*
X102290476Y-87791666D01*
X102338095Y-87886904D01*
X103052380Y-86363095D02*
X103052380Y-86934523D01*
X103052380Y-86648809D02*
X102052380Y-86648809D01*
X102195238Y-86744047D01*
X102290476Y-86839285D01*
X102338095Y-86934523D01*
%TO.C,SW1*%
X109366666Y-71404761D02*
X109509523Y-71452380D01*
X109747619Y-71452380D01*
X109842857Y-71404761D01*
X109890476Y-71357142D01*
X109938095Y-71261904D01*
X109938095Y-71166666D01*
X109890476Y-71071428D01*
X109842857Y-71023809D01*
X109747619Y-70976190D01*
X109557142Y-70928571D01*
X109461904Y-70880952D01*
X109414285Y-70833333D01*
X109366666Y-70738095D01*
X109366666Y-70642857D01*
X109414285Y-70547619D01*
X109461904Y-70500000D01*
X109557142Y-70452380D01*
X109795238Y-70452380D01*
X109938095Y-70500000D01*
X110271428Y-70452380D02*
X110509523Y-71452380D01*
X110700000Y-70738095D01*
X110890476Y-71452380D01*
X111128571Y-70452380D01*
X112033333Y-71452380D02*
X111461904Y-71452380D01*
X111747619Y-71452380D02*
X111747619Y-70452380D01*
X111652380Y-70595238D01*
X111557142Y-70690476D01*
X111461904Y-70738095D01*
%TO.C,U1*%
X116542380Y-90291904D02*
X117351904Y-90291904D01*
X117447142Y-90244285D01*
X117494761Y-90196666D01*
X117542380Y-90101428D01*
X117542380Y-89910952D01*
X117494761Y-89815714D01*
X117447142Y-89768095D01*
X117351904Y-89720476D01*
X116542380Y-89720476D01*
X117542380Y-88720476D02*
X117542380Y-89291904D01*
X117542380Y-89006190D02*
X116542380Y-89006190D01*
X116685238Y-89101428D01*
X116780476Y-89196666D01*
X116828095Y-89291904D01*
%TO.C,U3*%
X151852380Y-84261904D02*
X152661904Y-84261904D01*
X152757142Y-84214285D01*
X152804761Y-84166666D01*
X152852380Y-84071428D01*
X152852380Y-83880952D01*
X152804761Y-83785714D01*
X152757142Y-83738095D01*
X152661904Y-83690476D01*
X151852380Y-83690476D01*
X151852380Y-83309523D02*
X151852380Y-82690476D01*
X152233333Y-83023809D01*
X152233333Y-82880952D01*
X152280952Y-82785714D01*
X152328571Y-82738095D01*
X152423809Y-82690476D01*
X152661904Y-82690476D01*
X152757142Y-82738095D01*
X152804761Y-82785714D01*
X152852380Y-82880952D01*
X152852380Y-83166666D01*
X152804761Y-83261904D01*
X152757142Y-83309523D01*
%TO.C,U4*%
X115738095Y-106052380D02*
X115738095Y-106861904D01*
X115785714Y-106957142D01*
X115833333Y-107004761D01*
X115928571Y-107052380D01*
X116119047Y-107052380D01*
X116214285Y-107004761D01*
X116261904Y-106957142D01*
X116309523Y-106861904D01*
X116309523Y-106052380D01*
X117214285Y-106385714D02*
X117214285Y-107052380D01*
X116976190Y-106004761D02*
X116738095Y-106719047D01*
X117357142Y-106719047D01*
%TO.C,U5*%
X151752380Y-101361904D02*
X152561904Y-101361904D01*
X152657142Y-101314285D01*
X152704761Y-101266666D01*
X152752380Y-101171428D01*
X152752380Y-100980952D01*
X152704761Y-100885714D01*
X152657142Y-100838095D01*
X152561904Y-100790476D01*
X151752380Y-100790476D01*
X151752380Y-99838095D02*
X151752380Y-100314285D01*
X152228571Y-100361904D01*
X152180952Y-100314285D01*
X152133333Y-100219047D01*
X152133333Y-99980952D01*
X152180952Y-99885714D01*
X152228571Y-99838095D01*
X152323809Y-99790476D01*
X152561904Y-99790476D01*
X152657142Y-99838095D01*
X152704761Y-99885714D01*
X152752380Y-99980952D01*
X152752380Y-100219047D01*
X152704761Y-100314285D01*
X152657142Y-100361904D01*
%TD*%
M02*
