%TF.GenerationSoftware,KiCad,Pcbnew,(5.1.8)-1*%
%TF.CreationDate,2021-03-10T16:05:31+00:00*%
%TF.ProjectId,Project_2_smaller,50726f6a-6563-4745-9f32-5f736d616c6c,rev?*%
%TF.SameCoordinates,Original*%
%TF.FileFunction,Soldermask,Bot*%
%TF.FilePolarity,Negative*%
%FSLAX46Y46*%
G04 Gerber Fmt 4.6, Leading zero omitted, Abs format (unit mm)*
G04 Created by KiCad (PCBNEW (5.1.8)-1) date 2021-03-10 16:05:31*
%MOMM*%
%LPD*%
G01*
G04 APERTURE LIST*
%ADD10O,1.000000X1.550000*%
%ADD11O,1.250000X0.950000*%
%ADD12R,4.500000X2.000000*%
%ADD13R,2.000000X4.500000*%
%ADD14O,1.700000X1.700000*%
%ADD15R,1.700000X1.700000*%
%ADD16C,2.000000*%
%ADD17C,0.950000*%
%ADD18R,2.170000X2.170000*%
%ADD19C,2.500000*%
%ADD20R,2.800000X3.600000*%
%ADD21O,3.500000X3.500000*%
%ADD22R,2.000000X1.905000*%
%ADD23O,2.000000X1.905000*%
G04 APERTURE END LIST*
D10*
%TO.C,J1*%
X102000000Y-106700000D03*
X95000000Y-106700000D03*
D11*
X96000000Y-104000000D03*
X101000000Y-104000000D03*
%TD*%
D12*
%TO.C,J2*%
X175200000Y-108200000D03*
D13*
X172200000Y-103500000D03*
X178200000Y-103500000D03*
%TD*%
D14*
%TO.C,J13*%
X139920000Y-75000000D03*
X142460000Y-75000000D03*
X145000000Y-75000000D03*
X147540000Y-75000000D03*
D15*
X150080000Y-75000000D03*
D16*
X121632000Y-75762000D03*
X168368000Y-75762000D03*
X168368000Y-99638000D03*
X121632000Y-99638000D03*
%TD*%
D17*
%TO.C,J3*%
X131100000Y-105500000D03*
X137900000Y-105500000D03*
%TD*%
D18*
%TO.C,BT1*%
X158300000Y-93700000D03*
D19*
X158300000Y-73700000D03*
%TD*%
D15*
%TO.C,J5*%
X167000000Y-68000000D03*
D14*
X164460000Y-68000000D03*
X161920000Y-68000000D03*
X159380000Y-68000000D03*
X156840000Y-68000000D03*
X154300000Y-68000000D03*
X151760000Y-68000000D03*
X149220000Y-68000000D03*
%TD*%
D15*
%TO.C,J6*%
X177300000Y-96200000D03*
D14*
X174760000Y-96200000D03*
%TD*%
D15*
%TO.C,J7*%
X177300000Y-91400000D03*
D14*
X174760000Y-91400000D03*
%TD*%
%TO.C,J8*%
X174760000Y-87600000D03*
D15*
X177300000Y-87600000D03*
%TD*%
%TO.C,J9*%
X177300000Y-83800000D03*
D14*
X174760000Y-83800000D03*
%TD*%
D15*
%TO.C,J10*%
X177300000Y-80000000D03*
D14*
X174760000Y-80000000D03*
%TD*%
%TO.C,J11*%
X174760000Y-76200000D03*
D15*
X177300000Y-76200000D03*
%TD*%
D14*
%TO.C,J12*%
X174760000Y-72500000D03*
D15*
X177300000Y-72500000D03*
%TD*%
D16*
%TO.C,S1*%
X102800000Y-80300000D03*
X100300000Y-80300000D03*
X97800000Y-80300000D03*
X102800000Y-94800000D03*
X97800000Y-94800000D03*
D20*
X106000000Y-87800000D03*
X94600000Y-87800000D03*
%TD*%
D21*
%TO.C,U2*%
X148340000Y-103840000D03*
D22*
X165000000Y-101300000D03*
D23*
X165000000Y-103840000D03*
X165000000Y-106380000D03*
%TD*%
M02*
