%TF.GenerationSoftware,KiCad,Pcbnew,(5.1.8)-1*%
%TF.CreationDate,2021-03-10T16:05:31+00:00*%
%TF.ProjectId,Project_2_smaller,50726f6a-6563-4745-9f32-5f736d616c6c,rev?*%
%TF.SameCoordinates,Original*%
%TF.FileFunction,Copper,L3,Inr*%
%TF.FilePolarity,Positive*%
%FSLAX46Y46*%
G04 Gerber Fmt 4.6, Leading zero omitted, Abs format (unit mm)*
G04 Created by KiCad (PCBNEW (5.1.8)-1) date 2021-03-10 16:05:31*
%MOMM*%
%LPD*%
G01*
G04 APERTURE LIST*
%TA.AperFunction,ComponentPad*%
%ADD10O,1.000000X1.550000*%
%TD*%
%TA.AperFunction,ComponentPad*%
%ADD11O,1.250000X0.950000*%
%TD*%
%TA.AperFunction,ComponentPad*%
%ADD12R,4.500000X2.000000*%
%TD*%
%TA.AperFunction,ComponentPad*%
%ADD13R,2.000000X4.500000*%
%TD*%
%TA.AperFunction,ComponentPad*%
%ADD14O,1.700000X1.700000*%
%TD*%
%TA.AperFunction,ComponentPad*%
%ADD15R,1.700000X1.700000*%
%TD*%
%TA.AperFunction,ComponentPad*%
%ADD16C,2.000000*%
%TD*%
%TA.AperFunction,ComponentPad*%
%ADD17R,2.170000X2.170000*%
%TD*%
%TA.AperFunction,ComponentPad*%
%ADD18C,2.500000*%
%TD*%
%TA.AperFunction,ComponentPad*%
%ADD19R,2.800000X3.600000*%
%TD*%
%TA.AperFunction,ComponentPad*%
%ADD20R,2.000000X1.905000*%
%TD*%
%TA.AperFunction,ComponentPad*%
%ADD21O,2.000000X1.905000*%
%TD*%
%TA.AperFunction,ViaPad*%
%ADD22C,0.800000*%
%TD*%
%TA.AperFunction,ViaPad*%
%ADD23C,1.000000*%
%TD*%
%TA.AperFunction,Conductor*%
%ADD24C,0.254000*%
%TD*%
%TA.AperFunction,Conductor*%
%ADD25C,0.100000*%
%TD*%
G04 APERTURE END LIST*
D10*
%TO.N,Earth*%
%TO.C,J1*%
X102000000Y-106700000D03*
X95000000Y-106700000D03*
D11*
X96000000Y-104000000D03*
X101000000Y-104000000D03*
%TD*%
D12*
%TO.N,N/C*%
%TO.C,J2*%
X175200000Y-108200000D03*
D13*
%TO.N,LINE*%
X172200000Y-103500000D03*
%TO.N,Earth*%
X178200000Y-103500000D03*
%TD*%
D14*
%TO.N,SCL*%
%TO.C,J13*%
X139920000Y-75000000D03*
%TO.N,SDA*%
X142460000Y-75000000D03*
%TO.N,Earth*%
X145000000Y-75000000D03*
%TO.N,+3V3*%
X147540000Y-75000000D03*
D15*
X150080000Y-75000000D03*
D16*
%TO.N,*%
X121632000Y-75762000D03*
X168368000Y-75762000D03*
X168368000Y-99638000D03*
X121632000Y-99638000D03*
%TD*%
D17*
%TO.N,Earth*%
%TO.C,BT1*%
X158300000Y-93700000D03*
D18*
%TO.N,Net-(BT1-Pad1)*%
X158300000Y-73700000D03*
%TD*%
D15*
%TO.N,+12V*%
%TO.C,J5*%
X167000000Y-68000000D03*
D14*
%TO.N,/PWM6*%
X164460000Y-68000000D03*
%TO.N,/PWM5*%
X161920000Y-68000000D03*
%TO.N,/PWM4*%
X159380000Y-68000000D03*
%TO.N,/PWM3*%
X156840000Y-68000000D03*
%TO.N,/PWM2*%
X154300000Y-68000000D03*
%TO.N,/PWM1*%
X151760000Y-68000000D03*
%TO.N,Earth*%
X149220000Y-68000000D03*
%TD*%
D15*
%TO.N,/OnOff*%
%TO.C,J6*%
X177300000Y-96200000D03*
D14*
%TO.N,Earth*%
X174760000Y-96200000D03*
%TD*%
D15*
%TO.N,+12V*%
%TO.C,J7*%
X177300000Y-91400000D03*
D14*
%TO.N,Earth*%
X174760000Y-91400000D03*
%TD*%
%TO.N,Earth*%
%TO.C,J8*%
X174760000Y-87600000D03*
D15*
%TO.N,+12V*%
X177300000Y-87600000D03*
%TD*%
%TO.N,+3V3*%
%TO.C,J9*%
X177300000Y-83800000D03*
D14*
%TO.N,Earth*%
X174760000Y-83800000D03*
%TD*%
D15*
%TO.N,+3V3*%
%TO.C,J10*%
X177300000Y-80000000D03*
D14*
%TO.N,Earth*%
X174760000Y-80000000D03*
%TD*%
%TO.N,SDA*%
%TO.C,J11*%
X174760000Y-76200000D03*
D15*
%TO.N,SCL*%
X177300000Y-76200000D03*
%TD*%
D14*
%TO.N,SDA*%
%TO.C,J12*%
X174760000Y-72500000D03*
D15*
%TO.N,SCL*%
X177300000Y-72500000D03*
%TD*%
D16*
%TO.N,Net-(R11-Pad2)*%
%TO.C,S1*%
X102800000Y-80300000D03*
%TO.N,Earth*%
X100300000Y-80300000D03*
%TO.N,Net-(R10-Pad2)*%
X97800000Y-80300000D03*
%TO.N,/Button*%
X102800000Y-94800000D03*
%TO.N,+3V3*%
X97800000Y-94800000D03*
D19*
%TO.N,Earth*%
X106000000Y-87800000D03*
X94600000Y-87800000D03*
%TD*%
D20*
%TO.N,LINE*%
%TO.C,U2*%
X165000000Y-101300000D03*
D21*
%TO.N,Earth*%
X165000000Y-103840000D03*
%TO.N,+12V*%
X165000000Y-106380000D03*
%TD*%
D22*
%TO.N,*%
X123500000Y-81450000D03*
D23*
%TO.N,Earth*%
X159850000Y-78850000D03*
D22*
X118389999Y-72034999D03*
X124900000Y-97250000D03*
X122350000Y-92550000D03*
X111300000Y-102400000D03*
X161000000Y-88150000D03*
X156280000Y-90620000D03*
X111150000Y-107800000D03*
D23*
%TO.N,+3V3*%
X115500000Y-72900000D03*
D22*
X168000000Y-83000000D03*
X156000000Y-108000000D03*
D23*
X157000000Y-100000000D03*
D22*
X154750000Y-91000000D03*
X133800000Y-95050000D03*
X112780000Y-106820000D03*
X141050000Y-92750000D03*
%TO.N,/RESET*%
X110000000Y-92000000D03*
X112500000Y-75000000D03*
%TO.N,SDA*%
X139500000Y-77500000D03*
%TO.N,TXD*%
X134000000Y-76500000D03*
X116000000Y-99000000D03*
%TO.N,RXD*%
X117000000Y-99500000D03*
X134000000Y-78000000D03*
%TO.N,/IO0*%
X119500000Y-94500000D03*
X139500000Y-90000000D03*
%TO.N,Net-(Q1-Pad2)*%
X116500000Y-101100000D03*
X114345131Y-100445131D03*
%TO.N,/RTC-INTSQW*%
X132100000Y-87150000D03*
X151100000Y-92300000D03*
%TO.N,MOSI*%
X136000000Y-91000000D03*
X134000000Y-85500000D03*
%TO.N,Net-(BT1-Pad1)*%
X157500000Y-77000000D03*
%TO.N,/!SD_SS*%
X136517805Y-92517449D03*
X133500000Y-88500000D03*
%TO.N,/PWM6*%
X129000000Y-87000000D03*
%TO.N,/PWM5*%
X130500000Y-85500000D03*
%TO.N,/PWM4*%
X131525306Y-84025306D03*
%TO.N,/PWM3*%
X127012653Y-87512653D03*
%TO.N,/PWM2*%
X125500000Y-88000000D03*
%TO.N,/PWM1*%
X122000000Y-87000000D03*
%TD*%
D24*
%TO.N,Earth*%
X112873000Y-72000000D02*
X112875440Y-72024776D01*
X112882667Y-72048601D01*
X112894403Y-72070557D01*
X112910197Y-72089803D01*
X112929443Y-72105597D01*
X112951399Y-72117333D01*
X112975224Y-72124560D01*
X113000000Y-72127000D01*
X114667868Y-72127000D01*
X114618388Y-72176480D01*
X114494176Y-72362376D01*
X114408617Y-72568933D01*
X114365000Y-72788212D01*
X114365000Y-73011788D01*
X114408617Y-73231067D01*
X114494176Y-73437624D01*
X114618388Y-73623520D01*
X114776480Y-73781612D01*
X114962376Y-73905824D01*
X115168933Y-73991383D01*
X115388212Y-74035000D01*
X115611788Y-74035000D01*
X115831067Y-73991383D01*
X116037624Y-73905824D01*
X116223520Y-73781612D01*
X116381612Y-73623520D01*
X116505824Y-73437624D01*
X116591383Y-73231067D01*
X116635000Y-73011788D01*
X116635000Y-72788212D01*
X116591383Y-72568933D01*
X116505824Y-72362376D01*
X116381612Y-72176480D01*
X116332132Y-72127000D01*
X143000000Y-72127000D01*
X143024776Y-72124560D01*
X143048601Y-72117333D01*
X143070557Y-72105597D01*
X143089803Y-72089803D01*
X143105597Y-72070557D01*
X143117333Y-72048601D01*
X143124560Y-72024776D01*
X143127000Y-72000000D01*
X143127000Y-68356891D01*
X147778519Y-68356891D01*
X147875843Y-68631252D01*
X148024822Y-68881355D01*
X148219731Y-69097588D01*
X148453080Y-69271641D01*
X148715901Y-69396825D01*
X148863110Y-69441476D01*
X149093000Y-69320155D01*
X149093000Y-68127000D01*
X147899186Y-68127000D01*
X147778519Y-68356891D01*
X143127000Y-68356891D01*
X143127000Y-67643109D01*
X147778519Y-67643109D01*
X147899186Y-67873000D01*
X149093000Y-67873000D01*
X149093000Y-66679845D01*
X149347000Y-66679845D01*
X149347000Y-67873000D01*
X149367000Y-67873000D01*
X149367000Y-68127000D01*
X149347000Y-68127000D01*
X149347000Y-69320155D01*
X149576890Y-69441476D01*
X149724099Y-69396825D01*
X149986920Y-69271641D01*
X150220269Y-69097588D01*
X150415178Y-68881355D01*
X150484805Y-68764466D01*
X150606525Y-68946632D01*
X150813368Y-69153475D01*
X151056589Y-69315990D01*
X151326842Y-69427932D01*
X151613740Y-69485000D01*
X151906260Y-69485000D01*
X152193158Y-69427932D01*
X152463411Y-69315990D01*
X152706632Y-69153475D01*
X152913475Y-68946632D01*
X153030000Y-68772240D01*
X153146525Y-68946632D01*
X153353368Y-69153475D01*
X153596589Y-69315990D01*
X153866842Y-69427932D01*
X154153740Y-69485000D01*
X154446260Y-69485000D01*
X154733158Y-69427932D01*
X155003411Y-69315990D01*
X155246632Y-69153475D01*
X155453475Y-68946632D01*
X155570000Y-68772240D01*
X155686525Y-68946632D01*
X155893368Y-69153475D01*
X156136589Y-69315990D01*
X156406842Y-69427932D01*
X156693740Y-69485000D01*
X156986260Y-69485000D01*
X157273158Y-69427932D01*
X157543411Y-69315990D01*
X157786632Y-69153475D01*
X157993475Y-68946632D01*
X158110000Y-68772240D01*
X158226525Y-68946632D01*
X158433368Y-69153475D01*
X158676589Y-69315990D01*
X158946842Y-69427932D01*
X159233740Y-69485000D01*
X159526260Y-69485000D01*
X159813158Y-69427932D01*
X160083411Y-69315990D01*
X160326632Y-69153475D01*
X160533475Y-68946632D01*
X160650000Y-68772240D01*
X160766525Y-68946632D01*
X160973368Y-69153475D01*
X161216589Y-69315990D01*
X161486842Y-69427932D01*
X161773740Y-69485000D01*
X162066260Y-69485000D01*
X162353158Y-69427932D01*
X162623411Y-69315990D01*
X162866632Y-69153475D01*
X163073475Y-68946632D01*
X163190000Y-68772240D01*
X163306525Y-68946632D01*
X163513368Y-69153475D01*
X163756589Y-69315990D01*
X164026842Y-69427932D01*
X164313740Y-69485000D01*
X164606260Y-69485000D01*
X164893158Y-69427932D01*
X165163411Y-69315990D01*
X165406632Y-69153475D01*
X165538487Y-69021620D01*
X165560498Y-69094180D01*
X165619463Y-69204494D01*
X165698815Y-69301185D01*
X165795506Y-69380537D01*
X165905820Y-69439502D01*
X166025518Y-69475812D01*
X166150000Y-69488072D01*
X167850000Y-69488072D01*
X167974482Y-69475812D01*
X168094180Y-69439502D01*
X168204494Y-69380537D01*
X168301185Y-69301185D01*
X168380537Y-69204494D01*
X168439502Y-69094180D01*
X168475812Y-68974482D01*
X168488072Y-68850000D01*
X168488072Y-67150000D01*
X168475812Y-67025518D01*
X168439502Y-66905820D01*
X168380537Y-66795506D01*
X168301185Y-66698815D01*
X168204494Y-66619463D01*
X168094180Y-66560498D01*
X167974482Y-66524188D01*
X167850000Y-66511928D01*
X166150000Y-66511928D01*
X166025518Y-66524188D01*
X165905820Y-66560498D01*
X165795506Y-66619463D01*
X165698815Y-66698815D01*
X165619463Y-66795506D01*
X165560498Y-66905820D01*
X165538487Y-66978380D01*
X165406632Y-66846525D01*
X165163411Y-66684010D01*
X164893158Y-66572068D01*
X164606260Y-66515000D01*
X164313740Y-66515000D01*
X164026842Y-66572068D01*
X163756589Y-66684010D01*
X163513368Y-66846525D01*
X163306525Y-67053368D01*
X163190000Y-67227760D01*
X163073475Y-67053368D01*
X162866632Y-66846525D01*
X162623411Y-66684010D01*
X162353158Y-66572068D01*
X162066260Y-66515000D01*
X161773740Y-66515000D01*
X161486842Y-66572068D01*
X161216589Y-66684010D01*
X160973368Y-66846525D01*
X160766525Y-67053368D01*
X160650000Y-67227760D01*
X160533475Y-67053368D01*
X160326632Y-66846525D01*
X160083411Y-66684010D01*
X159813158Y-66572068D01*
X159526260Y-66515000D01*
X159233740Y-66515000D01*
X158946842Y-66572068D01*
X158676589Y-66684010D01*
X158433368Y-66846525D01*
X158226525Y-67053368D01*
X158110000Y-67227760D01*
X157993475Y-67053368D01*
X157786632Y-66846525D01*
X157543411Y-66684010D01*
X157273158Y-66572068D01*
X156986260Y-66515000D01*
X156693740Y-66515000D01*
X156406842Y-66572068D01*
X156136589Y-66684010D01*
X155893368Y-66846525D01*
X155686525Y-67053368D01*
X155570000Y-67227760D01*
X155453475Y-67053368D01*
X155246632Y-66846525D01*
X155003411Y-66684010D01*
X154733158Y-66572068D01*
X154446260Y-66515000D01*
X154153740Y-66515000D01*
X153866842Y-66572068D01*
X153596589Y-66684010D01*
X153353368Y-66846525D01*
X153146525Y-67053368D01*
X153030000Y-67227760D01*
X152913475Y-67053368D01*
X152706632Y-66846525D01*
X152463411Y-66684010D01*
X152193158Y-66572068D01*
X151906260Y-66515000D01*
X151613740Y-66515000D01*
X151326842Y-66572068D01*
X151056589Y-66684010D01*
X150813368Y-66846525D01*
X150606525Y-67053368D01*
X150484805Y-67235534D01*
X150415178Y-67118645D01*
X150220269Y-66902412D01*
X149986920Y-66728359D01*
X149724099Y-66603175D01*
X149576890Y-66558524D01*
X149347000Y-66679845D01*
X149093000Y-66679845D01*
X148863110Y-66558524D01*
X148715901Y-66603175D01*
X148453080Y-66728359D01*
X148219731Y-66902412D01*
X148024822Y-67118645D01*
X147875843Y-67368748D01*
X147778519Y-67643109D01*
X143127000Y-67643109D01*
X143127000Y-66127000D01*
X178873000Y-66127000D01*
X178873000Y-100613334D01*
X178485750Y-100615000D01*
X178327000Y-100773750D01*
X178327000Y-103373000D01*
X178347000Y-103373000D01*
X178347000Y-103627000D01*
X178327000Y-103627000D01*
X178327000Y-106226250D01*
X178485750Y-106385000D01*
X178873000Y-106386666D01*
X178873000Y-108873000D01*
X178088072Y-108873000D01*
X178088072Y-107200000D01*
X178075812Y-107075518D01*
X178039502Y-106955820D01*
X177980537Y-106845506D01*
X177901185Y-106748815D01*
X177804494Y-106669463D01*
X177694180Y-106610498D01*
X177574482Y-106574188D01*
X177450000Y-106561928D01*
X172950000Y-106561928D01*
X172825518Y-106574188D01*
X172705820Y-106610498D01*
X172595506Y-106669463D01*
X172498815Y-106748815D01*
X172419463Y-106845506D01*
X172360498Y-106955820D01*
X172324188Y-107075518D01*
X172311928Y-107200000D01*
X172311928Y-108873000D01*
X156556414Y-108873000D01*
X156659774Y-108803937D01*
X156803937Y-108659774D01*
X156917205Y-108490256D01*
X156995226Y-108301898D01*
X157035000Y-108101939D01*
X157035000Y-107898061D01*
X156995226Y-107698102D01*
X156917205Y-107509744D01*
X156803937Y-107340226D01*
X156659774Y-107196063D01*
X156490256Y-107082795D01*
X156301898Y-107004774D01*
X156101939Y-106965000D01*
X155898061Y-106965000D01*
X155698102Y-107004774D01*
X155509744Y-107082795D01*
X155340226Y-107196063D01*
X155196063Y-107340226D01*
X155082795Y-107509744D01*
X155004774Y-107698102D01*
X154965000Y-107898061D01*
X154965000Y-108101939D01*
X155004774Y-108301898D01*
X155082795Y-108490256D01*
X155196063Y-108659774D01*
X155340226Y-108803937D01*
X155443586Y-108873000D01*
X86127000Y-108873000D01*
X86127000Y-106827000D01*
X93865000Y-106827000D01*
X93865000Y-107102000D01*
X93911585Y-107320987D01*
X93999997Y-107526678D01*
X94126839Y-107711169D01*
X94287236Y-107867369D01*
X94475024Y-107989276D01*
X94698126Y-108069119D01*
X94873000Y-107942954D01*
X94873000Y-106827000D01*
X95127000Y-106827000D01*
X95127000Y-107942954D01*
X95301874Y-108069119D01*
X95524976Y-107989276D01*
X95712764Y-107867369D01*
X95873161Y-107711169D01*
X96000003Y-107526678D01*
X96088415Y-107320987D01*
X96135000Y-107102000D01*
X96135000Y-106827000D01*
X100865000Y-106827000D01*
X100865000Y-107102000D01*
X100911585Y-107320987D01*
X100999997Y-107526678D01*
X101126839Y-107711169D01*
X101287236Y-107867369D01*
X101475024Y-107989276D01*
X101698126Y-108069119D01*
X101873000Y-107942954D01*
X101873000Y-106827000D01*
X102127000Y-106827000D01*
X102127000Y-107942954D01*
X102301874Y-108069119D01*
X102524976Y-107989276D01*
X102712764Y-107867369D01*
X102873161Y-107711169D01*
X103000003Y-107526678D01*
X103088415Y-107320987D01*
X103135000Y-107102000D01*
X103135000Y-106827000D01*
X102127000Y-106827000D01*
X101873000Y-106827000D01*
X100865000Y-106827000D01*
X96135000Y-106827000D01*
X95127000Y-106827000D01*
X94873000Y-106827000D01*
X93865000Y-106827000D01*
X86127000Y-106827000D01*
X86127000Y-106718061D01*
X111745000Y-106718061D01*
X111745000Y-106921939D01*
X111784774Y-107121898D01*
X111862795Y-107310256D01*
X111976063Y-107479774D01*
X112120226Y-107623937D01*
X112289744Y-107737205D01*
X112478102Y-107815226D01*
X112678061Y-107855000D01*
X112881939Y-107855000D01*
X113081898Y-107815226D01*
X113270256Y-107737205D01*
X113439774Y-107623937D01*
X113583937Y-107479774D01*
X113697205Y-107310256D01*
X113775226Y-107121898D01*
X113815000Y-106921939D01*
X113815000Y-106718061D01*
X113775226Y-106518102D01*
X113697205Y-106329744D01*
X113583937Y-106160226D01*
X113439774Y-106016063D01*
X113270256Y-105902795D01*
X113081898Y-105824774D01*
X112881939Y-105785000D01*
X112678061Y-105785000D01*
X112478102Y-105824774D01*
X112289744Y-105902795D01*
X112120226Y-106016063D01*
X111976063Y-106160226D01*
X111862795Y-106329744D01*
X111784774Y-106518102D01*
X111745000Y-106718061D01*
X86127000Y-106718061D01*
X86127000Y-106298000D01*
X93865000Y-106298000D01*
X93865000Y-106573000D01*
X94873000Y-106573000D01*
X94873000Y-105457046D01*
X95127000Y-105457046D01*
X95127000Y-106573000D01*
X96135000Y-106573000D01*
X96135000Y-106298000D01*
X100865000Y-106298000D01*
X100865000Y-106573000D01*
X101873000Y-106573000D01*
X101873000Y-105457046D01*
X102127000Y-105457046D01*
X102127000Y-106573000D01*
X103135000Y-106573000D01*
X103135000Y-106298000D01*
X103088415Y-106079013D01*
X103000003Y-105873322D01*
X102873161Y-105688831D01*
X102712764Y-105532631D01*
X102524976Y-105410724D01*
X102468954Y-105390675D01*
X129990000Y-105390675D01*
X129990000Y-105609325D01*
X130032657Y-105823775D01*
X130116331Y-106025782D01*
X130237807Y-106207584D01*
X130392416Y-106362193D01*
X130574218Y-106483669D01*
X130776225Y-106567343D01*
X130990675Y-106610000D01*
X131209325Y-106610000D01*
X131423775Y-106567343D01*
X131625782Y-106483669D01*
X131807584Y-106362193D01*
X131962193Y-106207584D01*
X132083669Y-106025782D01*
X132167343Y-105823775D01*
X132210000Y-105609325D01*
X132210000Y-105390675D01*
X136790000Y-105390675D01*
X136790000Y-105609325D01*
X136832657Y-105823775D01*
X136916331Y-106025782D01*
X137037807Y-106207584D01*
X137192416Y-106362193D01*
X137374218Y-106483669D01*
X137576225Y-106567343D01*
X137790675Y-106610000D01*
X138009325Y-106610000D01*
X138223775Y-106567343D01*
X138425782Y-106483669D01*
X138580933Y-106380000D01*
X163357319Y-106380000D01*
X163387970Y-106691204D01*
X163478745Y-106990449D01*
X163626155Y-107266235D01*
X163824537Y-107507963D01*
X164066265Y-107706345D01*
X164342051Y-107853755D01*
X164641296Y-107944530D01*
X164874514Y-107967500D01*
X165125486Y-107967500D01*
X165358704Y-107944530D01*
X165657949Y-107853755D01*
X165933735Y-107706345D01*
X166175463Y-107507963D01*
X166373845Y-107266235D01*
X166521255Y-106990449D01*
X166612030Y-106691204D01*
X166642681Y-106380000D01*
X166612030Y-106068796D01*
X166521255Y-105769551D01*
X166373845Y-105493765D01*
X166175463Y-105252037D01*
X165996101Y-105104837D01*
X166181315Y-104949437D01*
X166375969Y-104706923D01*
X166519571Y-104431094D01*
X166590563Y-104212980D01*
X166470594Y-103967000D01*
X165127000Y-103967000D01*
X165127000Y-103987000D01*
X164873000Y-103987000D01*
X164873000Y-103967000D01*
X163529406Y-103967000D01*
X163409437Y-104212980D01*
X163480429Y-104431094D01*
X163624031Y-104706923D01*
X163818685Y-104949437D01*
X164003899Y-105104837D01*
X163824537Y-105252037D01*
X163626155Y-105493765D01*
X163478745Y-105769551D01*
X163387970Y-106068796D01*
X163357319Y-106380000D01*
X138580933Y-106380000D01*
X138607584Y-106362193D01*
X138762193Y-106207584D01*
X138883669Y-106025782D01*
X138967343Y-105823775D01*
X139010000Y-105609325D01*
X139010000Y-105390675D01*
X138967343Y-105176225D01*
X138883669Y-104974218D01*
X138762193Y-104792416D01*
X138607584Y-104637807D01*
X138425782Y-104516331D01*
X138223775Y-104432657D01*
X138009325Y-104390000D01*
X137790675Y-104390000D01*
X137576225Y-104432657D01*
X137374218Y-104516331D01*
X137192416Y-104637807D01*
X137037807Y-104792416D01*
X136916331Y-104974218D01*
X136832657Y-105176225D01*
X136790000Y-105390675D01*
X132210000Y-105390675D01*
X132167343Y-105176225D01*
X132083669Y-104974218D01*
X131962193Y-104792416D01*
X131807584Y-104637807D01*
X131625782Y-104516331D01*
X131423775Y-104432657D01*
X131209325Y-104390000D01*
X130990675Y-104390000D01*
X130776225Y-104432657D01*
X130574218Y-104516331D01*
X130392416Y-104637807D01*
X130237807Y-104792416D01*
X130116331Y-104974218D01*
X130032657Y-105176225D01*
X129990000Y-105390675D01*
X102468954Y-105390675D01*
X102301874Y-105330881D01*
X102127000Y-105457046D01*
X101873000Y-105457046D01*
X101698126Y-105330881D01*
X101475024Y-105410724D01*
X101287236Y-105532631D01*
X101126839Y-105688831D01*
X100999997Y-105873322D01*
X100911585Y-106079013D01*
X100865000Y-106298000D01*
X96135000Y-106298000D01*
X96088415Y-106079013D01*
X96000003Y-105873322D01*
X95873161Y-105688831D01*
X95712764Y-105532631D01*
X95524976Y-105410724D01*
X95301874Y-105330881D01*
X95127000Y-105457046D01*
X94873000Y-105457046D01*
X94698126Y-105330881D01*
X94475024Y-105410724D01*
X94287236Y-105532631D01*
X94126839Y-105688831D01*
X93999997Y-105873322D01*
X93911585Y-106079013D01*
X93865000Y-106298000D01*
X86127000Y-106298000D01*
X86127000Y-104297938D01*
X94780732Y-104297938D01*
X94850397Y-104486150D01*
X94964447Y-104671822D01*
X95112529Y-104831676D01*
X95288951Y-104959569D01*
X95486934Y-105050586D01*
X95698869Y-105101230D01*
X95873000Y-104952564D01*
X95873000Y-104127000D01*
X96127000Y-104127000D01*
X96127000Y-104952564D01*
X96301131Y-105101230D01*
X96513066Y-105050586D01*
X96711049Y-104959569D01*
X96887471Y-104831676D01*
X97035553Y-104671822D01*
X97149603Y-104486150D01*
X97219268Y-104297938D01*
X99780732Y-104297938D01*
X99850397Y-104486150D01*
X99964447Y-104671822D01*
X100112529Y-104831676D01*
X100288951Y-104959569D01*
X100486934Y-105050586D01*
X100698869Y-105101230D01*
X100873000Y-104952564D01*
X100873000Y-104127000D01*
X101127000Y-104127000D01*
X101127000Y-104952564D01*
X101301131Y-105101230D01*
X101513066Y-105050586D01*
X101711049Y-104959569D01*
X101887471Y-104831676D01*
X102035553Y-104671822D01*
X102149603Y-104486150D01*
X102219268Y-104297938D01*
X102092734Y-104127000D01*
X101127000Y-104127000D01*
X100873000Y-104127000D01*
X99907266Y-104127000D01*
X99780732Y-104297938D01*
X97219268Y-104297938D01*
X97092734Y-104127000D01*
X96127000Y-104127000D01*
X95873000Y-104127000D01*
X94907266Y-104127000D01*
X94780732Y-104297938D01*
X86127000Y-104297938D01*
X86127000Y-103702062D01*
X94780732Y-103702062D01*
X94907266Y-103873000D01*
X95873000Y-103873000D01*
X95873000Y-103047436D01*
X96127000Y-103047436D01*
X96127000Y-103873000D01*
X97092734Y-103873000D01*
X97219268Y-103702062D01*
X99780732Y-103702062D01*
X99907266Y-103873000D01*
X100873000Y-103873000D01*
X100873000Y-103047436D01*
X101127000Y-103047436D01*
X101127000Y-103873000D01*
X102092734Y-103873000D01*
X102219268Y-103702062D01*
X102183378Y-103605098D01*
X145955000Y-103605098D01*
X145955000Y-104074902D01*
X146046654Y-104535679D01*
X146226440Y-104969721D01*
X146487450Y-105360349D01*
X146819651Y-105692550D01*
X147210279Y-105953560D01*
X147644321Y-106133346D01*
X148105098Y-106225000D01*
X148574902Y-106225000D01*
X149035679Y-106133346D01*
X149469721Y-105953560D01*
X149860349Y-105692550D01*
X150192550Y-105360349D01*
X150453560Y-104969721D01*
X150633346Y-104535679D01*
X150725000Y-104074902D01*
X150725000Y-103605098D01*
X150633346Y-103144321D01*
X150453560Y-102710279D01*
X150192550Y-102319651D01*
X149860349Y-101987450D01*
X149469721Y-101726440D01*
X149035679Y-101546654D01*
X148574902Y-101455000D01*
X148105098Y-101455000D01*
X147644321Y-101546654D01*
X147210279Y-101726440D01*
X146819651Y-101987450D01*
X146487450Y-102319651D01*
X146226440Y-102710279D01*
X146046654Y-103144321D01*
X145955000Y-103605098D01*
X102183378Y-103605098D01*
X102149603Y-103513850D01*
X102035553Y-103328178D01*
X101887471Y-103168324D01*
X101711049Y-103040431D01*
X101513066Y-102949414D01*
X101301131Y-102898770D01*
X101127000Y-103047436D01*
X100873000Y-103047436D01*
X100698869Y-102898770D01*
X100486934Y-102949414D01*
X100288951Y-103040431D01*
X100112529Y-103168324D01*
X99964447Y-103328178D01*
X99850397Y-103513850D01*
X99780732Y-103702062D01*
X97219268Y-103702062D01*
X97149603Y-103513850D01*
X97035553Y-103328178D01*
X96887471Y-103168324D01*
X96711049Y-103040431D01*
X96513066Y-102949414D01*
X96301131Y-102898770D01*
X96127000Y-103047436D01*
X95873000Y-103047436D01*
X95698869Y-102898770D01*
X95486934Y-102949414D01*
X95288951Y-103040431D01*
X95112529Y-103168324D01*
X94964447Y-103328178D01*
X94850397Y-103513850D01*
X94780732Y-103702062D01*
X86127000Y-103702062D01*
X86127000Y-100343192D01*
X113310131Y-100343192D01*
X113310131Y-100547070D01*
X113349905Y-100747029D01*
X113427926Y-100935387D01*
X113541194Y-101104905D01*
X113685357Y-101249068D01*
X113854875Y-101362336D01*
X114043233Y-101440357D01*
X114243192Y-101480131D01*
X114447070Y-101480131D01*
X114647029Y-101440357D01*
X114835387Y-101362336D01*
X115004905Y-101249068D01*
X115149068Y-101104905D01*
X115262336Y-100935387D01*
X115340357Y-100747029D01*
X115380131Y-100547070D01*
X115380131Y-100343192D01*
X115340357Y-100143233D01*
X115262336Y-99954875D01*
X115149068Y-99785357D01*
X115004905Y-99641194D01*
X114835387Y-99527926D01*
X114647029Y-99449905D01*
X114447070Y-99410131D01*
X114243192Y-99410131D01*
X114043233Y-99449905D01*
X113854875Y-99527926D01*
X113685357Y-99641194D01*
X113541194Y-99785357D01*
X113427926Y-99954875D01*
X113349905Y-100143233D01*
X113310131Y-100343192D01*
X86127000Y-100343192D01*
X86127000Y-98898061D01*
X114965000Y-98898061D01*
X114965000Y-99101939D01*
X115004774Y-99301898D01*
X115082795Y-99490256D01*
X115196063Y-99659774D01*
X115340226Y-99803937D01*
X115509744Y-99917205D01*
X115698102Y-99995226D01*
X115898061Y-100035000D01*
X116101939Y-100035000D01*
X116111430Y-100033112D01*
X116167722Y-100117358D01*
X116009744Y-100182795D01*
X115840226Y-100296063D01*
X115696063Y-100440226D01*
X115582795Y-100609744D01*
X115504774Y-100798102D01*
X115465000Y-100998061D01*
X115465000Y-101201939D01*
X115504774Y-101401898D01*
X115582795Y-101590256D01*
X115696063Y-101759774D01*
X115840226Y-101903937D01*
X116009744Y-102017205D01*
X116198102Y-102095226D01*
X116398061Y-102135000D01*
X116601939Y-102135000D01*
X116801898Y-102095226D01*
X116990256Y-102017205D01*
X117159774Y-101903937D01*
X117303937Y-101759774D01*
X117417205Y-101590256D01*
X117495226Y-101401898D01*
X117535000Y-101201939D01*
X117535000Y-100998061D01*
X117495226Y-100798102D01*
X117417205Y-100609744D01*
X117332278Y-100482642D01*
X117490256Y-100417205D01*
X117659774Y-100303937D01*
X117803937Y-100159774D01*
X117917205Y-99990256D01*
X117995226Y-99801898D01*
X118035000Y-99601939D01*
X118035000Y-99476967D01*
X119997000Y-99476967D01*
X119997000Y-99799033D01*
X120059832Y-100114912D01*
X120183082Y-100412463D01*
X120362013Y-100680252D01*
X120589748Y-100907987D01*
X120857537Y-101086918D01*
X121155088Y-101210168D01*
X121470967Y-101273000D01*
X121793033Y-101273000D01*
X122108912Y-101210168D01*
X122406463Y-101086918D01*
X122674252Y-100907987D01*
X122901987Y-100680252D01*
X123080918Y-100412463D01*
X123204168Y-100114912D01*
X123249261Y-99888212D01*
X155865000Y-99888212D01*
X155865000Y-100111788D01*
X155908617Y-100331067D01*
X155994176Y-100537624D01*
X156118388Y-100723520D01*
X156276480Y-100881612D01*
X156462376Y-101005824D01*
X156668933Y-101091383D01*
X156888212Y-101135000D01*
X157111788Y-101135000D01*
X157331067Y-101091383D01*
X157537624Y-101005824D01*
X157723520Y-100881612D01*
X157881612Y-100723520D01*
X158005824Y-100537624D01*
X158084576Y-100347500D01*
X163361928Y-100347500D01*
X163361928Y-102252500D01*
X163374188Y-102376982D01*
X163410498Y-102496680D01*
X163469463Y-102606994D01*
X163548815Y-102703685D01*
X163645506Y-102783037D01*
X163737219Y-102832059D01*
X163624031Y-102973077D01*
X163480429Y-103248906D01*
X163409437Y-103467020D01*
X163529406Y-103713000D01*
X164873000Y-103713000D01*
X164873000Y-103693000D01*
X165127000Y-103693000D01*
X165127000Y-103713000D01*
X166470594Y-103713000D01*
X166590563Y-103467020D01*
X166519571Y-103248906D01*
X166375969Y-102973077D01*
X166262781Y-102832059D01*
X166354494Y-102783037D01*
X166451185Y-102703685D01*
X166530537Y-102606994D01*
X166589502Y-102496680D01*
X166625812Y-102376982D01*
X166638072Y-102252500D01*
X166638072Y-100347500D01*
X166625812Y-100223018D01*
X166589502Y-100103320D01*
X166530537Y-99993006D01*
X166451185Y-99896315D01*
X166354494Y-99816963D01*
X166244180Y-99757998D01*
X166124482Y-99721688D01*
X166000000Y-99709428D01*
X164000000Y-99709428D01*
X163875518Y-99721688D01*
X163755820Y-99757998D01*
X163645506Y-99816963D01*
X163548815Y-99896315D01*
X163469463Y-99993006D01*
X163410498Y-100103320D01*
X163374188Y-100223018D01*
X163361928Y-100347500D01*
X158084576Y-100347500D01*
X158091383Y-100331067D01*
X158135000Y-100111788D01*
X158135000Y-99888212D01*
X158091383Y-99668933D01*
X158011868Y-99476967D01*
X166733000Y-99476967D01*
X166733000Y-99799033D01*
X166795832Y-100114912D01*
X166919082Y-100412463D01*
X167098013Y-100680252D01*
X167325748Y-100907987D01*
X167593537Y-101086918D01*
X167891088Y-101210168D01*
X168206967Y-101273000D01*
X168529033Y-101273000D01*
X168644662Y-101250000D01*
X170561928Y-101250000D01*
X170561928Y-105750000D01*
X170574188Y-105874482D01*
X170610498Y-105994180D01*
X170669463Y-106104494D01*
X170748815Y-106201185D01*
X170845506Y-106280537D01*
X170955820Y-106339502D01*
X171075518Y-106375812D01*
X171200000Y-106388072D01*
X173200000Y-106388072D01*
X173324482Y-106375812D01*
X173444180Y-106339502D01*
X173554494Y-106280537D01*
X173651185Y-106201185D01*
X173730537Y-106104494D01*
X173789502Y-105994180D01*
X173825812Y-105874482D01*
X173838072Y-105750000D01*
X176561928Y-105750000D01*
X176574188Y-105874482D01*
X176610498Y-105994180D01*
X176669463Y-106104494D01*
X176748815Y-106201185D01*
X176845506Y-106280537D01*
X176955820Y-106339502D01*
X177075518Y-106375812D01*
X177200000Y-106388072D01*
X177914250Y-106385000D01*
X178073000Y-106226250D01*
X178073000Y-103627000D01*
X176723750Y-103627000D01*
X176565000Y-103785750D01*
X176561928Y-105750000D01*
X173838072Y-105750000D01*
X173838072Y-101250000D01*
X176561928Y-101250000D01*
X176565000Y-103214250D01*
X176723750Y-103373000D01*
X178073000Y-103373000D01*
X178073000Y-100773750D01*
X177914250Y-100615000D01*
X177200000Y-100611928D01*
X177075518Y-100624188D01*
X176955820Y-100660498D01*
X176845506Y-100719463D01*
X176748815Y-100798815D01*
X176669463Y-100895506D01*
X176610498Y-101005820D01*
X176574188Y-101125518D01*
X176561928Y-101250000D01*
X173838072Y-101250000D01*
X173825812Y-101125518D01*
X173789502Y-101005820D01*
X173730537Y-100895506D01*
X173651185Y-100798815D01*
X173554494Y-100719463D01*
X173444180Y-100660498D01*
X173324482Y-100624188D01*
X173200000Y-100611928D01*
X171200000Y-100611928D01*
X171075518Y-100624188D01*
X170955820Y-100660498D01*
X170845506Y-100719463D01*
X170748815Y-100798815D01*
X170669463Y-100895506D01*
X170610498Y-101005820D01*
X170574188Y-101125518D01*
X170561928Y-101250000D01*
X168644662Y-101250000D01*
X168844912Y-101210168D01*
X169142463Y-101086918D01*
X169410252Y-100907987D01*
X169637987Y-100680252D01*
X169816918Y-100412463D01*
X169940168Y-100114912D01*
X170003000Y-99799033D01*
X170003000Y-99476967D01*
X169940168Y-99161088D01*
X169816918Y-98863537D01*
X169637987Y-98595748D01*
X169410252Y-98368013D01*
X169142463Y-98189082D01*
X168844912Y-98065832D01*
X168529033Y-98003000D01*
X168206967Y-98003000D01*
X167891088Y-98065832D01*
X167593537Y-98189082D01*
X167325748Y-98368013D01*
X167098013Y-98595748D01*
X166919082Y-98863537D01*
X166795832Y-99161088D01*
X166733000Y-99476967D01*
X158011868Y-99476967D01*
X158005824Y-99462376D01*
X157881612Y-99276480D01*
X157723520Y-99118388D01*
X157537624Y-98994176D01*
X157331067Y-98908617D01*
X157111788Y-98865000D01*
X156888212Y-98865000D01*
X156668933Y-98908617D01*
X156462376Y-98994176D01*
X156276480Y-99118388D01*
X156118388Y-99276480D01*
X155994176Y-99462376D01*
X155908617Y-99668933D01*
X155865000Y-99888212D01*
X123249261Y-99888212D01*
X123267000Y-99799033D01*
X123267000Y-99476967D01*
X123204168Y-99161088D01*
X123080918Y-98863537D01*
X122901987Y-98595748D01*
X122674252Y-98368013D01*
X122406463Y-98189082D01*
X122108912Y-98065832D01*
X121793033Y-98003000D01*
X121470967Y-98003000D01*
X121155088Y-98065832D01*
X120857537Y-98189082D01*
X120589748Y-98368013D01*
X120362013Y-98595748D01*
X120183082Y-98863537D01*
X120059832Y-99161088D01*
X119997000Y-99476967D01*
X118035000Y-99476967D01*
X118035000Y-99398061D01*
X117995226Y-99198102D01*
X117917205Y-99009744D01*
X117803937Y-98840226D01*
X117659774Y-98696063D01*
X117490256Y-98582795D01*
X117301898Y-98504774D01*
X117101939Y-98465000D01*
X116898061Y-98465000D01*
X116888570Y-98466888D01*
X116803937Y-98340226D01*
X116659774Y-98196063D01*
X116490256Y-98082795D01*
X116301898Y-98004774D01*
X116101939Y-97965000D01*
X115898061Y-97965000D01*
X115698102Y-98004774D01*
X115509744Y-98082795D01*
X115340226Y-98196063D01*
X115196063Y-98340226D01*
X115082795Y-98509744D01*
X115004774Y-98698102D01*
X114965000Y-98898061D01*
X86127000Y-98898061D01*
X86127000Y-96556891D01*
X173318519Y-96556891D01*
X173415843Y-96831252D01*
X173564822Y-97081355D01*
X173759731Y-97297588D01*
X173993080Y-97471641D01*
X174255901Y-97596825D01*
X174403110Y-97641476D01*
X174633000Y-97520155D01*
X174633000Y-96327000D01*
X173439186Y-96327000D01*
X173318519Y-96556891D01*
X86127000Y-96556891D01*
X86127000Y-94638967D01*
X96165000Y-94638967D01*
X96165000Y-94961033D01*
X96227832Y-95276912D01*
X96351082Y-95574463D01*
X96530013Y-95842252D01*
X96757748Y-96069987D01*
X97025537Y-96248918D01*
X97323088Y-96372168D01*
X97638967Y-96435000D01*
X97961033Y-96435000D01*
X98276912Y-96372168D01*
X98574463Y-96248918D01*
X98842252Y-96069987D01*
X99069987Y-95842252D01*
X99248918Y-95574463D01*
X99372168Y-95276912D01*
X99435000Y-94961033D01*
X99435000Y-94638967D01*
X101165000Y-94638967D01*
X101165000Y-94961033D01*
X101227832Y-95276912D01*
X101351082Y-95574463D01*
X101530013Y-95842252D01*
X101757748Y-96069987D01*
X102025537Y-96248918D01*
X102323088Y-96372168D01*
X102638967Y-96435000D01*
X102961033Y-96435000D01*
X103276912Y-96372168D01*
X103574463Y-96248918D01*
X103842252Y-96069987D01*
X104069987Y-95842252D01*
X104248918Y-95574463D01*
X104372168Y-95276912D01*
X104435000Y-94961033D01*
X104435000Y-94638967D01*
X104387082Y-94398061D01*
X118465000Y-94398061D01*
X118465000Y-94601939D01*
X118504774Y-94801898D01*
X118582795Y-94990256D01*
X118696063Y-95159774D01*
X118840226Y-95303937D01*
X119009744Y-95417205D01*
X119198102Y-95495226D01*
X119398061Y-95535000D01*
X119601939Y-95535000D01*
X119801898Y-95495226D01*
X119990256Y-95417205D01*
X120159774Y-95303937D01*
X120303937Y-95159774D01*
X120417205Y-94990256D01*
X120434682Y-94948061D01*
X132765000Y-94948061D01*
X132765000Y-95151939D01*
X132804774Y-95351898D01*
X132882795Y-95540256D01*
X132996063Y-95709774D01*
X133140226Y-95853937D01*
X133309744Y-95967205D01*
X133498102Y-96045226D01*
X133698061Y-96085000D01*
X133901939Y-96085000D01*
X134101898Y-96045226D01*
X134290256Y-95967205D01*
X134459774Y-95853937D01*
X134470602Y-95843109D01*
X173318519Y-95843109D01*
X173439186Y-96073000D01*
X174633000Y-96073000D01*
X174633000Y-94879845D01*
X174887000Y-94879845D01*
X174887000Y-96073000D01*
X174907000Y-96073000D01*
X174907000Y-96327000D01*
X174887000Y-96327000D01*
X174887000Y-97520155D01*
X175116890Y-97641476D01*
X175264099Y-97596825D01*
X175526920Y-97471641D01*
X175760269Y-97297588D01*
X175836034Y-97213534D01*
X175860498Y-97294180D01*
X175919463Y-97404494D01*
X175998815Y-97501185D01*
X176095506Y-97580537D01*
X176205820Y-97639502D01*
X176325518Y-97675812D01*
X176450000Y-97688072D01*
X178150000Y-97688072D01*
X178274482Y-97675812D01*
X178394180Y-97639502D01*
X178504494Y-97580537D01*
X178601185Y-97501185D01*
X178680537Y-97404494D01*
X178739502Y-97294180D01*
X178775812Y-97174482D01*
X178788072Y-97050000D01*
X178788072Y-95350000D01*
X178775812Y-95225518D01*
X178739502Y-95105820D01*
X178680537Y-94995506D01*
X178601185Y-94898815D01*
X178504494Y-94819463D01*
X178394180Y-94760498D01*
X178274482Y-94724188D01*
X178150000Y-94711928D01*
X176450000Y-94711928D01*
X176325518Y-94724188D01*
X176205820Y-94760498D01*
X176095506Y-94819463D01*
X175998815Y-94898815D01*
X175919463Y-94995506D01*
X175860498Y-95105820D01*
X175836034Y-95186466D01*
X175760269Y-95102412D01*
X175526920Y-94928359D01*
X175264099Y-94803175D01*
X175116890Y-94758524D01*
X174887000Y-94879845D01*
X174633000Y-94879845D01*
X174403110Y-94758524D01*
X174255901Y-94803175D01*
X173993080Y-94928359D01*
X173759731Y-95102412D01*
X173564822Y-95318645D01*
X173415843Y-95568748D01*
X173318519Y-95843109D01*
X134470602Y-95843109D01*
X134603937Y-95709774D01*
X134717205Y-95540256D01*
X134795226Y-95351898D01*
X134835000Y-95151939D01*
X134835000Y-94948061D01*
X134802566Y-94785000D01*
X156576928Y-94785000D01*
X156589188Y-94909482D01*
X156625498Y-95029180D01*
X156684463Y-95139494D01*
X156763815Y-95236185D01*
X156860506Y-95315537D01*
X156970820Y-95374502D01*
X157090518Y-95410812D01*
X157215000Y-95423072D01*
X158014250Y-95420000D01*
X158173000Y-95261250D01*
X158173000Y-93827000D01*
X158427000Y-93827000D01*
X158427000Y-95261250D01*
X158585750Y-95420000D01*
X159385000Y-95423072D01*
X159509482Y-95410812D01*
X159629180Y-95374502D01*
X159739494Y-95315537D01*
X159836185Y-95236185D01*
X159915537Y-95139494D01*
X159974502Y-95029180D01*
X160010812Y-94909482D01*
X160023072Y-94785000D01*
X160020000Y-93985750D01*
X159861250Y-93827000D01*
X158427000Y-93827000D01*
X158173000Y-93827000D01*
X156738750Y-93827000D01*
X156580000Y-93985750D01*
X156576928Y-94785000D01*
X134802566Y-94785000D01*
X134795226Y-94748102D01*
X134717205Y-94559744D01*
X134603937Y-94390226D01*
X134459774Y-94246063D01*
X134290256Y-94132795D01*
X134101898Y-94054774D01*
X133901939Y-94015000D01*
X133698061Y-94015000D01*
X133498102Y-94054774D01*
X133309744Y-94132795D01*
X133140226Y-94246063D01*
X132996063Y-94390226D01*
X132882795Y-94559744D01*
X132804774Y-94748102D01*
X132765000Y-94948061D01*
X120434682Y-94948061D01*
X120495226Y-94801898D01*
X120535000Y-94601939D01*
X120535000Y-94398061D01*
X120495226Y-94198102D01*
X120417205Y-94009744D01*
X120303937Y-93840226D01*
X120159774Y-93696063D01*
X119990256Y-93582795D01*
X119801898Y-93504774D01*
X119601939Y-93465000D01*
X119398061Y-93465000D01*
X119198102Y-93504774D01*
X119009744Y-93582795D01*
X118840226Y-93696063D01*
X118696063Y-93840226D01*
X118582795Y-94009744D01*
X118504774Y-94198102D01*
X118465000Y-94398061D01*
X104387082Y-94398061D01*
X104372168Y-94323088D01*
X104248918Y-94025537D01*
X104069987Y-93757748D01*
X103842252Y-93530013D01*
X103574463Y-93351082D01*
X103276912Y-93227832D01*
X102961033Y-93165000D01*
X102638967Y-93165000D01*
X102323088Y-93227832D01*
X102025537Y-93351082D01*
X101757748Y-93530013D01*
X101530013Y-93757748D01*
X101351082Y-94025537D01*
X101227832Y-94323088D01*
X101165000Y-94638967D01*
X99435000Y-94638967D01*
X99372168Y-94323088D01*
X99248918Y-94025537D01*
X99069987Y-93757748D01*
X98842252Y-93530013D01*
X98574463Y-93351082D01*
X98276912Y-93227832D01*
X97961033Y-93165000D01*
X97638967Y-93165000D01*
X97323088Y-93227832D01*
X97025537Y-93351082D01*
X96757748Y-93530013D01*
X96530013Y-93757748D01*
X96351082Y-94025537D01*
X96227832Y-94323088D01*
X96165000Y-94638967D01*
X86127000Y-94638967D01*
X86127000Y-91898061D01*
X108965000Y-91898061D01*
X108965000Y-92101939D01*
X109004774Y-92301898D01*
X109082795Y-92490256D01*
X109196063Y-92659774D01*
X109340226Y-92803937D01*
X109509744Y-92917205D01*
X109698102Y-92995226D01*
X109898061Y-93035000D01*
X110101939Y-93035000D01*
X110301898Y-92995226D01*
X110490256Y-92917205D01*
X110659774Y-92803937D01*
X110803937Y-92659774D01*
X110917205Y-92490256D01*
X110995226Y-92301898D01*
X111035000Y-92101939D01*
X111035000Y-91898061D01*
X110995226Y-91698102D01*
X110917205Y-91509744D01*
X110803937Y-91340226D01*
X110659774Y-91196063D01*
X110490256Y-91082795D01*
X110301898Y-91004774D01*
X110101939Y-90965000D01*
X109898061Y-90965000D01*
X109698102Y-91004774D01*
X109509744Y-91082795D01*
X109340226Y-91196063D01*
X109196063Y-91340226D01*
X109082795Y-91509744D01*
X109004774Y-91698102D01*
X108965000Y-91898061D01*
X86127000Y-91898061D01*
X86127000Y-90898061D01*
X134965000Y-90898061D01*
X134965000Y-91101939D01*
X135004774Y-91301898D01*
X135082795Y-91490256D01*
X135196063Y-91659774D01*
X135340226Y-91803937D01*
X135509744Y-91917205D01*
X135638465Y-91970523D01*
X135600600Y-92027193D01*
X135522579Y-92215551D01*
X135482805Y-92415510D01*
X135482805Y-92619388D01*
X135522579Y-92819347D01*
X135600600Y-93007705D01*
X135713868Y-93177223D01*
X135858031Y-93321386D01*
X136027549Y-93434654D01*
X136215907Y-93512675D01*
X136415866Y-93552449D01*
X136619744Y-93552449D01*
X136819703Y-93512675D01*
X137008061Y-93434654D01*
X137177579Y-93321386D01*
X137321742Y-93177223D01*
X137435010Y-93007705D01*
X137513031Y-92819347D01*
X137547101Y-92648061D01*
X140015000Y-92648061D01*
X140015000Y-92851939D01*
X140054774Y-93051898D01*
X140132795Y-93240256D01*
X140246063Y-93409774D01*
X140390226Y-93553937D01*
X140559744Y-93667205D01*
X140748102Y-93745226D01*
X140948061Y-93785000D01*
X141151939Y-93785000D01*
X141351898Y-93745226D01*
X141540256Y-93667205D01*
X141709774Y-93553937D01*
X141853937Y-93409774D01*
X141967205Y-93240256D01*
X142045226Y-93051898D01*
X142085000Y-92851939D01*
X142085000Y-92648061D01*
X142045226Y-92448102D01*
X141967205Y-92259744D01*
X141925990Y-92198061D01*
X150065000Y-92198061D01*
X150065000Y-92401939D01*
X150104774Y-92601898D01*
X150182795Y-92790256D01*
X150296063Y-92959774D01*
X150440226Y-93103937D01*
X150609744Y-93217205D01*
X150798102Y-93295226D01*
X150998061Y-93335000D01*
X151201939Y-93335000D01*
X151401898Y-93295226D01*
X151590256Y-93217205D01*
X151759774Y-93103937D01*
X151903937Y-92959774D01*
X152017205Y-92790256D01*
X152089798Y-92615000D01*
X156576928Y-92615000D01*
X156580000Y-93414250D01*
X156738750Y-93573000D01*
X158173000Y-93573000D01*
X158173000Y-92138750D01*
X158427000Y-92138750D01*
X158427000Y-93573000D01*
X159861250Y-93573000D01*
X160020000Y-93414250D01*
X160023072Y-92615000D01*
X160010812Y-92490518D01*
X159974502Y-92370820D01*
X159915537Y-92260506D01*
X159836185Y-92163815D01*
X159739494Y-92084463D01*
X159629180Y-92025498D01*
X159509482Y-91989188D01*
X159385000Y-91976928D01*
X158585750Y-91980000D01*
X158427000Y-92138750D01*
X158173000Y-92138750D01*
X158014250Y-91980000D01*
X157215000Y-91976928D01*
X157090518Y-91989188D01*
X156970820Y-92025498D01*
X156860506Y-92084463D01*
X156763815Y-92163815D01*
X156684463Y-92260506D01*
X156625498Y-92370820D01*
X156589188Y-92490518D01*
X156576928Y-92615000D01*
X152089798Y-92615000D01*
X152095226Y-92601898D01*
X152135000Y-92401939D01*
X152135000Y-92198061D01*
X152095226Y-91998102D01*
X152017205Y-91809744D01*
X151903937Y-91640226D01*
X151759774Y-91496063D01*
X151590256Y-91382795D01*
X151401898Y-91304774D01*
X151201939Y-91265000D01*
X150998061Y-91265000D01*
X150798102Y-91304774D01*
X150609744Y-91382795D01*
X150440226Y-91496063D01*
X150296063Y-91640226D01*
X150182795Y-91809744D01*
X150104774Y-91998102D01*
X150065000Y-92198061D01*
X141925990Y-92198061D01*
X141853937Y-92090226D01*
X141709774Y-91946063D01*
X141540256Y-91832795D01*
X141351898Y-91754774D01*
X141151939Y-91715000D01*
X140948061Y-91715000D01*
X140748102Y-91754774D01*
X140559744Y-91832795D01*
X140390226Y-91946063D01*
X140246063Y-92090226D01*
X140132795Y-92259744D01*
X140054774Y-92448102D01*
X140015000Y-92648061D01*
X137547101Y-92648061D01*
X137552805Y-92619388D01*
X137552805Y-92415510D01*
X137513031Y-92215551D01*
X137435010Y-92027193D01*
X137321742Y-91857675D01*
X137177579Y-91713512D01*
X137008061Y-91600244D01*
X136879340Y-91546926D01*
X136917205Y-91490256D01*
X136995226Y-91301898D01*
X137035000Y-91101939D01*
X137035000Y-90898061D01*
X136995226Y-90698102D01*
X136917205Y-90509744D01*
X136803937Y-90340226D01*
X136659774Y-90196063D01*
X136490256Y-90082795D01*
X136301898Y-90004774D01*
X136101939Y-89965000D01*
X135898061Y-89965000D01*
X135698102Y-90004774D01*
X135509744Y-90082795D01*
X135340226Y-90196063D01*
X135196063Y-90340226D01*
X135082795Y-90509744D01*
X135004774Y-90698102D01*
X134965000Y-90898061D01*
X86127000Y-90898061D01*
X86127000Y-89600000D01*
X92561928Y-89600000D01*
X92574188Y-89724482D01*
X92610498Y-89844180D01*
X92669463Y-89954494D01*
X92748815Y-90051185D01*
X92845506Y-90130537D01*
X92955820Y-90189502D01*
X93075518Y-90225812D01*
X93200000Y-90238072D01*
X94314250Y-90235000D01*
X94473000Y-90076250D01*
X94473000Y-87927000D01*
X94727000Y-87927000D01*
X94727000Y-90076250D01*
X94885750Y-90235000D01*
X96000000Y-90238072D01*
X96124482Y-90225812D01*
X96244180Y-90189502D01*
X96354494Y-90130537D01*
X96451185Y-90051185D01*
X96530537Y-89954494D01*
X96589502Y-89844180D01*
X96625812Y-89724482D01*
X96638072Y-89600000D01*
X103961928Y-89600000D01*
X103974188Y-89724482D01*
X104010498Y-89844180D01*
X104069463Y-89954494D01*
X104148815Y-90051185D01*
X104245506Y-90130537D01*
X104355820Y-90189502D01*
X104475518Y-90225812D01*
X104600000Y-90238072D01*
X105714250Y-90235000D01*
X105873000Y-90076250D01*
X105873000Y-87927000D01*
X106127000Y-87927000D01*
X106127000Y-90076250D01*
X106285750Y-90235000D01*
X107400000Y-90238072D01*
X107524482Y-90225812D01*
X107644180Y-90189502D01*
X107754494Y-90130537D01*
X107851185Y-90051185D01*
X107930537Y-89954494D01*
X107960701Y-89898061D01*
X138465000Y-89898061D01*
X138465000Y-90101939D01*
X138504774Y-90301898D01*
X138582795Y-90490256D01*
X138696063Y-90659774D01*
X138840226Y-90803937D01*
X139009744Y-90917205D01*
X139198102Y-90995226D01*
X139398061Y-91035000D01*
X139601939Y-91035000D01*
X139801898Y-90995226D01*
X139990256Y-90917205D01*
X140018907Y-90898061D01*
X153715000Y-90898061D01*
X153715000Y-91101939D01*
X153754774Y-91301898D01*
X153832795Y-91490256D01*
X153946063Y-91659774D01*
X154090226Y-91803937D01*
X154259744Y-91917205D01*
X154448102Y-91995226D01*
X154648061Y-92035000D01*
X154851939Y-92035000D01*
X155051898Y-91995226D01*
X155240256Y-91917205D01*
X155409774Y-91803937D01*
X155456820Y-91756891D01*
X173318519Y-91756891D01*
X173415843Y-92031252D01*
X173564822Y-92281355D01*
X173759731Y-92497588D01*
X173993080Y-92671641D01*
X174255901Y-92796825D01*
X174403110Y-92841476D01*
X174633000Y-92720155D01*
X174633000Y-91527000D01*
X173439186Y-91527000D01*
X173318519Y-91756891D01*
X155456820Y-91756891D01*
X155553937Y-91659774D01*
X155667205Y-91490256D01*
X155745226Y-91301898D01*
X155785000Y-91101939D01*
X155785000Y-91043109D01*
X173318519Y-91043109D01*
X173439186Y-91273000D01*
X174633000Y-91273000D01*
X174633000Y-90079845D01*
X174887000Y-90079845D01*
X174887000Y-91273000D01*
X174907000Y-91273000D01*
X174907000Y-91527000D01*
X174887000Y-91527000D01*
X174887000Y-92720155D01*
X175116890Y-92841476D01*
X175264099Y-92796825D01*
X175526920Y-92671641D01*
X175760269Y-92497588D01*
X175836034Y-92413534D01*
X175860498Y-92494180D01*
X175919463Y-92604494D01*
X175998815Y-92701185D01*
X176095506Y-92780537D01*
X176205820Y-92839502D01*
X176325518Y-92875812D01*
X176450000Y-92888072D01*
X178150000Y-92888072D01*
X178274482Y-92875812D01*
X178394180Y-92839502D01*
X178504494Y-92780537D01*
X178601185Y-92701185D01*
X178680537Y-92604494D01*
X178739502Y-92494180D01*
X178775812Y-92374482D01*
X178788072Y-92250000D01*
X178788072Y-90550000D01*
X178775812Y-90425518D01*
X178739502Y-90305820D01*
X178680537Y-90195506D01*
X178601185Y-90098815D01*
X178504494Y-90019463D01*
X178394180Y-89960498D01*
X178274482Y-89924188D01*
X178150000Y-89911928D01*
X176450000Y-89911928D01*
X176325518Y-89924188D01*
X176205820Y-89960498D01*
X176095506Y-90019463D01*
X175998815Y-90098815D01*
X175919463Y-90195506D01*
X175860498Y-90305820D01*
X175836034Y-90386466D01*
X175760269Y-90302412D01*
X175526920Y-90128359D01*
X175264099Y-90003175D01*
X175116890Y-89958524D01*
X174887000Y-90079845D01*
X174633000Y-90079845D01*
X174403110Y-89958524D01*
X174255901Y-90003175D01*
X173993080Y-90128359D01*
X173759731Y-90302412D01*
X173564822Y-90518645D01*
X173415843Y-90768748D01*
X173318519Y-91043109D01*
X155785000Y-91043109D01*
X155785000Y-90898061D01*
X155745226Y-90698102D01*
X155667205Y-90509744D01*
X155553937Y-90340226D01*
X155409774Y-90196063D01*
X155240256Y-90082795D01*
X155051898Y-90004774D01*
X154851939Y-89965000D01*
X154648061Y-89965000D01*
X154448102Y-90004774D01*
X154259744Y-90082795D01*
X154090226Y-90196063D01*
X153946063Y-90340226D01*
X153832795Y-90509744D01*
X153754774Y-90698102D01*
X153715000Y-90898061D01*
X140018907Y-90898061D01*
X140159774Y-90803937D01*
X140303937Y-90659774D01*
X140417205Y-90490256D01*
X140495226Y-90301898D01*
X140535000Y-90101939D01*
X140535000Y-89898061D01*
X140495226Y-89698102D01*
X140417205Y-89509744D01*
X140303937Y-89340226D01*
X140159774Y-89196063D01*
X139990256Y-89082795D01*
X139801898Y-89004774D01*
X139601939Y-88965000D01*
X139398061Y-88965000D01*
X139198102Y-89004774D01*
X139009744Y-89082795D01*
X138840226Y-89196063D01*
X138696063Y-89340226D01*
X138582795Y-89509744D01*
X138504774Y-89698102D01*
X138465000Y-89898061D01*
X107960701Y-89898061D01*
X107989502Y-89844180D01*
X108025812Y-89724482D01*
X108038072Y-89600000D01*
X108035000Y-88085750D01*
X107876250Y-87927000D01*
X106127000Y-87927000D01*
X105873000Y-87927000D01*
X104123750Y-87927000D01*
X103965000Y-88085750D01*
X103961928Y-89600000D01*
X96638072Y-89600000D01*
X96635000Y-88085750D01*
X96476250Y-87927000D01*
X94727000Y-87927000D01*
X94473000Y-87927000D01*
X92723750Y-87927000D01*
X92565000Y-88085750D01*
X92561928Y-89600000D01*
X86127000Y-89600000D01*
X86127000Y-86000000D01*
X92561928Y-86000000D01*
X92565000Y-87514250D01*
X92723750Y-87673000D01*
X94473000Y-87673000D01*
X94473000Y-85523750D01*
X94727000Y-85523750D01*
X94727000Y-87673000D01*
X96476250Y-87673000D01*
X96635000Y-87514250D01*
X96638072Y-86000000D01*
X103961928Y-86000000D01*
X103965000Y-87514250D01*
X104123750Y-87673000D01*
X105873000Y-87673000D01*
X105873000Y-85523750D01*
X106127000Y-85523750D01*
X106127000Y-87673000D01*
X107876250Y-87673000D01*
X108035000Y-87514250D01*
X108036250Y-86898061D01*
X120965000Y-86898061D01*
X120965000Y-87101939D01*
X121004774Y-87301898D01*
X121082795Y-87490256D01*
X121196063Y-87659774D01*
X121340226Y-87803937D01*
X121509744Y-87917205D01*
X121698102Y-87995226D01*
X121898061Y-88035000D01*
X122101939Y-88035000D01*
X122301898Y-87995226D01*
X122490256Y-87917205D01*
X122518907Y-87898061D01*
X124465000Y-87898061D01*
X124465000Y-88101939D01*
X124504774Y-88301898D01*
X124582795Y-88490256D01*
X124696063Y-88659774D01*
X124840226Y-88803937D01*
X125009744Y-88917205D01*
X125198102Y-88995226D01*
X125398061Y-89035000D01*
X125601939Y-89035000D01*
X125801898Y-88995226D01*
X125990256Y-88917205D01*
X126159774Y-88803937D01*
X126303937Y-88659774D01*
X126417205Y-88490256D01*
X126459602Y-88387900D01*
X126522397Y-88429858D01*
X126710755Y-88507879D01*
X126910714Y-88547653D01*
X127114592Y-88547653D01*
X127314551Y-88507879D01*
X127502909Y-88429858D01*
X127672427Y-88316590D01*
X127816590Y-88172427D01*
X127929858Y-88002909D01*
X128007879Y-87814551D01*
X128047653Y-87614592D01*
X128047653Y-87410714D01*
X128045626Y-87400522D01*
X128082795Y-87490256D01*
X128196063Y-87659774D01*
X128340226Y-87803937D01*
X128509744Y-87917205D01*
X128698102Y-87995226D01*
X128898061Y-88035000D01*
X129101939Y-88035000D01*
X129301898Y-87995226D01*
X129490256Y-87917205D01*
X129659774Y-87803937D01*
X129803937Y-87659774D01*
X129917205Y-87490256D01*
X129995226Y-87301898D01*
X130035000Y-87101939D01*
X130035000Y-87048061D01*
X131065000Y-87048061D01*
X131065000Y-87251939D01*
X131104774Y-87451898D01*
X131182795Y-87640256D01*
X131296063Y-87809774D01*
X131440226Y-87953937D01*
X131609744Y-88067205D01*
X131798102Y-88145226D01*
X131998061Y-88185000D01*
X132201939Y-88185000D01*
X132401898Y-88145226D01*
X132552519Y-88082836D01*
X132504774Y-88198102D01*
X132465000Y-88398061D01*
X132465000Y-88601939D01*
X132504774Y-88801898D01*
X132582795Y-88990256D01*
X132696063Y-89159774D01*
X132840226Y-89303937D01*
X133009744Y-89417205D01*
X133198102Y-89495226D01*
X133398061Y-89535000D01*
X133601939Y-89535000D01*
X133801898Y-89495226D01*
X133990256Y-89417205D01*
X134159774Y-89303937D01*
X134303937Y-89159774D01*
X134417205Y-88990256D01*
X134495226Y-88801898D01*
X134535000Y-88601939D01*
X134535000Y-88398061D01*
X134495226Y-88198102D01*
X134417205Y-88009744D01*
X134381890Y-87956891D01*
X173318519Y-87956891D01*
X173415843Y-88231252D01*
X173564822Y-88481355D01*
X173759731Y-88697588D01*
X173993080Y-88871641D01*
X174255901Y-88996825D01*
X174403110Y-89041476D01*
X174633000Y-88920155D01*
X174633000Y-87727000D01*
X173439186Y-87727000D01*
X173318519Y-87956891D01*
X134381890Y-87956891D01*
X134303937Y-87840226D01*
X134159774Y-87696063D01*
X133990256Y-87582795D01*
X133801898Y-87504774D01*
X133601939Y-87465000D01*
X133398061Y-87465000D01*
X133198102Y-87504774D01*
X133047481Y-87567164D01*
X133095226Y-87451898D01*
X133135000Y-87251939D01*
X133135000Y-87243109D01*
X173318519Y-87243109D01*
X173439186Y-87473000D01*
X174633000Y-87473000D01*
X174633000Y-86279845D01*
X174887000Y-86279845D01*
X174887000Y-87473000D01*
X174907000Y-87473000D01*
X174907000Y-87727000D01*
X174887000Y-87727000D01*
X174887000Y-88920155D01*
X175116890Y-89041476D01*
X175264099Y-88996825D01*
X175526920Y-88871641D01*
X175760269Y-88697588D01*
X175836034Y-88613534D01*
X175860498Y-88694180D01*
X175919463Y-88804494D01*
X175998815Y-88901185D01*
X176095506Y-88980537D01*
X176205820Y-89039502D01*
X176325518Y-89075812D01*
X176450000Y-89088072D01*
X178150000Y-89088072D01*
X178274482Y-89075812D01*
X178394180Y-89039502D01*
X178504494Y-88980537D01*
X178601185Y-88901185D01*
X178680537Y-88804494D01*
X178739502Y-88694180D01*
X178775812Y-88574482D01*
X178788072Y-88450000D01*
X178788072Y-86750000D01*
X178775812Y-86625518D01*
X178739502Y-86505820D01*
X178680537Y-86395506D01*
X178601185Y-86298815D01*
X178504494Y-86219463D01*
X178394180Y-86160498D01*
X178274482Y-86124188D01*
X178150000Y-86111928D01*
X176450000Y-86111928D01*
X176325518Y-86124188D01*
X176205820Y-86160498D01*
X176095506Y-86219463D01*
X175998815Y-86298815D01*
X175919463Y-86395506D01*
X175860498Y-86505820D01*
X175836034Y-86586466D01*
X175760269Y-86502412D01*
X175526920Y-86328359D01*
X175264099Y-86203175D01*
X175116890Y-86158524D01*
X174887000Y-86279845D01*
X174633000Y-86279845D01*
X174403110Y-86158524D01*
X174255901Y-86203175D01*
X173993080Y-86328359D01*
X173759731Y-86502412D01*
X173564822Y-86718645D01*
X173415843Y-86968748D01*
X173318519Y-87243109D01*
X133135000Y-87243109D01*
X133135000Y-87048061D01*
X133095226Y-86848102D01*
X133017205Y-86659744D01*
X132903937Y-86490226D01*
X132759774Y-86346063D01*
X132590256Y-86232795D01*
X132401898Y-86154774D01*
X132201939Y-86115000D01*
X131998061Y-86115000D01*
X131798102Y-86154774D01*
X131609744Y-86232795D01*
X131440226Y-86346063D01*
X131296063Y-86490226D01*
X131182795Y-86659744D01*
X131104774Y-86848102D01*
X131065000Y-87048061D01*
X130035000Y-87048061D01*
X130035000Y-86898061D01*
X129995226Y-86698102D01*
X129917205Y-86509744D01*
X129803937Y-86340226D01*
X129659774Y-86196063D01*
X129490256Y-86082795D01*
X129301898Y-86004774D01*
X129101939Y-85965000D01*
X128898061Y-85965000D01*
X128698102Y-86004774D01*
X128509744Y-86082795D01*
X128340226Y-86196063D01*
X128196063Y-86340226D01*
X128082795Y-86509744D01*
X128004774Y-86698102D01*
X127965000Y-86898061D01*
X127965000Y-87101939D01*
X127967027Y-87112131D01*
X127929858Y-87022397D01*
X127816590Y-86852879D01*
X127672427Y-86708716D01*
X127502909Y-86595448D01*
X127314551Y-86517427D01*
X127114592Y-86477653D01*
X126910714Y-86477653D01*
X126710755Y-86517427D01*
X126522397Y-86595448D01*
X126352879Y-86708716D01*
X126208716Y-86852879D01*
X126095448Y-87022397D01*
X126053051Y-87124753D01*
X125990256Y-87082795D01*
X125801898Y-87004774D01*
X125601939Y-86965000D01*
X125398061Y-86965000D01*
X125198102Y-87004774D01*
X125009744Y-87082795D01*
X124840226Y-87196063D01*
X124696063Y-87340226D01*
X124582795Y-87509744D01*
X124504774Y-87698102D01*
X124465000Y-87898061D01*
X122518907Y-87898061D01*
X122659774Y-87803937D01*
X122803937Y-87659774D01*
X122917205Y-87490256D01*
X122995226Y-87301898D01*
X123035000Y-87101939D01*
X123035000Y-86898061D01*
X122995226Y-86698102D01*
X122917205Y-86509744D01*
X122803937Y-86340226D01*
X122659774Y-86196063D01*
X122490256Y-86082795D01*
X122301898Y-86004774D01*
X122101939Y-85965000D01*
X121898061Y-85965000D01*
X121698102Y-86004774D01*
X121509744Y-86082795D01*
X121340226Y-86196063D01*
X121196063Y-86340226D01*
X121082795Y-86509744D01*
X121004774Y-86698102D01*
X120965000Y-86898061D01*
X108036250Y-86898061D01*
X108038072Y-86000000D01*
X108025812Y-85875518D01*
X107989502Y-85755820D01*
X107930537Y-85645506D01*
X107851185Y-85548815D01*
X107754494Y-85469463D01*
X107644180Y-85410498D01*
X107603181Y-85398061D01*
X129465000Y-85398061D01*
X129465000Y-85601939D01*
X129504774Y-85801898D01*
X129582795Y-85990256D01*
X129696063Y-86159774D01*
X129840226Y-86303937D01*
X130009744Y-86417205D01*
X130198102Y-86495226D01*
X130398061Y-86535000D01*
X130601939Y-86535000D01*
X130801898Y-86495226D01*
X130990256Y-86417205D01*
X131159774Y-86303937D01*
X131303937Y-86159774D01*
X131417205Y-85990256D01*
X131495226Y-85801898D01*
X131535000Y-85601939D01*
X131535000Y-85398061D01*
X132965000Y-85398061D01*
X132965000Y-85601939D01*
X133004774Y-85801898D01*
X133082795Y-85990256D01*
X133196063Y-86159774D01*
X133340226Y-86303937D01*
X133509744Y-86417205D01*
X133698102Y-86495226D01*
X133898061Y-86535000D01*
X134101939Y-86535000D01*
X134301898Y-86495226D01*
X134490256Y-86417205D01*
X134659774Y-86303937D01*
X134803937Y-86159774D01*
X134917205Y-85990256D01*
X134995226Y-85801898D01*
X135035000Y-85601939D01*
X135035000Y-85398061D01*
X134995226Y-85198102D01*
X134917205Y-85009744D01*
X134803937Y-84840226D01*
X134659774Y-84696063D01*
X134490256Y-84582795D01*
X134301898Y-84504774D01*
X134101939Y-84465000D01*
X133898061Y-84465000D01*
X133698102Y-84504774D01*
X133509744Y-84582795D01*
X133340226Y-84696063D01*
X133196063Y-84840226D01*
X133082795Y-85009744D01*
X133004774Y-85198102D01*
X132965000Y-85398061D01*
X131535000Y-85398061D01*
X131495226Y-85198102D01*
X131438149Y-85060306D01*
X131627245Y-85060306D01*
X131827204Y-85020532D01*
X132015562Y-84942511D01*
X132185080Y-84829243D01*
X132329243Y-84685080D01*
X132442511Y-84515562D01*
X132520532Y-84327204D01*
X132554409Y-84156891D01*
X173318519Y-84156891D01*
X173415843Y-84431252D01*
X173564822Y-84681355D01*
X173759731Y-84897588D01*
X173993080Y-85071641D01*
X174255901Y-85196825D01*
X174403110Y-85241476D01*
X174633000Y-85120155D01*
X174633000Y-83927000D01*
X173439186Y-83927000D01*
X173318519Y-84156891D01*
X132554409Y-84156891D01*
X132560306Y-84127245D01*
X132560306Y-83923367D01*
X132520532Y-83723408D01*
X132442511Y-83535050D01*
X132329243Y-83365532D01*
X132185080Y-83221369D01*
X132015562Y-83108101D01*
X131827204Y-83030080D01*
X131627245Y-82990306D01*
X131423367Y-82990306D01*
X131223408Y-83030080D01*
X131035050Y-83108101D01*
X130865532Y-83221369D01*
X130721369Y-83365532D01*
X130608101Y-83535050D01*
X130530080Y-83723408D01*
X130490306Y-83923367D01*
X130490306Y-84127245D01*
X130530080Y-84327204D01*
X130587157Y-84465000D01*
X130398061Y-84465000D01*
X130198102Y-84504774D01*
X130009744Y-84582795D01*
X129840226Y-84696063D01*
X129696063Y-84840226D01*
X129582795Y-85009744D01*
X129504774Y-85198102D01*
X129465000Y-85398061D01*
X107603181Y-85398061D01*
X107524482Y-85374188D01*
X107400000Y-85361928D01*
X106285750Y-85365000D01*
X106127000Y-85523750D01*
X105873000Y-85523750D01*
X105714250Y-85365000D01*
X104600000Y-85361928D01*
X104475518Y-85374188D01*
X104355820Y-85410498D01*
X104245506Y-85469463D01*
X104148815Y-85548815D01*
X104069463Y-85645506D01*
X104010498Y-85755820D01*
X103974188Y-85875518D01*
X103961928Y-86000000D01*
X96638072Y-86000000D01*
X96625812Y-85875518D01*
X96589502Y-85755820D01*
X96530537Y-85645506D01*
X96451185Y-85548815D01*
X96354494Y-85469463D01*
X96244180Y-85410498D01*
X96124482Y-85374188D01*
X96000000Y-85361928D01*
X94885750Y-85365000D01*
X94727000Y-85523750D01*
X94473000Y-85523750D01*
X94314250Y-85365000D01*
X93200000Y-85361928D01*
X93075518Y-85374188D01*
X92955820Y-85410498D01*
X92845506Y-85469463D01*
X92748815Y-85548815D01*
X92669463Y-85645506D01*
X92610498Y-85755820D01*
X92574188Y-85875518D01*
X92561928Y-86000000D01*
X86127000Y-86000000D01*
X86127000Y-82898061D01*
X166965000Y-82898061D01*
X166965000Y-83101939D01*
X167004774Y-83301898D01*
X167082795Y-83490256D01*
X167196063Y-83659774D01*
X167340226Y-83803937D01*
X167509744Y-83917205D01*
X167698102Y-83995226D01*
X167898061Y-84035000D01*
X168101939Y-84035000D01*
X168301898Y-83995226D01*
X168490256Y-83917205D01*
X168659774Y-83803937D01*
X168803937Y-83659774D01*
X168917205Y-83490256D01*
X168936734Y-83443109D01*
X173318519Y-83443109D01*
X173439186Y-83673000D01*
X174633000Y-83673000D01*
X174633000Y-82479845D01*
X174887000Y-82479845D01*
X174887000Y-83673000D01*
X174907000Y-83673000D01*
X174907000Y-83927000D01*
X174887000Y-83927000D01*
X174887000Y-85120155D01*
X175116890Y-85241476D01*
X175264099Y-85196825D01*
X175526920Y-85071641D01*
X175760269Y-84897588D01*
X175836034Y-84813534D01*
X175860498Y-84894180D01*
X175919463Y-85004494D01*
X175998815Y-85101185D01*
X176095506Y-85180537D01*
X176205820Y-85239502D01*
X176325518Y-85275812D01*
X176450000Y-85288072D01*
X178150000Y-85288072D01*
X178274482Y-85275812D01*
X178394180Y-85239502D01*
X178504494Y-85180537D01*
X178601185Y-85101185D01*
X178680537Y-85004494D01*
X178739502Y-84894180D01*
X178775812Y-84774482D01*
X178788072Y-84650000D01*
X178788072Y-82950000D01*
X178775812Y-82825518D01*
X178739502Y-82705820D01*
X178680537Y-82595506D01*
X178601185Y-82498815D01*
X178504494Y-82419463D01*
X178394180Y-82360498D01*
X178274482Y-82324188D01*
X178150000Y-82311928D01*
X176450000Y-82311928D01*
X176325518Y-82324188D01*
X176205820Y-82360498D01*
X176095506Y-82419463D01*
X175998815Y-82498815D01*
X175919463Y-82595506D01*
X175860498Y-82705820D01*
X175836034Y-82786466D01*
X175760269Y-82702412D01*
X175526920Y-82528359D01*
X175264099Y-82403175D01*
X175116890Y-82358524D01*
X174887000Y-82479845D01*
X174633000Y-82479845D01*
X174403110Y-82358524D01*
X174255901Y-82403175D01*
X173993080Y-82528359D01*
X173759731Y-82702412D01*
X173564822Y-82918645D01*
X173415843Y-83168748D01*
X173318519Y-83443109D01*
X168936734Y-83443109D01*
X168995226Y-83301898D01*
X169035000Y-83101939D01*
X169035000Y-82898061D01*
X168995226Y-82698102D01*
X168917205Y-82509744D01*
X168803937Y-82340226D01*
X168659774Y-82196063D01*
X168490256Y-82082795D01*
X168301898Y-82004774D01*
X168101939Y-81965000D01*
X167898061Y-81965000D01*
X167698102Y-82004774D01*
X167509744Y-82082795D01*
X167340226Y-82196063D01*
X167196063Y-82340226D01*
X167082795Y-82509744D01*
X167004774Y-82698102D01*
X166965000Y-82898061D01*
X86127000Y-82898061D01*
X86127000Y-80138967D01*
X96165000Y-80138967D01*
X96165000Y-80461033D01*
X96227832Y-80776912D01*
X96351082Y-81074463D01*
X96530013Y-81342252D01*
X96757748Y-81569987D01*
X97025537Y-81748918D01*
X97323088Y-81872168D01*
X97638967Y-81935000D01*
X97961033Y-81935000D01*
X98276912Y-81872168D01*
X98574463Y-81748918D01*
X98842252Y-81569987D01*
X98976826Y-81435413D01*
X99344192Y-81435413D01*
X99439956Y-81699814D01*
X99729571Y-81840704D01*
X100041108Y-81922384D01*
X100362595Y-81941718D01*
X100681675Y-81897961D01*
X100986088Y-81792795D01*
X101160044Y-81699814D01*
X101255808Y-81435413D01*
X100300000Y-80479605D01*
X99344192Y-81435413D01*
X98976826Y-81435413D01*
X99069987Y-81342252D01*
X99134925Y-81245065D01*
X99164587Y-81255808D01*
X100120395Y-80300000D01*
X100479605Y-80300000D01*
X101435413Y-81255808D01*
X101465075Y-81245065D01*
X101530013Y-81342252D01*
X101757748Y-81569987D01*
X102025537Y-81748918D01*
X102323088Y-81872168D01*
X102638967Y-81935000D01*
X102961033Y-81935000D01*
X103276912Y-81872168D01*
X103574463Y-81748918D01*
X103842252Y-81569987D01*
X104064178Y-81348061D01*
X122465000Y-81348061D01*
X122465000Y-81551939D01*
X122504774Y-81751898D01*
X122582795Y-81940256D01*
X122696063Y-82109774D01*
X122840226Y-82253937D01*
X123009744Y-82367205D01*
X123198102Y-82445226D01*
X123398061Y-82485000D01*
X123601939Y-82485000D01*
X123801898Y-82445226D01*
X123990256Y-82367205D01*
X124159774Y-82253937D01*
X124303937Y-82109774D01*
X124417205Y-81940256D01*
X124495226Y-81751898D01*
X124535000Y-81551939D01*
X124535000Y-81348061D01*
X124495226Y-81148102D01*
X124417205Y-80959744D01*
X124303937Y-80790226D01*
X124159774Y-80646063D01*
X123990256Y-80532795D01*
X123801898Y-80454774D01*
X123601939Y-80415000D01*
X123398061Y-80415000D01*
X123198102Y-80454774D01*
X123009744Y-80532795D01*
X122840226Y-80646063D01*
X122696063Y-80790226D01*
X122582795Y-80959744D01*
X122504774Y-81148102D01*
X122465000Y-81348061D01*
X104064178Y-81348061D01*
X104069987Y-81342252D01*
X104248918Y-81074463D01*
X104372168Y-80776912D01*
X104435000Y-80461033D01*
X104435000Y-80356891D01*
X173318519Y-80356891D01*
X173415843Y-80631252D01*
X173564822Y-80881355D01*
X173759731Y-81097588D01*
X173993080Y-81271641D01*
X174255901Y-81396825D01*
X174403110Y-81441476D01*
X174633000Y-81320155D01*
X174633000Y-80127000D01*
X173439186Y-80127000D01*
X173318519Y-80356891D01*
X104435000Y-80356891D01*
X104435000Y-80138967D01*
X104372168Y-79823088D01*
X104297619Y-79643109D01*
X173318519Y-79643109D01*
X173439186Y-79873000D01*
X174633000Y-79873000D01*
X174633000Y-78679845D01*
X174887000Y-78679845D01*
X174887000Y-79873000D01*
X174907000Y-79873000D01*
X174907000Y-80127000D01*
X174887000Y-80127000D01*
X174887000Y-81320155D01*
X175116890Y-81441476D01*
X175264099Y-81396825D01*
X175526920Y-81271641D01*
X175760269Y-81097588D01*
X175836034Y-81013534D01*
X175860498Y-81094180D01*
X175919463Y-81204494D01*
X175998815Y-81301185D01*
X176095506Y-81380537D01*
X176205820Y-81439502D01*
X176325518Y-81475812D01*
X176450000Y-81488072D01*
X178150000Y-81488072D01*
X178274482Y-81475812D01*
X178394180Y-81439502D01*
X178504494Y-81380537D01*
X178601185Y-81301185D01*
X178680537Y-81204494D01*
X178739502Y-81094180D01*
X178775812Y-80974482D01*
X178788072Y-80850000D01*
X178788072Y-79150000D01*
X178775812Y-79025518D01*
X178739502Y-78905820D01*
X178680537Y-78795506D01*
X178601185Y-78698815D01*
X178504494Y-78619463D01*
X178394180Y-78560498D01*
X178274482Y-78524188D01*
X178150000Y-78511928D01*
X176450000Y-78511928D01*
X176325518Y-78524188D01*
X176205820Y-78560498D01*
X176095506Y-78619463D01*
X175998815Y-78698815D01*
X175919463Y-78795506D01*
X175860498Y-78905820D01*
X175836034Y-78986466D01*
X175760269Y-78902412D01*
X175526920Y-78728359D01*
X175264099Y-78603175D01*
X175116890Y-78558524D01*
X174887000Y-78679845D01*
X174633000Y-78679845D01*
X174403110Y-78558524D01*
X174255901Y-78603175D01*
X173993080Y-78728359D01*
X173759731Y-78902412D01*
X173564822Y-79118645D01*
X173415843Y-79368748D01*
X173318519Y-79643109D01*
X104297619Y-79643109D01*
X104248918Y-79525537D01*
X104069987Y-79257748D01*
X103842252Y-79030013D01*
X103574463Y-78851082D01*
X103276912Y-78727832D01*
X102961033Y-78665000D01*
X102638967Y-78665000D01*
X102323088Y-78727832D01*
X102025537Y-78851082D01*
X101757748Y-79030013D01*
X101530013Y-79257748D01*
X101465075Y-79354935D01*
X101435413Y-79344192D01*
X100479605Y-80300000D01*
X100120395Y-80300000D01*
X99164587Y-79344192D01*
X99134925Y-79354935D01*
X99069987Y-79257748D01*
X98976826Y-79164587D01*
X99344192Y-79164587D01*
X100300000Y-80120395D01*
X101255808Y-79164587D01*
X101160044Y-78900186D01*
X100870429Y-78759296D01*
X100558892Y-78677616D01*
X100237405Y-78658282D01*
X99918325Y-78702039D01*
X99613912Y-78807205D01*
X99439956Y-78900186D01*
X99344192Y-79164587D01*
X98976826Y-79164587D01*
X98842252Y-79030013D01*
X98574463Y-78851082D01*
X98276912Y-78727832D01*
X97961033Y-78665000D01*
X97638967Y-78665000D01*
X97323088Y-78727832D01*
X97025537Y-78851082D01*
X96757748Y-79030013D01*
X96530013Y-79257748D01*
X96351082Y-79525537D01*
X96227832Y-79823088D01*
X96165000Y-80138967D01*
X86127000Y-80138967D01*
X86127000Y-74898061D01*
X111465000Y-74898061D01*
X111465000Y-75101939D01*
X111504774Y-75301898D01*
X111582795Y-75490256D01*
X111696063Y-75659774D01*
X111840226Y-75803937D01*
X112009744Y-75917205D01*
X112198102Y-75995226D01*
X112398061Y-76035000D01*
X112601939Y-76035000D01*
X112801898Y-75995226D01*
X112990256Y-75917205D01*
X113159774Y-75803937D01*
X113303937Y-75659774D01*
X113343230Y-75600967D01*
X119997000Y-75600967D01*
X119997000Y-75923033D01*
X120059832Y-76238912D01*
X120183082Y-76536463D01*
X120362013Y-76804252D01*
X120589748Y-77031987D01*
X120857537Y-77210918D01*
X121155088Y-77334168D01*
X121470967Y-77397000D01*
X121793033Y-77397000D01*
X122108912Y-77334168D01*
X122406463Y-77210918D01*
X122674252Y-77031987D01*
X122901987Y-76804252D01*
X123080918Y-76536463D01*
X123138246Y-76398061D01*
X132965000Y-76398061D01*
X132965000Y-76601939D01*
X133004774Y-76801898D01*
X133082795Y-76990256D01*
X133196063Y-77159774D01*
X133286289Y-77250000D01*
X133196063Y-77340226D01*
X133082795Y-77509744D01*
X133004774Y-77698102D01*
X132965000Y-77898061D01*
X132965000Y-78101939D01*
X133004774Y-78301898D01*
X133082795Y-78490256D01*
X133196063Y-78659774D01*
X133340226Y-78803937D01*
X133509744Y-78917205D01*
X133698102Y-78995226D01*
X133898061Y-79035000D01*
X134101939Y-79035000D01*
X134301898Y-78995226D01*
X134490256Y-78917205D01*
X134659774Y-78803937D01*
X134803937Y-78659774D01*
X134917205Y-78490256D01*
X134995226Y-78301898D01*
X135035000Y-78101939D01*
X135035000Y-77898061D01*
X134995226Y-77698102D01*
X134917205Y-77509744D01*
X134842582Y-77398061D01*
X138465000Y-77398061D01*
X138465000Y-77601939D01*
X138504774Y-77801898D01*
X138582795Y-77990256D01*
X138696063Y-78159774D01*
X138840226Y-78303937D01*
X139009744Y-78417205D01*
X139198102Y-78495226D01*
X139398061Y-78535000D01*
X139601939Y-78535000D01*
X139801898Y-78495226D01*
X139990256Y-78417205D01*
X140159774Y-78303937D01*
X140303937Y-78159774D01*
X140417205Y-77990256D01*
X140495226Y-77801898D01*
X140535000Y-77601939D01*
X140535000Y-77398061D01*
X140495226Y-77198102D01*
X140417205Y-77009744D01*
X140342582Y-76898061D01*
X156465000Y-76898061D01*
X156465000Y-77101939D01*
X156504774Y-77301898D01*
X156582795Y-77490256D01*
X156696063Y-77659774D01*
X156840226Y-77803937D01*
X157009744Y-77917205D01*
X157198102Y-77995226D01*
X157398061Y-78035000D01*
X157601939Y-78035000D01*
X157801898Y-77995226D01*
X157990256Y-77917205D01*
X158159774Y-77803937D01*
X158303937Y-77659774D01*
X158417205Y-77490256D01*
X158495226Y-77301898D01*
X158535000Y-77101939D01*
X158535000Y-76898061D01*
X158495226Y-76698102D01*
X158417205Y-76509744D01*
X158303937Y-76340226D01*
X158159774Y-76196063D01*
X157990256Y-76082795D01*
X157801898Y-76004774D01*
X157601939Y-75965000D01*
X157398061Y-75965000D01*
X157198102Y-76004774D01*
X157009744Y-76082795D01*
X156840226Y-76196063D01*
X156696063Y-76340226D01*
X156582795Y-76509744D01*
X156504774Y-76698102D01*
X156465000Y-76898061D01*
X140342582Y-76898061D01*
X140303937Y-76840226D01*
X140159774Y-76696063D01*
X139990256Y-76582795D01*
X139801898Y-76504774D01*
X139601939Y-76465000D01*
X139398061Y-76465000D01*
X139198102Y-76504774D01*
X139009744Y-76582795D01*
X138840226Y-76696063D01*
X138696063Y-76840226D01*
X138582795Y-77009744D01*
X138504774Y-77198102D01*
X138465000Y-77398061D01*
X134842582Y-77398061D01*
X134803937Y-77340226D01*
X134713711Y-77250000D01*
X134803937Y-77159774D01*
X134917205Y-76990256D01*
X134995226Y-76801898D01*
X135035000Y-76601939D01*
X135035000Y-76398061D01*
X134995226Y-76198102D01*
X134917205Y-76009744D01*
X134803937Y-75840226D01*
X134659774Y-75696063D01*
X134490256Y-75582795D01*
X134301898Y-75504774D01*
X134101939Y-75465000D01*
X133898061Y-75465000D01*
X133698102Y-75504774D01*
X133509744Y-75582795D01*
X133340226Y-75696063D01*
X133196063Y-75840226D01*
X133082795Y-76009744D01*
X133004774Y-76198102D01*
X132965000Y-76398061D01*
X123138246Y-76398061D01*
X123204168Y-76238912D01*
X123267000Y-75923033D01*
X123267000Y-75600967D01*
X123204168Y-75285088D01*
X123080918Y-74987537D01*
X122991518Y-74853740D01*
X138435000Y-74853740D01*
X138435000Y-75146260D01*
X138492068Y-75433158D01*
X138604010Y-75703411D01*
X138766525Y-75946632D01*
X138973368Y-76153475D01*
X139216589Y-76315990D01*
X139486842Y-76427932D01*
X139773740Y-76485000D01*
X140066260Y-76485000D01*
X140353158Y-76427932D01*
X140623411Y-76315990D01*
X140866632Y-76153475D01*
X141073475Y-75946632D01*
X141190000Y-75772240D01*
X141306525Y-75946632D01*
X141513368Y-76153475D01*
X141756589Y-76315990D01*
X142026842Y-76427932D01*
X142313740Y-76485000D01*
X142606260Y-76485000D01*
X142893158Y-76427932D01*
X143163411Y-76315990D01*
X143406632Y-76153475D01*
X143613475Y-75946632D01*
X143735195Y-75764466D01*
X143804822Y-75881355D01*
X143999731Y-76097588D01*
X144233080Y-76271641D01*
X144495901Y-76396825D01*
X144643110Y-76441476D01*
X144873000Y-76320155D01*
X144873000Y-75127000D01*
X144853000Y-75127000D01*
X144853000Y-74873000D01*
X144873000Y-74873000D01*
X144873000Y-73679845D01*
X145127000Y-73679845D01*
X145127000Y-74873000D01*
X145147000Y-74873000D01*
X145147000Y-75127000D01*
X145127000Y-75127000D01*
X145127000Y-76320155D01*
X145356890Y-76441476D01*
X145504099Y-76396825D01*
X145766920Y-76271641D01*
X146000269Y-76097588D01*
X146195178Y-75881355D01*
X146264805Y-75764466D01*
X146386525Y-75946632D01*
X146593368Y-76153475D01*
X146836589Y-76315990D01*
X147106842Y-76427932D01*
X147393740Y-76485000D01*
X147686260Y-76485000D01*
X147973158Y-76427932D01*
X148243411Y-76315990D01*
X148486632Y-76153475D01*
X148618487Y-76021620D01*
X148640498Y-76094180D01*
X148699463Y-76204494D01*
X148778815Y-76301185D01*
X148875506Y-76380537D01*
X148985820Y-76439502D01*
X149105518Y-76475812D01*
X149230000Y-76488072D01*
X150930000Y-76488072D01*
X151054482Y-76475812D01*
X151174180Y-76439502D01*
X151284494Y-76380537D01*
X151381185Y-76301185D01*
X151460537Y-76204494D01*
X151519502Y-76094180D01*
X151555812Y-75974482D01*
X151568072Y-75850000D01*
X151568072Y-75600967D01*
X166733000Y-75600967D01*
X166733000Y-75923033D01*
X166795832Y-76238912D01*
X166919082Y-76536463D01*
X167098013Y-76804252D01*
X167325748Y-77031987D01*
X167593537Y-77210918D01*
X167891088Y-77334168D01*
X168206967Y-77397000D01*
X168529033Y-77397000D01*
X168844912Y-77334168D01*
X169142463Y-77210918D01*
X169410252Y-77031987D01*
X169637987Y-76804252D01*
X169816918Y-76536463D01*
X169940168Y-76238912D01*
X169977000Y-76053740D01*
X173275000Y-76053740D01*
X173275000Y-76346260D01*
X173332068Y-76633158D01*
X173444010Y-76903411D01*
X173606525Y-77146632D01*
X173813368Y-77353475D01*
X174056589Y-77515990D01*
X174326842Y-77627932D01*
X174613740Y-77685000D01*
X174906260Y-77685000D01*
X175193158Y-77627932D01*
X175463411Y-77515990D01*
X175706632Y-77353475D01*
X175838487Y-77221620D01*
X175860498Y-77294180D01*
X175919463Y-77404494D01*
X175998815Y-77501185D01*
X176095506Y-77580537D01*
X176205820Y-77639502D01*
X176325518Y-77675812D01*
X176450000Y-77688072D01*
X178150000Y-77688072D01*
X178274482Y-77675812D01*
X178394180Y-77639502D01*
X178504494Y-77580537D01*
X178601185Y-77501185D01*
X178680537Y-77404494D01*
X178739502Y-77294180D01*
X178775812Y-77174482D01*
X178788072Y-77050000D01*
X178788072Y-75350000D01*
X178775812Y-75225518D01*
X178739502Y-75105820D01*
X178680537Y-74995506D01*
X178601185Y-74898815D01*
X178504494Y-74819463D01*
X178394180Y-74760498D01*
X178274482Y-74724188D01*
X178150000Y-74711928D01*
X176450000Y-74711928D01*
X176325518Y-74724188D01*
X176205820Y-74760498D01*
X176095506Y-74819463D01*
X175998815Y-74898815D01*
X175919463Y-74995506D01*
X175860498Y-75105820D01*
X175838487Y-75178380D01*
X175706632Y-75046525D01*
X175463411Y-74884010D01*
X175193158Y-74772068D01*
X174906260Y-74715000D01*
X174613740Y-74715000D01*
X174326842Y-74772068D01*
X174056589Y-74884010D01*
X173813368Y-75046525D01*
X173606525Y-75253368D01*
X173444010Y-75496589D01*
X173332068Y-75766842D01*
X173275000Y-76053740D01*
X169977000Y-76053740D01*
X170003000Y-75923033D01*
X170003000Y-75600967D01*
X169940168Y-75285088D01*
X169816918Y-74987537D01*
X169637987Y-74719748D01*
X169410252Y-74492013D01*
X169142463Y-74313082D01*
X168844912Y-74189832D01*
X168529033Y-74127000D01*
X168206967Y-74127000D01*
X167891088Y-74189832D01*
X167593537Y-74313082D01*
X167325748Y-74492013D01*
X167098013Y-74719748D01*
X166919082Y-74987537D01*
X166795832Y-75285088D01*
X166733000Y-75600967D01*
X151568072Y-75600967D01*
X151568072Y-74150000D01*
X151555812Y-74025518D01*
X151519502Y-73905820D01*
X151460537Y-73795506D01*
X151381185Y-73698815D01*
X151284494Y-73619463D01*
X151174180Y-73560498D01*
X151054482Y-73524188D01*
X150954531Y-73514344D01*
X156415000Y-73514344D01*
X156415000Y-73885656D01*
X156487439Y-74249834D01*
X156629534Y-74592882D01*
X156835825Y-74901618D01*
X157098382Y-75164175D01*
X157407118Y-75370466D01*
X157750166Y-75512561D01*
X158114344Y-75585000D01*
X158485656Y-75585000D01*
X158849834Y-75512561D01*
X159192882Y-75370466D01*
X159501618Y-75164175D01*
X159764175Y-74901618D01*
X159970466Y-74592882D01*
X160112561Y-74249834D01*
X160185000Y-73885656D01*
X160185000Y-73514344D01*
X160112561Y-73150166D01*
X159970466Y-72807118D01*
X159764175Y-72498382D01*
X159619533Y-72353740D01*
X173275000Y-72353740D01*
X173275000Y-72646260D01*
X173332068Y-72933158D01*
X173444010Y-73203411D01*
X173606525Y-73446632D01*
X173813368Y-73653475D01*
X174056589Y-73815990D01*
X174326842Y-73927932D01*
X174613740Y-73985000D01*
X174906260Y-73985000D01*
X175193158Y-73927932D01*
X175463411Y-73815990D01*
X175706632Y-73653475D01*
X175838487Y-73521620D01*
X175860498Y-73594180D01*
X175919463Y-73704494D01*
X175998815Y-73801185D01*
X176095506Y-73880537D01*
X176205820Y-73939502D01*
X176325518Y-73975812D01*
X176450000Y-73988072D01*
X178150000Y-73988072D01*
X178274482Y-73975812D01*
X178394180Y-73939502D01*
X178504494Y-73880537D01*
X178601185Y-73801185D01*
X178680537Y-73704494D01*
X178739502Y-73594180D01*
X178775812Y-73474482D01*
X178788072Y-73350000D01*
X178788072Y-71650000D01*
X178775812Y-71525518D01*
X178739502Y-71405820D01*
X178680537Y-71295506D01*
X178601185Y-71198815D01*
X178504494Y-71119463D01*
X178394180Y-71060498D01*
X178274482Y-71024188D01*
X178150000Y-71011928D01*
X176450000Y-71011928D01*
X176325518Y-71024188D01*
X176205820Y-71060498D01*
X176095506Y-71119463D01*
X175998815Y-71198815D01*
X175919463Y-71295506D01*
X175860498Y-71405820D01*
X175838487Y-71478380D01*
X175706632Y-71346525D01*
X175463411Y-71184010D01*
X175193158Y-71072068D01*
X174906260Y-71015000D01*
X174613740Y-71015000D01*
X174326842Y-71072068D01*
X174056589Y-71184010D01*
X173813368Y-71346525D01*
X173606525Y-71553368D01*
X173444010Y-71796589D01*
X173332068Y-72066842D01*
X173275000Y-72353740D01*
X159619533Y-72353740D01*
X159501618Y-72235825D01*
X159192882Y-72029534D01*
X158849834Y-71887439D01*
X158485656Y-71815000D01*
X158114344Y-71815000D01*
X157750166Y-71887439D01*
X157407118Y-72029534D01*
X157098382Y-72235825D01*
X156835825Y-72498382D01*
X156629534Y-72807118D01*
X156487439Y-73150166D01*
X156415000Y-73514344D01*
X150954531Y-73514344D01*
X150930000Y-73511928D01*
X149230000Y-73511928D01*
X149105518Y-73524188D01*
X148985820Y-73560498D01*
X148875506Y-73619463D01*
X148778815Y-73698815D01*
X148699463Y-73795506D01*
X148640498Y-73905820D01*
X148618487Y-73978380D01*
X148486632Y-73846525D01*
X148243411Y-73684010D01*
X147973158Y-73572068D01*
X147686260Y-73515000D01*
X147393740Y-73515000D01*
X147106842Y-73572068D01*
X146836589Y-73684010D01*
X146593368Y-73846525D01*
X146386525Y-74053368D01*
X146264805Y-74235534D01*
X146195178Y-74118645D01*
X146000269Y-73902412D01*
X145766920Y-73728359D01*
X145504099Y-73603175D01*
X145356890Y-73558524D01*
X145127000Y-73679845D01*
X144873000Y-73679845D01*
X144643110Y-73558524D01*
X144495901Y-73603175D01*
X144233080Y-73728359D01*
X143999731Y-73902412D01*
X143804822Y-74118645D01*
X143735195Y-74235534D01*
X143613475Y-74053368D01*
X143406632Y-73846525D01*
X143163411Y-73684010D01*
X142893158Y-73572068D01*
X142606260Y-73515000D01*
X142313740Y-73515000D01*
X142026842Y-73572068D01*
X141756589Y-73684010D01*
X141513368Y-73846525D01*
X141306525Y-74053368D01*
X141190000Y-74227760D01*
X141073475Y-74053368D01*
X140866632Y-73846525D01*
X140623411Y-73684010D01*
X140353158Y-73572068D01*
X140066260Y-73515000D01*
X139773740Y-73515000D01*
X139486842Y-73572068D01*
X139216589Y-73684010D01*
X138973368Y-73846525D01*
X138766525Y-74053368D01*
X138604010Y-74296589D01*
X138492068Y-74566842D01*
X138435000Y-74853740D01*
X122991518Y-74853740D01*
X122901987Y-74719748D01*
X122674252Y-74492013D01*
X122406463Y-74313082D01*
X122108912Y-74189832D01*
X121793033Y-74127000D01*
X121470967Y-74127000D01*
X121155088Y-74189832D01*
X120857537Y-74313082D01*
X120589748Y-74492013D01*
X120362013Y-74719748D01*
X120183082Y-74987537D01*
X120059832Y-75285088D01*
X119997000Y-75600967D01*
X113343230Y-75600967D01*
X113417205Y-75490256D01*
X113495226Y-75301898D01*
X113535000Y-75101939D01*
X113535000Y-74898061D01*
X113495226Y-74698102D01*
X113417205Y-74509744D01*
X113303937Y-74340226D01*
X113159774Y-74196063D01*
X112990256Y-74082795D01*
X112801898Y-74004774D01*
X112601939Y-73965000D01*
X112398061Y-73965000D01*
X112198102Y-74004774D01*
X112009744Y-74082795D01*
X111840226Y-74196063D01*
X111696063Y-74340226D01*
X111582795Y-74509744D01*
X111504774Y-74698102D01*
X111465000Y-74898061D01*
X86127000Y-74898061D01*
X86127000Y-66127000D01*
X112873000Y-66127000D01*
X112873000Y-72000000D01*
%TA.AperFunction,Conductor*%
D25*
G36*
X112873000Y-72000000D02*
G01*
X112875440Y-72024776D01*
X112882667Y-72048601D01*
X112894403Y-72070557D01*
X112910197Y-72089803D01*
X112929443Y-72105597D01*
X112951399Y-72117333D01*
X112975224Y-72124560D01*
X113000000Y-72127000D01*
X114667868Y-72127000D01*
X114618388Y-72176480D01*
X114494176Y-72362376D01*
X114408617Y-72568933D01*
X114365000Y-72788212D01*
X114365000Y-73011788D01*
X114408617Y-73231067D01*
X114494176Y-73437624D01*
X114618388Y-73623520D01*
X114776480Y-73781612D01*
X114962376Y-73905824D01*
X115168933Y-73991383D01*
X115388212Y-74035000D01*
X115611788Y-74035000D01*
X115831067Y-73991383D01*
X116037624Y-73905824D01*
X116223520Y-73781612D01*
X116381612Y-73623520D01*
X116505824Y-73437624D01*
X116591383Y-73231067D01*
X116635000Y-73011788D01*
X116635000Y-72788212D01*
X116591383Y-72568933D01*
X116505824Y-72362376D01*
X116381612Y-72176480D01*
X116332132Y-72127000D01*
X143000000Y-72127000D01*
X143024776Y-72124560D01*
X143048601Y-72117333D01*
X143070557Y-72105597D01*
X143089803Y-72089803D01*
X143105597Y-72070557D01*
X143117333Y-72048601D01*
X143124560Y-72024776D01*
X143127000Y-72000000D01*
X143127000Y-68356891D01*
X147778519Y-68356891D01*
X147875843Y-68631252D01*
X148024822Y-68881355D01*
X148219731Y-69097588D01*
X148453080Y-69271641D01*
X148715901Y-69396825D01*
X148863110Y-69441476D01*
X149093000Y-69320155D01*
X149093000Y-68127000D01*
X147899186Y-68127000D01*
X147778519Y-68356891D01*
X143127000Y-68356891D01*
X143127000Y-67643109D01*
X147778519Y-67643109D01*
X147899186Y-67873000D01*
X149093000Y-67873000D01*
X149093000Y-66679845D01*
X149347000Y-66679845D01*
X149347000Y-67873000D01*
X149367000Y-67873000D01*
X149367000Y-68127000D01*
X149347000Y-68127000D01*
X149347000Y-69320155D01*
X149576890Y-69441476D01*
X149724099Y-69396825D01*
X149986920Y-69271641D01*
X150220269Y-69097588D01*
X150415178Y-68881355D01*
X150484805Y-68764466D01*
X150606525Y-68946632D01*
X150813368Y-69153475D01*
X151056589Y-69315990D01*
X151326842Y-69427932D01*
X151613740Y-69485000D01*
X151906260Y-69485000D01*
X152193158Y-69427932D01*
X152463411Y-69315990D01*
X152706632Y-69153475D01*
X152913475Y-68946632D01*
X153030000Y-68772240D01*
X153146525Y-68946632D01*
X153353368Y-69153475D01*
X153596589Y-69315990D01*
X153866842Y-69427932D01*
X154153740Y-69485000D01*
X154446260Y-69485000D01*
X154733158Y-69427932D01*
X155003411Y-69315990D01*
X155246632Y-69153475D01*
X155453475Y-68946632D01*
X155570000Y-68772240D01*
X155686525Y-68946632D01*
X155893368Y-69153475D01*
X156136589Y-69315990D01*
X156406842Y-69427932D01*
X156693740Y-69485000D01*
X156986260Y-69485000D01*
X157273158Y-69427932D01*
X157543411Y-69315990D01*
X157786632Y-69153475D01*
X157993475Y-68946632D01*
X158110000Y-68772240D01*
X158226525Y-68946632D01*
X158433368Y-69153475D01*
X158676589Y-69315990D01*
X158946842Y-69427932D01*
X159233740Y-69485000D01*
X159526260Y-69485000D01*
X159813158Y-69427932D01*
X160083411Y-69315990D01*
X160326632Y-69153475D01*
X160533475Y-68946632D01*
X160650000Y-68772240D01*
X160766525Y-68946632D01*
X160973368Y-69153475D01*
X161216589Y-69315990D01*
X161486842Y-69427932D01*
X161773740Y-69485000D01*
X162066260Y-69485000D01*
X162353158Y-69427932D01*
X162623411Y-69315990D01*
X162866632Y-69153475D01*
X163073475Y-68946632D01*
X163190000Y-68772240D01*
X163306525Y-68946632D01*
X163513368Y-69153475D01*
X163756589Y-69315990D01*
X164026842Y-69427932D01*
X164313740Y-69485000D01*
X164606260Y-69485000D01*
X164893158Y-69427932D01*
X165163411Y-69315990D01*
X165406632Y-69153475D01*
X165538487Y-69021620D01*
X165560498Y-69094180D01*
X165619463Y-69204494D01*
X165698815Y-69301185D01*
X165795506Y-69380537D01*
X165905820Y-69439502D01*
X166025518Y-69475812D01*
X166150000Y-69488072D01*
X167850000Y-69488072D01*
X167974482Y-69475812D01*
X168094180Y-69439502D01*
X168204494Y-69380537D01*
X168301185Y-69301185D01*
X168380537Y-69204494D01*
X168439502Y-69094180D01*
X168475812Y-68974482D01*
X168488072Y-68850000D01*
X168488072Y-67150000D01*
X168475812Y-67025518D01*
X168439502Y-66905820D01*
X168380537Y-66795506D01*
X168301185Y-66698815D01*
X168204494Y-66619463D01*
X168094180Y-66560498D01*
X167974482Y-66524188D01*
X167850000Y-66511928D01*
X166150000Y-66511928D01*
X166025518Y-66524188D01*
X165905820Y-66560498D01*
X165795506Y-66619463D01*
X165698815Y-66698815D01*
X165619463Y-66795506D01*
X165560498Y-66905820D01*
X165538487Y-66978380D01*
X165406632Y-66846525D01*
X165163411Y-66684010D01*
X164893158Y-66572068D01*
X164606260Y-66515000D01*
X164313740Y-66515000D01*
X164026842Y-66572068D01*
X163756589Y-66684010D01*
X163513368Y-66846525D01*
X163306525Y-67053368D01*
X163190000Y-67227760D01*
X163073475Y-67053368D01*
X162866632Y-66846525D01*
X162623411Y-66684010D01*
X162353158Y-66572068D01*
X162066260Y-66515000D01*
X161773740Y-66515000D01*
X161486842Y-66572068D01*
X161216589Y-66684010D01*
X160973368Y-66846525D01*
X160766525Y-67053368D01*
X160650000Y-67227760D01*
X160533475Y-67053368D01*
X160326632Y-66846525D01*
X160083411Y-66684010D01*
X159813158Y-66572068D01*
X159526260Y-66515000D01*
X159233740Y-66515000D01*
X158946842Y-66572068D01*
X158676589Y-66684010D01*
X158433368Y-66846525D01*
X158226525Y-67053368D01*
X158110000Y-67227760D01*
X157993475Y-67053368D01*
X157786632Y-66846525D01*
X157543411Y-66684010D01*
X157273158Y-66572068D01*
X156986260Y-66515000D01*
X156693740Y-66515000D01*
X156406842Y-66572068D01*
X156136589Y-66684010D01*
X155893368Y-66846525D01*
X155686525Y-67053368D01*
X155570000Y-67227760D01*
X155453475Y-67053368D01*
X155246632Y-66846525D01*
X155003411Y-66684010D01*
X154733158Y-66572068D01*
X154446260Y-66515000D01*
X154153740Y-66515000D01*
X153866842Y-66572068D01*
X153596589Y-66684010D01*
X153353368Y-66846525D01*
X153146525Y-67053368D01*
X153030000Y-67227760D01*
X152913475Y-67053368D01*
X152706632Y-66846525D01*
X152463411Y-66684010D01*
X152193158Y-66572068D01*
X151906260Y-66515000D01*
X151613740Y-66515000D01*
X151326842Y-66572068D01*
X151056589Y-66684010D01*
X150813368Y-66846525D01*
X150606525Y-67053368D01*
X150484805Y-67235534D01*
X150415178Y-67118645D01*
X150220269Y-66902412D01*
X149986920Y-66728359D01*
X149724099Y-66603175D01*
X149576890Y-66558524D01*
X149347000Y-66679845D01*
X149093000Y-66679845D01*
X148863110Y-66558524D01*
X148715901Y-66603175D01*
X148453080Y-66728359D01*
X148219731Y-66902412D01*
X148024822Y-67118645D01*
X147875843Y-67368748D01*
X147778519Y-67643109D01*
X143127000Y-67643109D01*
X143127000Y-66127000D01*
X178873000Y-66127000D01*
X178873000Y-100613334D01*
X178485750Y-100615000D01*
X178327000Y-100773750D01*
X178327000Y-103373000D01*
X178347000Y-103373000D01*
X178347000Y-103627000D01*
X178327000Y-103627000D01*
X178327000Y-106226250D01*
X178485750Y-106385000D01*
X178873000Y-106386666D01*
X178873000Y-108873000D01*
X178088072Y-108873000D01*
X178088072Y-107200000D01*
X178075812Y-107075518D01*
X178039502Y-106955820D01*
X177980537Y-106845506D01*
X177901185Y-106748815D01*
X177804494Y-106669463D01*
X177694180Y-106610498D01*
X177574482Y-106574188D01*
X177450000Y-106561928D01*
X172950000Y-106561928D01*
X172825518Y-106574188D01*
X172705820Y-106610498D01*
X172595506Y-106669463D01*
X172498815Y-106748815D01*
X172419463Y-106845506D01*
X172360498Y-106955820D01*
X172324188Y-107075518D01*
X172311928Y-107200000D01*
X172311928Y-108873000D01*
X156556414Y-108873000D01*
X156659774Y-108803937D01*
X156803937Y-108659774D01*
X156917205Y-108490256D01*
X156995226Y-108301898D01*
X157035000Y-108101939D01*
X157035000Y-107898061D01*
X156995226Y-107698102D01*
X156917205Y-107509744D01*
X156803937Y-107340226D01*
X156659774Y-107196063D01*
X156490256Y-107082795D01*
X156301898Y-107004774D01*
X156101939Y-106965000D01*
X155898061Y-106965000D01*
X155698102Y-107004774D01*
X155509744Y-107082795D01*
X155340226Y-107196063D01*
X155196063Y-107340226D01*
X155082795Y-107509744D01*
X155004774Y-107698102D01*
X154965000Y-107898061D01*
X154965000Y-108101939D01*
X155004774Y-108301898D01*
X155082795Y-108490256D01*
X155196063Y-108659774D01*
X155340226Y-108803937D01*
X155443586Y-108873000D01*
X86127000Y-108873000D01*
X86127000Y-106827000D01*
X93865000Y-106827000D01*
X93865000Y-107102000D01*
X93911585Y-107320987D01*
X93999997Y-107526678D01*
X94126839Y-107711169D01*
X94287236Y-107867369D01*
X94475024Y-107989276D01*
X94698126Y-108069119D01*
X94873000Y-107942954D01*
X94873000Y-106827000D01*
X95127000Y-106827000D01*
X95127000Y-107942954D01*
X95301874Y-108069119D01*
X95524976Y-107989276D01*
X95712764Y-107867369D01*
X95873161Y-107711169D01*
X96000003Y-107526678D01*
X96088415Y-107320987D01*
X96135000Y-107102000D01*
X96135000Y-106827000D01*
X100865000Y-106827000D01*
X100865000Y-107102000D01*
X100911585Y-107320987D01*
X100999997Y-107526678D01*
X101126839Y-107711169D01*
X101287236Y-107867369D01*
X101475024Y-107989276D01*
X101698126Y-108069119D01*
X101873000Y-107942954D01*
X101873000Y-106827000D01*
X102127000Y-106827000D01*
X102127000Y-107942954D01*
X102301874Y-108069119D01*
X102524976Y-107989276D01*
X102712764Y-107867369D01*
X102873161Y-107711169D01*
X103000003Y-107526678D01*
X103088415Y-107320987D01*
X103135000Y-107102000D01*
X103135000Y-106827000D01*
X102127000Y-106827000D01*
X101873000Y-106827000D01*
X100865000Y-106827000D01*
X96135000Y-106827000D01*
X95127000Y-106827000D01*
X94873000Y-106827000D01*
X93865000Y-106827000D01*
X86127000Y-106827000D01*
X86127000Y-106718061D01*
X111745000Y-106718061D01*
X111745000Y-106921939D01*
X111784774Y-107121898D01*
X111862795Y-107310256D01*
X111976063Y-107479774D01*
X112120226Y-107623937D01*
X112289744Y-107737205D01*
X112478102Y-107815226D01*
X112678061Y-107855000D01*
X112881939Y-107855000D01*
X113081898Y-107815226D01*
X113270256Y-107737205D01*
X113439774Y-107623937D01*
X113583937Y-107479774D01*
X113697205Y-107310256D01*
X113775226Y-107121898D01*
X113815000Y-106921939D01*
X113815000Y-106718061D01*
X113775226Y-106518102D01*
X113697205Y-106329744D01*
X113583937Y-106160226D01*
X113439774Y-106016063D01*
X113270256Y-105902795D01*
X113081898Y-105824774D01*
X112881939Y-105785000D01*
X112678061Y-105785000D01*
X112478102Y-105824774D01*
X112289744Y-105902795D01*
X112120226Y-106016063D01*
X111976063Y-106160226D01*
X111862795Y-106329744D01*
X111784774Y-106518102D01*
X111745000Y-106718061D01*
X86127000Y-106718061D01*
X86127000Y-106298000D01*
X93865000Y-106298000D01*
X93865000Y-106573000D01*
X94873000Y-106573000D01*
X94873000Y-105457046D01*
X95127000Y-105457046D01*
X95127000Y-106573000D01*
X96135000Y-106573000D01*
X96135000Y-106298000D01*
X100865000Y-106298000D01*
X100865000Y-106573000D01*
X101873000Y-106573000D01*
X101873000Y-105457046D01*
X102127000Y-105457046D01*
X102127000Y-106573000D01*
X103135000Y-106573000D01*
X103135000Y-106298000D01*
X103088415Y-106079013D01*
X103000003Y-105873322D01*
X102873161Y-105688831D01*
X102712764Y-105532631D01*
X102524976Y-105410724D01*
X102468954Y-105390675D01*
X129990000Y-105390675D01*
X129990000Y-105609325D01*
X130032657Y-105823775D01*
X130116331Y-106025782D01*
X130237807Y-106207584D01*
X130392416Y-106362193D01*
X130574218Y-106483669D01*
X130776225Y-106567343D01*
X130990675Y-106610000D01*
X131209325Y-106610000D01*
X131423775Y-106567343D01*
X131625782Y-106483669D01*
X131807584Y-106362193D01*
X131962193Y-106207584D01*
X132083669Y-106025782D01*
X132167343Y-105823775D01*
X132210000Y-105609325D01*
X132210000Y-105390675D01*
X136790000Y-105390675D01*
X136790000Y-105609325D01*
X136832657Y-105823775D01*
X136916331Y-106025782D01*
X137037807Y-106207584D01*
X137192416Y-106362193D01*
X137374218Y-106483669D01*
X137576225Y-106567343D01*
X137790675Y-106610000D01*
X138009325Y-106610000D01*
X138223775Y-106567343D01*
X138425782Y-106483669D01*
X138580933Y-106380000D01*
X163357319Y-106380000D01*
X163387970Y-106691204D01*
X163478745Y-106990449D01*
X163626155Y-107266235D01*
X163824537Y-107507963D01*
X164066265Y-107706345D01*
X164342051Y-107853755D01*
X164641296Y-107944530D01*
X164874514Y-107967500D01*
X165125486Y-107967500D01*
X165358704Y-107944530D01*
X165657949Y-107853755D01*
X165933735Y-107706345D01*
X166175463Y-107507963D01*
X166373845Y-107266235D01*
X166521255Y-106990449D01*
X166612030Y-106691204D01*
X166642681Y-106380000D01*
X166612030Y-106068796D01*
X166521255Y-105769551D01*
X166373845Y-105493765D01*
X166175463Y-105252037D01*
X165996101Y-105104837D01*
X166181315Y-104949437D01*
X166375969Y-104706923D01*
X166519571Y-104431094D01*
X166590563Y-104212980D01*
X166470594Y-103967000D01*
X165127000Y-103967000D01*
X165127000Y-103987000D01*
X164873000Y-103987000D01*
X164873000Y-103967000D01*
X163529406Y-103967000D01*
X163409437Y-104212980D01*
X163480429Y-104431094D01*
X163624031Y-104706923D01*
X163818685Y-104949437D01*
X164003899Y-105104837D01*
X163824537Y-105252037D01*
X163626155Y-105493765D01*
X163478745Y-105769551D01*
X163387970Y-106068796D01*
X163357319Y-106380000D01*
X138580933Y-106380000D01*
X138607584Y-106362193D01*
X138762193Y-106207584D01*
X138883669Y-106025782D01*
X138967343Y-105823775D01*
X139010000Y-105609325D01*
X139010000Y-105390675D01*
X138967343Y-105176225D01*
X138883669Y-104974218D01*
X138762193Y-104792416D01*
X138607584Y-104637807D01*
X138425782Y-104516331D01*
X138223775Y-104432657D01*
X138009325Y-104390000D01*
X137790675Y-104390000D01*
X137576225Y-104432657D01*
X137374218Y-104516331D01*
X137192416Y-104637807D01*
X137037807Y-104792416D01*
X136916331Y-104974218D01*
X136832657Y-105176225D01*
X136790000Y-105390675D01*
X132210000Y-105390675D01*
X132167343Y-105176225D01*
X132083669Y-104974218D01*
X131962193Y-104792416D01*
X131807584Y-104637807D01*
X131625782Y-104516331D01*
X131423775Y-104432657D01*
X131209325Y-104390000D01*
X130990675Y-104390000D01*
X130776225Y-104432657D01*
X130574218Y-104516331D01*
X130392416Y-104637807D01*
X130237807Y-104792416D01*
X130116331Y-104974218D01*
X130032657Y-105176225D01*
X129990000Y-105390675D01*
X102468954Y-105390675D01*
X102301874Y-105330881D01*
X102127000Y-105457046D01*
X101873000Y-105457046D01*
X101698126Y-105330881D01*
X101475024Y-105410724D01*
X101287236Y-105532631D01*
X101126839Y-105688831D01*
X100999997Y-105873322D01*
X100911585Y-106079013D01*
X100865000Y-106298000D01*
X96135000Y-106298000D01*
X96088415Y-106079013D01*
X96000003Y-105873322D01*
X95873161Y-105688831D01*
X95712764Y-105532631D01*
X95524976Y-105410724D01*
X95301874Y-105330881D01*
X95127000Y-105457046D01*
X94873000Y-105457046D01*
X94698126Y-105330881D01*
X94475024Y-105410724D01*
X94287236Y-105532631D01*
X94126839Y-105688831D01*
X93999997Y-105873322D01*
X93911585Y-106079013D01*
X93865000Y-106298000D01*
X86127000Y-106298000D01*
X86127000Y-104297938D01*
X94780732Y-104297938D01*
X94850397Y-104486150D01*
X94964447Y-104671822D01*
X95112529Y-104831676D01*
X95288951Y-104959569D01*
X95486934Y-105050586D01*
X95698869Y-105101230D01*
X95873000Y-104952564D01*
X95873000Y-104127000D01*
X96127000Y-104127000D01*
X96127000Y-104952564D01*
X96301131Y-105101230D01*
X96513066Y-105050586D01*
X96711049Y-104959569D01*
X96887471Y-104831676D01*
X97035553Y-104671822D01*
X97149603Y-104486150D01*
X97219268Y-104297938D01*
X99780732Y-104297938D01*
X99850397Y-104486150D01*
X99964447Y-104671822D01*
X100112529Y-104831676D01*
X100288951Y-104959569D01*
X100486934Y-105050586D01*
X100698869Y-105101230D01*
X100873000Y-104952564D01*
X100873000Y-104127000D01*
X101127000Y-104127000D01*
X101127000Y-104952564D01*
X101301131Y-105101230D01*
X101513066Y-105050586D01*
X101711049Y-104959569D01*
X101887471Y-104831676D01*
X102035553Y-104671822D01*
X102149603Y-104486150D01*
X102219268Y-104297938D01*
X102092734Y-104127000D01*
X101127000Y-104127000D01*
X100873000Y-104127000D01*
X99907266Y-104127000D01*
X99780732Y-104297938D01*
X97219268Y-104297938D01*
X97092734Y-104127000D01*
X96127000Y-104127000D01*
X95873000Y-104127000D01*
X94907266Y-104127000D01*
X94780732Y-104297938D01*
X86127000Y-104297938D01*
X86127000Y-103702062D01*
X94780732Y-103702062D01*
X94907266Y-103873000D01*
X95873000Y-103873000D01*
X95873000Y-103047436D01*
X96127000Y-103047436D01*
X96127000Y-103873000D01*
X97092734Y-103873000D01*
X97219268Y-103702062D01*
X99780732Y-103702062D01*
X99907266Y-103873000D01*
X100873000Y-103873000D01*
X100873000Y-103047436D01*
X101127000Y-103047436D01*
X101127000Y-103873000D01*
X102092734Y-103873000D01*
X102219268Y-103702062D01*
X102183378Y-103605098D01*
X145955000Y-103605098D01*
X145955000Y-104074902D01*
X146046654Y-104535679D01*
X146226440Y-104969721D01*
X146487450Y-105360349D01*
X146819651Y-105692550D01*
X147210279Y-105953560D01*
X147644321Y-106133346D01*
X148105098Y-106225000D01*
X148574902Y-106225000D01*
X149035679Y-106133346D01*
X149469721Y-105953560D01*
X149860349Y-105692550D01*
X150192550Y-105360349D01*
X150453560Y-104969721D01*
X150633346Y-104535679D01*
X150725000Y-104074902D01*
X150725000Y-103605098D01*
X150633346Y-103144321D01*
X150453560Y-102710279D01*
X150192550Y-102319651D01*
X149860349Y-101987450D01*
X149469721Y-101726440D01*
X149035679Y-101546654D01*
X148574902Y-101455000D01*
X148105098Y-101455000D01*
X147644321Y-101546654D01*
X147210279Y-101726440D01*
X146819651Y-101987450D01*
X146487450Y-102319651D01*
X146226440Y-102710279D01*
X146046654Y-103144321D01*
X145955000Y-103605098D01*
X102183378Y-103605098D01*
X102149603Y-103513850D01*
X102035553Y-103328178D01*
X101887471Y-103168324D01*
X101711049Y-103040431D01*
X101513066Y-102949414D01*
X101301131Y-102898770D01*
X101127000Y-103047436D01*
X100873000Y-103047436D01*
X100698869Y-102898770D01*
X100486934Y-102949414D01*
X100288951Y-103040431D01*
X100112529Y-103168324D01*
X99964447Y-103328178D01*
X99850397Y-103513850D01*
X99780732Y-103702062D01*
X97219268Y-103702062D01*
X97149603Y-103513850D01*
X97035553Y-103328178D01*
X96887471Y-103168324D01*
X96711049Y-103040431D01*
X96513066Y-102949414D01*
X96301131Y-102898770D01*
X96127000Y-103047436D01*
X95873000Y-103047436D01*
X95698869Y-102898770D01*
X95486934Y-102949414D01*
X95288951Y-103040431D01*
X95112529Y-103168324D01*
X94964447Y-103328178D01*
X94850397Y-103513850D01*
X94780732Y-103702062D01*
X86127000Y-103702062D01*
X86127000Y-100343192D01*
X113310131Y-100343192D01*
X113310131Y-100547070D01*
X113349905Y-100747029D01*
X113427926Y-100935387D01*
X113541194Y-101104905D01*
X113685357Y-101249068D01*
X113854875Y-101362336D01*
X114043233Y-101440357D01*
X114243192Y-101480131D01*
X114447070Y-101480131D01*
X114647029Y-101440357D01*
X114835387Y-101362336D01*
X115004905Y-101249068D01*
X115149068Y-101104905D01*
X115262336Y-100935387D01*
X115340357Y-100747029D01*
X115380131Y-100547070D01*
X115380131Y-100343192D01*
X115340357Y-100143233D01*
X115262336Y-99954875D01*
X115149068Y-99785357D01*
X115004905Y-99641194D01*
X114835387Y-99527926D01*
X114647029Y-99449905D01*
X114447070Y-99410131D01*
X114243192Y-99410131D01*
X114043233Y-99449905D01*
X113854875Y-99527926D01*
X113685357Y-99641194D01*
X113541194Y-99785357D01*
X113427926Y-99954875D01*
X113349905Y-100143233D01*
X113310131Y-100343192D01*
X86127000Y-100343192D01*
X86127000Y-98898061D01*
X114965000Y-98898061D01*
X114965000Y-99101939D01*
X115004774Y-99301898D01*
X115082795Y-99490256D01*
X115196063Y-99659774D01*
X115340226Y-99803937D01*
X115509744Y-99917205D01*
X115698102Y-99995226D01*
X115898061Y-100035000D01*
X116101939Y-100035000D01*
X116111430Y-100033112D01*
X116167722Y-100117358D01*
X116009744Y-100182795D01*
X115840226Y-100296063D01*
X115696063Y-100440226D01*
X115582795Y-100609744D01*
X115504774Y-100798102D01*
X115465000Y-100998061D01*
X115465000Y-101201939D01*
X115504774Y-101401898D01*
X115582795Y-101590256D01*
X115696063Y-101759774D01*
X115840226Y-101903937D01*
X116009744Y-102017205D01*
X116198102Y-102095226D01*
X116398061Y-102135000D01*
X116601939Y-102135000D01*
X116801898Y-102095226D01*
X116990256Y-102017205D01*
X117159774Y-101903937D01*
X117303937Y-101759774D01*
X117417205Y-101590256D01*
X117495226Y-101401898D01*
X117535000Y-101201939D01*
X117535000Y-100998061D01*
X117495226Y-100798102D01*
X117417205Y-100609744D01*
X117332278Y-100482642D01*
X117490256Y-100417205D01*
X117659774Y-100303937D01*
X117803937Y-100159774D01*
X117917205Y-99990256D01*
X117995226Y-99801898D01*
X118035000Y-99601939D01*
X118035000Y-99476967D01*
X119997000Y-99476967D01*
X119997000Y-99799033D01*
X120059832Y-100114912D01*
X120183082Y-100412463D01*
X120362013Y-100680252D01*
X120589748Y-100907987D01*
X120857537Y-101086918D01*
X121155088Y-101210168D01*
X121470967Y-101273000D01*
X121793033Y-101273000D01*
X122108912Y-101210168D01*
X122406463Y-101086918D01*
X122674252Y-100907987D01*
X122901987Y-100680252D01*
X123080918Y-100412463D01*
X123204168Y-100114912D01*
X123249261Y-99888212D01*
X155865000Y-99888212D01*
X155865000Y-100111788D01*
X155908617Y-100331067D01*
X155994176Y-100537624D01*
X156118388Y-100723520D01*
X156276480Y-100881612D01*
X156462376Y-101005824D01*
X156668933Y-101091383D01*
X156888212Y-101135000D01*
X157111788Y-101135000D01*
X157331067Y-101091383D01*
X157537624Y-101005824D01*
X157723520Y-100881612D01*
X157881612Y-100723520D01*
X158005824Y-100537624D01*
X158084576Y-100347500D01*
X163361928Y-100347500D01*
X163361928Y-102252500D01*
X163374188Y-102376982D01*
X163410498Y-102496680D01*
X163469463Y-102606994D01*
X163548815Y-102703685D01*
X163645506Y-102783037D01*
X163737219Y-102832059D01*
X163624031Y-102973077D01*
X163480429Y-103248906D01*
X163409437Y-103467020D01*
X163529406Y-103713000D01*
X164873000Y-103713000D01*
X164873000Y-103693000D01*
X165127000Y-103693000D01*
X165127000Y-103713000D01*
X166470594Y-103713000D01*
X166590563Y-103467020D01*
X166519571Y-103248906D01*
X166375969Y-102973077D01*
X166262781Y-102832059D01*
X166354494Y-102783037D01*
X166451185Y-102703685D01*
X166530537Y-102606994D01*
X166589502Y-102496680D01*
X166625812Y-102376982D01*
X166638072Y-102252500D01*
X166638072Y-100347500D01*
X166625812Y-100223018D01*
X166589502Y-100103320D01*
X166530537Y-99993006D01*
X166451185Y-99896315D01*
X166354494Y-99816963D01*
X166244180Y-99757998D01*
X166124482Y-99721688D01*
X166000000Y-99709428D01*
X164000000Y-99709428D01*
X163875518Y-99721688D01*
X163755820Y-99757998D01*
X163645506Y-99816963D01*
X163548815Y-99896315D01*
X163469463Y-99993006D01*
X163410498Y-100103320D01*
X163374188Y-100223018D01*
X163361928Y-100347500D01*
X158084576Y-100347500D01*
X158091383Y-100331067D01*
X158135000Y-100111788D01*
X158135000Y-99888212D01*
X158091383Y-99668933D01*
X158011868Y-99476967D01*
X166733000Y-99476967D01*
X166733000Y-99799033D01*
X166795832Y-100114912D01*
X166919082Y-100412463D01*
X167098013Y-100680252D01*
X167325748Y-100907987D01*
X167593537Y-101086918D01*
X167891088Y-101210168D01*
X168206967Y-101273000D01*
X168529033Y-101273000D01*
X168644662Y-101250000D01*
X170561928Y-101250000D01*
X170561928Y-105750000D01*
X170574188Y-105874482D01*
X170610498Y-105994180D01*
X170669463Y-106104494D01*
X170748815Y-106201185D01*
X170845506Y-106280537D01*
X170955820Y-106339502D01*
X171075518Y-106375812D01*
X171200000Y-106388072D01*
X173200000Y-106388072D01*
X173324482Y-106375812D01*
X173444180Y-106339502D01*
X173554494Y-106280537D01*
X173651185Y-106201185D01*
X173730537Y-106104494D01*
X173789502Y-105994180D01*
X173825812Y-105874482D01*
X173838072Y-105750000D01*
X176561928Y-105750000D01*
X176574188Y-105874482D01*
X176610498Y-105994180D01*
X176669463Y-106104494D01*
X176748815Y-106201185D01*
X176845506Y-106280537D01*
X176955820Y-106339502D01*
X177075518Y-106375812D01*
X177200000Y-106388072D01*
X177914250Y-106385000D01*
X178073000Y-106226250D01*
X178073000Y-103627000D01*
X176723750Y-103627000D01*
X176565000Y-103785750D01*
X176561928Y-105750000D01*
X173838072Y-105750000D01*
X173838072Y-101250000D01*
X176561928Y-101250000D01*
X176565000Y-103214250D01*
X176723750Y-103373000D01*
X178073000Y-103373000D01*
X178073000Y-100773750D01*
X177914250Y-100615000D01*
X177200000Y-100611928D01*
X177075518Y-100624188D01*
X176955820Y-100660498D01*
X176845506Y-100719463D01*
X176748815Y-100798815D01*
X176669463Y-100895506D01*
X176610498Y-101005820D01*
X176574188Y-101125518D01*
X176561928Y-101250000D01*
X173838072Y-101250000D01*
X173825812Y-101125518D01*
X173789502Y-101005820D01*
X173730537Y-100895506D01*
X173651185Y-100798815D01*
X173554494Y-100719463D01*
X173444180Y-100660498D01*
X173324482Y-100624188D01*
X173200000Y-100611928D01*
X171200000Y-100611928D01*
X171075518Y-100624188D01*
X170955820Y-100660498D01*
X170845506Y-100719463D01*
X170748815Y-100798815D01*
X170669463Y-100895506D01*
X170610498Y-101005820D01*
X170574188Y-101125518D01*
X170561928Y-101250000D01*
X168644662Y-101250000D01*
X168844912Y-101210168D01*
X169142463Y-101086918D01*
X169410252Y-100907987D01*
X169637987Y-100680252D01*
X169816918Y-100412463D01*
X169940168Y-100114912D01*
X170003000Y-99799033D01*
X170003000Y-99476967D01*
X169940168Y-99161088D01*
X169816918Y-98863537D01*
X169637987Y-98595748D01*
X169410252Y-98368013D01*
X169142463Y-98189082D01*
X168844912Y-98065832D01*
X168529033Y-98003000D01*
X168206967Y-98003000D01*
X167891088Y-98065832D01*
X167593537Y-98189082D01*
X167325748Y-98368013D01*
X167098013Y-98595748D01*
X166919082Y-98863537D01*
X166795832Y-99161088D01*
X166733000Y-99476967D01*
X158011868Y-99476967D01*
X158005824Y-99462376D01*
X157881612Y-99276480D01*
X157723520Y-99118388D01*
X157537624Y-98994176D01*
X157331067Y-98908617D01*
X157111788Y-98865000D01*
X156888212Y-98865000D01*
X156668933Y-98908617D01*
X156462376Y-98994176D01*
X156276480Y-99118388D01*
X156118388Y-99276480D01*
X155994176Y-99462376D01*
X155908617Y-99668933D01*
X155865000Y-99888212D01*
X123249261Y-99888212D01*
X123267000Y-99799033D01*
X123267000Y-99476967D01*
X123204168Y-99161088D01*
X123080918Y-98863537D01*
X122901987Y-98595748D01*
X122674252Y-98368013D01*
X122406463Y-98189082D01*
X122108912Y-98065832D01*
X121793033Y-98003000D01*
X121470967Y-98003000D01*
X121155088Y-98065832D01*
X120857537Y-98189082D01*
X120589748Y-98368013D01*
X120362013Y-98595748D01*
X120183082Y-98863537D01*
X120059832Y-99161088D01*
X119997000Y-99476967D01*
X118035000Y-99476967D01*
X118035000Y-99398061D01*
X117995226Y-99198102D01*
X117917205Y-99009744D01*
X117803937Y-98840226D01*
X117659774Y-98696063D01*
X117490256Y-98582795D01*
X117301898Y-98504774D01*
X117101939Y-98465000D01*
X116898061Y-98465000D01*
X116888570Y-98466888D01*
X116803937Y-98340226D01*
X116659774Y-98196063D01*
X116490256Y-98082795D01*
X116301898Y-98004774D01*
X116101939Y-97965000D01*
X115898061Y-97965000D01*
X115698102Y-98004774D01*
X115509744Y-98082795D01*
X115340226Y-98196063D01*
X115196063Y-98340226D01*
X115082795Y-98509744D01*
X115004774Y-98698102D01*
X114965000Y-98898061D01*
X86127000Y-98898061D01*
X86127000Y-96556891D01*
X173318519Y-96556891D01*
X173415843Y-96831252D01*
X173564822Y-97081355D01*
X173759731Y-97297588D01*
X173993080Y-97471641D01*
X174255901Y-97596825D01*
X174403110Y-97641476D01*
X174633000Y-97520155D01*
X174633000Y-96327000D01*
X173439186Y-96327000D01*
X173318519Y-96556891D01*
X86127000Y-96556891D01*
X86127000Y-94638967D01*
X96165000Y-94638967D01*
X96165000Y-94961033D01*
X96227832Y-95276912D01*
X96351082Y-95574463D01*
X96530013Y-95842252D01*
X96757748Y-96069987D01*
X97025537Y-96248918D01*
X97323088Y-96372168D01*
X97638967Y-96435000D01*
X97961033Y-96435000D01*
X98276912Y-96372168D01*
X98574463Y-96248918D01*
X98842252Y-96069987D01*
X99069987Y-95842252D01*
X99248918Y-95574463D01*
X99372168Y-95276912D01*
X99435000Y-94961033D01*
X99435000Y-94638967D01*
X101165000Y-94638967D01*
X101165000Y-94961033D01*
X101227832Y-95276912D01*
X101351082Y-95574463D01*
X101530013Y-95842252D01*
X101757748Y-96069987D01*
X102025537Y-96248918D01*
X102323088Y-96372168D01*
X102638967Y-96435000D01*
X102961033Y-96435000D01*
X103276912Y-96372168D01*
X103574463Y-96248918D01*
X103842252Y-96069987D01*
X104069987Y-95842252D01*
X104248918Y-95574463D01*
X104372168Y-95276912D01*
X104435000Y-94961033D01*
X104435000Y-94638967D01*
X104387082Y-94398061D01*
X118465000Y-94398061D01*
X118465000Y-94601939D01*
X118504774Y-94801898D01*
X118582795Y-94990256D01*
X118696063Y-95159774D01*
X118840226Y-95303937D01*
X119009744Y-95417205D01*
X119198102Y-95495226D01*
X119398061Y-95535000D01*
X119601939Y-95535000D01*
X119801898Y-95495226D01*
X119990256Y-95417205D01*
X120159774Y-95303937D01*
X120303937Y-95159774D01*
X120417205Y-94990256D01*
X120434682Y-94948061D01*
X132765000Y-94948061D01*
X132765000Y-95151939D01*
X132804774Y-95351898D01*
X132882795Y-95540256D01*
X132996063Y-95709774D01*
X133140226Y-95853937D01*
X133309744Y-95967205D01*
X133498102Y-96045226D01*
X133698061Y-96085000D01*
X133901939Y-96085000D01*
X134101898Y-96045226D01*
X134290256Y-95967205D01*
X134459774Y-95853937D01*
X134470602Y-95843109D01*
X173318519Y-95843109D01*
X173439186Y-96073000D01*
X174633000Y-96073000D01*
X174633000Y-94879845D01*
X174887000Y-94879845D01*
X174887000Y-96073000D01*
X174907000Y-96073000D01*
X174907000Y-96327000D01*
X174887000Y-96327000D01*
X174887000Y-97520155D01*
X175116890Y-97641476D01*
X175264099Y-97596825D01*
X175526920Y-97471641D01*
X175760269Y-97297588D01*
X175836034Y-97213534D01*
X175860498Y-97294180D01*
X175919463Y-97404494D01*
X175998815Y-97501185D01*
X176095506Y-97580537D01*
X176205820Y-97639502D01*
X176325518Y-97675812D01*
X176450000Y-97688072D01*
X178150000Y-97688072D01*
X178274482Y-97675812D01*
X178394180Y-97639502D01*
X178504494Y-97580537D01*
X178601185Y-97501185D01*
X178680537Y-97404494D01*
X178739502Y-97294180D01*
X178775812Y-97174482D01*
X178788072Y-97050000D01*
X178788072Y-95350000D01*
X178775812Y-95225518D01*
X178739502Y-95105820D01*
X178680537Y-94995506D01*
X178601185Y-94898815D01*
X178504494Y-94819463D01*
X178394180Y-94760498D01*
X178274482Y-94724188D01*
X178150000Y-94711928D01*
X176450000Y-94711928D01*
X176325518Y-94724188D01*
X176205820Y-94760498D01*
X176095506Y-94819463D01*
X175998815Y-94898815D01*
X175919463Y-94995506D01*
X175860498Y-95105820D01*
X175836034Y-95186466D01*
X175760269Y-95102412D01*
X175526920Y-94928359D01*
X175264099Y-94803175D01*
X175116890Y-94758524D01*
X174887000Y-94879845D01*
X174633000Y-94879845D01*
X174403110Y-94758524D01*
X174255901Y-94803175D01*
X173993080Y-94928359D01*
X173759731Y-95102412D01*
X173564822Y-95318645D01*
X173415843Y-95568748D01*
X173318519Y-95843109D01*
X134470602Y-95843109D01*
X134603937Y-95709774D01*
X134717205Y-95540256D01*
X134795226Y-95351898D01*
X134835000Y-95151939D01*
X134835000Y-94948061D01*
X134802566Y-94785000D01*
X156576928Y-94785000D01*
X156589188Y-94909482D01*
X156625498Y-95029180D01*
X156684463Y-95139494D01*
X156763815Y-95236185D01*
X156860506Y-95315537D01*
X156970820Y-95374502D01*
X157090518Y-95410812D01*
X157215000Y-95423072D01*
X158014250Y-95420000D01*
X158173000Y-95261250D01*
X158173000Y-93827000D01*
X158427000Y-93827000D01*
X158427000Y-95261250D01*
X158585750Y-95420000D01*
X159385000Y-95423072D01*
X159509482Y-95410812D01*
X159629180Y-95374502D01*
X159739494Y-95315537D01*
X159836185Y-95236185D01*
X159915537Y-95139494D01*
X159974502Y-95029180D01*
X160010812Y-94909482D01*
X160023072Y-94785000D01*
X160020000Y-93985750D01*
X159861250Y-93827000D01*
X158427000Y-93827000D01*
X158173000Y-93827000D01*
X156738750Y-93827000D01*
X156580000Y-93985750D01*
X156576928Y-94785000D01*
X134802566Y-94785000D01*
X134795226Y-94748102D01*
X134717205Y-94559744D01*
X134603937Y-94390226D01*
X134459774Y-94246063D01*
X134290256Y-94132795D01*
X134101898Y-94054774D01*
X133901939Y-94015000D01*
X133698061Y-94015000D01*
X133498102Y-94054774D01*
X133309744Y-94132795D01*
X133140226Y-94246063D01*
X132996063Y-94390226D01*
X132882795Y-94559744D01*
X132804774Y-94748102D01*
X132765000Y-94948061D01*
X120434682Y-94948061D01*
X120495226Y-94801898D01*
X120535000Y-94601939D01*
X120535000Y-94398061D01*
X120495226Y-94198102D01*
X120417205Y-94009744D01*
X120303937Y-93840226D01*
X120159774Y-93696063D01*
X119990256Y-93582795D01*
X119801898Y-93504774D01*
X119601939Y-93465000D01*
X119398061Y-93465000D01*
X119198102Y-93504774D01*
X119009744Y-93582795D01*
X118840226Y-93696063D01*
X118696063Y-93840226D01*
X118582795Y-94009744D01*
X118504774Y-94198102D01*
X118465000Y-94398061D01*
X104387082Y-94398061D01*
X104372168Y-94323088D01*
X104248918Y-94025537D01*
X104069987Y-93757748D01*
X103842252Y-93530013D01*
X103574463Y-93351082D01*
X103276912Y-93227832D01*
X102961033Y-93165000D01*
X102638967Y-93165000D01*
X102323088Y-93227832D01*
X102025537Y-93351082D01*
X101757748Y-93530013D01*
X101530013Y-93757748D01*
X101351082Y-94025537D01*
X101227832Y-94323088D01*
X101165000Y-94638967D01*
X99435000Y-94638967D01*
X99372168Y-94323088D01*
X99248918Y-94025537D01*
X99069987Y-93757748D01*
X98842252Y-93530013D01*
X98574463Y-93351082D01*
X98276912Y-93227832D01*
X97961033Y-93165000D01*
X97638967Y-93165000D01*
X97323088Y-93227832D01*
X97025537Y-93351082D01*
X96757748Y-93530013D01*
X96530013Y-93757748D01*
X96351082Y-94025537D01*
X96227832Y-94323088D01*
X96165000Y-94638967D01*
X86127000Y-94638967D01*
X86127000Y-91898061D01*
X108965000Y-91898061D01*
X108965000Y-92101939D01*
X109004774Y-92301898D01*
X109082795Y-92490256D01*
X109196063Y-92659774D01*
X109340226Y-92803937D01*
X109509744Y-92917205D01*
X109698102Y-92995226D01*
X109898061Y-93035000D01*
X110101939Y-93035000D01*
X110301898Y-92995226D01*
X110490256Y-92917205D01*
X110659774Y-92803937D01*
X110803937Y-92659774D01*
X110917205Y-92490256D01*
X110995226Y-92301898D01*
X111035000Y-92101939D01*
X111035000Y-91898061D01*
X110995226Y-91698102D01*
X110917205Y-91509744D01*
X110803937Y-91340226D01*
X110659774Y-91196063D01*
X110490256Y-91082795D01*
X110301898Y-91004774D01*
X110101939Y-90965000D01*
X109898061Y-90965000D01*
X109698102Y-91004774D01*
X109509744Y-91082795D01*
X109340226Y-91196063D01*
X109196063Y-91340226D01*
X109082795Y-91509744D01*
X109004774Y-91698102D01*
X108965000Y-91898061D01*
X86127000Y-91898061D01*
X86127000Y-90898061D01*
X134965000Y-90898061D01*
X134965000Y-91101939D01*
X135004774Y-91301898D01*
X135082795Y-91490256D01*
X135196063Y-91659774D01*
X135340226Y-91803937D01*
X135509744Y-91917205D01*
X135638465Y-91970523D01*
X135600600Y-92027193D01*
X135522579Y-92215551D01*
X135482805Y-92415510D01*
X135482805Y-92619388D01*
X135522579Y-92819347D01*
X135600600Y-93007705D01*
X135713868Y-93177223D01*
X135858031Y-93321386D01*
X136027549Y-93434654D01*
X136215907Y-93512675D01*
X136415866Y-93552449D01*
X136619744Y-93552449D01*
X136819703Y-93512675D01*
X137008061Y-93434654D01*
X137177579Y-93321386D01*
X137321742Y-93177223D01*
X137435010Y-93007705D01*
X137513031Y-92819347D01*
X137547101Y-92648061D01*
X140015000Y-92648061D01*
X140015000Y-92851939D01*
X140054774Y-93051898D01*
X140132795Y-93240256D01*
X140246063Y-93409774D01*
X140390226Y-93553937D01*
X140559744Y-93667205D01*
X140748102Y-93745226D01*
X140948061Y-93785000D01*
X141151939Y-93785000D01*
X141351898Y-93745226D01*
X141540256Y-93667205D01*
X141709774Y-93553937D01*
X141853937Y-93409774D01*
X141967205Y-93240256D01*
X142045226Y-93051898D01*
X142085000Y-92851939D01*
X142085000Y-92648061D01*
X142045226Y-92448102D01*
X141967205Y-92259744D01*
X141925990Y-92198061D01*
X150065000Y-92198061D01*
X150065000Y-92401939D01*
X150104774Y-92601898D01*
X150182795Y-92790256D01*
X150296063Y-92959774D01*
X150440226Y-93103937D01*
X150609744Y-93217205D01*
X150798102Y-93295226D01*
X150998061Y-93335000D01*
X151201939Y-93335000D01*
X151401898Y-93295226D01*
X151590256Y-93217205D01*
X151759774Y-93103937D01*
X151903937Y-92959774D01*
X152017205Y-92790256D01*
X152089798Y-92615000D01*
X156576928Y-92615000D01*
X156580000Y-93414250D01*
X156738750Y-93573000D01*
X158173000Y-93573000D01*
X158173000Y-92138750D01*
X158427000Y-92138750D01*
X158427000Y-93573000D01*
X159861250Y-93573000D01*
X160020000Y-93414250D01*
X160023072Y-92615000D01*
X160010812Y-92490518D01*
X159974502Y-92370820D01*
X159915537Y-92260506D01*
X159836185Y-92163815D01*
X159739494Y-92084463D01*
X159629180Y-92025498D01*
X159509482Y-91989188D01*
X159385000Y-91976928D01*
X158585750Y-91980000D01*
X158427000Y-92138750D01*
X158173000Y-92138750D01*
X158014250Y-91980000D01*
X157215000Y-91976928D01*
X157090518Y-91989188D01*
X156970820Y-92025498D01*
X156860506Y-92084463D01*
X156763815Y-92163815D01*
X156684463Y-92260506D01*
X156625498Y-92370820D01*
X156589188Y-92490518D01*
X156576928Y-92615000D01*
X152089798Y-92615000D01*
X152095226Y-92601898D01*
X152135000Y-92401939D01*
X152135000Y-92198061D01*
X152095226Y-91998102D01*
X152017205Y-91809744D01*
X151903937Y-91640226D01*
X151759774Y-91496063D01*
X151590256Y-91382795D01*
X151401898Y-91304774D01*
X151201939Y-91265000D01*
X150998061Y-91265000D01*
X150798102Y-91304774D01*
X150609744Y-91382795D01*
X150440226Y-91496063D01*
X150296063Y-91640226D01*
X150182795Y-91809744D01*
X150104774Y-91998102D01*
X150065000Y-92198061D01*
X141925990Y-92198061D01*
X141853937Y-92090226D01*
X141709774Y-91946063D01*
X141540256Y-91832795D01*
X141351898Y-91754774D01*
X141151939Y-91715000D01*
X140948061Y-91715000D01*
X140748102Y-91754774D01*
X140559744Y-91832795D01*
X140390226Y-91946063D01*
X140246063Y-92090226D01*
X140132795Y-92259744D01*
X140054774Y-92448102D01*
X140015000Y-92648061D01*
X137547101Y-92648061D01*
X137552805Y-92619388D01*
X137552805Y-92415510D01*
X137513031Y-92215551D01*
X137435010Y-92027193D01*
X137321742Y-91857675D01*
X137177579Y-91713512D01*
X137008061Y-91600244D01*
X136879340Y-91546926D01*
X136917205Y-91490256D01*
X136995226Y-91301898D01*
X137035000Y-91101939D01*
X137035000Y-90898061D01*
X136995226Y-90698102D01*
X136917205Y-90509744D01*
X136803937Y-90340226D01*
X136659774Y-90196063D01*
X136490256Y-90082795D01*
X136301898Y-90004774D01*
X136101939Y-89965000D01*
X135898061Y-89965000D01*
X135698102Y-90004774D01*
X135509744Y-90082795D01*
X135340226Y-90196063D01*
X135196063Y-90340226D01*
X135082795Y-90509744D01*
X135004774Y-90698102D01*
X134965000Y-90898061D01*
X86127000Y-90898061D01*
X86127000Y-89600000D01*
X92561928Y-89600000D01*
X92574188Y-89724482D01*
X92610498Y-89844180D01*
X92669463Y-89954494D01*
X92748815Y-90051185D01*
X92845506Y-90130537D01*
X92955820Y-90189502D01*
X93075518Y-90225812D01*
X93200000Y-90238072D01*
X94314250Y-90235000D01*
X94473000Y-90076250D01*
X94473000Y-87927000D01*
X94727000Y-87927000D01*
X94727000Y-90076250D01*
X94885750Y-90235000D01*
X96000000Y-90238072D01*
X96124482Y-90225812D01*
X96244180Y-90189502D01*
X96354494Y-90130537D01*
X96451185Y-90051185D01*
X96530537Y-89954494D01*
X96589502Y-89844180D01*
X96625812Y-89724482D01*
X96638072Y-89600000D01*
X103961928Y-89600000D01*
X103974188Y-89724482D01*
X104010498Y-89844180D01*
X104069463Y-89954494D01*
X104148815Y-90051185D01*
X104245506Y-90130537D01*
X104355820Y-90189502D01*
X104475518Y-90225812D01*
X104600000Y-90238072D01*
X105714250Y-90235000D01*
X105873000Y-90076250D01*
X105873000Y-87927000D01*
X106127000Y-87927000D01*
X106127000Y-90076250D01*
X106285750Y-90235000D01*
X107400000Y-90238072D01*
X107524482Y-90225812D01*
X107644180Y-90189502D01*
X107754494Y-90130537D01*
X107851185Y-90051185D01*
X107930537Y-89954494D01*
X107960701Y-89898061D01*
X138465000Y-89898061D01*
X138465000Y-90101939D01*
X138504774Y-90301898D01*
X138582795Y-90490256D01*
X138696063Y-90659774D01*
X138840226Y-90803937D01*
X139009744Y-90917205D01*
X139198102Y-90995226D01*
X139398061Y-91035000D01*
X139601939Y-91035000D01*
X139801898Y-90995226D01*
X139990256Y-90917205D01*
X140018907Y-90898061D01*
X153715000Y-90898061D01*
X153715000Y-91101939D01*
X153754774Y-91301898D01*
X153832795Y-91490256D01*
X153946063Y-91659774D01*
X154090226Y-91803937D01*
X154259744Y-91917205D01*
X154448102Y-91995226D01*
X154648061Y-92035000D01*
X154851939Y-92035000D01*
X155051898Y-91995226D01*
X155240256Y-91917205D01*
X155409774Y-91803937D01*
X155456820Y-91756891D01*
X173318519Y-91756891D01*
X173415843Y-92031252D01*
X173564822Y-92281355D01*
X173759731Y-92497588D01*
X173993080Y-92671641D01*
X174255901Y-92796825D01*
X174403110Y-92841476D01*
X174633000Y-92720155D01*
X174633000Y-91527000D01*
X173439186Y-91527000D01*
X173318519Y-91756891D01*
X155456820Y-91756891D01*
X155553937Y-91659774D01*
X155667205Y-91490256D01*
X155745226Y-91301898D01*
X155785000Y-91101939D01*
X155785000Y-91043109D01*
X173318519Y-91043109D01*
X173439186Y-91273000D01*
X174633000Y-91273000D01*
X174633000Y-90079845D01*
X174887000Y-90079845D01*
X174887000Y-91273000D01*
X174907000Y-91273000D01*
X174907000Y-91527000D01*
X174887000Y-91527000D01*
X174887000Y-92720155D01*
X175116890Y-92841476D01*
X175264099Y-92796825D01*
X175526920Y-92671641D01*
X175760269Y-92497588D01*
X175836034Y-92413534D01*
X175860498Y-92494180D01*
X175919463Y-92604494D01*
X175998815Y-92701185D01*
X176095506Y-92780537D01*
X176205820Y-92839502D01*
X176325518Y-92875812D01*
X176450000Y-92888072D01*
X178150000Y-92888072D01*
X178274482Y-92875812D01*
X178394180Y-92839502D01*
X178504494Y-92780537D01*
X178601185Y-92701185D01*
X178680537Y-92604494D01*
X178739502Y-92494180D01*
X178775812Y-92374482D01*
X178788072Y-92250000D01*
X178788072Y-90550000D01*
X178775812Y-90425518D01*
X178739502Y-90305820D01*
X178680537Y-90195506D01*
X178601185Y-90098815D01*
X178504494Y-90019463D01*
X178394180Y-89960498D01*
X178274482Y-89924188D01*
X178150000Y-89911928D01*
X176450000Y-89911928D01*
X176325518Y-89924188D01*
X176205820Y-89960498D01*
X176095506Y-90019463D01*
X175998815Y-90098815D01*
X175919463Y-90195506D01*
X175860498Y-90305820D01*
X175836034Y-90386466D01*
X175760269Y-90302412D01*
X175526920Y-90128359D01*
X175264099Y-90003175D01*
X175116890Y-89958524D01*
X174887000Y-90079845D01*
X174633000Y-90079845D01*
X174403110Y-89958524D01*
X174255901Y-90003175D01*
X173993080Y-90128359D01*
X173759731Y-90302412D01*
X173564822Y-90518645D01*
X173415843Y-90768748D01*
X173318519Y-91043109D01*
X155785000Y-91043109D01*
X155785000Y-90898061D01*
X155745226Y-90698102D01*
X155667205Y-90509744D01*
X155553937Y-90340226D01*
X155409774Y-90196063D01*
X155240256Y-90082795D01*
X155051898Y-90004774D01*
X154851939Y-89965000D01*
X154648061Y-89965000D01*
X154448102Y-90004774D01*
X154259744Y-90082795D01*
X154090226Y-90196063D01*
X153946063Y-90340226D01*
X153832795Y-90509744D01*
X153754774Y-90698102D01*
X153715000Y-90898061D01*
X140018907Y-90898061D01*
X140159774Y-90803937D01*
X140303937Y-90659774D01*
X140417205Y-90490256D01*
X140495226Y-90301898D01*
X140535000Y-90101939D01*
X140535000Y-89898061D01*
X140495226Y-89698102D01*
X140417205Y-89509744D01*
X140303937Y-89340226D01*
X140159774Y-89196063D01*
X139990256Y-89082795D01*
X139801898Y-89004774D01*
X139601939Y-88965000D01*
X139398061Y-88965000D01*
X139198102Y-89004774D01*
X139009744Y-89082795D01*
X138840226Y-89196063D01*
X138696063Y-89340226D01*
X138582795Y-89509744D01*
X138504774Y-89698102D01*
X138465000Y-89898061D01*
X107960701Y-89898061D01*
X107989502Y-89844180D01*
X108025812Y-89724482D01*
X108038072Y-89600000D01*
X108035000Y-88085750D01*
X107876250Y-87927000D01*
X106127000Y-87927000D01*
X105873000Y-87927000D01*
X104123750Y-87927000D01*
X103965000Y-88085750D01*
X103961928Y-89600000D01*
X96638072Y-89600000D01*
X96635000Y-88085750D01*
X96476250Y-87927000D01*
X94727000Y-87927000D01*
X94473000Y-87927000D01*
X92723750Y-87927000D01*
X92565000Y-88085750D01*
X92561928Y-89600000D01*
X86127000Y-89600000D01*
X86127000Y-86000000D01*
X92561928Y-86000000D01*
X92565000Y-87514250D01*
X92723750Y-87673000D01*
X94473000Y-87673000D01*
X94473000Y-85523750D01*
X94727000Y-85523750D01*
X94727000Y-87673000D01*
X96476250Y-87673000D01*
X96635000Y-87514250D01*
X96638072Y-86000000D01*
X103961928Y-86000000D01*
X103965000Y-87514250D01*
X104123750Y-87673000D01*
X105873000Y-87673000D01*
X105873000Y-85523750D01*
X106127000Y-85523750D01*
X106127000Y-87673000D01*
X107876250Y-87673000D01*
X108035000Y-87514250D01*
X108036250Y-86898061D01*
X120965000Y-86898061D01*
X120965000Y-87101939D01*
X121004774Y-87301898D01*
X121082795Y-87490256D01*
X121196063Y-87659774D01*
X121340226Y-87803937D01*
X121509744Y-87917205D01*
X121698102Y-87995226D01*
X121898061Y-88035000D01*
X122101939Y-88035000D01*
X122301898Y-87995226D01*
X122490256Y-87917205D01*
X122518907Y-87898061D01*
X124465000Y-87898061D01*
X124465000Y-88101939D01*
X124504774Y-88301898D01*
X124582795Y-88490256D01*
X124696063Y-88659774D01*
X124840226Y-88803937D01*
X125009744Y-88917205D01*
X125198102Y-88995226D01*
X125398061Y-89035000D01*
X125601939Y-89035000D01*
X125801898Y-88995226D01*
X125990256Y-88917205D01*
X126159774Y-88803937D01*
X126303937Y-88659774D01*
X126417205Y-88490256D01*
X126459602Y-88387900D01*
X126522397Y-88429858D01*
X126710755Y-88507879D01*
X126910714Y-88547653D01*
X127114592Y-88547653D01*
X127314551Y-88507879D01*
X127502909Y-88429858D01*
X127672427Y-88316590D01*
X127816590Y-88172427D01*
X127929858Y-88002909D01*
X128007879Y-87814551D01*
X128047653Y-87614592D01*
X128047653Y-87410714D01*
X128045626Y-87400522D01*
X128082795Y-87490256D01*
X128196063Y-87659774D01*
X128340226Y-87803937D01*
X128509744Y-87917205D01*
X128698102Y-87995226D01*
X128898061Y-88035000D01*
X129101939Y-88035000D01*
X129301898Y-87995226D01*
X129490256Y-87917205D01*
X129659774Y-87803937D01*
X129803937Y-87659774D01*
X129917205Y-87490256D01*
X129995226Y-87301898D01*
X130035000Y-87101939D01*
X130035000Y-87048061D01*
X131065000Y-87048061D01*
X131065000Y-87251939D01*
X131104774Y-87451898D01*
X131182795Y-87640256D01*
X131296063Y-87809774D01*
X131440226Y-87953937D01*
X131609744Y-88067205D01*
X131798102Y-88145226D01*
X131998061Y-88185000D01*
X132201939Y-88185000D01*
X132401898Y-88145226D01*
X132552519Y-88082836D01*
X132504774Y-88198102D01*
X132465000Y-88398061D01*
X132465000Y-88601939D01*
X132504774Y-88801898D01*
X132582795Y-88990256D01*
X132696063Y-89159774D01*
X132840226Y-89303937D01*
X133009744Y-89417205D01*
X133198102Y-89495226D01*
X133398061Y-89535000D01*
X133601939Y-89535000D01*
X133801898Y-89495226D01*
X133990256Y-89417205D01*
X134159774Y-89303937D01*
X134303937Y-89159774D01*
X134417205Y-88990256D01*
X134495226Y-88801898D01*
X134535000Y-88601939D01*
X134535000Y-88398061D01*
X134495226Y-88198102D01*
X134417205Y-88009744D01*
X134381890Y-87956891D01*
X173318519Y-87956891D01*
X173415843Y-88231252D01*
X173564822Y-88481355D01*
X173759731Y-88697588D01*
X173993080Y-88871641D01*
X174255901Y-88996825D01*
X174403110Y-89041476D01*
X174633000Y-88920155D01*
X174633000Y-87727000D01*
X173439186Y-87727000D01*
X173318519Y-87956891D01*
X134381890Y-87956891D01*
X134303937Y-87840226D01*
X134159774Y-87696063D01*
X133990256Y-87582795D01*
X133801898Y-87504774D01*
X133601939Y-87465000D01*
X133398061Y-87465000D01*
X133198102Y-87504774D01*
X133047481Y-87567164D01*
X133095226Y-87451898D01*
X133135000Y-87251939D01*
X133135000Y-87243109D01*
X173318519Y-87243109D01*
X173439186Y-87473000D01*
X174633000Y-87473000D01*
X174633000Y-86279845D01*
X174887000Y-86279845D01*
X174887000Y-87473000D01*
X174907000Y-87473000D01*
X174907000Y-87727000D01*
X174887000Y-87727000D01*
X174887000Y-88920155D01*
X175116890Y-89041476D01*
X175264099Y-88996825D01*
X175526920Y-88871641D01*
X175760269Y-88697588D01*
X175836034Y-88613534D01*
X175860498Y-88694180D01*
X175919463Y-88804494D01*
X175998815Y-88901185D01*
X176095506Y-88980537D01*
X176205820Y-89039502D01*
X176325518Y-89075812D01*
X176450000Y-89088072D01*
X178150000Y-89088072D01*
X178274482Y-89075812D01*
X178394180Y-89039502D01*
X178504494Y-88980537D01*
X178601185Y-88901185D01*
X178680537Y-88804494D01*
X178739502Y-88694180D01*
X178775812Y-88574482D01*
X178788072Y-88450000D01*
X178788072Y-86750000D01*
X178775812Y-86625518D01*
X178739502Y-86505820D01*
X178680537Y-86395506D01*
X178601185Y-86298815D01*
X178504494Y-86219463D01*
X178394180Y-86160498D01*
X178274482Y-86124188D01*
X178150000Y-86111928D01*
X176450000Y-86111928D01*
X176325518Y-86124188D01*
X176205820Y-86160498D01*
X176095506Y-86219463D01*
X175998815Y-86298815D01*
X175919463Y-86395506D01*
X175860498Y-86505820D01*
X175836034Y-86586466D01*
X175760269Y-86502412D01*
X175526920Y-86328359D01*
X175264099Y-86203175D01*
X175116890Y-86158524D01*
X174887000Y-86279845D01*
X174633000Y-86279845D01*
X174403110Y-86158524D01*
X174255901Y-86203175D01*
X173993080Y-86328359D01*
X173759731Y-86502412D01*
X173564822Y-86718645D01*
X173415843Y-86968748D01*
X173318519Y-87243109D01*
X133135000Y-87243109D01*
X133135000Y-87048061D01*
X133095226Y-86848102D01*
X133017205Y-86659744D01*
X132903937Y-86490226D01*
X132759774Y-86346063D01*
X132590256Y-86232795D01*
X132401898Y-86154774D01*
X132201939Y-86115000D01*
X131998061Y-86115000D01*
X131798102Y-86154774D01*
X131609744Y-86232795D01*
X131440226Y-86346063D01*
X131296063Y-86490226D01*
X131182795Y-86659744D01*
X131104774Y-86848102D01*
X131065000Y-87048061D01*
X130035000Y-87048061D01*
X130035000Y-86898061D01*
X129995226Y-86698102D01*
X129917205Y-86509744D01*
X129803937Y-86340226D01*
X129659774Y-86196063D01*
X129490256Y-86082795D01*
X129301898Y-86004774D01*
X129101939Y-85965000D01*
X128898061Y-85965000D01*
X128698102Y-86004774D01*
X128509744Y-86082795D01*
X128340226Y-86196063D01*
X128196063Y-86340226D01*
X128082795Y-86509744D01*
X128004774Y-86698102D01*
X127965000Y-86898061D01*
X127965000Y-87101939D01*
X127967027Y-87112131D01*
X127929858Y-87022397D01*
X127816590Y-86852879D01*
X127672427Y-86708716D01*
X127502909Y-86595448D01*
X127314551Y-86517427D01*
X127114592Y-86477653D01*
X126910714Y-86477653D01*
X126710755Y-86517427D01*
X126522397Y-86595448D01*
X126352879Y-86708716D01*
X126208716Y-86852879D01*
X126095448Y-87022397D01*
X126053051Y-87124753D01*
X125990256Y-87082795D01*
X125801898Y-87004774D01*
X125601939Y-86965000D01*
X125398061Y-86965000D01*
X125198102Y-87004774D01*
X125009744Y-87082795D01*
X124840226Y-87196063D01*
X124696063Y-87340226D01*
X124582795Y-87509744D01*
X124504774Y-87698102D01*
X124465000Y-87898061D01*
X122518907Y-87898061D01*
X122659774Y-87803937D01*
X122803937Y-87659774D01*
X122917205Y-87490256D01*
X122995226Y-87301898D01*
X123035000Y-87101939D01*
X123035000Y-86898061D01*
X122995226Y-86698102D01*
X122917205Y-86509744D01*
X122803937Y-86340226D01*
X122659774Y-86196063D01*
X122490256Y-86082795D01*
X122301898Y-86004774D01*
X122101939Y-85965000D01*
X121898061Y-85965000D01*
X121698102Y-86004774D01*
X121509744Y-86082795D01*
X121340226Y-86196063D01*
X121196063Y-86340226D01*
X121082795Y-86509744D01*
X121004774Y-86698102D01*
X120965000Y-86898061D01*
X108036250Y-86898061D01*
X108038072Y-86000000D01*
X108025812Y-85875518D01*
X107989502Y-85755820D01*
X107930537Y-85645506D01*
X107851185Y-85548815D01*
X107754494Y-85469463D01*
X107644180Y-85410498D01*
X107603181Y-85398061D01*
X129465000Y-85398061D01*
X129465000Y-85601939D01*
X129504774Y-85801898D01*
X129582795Y-85990256D01*
X129696063Y-86159774D01*
X129840226Y-86303937D01*
X130009744Y-86417205D01*
X130198102Y-86495226D01*
X130398061Y-86535000D01*
X130601939Y-86535000D01*
X130801898Y-86495226D01*
X130990256Y-86417205D01*
X131159774Y-86303937D01*
X131303937Y-86159774D01*
X131417205Y-85990256D01*
X131495226Y-85801898D01*
X131535000Y-85601939D01*
X131535000Y-85398061D01*
X132965000Y-85398061D01*
X132965000Y-85601939D01*
X133004774Y-85801898D01*
X133082795Y-85990256D01*
X133196063Y-86159774D01*
X133340226Y-86303937D01*
X133509744Y-86417205D01*
X133698102Y-86495226D01*
X133898061Y-86535000D01*
X134101939Y-86535000D01*
X134301898Y-86495226D01*
X134490256Y-86417205D01*
X134659774Y-86303937D01*
X134803937Y-86159774D01*
X134917205Y-85990256D01*
X134995226Y-85801898D01*
X135035000Y-85601939D01*
X135035000Y-85398061D01*
X134995226Y-85198102D01*
X134917205Y-85009744D01*
X134803937Y-84840226D01*
X134659774Y-84696063D01*
X134490256Y-84582795D01*
X134301898Y-84504774D01*
X134101939Y-84465000D01*
X133898061Y-84465000D01*
X133698102Y-84504774D01*
X133509744Y-84582795D01*
X133340226Y-84696063D01*
X133196063Y-84840226D01*
X133082795Y-85009744D01*
X133004774Y-85198102D01*
X132965000Y-85398061D01*
X131535000Y-85398061D01*
X131495226Y-85198102D01*
X131438149Y-85060306D01*
X131627245Y-85060306D01*
X131827204Y-85020532D01*
X132015562Y-84942511D01*
X132185080Y-84829243D01*
X132329243Y-84685080D01*
X132442511Y-84515562D01*
X132520532Y-84327204D01*
X132554409Y-84156891D01*
X173318519Y-84156891D01*
X173415843Y-84431252D01*
X173564822Y-84681355D01*
X173759731Y-84897588D01*
X173993080Y-85071641D01*
X174255901Y-85196825D01*
X174403110Y-85241476D01*
X174633000Y-85120155D01*
X174633000Y-83927000D01*
X173439186Y-83927000D01*
X173318519Y-84156891D01*
X132554409Y-84156891D01*
X132560306Y-84127245D01*
X132560306Y-83923367D01*
X132520532Y-83723408D01*
X132442511Y-83535050D01*
X132329243Y-83365532D01*
X132185080Y-83221369D01*
X132015562Y-83108101D01*
X131827204Y-83030080D01*
X131627245Y-82990306D01*
X131423367Y-82990306D01*
X131223408Y-83030080D01*
X131035050Y-83108101D01*
X130865532Y-83221369D01*
X130721369Y-83365532D01*
X130608101Y-83535050D01*
X130530080Y-83723408D01*
X130490306Y-83923367D01*
X130490306Y-84127245D01*
X130530080Y-84327204D01*
X130587157Y-84465000D01*
X130398061Y-84465000D01*
X130198102Y-84504774D01*
X130009744Y-84582795D01*
X129840226Y-84696063D01*
X129696063Y-84840226D01*
X129582795Y-85009744D01*
X129504774Y-85198102D01*
X129465000Y-85398061D01*
X107603181Y-85398061D01*
X107524482Y-85374188D01*
X107400000Y-85361928D01*
X106285750Y-85365000D01*
X106127000Y-85523750D01*
X105873000Y-85523750D01*
X105714250Y-85365000D01*
X104600000Y-85361928D01*
X104475518Y-85374188D01*
X104355820Y-85410498D01*
X104245506Y-85469463D01*
X104148815Y-85548815D01*
X104069463Y-85645506D01*
X104010498Y-85755820D01*
X103974188Y-85875518D01*
X103961928Y-86000000D01*
X96638072Y-86000000D01*
X96625812Y-85875518D01*
X96589502Y-85755820D01*
X96530537Y-85645506D01*
X96451185Y-85548815D01*
X96354494Y-85469463D01*
X96244180Y-85410498D01*
X96124482Y-85374188D01*
X96000000Y-85361928D01*
X94885750Y-85365000D01*
X94727000Y-85523750D01*
X94473000Y-85523750D01*
X94314250Y-85365000D01*
X93200000Y-85361928D01*
X93075518Y-85374188D01*
X92955820Y-85410498D01*
X92845506Y-85469463D01*
X92748815Y-85548815D01*
X92669463Y-85645506D01*
X92610498Y-85755820D01*
X92574188Y-85875518D01*
X92561928Y-86000000D01*
X86127000Y-86000000D01*
X86127000Y-82898061D01*
X166965000Y-82898061D01*
X166965000Y-83101939D01*
X167004774Y-83301898D01*
X167082795Y-83490256D01*
X167196063Y-83659774D01*
X167340226Y-83803937D01*
X167509744Y-83917205D01*
X167698102Y-83995226D01*
X167898061Y-84035000D01*
X168101939Y-84035000D01*
X168301898Y-83995226D01*
X168490256Y-83917205D01*
X168659774Y-83803937D01*
X168803937Y-83659774D01*
X168917205Y-83490256D01*
X168936734Y-83443109D01*
X173318519Y-83443109D01*
X173439186Y-83673000D01*
X174633000Y-83673000D01*
X174633000Y-82479845D01*
X174887000Y-82479845D01*
X174887000Y-83673000D01*
X174907000Y-83673000D01*
X174907000Y-83927000D01*
X174887000Y-83927000D01*
X174887000Y-85120155D01*
X175116890Y-85241476D01*
X175264099Y-85196825D01*
X175526920Y-85071641D01*
X175760269Y-84897588D01*
X175836034Y-84813534D01*
X175860498Y-84894180D01*
X175919463Y-85004494D01*
X175998815Y-85101185D01*
X176095506Y-85180537D01*
X176205820Y-85239502D01*
X176325518Y-85275812D01*
X176450000Y-85288072D01*
X178150000Y-85288072D01*
X178274482Y-85275812D01*
X178394180Y-85239502D01*
X178504494Y-85180537D01*
X178601185Y-85101185D01*
X178680537Y-85004494D01*
X178739502Y-84894180D01*
X178775812Y-84774482D01*
X178788072Y-84650000D01*
X178788072Y-82950000D01*
X178775812Y-82825518D01*
X178739502Y-82705820D01*
X178680537Y-82595506D01*
X178601185Y-82498815D01*
X178504494Y-82419463D01*
X178394180Y-82360498D01*
X178274482Y-82324188D01*
X178150000Y-82311928D01*
X176450000Y-82311928D01*
X176325518Y-82324188D01*
X176205820Y-82360498D01*
X176095506Y-82419463D01*
X175998815Y-82498815D01*
X175919463Y-82595506D01*
X175860498Y-82705820D01*
X175836034Y-82786466D01*
X175760269Y-82702412D01*
X175526920Y-82528359D01*
X175264099Y-82403175D01*
X175116890Y-82358524D01*
X174887000Y-82479845D01*
X174633000Y-82479845D01*
X174403110Y-82358524D01*
X174255901Y-82403175D01*
X173993080Y-82528359D01*
X173759731Y-82702412D01*
X173564822Y-82918645D01*
X173415843Y-83168748D01*
X173318519Y-83443109D01*
X168936734Y-83443109D01*
X168995226Y-83301898D01*
X169035000Y-83101939D01*
X169035000Y-82898061D01*
X168995226Y-82698102D01*
X168917205Y-82509744D01*
X168803937Y-82340226D01*
X168659774Y-82196063D01*
X168490256Y-82082795D01*
X168301898Y-82004774D01*
X168101939Y-81965000D01*
X167898061Y-81965000D01*
X167698102Y-82004774D01*
X167509744Y-82082795D01*
X167340226Y-82196063D01*
X167196063Y-82340226D01*
X167082795Y-82509744D01*
X167004774Y-82698102D01*
X166965000Y-82898061D01*
X86127000Y-82898061D01*
X86127000Y-80138967D01*
X96165000Y-80138967D01*
X96165000Y-80461033D01*
X96227832Y-80776912D01*
X96351082Y-81074463D01*
X96530013Y-81342252D01*
X96757748Y-81569987D01*
X97025537Y-81748918D01*
X97323088Y-81872168D01*
X97638967Y-81935000D01*
X97961033Y-81935000D01*
X98276912Y-81872168D01*
X98574463Y-81748918D01*
X98842252Y-81569987D01*
X98976826Y-81435413D01*
X99344192Y-81435413D01*
X99439956Y-81699814D01*
X99729571Y-81840704D01*
X100041108Y-81922384D01*
X100362595Y-81941718D01*
X100681675Y-81897961D01*
X100986088Y-81792795D01*
X101160044Y-81699814D01*
X101255808Y-81435413D01*
X100300000Y-80479605D01*
X99344192Y-81435413D01*
X98976826Y-81435413D01*
X99069987Y-81342252D01*
X99134925Y-81245065D01*
X99164587Y-81255808D01*
X100120395Y-80300000D01*
X100479605Y-80300000D01*
X101435413Y-81255808D01*
X101465075Y-81245065D01*
X101530013Y-81342252D01*
X101757748Y-81569987D01*
X102025537Y-81748918D01*
X102323088Y-81872168D01*
X102638967Y-81935000D01*
X102961033Y-81935000D01*
X103276912Y-81872168D01*
X103574463Y-81748918D01*
X103842252Y-81569987D01*
X104064178Y-81348061D01*
X122465000Y-81348061D01*
X122465000Y-81551939D01*
X122504774Y-81751898D01*
X122582795Y-81940256D01*
X122696063Y-82109774D01*
X122840226Y-82253937D01*
X123009744Y-82367205D01*
X123198102Y-82445226D01*
X123398061Y-82485000D01*
X123601939Y-82485000D01*
X123801898Y-82445226D01*
X123990256Y-82367205D01*
X124159774Y-82253937D01*
X124303937Y-82109774D01*
X124417205Y-81940256D01*
X124495226Y-81751898D01*
X124535000Y-81551939D01*
X124535000Y-81348061D01*
X124495226Y-81148102D01*
X124417205Y-80959744D01*
X124303937Y-80790226D01*
X124159774Y-80646063D01*
X123990256Y-80532795D01*
X123801898Y-80454774D01*
X123601939Y-80415000D01*
X123398061Y-80415000D01*
X123198102Y-80454774D01*
X123009744Y-80532795D01*
X122840226Y-80646063D01*
X122696063Y-80790226D01*
X122582795Y-80959744D01*
X122504774Y-81148102D01*
X122465000Y-81348061D01*
X104064178Y-81348061D01*
X104069987Y-81342252D01*
X104248918Y-81074463D01*
X104372168Y-80776912D01*
X104435000Y-80461033D01*
X104435000Y-80356891D01*
X173318519Y-80356891D01*
X173415843Y-80631252D01*
X173564822Y-80881355D01*
X173759731Y-81097588D01*
X173993080Y-81271641D01*
X174255901Y-81396825D01*
X174403110Y-81441476D01*
X174633000Y-81320155D01*
X174633000Y-80127000D01*
X173439186Y-80127000D01*
X173318519Y-80356891D01*
X104435000Y-80356891D01*
X104435000Y-80138967D01*
X104372168Y-79823088D01*
X104297619Y-79643109D01*
X173318519Y-79643109D01*
X173439186Y-79873000D01*
X174633000Y-79873000D01*
X174633000Y-78679845D01*
X174887000Y-78679845D01*
X174887000Y-79873000D01*
X174907000Y-79873000D01*
X174907000Y-80127000D01*
X174887000Y-80127000D01*
X174887000Y-81320155D01*
X175116890Y-81441476D01*
X175264099Y-81396825D01*
X175526920Y-81271641D01*
X175760269Y-81097588D01*
X175836034Y-81013534D01*
X175860498Y-81094180D01*
X175919463Y-81204494D01*
X175998815Y-81301185D01*
X176095506Y-81380537D01*
X176205820Y-81439502D01*
X176325518Y-81475812D01*
X176450000Y-81488072D01*
X178150000Y-81488072D01*
X178274482Y-81475812D01*
X178394180Y-81439502D01*
X178504494Y-81380537D01*
X178601185Y-81301185D01*
X178680537Y-81204494D01*
X178739502Y-81094180D01*
X178775812Y-80974482D01*
X178788072Y-80850000D01*
X178788072Y-79150000D01*
X178775812Y-79025518D01*
X178739502Y-78905820D01*
X178680537Y-78795506D01*
X178601185Y-78698815D01*
X178504494Y-78619463D01*
X178394180Y-78560498D01*
X178274482Y-78524188D01*
X178150000Y-78511928D01*
X176450000Y-78511928D01*
X176325518Y-78524188D01*
X176205820Y-78560498D01*
X176095506Y-78619463D01*
X175998815Y-78698815D01*
X175919463Y-78795506D01*
X175860498Y-78905820D01*
X175836034Y-78986466D01*
X175760269Y-78902412D01*
X175526920Y-78728359D01*
X175264099Y-78603175D01*
X175116890Y-78558524D01*
X174887000Y-78679845D01*
X174633000Y-78679845D01*
X174403110Y-78558524D01*
X174255901Y-78603175D01*
X173993080Y-78728359D01*
X173759731Y-78902412D01*
X173564822Y-79118645D01*
X173415843Y-79368748D01*
X173318519Y-79643109D01*
X104297619Y-79643109D01*
X104248918Y-79525537D01*
X104069987Y-79257748D01*
X103842252Y-79030013D01*
X103574463Y-78851082D01*
X103276912Y-78727832D01*
X102961033Y-78665000D01*
X102638967Y-78665000D01*
X102323088Y-78727832D01*
X102025537Y-78851082D01*
X101757748Y-79030013D01*
X101530013Y-79257748D01*
X101465075Y-79354935D01*
X101435413Y-79344192D01*
X100479605Y-80300000D01*
X100120395Y-80300000D01*
X99164587Y-79344192D01*
X99134925Y-79354935D01*
X99069987Y-79257748D01*
X98976826Y-79164587D01*
X99344192Y-79164587D01*
X100300000Y-80120395D01*
X101255808Y-79164587D01*
X101160044Y-78900186D01*
X100870429Y-78759296D01*
X100558892Y-78677616D01*
X100237405Y-78658282D01*
X99918325Y-78702039D01*
X99613912Y-78807205D01*
X99439956Y-78900186D01*
X99344192Y-79164587D01*
X98976826Y-79164587D01*
X98842252Y-79030013D01*
X98574463Y-78851082D01*
X98276912Y-78727832D01*
X97961033Y-78665000D01*
X97638967Y-78665000D01*
X97323088Y-78727832D01*
X97025537Y-78851082D01*
X96757748Y-79030013D01*
X96530013Y-79257748D01*
X96351082Y-79525537D01*
X96227832Y-79823088D01*
X96165000Y-80138967D01*
X86127000Y-80138967D01*
X86127000Y-74898061D01*
X111465000Y-74898061D01*
X111465000Y-75101939D01*
X111504774Y-75301898D01*
X111582795Y-75490256D01*
X111696063Y-75659774D01*
X111840226Y-75803937D01*
X112009744Y-75917205D01*
X112198102Y-75995226D01*
X112398061Y-76035000D01*
X112601939Y-76035000D01*
X112801898Y-75995226D01*
X112990256Y-75917205D01*
X113159774Y-75803937D01*
X113303937Y-75659774D01*
X113343230Y-75600967D01*
X119997000Y-75600967D01*
X119997000Y-75923033D01*
X120059832Y-76238912D01*
X120183082Y-76536463D01*
X120362013Y-76804252D01*
X120589748Y-77031987D01*
X120857537Y-77210918D01*
X121155088Y-77334168D01*
X121470967Y-77397000D01*
X121793033Y-77397000D01*
X122108912Y-77334168D01*
X122406463Y-77210918D01*
X122674252Y-77031987D01*
X122901987Y-76804252D01*
X123080918Y-76536463D01*
X123138246Y-76398061D01*
X132965000Y-76398061D01*
X132965000Y-76601939D01*
X133004774Y-76801898D01*
X133082795Y-76990256D01*
X133196063Y-77159774D01*
X133286289Y-77250000D01*
X133196063Y-77340226D01*
X133082795Y-77509744D01*
X133004774Y-77698102D01*
X132965000Y-77898061D01*
X132965000Y-78101939D01*
X133004774Y-78301898D01*
X133082795Y-78490256D01*
X133196063Y-78659774D01*
X133340226Y-78803937D01*
X133509744Y-78917205D01*
X133698102Y-78995226D01*
X133898061Y-79035000D01*
X134101939Y-79035000D01*
X134301898Y-78995226D01*
X134490256Y-78917205D01*
X134659774Y-78803937D01*
X134803937Y-78659774D01*
X134917205Y-78490256D01*
X134995226Y-78301898D01*
X135035000Y-78101939D01*
X135035000Y-77898061D01*
X134995226Y-77698102D01*
X134917205Y-77509744D01*
X134842582Y-77398061D01*
X138465000Y-77398061D01*
X138465000Y-77601939D01*
X138504774Y-77801898D01*
X138582795Y-77990256D01*
X138696063Y-78159774D01*
X138840226Y-78303937D01*
X139009744Y-78417205D01*
X139198102Y-78495226D01*
X139398061Y-78535000D01*
X139601939Y-78535000D01*
X139801898Y-78495226D01*
X139990256Y-78417205D01*
X140159774Y-78303937D01*
X140303937Y-78159774D01*
X140417205Y-77990256D01*
X140495226Y-77801898D01*
X140535000Y-77601939D01*
X140535000Y-77398061D01*
X140495226Y-77198102D01*
X140417205Y-77009744D01*
X140342582Y-76898061D01*
X156465000Y-76898061D01*
X156465000Y-77101939D01*
X156504774Y-77301898D01*
X156582795Y-77490256D01*
X156696063Y-77659774D01*
X156840226Y-77803937D01*
X157009744Y-77917205D01*
X157198102Y-77995226D01*
X157398061Y-78035000D01*
X157601939Y-78035000D01*
X157801898Y-77995226D01*
X157990256Y-77917205D01*
X158159774Y-77803937D01*
X158303937Y-77659774D01*
X158417205Y-77490256D01*
X158495226Y-77301898D01*
X158535000Y-77101939D01*
X158535000Y-76898061D01*
X158495226Y-76698102D01*
X158417205Y-76509744D01*
X158303937Y-76340226D01*
X158159774Y-76196063D01*
X157990256Y-76082795D01*
X157801898Y-76004774D01*
X157601939Y-75965000D01*
X157398061Y-75965000D01*
X157198102Y-76004774D01*
X157009744Y-76082795D01*
X156840226Y-76196063D01*
X156696063Y-76340226D01*
X156582795Y-76509744D01*
X156504774Y-76698102D01*
X156465000Y-76898061D01*
X140342582Y-76898061D01*
X140303937Y-76840226D01*
X140159774Y-76696063D01*
X139990256Y-76582795D01*
X139801898Y-76504774D01*
X139601939Y-76465000D01*
X139398061Y-76465000D01*
X139198102Y-76504774D01*
X139009744Y-76582795D01*
X138840226Y-76696063D01*
X138696063Y-76840226D01*
X138582795Y-77009744D01*
X138504774Y-77198102D01*
X138465000Y-77398061D01*
X134842582Y-77398061D01*
X134803937Y-77340226D01*
X134713711Y-77250000D01*
X134803937Y-77159774D01*
X134917205Y-76990256D01*
X134995226Y-76801898D01*
X135035000Y-76601939D01*
X135035000Y-76398061D01*
X134995226Y-76198102D01*
X134917205Y-76009744D01*
X134803937Y-75840226D01*
X134659774Y-75696063D01*
X134490256Y-75582795D01*
X134301898Y-75504774D01*
X134101939Y-75465000D01*
X133898061Y-75465000D01*
X133698102Y-75504774D01*
X133509744Y-75582795D01*
X133340226Y-75696063D01*
X133196063Y-75840226D01*
X133082795Y-76009744D01*
X133004774Y-76198102D01*
X132965000Y-76398061D01*
X123138246Y-76398061D01*
X123204168Y-76238912D01*
X123267000Y-75923033D01*
X123267000Y-75600967D01*
X123204168Y-75285088D01*
X123080918Y-74987537D01*
X122991518Y-74853740D01*
X138435000Y-74853740D01*
X138435000Y-75146260D01*
X138492068Y-75433158D01*
X138604010Y-75703411D01*
X138766525Y-75946632D01*
X138973368Y-76153475D01*
X139216589Y-76315990D01*
X139486842Y-76427932D01*
X139773740Y-76485000D01*
X140066260Y-76485000D01*
X140353158Y-76427932D01*
X140623411Y-76315990D01*
X140866632Y-76153475D01*
X141073475Y-75946632D01*
X141190000Y-75772240D01*
X141306525Y-75946632D01*
X141513368Y-76153475D01*
X141756589Y-76315990D01*
X142026842Y-76427932D01*
X142313740Y-76485000D01*
X142606260Y-76485000D01*
X142893158Y-76427932D01*
X143163411Y-76315990D01*
X143406632Y-76153475D01*
X143613475Y-75946632D01*
X143735195Y-75764466D01*
X143804822Y-75881355D01*
X143999731Y-76097588D01*
X144233080Y-76271641D01*
X144495901Y-76396825D01*
X144643110Y-76441476D01*
X144873000Y-76320155D01*
X144873000Y-75127000D01*
X144853000Y-75127000D01*
X144853000Y-74873000D01*
X144873000Y-74873000D01*
X144873000Y-73679845D01*
X145127000Y-73679845D01*
X145127000Y-74873000D01*
X145147000Y-74873000D01*
X145147000Y-75127000D01*
X145127000Y-75127000D01*
X145127000Y-76320155D01*
X145356890Y-76441476D01*
X145504099Y-76396825D01*
X145766920Y-76271641D01*
X146000269Y-76097588D01*
X146195178Y-75881355D01*
X146264805Y-75764466D01*
X146386525Y-75946632D01*
X146593368Y-76153475D01*
X146836589Y-76315990D01*
X147106842Y-76427932D01*
X147393740Y-76485000D01*
X147686260Y-76485000D01*
X147973158Y-76427932D01*
X148243411Y-76315990D01*
X148486632Y-76153475D01*
X148618487Y-76021620D01*
X148640498Y-76094180D01*
X148699463Y-76204494D01*
X148778815Y-76301185D01*
X148875506Y-76380537D01*
X148985820Y-76439502D01*
X149105518Y-76475812D01*
X149230000Y-76488072D01*
X150930000Y-76488072D01*
X151054482Y-76475812D01*
X151174180Y-76439502D01*
X151284494Y-76380537D01*
X151381185Y-76301185D01*
X151460537Y-76204494D01*
X151519502Y-76094180D01*
X151555812Y-75974482D01*
X151568072Y-75850000D01*
X151568072Y-75600967D01*
X166733000Y-75600967D01*
X166733000Y-75923033D01*
X166795832Y-76238912D01*
X166919082Y-76536463D01*
X167098013Y-76804252D01*
X167325748Y-77031987D01*
X167593537Y-77210918D01*
X167891088Y-77334168D01*
X168206967Y-77397000D01*
X168529033Y-77397000D01*
X168844912Y-77334168D01*
X169142463Y-77210918D01*
X169410252Y-77031987D01*
X169637987Y-76804252D01*
X169816918Y-76536463D01*
X169940168Y-76238912D01*
X169977000Y-76053740D01*
X173275000Y-76053740D01*
X173275000Y-76346260D01*
X173332068Y-76633158D01*
X173444010Y-76903411D01*
X173606525Y-77146632D01*
X173813368Y-77353475D01*
X174056589Y-77515990D01*
X174326842Y-77627932D01*
X174613740Y-77685000D01*
X174906260Y-77685000D01*
X175193158Y-77627932D01*
X175463411Y-77515990D01*
X175706632Y-77353475D01*
X175838487Y-77221620D01*
X175860498Y-77294180D01*
X175919463Y-77404494D01*
X175998815Y-77501185D01*
X176095506Y-77580537D01*
X176205820Y-77639502D01*
X176325518Y-77675812D01*
X176450000Y-77688072D01*
X178150000Y-77688072D01*
X178274482Y-77675812D01*
X178394180Y-77639502D01*
X178504494Y-77580537D01*
X178601185Y-77501185D01*
X178680537Y-77404494D01*
X178739502Y-77294180D01*
X178775812Y-77174482D01*
X178788072Y-77050000D01*
X178788072Y-75350000D01*
X178775812Y-75225518D01*
X178739502Y-75105820D01*
X178680537Y-74995506D01*
X178601185Y-74898815D01*
X178504494Y-74819463D01*
X178394180Y-74760498D01*
X178274482Y-74724188D01*
X178150000Y-74711928D01*
X176450000Y-74711928D01*
X176325518Y-74724188D01*
X176205820Y-74760498D01*
X176095506Y-74819463D01*
X175998815Y-74898815D01*
X175919463Y-74995506D01*
X175860498Y-75105820D01*
X175838487Y-75178380D01*
X175706632Y-75046525D01*
X175463411Y-74884010D01*
X175193158Y-74772068D01*
X174906260Y-74715000D01*
X174613740Y-74715000D01*
X174326842Y-74772068D01*
X174056589Y-74884010D01*
X173813368Y-75046525D01*
X173606525Y-75253368D01*
X173444010Y-75496589D01*
X173332068Y-75766842D01*
X173275000Y-76053740D01*
X169977000Y-76053740D01*
X170003000Y-75923033D01*
X170003000Y-75600967D01*
X169940168Y-75285088D01*
X169816918Y-74987537D01*
X169637987Y-74719748D01*
X169410252Y-74492013D01*
X169142463Y-74313082D01*
X168844912Y-74189832D01*
X168529033Y-74127000D01*
X168206967Y-74127000D01*
X167891088Y-74189832D01*
X167593537Y-74313082D01*
X167325748Y-74492013D01*
X167098013Y-74719748D01*
X166919082Y-74987537D01*
X166795832Y-75285088D01*
X166733000Y-75600967D01*
X151568072Y-75600967D01*
X151568072Y-74150000D01*
X151555812Y-74025518D01*
X151519502Y-73905820D01*
X151460537Y-73795506D01*
X151381185Y-73698815D01*
X151284494Y-73619463D01*
X151174180Y-73560498D01*
X151054482Y-73524188D01*
X150954531Y-73514344D01*
X156415000Y-73514344D01*
X156415000Y-73885656D01*
X156487439Y-74249834D01*
X156629534Y-74592882D01*
X156835825Y-74901618D01*
X157098382Y-75164175D01*
X157407118Y-75370466D01*
X157750166Y-75512561D01*
X158114344Y-75585000D01*
X158485656Y-75585000D01*
X158849834Y-75512561D01*
X159192882Y-75370466D01*
X159501618Y-75164175D01*
X159764175Y-74901618D01*
X159970466Y-74592882D01*
X160112561Y-74249834D01*
X160185000Y-73885656D01*
X160185000Y-73514344D01*
X160112561Y-73150166D01*
X159970466Y-72807118D01*
X159764175Y-72498382D01*
X159619533Y-72353740D01*
X173275000Y-72353740D01*
X173275000Y-72646260D01*
X173332068Y-72933158D01*
X173444010Y-73203411D01*
X173606525Y-73446632D01*
X173813368Y-73653475D01*
X174056589Y-73815990D01*
X174326842Y-73927932D01*
X174613740Y-73985000D01*
X174906260Y-73985000D01*
X175193158Y-73927932D01*
X175463411Y-73815990D01*
X175706632Y-73653475D01*
X175838487Y-73521620D01*
X175860498Y-73594180D01*
X175919463Y-73704494D01*
X175998815Y-73801185D01*
X176095506Y-73880537D01*
X176205820Y-73939502D01*
X176325518Y-73975812D01*
X176450000Y-73988072D01*
X178150000Y-73988072D01*
X178274482Y-73975812D01*
X178394180Y-73939502D01*
X178504494Y-73880537D01*
X178601185Y-73801185D01*
X178680537Y-73704494D01*
X178739502Y-73594180D01*
X178775812Y-73474482D01*
X178788072Y-73350000D01*
X178788072Y-71650000D01*
X178775812Y-71525518D01*
X178739502Y-71405820D01*
X178680537Y-71295506D01*
X178601185Y-71198815D01*
X178504494Y-71119463D01*
X178394180Y-71060498D01*
X178274482Y-71024188D01*
X178150000Y-71011928D01*
X176450000Y-71011928D01*
X176325518Y-71024188D01*
X176205820Y-71060498D01*
X176095506Y-71119463D01*
X175998815Y-71198815D01*
X175919463Y-71295506D01*
X175860498Y-71405820D01*
X175838487Y-71478380D01*
X175706632Y-71346525D01*
X175463411Y-71184010D01*
X175193158Y-71072068D01*
X174906260Y-71015000D01*
X174613740Y-71015000D01*
X174326842Y-71072068D01*
X174056589Y-71184010D01*
X173813368Y-71346525D01*
X173606525Y-71553368D01*
X173444010Y-71796589D01*
X173332068Y-72066842D01*
X173275000Y-72353740D01*
X159619533Y-72353740D01*
X159501618Y-72235825D01*
X159192882Y-72029534D01*
X158849834Y-71887439D01*
X158485656Y-71815000D01*
X158114344Y-71815000D01*
X157750166Y-71887439D01*
X157407118Y-72029534D01*
X157098382Y-72235825D01*
X156835825Y-72498382D01*
X156629534Y-72807118D01*
X156487439Y-73150166D01*
X156415000Y-73514344D01*
X150954531Y-73514344D01*
X150930000Y-73511928D01*
X149230000Y-73511928D01*
X149105518Y-73524188D01*
X148985820Y-73560498D01*
X148875506Y-73619463D01*
X148778815Y-73698815D01*
X148699463Y-73795506D01*
X148640498Y-73905820D01*
X148618487Y-73978380D01*
X148486632Y-73846525D01*
X148243411Y-73684010D01*
X147973158Y-73572068D01*
X147686260Y-73515000D01*
X147393740Y-73515000D01*
X147106842Y-73572068D01*
X146836589Y-73684010D01*
X146593368Y-73846525D01*
X146386525Y-74053368D01*
X146264805Y-74235534D01*
X146195178Y-74118645D01*
X146000269Y-73902412D01*
X145766920Y-73728359D01*
X145504099Y-73603175D01*
X145356890Y-73558524D01*
X145127000Y-73679845D01*
X144873000Y-73679845D01*
X144643110Y-73558524D01*
X144495901Y-73603175D01*
X144233080Y-73728359D01*
X143999731Y-73902412D01*
X143804822Y-74118645D01*
X143735195Y-74235534D01*
X143613475Y-74053368D01*
X143406632Y-73846525D01*
X143163411Y-73684010D01*
X142893158Y-73572068D01*
X142606260Y-73515000D01*
X142313740Y-73515000D01*
X142026842Y-73572068D01*
X141756589Y-73684010D01*
X141513368Y-73846525D01*
X141306525Y-74053368D01*
X141190000Y-74227760D01*
X141073475Y-74053368D01*
X140866632Y-73846525D01*
X140623411Y-73684010D01*
X140353158Y-73572068D01*
X140066260Y-73515000D01*
X139773740Y-73515000D01*
X139486842Y-73572068D01*
X139216589Y-73684010D01*
X138973368Y-73846525D01*
X138766525Y-74053368D01*
X138604010Y-74296589D01*
X138492068Y-74566842D01*
X138435000Y-74853740D01*
X122991518Y-74853740D01*
X122901987Y-74719748D01*
X122674252Y-74492013D01*
X122406463Y-74313082D01*
X122108912Y-74189832D01*
X121793033Y-74127000D01*
X121470967Y-74127000D01*
X121155088Y-74189832D01*
X120857537Y-74313082D01*
X120589748Y-74492013D01*
X120362013Y-74719748D01*
X120183082Y-74987537D01*
X120059832Y-75285088D01*
X119997000Y-75600967D01*
X113343230Y-75600967D01*
X113417205Y-75490256D01*
X113495226Y-75301898D01*
X113535000Y-75101939D01*
X113535000Y-74898061D01*
X113495226Y-74698102D01*
X113417205Y-74509744D01*
X113303937Y-74340226D01*
X113159774Y-74196063D01*
X112990256Y-74082795D01*
X112801898Y-74004774D01*
X112601939Y-73965000D01*
X112398061Y-73965000D01*
X112198102Y-74004774D01*
X112009744Y-74082795D01*
X111840226Y-74196063D01*
X111696063Y-74340226D01*
X111582795Y-74509744D01*
X111504774Y-74698102D01*
X111465000Y-74898061D01*
X86127000Y-74898061D01*
X86127000Y-66127000D01*
X112873000Y-66127000D01*
X112873000Y-72000000D01*
G37*
%TD.AperFunction*%
%TD*%
D24*
%TO.N,Earth*%
X179340000Y-11565827D02*
X179340001Y-47435526D01*
X158871634Y-57182368D01*
X158154373Y-57194752D01*
X144305395Y-50600000D01*
X148011928Y-50600000D01*
X148024188Y-50724482D01*
X148060498Y-50844180D01*
X148119463Y-50954494D01*
X148198815Y-51051185D01*
X148295506Y-51130537D01*
X148405820Y-51189502D01*
X148525518Y-51225812D01*
X148650000Y-51238072D01*
X149214250Y-51235000D01*
X149373000Y-51076250D01*
X149373000Y-49877000D01*
X148173750Y-49877000D01*
X148015000Y-50035750D01*
X148011928Y-50600000D01*
X144305395Y-50600000D01*
X140735396Y-48900000D01*
X148011928Y-48900000D01*
X148015000Y-49464250D01*
X148173750Y-49623000D01*
X149373000Y-49623000D01*
X149373000Y-48423750D01*
X149627000Y-48423750D01*
X149627000Y-49623000D01*
X149647000Y-49623000D01*
X149647000Y-49877000D01*
X149627000Y-49877000D01*
X149627000Y-51076250D01*
X149785750Y-51235000D01*
X150350000Y-51238072D01*
X150474482Y-51225812D01*
X150594180Y-51189502D01*
X150704494Y-51130537D01*
X150801185Y-51051185D01*
X150880537Y-50954494D01*
X150939502Y-50844180D01*
X150961513Y-50771620D01*
X151093368Y-50903475D01*
X151336589Y-51065990D01*
X151606842Y-51177932D01*
X151893740Y-51235000D01*
X152186260Y-51235000D01*
X152473158Y-51177932D01*
X152743411Y-51065990D01*
X152986632Y-50903475D01*
X153193475Y-50696632D01*
X153310000Y-50522240D01*
X153426525Y-50696632D01*
X153633368Y-50903475D01*
X153876589Y-51065990D01*
X154146842Y-51177932D01*
X154433740Y-51235000D01*
X154726260Y-51235000D01*
X155013158Y-51177932D01*
X155283411Y-51065990D01*
X155526632Y-50903475D01*
X155733475Y-50696632D01*
X155850000Y-50522240D01*
X155966525Y-50696632D01*
X156173368Y-50903475D01*
X156416589Y-51065990D01*
X156686842Y-51177932D01*
X156973740Y-51235000D01*
X157266260Y-51235000D01*
X157553158Y-51177932D01*
X157823411Y-51065990D01*
X158066632Y-50903475D01*
X158273475Y-50696632D01*
X158390000Y-50522240D01*
X158506525Y-50696632D01*
X158713368Y-50903475D01*
X158956589Y-51065990D01*
X159226842Y-51177932D01*
X159513740Y-51235000D01*
X159806260Y-51235000D01*
X160093158Y-51177932D01*
X160363411Y-51065990D01*
X160606632Y-50903475D01*
X160813475Y-50696632D01*
X160930000Y-50522240D01*
X161046525Y-50696632D01*
X161253368Y-50903475D01*
X161496589Y-51065990D01*
X161766842Y-51177932D01*
X162053740Y-51235000D01*
X162346260Y-51235000D01*
X162633158Y-51177932D01*
X162903411Y-51065990D01*
X163146632Y-50903475D01*
X163353475Y-50696632D01*
X163470000Y-50522240D01*
X163586525Y-50696632D01*
X163793368Y-50903475D01*
X164036589Y-51065990D01*
X164306842Y-51177932D01*
X164593740Y-51235000D01*
X164886260Y-51235000D01*
X165173158Y-51177932D01*
X165443411Y-51065990D01*
X165686632Y-50903475D01*
X165893475Y-50696632D01*
X166010000Y-50522240D01*
X166126525Y-50696632D01*
X166333368Y-50903475D01*
X166576589Y-51065990D01*
X166846842Y-51177932D01*
X167133740Y-51235000D01*
X167426260Y-51235000D01*
X167713158Y-51177932D01*
X167983411Y-51065990D01*
X168226632Y-50903475D01*
X168433475Y-50696632D01*
X168595990Y-50453411D01*
X168707932Y-50183158D01*
X168765000Y-49896260D01*
X168765000Y-49603740D01*
X168707932Y-49316842D01*
X168595990Y-49046589D01*
X168433475Y-48803368D01*
X168226632Y-48596525D01*
X167983411Y-48434010D01*
X167713158Y-48322068D01*
X167426260Y-48265000D01*
X167133740Y-48265000D01*
X166846842Y-48322068D01*
X166576589Y-48434010D01*
X166333368Y-48596525D01*
X166126525Y-48803368D01*
X166010000Y-48977760D01*
X165893475Y-48803368D01*
X165686632Y-48596525D01*
X165443411Y-48434010D01*
X165173158Y-48322068D01*
X164886260Y-48265000D01*
X164593740Y-48265000D01*
X164306842Y-48322068D01*
X164036589Y-48434010D01*
X163793368Y-48596525D01*
X163586525Y-48803368D01*
X163470000Y-48977760D01*
X163353475Y-48803368D01*
X163146632Y-48596525D01*
X162903411Y-48434010D01*
X162633158Y-48322068D01*
X162346260Y-48265000D01*
X162053740Y-48265000D01*
X161766842Y-48322068D01*
X161496589Y-48434010D01*
X161253368Y-48596525D01*
X161046525Y-48803368D01*
X160930000Y-48977760D01*
X160813475Y-48803368D01*
X160606632Y-48596525D01*
X160363411Y-48434010D01*
X160093158Y-48322068D01*
X159806260Y-48265000D01*
X159513740Y-48265000D01*
X159226842Y-48322068D01*
X158956589Y-48434010D01*
X158713368Y-48596525D01*
X158506525Y-48803368D01*
X158390000Y-48977760D01*
X158273475Y-48803368D01*
X158066632Y-48596525D01*
X157823411Y-48434010D01*
X157553158Y-48322068D01*
X157266260Y-48265000D01*
X156973740Y-48265000D01*
X156686842Y-48322068D01*
X156416589Y-48434010D01*
X156173368Y-48596525D01*
X155966525Y-48803368D01*
X155850000Y-48977760D01*
X155733475Y-48803368D01*
X155526632Y-48596525D01*
X155283411Y-48434010D01*
X155013158Y-48322068D01*
X154726260Y-48265000D01*
X154433740Y-48265000D01*
X154146842Y-48322068D01*
X153876589Y-48434010D01*
X153633368Y-48596525D01*
X153426525Y-48803368D01*
X153310000Y-48977760D01*
X153193475Y-48803368D01*
X152986632Y-48596525D01*
X152743411Y-48434010D01*
X152473158Y-48322068D01*
X152186260Y-48265000D01*
X151893740Y-48265000D01*
X151606842Y-48322068D01*
X151336589Y-48434010D01*
X151093368Y-48596525D01*
X150961513Y-48728380D01*
X150939502Y-48655820D01*
X150880537Y-48545506D01*
X150801185Y-48448815D01*
X150704494Y-48369463D01*
X150594180Y-48310498D01*
X150474482Y-48274188D01*
X150350000Y-48261928D01*
X149785750Y-48265000D01*
X149627000Y-48423750D01*
X149373000Y-48423750D01*
X149214250Y-48265000D01*
X148650000Y-48261928D01*
X148525518Y-48274188D01*
X148405820Y-48310498D01*
X148295506Y-48369463D01*
X148198815Y-48448815D01*
X148119463Y-48545506D01*
X148060498Y-48655820D01*
X148024188Y-48775518D01*
X148011928Y-48900000D01*
X140735396Y-48900000D01*
X137660000Y-47435526D01*
X137660000Y-45124911D01*
X137698009Y-42388212D01*
X152565000Y-42388212D01*
X152565000Y-42611788D01*
X152608617Y-42831067D01*
X152694176Y-43037624D01*
X152818388Y-43223520D01*
X152976480Y-43381612D01*
X153162376Y-43505824D01*
X153368933Y-43591383D01*
X153588212Y-43635000D01*
X153811788Y-43635000D01*
X154031067Y-43591383D01*
X154237624Y-43505824D01*
X154413642Y-43388212D01*
X159865000Y-43388212D01*
X159865000Y-43611788D01*
X159908617Y-43831067D01*
X159994176Y-44037624D01*
X160118388Y-44223520D01*
X160276480Y-44381612D01*
X160462376Y-44505824D01*
X160668933Y-44591383D01*
X160888212Y-44635000D01*
X161111788Y-44635000D01*
X161331067Y-44591383D01*
X161537624Y-44505824D01*
X161723520Y-44381612D01*
X161881612Y-44223520D01*
X162005824Y-44037624D01*
X162091383Y-43831067D01*
X162135000Y-43611788D01*
X162135000Y-43388212D01*
X162091383Y-43168933D01*
X162005824Y-42962376D01*
X161881612Y-42776480D01*
X161723520Y-42618388D01*
X161537624Y-42494176D01*
X161331067Y-42408617D01*
X161111788Y-42365000D01*
X160888212Y-42365000D01*
X160668933Y-42408617D01*
X160462376Y-42494176D01*
X160276480Y-42618388D01*
X160118388Y-42776480D01*
X159994176Y-42962376D01*
X159908617Y-43168933D01*
X159865000Y-43388212D01*
X154413642Y-43388212D01*
X154423520Y-43381612D01*
X154581612Y-43223520D01*
X154705824Y-43037624D01*
X154791383Y-42831067D01*
X154835000Y-42611788D01*
X154835000Y-42388212D01*
X154791383Y-42168933D01*
X154705824Y-41962376D01*
X154581612Y-41776480D01*
X154423520Y-41618388D01*
X154237624Y-41494176D01*
X154031067Y-41408617D01*
X153811788Y-41365000D01*
X153588212Y-41365000D01*
X153368933Y-41408617D01*
X153162376Y-41494176D01*
X152976480Y-41618388D01*
X152818388Y-41776480D01*
X152694176Y-41962376D01*
X152608617Y-42168933D01*
X152565000Y-42388212D01*
X137698009Y-42388212D01*
X137721620Y-40688212D01*
X149265000Y-40688212D01*
X149265000Y-40911788D01*
X149308617Y-41131067D01*
X149394176Y-41337624D01*
X149518388Y-41523520D01*
X149676480Y-41681612D01*
X149862376Y-41805824D01*
X150068933Y-41891383D01*
X150288212Y-41935000D01*
X150511788Y-41935000D01*
X150731067Y-41891383D01*
X150937624Y-41805824D01*
X151123520Y-41681612D01*
X151281612Y-41523520D01*
X151405824Y-41337624D01*
X151491383Y-41131067D01*
X151535000Y-40911788D01*
X151535000Y-40688212D01*
X151491383Y-40468933D01*
X151405824Y-40262376D01*
X151281612Y-40076480D01*
X151123520Y-39918388D01*
X150937624Y-39794176D01*
X150731183Y-39708665D01*
X155063523Y-39708665D01*
X155063523Y-39991335D01*
X155118670Y-40268574D01*
X155226843Y-40529727D01*
X155383886Y-40764759D01*
X155583764Y-40964637D01*
X155818796Y-41121680D01*
X156079949Y-41229853D01*
X156357188Y-41285000D01*
X156639858Y-41285000D01*
X156917097Y-41229853D01*
X157178250Y-41121680D01*
X157413282Y-40964637D01*
X157613160Y-40764759D01*
X157770203Y-40529727D01*
X157878376Y-40268574D01*
X157933523Y-39991335D01*
X157933523Y-39708665D01*
X159066477Y-39708665D01*
X159066477Y-39991335D01*
X159121624Y-40268574D01*
X159229797Y-40529727D01*
X159386840Y-40764759D01*
X159586718Y-40964637D01*
X159821750Y-41121680D01*
X160082903Y-41229853D01*
X160360142Y-41285000D01*
X160642812Y-41285000D01*
X160920051Y-41229853D01*
X161181204Y-41121680D01*
X161416236Y-40964637D01*
X161616114Y-40764759D01*
X161773157Y-40529727D01*
X161881330Y-40268574D01*
X161917206Y-40088212D01*
X166765000Y-40088212D01*
X166765000Y-40311788D01*
X166808617Y-40531067D01*
X166894176Y-40737624D01*
X167018388Y-40923520D01*
X167176480Y-41081612D01*
X167362376Y-41205824D01*
X167568933Y-41291383D01*
X167788212Y-41335000D01*
X168011788Y-41335000D01*
X168231067Y-41291383D01*
X168437624Y-41205824D01*
X168623520Y-41081612D01*
X168781612Y-40923520D01*
X168905824Y-40737624D01*
X168991383Y-40531067D01*
X169035000Y-40311788D01*
X169035000Y-40088212D01*
X168995218Y-39888212D01*
X169965000Y-39888212D01*
X169965000Y-40111788D01*
X170008617Y-40331067D01*
X170094176Y-40537624D01*
X170218388Y-40723520D01*
X170376480Y-40881612D01*
X170562376Y-41005824D01*
X170768933Y-41091383D01*
X170988212Y-41135000D01*
X171211788Y-41135000D01*
X171431067Y-41091383D01*
X171637624Y-41005824D01*
X171823520Y-40881612D01*
X171981612Y-40723520D01*
X172105824Y-40537624D01*
X172191383Y-40331067D01*
X172235000Y-40111788D01*
X172235000Y-39888212D01*
X172191383Y-39668933D01*
X172105824Y-39462376D01*
X171981612Y-39276480D01*
X171823520Y-39118388D01*
X171637624Y-38994176D01*
X171431067Y-38908617D01*
X171211788Y-38865000D01*
X170988212Y-38865000D01*
X170768933Y-38908617D01*
X170562376Y-38994176D01*
X170376480Y-39118388D01*
X170218388Y-39276480D01*
X170094176Y-39462376D01*
X170008617Y-39668933D01*
X169965000Y-39888212D01*
X168995218Y-39888212D01*
X168991383Y-39868933D01*
X168905824Y-39662376D01*
X168781612Y-39476480D01*
X168623520Y-39318388D01*
X168437624Y-39194176D01*
X168231067Y-39108617D01*
X168011788Y-39065000D01*
X167788212Y-39065000D01*
X167568933Y-39108617D01*
X167362376Y-39194176D01*
X167176480Y-39318388D01*
X167018388Y-39476480D01*
X166894176Y-39662376D01*
X166808617Y-39868933D01*
X166765000Y-40088212D01*
X161917206Y-40088212D01*
X161936477Y-39991335D01*
X161936477Y-39708665D01*
X161881330Y-39431426D01*
X161773157Y-39170273D01*
X161616114Y-38935241D01*
X161416236Y-38735363D01*
X161181204Y-38578320D01*
X160920051Y-38470147D01*
X160642812Y-38415000D01*
X160360142Y-38415000D01*
X160082903Y-38470147D01*
X159821750Y-38578320D01*
X159586718Y-38735363D01*
X159386840Y-38935241D01*
X159229797Y-39170273D01*
X159121624Y-39431426D01*
X159066477Y-39708665D01*
X157933523Y-39708665D01*
X157878376Y-39431426D01*
X157770203Y-39170273D01*
X157613160Y-38935241D01*
X157413282Y-38735363D01*
X157178250Y-38578320D01*
X156917097Y-38470147D01*
X156639858Y-38415000D01*
X156357188Y-38415000D01*
X156079949Y-38470147D01*
X155818796Y-38578320D01*
X155583764Y-38735363D01*
X155383886Y-38935241D01*
X155226843Y-39170273D01*
X155118670Y-39431426D01*
X155063523Y-39708665D01*
X150731183Y-39708665D01*
X150731067Y-39708617D01*
X150511788Y-39665000D01*
X150288212Y-39665000D01*
X150068933Y-39708617D01*
X149862376Y-39794176D01*
X149676480Y-39918388D01*
X149518388Y-40076480D01*
X149394176Y-40262376D01*
X149308617Y-40468933D01*
X149265000Y-40688212D01*
X137721620Y-40688212D01*
X137752176Y-38488212D01*
X141865000Y-38488212D01*
X141865000Y-38711788D01*
X141908617Y-38931067D01*
X141994176Y-39137624D01*
X142118388Y-39323520D01*
X142276480Y-39481612D01*
X142462376Y-39605824D01*
X142668933Y-39691383D01*
X142888212Y-39735000D01*
X143111788Y-39735000D01*
X143331067Y-39691383D01*
X143537624Y-39605824D01*
X143723520Y-39481612D01*
X143881612Y-39323520D01*
X144005824Y-39137624D01*
X144091383Y-38931067D01*
X144135000Y-38711788D01*
X144135000Y-38488212D01*
X144091383Y-38268933D01*
X144005824Y-38062376D01*
X143881612Y-37876480D01*
X143723520Y-37718388D01*
X143537624Y-37594176D01*
X143331067Y-37508617D01*
X143111788Y-37465000D01*
X142888212Y-37465000D01*
X142668933Y-37508617D01*
X142462376Y-37594176D01*
X142276480Y-37718388D01*
X142118388Y-37876480D01*
X141994176Y-38062376D01*
X141908617Y-38268933D01*
X141865000Y-38488212D01*
X137752176Y-38488212D01*
X137823419Y-33358665D01*
X144065000Y-33358665D01*
X144065000Y-33641335D01*
X144120147Y-33918574D01*
X144228320Y-34179727D01*
X144385363Y-34414759D01*
X144585241Y-34614637D01*
X144820273Y-34771680D01*
X145081426Y-34879853D01*
X145358665Y-34935000D01*
X145641335Y-34935000D01*
X145918574Y-34879853D01*
X146179727Y-34771680D01*
X146414759Y-34614637D01*
X146614637Y-34414759D01*
X146771680Y-34179727D01*
X146879853Y-33918574D01*
X146935000Y-33641335D01*
X146935000Y-33358665D01*
X170065000Y-33358665D01*
X170065000Y-33641335D01*
X170120147Y-33918574D01*
X170228320Y-34179727D01*
X170385363Y-34414759D01*
X170585241Y-34614637D01*
X170820273Y-34771680D01*
X171081426Y-34879853D01*
X171358665Y-34935000D01*
X171641335Y-34935000D01*
X171918574Y-34879853D01*
X172179727Y-34771680D01*
X172414759Y-34614637D01*
X172614637Y-34414759D01*
X172771680Y-34179727D01*
X172879853Y-33918574D01*
X172935000Y-33641335D01*
X172935000Y-33358665D01*
X172879853Y-33081426D01*
X172771680Y-32820273D01*
X172614637Y-32585241D01*
X172414759Y-32385363D01*
X172179727Y-32228320D01*
X171918574Y-32120147D01*
X171641335Y-32065000D01*
X171358665Y-32065000D01*
X171081426Y-32120147D01*
X170820273Y-32228320D01*
X170585241Y-32385363D01*
X170385363Y-32585241D01*
X170228320Y-32820273D01*
X170120147Y-33081426D01*
X170065000Y-33358665D01*
X146935000Y-33358665D01*
X146879853Y-33081426D01*
X146771680Y-32820273D01*
X146614637Y-32585241D01*
X146414759Y-32385363D01*
X146179727Y-32228320D01*
X145918574Y-32120147D01*
X145641335Y-32065000D01*
X145358665Y-32065000D01*
X145081426Y-32120147D01*
X144820273Y-32228320D01*
X144585241Y-32385363D01*
X144385363Y-32585241D01*
X144228320Y-32820273D01*
X144120147Y-33081426D01*
X144065000Y-33358665D01*
X137823419Y-33358665D01*
X137869253Y-30058665D01*
X142065000Y-30058665D01*
X142065000Y-30341335D01*
X142120147Y-30618574D01*
X142228320Y-30879727D01*
X142385363Y-31114759D01*
X142585241Y-31314637D01*
X142820273Y-31471680D01*
X143081426Y-31579853D01*
X143358665Y-31635000D01*
X143641335Y-31635000D01*
X143918574Y-31579853D01*
X144179727Y-31471680D01*
X144414759Y-31314637D01*
X144614637Y-31114759D01*
X144771680Y-30879727D01*
X144879853Y-30618574D01*
X144935000Y-30341335D01*
X144935000Y-30058665D01*
X172065000Y-30058665D01*
X172065000Y-30341335D01*
X172120147Y-30618574D01*
X172228320Y-30879727D01*
X172385363Y-31114759D01*
X172585241Y-31314637D01*
X172820273Y-31471680D01*
X173081426Y-31579853D01*
X173358665Y-31635000D01*
X173641335Y-31635000D01*
X173918574Y-31579853D01*
X174179727Y-31471680D01*
X174414759Y-31314637D01*
X174614637Y-31114759D01*
X174771680Y-30879727D01*
X174879853Y-30618574D01*
X174935000Y-30341335D01*
X174935000Y-30058665D01*
X174879853Y-29781426D01*
X174771680Y-29520273D01*
X174614637Y-29285241D01*
X174414759Y-29085363D01*
X174179727Y-28928320D01*
X173918574Y-28820147D01*
X173641335Y-28765000D01*
X173358665Y-28765000D01*
X173081426Y-28820147D01*
X172820273Y-28928320D01*
X172585241Y-29085363D01*
X172385363Y-29285241D01*
X172228320Y-29520273D01*
X172120147Y-29781426D01*
X172065000Y-30058665D01*
X144935000Y-30058665D01*
X144879853Y-29781426D01*
X144771680Y-29520273D01*
X144614637Y-29285241D01*
X144414759Y-29085363D01*
X144179727Y-28928320D01*
X143918574Y-28820147D01*
X143641335Y-28765000D01*
X143358665Y-28765000D01*
X143081426Y-28820147D01*
X142820273Y-28928320D01*
X142585241Y-29085363D01*
X142385363Y-29285241D01*
X142228320Y-29520273D01*
X142120147Y-29781426D01*
X142065000Y-30058665D01*
X137869253Y-30058665D01*
X138045641Y-17358665D01*
X142065000Y-17358665D01*
X142065000Y-17641335D01*
X142120147Y-17918574D01*
X142228320Y-18179727D01*
X142385363Y-18414759D01*
X142585241Y-18614637D01*
X142820273Y-18771680D01*
X143081426Y-18879853D01*
X143358665Y-18935000D01*
X143641335Y-18935000D01*
X143918574Y-18879853D01*
X144179727Y-18771680D01*
X144414759Y-18614637D01*
X144614637Y-18414759D01*
X144771680Y-18179727D01*
X144879853Y-17918574D01*
X144935000Y-17641335D01*
X144935000Y-17358665D01*
X172065000Y-17358665D01*
X172065000Y-17641335D01*
X172120147Y-17918574D01*
X172228320Y-18179727D01*
X172385363Y-18414759D01*
X172585241Y-18614637D01*
X172820273Y-18771680D01*
X173081426Y-18879853D01*
X173358665Y-18935000D01*
X173641335Y-18935000D01*
X173918574Y-18879853D01*
X174179727Y-18771680D01*
X174414759Y-18614637D01*
X174614637Y-18414759D01*
X174771680Y-18179727D01*
X174879853Y-17918574D01*
X174935000Y-17641335D01*
X174935000Y-17358665D01*
X174879853Y-17081426D01*
X174771680Y-16820273D01*
X174614637Y-16585241D01*
X174414759Y-16385363D01*
X174179727Y-16228320D01*
X173918574Y-16120147D01*
X173641335Y-16065000D01*
X173358665Y-16065000D01*
X173081426Y-16120147D01*
X172820273Y-16228320D01*
X172585241Y-16385363D01*
X172385363Y-16585241D01*
X172228320Y-16820273D01*
X172120147Y-17081426D01*
X172065000Y-17358665D01*
X144935000Y-17358665D01*
X144879853Y-17081426D01*
X144771680Y-16820273D01*
X144614637Y-16585241D01*
X144414759Y-16385363D01*
X144179727Y-16228320D01*
X143918574Y-16120147D01*
X143641335Y-16065000D01*
X143358665Y-16065000D01*
X143081426Y-16120147D01*
X142820273Y-16228320D01*
X142585241Y-16385363D01*
X142385363Y-16585241D01*
X142228320Y-16820273D01*
X142120147Y-17081426D01*
X142065000Y-17358665D01*
X138045641Y-17358665D01*
X138096335Y-13708665D01*
X144066477Y-13708665D01*
X144066477Y-13991335D01*
X144121624Y-14268574D01*
X144229797Y-14529727D01*
X144386840Y-14764759D01*
X144586718Y-14964637D01*
X144821750Y-15121680D01*
X145082903Y-15229853D01*
X145360142Y-15285000D01*
X145642812Y-15285000D01*
X145920051Y-15229853D01*
X146181204Y-15121680D01*
X146416236Y-14964637D01*
X146616114Y-14764759D01*
X146773157Y-14529727D01*
X146881330Y-14268574D01*
X146936477Y-13991335D01*
X146936477Y-13708665D01*
X170063523Y-13708665D01*
X170063523Y-13991335D01*
X170118670Y-14268574D01*
X170226843Y-14529727D01*
X170383886Y-14764759D01*
X170583764Y-14964637D01*
X170818796Y-15121680D01*
X171079949Y-15229853D01*
X171357188Y-15285000D01*
X171639858Y-15285000D01*
X171917097Y-15229853D01*
X172178250Y-15121680D01*
X172413282Y-14964637D01*
X172613160Y-14764759D01*
X172770203Y-14529727D01*
X172878376Y-14268574D01*
X172933523Y-13991335D01*
X172933523Y-13708665D01*
X172878376Y-13431426D01*
X172770203Y-13170273D01*
X172613160Y-12935241D01*
X172413282Y-12735363D01*
X172178250Y-12578320D01*
X171917097Y-12470147D01*
X171639858Y-12415000D01*
X171357188Y-12415000D01*
X171079949Y-12470147D01*
X170818796Y-12578320D01*
X170583764Y-12735363D01*
X170383886Y-12935241D01*
X170226843Y-13170273D01*
X170118670Y-13431426D01*
X170063523Y-13708665D01*
X146936477Y-13708665D01*
X146881330Y-13431426D01*
X146773157Y-13170273D01*
X146616114Y-12935241D01*
X146416236Y-12735363D01*
X146181204Y-12578320D01*
X145920051Y-12470147D01*
X145642812Y-12415000D01*
X145360142Y-12415000D01*
X145082903Y-12470147D01*
X144821750Y-12578320D01*
X144586718Y-12735363D01*
X144386840Y-12935241D01*
X144229797Y-13170273D01*
X144121624Y-13431426D01*
X144066477Y-13708665D01*
X138096335Y-13708665D01*
X138125867Y-11582451D01*
X147462657Y-7358665D01*
X155065000Y-7358665D01*
X155065000Y-7641335D01*
X155120147Y-7918574D01*
X155228320Y-8179727D01*
X155385363Y-8414759D01*
X155585241Y-8614637D01*
X155820273Y-8771680D01*
X156081426Y-8879853D01*
X156358665Y-8935000D01*
X156641335Y-8935000D01*
X156918574Y-8879853D01*
X157179727Y-8771680D01*
X157414759Y-8614637D01*
X157614637Y-8414759D01*
X157771680Y-8179727D01*
X157879853Y-7918574D01*
X157935000Y-7641335D01*
X157935000Y-7358665D01*
X159065000Y-7358665D01*
X159065000Y-7641335D01*
X159120147Y-7918574D01*
X159228320Y-8179727D01*
X159385363Y-8414759D01*
X159585241Y-8614637D01*
X159820273Y-8771680D01*
X160081426Y-8879853D01*
X160358665Y-8935000D01*
X160641335Y-8935000D01*
X160918574Y-8879853D01*
X161179727Y-8771680D01*
X161414759Y-8614637D01*
X161614637Y-8414759D01*
X161771680Y-8179727D01*
X161879853Y-7918574D01*
X161935000Y-7641335D01*
X161935000Y-7358665D01*
X161879853Y-7081426D01*
X161771680Y-6820273D01*
X161614637Y-6585241D01*
X161414759Y-6385363D01*
X161179727Y-6228320D01*
X160918574Y-6120147D01*
X160641335Y-6065000D01*
X160358665Y-6065000D01*
X160081426Y-6120147D01*
X159820273Y-6228320D01*
X159585241Y-6385363D01*
X159385363Y-6585241D01*
X159228320Y-6820273D01*
X159120147Y-7081426D01*
X159065000Y-7358665D01*
X157935000Y-7358665D01*
X157879853Y-7081426D01*
X157771680Y-6820273D01*
X157614637Y-6585241D01*
X157414759Y-6385363D01*
X157179727Y-6228320D01*
X156918574Y-6120147D01*
X156641335Y-6065000D01*
X156358665Y-6065000D01*
X156081426Y-6120147D01*
X155820273Y-6228320D01*
X155585241Y-6385363D01*
X155385363Y-6585241D01*
X155228320Y-6820273D01*
X155120147Y-7081426D01*
X155065000Y-7358665D01*
X147462657Y-7358665D01*
X158999363Y-2139679D01*
X179340000Y-11565827D01*
%TA.AperFunction,Conductor*%
D25*
G36*
X179340000Y-11565827D02*
G01*
X179340001Y-47435526D01*
X158871634Y-57182368D01*
X158154373Y-57194752D01*
X144305395Y-50600000D01*
X148011928Y-50600000D01*
X148024188Y-50724482D01*
X148060498Y-50844180D01*
X148119463Y-50954494D01*
X148198815Y-51051185D01*
X148295506Y-51130537D01*
X148405820Y-51189502D01*
X148525518Y-51225812D01*
X148650000Y-51238072D01*
X149214250Y-51235000D01*
X149373000Y-51076250D01*
X149373000Y-49877000D01*
X148173750Y-49877000D01*
X148015000Y-50035750D01*
X148011928Y-50600000D01*
X144305395Y-50600000D01*
X140735396Y-48900000D01*
X148011928Y-48900000D01*
X148015000Y-49464250D01*
X148173750Y-49623000D01*
X149373000Y-49623000D01*
X149373000Y-48423750D01*
X149627000Y-48423750D01*
X149627000Y-49623000D01*
X149647000Y-49623000D01*
X149647000Y-49877000D01*
X149627000Y-49877000D01*
X149627000Y-51076250D01*
X149785750Y-51235000D01*
X150350000Y-51238072D01*
X150474482Y-51225812D01*
X150594180Y-51189502D01*
X150704494Y-51130537D01*
X150801185Y-51051185D01*
X150880537Y-50954494D01*
X150939502Y-50844180D01*
X150961513Y-50771620D01*
X151093368Y-50903475D01*
X151336589Y-51065990D01*
X151606842Y-51177932D01*
X151893740Y-51235000D01*
X152186260Y-51235000D01*
X152473158Y-51177932D01*
X152743411Y-51065990D01*
X152986632Y-50903475D01*
X153193475Y-50696632D01*
X153310000Y-50522240D01*
X153426525Y-50696632D01*
X153633368Y-50903475D01*
X153876589Y-51065990D01*
X154146842Y-51177932D01*
X154433740Y-51235000D01*
X154726260Y-51235000D01*
X155013158Y-51177932D01*
X155283411Y-51065990D01*
X155526632Y-50903475D01*
X155733475Y-50696632D01*
X155850000Y-50522240D01*
X155966525Y-50696632D01*
X156173368Y-50903475D01*
X156416589Y-51065990D01*
X156686842Y-51177932D01*
X156973740Y-51235000D01*
X157266260Y-51235000D01*
X157553158Y-51177932D01*
X157823411Y-51065990D01*
X158066632Y-50903475D01*
X158273475Y-50696632D01*
X158390000Y-50522240D01*
X158506525Y-50696632D01*
X158713368Y-50903475D01*
X158956589Y-51065990D01*
X159226842Y-51177932D01*
X159513740Y-51235000D01*
X159806260Y-51235000D01*
X160093158Y-51177932D01*
X160363411Y-51065990D01*
X160606632Y-50903475D01*
X160813475Y-50696632D01*
X160930000Y-50522240D01*
X161046525Y-50696632D01*
X161253368Y-50903475D01*
X161496589Y-51065990D01*
X161766842Y-51177932D01*
X162053740Y-51235000D01*
X162346260Y-51235000D01*
X162633158Y-51177932D01*
X162903411Y-51065990D01*
X163146632Y-50903475D01*
X163353475Y-50696632D01*
X163470000Y-50522240D01*
X163586525Y-50696632D01*
X163793368Y-50903475D01*
X164036589Y-51065990D01*
X164306842Y-51177932D01*
X164593740Y-51235000D01*
X164886260Y-51235000D01*
X165173158Y-51177932D01*
X165443411Y-51065990D01*
X165686632Y-50903475D01*
X165893475Y-50696632D01*
X166010000Y-50522240D01*
X166126525Y-50696632D01*
X166333368Y-50903475D01*
X166576589Y-51065990D01*
X166846842Y-51177932D01*
X167133740Y-51235000D01*
X167426260Y-51235000D01*
X167713158Y-51177932D01*
X167983411Y-51065990D01*
X168226632Y-50903475D01*
X168433475Y-50696632D01*
X168595990Y-50453411D01*
X168707932Y-50183158D01*
X168765000Y-49896260D01*
X168765000Y-49603740D01*
X168707932Y-49316842D01*
X168595990Y-49046589D01*
X168433475Y-48803368D01*
X168226632Y-48596525D01*
X167983411Y-48434010D01*
X167713158Y-48322068D01*
X167426260Y-48265000D01*
X167133740Y-48265000D01*
X166846842Y-48322068D01*
X166576589Y-48434010D01*
X166333368Y-48596525D01*
X166126525Y-48803368D01*
X166010000Y-48977760D01*
X165893475Y-48803368D01*
X165686632Y-48596525D01*
X165443411Y-48434010D01*
X165173158Y-48322068D01*
X164886260Y-48265000D01*
X164593740Y-48265000D01*
X164306842Y-48322068D01*
X164036589Y-48434010D01*
X163793368Y-48596525D01*
X163586525Y-48803368D01*
X163470000Y-48977760D01*
X163353475Y-48803368D01*
X163146632Y-48596525D01*
X162903411Y-48434010D01*
X162633158Y-48322068D01*
X162346260Y-48265000D01*
X162053740Y-48265000D01*
X161766842Y-48322068D01*
X161496589Y-48434010D01*
X161253368Y-48596525D01*
X161046525Y-48803368D01*
X160930000Y-48977760D01*
X160813475Y-48803368D01*
X160606632Y-48596525D01*
X160363411Y-48434010D01*
X160093158Y-48322068D01*
X159806260Y-48265000D01*
X159513740Y-48265000D01*
X159226842Y-48322068D01*
X158956589Y-48434010D01*
X158713368Y-48596525D01*
X158506525Y-48803368D01*
X158390000Y-48977760D01*
X158273475Y-48803368D01*
X158066632Y-48596525D01*
X157823411Y-48434010D01*
X157553158Y-48322068D01*
X157266260Y-48265000D01*
X156973740Y-48265000D01*
X156686842Y-48322068D01*
X156416589Y-48434010D01*
X156173368Y-48596525D01*
X155966525Y-48803368D01*
X155850000Y-48977760D01*
X155733475Y-48803368D01*
X155526632Y-48596525D01*
X155283411Y-48434010D01*
X155013158Y-48322068D01*
X154726260Y-48265000D01*
X154433740Y-48265000D01*
X154146842Y-48322068D01*
X153876589Y-48434010D01*
X153633368Y-48596525D01*
X153426525Y-48803368D01*
X153310000Y-48977760D01*
X153193475Y-48803368D01*
X152986632Y-48596525D01*
X152743411Y-48434010D01*
X152473158Y-48322068D01*
X152186260Y-48265000D01*
X151893740Y-48265000D01*
X151606842Y-48322068D01*
X151336589Y-48434010D01*
X151093368Y-48596525D01*
X150961513Y-48728380D01*
X150939502Y-48655820D01*
X150880537Y-48545506D01*
X150801185Y-48448815D01*
X150704494Y-48369463D01*
X150594180Y-48310498D01*
X150474482Y-48274188D01*
X150350000Y-48261928D01*
X149785750Y-48265000D01*
X149627000Y-48423750D01*
X149373000Y-48423750D01*
X149214250Y-48265000D01*
X148650000Y-48261928D01*
X148525518Y-48274188D01*
X148405820Y-48310498D01*
X148295506Y-48369463D01*
X148198815Y-48448815D01*
X148119463Y-48545506D01*
X148060498Y-48655820D01*
X148024188Y-48775518D01*
X148011928Y-48900000D01*
X140735396Y-48900000D01*
X137660000Y-47435526D01*
X137660000Y-45124911D01*
X137698009Y-42388212D01*
X152565000Y-42388212D01*
X152565000Y-42611788D01*
X152608617Y-42831067D01*
X152694176Y-43037624D01*
X152818388Y-43223520D01*
X152976480Y-43381612D01*
X153162376Y-43505824D01*
X153368933Y-43591383D01*
X153588212Y-43635000D01*
X153811788Y-43635000D01*
X154031067Y-43591383D01*
X154237624Y-43505824D01*
X154413642Y-43388212D01*
X159865000Y-43388212D01*
X159865000Y-43611788D01*
X159908617Y-43831067D01*
X159994176Y-44037624D01*
X160118388Y-44223520D01*
X160276480Y-44381612D01*
X160462376Y-44505824D01*
X160668933Y-44591383D01*
X160888212Y-44635000D01*
X161111788Y-44635000D01*
X161331067Y-44591383D01*
X161537624Y-44505824D01*
X161723520Y-44381612D01*
X161881612Y-44223520D01*
X162005824Y-44037624D01*
X162091383Y-43831067D01*
X162135000Y-43611788D01*
X162135000Y-43388212D01*
X162091383Y-43168933D01*
X162005824Y-42962376D01*
X161881612Y-42776480D01*
X161723520Y-42618388D01*
X161537624Y-42494176D01*
X161331067Y-42408617D01*
X161111788Y-42365000D01*
X160888212Y-42365000D01*
X160668933Y-42408617D01*
X160462376Y-42494176D01*
X160276480Y-42618388D01*
X160118388Y-42776480D01*
X159994176Y-42962376D01*
X159908617Y-43168933D01*
X159865000Y-43388212D01*
X154413642Y-43388212D01*
X154423520Y-43381612D01*
X154581612Y-43223520D01*
X154705824Y-43037624D01*
X154791383Y-42831067D01*
X154835000Y-42611788D01*
X154835000Y-42388212D01*
X154791383Y-42168933D01*
X154705824Y-41962376D01*
X154581612Y-41776480D01*
X154423520Y-41618388D01*
X154237624Y-41494176D01*
X154031067Y-41408617D01*
X153811788Y-41365000D01*
X153588212Y-41365000D01*
X153368933Y-41408617D01*
X153162376Y-41494176D01*
X152976480Y-41618388D01*
X152818388Y-41776480D01*
X152694176Y-41962376D01*
X152608617Y-42168933D01*
X152565000Y-42388212D01*
X137698009Y-42388212D01*
X137721620Y-40688212D01*
X149265000Y-40688212D01*
X149265000Y-40911788D01*
X149308617Y-41131067D01*
X149394176Y-41337624D01*
X149518388Y-41523520D01*
X149676480Y-41681612D01*
X149862376Y-41805824D01*
X150068933Y-41891383D01*
X150288212Y-41935000D01*
X150511788Y-41935000D01*
X150731067Y-41891383D01*
X150937624Y-41805824D01*
X151123520Y-41681612D01*
X151281612Y-41523520D01*
X151405824Y-41337624D01*
X151491383Y-41131067D01*
X151535000Y-40911788D01*
X151535000Y-40688212D01*
X151491383Y-40468933D01*
X151405824Y-40262376D01*
X151281612Y-40076480D01*
X151123520Y-39918388D01*
X150937624Y-39794176D01*
X150731183Y-39708665D01*
X155063523Y-39708665D01*
X155063523Y-39991335D01*
X155118670Y-40268574D01*
X155226843Y-40529727D01*
X155383886Y-40764759D01*
X155583764Y-40964637D01*
X155818796Y-41121680D01*
X156079949Y-41229853D01*
X156357188Y-41285000D01*
X156639858Y-41285000D01*
X156917097Y-41229853D01*
X157178250Y-41121680D01*
X157413282Y-40964637D01*
X157613160Y-40764759D01*
X157770203Y-40529727D01*
X157878376Y-40268574D01*
X157933523Y-39991335D01*
X157933523Y-39708665D01*
X159066477Y-39708665D01*
X159066477Y-39991335D01*
X159121624Y-40268574D01*
X159229797Y-40529727D01*
X159386840Y-40764759D01*
X159586718Y-40964637D01*
X159821750Y-41121680D01*
X160082903Y-41229853D01*
X160360142Y-41285000D01*
X160642812Y-41285000D01*
X160920051Y-41229853D01*
X161181204Y-41121680D01*
X161416236Y-40964637D01*
X161616114Y-40764759D01*
X161773157Y-40529727D01*
X161881330Y-40268574D01*
X161917206Y-40088212D01*
X166765000Y-40088212D01*
X166765000Y-40311788D01*
X166808617Y-40531067D01*
X166894176Y-40737624D01*
X167018388Y-40923520D01*
X167176480Y-41081612D01*
X167362376Y-41205824D01*
X167568933Y-41291383D01*
X167788212Y-41335000D01*
X168011788Y-41335000D01*
X168231067Y-41291383D01*
X168437624Y-41205824D01*
X168623520Y-41081612D01*
X168781612Y-40923520D01*
X168905824Y-40737624D01*
X168991383Y-40531067D01*
X169035000Y-40311788D01*
X169035000Y-40088212D01*
X168995218Y-39888212D01*
X169965000Y-39888212D01*
X169965000Y-40111788D01*
X170008617Y-40331067D01*
X170094176Y-40537624D01*
X170218388Y-40723520D01*
X170376480Y-40881612D01*
X170562376Y-41005824D01*
X170768933Y-41091383D01*
X170988212Y-41135000D01*
X171211788Y-41135000D01*
X171431067Y-41091383D01*
X171637624Y-41005824D01*
X171823520Y-40881612D01*
X171981612Y-40723520D01*
X172105824Y-40537624D01*
X172191383Y-40331067D01*
X172235000Y-40111788D01*
X172235000Y-39888212D01*
X172191383Y-39668933D01*
X172105824Y-39462376D01*
X171981612Y-39276480D01*
X171823520Y-39118388D01*
X171637624Y-38994176D01*
X171431067Y-38908617D01*
X171211788Y-38865000D01*
X170988212Y-38865000D01*
X170768933Y-38908617D01*
X170562376Y-38994176D01*
X170376480Y-39118388D01*
X170218388Y-39276480D01*
X170094176Y-39462376D01*
X170008617Y-39668933D01*
X169965000Y-39888212D01*
X168995218Y-39888212D01*
X168991383Y-39868933D01*
X168905824Y-39662376D01*
X168781612Y-39476480D01*
X168623520Y-39318388D01*
X168437624Y-39194176D01*
X168231067Y-39108617D01*
X168011788Y-39065000D01*
X167788212Y-39065000D01*
X167568933Y-39108617D01*
X167362376Y-39194176D01*
X167176480Y-39318388D01*
X167018388Y-39476480D01*
X166894176Y-39662376D01*
X166808617Y-39868933D01*
X166765000Y-40088212D01*
X161917206Y-40088212D01*
X161936477Y-39991335D01*
X161936477Y-39708665D01*
X161881330Y-39431426D01*
X161773157Y-39170273D01*
X161616114Y-38935241D01*
X161416236Y-38735363D01*
X161181204Y-38578320D01*
X160920051Y-38470147D01*
X160642812Y-38415000D01*
X160360142Y-38415000D01*
X160082903Y-38470147D01*
X159821750Y-38578320D01*
X159586718Y-38735363D01*
X159386840Y-38935241D01*
X159229797Y-39170273D01*
X159121624Y-39431426D01*
X159066477Y-39708665D01*
X157933523Y-39708665D01*
X157878376Y-39431426D01*
X157770203Y-39170273D01*
X157613160Y-38935241D01*
X157413282Y-38735363D01*
X157178250Y-38578320D01*
X156917097Y-38470147D01*
X156639858Y-38415000D01*
X156357188Y-38415000D01*
X156079949Y-38470147D01*
X155818796Y-38578320D01*
X155583764Y-38735363D01*
X155383886Y-38935241D01*
X155226843Y-39170273D01*
X155118670Y-39431426D01*
X155063523Y-39708665D01*
X150731183Y-39708665D01*
X150731067Y-39708617D01*
X150511788Y-39665000D01*
X150288212Y-39665000D01*
X150068933Y-39708617D01*
X149862376Y-39794176D01*
X149676480Y-39918388D01*
X149518388Y-40076480D01*
X149394176Y-40262376D01*
X149308617Y-40468933D01*
X149265000Y-40688212D01*
X137721620Y-40688212D01*
X137752176Y-38488212D01*
X141865000Y-38488212D01*
X141865000Y-38711788D01*
X141908617Y-38931067D01*
X141994176Y-39137624D01*
X142118388Y-39323520D01*
X142276480Y-39481612D01*
X142462376Y-39605824D01*
X142668933Y-39691383D01*
X142888212Y-39735000D01*
X143111788Y-39735000D01*
X143331067Y-39691383D01*
X143537624Y-39605824D01*
X143723520Y-39481612D01*
X143881612Y-39323520D01*
X144005824Y-39137624D01*
X144091383Y-38931067D01*
X144135000Y-38711788D01*
X144135000Y-38488212D01*
X144091383Y-38268933D01*
X144005824Y-38062376D01*
X143881612Y-37876480D01*
X143723520Y-37718388D01*
X143537624Y-37594176D01*
X143331067Y-37508617D01*
X143111788Y-37465000D01*
X142888212Y-37465000D01*
X142668933Y-37508617D01*
X142462376Y-37594176D01*
X142276480Y-37718388D01*
X142118388Y-37876480D01*
X141994176Y-38062376D01*
X141908617Y-38268933D01*
X141865000Y-38488212D01*
X137752176Y-38488212D01*
X137823419Y-33358665D01*
X144065000Y-33358665D01*
X144065000Y-33641335D01*
X144120147Y-33918574D01*
X144228320Y-34179727D01*
X144385363Y-34414759D01*
X144585241Y-34614637D01*
X144820273Y-34771680D01*
X145081426Y-34879853D01*
X145358665Y-34935000D01*
X145641335Y-34935000D01*
X145918574Y-34879853D01*
X146179727Y-34771680D01*
X146414759Y-34614637D01*
X146614637Y-34414759D01*
X146771680Y-34179727D01*
X146879853Y-33918574D01*
X146935000Y-33641335D01*
X146935000Y-33358665D01*
X170065000Y-33358665D01*
X170065000Y-33641335D01*
X170120147Y-33918574D01*
X170228320Y-34179727D01*
X170385363Y-34414759D01*
X170585241Y-34614637D01*
X170820273Y-34771680D01*
X171081426Y-34879853D01*
X171358665Y-34935000D01*
X171641335Y-34935000D01*
X171918574Y-34879853D01*
X172179727Y-34771680D01*
X172414759Y-34614637D01*
X172614637Y-34414759D01*
X172771680Y-34179727D01*
X172879853Y-33918574D01*
X172935000Y-33641335D01*
X172935000Y-33358665D01*
X172879853Y-33081426D01*
X172771680Y-32820273D01*
X172614637Y-32585241D01*
X172414759Y-32385363D01*
X172179727Y-32228320D01*
X171918574Y-32120147D01*
X171641335Y-32065000D01*
X171358665Y-32065000D01*
X171081426Y-32120147D01*
X170820273Y-32228320D01*
X170585241Y-32385363D01*
X170385363Y-32585241D01*
X170228320Y-32820273D01*
X170120147Y-33081426D01*
X170065000Y-33358665D01*
X146935000Y-33358665D01*
X146879853Y-33081426D01*
X146771680Y-32820273D01*
X146614637Y-32585241D01*
X146414759Y-32385363D01*
X146179727Y-32228320D01*
X145918574Y-32120147D01*
X145641335Y-32065000D01*
X145358665Y-32065000D01*
X145081426Y-32120147D01*
X144820273Y-32228320D01*
X144585241Y-32385363D01*
X144385363Y-32585241D01*
X144228320Y-32820273D01*
X144120147Y-33081426D01*
X144065000Y-33358665D01*
X137823419Y-33358665D01*
X137869253Y-30058665D01*
X142065000Y-30058665D01*
X142065000Y-30341335D01*
X142120147Y-30618574D01*
X142228320Y-30879727D01*
X142385363Y-31114759D01*
X142585241Y-31314637D01*
X142820273Y-31471680D01*
X143081426Y-31579853D01*
X143358665Y-31635000D01*
X143641335Y-31635000D01*
X143918574Y-31579853D01*
X144179727Y-31471680D01*
X144414759Y-31314637D01*
X144614637Y-31114759D01*
X144771680Y-30879727D01*
X144879853Y-30618574D01*
X144935000Y-30341335D01*
X144935000Y-30058665D01*
X172065000Y-30058665D01*
X172065000Y-30341335D01*
X172120147Y-30618574D01*
X172228320Y-30879727D01*
X172385363Y-31114759D01*
X172585241Y-31314637D01*
X172820273Y-31471680D01*
X173081426Y-31579853D01*
X173358665Y-31635000D01*
X173641335Y-31635000D01*
X173918574Y-31579853D01*
X174179727Y-31471680D01*
X174414759Y-31314637D01*
X174614637Y-31114759D01*
X174771680Y-30879727D01*
X174879853Y-30618574D01*
X174935000Y-30341335D01*
X174935000Y-30058665D01*
X174879853Y-29781426D01*
X174771680Y-29520273D01*
X174614637Y-29285241D01*
X174414759Y-29085363D01*
X174179727Y-28928320D01*
X173918574Y-28820147D01*
X173641335Y-28765000D01*
X173358665Y-28765000D01*
X173081426Y-28820147D01*
X172820273Y-28928320D01*
X172585241Y-29085363D01*
X172385363Y-29285241D01*
X172228320Y-29520273D01*
X172120147Y-29781426D01*
X172065000Y-30058665D01*
X144935000Y-30058665D01*
X144879853Y-29781426D01*
X144771680Y-29520273D01*
X144614637Y-29285241D01*
X144414759Y-29085363D01*
X144179727Y-28928320D01*
X143918574Y-28820147D01*
X143641335Y-28765000D01*
X143358665Y-28765000D01*
X143081426Y-28820147D01*
X142820273Y-28928320D01*
X142585241Y-29085363D01*
X142385363Y-29285241D01*
X142228320Y-29520273D01*
X142120147Y-29781426D01*
X142065000Y-30058665D01*
X137869253Y-30058665D01*
X138045641Y-17358665D01*
X142065000Y-17358665D01*
X142065000Y-17641335D01*
X142120147Y-17918574D01*
X142228320Y-18179727D01*
X142385363Y-18414759D01*
X142585241Y-18614637D01*
X142820273Y-18771680D01*
X143081426Y-18879853D01*
X143358665Y-18935000D01*
X143641335Y-18935000D01*
X143918574Y-18879853D01*
X144179727Y-18771680D01*
X144414759Y-18614637D01*
X144614637Y-18414759D01*
X144771680Y-18179727D01*
X144879853Y-17918574D01*
X144935000Y-17641335D01*
X144935000Y-17358665D01*
X172065000Y-17358665D01*
X172065000Y-17641335D01*
X172120147Y-17918574D01*
X172228320Y-18179727D01*
X172385363Y-18414759D01*
X172585241Y-18614637D01*
X172820273Y-18771680D01*
X173081426Y-18879853D01*
X173358665Y-18935000D01*
X173641335Y-18935000D01*
X173918574Y-18879853D01*
X174179727Y-18771680D01*
X174414759Y-18614637D01*
X174614637Y-18414759D01*
X174771680Y-18179727D01*
X174879853Y-17918574D01*
X174935000Y-17641335D01*
X174935000Y-17358665D01*
X174879853Y-17081426D01*
X174771680Y-16820273D01*
X174614637Y-16585241D01*
X174414759Y-16385363D01*
X174179727Y-16228320D01*
X173918574Y-16120147D01*
X173641335Y-16065000D01*
X173358665Y-16065000D01*
X173081426Y-16120147D01*
X172820273Y-16228320D01*
X172585241Y-16385363D01*
X172385363Y-16585241D01*
X172228320Y-16820273D01*
X172120147Y-17081426D01*
X172065000Y-17358665D01*
X144935000Y-17358665D01*
X144879853Y-17081426D01*
X144771680Y-16820273D01*
X144614637Y-16585241D01*
X144414759Y-16385363D01*
X144179727Y-16228320D01*
X143918574Y-16120147D01*
X143641335Y-16065000D01*
X143358665Y-16065000D01*
X143081426Y-16120147D01*
X142820273Y-16228320D01*
X142585241Y-16385363D01*
X142385363Y-16585241D01*
X142228320Y-16820273D01*
X142120147Y-17081426D01*
X142065000Y-17358665D01*
X138045641Y-17358665D01*
X138096335Y-13708665D01*
X144066477Y-13708665D01*
X144066477Y-13991335D01*
X144121624Y-14268574D01*
X144229797Y-14529727D01*
X144386840Y-14764759D01*
X144586718Y-14964637D01*
X144821750Y-15121680D01*
X145082903Y-15229853D01*
X145360142Y-15285000D01*
X145642812Y-15285000D01*
X145920051Y-15229853D01*
X146181204Y-15121680D01*
X146416236Y-14964637D01*
X146616114Y-14764759D01*
X146773157Y-14529727D01*
X146881330Y-14268574D01*
X146936477Y-13991335D01*
X146936477Y-13708665D01*
X170063523Y-13708665D01*
X170063523Y-13991335D01*
X170118670Y-14268574D01*
X170226843Y-14529727D01*
X170383886Y-14764759D01*
X170583764Y-14964637D01*
X170818796Y-15121680D01*
X171079949Y-15229853D01*
X171357188Y-15285000D01*
X171639858Y-15285000D01*
X171917097Y-15229853D01*
X172178250Y-15121680D01*
X172413282Y-14964637D01*
X172613160Y-14764759D01*
X172770203Y-14529727D01*
X172878376Y-14268574D01*
X172933523Y-13991335D01*
X172933523Y-13708665D01*
X172878376Y-13431426D01*
X172770203Y-13170273D01*
X172613160Y-12935241D01*
X172413282Y-12735363D01*
X172178250Y-12578320D01*
X171917097Y-12470147D01*
X171639858Y-12415000D01*
X171357188Y-12415000D01*
X171079949Y-12470147D01*
X170818796Y-12578320D01*
X170583764Y-12735363D01*
X170383886Y-12935241D01*
X170226843Y-13170273D01*
X170118670Y-13431426D01*
X170063523Y-13708665D01*
X146936477Y-13708665D01*
X146881330Y-13431426D01*
X146773157Y-13170273D01*
X146616114Y-12935241D01*
X146416236Y-12735363D01*
X146181204Y-12578320D01*
X145920051Y-12470147D01*
X145642812Y-12415000D01*
X145360142Y-12415000D01*
X145082903Y-12470147D01*
X144821750Y-12578320D01*
X144586718Y-12735363D01*
X144386840Y-12935241D01*
X144229797Y-13170273D01*
X144121624Y-13431426D01*
X144066477Y-13708665D01*
X138096335Y-13708665D01*
X138125867Y-11582451D01*
X147462657Y-7358665D01*
X155065000Y-7358665D01*
X155065000Y-7641335D01*
X155120147Y-7918574D01*
X155228320Y-8179727D01*
X155385363Y-8414759D01*
X155585241Y-8614637D01*
X155820273Y-8771680D01*
X156081426Y-8879853D01*
X156358665Y-8935000D01*
X156641335Y-8935000D01*
X156918574Y-8879853D01*
X157179727Y-8771680D01*
X157414759Y-8614637D01*
X157614637Y-8414759D01*
X157771680Y-8179727D01*
X157879853Y-7918574D01*
X157935000Y-7641335D01*
X157935000Y-7358665D01*
X159065000Y-7358665D01*
X159065000Y-7641335D01*
X159120147Y-7918574D01*
X159228320Y-8179727D01*
X159385363Y-8414759D01*
X159585241Y-8614637D01*
X159820273Y-8771680D01*
X160081426Y-8879853D01*
X160358665Y-8935000D01*
X160641335Y-8935000D01*
X160918574Y-8879853D01*
X161179727Y-8771680D01*
X161414759Y-8614637D01*
X161614637Y-8414759D01*
X161771680Y-8179727D01*
X161879853Y-7918574D01*
X161935000Y-7641335D01*
X161935000Y-7358665D01*
X161879853Y-7081426D01*
X161771680Y-6820273D01*
X161614637Y-6585241D01*
X161414759Y-6385363D01*
X161179727Y-6228320D01*
X160918574Y-6120147D01*
X160641335Y-6065000D01*
X160358665Y-6065000D01*
X160081426Y-6120147D01*
X159820273Y-6228320D01*
X159585241Y-6385363D01*
X159385363Y-6585241D01*
X159228320Y-6820273D01*
X159120147Y-7081426D01*
X159065000Y-7358665D01*
X157935000Y-7358665D01*
X157879853Y-7081426D01*
X157771680Y-6820273D01*
X157614637Y-6585241D01*
X157414759Y-6385363D01*
X157179727Y-6228320D01*
X156918574Y-6120147D01*
X156641335Y-6065000D01*
X156358665Y-6065000D01*
X156081426Y-6120147D01*
X155820273Y-6228320D01*
X155585241Y-6385363D01*
X155385363Y-6585241D01*
X155228320Y-6820273D01*
X155120147Y-7081426D01*
X155065000Y-7358665D01*
X147462657Y-7358665D01*
X158999363Y-2139679D01*
X179340000Y-11565827D01*
G37*
%TD.AperFunction*%
%TD*%
M02*
