%TF.GenerationSoftware,KiCad,Pcbnew,(5.1.8)-1*%
%TF.CreationDate,2020-12-09T14:15:50+00:00*%
%TF.ProjectId,Project,50726f6a-6563-4742-9e6b-696361645f70,rev?*%
%TF.SameCoordinates,Original*%
%TF.FileFunction,Legend,Bot*%
%TF.FilePolarity,Positive*%
%FSLAX46Y46*%
G04 Gerber Fmt 4.6, Leading zero omitted, Abs format (unit mm)*
G04 Created by KiCad (PCBNEW (5.1.8)-1) date 2020-12-09 14:15:50*
%MOMM*%
%LPD*%
G01*
G04 APERTURE LIST*
%ADD10C,0.120000*%
%ADD11C,0.100000*%
%ADD12C,0.150000*%
G04 APERTURE END LIST*
D10*
%TO.C,J14*%
X146000000Y-53110000D02*
X147330000Y-53110000D01*
X147330000Y-53110000D02*
X147330000Y-51780000D01*
X147330000Y-50510000D02*
X147330000Y-32670000D01*
X144670000Y-32670000D02*
X147330000Y-32670000D01*
X144670000Y-50510000D02*
X144670000Y-32670000D01*
X144670000Y-50510000D02*
X147330000Y-50510000D01*
D11*
%TO.C,S1*%
X127725000Y-106825000D02*
X128675000Y-106825000D01*
X128675000Y-106825000D02*
X128675000Y-106150000D01*
X127825000Y-93175000D02*
X128675000Y-93175000D01*
X128675000Y-93175000D02*
X128675000Y-93850000D01*
X115925000Y-106250000D02*
X115925000Y-106825000D01*
X115925000Y-106825000D02*
X116725000Y-106825000D01*
X116625000Y-93175000D02*
X115925000Y-93175000D01*
X115925000Y-93175000D02*
X115925000Y-93675000D01*
D10*
%TO.C,J13*%
X130230000Y-49530000D02*
X130230000Y-46870000D01*
X130230000Y-49530000D02*
X120010000Y-49530000D01*
X120010000Y-49530000D02*
X120010000Y-46870000D01*
X130230000Y-46870000D02*
X120010000Y-46870000D01*
X132830000Y-46870000D02*
X131500000Y-46870000D01*
X132830000Y-48200000D02*
X132830000Y-46870000D01*
%TO.C,J15*%
X138000000Y-108830000D02*
X139330000Y-108830000D01*
X139330000Y-108830000D02*
X139330000Y-107500000D01*
X136730000Y-108830000D02*
X136730000Y-106230000D01*
X136730000Y-106230000D02*
X139330000Y-106230000D01*
X139330000Y-106230000D02*
X139330000Y-98550000D01*
X134130000Y-98550000D02*
X139330000Y-98550000D01*
X134130000Y-108830000D02*
X134130000Y-98550000D01*
X134130000Y-108830000D02*
X136730000Y-108830000D01*
%TO.C,J14*%
D12*
X146809523Y-54002380D02*
X146809523Y-54716666D01*
X146857142Y-54859523D01*
X146952380Y-54954761D01*
X147095238Y-55002380D01*
X147190476Y-55002380D01*
X145809523Y-55002380D02*
X146380952Y-55002380D01*
X146095238Y-55002380D02*
X146095238Y-54002380D01*
X146190476Y-54145238D01*
X146285714Y-54240476D01*
X146380952Y-54288095D01*
X144952380Y-54335714D02*
X144952380Y-55002380D01*
X145190476Y-53954761D02*
X145428571Y-54669047D01*
X144809523Y-54669047D01*
%TO.C,S1*%
X123486904Y-91004761D02*
X123344047Y-91052380D01*
X123105952Y-91052380D01*
X123010714Y-91004761D01*
X122963095Y-90957142D01*
X122915476Y-90861904D01*
X122915476Y-90766666D01*
X122963095Y-90671428D01*
X123010714Y-90623809D01*
X123105952Y-90576190D01*
X123296428Y-90528571D01*
X123391666Y-90480952D01*
X123439285Y-90433333D01*
X123486904Y-90338095D01*
X123486904Y-90242857D01*
X123439285Y-90147619D01*
X123391666Y-90100000D01*
X123296428Y-90052380D01*
X123058333Y-90052380D01*
X122915476Y-90100000D01*
X121963095Y-91052380D02*
X122534523Y-91052380D01*
X122248809Y-91052380D02*
X122248809Y-90052380D01*
X122344047Y-90195238D01*
X122439285Y-90290476D01*
X122534523Y-90338095D01*
%TO.C,J13*%
X133722380Y-47390476D02*
X134436666Y-47390476D01*
X134579523Y-47342857D01*
X134674761Y-47247619D01*
X134722380Y-47104761D01*
X134722380Y-47009523D01*
X134722380Y-48390476D02*
X134722380Y-47819047D01*
X134722380Y-48104761D02*
X133722380Y-48104761D01*
X133865238Y-48009523D01*
X133960476Y-47914285D01*
X134008095Y-47819047D01*
X133722380Y-48723809D02*
X133722380Y-49342857D01*
X134103333Y-49009523D01*
X134103333Y-49152380D01*
X134150952Y-49247619D01*
X134198571Y-49295238D01*
X134293809Y-49342857D01*
X134531904Y-49342857D01*
X134627142Y-49295238D01*
X134674761Y-49247619D01*
X134722380Y-49152380D01*
X134722380Y-48866666D01*
X134674761Y-48771428D01*
X134627142Y-48723809D01*
%TO.C,J15*%
X137539523Y-109722380D02*
X137539523Y-110436666D01*
X137587142Y-110579523D01*
X137682380Y-110674761D01*
X137825238Y-110722380D01*
X137920476Y-110722380D01*
X136539523Y-110722380D02*
X137110952Y-110722380D01*
X136825238Y-110722380D02*
X136825238Y-109722380D01*
X136920476Y-109865238D01*
X137015714Y-109960476D01*
X137110952Y-110008095D01*
X135634761Y-109722380D02*
X136110952Y-109722380D01*
X136158571Y-110198571D01*
X136110952Y-110150952D01*
X136015714Y-110103333D01*
X135777619Y-110103333D01*
X135682380Y-110150952D01*
X135634761Y-110198571D01*
X135587142Y-110293809D01*
X135587142Y-110531904D01*
X135634761Y-110627142D01*
X135682380Y-110674761D01*
X135777619Y-110722380D01*
X136015714Y-110722380D01*
X136110952Y-110674761D01*
X136158571Y-110627142D01*
%TD*%
M02*
