%TF.GenerationSoftware,KiCad,Pcbnew,(5.1.8)-1*%
%TF.CreationDate,2021-03-10T16:05:31+00:00*%
%TF.ProjectId,Project_2_smaller,50726f6a-6563-4745-9f32-5f736d616c6c,rev?*%
%TF.SameCoordinates,Original*%
%TF.FileFunction,Copper,L2,Inr*%
%TF.FilePolarity,Positive*%
%FSLAX46Y46*%
G04 Gerber Fmt 4.6, Leading zero omitted, Abs format (unit mm)*
G04 Created by KiCad (PCBNEW (5.1.8)-1) date 2021-03-10 16:05:31*
%MOMM*%
%LPD*%
G01*
G04 APERTURE LIST*
%TA.AperFunction,ComponentPad*%
%ADD10O,1.000000X1.550000*%
%TD*%
%TA.AperFunction,ComponentPad*%
%ADD11O,1.250000X0.950000*%
%TD*%
%TA.AperFunction,ComponentPad*%
%ADD12R,4.500000X2.000000*%
%TD*%
%TA.AperFunction,ComponentPad*%
%ADD13R,2.000000X4.500000*%
%TD*%
%TA.AperFunction,ComponentPad*%
%ADD14O,1.700000X1.700000*%
%TD*%
%TA.AperFunction,ComponentPad*%
%ADD15R,1.700000X1.700000*%
%TD*%
%TA.AperFunction,ComponentPad*%
%ADD16C,2.000000*%
%TD*%
%TA.AperFunction,ComponentPad*%
%ADD17R,2.170000X2.170000*%
%TD*%
%TA.AperFunction,ComponentPad*%
%ADD18C,2.500000*%
%TD*%
%TA.AperFunction,ComponentPad*%
%ADD19R,2.800000X3.600000*%
%TD*%
%TA.AperFunction,ComponentPad*%
%ADD20R,2.000000X1.905000*%
%TD*%
%TA.AperFunction,ComponentPad*%
%ADD21O,2.000000X1.905000*%
%TD*%
%TA.AperFunction,ViaPad*%
%ADD22C,0.800000*%
%TD*%
%TA.AperFunction,ViaPad*%
%ADD23C,1.000000*%
%TD*%
%TA.AperFunction,Conductor*%
%ADD24C,0.254000*%
%TD*%
%TA.AperFunction,Conductor*%
%ADD25C,0.100000*%
%TD*%
G04 APERTURE END LIST*
D10*
%TO.N,Earth*%
%TO.C,J1*%
X102000000Y-106700000D03*
X95000000Y-106700000D03*
D11*
X96000000Y-104000000D03*
X101000000Y-104000000D03*
%TD*%
D12*
%TO.N,N/C*%
%TO.C,J2*%
X175200000Y-108200000D03*
D13*
%TO.N,LINE*%
X172200000Y-103500000D03*
%TO.N,Earth*%
X178200000Y-103500000D03*
%TD*%
D14*
%TO.N,SCL*%
%TO.C,J13*%
X139920000Y-75000000D03*
%TO.N,SDA*%
X142460000Y-75000000D03*
%TO.N,Earth*%
X145000000Y-75000000D03*
%TO.N,+3V3*%
X147540000Y-75000000D03*
D15*
X150080000Y-75000000D03*
D16*
%TO.N,*%
X121632000Y-75762000D03*
X168368000Y-75762000D03*
X168368000Y-99638000D03*
X121632000Y-99638000D03*
%TD*%
D17*
%TO.N,Earth*%
%TO.C,BT1*%
X158300000Y-93700000D03*
D18*
%TO.N,Net-(BT1-Pad1)*%
X158300000Y-73700000D03*
%TD*%
D15*
%TO.N,+12V*%
%TO.C,J5*%
X167000000Y-68000000D03*
D14*
%TO.N,/PWM6*%
X164460000Y-68000000D03*
%TO.N,/PWM5*%
X161920000Y-68000000D03*
%TO.N,/PWM4*%
X159380000Y-68000000D03*
%TO.N,/PWM3*%
X156840000Y-68000000D03*
%TO.N,/PWM2*%
X154300000Y-68000000D03*
%TO.N,/PWM1*%
X151760000Y-68000000D03*
%TO.N,Earth*%
X149220000Y-68000000D03*
%TD*%
D15*
%TO.N,/OnOff*%
%TO.C,J6*%
X177300000Y-96200000D03*
D14*
%TO.N,Earth*%
X174760000Y-96200000D03*
%TD*%
D15*
%TO.N,+12V*%
%TO.C,J7*%
X177300000Y-91400000D03*
D14*
%TO.N,Earth*%
X174760000Y-91400000D03*
%TD*%
%TO.N,Earth*%
%TO.C,J8*%
X174760000Y-87600000D03*
D15*
%TO.N,+12V*%
X177300000Y-87600000D03*
%TD*%
%TO.N,+3V3*%
%TO.C,J9*%
X177300000Y-83800000D03*
D14*
%TO.N,Earth*%
X174760000Y-83800000D03*
%TD*%
D15*
%TO.N,+3V3*%
%TO.C,J10*%
X177300000Y-80000000D03*
D14*
%TO.N,Earth*%
X174760000Y-80000000D03*
%TD*%
%TO.N,SDA*%
%TO.C,J11*%
X174760000Y-76200000D03*
D15*
%TO.N,SCL*%
X177300000Y-76200000D03*
%TD*%
D14*
%TO.N,SDA*%
%TO.C,J12*%
X174760000Y-72500000D03*
D15*
%TO.N,SCL*%
X177300000Y-72500000D03*
%TD*%
D16*
%TO.N,Net-(R11-Pad2)*%
%TO.C,S1*%
X102800000Y-80300000D03*
%TO.N,Earth*%
X100300000Y-80300000D03*
%TO.N,Net-(R10-Pad2)*%
X97800000Y-80300000D03*
%TO.N,/Button*%
X102800000Y-94800000D03*
%TO.N,+3V3*%
X97800000Y-94800000D03*
D19*
%TO.N,Earth*%
X106000000Y-87800000D03*
X94600000Y-87800000D03*
%TD*%
D20*
%TO.N,LINE*%
%TO.C,U2*%
X165000000Y-101300000D03*
D21*
%TO.N,Earth*%
X165000000Y-103840000D03*
%TO.N,+12V*%
X165000000Y-106380000D03*
%TD*%
D22*
%TO.N,*%
X123500000Y-81450000D03*
D23*
%TO.N,Earth*%
X159850000Y-78850000D03*
D22*
X118389999Y-72034999D03*
X124900000Y-97250000D03*
X122350000Y-92550000D03*
X111300000Y-102400000D03*
X161000000Y-88150000D03*
X156280000Y-90620000D03*
X111150000Y-107800000D03*
D23*
%TO.N,+3V3*%
X115500000Y-72900000D03*
D22*
X168000000Y-83000000D03*
X156000000Y-108000000D03*
D23*
X157000000Y-100000000D03*
D22*
X154750000Y-91000000D03*
X133800000Y-95050000D03*
X112780000Y-106820000D03*
X141050000Y-92750000D03*
%TO.N,/RESET*%
X110000000Y-92000000D03*
X112500000Y-75000000D03*
%TO.N,SDA*%
X139500000Y-77500000D03*
%TO.N,TXD*%
X134000000Y-76500000D03*
X116000000Y-99000000D03*
%TO.N,RXD*%
X117000000Y-99500000D03*
X134000000Y-78000000D03*
%TO.N,/IO0*%
X119500000Y-94500000D03*
X139500000Y-90000000D03*
%TO.N,Net-(Q1-Pad2)*%
X116500000Y-101100000D03*
X114345131Y-100445131D03*
%TO.N,/RTC-INTSQW*%
X132100000Y-87150000D03*
X151100000Y-92300000D03*
%TO.N,MOSI*%
X136000000Y-91000000D03*
X134000000Y-85500000D03*
%TO.N,Net-(BT1-Pad1)*%
X157500000Y-77000000D03*
%TO.N,/!SD_SS*%
X136517805Y-92517449D03*
X133500000Y-88500000D03*
%TO.N,/PWM6*%
X129000000Y-87000000D03*
%TO.N,/PWM5*%
X130500000Y-85500000D03*
%TO.N,/PWM4*%
X131525306Y-84025306D03*
%TO.N,/PWM3*%
X127012653Y-87512653D03*
%TO.N,/PWM2*%
X125500000Y-88000000D03*
%TO.N,/PWM1*%
X122000000Y-87000000D03*
%TD*%
D24*
%TO.N,+3V3*%
X112873000Y-72000000D02*
X112875440Y-72024776D01*
X112882667Y-72048601D01*
X112894403Y-72070557D01*
X112910197Y-72089803D01*
X112929443Y-72105597D01*
X112951399Y-72117333D01*
X112975224Y-72124560D01*
X113000000Y-72127000D01*
X117354999Y-72127000D01*
X117354999Y-72136938D01*
X117394773Y-72336897D01*
X117472794Y-72525255D01*
X117586062Y-72694773D01*
X117730225Y-72838936D01*
X117899743Y-72952204D01*
X118088101Y-73030225D01*
X118288060Y-73069999D01*
X118491938Y-73069999D01*
X118691897Y-73030225D01*
X118880255Y-72952204D01*
X119049773Y-72838936D01*
X119193936Y-72694773D01*
X119307204Y-72525255D01*
X119385225Y-72336897D01*
X119424999Y-72136938D01*
X119424999Y-72127000D01*
X143000000Y-72127000D01*
X143024776Y-72124560D01*
X143048601Y-72117333D01*
X143070557Y-72105597D01*
X143089803Y-72089803D01*
X143105597Y-72070557D01*
X143117333Y-72048601D01*
X143124560Y-72024776D01*
X143127000Y-72000000D01*
X143127000Y-67853740D01*
X147735000Y-67853740D01*
X147735000Y-68146260D01*
X147792068Y-68433158D01*
X147904010Y-68703411D01*
X148066525Y-68946632D01*
X148273368Y-69153475D01*
X148516589Y-69315990D01*
X148786842Y-69427932D01*
X149073740Y-69485000D01*
X149366260Y-69485000D01*
X149653158Y-69427932D01*
X149923411Y-69315990D01*
X150166632Y-69153475D01*
X150373475Y-68946632D01*
X150490000Y-68772240D01*
X150606525Y-68946632D01*
X150813368Y-69153475D01*
X151056589Y-69315990D01*
X151326842Y-69427932D01*
X151613740Y-69485000D01*
X151906260Y-69485000D01*
X152193158Y-69427932D01*
X152463411Y-69315990D01*
X152706632Y-69153475D01*
X152913475Y-68946632D01*
X153030000Y-68772240D01*
X153146525Y-68946632D01*
X153353368Y-69153475D01*
X153596589Y-69315990D01*
X153866842Y-69427932D01*
X154153740Y-69485000D01*
X154446260Y-69485000D01*
X154733158Y-69427932D01*
X155003411Y-69315990D01*
X155246632Y-69153475D01*
X155453475Y-68946632D01*
X155570000Y-68772240D01*
X155686525Y-68946632D01*
X155893368Y-69153475D01*
X156136589Y-69315990D01*
X156406842Y-69427932D01*
X156693740Y-69485000D01*
X156986260Y-69485000D01*
X157273158Y-69427932D01*
X157543411Y-69315990D01*
X157786632Y-69153475D01*
X157993475Y-68946632D01*
X158110000Y-68772240D01*
X158226525Y-68946632D01*
X158433368Y-69153475D01*
X158676589Y-69315990D01*
X158946842Y-69427932D01*
X159233740Y-69485000D01*
X159526260Y-69485000D01*
X159813158Y-69427932D01*
X160083411Y-69315990D01*
X160326632Y-69153475D01*
X160533475Y-68946632D01*
X160650000Y-68772240D01*
X160766525Y-68946632D01*
X160973368Y-69153475D01*
X161216589Y-69315990D01*
X161486842Y-69427932D01*
X161773740Y-69485000D01*
X162066260Y-69485000D01*
X162353158Y-69427932D01*
X162623411Y-69315990D01*
X162866632Y-69153475D01*
X163073475Y-68946632D01*
X163190000Y-68772240D01*
X163306525Y-68946632D01*
X163513368Y-69153475D01*
X163756589Y-69315990D01*
X164026842Y-69427932D01*
X164313740Y-69485000D01*
X164606260Y-69485000D01*
X164893158Y-69427932D01*
X165163411Y-69315990D01*
X165406632Y-69153475D01*
X165538487Y-69021620D01*
X165560498Y-69094180D01*
X165619463Y-69204494D01*
X165698815Y-69301185D01*
X165795506Y-69380537D01*
X165905820Y-69439502D01*
X166025518Y-69475812D01*
X166150000Y-69488072D01*
X167850000Y-69488072D01*
X167974482Y-69475812D01*
X168094180Y-69439502D01*
X168204494Y-69380537D01*
X168301185Y-69301185D01*
X168380537Y-69204494D01*
X168439502Y-69094180D01*
X168475812Y-68974482D01*
X168488072Y-68850000D01*
X168488072Y-67150000D01*
X168475812Y-67025518D01*
X168439502Y-66905820D01*
X168380537Y-66795506D01*
X168301185Y-66698815D01*
X168204494Y-66619463D01*
X168094180Y-66560498D01*
X167974482Y-66524188D01*
X167850000Y-66511928D01*
X166150000Y-66511928D01*
X166025518Y-66524188D01*
X165905820Y-66560498D01*
X165795506Y-66619463D01*
X165698815Y-66698815D01*
X165619463Y-66795506D01*
X165560498Y-66905820D01*
X165538487Y-66978380D01*
X165406632Y-66846525D01*
X165163411Y-66684010D01*
X164893158Y-66572068D01*
X164606260Y-66515000D01*
X164313740Y-66515000D01*
X164026842Y-66572068D01*
X163756589Y-66684010D01*
X163513368Y-66846525D01*
X163306525Y-67053368D01*
X163190000Y-67227760D01*
X163073475Y-67053368D01*
X162866632Y-66846525D01*
X162623411Y-66684010D01*
X162353158Y-66572068D01*
X162066260Y-66515000D01*
X161773740Y-66515000D01*
X161486842Y-66572068D01*
X161216589Y-66684010D01*
X160973368Y-66846525D01*
X160766525Y-67053368D01*
X160650000Y-67227760D01*
X160533475Y-67053368D01*
X160326632Y-66846525D01*
X160083411Y-66684010D01*
X159813158Y-66572068D01*
X159526260Y-66515000D01*
X159233740Y-66515000D01*
X158946842Y-66572068D01*
X158676589Y-66684010D01*
X158433368Y-66846525D01*
X158226525Y-67053368D01*
X158110000Y-67227760D01*
X157993475Y-67053368D01*
X157786632Y-66846525D01*
X157543411Y-66684010D01*
X157273158Y-66572068D01*
X156986260Y-66515000D01*
X156693740Y-66515000D01*
X156406842Y-66572068D01*
X156136589Y-66684010D01*
X155893368Y-66846525D01*
X155686525Y-67053368D01*
X155570000Y-67227760D01*
X155453475Y-67053368D01*
X155246632Y-66846525D01*
X155003411Y-66684010D01*
X154733158Y-66572068D01*
X154446260Y-66515000D01*
X154153740Y-66515000D01*
X153866842Y-66572068D01*
X153596589Y-66684010D01*
X153353368Y-66846525D01*
X153146525Y-67053368D01*
X153030000Y-67227760D01*
X152913475Y-67053368D01*
X152706632Y-66846525D01*
X152463411Y-66684010D01*
X152193158Y-66572068D01*
X151906260Y-66515000D01*
X151613740Y-66515000D01*
X151326842Y-66572068D01*
X151056589Y-66684010D01*
X150813368Y-66846525D01*
X150606525Y-67053368D01*
X150490000Y-67227760D01*
X150373475Y-67053368D01*
X150166632Y-66846525D01*
X149923411Y-66684010D01*
X149653158Y-66572068D01*
X149366260Y-66515000D01*
X149073740Y-66515000D01*
X148786842Y-66572068D01*
X148516589Y-66684010D01*
X148273368Y-66846525D01*
X148066525Y-67053368D01*
X147904010Y-67296589D01*
X147792068Y-67566842D01*
X147735000Y-67853740D01*
X143127000Y-67853740D01*
X143127000Y-66127000D01*
X178873000Y-66127000D01*
X178873000Y-84873000D01*
X178745927Y-84873000D01*
X178775812Y-84774482D01*
X178788072Y-84650000D01*
X178785000Y-84085750D01*
X178626250Y-83927000D01*
X177427000Y-83927000D01*
X177427000Y-83947000D01*
X177173000Y-83947000D01*
X177173000Y-83927000D01*
X177153000Y-83927000D01*
X177153000Y-83673000D01*
X177173000Y-83673000D01*
X177173000Y-82473750D01*
X177427000Y-82473750D01*
X177427000Y-83673000D01*
X178626250Y-83673000D01*
X178785000Y-83514250D01*
X178788072Y-82950000D01*
X178775812Y-82825518D01*
X178739502Y-82705820D01*
X178680537Y-82595506D01*
X178601185Y-82498815D01*
X178504494Y-82419463D01*
X178394180Y-82360498D01*
X178274482Y-82324188D01*
X178150000Y-82311928D01*
X177585750Y-82315000D01*
X177427000Y-82473750D01*
X177173000Y-82473750D01*
X177014250Y-82315000D01*
X176450000Y-82311928D01*
X176325518Y-82324188D01*
X176205820Y-82360498D01*
X176095506Y-82419463D01*
X175998815Y-82498815D01*
X175919463Y-82595506D01*
X175860498Y-82705820D01*
X175838487Y-82778380D01*
X175706632Y-82646525D01*
X175463411Y-82484010D01*
X175193158Y-82372068D01*
X174906260Y-82315000D01*
X174613740Y-82315000D01*
X174326842Y-82372068D01*
X174056589Y-82484010D01*
X173813368Y-82646525D01*
X173606525Y-82853368D01*
X173444010Y-83096589D01*
X173332068Y-83366842D01*
X173275000Y-83653740D01*
X173275000Y-83946260D01*
X173332068Y-84233158D01*
X173444010Y-84503411D01*
X173606525Y-84746632D01*
X173732893Y-84873000D01*
X172000000Y-84873000D01*
X171975224Y-84875440D01*
X171951399Y-84882667D01*
X171929443Y-84894403D01*
X171910197Y-84910197D01*
X171894403Y-84929443D01*
X171882667Y-84951399D01*
X171875440Y-84975224D01*
X171873000Y-85000000D01*
X171873000Y-98873000D01*
X169820838Y-98873000D01*
X169816918Y-98863537D01*
X169637987Y-98595748D01*
X169410252Y-98368013D01*
X169142463Y-98189082D01*
X168844912Y-98065832D01*
X168529033Y-98003000D01*
X168206967Y-98003000D01*
X167891088Y-98065832D01*
X167593537Y-98189082D01*
X167325748Y-98368013D01*
X167098013Y-98595748D01*
X166919082Y-98863537D01*
X166915162Y-98873000D01*
X157000000Y-98873000D01*
X156975224Y-98875440D01*
X156951399Y-98882667D01*
X156929443Y-98894403D01*
X156910197Y-98910197D01*
X156894403Y-98929443D01*
X156882667Y-98951399D01*
X156875440Y-98975224D01*
X156873000Y-99000000D01*
X156873000Y-108873000D01*
X86127000Y-108873000D01*
X86127000Y-106369249D01*
X93865000Y-106369249D01*
X93865000Y-107030752D01*
X93881423Y-107197499D01*
X93946324Y-107411447D01*
X94051717Y-107608623D01*
X94193552Y-107781449D01*
X94366378Y-107923284D01*
X94563554Y-108028676D01*
X94777502Y-108093577D01*
X95000000Y-108115491D01*
X95222499Y-108093577D01*
X95436447Y-108028676D01*
X95633623Y-107923284D01*
X95806449Y-107781449D01*
X95948284Y-107608623D01*
X96053676Y-107411446D01*
X96118577Y-107197498D01*
X96135000Y-107030751D01*
X96135000Y-106369249D01*
X100865000Y-106369249D01*
X100865000Y-107030752D01*
X100881423Y-107197499D01*
X100946324Y-107411447D01*
X101051717Y-107608623D01*
X101193552Y-107781449D01*
X101366378Y-107923284D01*
X101563554Y-108028676D01*
X101777502Y-108093577D01*
X102000000Y-108115491D01*
X102222499Y-108093577D01*
X102436447Y-108028676D01*
X102633623Y-107923284D01*
X102806449Y-107781449D01*
X102874883Y-107698061D01*
X110115000Y-107698061D01*
X110115000Y-107901939D01*
X110154774Y-108101898D01*
X110232795Y-108290256D01*
X110346063Y-108459774D01*
X110490226Y-108603937D01*
X110659744Y-108717205D01*
X110848102Y-108795226D01*
X111048061Y-108835000D01*
X111251939Y-108835000D01*
X111451898Y-108795226D01*
X111640256Y-108717205D01*
X111809774Y-108603937D01*
X111953937Y-108459774D01*
X112067205Y-108290256D01*
X112145226Y-108101898D01*
X112185000Y-107901939D01*
X112185000Y-107698061D01*
X112145226Y-107498102D01*
X112067205Y-107309744D01*
X111953937Y-107140226D01*
X111809774Y-106996063D01*
X111640256Y-106882795D01*
X111451898Y-106804774D01*
X111251939Y-106765000D01*
X111048061Y-106765000D01*
X110848102Y-106804774D01*
X110659744Y-106882795D01*
X110490226Y-106996063D01*
X110346063Y-107140226D01*
X110232795Y-107309744D01*
X110154774Y-107498102D01*
X110115000Y-107698061D01*
X102874883Y-107698061D01*
X102948284Y-107608623D01*
X103053676Y-107411446D01*
X103118577Y-107197498D01*
X103135000Y-107030751D01*
X103135000Y-106369248D01*
X103118577Y-106202501D01*
X103053676Y-105988553D01*
X102948284Y-105791377D01*
X102806449Y-105618551D01*
X102633623Y-105476716D01*
X102472650Y-105390675D01*
X129990000Y-105390675D01*
X129990000Y-105609325D01*
X130032657Y-105823775D01*
X130116331Y-106025782D01*
X130237807Y-106207584D01*
X130392416Y-106362193D01*
X130574218Y-106483669D01*
X130776225Y-106567343D01*
X130990675Y-106610000D01*
X131209325Y-106610000D01*
X131423775Y-106567343D01*
X131625782Y-106483669D01*
X131807584Y-106362193D01*
X131962193Y-106207584D01*
X132083669Y-106025782D01*
X132167343Y-105823775D01*
X132210000Y-105609325D01*
X132210000Y-105390675D01*
X136790000Y-105390675D01*
X136790000Y-105609325D01*
X136832657Y-105823775D01*
X136916331Y-106025782D01*
X137037807Y-106207584D01*
X137192416Y-106362193D01*
X137374218Y-106483669D01*
X137576225Y-106567343D01*
X137790675Y-106610000D01*
X138009325Y-106610000D01*
X138223775Y-106567343D01*
X138425782Y-106483669D01*
X138607584Y-106362193D01*
X138762193Y-106207584D01*
X138883669Y-106025782D01*
X138967343Y-105823775D01*
X139010000Y-105609325D01*
X139010000Y-105390675D01*
X138967343Y-105176225D01*
X138883669Y-104974218D01*
X138762193Y-104792416D01*
X138607584Y-104637807D01*
X138425782Y-104516331D01*
X138223775Y-104432657D01*
X138009325Y-104390000D01*
X137790675Y-104390000D01*
X137576225Y-104432657D01*
X137374218Y-104516331D01*
X137192416Y-104637807D01*
X137037807Y-104792416D01*
X136916331Y-104974218D01*
X136832657Y-105176225D01*
X136790000Y-105390675D01*
X132210000Y-105390675D01*
X132167343Y-105176225D01*
X132083669Y-104974218D01*
X131962193Y-104792416D01*
X131807584Y-104637807D01*
X131625782Y-104516331D01*
X131423775Y-104432657D01*
X131209325Y-104390000D01*
X130990675Y-104390000D01*
X130776225Y-104432657D01*
X130574218Y-104516331D01*
X130392416Y-104637807D01*
X130237807Y-104792416D01*
X130116331Y-104974218D01*
X130032657Y-105176225D01*
X129990000Y-105390675D01*
X102472650Y-105390675D01*
X102436446Y-105371324D01*
X102222498Y-105306423D01*
X102000000Y-105284509D01*
X101777501Y-105306423D01*
X101563553Y-105371324D01*
X101366377Y-105476716D01*
X101193551Y-105618551D01*
X101051716Y-105791377D01*
X100946324Y-105988554D01*
X100881423Y-106202502D01*
X100865000Y-106369249D01*
X96135000Y-106369249D01*
X96135000Y-106369248D01*
X96118577Y-106202501D01*
X96053676Y-105988553D01*
X95948284Y-105791377D01*
X95806449Y-105618551D01*
X95633623Y-105476716D01*
X95436446Y-105371324D01*
X95222498Y-105306423D01*
X95000000Y-105284509D01*
X94777501Y-105306423D01*
X94563553Y-105371324D01*
X94366377Y-105476716D01*
X94193551Y-105618551D01*
X94051716Y-105791377D01*
X93946324Y-105988554D01*
X93881423Y-106202502D01*
X93865000Y-106369249D01*
X86127000Y-106369249D01*
X86127000Y-104000000D01*
X94734630Y-104000000D01*
X94756062Y-104217598D01*
X94819532Y-104426834D01*
X94922604Y-104619666D01*
X95061314Y-104788686D01*
X95230334Y-104927396D01*
X95423166Y-105030468D01*
X95632402Y-105093938D01*
X95795479Y-105110000D01*
X96204521Y-105110000D01*
X96367598Y-105093938D01*
X96576834Y-105030468D01*
X96769666Y-104927396D01*
X96938686Y-104788686D01*
X97077396Y-104619666D01*
X97180468Y-104426834D01*
X97243938Y-104217598D01*
X97265370Y-104000000D01*
X99734630Y-104000000D01*
X99756062Y-104217598D01*
X99819532Y-104426834D01*
X99922604Y-104619666D01*
X100061314Y-104788686D01*
X100230334Y-104927396D01*
X100423166Y-105030468D01*
X100632402Y-105093938D01*
X100795479Y-105110000D01*
X101204521Y-105110000D01*
X101367598Y-105093938D01*
X101576834Y-105030468D01*
X101769666Y-104927396D01*
X101938686Y-104788686D01*
X102077396Y-104619666D01*
X102180468Y-104426834D01*
X102243938Y-104217598D01*
X102265370Y-104000000D01*
X102243938Y-103782402D01*
X102190155Y-103605098D01*
X145955000Y-103605098D01*
X145955000Y-104074902D01*
X146046654Y-104535679D01*
X146226440Y-104969721D01*
X146487450Y-105360349D01*
X146819651Y-105692550D01*
X147210279Y-105953560D01*
X147644321Y-106133346D01*
X148105098Y-106225000D01*
X148574902Y-106225000D01*
X149035679Y-106133346D01*
X149469721Y-105953560D01*
X149860349Y-105692550D01*
X150192550Y-105360349D01*
X150453560Y-104969721D01*
X150633346Y-104535679D01*
X150725000Y-104074902D01*
X150725000Y-103605098D01*
X150633346Y-103144321D01*
X150453560Y-102710279D01*
X150192550Y-102319651D01*
X149860349Y-101987450D01*
X149469721Y-101726440D01*
X149035679Y-101546654D01*
X148574902Y-101455000D01*
X148105098Y-101455000D01*
X147644321Y-101546654D01*
X147210279Y-101726440D01*
X146819651Y-101987450D01*
X146487450Y-102319651D01*
X146226440Y-102710279D01*
X146046654Y-103144321D01*
X145955000Y-103605098D01*
X102190155Y-103605098D01*
X102180468Y-103573166D01*
X102077396Y-103380334D01*
X101938686Y-103211314D01*
X101769666Y-103072604D01*
X101576834Y-102969532D01*
X101367598Y-102906062D01*
X101204521Y-102890000D01*
X100795479Y-102890000D01*
X100632402Y-102906062D01*
X100423166Y-102969532D01*
X100230334Y-103072604D01*
X100061314Y-103211314D01*
X99922604Y-103380334D01*
X99819532Y-103573166D01*
X99756062Y-103782402D01*
X99734630Y-104000000D01*
X97265370Y-104000000D01*
X97243938Y-103782402D01*
X97180468Y-103573166D01*
X97077396Y-103380334D01*
X96938686Y-103211314D01*
X96769666Y-103072604D01*
X96576834Y-102969532D01*
X96367598Y-102906062D01*
X96204521Y-102890000D01*
X95795479Y-102890000D01*
X95632402Y-102906062D01*
X95423166Y-102969532D01*
X95230334Y-103072604D01*
X95061314Y-103211314D01*
X94922604Y-103380334D01*
X94819532Y-103573166D01*
X94756062Y-103782402D01*
X94734630Y-104000000D01*
X86127000Y-104000000D01*
X86127000Y-102298061D01*
X110265000Y-102298061D01*
X110265000Y-102501939D01*
X110304774Y-102701898D01*
X110382795Y-102890256D01*
X110496063Y-103059774D01*
X110640226Y-103203937D01*
X110809744Y-103317205D01*
X110998102Y-103395226D01*
X111198061Y-103435000D01*
X111401939Y-103435000D01*
X111601898Y-103395226D01*
X111790256Y-103317205D01*
X111959774Y-103203937D01*
X112103937Y-103059774D01*
X112217205Y-102890256D01*
X112295226Y-102701898D01*
X112335000Y-102501939D01*
X112335000Y-102298061D01*
X112295226Y-102098102D01*
X112217205Y-101909744D01*
X112103937Y-101740226D01*
X111959774Y-101596063D01*
X111790256Y-101482795D01*
X111601898Y-101404774D01*
X111401939Y-101365000D01*
X111198061Y-101365000D01*
X110998102Y-101404774D01*
X110809744Y-101482795D01*
X110640226Y-101596063D01*
X110496063Y-101740226D01*
X110382795Y-101909744D01*
X110304774Y-102098102D01*
X110265000Y-102298061D01*
X86127000Y-102298061D01*
X86127000Y-100343192D01*
X113310131Y-100343192D01*
X113310131Y-100547070D01*
X113349905Y-100747029D01*
X113427926Y-100935387D01*
X113541194Y-101104905D01*
X113685357Y-101249068D01*
X113854875Y-101362336D01*
X114043233Y-101440357D01*
X114243192Y-101480131D01*
X114447070Y-101480131D01*
X114647029Y-101440357D01*
X114835387Y-101362336D01*
X115004905Y-101249068D01*
X115149068Y-101104905D01*
X115262336Y-100935387D01*
X115340357Y-100747029D01*
X115380131Y-100547070D01*
X115380131Y-100343192D01*
X115340357Y-100143233D01*
X115262336Y-99954875D01*
X115149068Y-99785357D01*
X115004905Y-99641194D01*
X114835387Y-99527926D01*
X114647029Y-99449905D01*
X114447070Y-99410131D01*
X114243192Y-99410131D01*
X114043233Y-99449905D01*
X113854875Y-99527926D01*
X113685357Y-99641194D01*
X113541194Y-99785357D01*
X113427926Y-99954875D01*
X113349905Y-100143233D01*
X113310131Y-100343192D01*
X86127000Y-100343192D01*
X86127000Y-98898061D01*
X114965000Y-98898061D01*
X114965000Y-99101939D01*
X115004774Y-99301898D01*
X115082795Y-99490256D01*
X115196063Y-99659774D01*
X115340226Y-99803937D01*
X115509744Y-99917205D01*
X115698102Y-99995226D01*
X115898061Y-100035000D01*
X116101939Y-100035000D01*
X116111430Y-100033112D01*
X116167722Y-100117358D01*
X116009744Y-100182795D01*
X115840226Y-100296063D01*
X115696063Y-100440226D01*
X115582795Y-100609744D01*
X115504774Y-100798102D01*
X115465000Y-100998061D01*
X115465000Y-101201939D01*
X115504774Y-101401898D01*
X115582795Y-101590256D01*
X115696063Y-101759774D01*
X115840226Y-101903937D01*
X116009744Y-102017205D01*
X116198102Y-102095226D01*
X116398061Y-102135000D01*
X116601939Y-102135000D01*
X116801898Y-102095226D01*
X116990256Y-102017205D01*
X117159774Y-101903937D01*
X117303937Y-101759774D01*
X117417205Y-101590256D01*
X117495226Y-101401898D01*
X117535000Y-101201939D01*
X117535000Y-100998061D01*
X117495226Y-100798102D01*
X117417205Y-100609744D01*
X117332278Y-100482642D01*
X117490256Y-100417205D01*
X117659774Y-100303937D01*
X117803937Y-100159774D01*
X117917205Y-99990256D01*
X117995226Y-99801898D01*
X118035000Y-99601939D01*
X118035000Y-99476967D01*
X119997000Y-99476967D01*
X119997000Y-99799033D01*
X120059832Y-100114912D01*
X120183082Y-100412463D01*
X120362013Y-100680252D01*
X120589748Y-100907987D01*
X120857537Y-101086918D01*
X121155088Y-101210168D01*
X121470967Y-101273000D01*
X121793033Y-101273000D01*
X122108912Y-101210168D01*
X122406463Y-101086918D01*
X122674252Y-100907987D01*
X122901987Y-100680252D01*
X123080918Y-100412463D01*
X123204168Y-100114912D01*
X123267000Y-99799033D01*
X123267000Y-99476967D01*
X123204168Y-99161088D01*
X123080918Y-98863537D01*
X122901987Y-98595748D01*
X122674252Y-98368013D01*
X122406463Y-98189082D01*
X122108912Y-98065832D01*
X121793033Y-98003000D01*
X121470967Y-98003000D01*
X121155088Y-98065832D01*
X120857537Y-98189082D01*
X120589748Y-98368013D01*
X120362013Y-98595748D01*
X120183082Y-98863537D01*
X120059832Y-99161088D01*
X119997000Y-99476967D01*
X118035000Y-99476967D01*
X118035000Y-99398061D01*
X117995226Y-99198102D01*
X117917205Y-99009744D01*
X117803937Y-98840226D01*
X117659774Y-98696063D01*
X117490256Y-98582795D01*
X117301898Y-98504774D01*
X117101939Y-98465000D01*
X116898061Y-98465000D01*
X116888570Y-98466888D01*
X116803937Y-98340226D01*
X116659774Y-98196063D01*
X116490256Y-98082795D01*
X116301898Y-98004774D01*
X116101939Y-97965000D01*
X115898061Y-97965000D01*
X115698102Y-98004774D01*
X115509744Y-98082795D01*
X115340226Y-98196063D01*
X115196063Y-98340226D01*
X115082795Y-98509744D01*
X115004774Y-98698102D01*
X114965000Y-98898061D01*
X86127000Y-98898061D01*
X86127000Y-97148061D01*
X123865000Y-97148061D01*
X123865000Y-97351939D01*
X123904774Y-97551898D01*
X123982795Y-97740256D01*
X124096063Y-97909774D01*
X124240226Y-98053937D01*
X124409744Y-98167205D01*
X124598102Y-98245226D01*
X124798061Y-98285000D01*
X125001939Y-98285000D01*
X125201898Y-98245226D01*
X125390256Y-98167205D01*
X125559774Y-98053937D01*
X125703937Y-97909774D01*
X125817205Y-97740256D01*
X125895226Y-97551898D01*
X125935000Y-97351939D01*
X125935000Y-97148061D01*
X125895226Y-96948102D01*
X125817205Y-96759744D01*
X125703937Y-96590226D01*
X125559774Y-96446063D01*
X125390256Y-96332795D01*
X125201898Y-96254774D01*
X125001939Y-96215000D01*
X124798061Y-96215000D01*
X124598102Y-96254774D01*
X124409744Y-96332795D01*
X124240226Y-96446063D01*
X124096063Y-96590226D01*
X123982795Y-96759744D01*
X123904774Y-96948102D01*
X123865000Y-97148061D01*
X86127000Y-97148061D01*
X86127000Y-95935413D01*
X96844192Y-95935413D01*
X96939956Y-96199814D01*
X97229571Y-96340704D01*
X97541108Y-96422384D01*
X97862595Y-96441718D01*
X98181675Y-96397961D01*
X98486088Y-96292795D01*
X98660044Y-96199814D01*
X98755808Y-95935413D01*
X97800000Y-94979605D01*
X96844192Y-95935413D01*
X86127000Y-95935413D01*
X86127000Y-94862595D01*
X96158282Y-94862595D01*
X96202039Y-95181675D01*
X96307205Y-95486088D01*
X96400186Y-95660044D01*
X96664587Y-95755808D01*
X97620395Y-94800000D01*
X97979605Y-94800000D01*
X98935413Y-95755808D01*
X99199814Y-95660044D01*
X99340704Y-95370429D01*
X99422384Y-95058892D01*
X99441718Y-94737405D01*
X99428219Y-94638967D01*
X101165000Y-94638967D01*
X101165000Y-94961033D01*
X101227832Y-95276912D01*
X101351082Y-95574463D01*
X101530013Y-95842252D01*
X101757748Y-96069987D01*
X102025537Y-96248918D01*
X102323088Y-96372168D01*
X102638967Y-96435000D01*
X102961033Y-96435000D01*
X103276912Y-96372168D01*
X103574463Y-96248918D01*
X103842252Y-96069987D01*
X104069987Y-95842252D01*
X104248918Y-95574463D01*
X104372168Y-95276912D01*
X104435000Y-94961033D01*
X104435000Y-94638967D01*
X104387082Y-94398061D01*
X118465000Y-94398061D01*
X118465000Y-94601939D01*
X118504774Y-94801898D01*
X118582795Y-94990256D01*
X118696063Y-95159774D01*
X118840226Y-95303937D01*
X119009744Y-95417205D01*
X119198102Y-95495226D01*
X119398061Y-95535000D01*
X119601939Y-95535000D01*
X119801898Y-95495226D01*
X119990256Y-95417205D01*
X120159774Y-95303937D01*
X120303937Y-95159774D01*
X120417205Y-94990256D01*
X120495226Y-94801898D01*
X120535000Y-94601939D01*
X120535000Y-94398061D01*
X120495226Y-94198102D01*
X120417205Y-94009744D01*
X120303937Y-93840226D01*
X120159774Y-93696063D01*
X119990256Y-93582795D01*
X119801898Y-93504774D01*
X119601939Y-93465000D01*
X119398061Y-93465000D01*
X119198102Y-93504774D01*
X119009744Y-93582795D01*
X118840226Y-93696063D01*
X118696063Y-93840226D01*
X118582795Y-94009744D01*
X118504774Y-94198102D01*
X118465000Y-94398061D01*
X104387082Y-94398061D01*
X104372168Y-94323088D01*
X104248918Y-94025537D01*
X104069987Y-93757748D01*
X103842252Y-93530013D01*
X103574463Y-93351082D01*
X103276912Y-93227832D01*
X102961033Y-93165000D01*
X102638967Y-93165000D01*
X102323088Y-93227832D01*
X102025537Y-93351082D01*
X101757748Y-93530013D01*
X101530013Y-93757748D01*
X101351082Y-94025537D01*
X101227832Y-94323088D01*
X101165000Y-94638967D01*
X99428219Y-94638967D01*
X99397961Y-94418325D01*
X99292795Y-94113912D01*
X99199814Y-93939956D01*
X98935413Y-93844192D01*
X97979605Y-94800000D01*
X97620395Y-94800000D01*
X96664587Y-93844192D01*
X96400186Y-93939956D01*
X96259296Y-94229571D01*
X96177616Y-94541108D01*
X96158282Y-94862595D01*
X86127000Y-94862595D01*
X86127000Y-93664587D01*
X96844192Y-93664587D01*
X97800000Y-94620395D01*
X98755808Y-93664587D01*
X98660044Y-93400186D01*
X98370429Y-93259296D01*
X98058892Y-93177616D01*
X97737405Y-93158282D01*
X97418325Y-93202039D01*
X97113912Y-93307205D01*
X96939956Y-93400186D01*
X96844192Y-93664587D01*
X86127000Y-93664587D01*
X86127000Y-91898061D01*
X108965000Y-91898061D01*
X108965000Y-92101939D01*
X109004774Y-92301898D01*
X109082795Y-92490256D01*
X109196063Y-92659774D01*
X109340226Y-92803937D01*
X109509744Y-92917205D01*
X109698102Y-92995226D01*
X109898061Y-93035000D01*
X110101939Y-93035000D01*
X110301898Y-92995226D01*
X110490256Y-92917205D01*
X110659774Y-92803937D01*
X110803937Y-92659774D01*
X110917205Y-92490256D01*
X110934682Y-92448061D01*
X121315000Y-92448061D01*
X121315000Y-92651939D01*
X121354774Y-92851898D01*
X121432795Y-93040256D01*
X121546063Y-93209774D01*
X121690226Y-93353937D01*
X121859744Y-93467205D01*
X122048102Y-93545226D01*
X122248061Y-93585000D01*
X122451939Y-93585000D01*
X122651898Y-93545226D01*
X122840256Y-93467205D01*
X123009774Y-93353937D01*
X123153937Y-93209774D01*
X123267205Y-93040256D01*
X123345226Y-92851898D01*
X123385000Y-92651939D01*
X123385000Y-92448061D01*
X123345226Y-92248102D01*
X123267205Y-92059744D01*
X123153937Y-91890226D01*
X123009774Y-91746063D01*
X122840256Y-91632795D01*
X122651898Y-91554774D01*
X122451939Y-91515000D01*
X122248061Y-91515000D01*
X122048102Y-91554774D01*
X121859744Y-91632795D01*
X121690226Y-91746063D01*
X121546063Y-91890226D01*
X121432795Y-92059744D01*
X121354774Y-92248102D01*
X121315000Y-92448061D01*
X110934682Y-92448061D01*
X110995226Y-92301898D01*
X111035000Y-92101939D01*
X111035000Y-91898061D01*
X110995226Y-91698102D01*
X110917205Y-91509744D01*
X110803937Y-91340226D01*
X110659774Y-91196063D01*
X110490256Y-91082795D01*
X110301898Y-91004774D01*
X110101939Y-90965000D01*
X109898061Y-90965000D01*
X109698102Y-91004774D01*
X109509744Y-91082795D01*
X109340226Y-91196063D01*
X109196063Y-91340226D01*
X109082795Y-91509744D01*
X109004774Y-91698102D01*
X108965000Y-91898061D01*
X86127000Y-91898061D01*
X86127000Y-90898061D01*
X134965000Y-90898061D01*
X134965000Y-91101939D01*
X135004774Y-91301898D01*
X135082795Y-91490256D01*
X135196063Y-91659774D01*
X135340226Y-91803937D01*
X135509744Y-91917205D01*
X135638465Y-91970523D01*
X135600600Y-92027193D01*
X135522579Y-92215551D01*
X135482805Y-92415510D01*
X135482805Y-92619388D01*
X135522579Y-92819347D01*
X135600600Y-93007705D01*
X135713868Y-93177223D01*
X135858031Y-93321386D01*
X136027549Y-93434654D01*
X136215907Y-93512675D01*
X136415866Y-93552449D01*
X136619744Y-93552449D01*
X136819703Y-93512675D01*
X137008061Y-93434654D01*
X137177579Y-93321386D01*
X137321742Y-93177223D01*
X137435010Y-93007705D01*
X137513031Y-92819347D01*
X137552805Y-92619388D01*
X137552805Y-92415510D01*
X137513031Y-92215551D01*
X137505787Y-92198061D01*
X150065000Y-92198061D01*
X150065000Y-92401939D01*
X150104774Y-92601898D01*
X150182795Y-92790256D01*
X150296063Y-92959774D01*
X150440226Y-93103937D01*
X150609744Y-93217205D01*
X150798102Y-93295226D01*
X150998061Y-93335000D01*
X151201939Y-93335000D01*
X151401898Y-93295226D01*
X151590256Y-93217205D01*
X151759774Y-93103937D01*
X151903937Y-92959774D01*
X152017205Y-92790256D01*
X152089798Y-92615000D01*
X156576928Y-92615000D01*
X156576928Y-94785000D01*
X156589188Y-94909482D01*
X156625498Y-95029180D01*
X156684463Y-95139494D01*
X156763815Y-95236185D01*
X156860506Y-95315537D01*
X156970820Y-95374502D01*
X157090518Y-95410812D01*
X157215000Y-95423072D01*
X159385000Y-95423072D01*
X159509482Y-95410812D01*
X159629180Y-95374502D01*
X159739494Y-95315537D01*
X159836185Y-95236185D01*
X159915537Y-95139494D01*
X159974502Y-95029180D01*
X160010812Y-94909482D01*
X160023072Y-94785000D01*
X160023072Y-92615000D01*
X160010812Y-92490518D01*
X159974502Y-92370820D01*
X159915537Y-92260506D01*
X159836185Y-92163815D01*
X159739494Y-92084463D01*
X159629180Y-92025498D01*
X159509482Y-91989188D01*
X159385000Y-91976928D01*
X157215000Y-91976928D01*
X157090518Y-91989188D01*
X156970820Y-92025498D01*
X156860506Y-92084463D01*
X156763815Y-92163815D01*
X156684463Y-92260506D01*
X156625498Y-92370820D01*
X156589188Y-92490518D01*
X156576928Y-92615000D01*
X152089798Y-92615000D01*
X152095226Y-92601898D01*
X152135000Y-92401939D01*
X152135000Y-92198061D01*
X152095226Y-91998102D01*
X152017205Y-91809744D01*
X151903937Y-91640226D01*
X151759774Y-91496063D01*
X151590256Y-91382795D01*
X151401898Y-91304774D01*
X151201939Y-91265000D01*
X150998061Y-91265000D01*
X150798102Y-91304774D01*
X150609744Y-91382795D01*
X150440226Y-91496063D01*
X150296063Y-91640226D01*
X150182795Y-91809744D01*
X150104774Y-91998102D01*
X150065000Y-92198061D01*
X137505787Y-92198061D01*
X137435010Y-92027193D01*
X137321742Y-91857675D01*
X137177579Y-91713512D01*
X137008061Y-91600244D01*
X136879340Y-91546926D01*
X136917205Y-91490256D01*
X136995226Y-91301898D01*
X137035000Y-91101939D01*
X137035000Y-90898061D01*
X136995226Y-90698102D01*
X136917205Y-90509744D01*
X136803937Y-90340226D01*
X136659774Y-90196063D01*
X136490256Y-90082795D01*
X136301898Y-90004774D01*
X136101939Y-89965000D01*
X135898061Y-89965000D01*
X135698102Y-90004774D01*
X135509744Y-90082795D01*
X135340226Y-90196063D01*
X135196063Y-90340226D01*
X135082795Y-90509744D01*
X135004774Y-90698102D01*
X134965000Y-90898061D01*
X86127000Y-90898061D01*
X86127000Y-86000000D01*
X92561928Y-86000000D01*
X92561928Y-89600000D01*
X92574188Y-89724482D01*
X92610498Y-89844180D01*
X92669463Y-89954494D01*
X92748815Y-90051185D01*
X92845506Y-90130537D01*
X92955820Y-90189502D01*
X93075518Y-90225812D01*
X93200000Y-90238072D01*
X96000000Y-90238072D01*
X96124482Y-90225812D01*
X96244180Y-90189502D01*
X96354494Y-90130537D01*
X96451185Y-90051185D01*
X96530537Y-89954494D01*
X96589502Y-89844180D01*
X96625812Y-89724482D01*
X96638072Y-89600000D01*
X96638072Y-86000000D01*
X103961928Y-86000000D01*
X103961928Y-89600000D01*
X103974188Y-89724482D01*
X104010498Y-89844180D01*
X104069463Y-89954494D01*
X104148815Y-90051185D01*
X104245506Y-90130537D01*
X104355820Y-90189502D01*
X104475518Y-90225812D01*
X104600000Y-90238072D01*
X107400000Y-90238072D01*
X107524482Y-90225812D01*
X107644180Y-90189502D01*
X107754494Y-90130537D01*
X107851185Y-90051185D01*
X107930537Y-89954494D01*
X107960701Y-89898061D01*
X138465000Y-89898061D01*
X138465000Y-90101939D01*
X138504774Y-90301898D01*
X138582795Y-90490256D01*
X138696063Y-90659774D01*
X138840226Y-90803937D01*
X139009744Y-90917205D01*
X139198102Y-90995226D01*
X139398061Y-91035000D01*
X139601939Y-91035000D01*
X139801898Y-90995226D01*
X139990256Y-90917205D01*
X140159774Y-90803937D01*
X140303937Y-90659774D01*
X140398626Y-90518061D01*
X155245000Y-90518061D01*
X155245000Y-90721939D01*
X155284774Y-90921898D01*
X155362795Y-91110256D01*
X155476063Y-91279774D01*
X155620226Y-91423937D01*
X155789744Y-91537205D01*
X155978102Y-91615226D01*
X156178061Y-91655000D01*
X156381939Y-91655000D01*
X156581898Y-91615226D01*
X156770256Y-91537205D01*
X156939774Y-91423937D01*
X157083937Y-91279774D01*
X157197205Y-91110256D01*
X157275226Y-90921898D01*
X157315000Y-90721939D01*
X157315000Y-90518061D01*
X157275226Y-90318102D01*
X157197205Y-90129744D01*
X157083937Y-89960226D01*
X156939774Y-89816063D01*
X156770256Y-89702795D01*
X156581898Y-89624774D01*
X156381939Y-89585000D01*
X156178061Y-89585000D01*
X155978102Y-89624774D01*
X155789744Y-89702795D01*
X155620226Y-89816063D01*
X155476063Y-89960226D01*
X155362795Y-90129744D01*
X155284774Y-90318102D01*
X155245000Y-90518061D01*
X140398626Y-90518061D01*
X140417205Y-90490256D01*
X140495226Y-90301898D01*
X140535000Y-90101939D01*
X140535000Y-89898061D01*
X140495226Y-89698102D01*
X140417205Y-89509744D01*
X140303937Y-89340226D01*
X140159774Y-89196063D01*
X139990256Y-89082795D01*
X139801898Y-89004774D01*
X139601939Y-88965000D01*
X139398061Y-88965000D01*
X139198102Y-89004774D01*
X139009744Y-89082795D01*
X138840226Y-89196063D01*
X138696063Y-89340226D01*
X138582795Y-89509744D01*
X138504774Y-89698102D01*
X138465000Y-89898061D01*
X107960701Y-89898061D01*
X107989502Y-89844180D01*
X108025812Y-89724482D01*
X108038072Y-89600000D01*
X108038072Y-86898061D01*
X120965000Y-86898061D01*
X120965000Y-87101939D01*
X121004774Y-87301898D01*
X121082795Y-87490256D01*
X121196063Y-87659774D01*
X121340226Y-87803937D01*
X121509744Y-87917205D01*
X121698102Y-87995226D01*
X121898061Y-88035000D01*
X122101939Y-88035000D01*
X122301898Y-87995226D01*
X122490256Y-87917205D01*
X122518907Y-87898061D01*
X124465000Y-87898061D01*
X124465000Y-88101939D01*
X124504774Y-88301898D01*
X124582795Y-88490256D01*
X124696063Y-88659774D01*
X124840226Y-88803937D01*
X125009744Y-88917205D01*
X125198102Y-88995226D01*
X125398061Y-89035000D01*
X125601939Y-89035000D01*
X125801898Y-88995226D01*
X125990256Y-88917205D01*
X126159774Y-88803937D01*
X126303937Y-88659774D01*
X126417205Y-88490256D01*
X126459602Y-88387900D01*
X126522397Y-88429858D01*
X126710755Y-88507879D01*
X126910714Y-88547653D01*
X127114592Y-88547653D01*
X127314551Y-88507879D01*
X127502909Y-88429858D01*
X127672427Y-88316590D01*
X127816590Y-88172427D01*
X127929858Y-88002909D01*
X128007879Y-87814551D01*
X128047653Y-87614592D01*
X128047653Y-87410714D01*
X128045626Y-87400522D01*
X128082795Y-87490256D01*
X128196063Y-87659774D01*
X128340226Y-87803937D01*
X128509744Y-87917205D01*
X128698102Y-87995226D01*
X128898061Y-88035000D01*
X129101939Y-88035000D01*
X129301898Y-87995226D01*
X129490256Y-87917205D01*
X129659774Y-87803937D01*
X129803937Y-87659774D01*
X129917205Y-87490256D01*
X129995226Y-87301898D01*
X130035000Y-87101939D01*
X130035000Y-87048061D01*
X131065000Y-87048061D01*
X131065000Y-87251939D01*
X131104774Y-87451898D01*
X131182795Y-87640256D01*
X131296063Y-87809774D01*
X131440226Y-87953937D01*
X131609744Y-88067205D01*
X131798102Y-88145226D01*
X131998061Y-88185000D01*
X132201939Y-88185000D01*
X132401898Y-88145226D01*
X132552519Y-88082836D01*
X132504774Y-88198102D01*
X132465000Y-88398061D01*
X132465000Y-88601939D01*
X132504774Y-88801898D01*
X132582795Y-88990256D01*
X132696063Y-89159774D01*
X132840226Y-89303937D01*
X133009744Y-89417205D01*
X133198102Y-89495226D01*
X133398061Y-89535000D01*
X133601939Y-89535000D01*
X133801898Y-89495226D01*
X133990256Y-89417205D01*
X134159774Y-89303937D01*
X134303937Y-89159774D01*
X134417205Y-88990256D01*
X134495226Y-88801898D01*
X134535000Y-88601939D01*
X134535000Y-88398061D01*
X134495226Y-88198102D01*
X134433077Y-88048061D01*
X159965000Y-88048061D01*
X159965000Y-88251939D01*
X160004774Y-88451898D01*
X160082795Y-88640256D01*
X160196063Y-88809774D01*
X160340226Y-88953937D01*
X160509744Y-89067205D01*
X160698102Y-89145226D01*
X160898061Y-89185000D01*
X161101939Y-89185000D01*
X161301898Y-89145226D01*
X161490256Y-89067205D01*
X161659774Y-88953937D01*
X161803937Y-88809774D01*
X161917205Y-88640256D01*
X161995226Y-88451898D01*
X162035000Y-88251939D01*
X162035000Y-88048061D01*
X161995226Y-87848102D01*
X161917205Y-87659744D01*
X161803937Y-87490226D01*
X161659774Y-87346063D01*
X161490256Y-87232795D01*
X161301898Y-87154774D01*
X161101939Y-87115000D01*
X160898061Y-87115000D01*
X160698102Y-87154774D01*
X160509744Y-87232795D01*
X160340226Y-87346063D01*
X160196063Y-87490226D01*
X160082795Y-87659744D01*
X160004774Y-87848102D01*
X159965000Y-88048061D01*
X134433077Y-88048061D01*
X134417205Y-88009744D01*
X134303937Y-87840226D01*
X134159774Y-87696063D01*
X133990256Y-87582795D01*
X133801898Y-87504774D01*
X133601939Y-87465000D01*
X133398061Y-87465000D01*
X133198102Y-87504774D01*
X133047481Y-87567164D01*
X133095226Y-87451898D01*
X133135000Y-87251939D01*
X133135000Y-87048061D01*
X133095226Y-86848102D01*
X133017205Y-86659744D01*
X132903937Y-86490226D01*
X132759774Y-86346063D01*
X132590256Y-86232795D01*
X132401898Y-86154774D01*
X132201939Y-86115000D01*
X131998061Y-86115000D01*
X131798102Y-86154774D01*
X131609744Y-86232795D01*
X131440226Y-86346063D01*
X131296063Y-86490226D01*
X131182795Y-86659744D01*
X131104774Y-86848102D01*
X131065000Y-87048061D01*
X130035000Y-87048061D01*
X130035000Y-86898061D01*
X129995226Y-86698102D01*
X129917205Y-86509744D01*
X129803937Y-86340226D01*
X129659774Y-86196063D01*
X129490256Y-86082795D01*
X129301898Y-86004774D01*
X129101939Y-85965000D01*
X128898061Y-85965000D01*
X128698102Y-86004774D01*
X128509744Y-86082795D01*
X128340226Y-86196063D01*
X128196063Y-86340226D01*
X128082795Y-86509744D01*
X128004774Y-86698102D01*
X127965000Y-86898061D01*
X127965000Y-87101939D01*
X127967027Y-87112131D01*
X127929858Y-87022397D01*
X127816590Y-86852879D01*
X127672427Y-86708716D01*
X127502909Y-86595448D01*
X127314551Y-86517427D01*
X127114592Y-86477653D01*
X126910714Y-86477653D01*
X126710755Y-86517427D01*
X126522397Y-86595448D01*
X126352879Y-86708716D01*
X126208716Y-86852879D01*
X126095448Y-87022397D01*
X126053051Y-87124753D01*
X125990256Y-87082795D01*
X125801898Y-87004774D01*
X125601939Y-86965000D01*
X125398061Y-86965000D01*
X125198102Y-87004774D01*
X125009744Y-87082795D01*
X124840226Y-87196063D01*
X124696063Y-87340226D01*
X124582795Y-87509744D01*
X124504774Y-87698102D01*
X124465000Y-87898061D01*
X122518907Y-87898061D01*
X122659774Y-87803937D01*
X122803937Y-87659774D01*
X122917205Y-87490256D01*
X122995226Y-87301898D01*
X123035000Y-87101939D01*
X123035000Y-86898061D01*
X122995226Y-86698102D01*
X122917205Y-86509744D01*
X122803937Y-86340226D01*
X122659774Y-86196063D01*
X122490256Y-86082795D01*
X122301898Y-86004774D01*
X122101939Y-85965000D01*
X121898061Y-85965000D01*
X121698102Y-86004774D01*
X121509744Y-86082795D01*
X121340226Y-86196063D01*
X121196063Y-86340226D01*
X121082795Y-86509744D01*
X121004774Y-86698102D01*
X120965000Y-86898061D01*
X108038072Y-86898061D01*
X108038072Y-86000000D01*
X108025812Y-85875518D01*
X107989502Y-85755820D01*
X107930537Y-85645506D01*
X107851185Y-85548815D01*
X107754494Y-85469463D01*
X107644180Y-85410498D01*
X107603181Y-85398061D01*
X129465000Y-85398061D01*
X129465000Y-85601939D01*
X129504774Y-85801898D01*
X129582795Y-85990256D01*
X129696063Y-86159774D01*
X129840226Y-86303937D01*
X130009744Y-86417205D01*
X130198102Y-86495226D01*
X130398061Y-86535000D01*
X130601939Y-86535000D01*
X130801898Y-86495226D01*
X130990256Y-86417205D01*
X131159774Y-86303937D01*
X131303937Y-86159774D01*
X131417205Y-85990256D01*
X131495226Y-85801898D01*
X131535000Y-85601939D01*
X131535000Y-85398061D01*
X132965000Y-85398061D01*
X132965000Y-85601939D01*
X133004774Y-85801898D01*
X133082795Y-85990256D01*
X133196063Y-86159774D01*
X133340226Y-86303937D01*
X133509744Y-86417205D01*
X133698102Y-86495226D01*
X133898061Y-86535000D01*
X134101939Y-86535000D01*
X134301898Y-86495226D01*
X134490256Y-86417205D01*
X134659774Y-86303937D01*
X134803937Y-86159774D01*
X134917205Y-85990256D01*
X134995226Y-85801898D01*
X135035000Y-85601939D01*
X135035000Y-85398061D01*
X134995226Y-85198102D01*
X134917205Y-85009744D01*
X134803937Y-84840226D01*
X134659774Y-84696063D01*
X134490256Y-84582795D01*
X134301898Y-84504774D01*
X134101939Y-84465000D01*
X133898061Y-84465000D01*
X133698102Y-84504774D01*
X133509744Y-84582795D01*
X133340226Y-84696063D01*
X133196063Y-84840226D01*
X133082795Y-85009744D01*
X133004774Y-85198102D01*
X132965000Y-85398061D01*
X131535000Y-85398061D01*
X131495226Y-85198102D01*
X131438149Y-85060306D01*
X131627245Y-85060306D01*
X131827204Y-85020532D01*
X132015562Y-84942511D01*
X132185080Y-84829243D01*
X132329243Y-84685080D01*
X132442511Y-84515562D01*
X132520532Y-84327204D01*
X132560306Y-84127245D01*
X132560306Y-83923367D01*
X132520532Y-83723408D01*
X132442511Y-83535050D01*
X132329243Y-83365532D01*
X132185080Y-83221369D01*
X132015562Y-83108101D01*
X131827204Y-83030080D01*
X131627245Y-82990306D01*
X131423367Y-82990306D01*
X131223408Y-83030080D01*
X131035050Y-83108101D01*
X130865532Y-83221369D01*
X130721369Y-83365532D01*
X130608101Y-83535050D01*
X130530080Y-83723408D01*
X130490306Y-83923367D01*
X130490306Y-84127245D01*
X130530080Y-84327204D01*
X130587157Y-84465000D01*
X130398061Y-84465000D01*
X130198102Y-84504774D01*
X130009744Y-84582795D01*
X129840226Y-84696063D01*
X129696063Y-84840226D01*
X129582795Y-85009744D01*
X129504774Y-85198102D01*
X129465000Y-85398061D01*
X107603181Y-85398061D01*
X107524482Y-85374188D01*
X107400000Y-85361928D01*
X104600000Y-85361928D01*
X104475518Y-85374188D01*
X104355820Y-85410498D01*
X104245506Y-85469463D01*
X104148815Y-85548815D01*
X104069463Y-85645506D01*
X104010498Y-85755820D01*
X103974188Y-85875518D01*
X103961928Y-86000000D01*
X96638072Y-86000000D01*
X96625812Y-85875518D01*
X96589502Y-85755820D01*
X96530537Y-85645506D01*
X96451185Y-85548815D01*
X96354494Y-85469463D01*
X96244180Y-85410498D01*
X96124482Y-85374188D01*
X96000000Y-85361928D01*
X93200000Y-85361928D01*
X93075518Y-85374188D01*
X92955820Y-85410498D01*
X92845506Y-85469463D01*
X92748815Y-85548815D01*
X92669463Y-85645506D01*
X92610498Y-85755820D01*
X92574188Y-85875518D01*
X92561928Y-86000000D01*
X86127000Y-86000000D01*
X86127000Y-80138967D01*
X96165000Y-80138967D01*
X96165000Y-80461033D01*
X96227832Y-80776912D01*
X96351082Y-81074463D01*
X96530013Y-81342252D01*
X96757748Y-81569987D01*
X97025537Y-81748918D01*
X97323088Y-81872168D01*
X97638967Y-81935000D01*
X97961033Y-81935000D01*
X98276912Y-81872168D01*
X98574463Y-81748918D01*
X98842252Y-81569987D01*
X99050000Y-81362239D01*
X99257748Y-81569987D01*
X99525537Y-81748918D01*
X99823088Y-81872168D01*
X100138967Y-81935000D01*
X100461033Y-81935000D01*
X100776912Y-81872168D01*
X101074463Y-81748918D01*
X101342252Y-81569987D01*
X101550000Y-81362239D01*
X101757748Y-81569987D01*
X102025537Y-81748918D01*
X102323088Y-81872168D01*
X102638967Y-81935000D01*
X102961033Y-81935000D01*
X103276912Y-81872168D01*
X103574463Y-81748918D01*
X103842252Y-81569987D01*
X104064178Y-81348061D01*
X122465000Y-81348061D01*
X122465000Y-81551939D01*
X122504774Y-81751898D01*
X122582795Y-81940256D01*
X122696063Y-82109774D01*
X122840226Y-82253937D01*
X123009744Y-82367205D01*
X123198102Y-82445226D01*
X123398061Y-82485000D01*
X123601939Y-82485000D01*
X123801898Y-82445226D01*
X123990256Y-82367205D01*
X124159774Y-82253937D01*
X124303937Y-82109774D01*
X124417205Y-81940256D01*
X124495226Y-81751898D01*
X124535000Y-81551939D01*
X124535000Y-81348061D01*
X124495226Y-81148102D01*
X124417205Y-80959744D01*
X124303937Y-80790226D01*
X124159774Y-80646063D01*
X123990256Y-80532795D01*
X123801898Y-80454774D01*
X123601939Y-80415000D01*
X123398061Y-80415000D01*
X123198102Y-80454774D01*
X123009744Y-80532795D01*
X122840226Y-80646063D01*
X122696063Y-80790226D01*
X122582795Y-80959744D01*
X122504774Y-81148102D01*
X122465000Y-81348061D01*
X104064178Y-81348061D01*
X104069987Y-81342252D01*
X104248918Y-81074463D01*
X104372168Y-80776912D01*
X104435000Y-80461033D01*
X104435000Y-80138967D01*
X104372168Y-79823088D01*
X104248918Y-79525537D01*
X104069987Y-79257748D01*
X103842252Y-79030013D01*
X103574463Y-78851082D01*
X103276912Y-78727832D01*
X102961033Y-78665000D01*
X102638967Y-78665000D01*
X102323088Y-78727832D01*
X102025537Y-78851082D01*
X101757748Y-79030013D01*
X101550000Y-79237761D01*
X101342252Y-79030013D01*
X101074463Y-78851082D01*
X100776912Y-78727832D01*
X100461033Y-78665000D01*
X100138967Y-78665000D01*
X99823088Y-78727832D01*
X99525537Y-78851082D01*
X99257748Y-79030013D01*
X99050000Y-79237761D01*
X98842252Y-79030013D01*
X98574463Y-78851082D01*
X98276912Y-78727832D01*
X97961033Y-78665000D01*
X97638967Y-78665000D01*
X97323088Y-78727832D01*
X97025537Y-78851082D01*
X96757748Y-79030013D01*
X96530013Y-79257748D01*
X96351082Y-79525537D01*
X96227832Y-79823088D01*
X96165000Y-80138967D01*
X86127000Y-80138967D01*
X86127000Y-74898061D01*
X111465000Y-74898061D01*
X111465000Y-75101939D01*
X111504774Y-75301898D01*
X111582795Y-75490256D01*
X111696063Y-75659774D01*
X111840226Y-75803937D01*
X112009744Y-75917205D01*
X112198102Y-75995226D01*
X112398061Y-76035000D01*
X112601939Y-76035000D01*
X112801898Y-75995226D01*
X112990256Y-75917205D01*
X113159774Y-75803937D01*
X113303937Y-75659774D01*
X113343230Y-75600967D01*
X119997000Y-75600967D01*
X119997000Y-75923033D01*
X120059832Y-76238912D01*
X120183082Y-76536463D01*
X120362013Y-76804252D01*
X120589748Y-77031987D01*
X120857537Y-77210918D01*
X121155088Y-77334168D01*
X121470967Y-77397000D01*
X121793033Y-77397000D01*
X122108912Y-77334168D01*
X122406463Y-77210918D01*
X122674252Y-77031987D01*
X122901987Y-76804252D01*
X123080918Y-76536463D01*
X123138246Y-76398061D01*
X132965000Y-76398061D01*
X132965000Y-76601939D01*
X133004774Y-76801898D01*
X133082795Y-76990256D01*
X133196063Y-77159774D01*
X133286289Y-77250000D01*
X133196063Y-77340226D01*
X133082795Y-77509744D01*
X133004774Y-77698102D01*
X132965000Y-77898061D01*
X132965000Y-78101939D01*
X133004774Y-78301898D01*
X133082795Y-78490256D01*
X133196063Y-78659774D01*
X133340226Y-78803937D01*
X133509744Y-78917205D01*
X133698102Y-78995226D01*
X133898061Y-79035000D01*
X134101939Y-79035000D01*
X134301898Y-78995226D01*
X134490256Y-78917205D01*
X134659774Y-78803937D01*
X134725499Y-78738212D01*
X158715000Y-78738212D01*
X158715000Y-78961788D01*
X158758617Y-79181067D01*
X158844176Y-79387624D01*
X158968388Y-79573520D01*
X159126480Y-79731612D01*
X159312376Y-79855824D01*
X159518933Y-79941383D01*
X159738212Y-79985000D01*
X159961788Y-79985000D01*
X160181067Y-79941383D01*
X160387624Y-79855824D01*
X160390742Y-79853740D01*
X173275000Y-79853740D01*
X173275000Y-80146260D01*
X173332068Y-80433158D01*
X173444010Y-80703411D01*
X173606525Y-80946632D01*
X173813368Y-81153475D01*
X174056589Y-81315990D01*
X174326842Y-81427932D01*
X174613740Y-81485000D01*
X174906260Y-81485000D01*
X175193158Y-81427932D01*
X175463411Y-81315990D01*
X175706632Y-81153475D01*
X175838487Y-81021620D01*
X175860498Y-81094180D01*
X175919463Y-81204494D01*
X175998815Y-81301185D01*
X176095506Y-81380537D01*
X176205820Y-81439502D01*
X176325518Y-81475812D01*
X176450000Y-81488072D01*
X177014250Y-81485000D01*
X177173000Y-81326250D01*
X177173000Y-80127000D01*
X177427000Y-80127000D01*
X177427000Y-81326250D01*
X177585750Y-81485000D01*
X178150000Y-81488072D01*
X178274482Y-81475812D01*
X178394180Y-81439502D01*
X178504494Y-81380537D01*
X178601185Y-81301185D01*
X178680537Y-81204494D01*
X178739502Y-81094180D01*
X178775812Y-80974482D01*
X178788072Y-80850000D01*
X178785000Y-80285750D01*
X178626250Y-80127000D01*
X177427000Y-80127000D01*
X177173000Y-80127000D01*
X177153000Y-80127000D01*
X177153000Y-79873000D01*
X177173000Y-79873000D01*
X177173000Y-78673750D01*
X177427000Y-78673750D01*
X177427000Y-79873000D01*
X178626250Y-79873000D01*
X178785000Y-79714250D01*
X178788072Y-79150000D01*
X178775812Y-79025518D01*
X178739502Y-78905820D01*
X178680537Y-78795506D01*
X178601185Y-78698815D01*
X178504494Y-78619463D01*
X178394180Y-78560498D01*
X178274482Y-78524188D01*
X178150000Y-78511928D01*
X177585750Y-78515000D01*
X177427000Y-78673750D01*
X177173000Y-78673750D01*
X177014250Y-78515000D01*
X176450000Y-78511928D01*
X176325518Y-78524188D01*
X176205820Y-78560498D01*
X176095506Y-78619463D01*
X175998815Y-78698815D01*
X175919463Y-78795506D01*
X175860498Y-78905820D01*
X175838487Y-78978380D01*
X175706632Y-78846525D01*
X175463411Y-78684010D01*
X175193158Y-78572068D01*
X174906260Y-78515000D01*
X174613740Y-78515000D01*
X174326842Y-78572068D01*
X174056589Y-78684010D01*
X173813368Y-78846525D01*
X173606525Y-79053368D01*
X173444010Y-79296589D01*
X173332068Y-79566842D01*
X173275000Y-79853740D01*
X160390742Y-79853740D01*
X160573520Y-79731612D01*
X160731612Y-79573520D01*
X160855824Y-79387624D01*
X160941383Y-79181067D01*
X160985000Y-78961788D01*
X160985000Y-78738212D01*
X160941383Y-78518933D01*
X160855824Y-78312376D01*
X160731612Y-78126480D01*
X160573520Y-77968388D01*
X160387624Y-77844176D01*
X160181067Y-77758617D01*
X159961788Y-77715000D01*
X159738212Y-77715000D01*
X159518933Y-77758617D01*
X159312376Y-77844176D01*
X159126480Y-77968388D01*
X158968388Y-78126480D01*
X158844176Y-78312376D01*
X158758617Y-78518933D01*
X158715000Y-78738212D01*
X134725499Y-78738212D01*
X134803937Y-78659774D01*
X134917205Y-78490256D01*
X134995226Y-78301898D01*
X135035000Y-78101939D01*
X135035000Y-77898061D01*
X134995226Y-77698102D01*
X134917205Y-77509744D01*
X134842582Y-77398061D01*
X138465000Y-77398061D01*
X138465000Y-77601939D01*
X138504774Y-77801898D01*
X138582795Y-77990256D01*
X138696063Y-78159774D01*
X138840226Y-78303937D01*
X139009744Y-78417205D01*
X139198102Y-78495226D01*
X139398061Y-78535000D01*
X139601939Y-78535000D01*
X139801898Y-78495226D01*
X139990256Y-78417205D01*
X140159774Y-78303937D01*
X140303937Y-78159774D01*
X140417205Y-77990256D01*
X140495226Y-77801898D01*
X140535000Y-77601939D01*
X140535000Y-77398061D01*
X140495226Y-77198102D01*
X140417205Y-77009744D01*
X140342582Y-76898061D01*
X156465000Y-76898061D01*
X156465000Y-77101939D01*
X156504774Y-77301898D01*
X156582795Y-77490256D01*
X156696063Y-77659774D01*
X156840226Y-77803937D01*
X157009744Y-77917205D01*
X157198102Y-77995226D01*
X157398061Y-78035000D01*
X157601939Y-78035000D01*
X157801898Y-77995226D01*
X157990256Y-77917205D01*
X158159774Y-77803937D01*
X158303937Y-77659774D01*
X158417205Y-77490256D01*
X158495226Y-77301898D01*
X158535000Y-77101939D01*
X158535000Y-76898061D01*
X158495226Y-76698102D01*
X158417205Y-76509744D01*
X158303937Y-76340226D01*
X158159774Y-76196063D01*
X157990256Y-76082795D01*
X157801898Y-76004774D01*
X157601939Y-75965000D01*
X157398061Y-75965000D01*
X157198102Y-76004774D01*
X157009744Y-76082795D01*
X156840226Y-76196063D01*
X156696063Y-76340226D01*
X156582795Y-76509744D01*
X156504774Y-76698102D01*
X156465000Y-76898061D01*
X140342582Y-76898061D01*
X140303937Y-76840226D01*
X140159774Y-76696063D01*
X139990256Y-76582795D01*
X139801898Y-76504774D01*
X139601939Y-76465000D01*
X139398061Y-76465000D01*
X139198102Y-76504774D01*
X139009744Y-76582795D01*
X138840226Y-76696063D01*
X138696063Y-76840226D01*
X138582795Y-77009744D01*
X138504774Y-77198102D01*
X138465000Y-77398061D01*
X134842582Y-77398061D01*
X134803937Y-77340226D01*
X134713711Y-77250000D01*
X134803937Y-77159774D01*
X134917205Y-76990256D01*
X134995226Y-76801898D01*
X135035000Y-76601939D01*
X135035000Y-76398061D01*
X134995226Y-76198102D01*
X134917205Y-76009744D01*
X134803937Y-75840226D01*
X134659774Y-75696063D01*
X134490256Y-75582795D01*
X134301898Y-75504774D01*
X134101939Y-75465000D01*
X133898061Y-75465000D01*
X133698102Y-75504774D01*
X133509744Y-75582795D01*
X133340226Y-75696063D01*
X133196063Y-75840226D01*
X133082795Y-76009744D01*
X133004774Y-76198102D01*
X132965000Y-76398061D01*
X123138246Y-76398061D01*
X123204168Y-76238912D01*
X123267000Y-75923033D01*
X123267000Y-75600967D01*
X123204168Y-75285088D01*
X123080918Y-74987537D01*
X122991518Y-74853740D01*
X138435000Y-74853740D01*
X138435000Y-75146260D01*
X138492068Y-75433158D01*
X138604010Y-75703411D01*
X138766525Y-75946632D01*
X138973368Y-76153475D01*
X139216589Y-76315990D01*
X139486842Y-76427932D01*
X139773740Y-76485000D01*
X140066260Y-76485000D01*
X140353158Y-76427932D01*
X140623411Y-76315990D01*
X140866632Y-76153475D01*
X141073475Y-75946632D01*
X141190000Y-75772240D01*
X141306525Y-75946632D01*
X141513368Y-76153475D01*
X141756589Y-76315990D01*
X142026842Y-76427932D01*
X142313740Y-76485000D01*
X142606260Y-76485000D01*
X142893158Y-76427932D01*
X143163411Y-76315990D01*
X143406632Y-76153475D01*
X143613475Y-75946632D01*
X143730000Y-75772240D01*
X143846525Y-75946632D01*
X144053368Y-76153475D01*
X144296589Y-76315990D01*
X144566842Y-76427932D01*
X144853740Y-76485000D01*
X145146260Y-76485000D01*
X145433158Y-76427932D01*
X145703411Y-76315990D01*
X145946632Y-76153475D01*
X146153475Y-75946632D01*
X146275195Y-75764466D01*
X146344822Y-75881355D01*
X146539731Y-76097588D01*
X146773080Y-76271641D01*
X147035901Y-76396825D01*
X147183110Y-76441476D01*
X147413000Y-76320155D01*
X147413000Y-75127000D01*
X147667000Y-75127000D01*
X147667000Y-76320155D01*
X147896890Y-76441476D01*
X148044099Y-76396825D01*
X148306920Y-76271641D01*
X148540269Y-76097588D01*
X148616034Y-76013534D01*
X148640498Y-76094180D01*
X148699463Y-76204494D01*
X148778815Y-76301185D01*
X148875506Y-76380537D01*
X148985820Y-76439502D01*
X149105518Y-76475812D01*
X149230000Y-76488072D01*
X149794250Y-76485000D01*
X149953000Y-76326250D01*
X149953000Y-75127000D01*
X150207000Y-75127000D01*
X150207000Y-76326250D01*
X150365750Y-76485000D01*
X150930000Y-76488072D01*
X151054482Y-76475812D01*
X151174180Y-76439502D01*
X151284494Y-76380537D01*
X151381185Y-76301185D01*
X151460537Y-76204494D01*
X151519502Y-76094180D01*
X151555812Y-75974482D01*
X151568072Y-75850000D01*
X151566717Y-75600967D01*
X166733000Y-75600967D01*
X166733000Y-75923033D01*
X166795832Y-76238912D01*
X166919082Y-76536463D01*
X167098013Y-76804252D01*
X167325748Y-77031987D01*
X167593537Y-77210918D01*
X167891088Y-77334168D01*
X168206967Y-77397000D01*
X168529033Y-77397000D01*
X168844912Y-77334168D01*
X169142463Y-77210918D01*
X169410252Y-77031987D01*
X169637987Y-76804252D01*
X169816918Y-76536463D01*
X169940168Y-76238912D01*
X169977000Y-76053740D01*
X173275000Y-76053740D01*
X173275000Y-76346260D01*
X173332068Y-76633158D01*
X173444010Y-76903411D01*
X173606525Y-77146632D01*
X173813368Y-77353475D01*
X174056589Y-77515990D01*
X174326842Y-77627932D01*
X174613740Y-77685000D01*
X174906260Y-77685000D01*
X175193158Y-77627932D01*
X175463411Y-77515990D01*
X175706632Y-77353475D01*
X175838487Y-77221620D01*
X175860498Y-77294180D01*
X175919463Y-77404494D01*
X175998815Y-77501185D01*
X176095506Y-77580537D01*
X176205820Y-77639502D01*
X176325518Y-77675812D01*
X176450000Y-77688072D01*
X178150000Y-77688072D01*
X178274482Y-77675812D01*
X178394180Y-77639502D01*
X178504494Y-77580537D01*
X178601185Y-77501185D01*
X178680537Y-77404494D01*
X178739502Y-77294180D01*
X178775812Y-77174482D01*
X178788072Y-77050000D01*
X178788072Y-75350000D01*
X178775812Y-75225518D01*
X178739502Y-75105820D01*
X178680537Y-74995506D01*
X178601185Y-74898815D01*
X178504494Y-74819463D01*
X178394180Y-74760498D01*
X178274482Y-74724188D01*
X178150000Y-74711928D01*
X176450000Y-74711928D01*
X176325518Y-74724188D01*
X176205820Y-74760498D01*
X176095506Y-74819463D01*
X175998815Y-74898815D01*
X175919463Y-74995506D01*
X175860498Y-75105820D01*
X175838487Y-75178380D01*
X175706632Y-75046525D01*
X175463411Y-74884010D01*
X175193158Y-74772068D01*
X174906260Y-74715000D01*
X174613740Y-74715000D01*
X174326842Y-74772068D01*
X174056589Y-74884010D01*
X173813368Y-75046525D01*
X173606525Y-75253368D01*
X173444010Y-75496589D01*
X173332068Y-75766842D01*
X173275000Y-76053740D01*
X169977000Y-76053740D01*
X170003000Y-75923033D01*
X170003000Y-75600967D01*
X169940168Y-75285088D01*
X169816918Y-74987537D01*
X169637987Y-74719748D01*
X169410252Y-74492013D01*
X169142463Y-74313082D01*
X168844912Y-74189832D01*
X168529033Y-74127000D01*
X168206967Y-74127000D01*
X167891088Y-74189832D01*
X167593537Y-74313082D01*
X167325748Y-74492013D01*
X167098013Y-74719748D01*
X166919082Y-74987537D01*
X166795832Y-75285088D01*
X166733000Y-75600967D01*
X151566717Y-75600967D01*
X151565000Y-75285750D01*
X151406250Y-75127000D01*
X150207000Y-75127000D01*
X149953000Y-75127000D01*
X147667000Y-75127000D01*
X147413000Y-75127000D01*
X147393000Y-75127000D01*
X147393000Y-74873000D01*
X147413000Y-74873000D01*
X147413000Y-73679845D01*
X147667000Y-73679845D01*
X147667000Y-74873000D01*
X149953000Y-74873000D01*
X149953000Y-73673750D01*
X150207000Y-73673750D01*
X150207000Y-74873000D01*
X151406250Y-74873000D01*
X151565000Y-74714250D01*
X151568072Y-74150000D01*
X151555812Y-74025518D01*
X151519502Y-73905820D01*
X151460537Y-73795506D01*
X151381185Y-73698815D01*
X151284494Y-73619463D01*
X151174180Y-73560498D01*
X151054482Y-73524188D01*
X150954531Y-73514344D01*
X156415000Y-73514344D01*
X156415000Y-73885656D01*
X156487439Y-74249834D01*
X156629534Y-74592882D01*
X156835825Y-74901618D01*
X157098382Y-75164175D01*
X157407118Y-75370466D01*
X157750166Y-75512561D01*
X158114344Y-75585000D01*
X158485656Y-75585000D01*
X158849834Y-75512561D01*
X159192882Y-75370466D01*
X159501618Y-75164175D01*
X159764175Y-74901618D01*
X159970466Y-74592882D01*
X160112561Y-74249834D01*
X160185000Y-73885656D01*
X160185000Y-73514344D01*
X160112561Y-73150166D01*
X159970466Y-72807118D01*
X159764175Y-72498382D01*
X159619533Y-72353740D01*
X173275000Y-72353740D01*
X173275000Y-72646260D01*
X173332068Y-72933158D01*
X173444010Y-73203411D01*
X173606525Y-73446632D01*
X173813368Y-73653475D01*
X174056589Y-73815990D01*
X174326842Y-73927932D01*
X174613740Y-73985000D01*
X174906260Y-73985000D01*
X175193158Y-73927932D01*
X175463411Y-73815990D01*
X175706632Y-73653475D01*
X175838487Y-73521620D01*
X175860498Y-73594180D01*
X175919463Y-73704494D01*
X175998815Y-73801185D01*
X176095506Y-73880537D01*
X176205820Y-73939502D01*
X176325518Y-73975812D01*
X176450000Y-73988072D01*
X178150000Y-73988072D01*
X178274482Y-73975812D01*
X178394180Y-73939502D01*
X178504494Y-73880537D01*
X178601185Y-73801185D01*
X178680537Y-73704494D01*
X178739502Y-73594180D01*
X178775812Y-73474482D01*
X178788072Y-73350000D01*
X178788072Y-71650000D01*
X178775812Y-71525518D01*
X178739502Y-71405820D01*
X178680537Y-71295506D01*
X178601185Y-71198815D01*
X178504494Y-71119463D01*
X178394180Y-71060498D01*
X178274482Y-71024188D01*
X178150000Y-71011928D01*
X176450000Y-71011928D01*
X176325518Y-71024188D01*
X176205820Y-71060498D01*
X176095506Y-71119463D01*
X175998815Y-71198815D01*
X175919463Y-71295506D01*
X175860498Y-71405820D01*
X175838487Y-71478380D01*
X175706632Y-71346525D01*
X175463411Y-71184010D01*
X175193158Y-71072068D01*
X174906260Y-71015000D01*
X174613740Y-71015000D01*
X174326842Y-71072068D01*
X174056589Y-71184010D01*
X173813368Y-71346525D01*
X173606525Y-71553368D01*
X173444010Y-71796589D01*
X173332068Y-72066842D01*
X173275000Y-72353740D01*
X159619533Y-72353740D01*
X159501618Y-72235825D01*
X159192882Y-72029534D01*
X158849834Y-71887439D01*
X158485656Y-71815000D01*
X158114344Y-71815000D01*
X157750166Y-71887439D01*
X157407118Y-72029534D01*
X157098382Y-72235825D01*
X156835825Y-72498382D01*
X156629534Y-72807118D01*
X156487439Y-73150166D01*
X156415000Y-73514344D01*
X150954531Y-73514344D01*
X150930000Y-73511928D01*
X150365750Y-73515000D01*
X150207000Y-73673750D01*
X149953000Y-73673750D01*
X149794250Y-73515000D01*
X149230000Y-73511928D01*
X149105518Y-73524188D01*
X148985820Y-73560498D01*
X148875506Y-73619463D01*
X148778815Y-73698815D01*
X148699463Y-73795506D01*
X148640498Y-73905820D01*
X148616034Y-73986466D01*
X148540269Y-73902412D01*
X148306920Y-73728359D01*
X148044099Y-73603175D01*
X147896890Y-73558524D01*
X147667000Y-73679845D01*
X147413000Y-73679845D01*
X147183110Y-73558524D01*
X147035901Y-73603175D01*
X146773080Y-73728359D01*
X146539731Y-73902412D01*
X146344822Y-74118645D01*
X146275195Y-74235534D01*
X146153475Y-74053368D01*
X145946632Y-73846525D01*
X145703411Y-73684010D01*
X145433158Y-73572068D01*
X145146260Y-73515000D01*
X144853740Y-73515000D01*
X144566842Y-73572068D01*
X144296589Y-73684010D01*
X144053368Y-73846525D01*
X143846525Y-74053368D01*
X143730000Y-74227760D01*
X143613475Y-74053368D01*
X143406632Y-73846525D01*
X143163411Y-73684010D01*
X142893158Y-73572068D01*
X142606260Y-73515000D01*
X142313740Y-73515000D01*
X142026842Y-73572068D01*
X141756589Y-73684010D01*
X141513368Y-73846525D01*
X141306525Y-74053368D01*
X141190000Y-74227760D01*
X141073475Y-74053368D01*
X140866632Y-73846525D01*
X140623411Y-73684010D01*
X140353158Y-73572068D01*
X140066260Y-73515000D01*
X139773740Y-73515000D01*
X139486842Y-73572068D01*
X139216589Y-73684010D01*
X138973368Y-73846525D01*
X138766525Y-74053368D01*
X138604010Y-74296589D01*
X138492068Y-74566842D01*
X138435000Y-74853740D01*
X122991518Y-74853740D01*
X122901987Y-74719748D01*
X122674252Y-74492013D01*
X122406463Y-74313082D01*
X122108912Y-74189832D01*
X121793033Y-74127000D01*
X121470967Y-74127000D01*
X121155088Y-74189832D01*
X120857537Y-74313082D01*
X120589748Y-74492013D01*
X120362013Y-74719748D01*
X120183082Y-74987537D01*
X120059832Y-75285088D01*
X119997000Y-75600967D01*
X113343230Y-75600967D01*
X113417205Y-75490256D01*
X113495226Y-75301898D01*
X113535000Y-75101939D01*
X113535000Y-74898061D01*
X113495226Y-74698102D01*
X113417205Y-74509744D01*
X113303937Y-74340226D01*
X113159774Y-74196063D01*
X112990256Y-74082795D01*
X112801898Y-74004774D01*
X112601939Y-73965000D01*
X112398061Y-73965000D01*
X112198102Y-74004774D01*
X112009744Y-74082795D01*
X111840226Y-74196063D01*
X111696063Y-74340226D01*
X111582795Y-74509744D01*
X111504774Y-74698102D01*
X111465000Y-74898061D01*
X86127000Y-74898061D01*
X86127000Y-66127000D01*
X112873000Y-66127000D01*
X112873000Y-72000000D01*
%TA.AperFunction,Conductor*%
D25*
G36*
X112873000Y-72000000D02*
G01*
X112875440Y-72024776D01*
X112882667Y-72048601D01*
X112894403Y-72070557D01*
X112910197Y-72089803D01*
X112929443Y-72105597D01*
X112951399Y-72117333D01*
X112975224Y-72124560D01*
X113000000Y-72127000D01*
X117354999Y-72127000D01*
X117354999Y-72136938D01*
X117394773Y-72336897D01*
X117472794Y-72525255D01*
X117586062Y-72694773D01*
X117730225Y-72838936D01*
X117899743Y-72952204D01*
X118088101Y-73030225D01*
X118288060Y-73069999D01*
X118491938Y-73069999D01*
X118691897Y-73030225D01*
X118880255Y-72952204D01*
X119049773Y-72838936D01*
X119193936Y-72694773D01*
X119307204Y-72525255D01*
X119385225Y-72336897D01*
X119424999Y-72136938D01*
X119424999Y-72127000D01*
X143000000Y-72127000D01*
X143024776Y-72124560D01*
X143048601Y-72117333D01*
X143070557Y-72105597D01*
X143089803Y-72089803D01*
X143105597Y-72070557D01*
X143117333Y-72048601D01*
X143124560Y-72024776D01*
X143127000Y-72000000D01*
X143127000Y-67853740D01*
X147735000Y-67853740D01*
X147735000Y-68146260D01*
X147792068Y-68433158D01*
X147904010Y-68703411D01*
X148066525Y-68946632D01*
X148273368Y-69153475D01*
X148516589Y-69315990D01*
X148786842Y-69427932D01*
X149073740Y-69485000D01*
X149366260Y-69485000D01*
X149653158Y-69427932D01*
X149923411Y-69315990D01*
X150166632Y-69153475D01*
X150373475Y-68946632D01*
X150490000Y-68772240D01*
X150606525Y-68946632D01*
X150813368Y-69153475D01*
X151056589Y-69315990D01*
X151326842Y-69427932D01*
X151613740Y-69485000D01*
X151906260Y-69485000D01*
X152193158Y-69427932D01*
X152463411Y-69315990D01*
X152706632Y-69153475D01*
X152913475Y-68946632D01*
X153030000Y-68772240D01*
X153146525Y-68946632D01*
X153353368Y-69153475D01*
X153596589Y-69315990D01*
X153866842Y-69427932D01*
X154153740Y-69485000D01*
X154446260Y-69485000D01*
X154733158Y-69427932D01*
X155003411Y-69315990D01*
X155246632Y-69153475D01*
X155453475Y-68946632D01*
X155570000Y-68772240D01*
X155686525Y-68946632D01*
X155893368Y-69153475D01*
X156136589Y-69315990D01*
X156406842Y-69427932D01*
X156693740Y-69485000D01*
X156986260Y-69485000D01*
X157273158Y-69427932D01*
X157543411Y-69315990D01*
X157786632Y-69153475D01*
X157993475Y-68946632D01*
X158110000Y-68772240D01*
X158226525Y-68946632D01*
X158433368Y-69153475D01*
X158676589Y-69315990D01*
X158946842Y-69427932D01*
X159233740Y-69485000D01*
X159526260Y-69485000D01*
X159813158Y-69427932D01*
X160083411Y-69315990D01*
X160326632Y-69153475D01*
X160533475Y-68946632D01*
X160650000Y-68772240D01*
X160766525Y-68946632D01*
X160973368Y-69153475D01*
X161216589Y-69315990D01*
X161486842Y-69427932D01*
X161773740Y-69485000D01*
X162066260Y-69485000D01*
X162353158Y-69427932D01*
X162623411Y-69315990D01*
X162866632Y-69153475D01*
X163073475Y-68946632D01*
X163190000Y-68772240D01*
X163306525Y-68946632D01*
X163513368Y-69153475D01*
X163756589Y-69315990D01*
X164026842Y-69427932D01*
X164313740Y-69485000D01*
X164606260Y-69485000D01*
X164893158Y-69427932D01*
X165163411Y-69315990D01*
X165406632Y-69153475D01*
X165538487Y-69021620D01*
X165560498Y-69094180D01*
X165619463Y-69204494D01*
X165698815Y-69301185D01*
X165795506Y-69380537D01*
X165905820Y-69439502D01*
X166025518Y-69475812D01*
X166150000Y-69488072D01*
X167850000Y-69488072D01*
X167974482Y-69475812D01*
X168094180Y-69439502D01*
X168204494Y-69380537D01*
X168301185Y-69301185D01*
X168380537Y-69204494D01*
X168439502Y-69094180D01*
X168475812Y-68974482D01*
X168488072Y-68850000D01*
X168488072Y-67150000D01*
X168475812Y-67025518D01*
X168439502Y-66905820D01*
X168380537Y-66795506D01*
X168301185Y-66698815D01*
X168204494Y-66619463D01*
X168094180Y-66560498D01*
X167974482Y-66524188D01*
X167850000Y-66511928D01*
X166150000Y-66511928D01*
X166025518Y-66524188D01*
X165905820Y-66560498D01*
X165795506Y-66619463D01*
X165698815Y-66698815D01*
X165619463Y-66795506D01*
X165560498Y-66905820D01*
X165538487Y-66978380D01*
X165406632Y-66846525D01*
X165163411Y-66684010D01*
X164893158Y-66572068D01*
X164606260Y-66515000D01*
X164313740Y-66515000D01*
X164026842Y-66572068D01*
X163756589Y-66684010D01*
X163513368Y-66846525D01*
X163306525Y-67053368D01*
X163190000Y-67227760D01*
X163073475Y-67053368D01*
X162866632Y-66846525D01*
X162623411Y-66684010D01*
X162353158Y-66572068D01*
X162066260Y-66515000D01*
X161773740Y-66515000D01*
X161486842Y-66572068D01*
X161216589Y-66684010D01*
X160973368Y-66846525D01*
X160766525Y-67053368D01*
X160650000Y-67227760D01*
X160533475Y-67053368D01*
X160326632Y-66846525D01*
X160083411Y-66684010D01*
X159813158Y-66572068D01*
X159526260Y-66515000D01*
X159233740Y-66515000D01*
X158946842Y-66572068D01*
X158676589Y-66684010D01*
X158433368Y-66846525D01*
X158226525Y-67053368D01*
X158110000Y-67227760D01*
X157993475Y-67053368D01*
X157786632Y-66846525D01*
X157543411Y-66684010D01*
X157273158Y-66572068D01*
X156986260Y-66515000D01*
X156693740Y-66515000D01*
X156406842Y-66572068D01*
X156136589Y-66684010D01*
X155893368Y-66846525D01*
X155686525Y-67053368D01*
X155570000Y-67227760D01*
X155453475Y-67053368D01*
X155246632Y-66846525D01*
X155003411Y-66684010D01*
X154733158Y-66572068D01*
X154446260Y-66515000D01*
X154153740Y-66515000D01*
X153866842Y-66572068D01*
X153596589Y-66684010D01*
X153353368Y-66846525D01*
X153146525Y-67053368D01*
X153030000Y-67227760D01*
X152913475Y-67053368D01*
X152706632Y-66846525D01*
X152463411Y-66684010D01*
X152193158Y-66572068D01*
X151906260Y-66515000D01*
X151613740Y-66515000D01*
X151326842Y-66572068D01*
X151056589Y-66684010D01*
X150813368Y-66846525D01*
X150606525Y-67053368D01*
X150490000Y-67227760D01*
X150373475Y-67053368D01*
X150166632Y-66846525D01*
X149923411Y-66684010D01*
X149653158Y-66572068D01*
X149366260Y-66515000D01*
X149073740Y-66515000D01*
X148786842Y-66572068D01*
X148516589Y-66684010D01*
X148273368Y-66846525D01*
X148066525Y-67053368D01*
X147904010Y-67296589D01*
X147792068Y-67566842D01*
X147735000Y-67853740D01*
X143127000Y-67853740D01*
X143127000Y-66127000D01*
X178873000Y-66127000D01*
X178873000Y-84873000D01*
X178745927Y-84873000D01*
X178775812Y-84774482D01*
X178788072Y-84650000D01*
X178785000Y-84085750D01*
X178626250Y-83927000D01*
X177427000Y-83927000D01*
X177427000Y-83947000D01*
X177173000Y-83947000D01*
X177173000Y-83927000D01*
X177153000Y-83927000D01*
X177153000Y-83673000D01*
X177173000Y-83673000D01*
X177173000Y-82473750D01*
X177427000Y-82473750D01*
X177427000Y-83673000D01*
X178626250Y-83673000D01*
X178785000Y-83514250D01*
X178788072Y-82950000D01*
X178775812Y-82825518D01*
X178739502Y-82705820D01*
X178680537Y-82595506D01*
X178601185Y-82498815D01*
X178504494Y-82419463D01*
X178394180Y-82360498D01*
X178274482Y-82324188D01*
X178150000Y-82311928D01*
X177585750Y-82315000D01*
X177427000Y-82473750D01*
X177173000Y-82473750D01*
X177014250Y-82315000D01*
X176450000Y-82311928D01*
X176325518Y-82324188D01*
X176205820Y-82360498D01*
X176095506Y-82419463D01*
X175998815Y-82498815D01*
X175919463Y-82595506D01*
X175860498Y-82705820D01*
X175838487Y-82778380D01*
X175706632Y-82646525D01*
X175463411Y-82484010D01*
X175193158Y-82372068D01*
X174906260Y-82315000D01*
X174613740Y-82315000D01*
X174326842Y-82372068D01*
X174056589Y-82484010D01*
X173813368Y-82646525D01*
X173606525Y-82853368D01*
X173444010Y-83096589D01*
X173332068Y-83366842D01*
X173275000Y-83653740D01*
X173275000Y-83946260D01*
X173332068Y-84233158D01*
X173444010Y-84503411D01*
X173606525Y-84746632D01*
X173732893Y-84873000D01*
X172000000Y-84873000D01*
X171975224Y-84875440D01*
X171951399Y-84882667D01*
X171929443Y-84894403D01*
X171910197Y-84910197D01*
X171894403Y-84929443D01*
X171882667Y-84951399D01*
X171875440Y-84975224D01*
X171873000Y-85000000D01*
X171873000Y-98873000D01*
X169820838Y-98873000D01*
X169816918Y-98863537D01*
X169637987Y-98595748D01*
X169410252Y-98368013D01*
X169142463Y-98189082D01*
X168844912Y-98065832D01*
X168529033Y-98003000D01*
X168206967Y-98003000D01*
X167891088Y-98065832D01*
X167593537Y-98189082D01*
X167325748Y-98368013D01*
X167098013Y-98595748D01*
X166919082Y-98863537D01*
X166915162Y-98873000D01*
X157000000Y-98873000D01*
X156975224Y-98875440D01*
X156951399Y-98882667D01*
X156929443Y-98894403D01*
X156910197Y-98910197D01*
X156894403Y-98929443D01*
X156882667Y-98951399D01*
X156875440Y-98975224D01*
X156873000Y-99000000D01*
X156873000Y-108873000D01*
X86127000Y-108873000D01*
X86127000Y-106369249D01*
X93865000Y-106369249D01*
X93865000Y-107030752D01*
X93881423Y-107197499D01*
X93946324Y-107411447D01*
X94051717Y-107608623D01*
X94193552Y-107781449D01*
X94366378Y-107923284D01*
X94563554Y-108028676D01*
X94777502Y-108093577D01*
X95000000Y-108115491D01*
X95222499Y-108093577D01*
X95436447Y-108028676D01*
X95633623Y-107923284D01*
X95806449Y-107781449D01*
X95948284Y-107608623D01*
X96053676Y-107411446D01*
X96118577Y-107197498D01*
X96135000Y-107030751D01*
X96135000Y-106369249D01*
X100865000Y-106369249D01*
X100865000Y-107030752D01*
X100881423Y-107197499D01*
X100946324Y-107411447D01*
X101051717Y-107608623D01*
X101193552Y-107781449D01*
X101366378Y-107923284D01*
X101563554Y-108028676D01*
X101777502Y-108093577D01*
X102000000Y-108115491D01*
X102222499Y-108093577D01*
X102436447Y-108028676D01*
X102633623Y-107923284D01*
X102806449Y-107781449D01*
X102874883Y-107698061D01*
X110115000Y-107698061D01*
X110115000Y-107901939D01*
X110154774Y-108101898D01*
X110232795Y-108290256D01*
X110346063Y-108459774D01*
X110490226Y-108603937D01*
X110659744Y-108717205D01*
X110848102Y-108795226D01*
X111048061Y-108835000D01*
X111251939Y-108835000D01*
X111451898Y-108795226D01*
X111640256Y-108717205D01*
X111809774Y-108603937D01*
X111953937Y-108459774D01*
X112067205Y-108290256D01*
X112145226Y-108101898D01*
X112185000Y-107901939D01*
X112185000Y-107698061D01*
X112145226Y-107498102D01*
X112067205Y-107309744D01*
X111953937Y-107140226D01*
X111809774Y-106996063D01*
X111640256Y-106882795D01*
X111451898Y-106804774D01*
X111251939Y-106765000D01*
X111048061Y-106765000D01*
X110848102Y-106804774D01*
X110659744Y-106882795D01*
X110490226Y-106996063D01*
X110346063Y-107140226D01*
X110232795Y-107309744D01*
X110154774Y-107498102D01*
X110115000Y-107698061D01*
X102874883Y-107698061D01*
X102948284Y-107608623D01*
X103053676Y-107411446D01*
X103118577Y-107197498D01*
X103135000Y-107030751D01*
X103135000Y-106369248D01*
X103118577Y-106202501D01*
X103053676Y-105988553D01*
X102948284Y-105791377D01*
X102806449Y-105618551D01*
X102633623Y-105476716D01*
X102472650Y-105390675D01*
X129990000Y-105390675D01*
X129990000Y-105609325D01*
X130032657Y-105823775D01*
X130116331Y-106025782D01*
X130237807Y-106207584D01*
X130392416Y-106362193D01*
X130574218Y-106483669D01*
X130776225Y-106567343D01*
X130990675Y-106610000D01*
X131209325Y-106610000D01*
X131423775Y-106567343D01*
X131625782Y-106483669D01*
X131807584Y-106362193D01*
X131962193Y-106207584D01*
X132083669Y-106025782D01*
X132167343Y-105823775D01*
X132210000Y-105609325D01*
X132210000Y-105390675D01*
X136790000Y-105390675D01*
X136790000Y-105609325D01*
X136832657Y-105823775D01*
X136916331Y-106025782D01*
X137037807Y-106207584D01*
X137192416Y-106362193D01*
X137374218Y-106483669D01*
X137576225Y-106567343D01*
X137790675Y-106610000D01*
X138009325Y-106610000D01*
X138223775Y-106567343D01*
X138425782Y-106483669D01*
X138607584Y-106362193D01*
X138762193Y-106207584D01*
X138883669Y-106025782D01*
X138967343Y-105823775D01*
X139010000Y-105609325D01*
X139010000Y-105390675D01*
X138967343Y-105176225D01*
X138883669Y-104974218D01*
X138762193Y-104792416D01*
X138607584Y-104637807D01*
X138425782Y-104516331D01*
X138223775Y-104432657D01*
X138009325Y-104390000D01*
X137790675Y-104390000D01*
X137576225Y-104432657D01*
X137374218Y-104516331D01*
X137192416Y-104637807D01*
X137037807Y-104792416D01*
X136916331Y-104974218D01*
X136832657Y-105176225D01*
X136790000Y-105390675D01*
X132210000Y-105390675D01*
X132167343Y-105176225D01*
X132083669Y-104974218D01*
X131962193Y-104792416D01*
X131807584Y-104637807D01*
X131625782Y-104516331D01*
X131423775Y-104432657D01*
X131209325Y-104390000D01*
X130990675Y-104390000D01*
X130776225Y-104432657D01*
X130574218Y-104516331D01*
X130392416Y-104637807D01*
X130237807Y-104792416D01*
X130116331Y-104974218D01*
X130032657Y-105176225D01*
X129990000Y-105390675D01*
X102472650Y-105390675D01*
X102436446Y-105371324D01*
X102222498Y-105306423D01*
X102000000Y-105284509D01*
X101777501Y-105306423D01*
X101563553Y-105371324D01*
X101366377Y-105476716D01*
X101193551Y-105618551D01*
X101051716Y-105791377D01*
X100946324Y-105988554D01*
X100881423Y-106202502D01*
X100865000Y-106369249D01*
X96135000Y-106369249D01*
X96135000Y-106369248D01*
X96118577Y-106202501D01*
X96053676Y-105988553D01*
X95948284Y-105791377D01*
X95806449Y-105618551D01*
X95633623Y-105476716D01*
X95436446Y-105371324D01*
X95222498Y-105306423D01*
X95000000Y-105284509D01*
X94777501Y-105306423D01*
X94563553Y-105371324D01*
X94366377Y-105476716D01*
X94193551Y-105618551D01*
X94051716Y-105791377D01*
X93946324Y-105988554D01*
X93881423Y-106202502D01*
X93865000Y-106369249D01*
X86127000Y-106369249D01*
X86127000Y-104000000D01*
X94734630Y-104000000D01*
X94756062Y-104217598D01*
X94819532Y-104426834D01*
X94922604Y-104619666D01*
X95061314Y-104788686D01*
X95230334Y-104927396D01*
X95423166Y-105030468D01*
X95632402Y-105093938D01*
X95795479Y-105110000D01*
X96204521Y-105110000D01*
X96367598Y-105093938D01*
X96576834Y-105030468D01*
X96769666Y-104927396D01*
X96938686Y-104788686D01*
X97077396Y-104619666D01*
X97180468Y-104426834D01*
X97243938Y-104217598D01*
X97265370Y-104000000D01*
X99734630Y-104000000D01*
X99756062Y-104217598D01*
X99819532Y-104426834D01*
X99922604Y-104619666D01*
X100061314Y-104788686D01*
X100230334Y-104927396D01*
X100423166Y-105030468D01*
X100632402Y-105093938D01*
X100795479Y-105110000D01*
X101204521Y-105110000D01*
X101367598Y-105093938D01*
X101576834Y-105030468D01*
X101769666Y-104927396D01*
X101938686Y-104788686D01*
X102077396Y-104619666D01*
X102180468Y-104426834D01*
X102243938Y-104217598D01*
X102265370Y-104000000D01*
X102243938Y-103782402D01*
X102190155Y-103605098D01*
X145955000Y-103605098D01*
X145955000Y-104074902D01*
X146046654Y-104535679D01*
X146226440Y-104969721D01*
X146487450Y-105360349D01*
X146819651Y-105692550D01*
X147210279Y-105953560D01*
X147644321Y-106133346D01*
X148105098Y-106225000D01*
X148574902Y-106225000D01*
X149035679Y-106133346D01*
X149469721Y-105953560D01*
X149860349Y-105692550D01*
X150192550Y-105360349D01*
X150453560Y-104969721D01*
X150633346Y-104535679D01*
X150725000Y-104074902D01*
X150725000Y-103605098D01*
X150633346Y-103144321D01*
X150453560Y-102710279D01*
X150192550Y-102319651D01*
X149860349Y-101987450D01*
X149469721Y-101726440D01*
X149035679Y-101546654D01*
X148574902Y-101455000D01*
X148105098Y-101455000D01*
X147644321Y-101546654D01*
X147210279Y-101726440D01*
X146819651Y-101987450D01*
X146487450Y-102319651D01*
X146226440Y-102710279D01*
X146046654Y-103144321D01*
X145955000Y-103605098D01*
X102190155Y-103605098D01*
X102180468Y-103573166D01*
X102077396Y-103380334D01*
X101938686Y-103211314D01*
X101769666Y-103072604D01*
X101576834Y-102969532D01*
X101367598Y-102906062D01*
X101204521Y-102890000D01*
X100795479Y-102890000D01*
X100632402Y-102906062D01*
X100423166Y-102969532D01*
X100230334Y-103072604D01*
X100061314Y-103211314D01*
X99922604Y-103380334D01*
X99819532Y-103573166D01*
X99756062Y-103782402D01*
X99734630Y-104000000D01*
X97265370Y-104000000D01*
X97243938Y-103782402D01*
X97180468Y-103573166D01*
X97077396Y-103380334D01*
X96938686Y-103211314D01*
X96769666Y-103072604D01*
X96576834Y-102969532D01*
X96367598Y-102906062D01*
X96204521Y-102890000D01*
X95795479Y-102890000D01*
X95632402Y-102906062D01*
X95423166Y-102969532D01*
X95230334Y-103072604D01*
X95061314Y-103211314D01*
X94922604Y-103380334D01*
X94819532Y-103573166D01*
X94756062Y-103782402D01*
X94734630Y-104000000D01*
X86127000Y-104000000D01*
X86127000Y-102298061D01*
X110265000Y-102298061D01*
X110265000Y-102501939D01*
X110304774Y-102701898D01*
X110382795Y-102890256D01*
X110496063Y-103059774D01*
X110640226Y-103203937D01*
X110809744Y-103317205D01*
X110998102Y-103395226D01*
X111198061Y-103435000D01*
X111401939Y-103435000D01*
X111601898Y-103395226D01*
X111790256Y-103317205D01*
X111959774Y-103203937D01*
X112103937Y-103059774D01*
X112217205Y-102890256D01*
X112295226Y-102701898D01*
X112335000Y-102501939D01*
X112335000Y-102298061D01*
X112295226Y-102098102D01*
X112217205Y-101909744D01*
X112103937Y-101740226D01*
X111959774Y-101596063D01*
X111790256Y-101482795D01*
X111601898Y-101404774D01*
X111401939Y-101365000D01*
X111198061Y-101365000D01*
X110998102Y-101404774D01*
X110809744Y-101482795D01*
X110640226Y-101596063D01*
X110496063Y-101740226D01*
X110382795Y-101909744D01*
X110304774Y-102098102D01*
X110265000Y-102298061D01*
X86127000Y-102298061D01*
X86127000Y-100343192D01*
X113310131Y-100343192D01*
X113310131Y-100547070D01*
X113349905Y-100747029D01*
X113427926Y-100935387D01*
X113541194Y-101104905D01*
X113685357Y-101249068D01*
X113854875Y-101362336D01*
X114043233Y-101440357D01*
X114243192Y-101480131D01*
X114447070Y-101480131D01*
X114647029Y-101440357D01*
X114835387Y-101362336D01*
X115004905Y-101249068D01*
X115149068Y-101104905D01*
X115262336Y-100935387D01*
X115340357Y-100747029D01*
X115380131Y-100547070D01*
X115380131Y-100343192D01*
X115340357Y-100143233D01*
X115262336Y-99954875D01*
X115149068Y-99785357D01*
X115004905Y-99641194D01*
X114835387Y-99527926D01*
X114647029Y-99449905D01*
X114447070Y-99410131D01*
X114243192Y-99410131D01*
X114043233Y-99449905D01*
X113854875Y-99527926D01*
X113685357Y-99641194D01*
X113541194Y-99785357D01*
X113427926Y-99954875D01*
X113349905Y-100143233D01*
X113310131Y-100343192D01*
X86127000Y-100343192D01*
X86127000Y-98898061D01*
X114965000Y-98898061D01*
X114965000Y-99101939D01*
X115004774Y-99301898D01*
X115082795Y-99490256D01*
X115196063Y-99659774D01*
X115340226Y-99803937D01*
X115509744Y-99917205D01*
X115698102Y-99995226D01*
X115898061Y-100035000D01*
X116101939Y-100035000D01*
X116111430Y-100033112D01*
X116167722Y-100117358D01*
X116009744Y-100182795D01*
X115840226Y-100296063D01*
X115696063Y-100440226D01*
X115582795Y-100609744D01*
X115504774Y-100798102D01*
X115465000Y-100998061D01*
X115465000Y-101201939D01*
X115504774Y-101401898D01*
X115582795Y-101590256D01*
X115696063Y-101759774D01*
X115840226Y-101903937D01*
X116009744Y-102017205D01*
X116198102Y-102095226D01*
X116398061Y-102135000D01*
X116601939Y-102135000D01*
X116801898Y-102095226D01*
X116990256Y-102017205D01*
X117159774Y-101903937D01*
X117303937Y-101759774D01*
X117417205Y-101590256D01*
X117495226Y-101401898D01*
X117535000Y-101201939D01*
X117535000Y-100998061D01*
X117495226Y-100798102D01*
X117417205Y-100609744D01*
X117332278Y-100482642D01*
X117490256Y-100417205D01*
X117659774Y-100303937D01*
X117803937Y-100159774D01*
X117917205Y-99990256D01*
X117995226Y-99801898D01*
X118035000Y-99601939D01*
X118035000Y-99476967D01*
X119997000Y-99476967D01*
X119997000Y-99799033D01*
X120059832Y-100114912D01*
X120183082Y-100412463D01*
X120362013Y-100680252D01*
X120589748Y-100907987D01*
X120857537Y-101086918D01*
X121155088Y-101210168D01*
X121470967Y-101273000D01*
X121793033Y-101273000D01*
X122108912Y-101210168D01*
X122406463Y-101086918D01*
X122674252Y-100907987D01*
X122901987Y-100680252D01*
X123080918Y-100412463D01*
X123204168Y-100114912D01*
X123267000Y-99799033D01*
X123267000Y-99476967D01*
X123204168Y-99161088D01*
X123080918Y-98863537D01*
X122901987Y-98595748D01*
X122674252Y-98368013D01*
X122406463Y-98189082D01*
X122108912Y-98065832D01*
X121793033Y-98003000D01*
X121470967Y-98003000D01*
X121155088Y-98065832D01*
X120857537Y-98189082D01*
X120589748Y-98368013D01*
X120362013Y-98595748D01*
X120183082Y-98863537D01*
X120059832Y-99161088D01*
X119997000Y-99476967D01*
X118035000Y-99476967D01*
X118035000Y-99398061D01*
X117995226Y-99198102D01*
X117917205Y-99009744D01*
X117803937Y-98840226D01*
X117659774Y-98696063D01*
X117490256Y-98582795D01*
X117301898Y-98504774D01*
X117101939Y-98465000D01*
X116898061Y-98465000D01*
X116888570Y-98466888D01*
X116803937Y-98340226D01*
X116659774Y-98196063D01*
X116490256Y-98082795D01*
X116301898Y-98004774D01*
X116101939Y-97965000D01*
X115898061Y-97965000D01*
X115698102Y-98004774D01*
X115509744Y-98082795D01*
X115340226Y-98196063D01*
X115196063Y-98340226D01*
X115082795Y-98509744D01*
X115004774Y-98698102D01*
X114965000Y-98898061D01*
X86127000Y-98898061D01*
X86127000Y-97148061D01*
X123865000Y-97148061D01*
X123865000Y-97351939D01*
X123904774Y-97551898D01*
X123982795Y-97740256D01*
X124096063Y-97909774D01*
X124240226Y-98053937D01*
X124409744Y-98167205D01*
X124598102Y-98245226D01*
X124798061Y-98285000D01*
X125001939Y-98285000D01*
X125201898Y-98245226D01*
X125390256Y-98167205D01*
X125559774Y-98053937D01*
X125703937Y-97909774D01*
X125817205Y-97740256D01*
X125895226Y-97551898D01*
X125935000Y-97351939D01*
X125935000Y-97148061D01*
X125895226Y-96948102D01*
X125817205Y-96759744D01*
X125703937Y-96590226D01*
X125559774Y-96446063D01*
X125390256Y-96332795D01*
X125201898Y-96254774D01*
X125001939Y-96215000D01*
X124798061Y-96215000D01*
X124598102Y-96254774D01*
X124409744Y-96332795D01*
X124240226Y-96446063D01*
X124096063Y-96590226D01*
X123982795Y-96759744D01*
X123904774Y-96948102D01*
X123865000Y-97148061D01*
X86127000Y-97148061D01*
X86127000Y-95935413D01*
X96844192Y-95935413D01*
X96939956Y-96199814D01*
X97229571Y-96340704D01*
X97541108Y-96422384D01*
X97862595Y-96441718D01*
X98181675Y-96397961D01*
X98486088Y-96292795D01*
X98660044Y-96199814D01*
X98755808Y-95935413D01*
X97800000Y-94979605D01*
X96844192Y-95935413D01*
X86127000Y-95935413D01*
X86127000Y-94862595D01*
X96158282Y-94862595D01*
X96202039Y-95181675D01*
X96307205Y-95486088D01*
X96400186Y-95660044D01*
X96664587Y-95755808D01*
X97620395Y-94800000D01*
X97979605Y-94800000D01*
X98935413Y-95755808D01*
X99199814Y-95660044D01*
X99340704Y-95370429D01*
X99422384Y-95058892D01*
X99441718Y-94737405D01*
X99428219Y-94638967D01*
X101165000Y-94638967D01*
X101165000Y-94961033D01*
X101227832Y-95276912D01*
X101351082Y-95574463D01*
X101530013Y-95842252D01*
X101757748Y-96069987D01*
X102025537Y-96248918D01*
X102323088Y-96372168D01*
X102638967Y-96435000D01*
X102961033Y-96435000D01*
X103276912Y-96372168D01*
X103574463Y-96248918D01*
X103842252Y-96069987D01*
X104069987Y-95842252D01*
X104248918Y-95574463D01*
X104372168Y-95276912D01*
X104435000Y-94961033D01*
X104435000Y-94638967D01*
X104387082Y-94398061D01*
X118465000Y-94398061D01*
X118465000Y-94601939D01*
X118504774Y-94801898D01*
X118582795Y-94990256D01*
X118696063Y-95159774D01*
X118840226Y-95303937D01*
X119009744Y-95417205D01*
X119198102Y-95495226D01*
X119398061Y-95535000D01*
X119601939Y-95535000D01*
X119801898Y-95495226D01*
X119990256Y-95417205D01*
X120159774Y-95303937D01*
X120303937Y-95159774D01*
X120417205Y-94990256D01*
X120495226Y-94801898D01*
X120535000Y-94601939D01*
X120535000Y-94398061D01*
X120495226Y-94198102D01*
X120417205Y-94009744D01*
X120303937Y-93840226D01*
X120159774Y-93696063D01*
X119990256Y-93582795D01*
X119801898Y-93504774D01*
X119601939Y-93465000D01*
X119398061Y-93465000D01*
X119198102Y-93504774D01*
X119009744Y-93582795D01*
X118840226Y-93696063D01*
X118696063Y-93840226D01*
X118582795Y-94009744D01*
X118504774Y-94198102D01*
X118465000Y-94398061D01*
X104387082Y-94398061D01*
X104372168Y-94323088D01*
X104248918Y-94025537D01*
X104069987Y-93757748D01*
X103842252Y-93530013D01*
X103574463Y-93351082D01*
X103276912Y-93227832D01*
X102961033Y-93165000D01*
X102638967Y-93165000D01*
X102323088Y-93227832D01*
X102025537Y-93351082D01*
X101757748Y-93530013D01*
X101530013Y-93757748D01*
X101351082Y-94025537D01*
X101227832Y-94323088D01*
X101165000Y-94638967D01*
X99428219Y-94638967D01*
X99397961Y-94418325D01*
X99292795Y-94113912D01*
X99199814Y-93939956D01*
X98935413Y-93844192D01*
X97979605Y-94800000D01*
X97620395Y-94800000D01*
X96664587Y-93844192D01*
X96400186Y-93939956D01*
X96259296Y-94229571D01*
X96177616Y-94541108D01*
X96158282Y-94862595D01*
X86127000Y-94862595D01*
X86127000Y-93664587D01*
X96844192Y-93664587D01*
X97800000Y-94620395D01*
X98755808Y-93664587D01*
X98660044Y-93400186D01*
X98370429Y-93259296D01*
X98058892Y-93177616D01*
X97737405Y-93158282D01*
X97418325Y-93202039D01*
X97113912Y-93307205D01*
X96939956Y-93400186D01*
X96844192Y-93664587D01*
X86127000Y-93664587D01*
X86127000Y-91898061D01*
X108965000Y-91898061D01*
X108965000Y-92101939D01*
X109004774Y-92301898D01*
X109082795Y-92490256D01*
X109196063Y-92659774D01*
X109340226Y-92803937D01*
X109509744Y-92917205D01*
X109698102Y-92995226D01*
X109898061Y-93035000D01*
X110101939Y-93035000D01*
X110301898Y-92995226D01*
X110490256Y-92917205D01*
X110659774Y-92803937D01*
X110803937Y-92659774D01*
X110917205Y-92490256D01*
X110934682Y-92448061D01*
X121315000Y-92448061D01*
X121315000Y-92651939D01*
X121354774Y-92851898D01*
X121432795Y-93040256D01*
X121546063Y-93209774D01*
X121690226Y-93353937D01*
X121859744Y-93467205D01*
X122048102Y-93545226D01*
X122248061Y-93585000D01*
X122451939Y-93585000D01*
X122651898Y-93545226D01*
X122840256Y-93467205D01*
X123009774Y-93353937D01*
X123153937Y-93209774D01*
X123267205Y-93040256D01*
X123345226Y-92851898D01*
X123385000Y-92651939D01*
X123385000Y-92448061D01*
X123345226Y-92248102D01*
X123267205Y-92059744D01*
X123153937Y-91890226D01*
X123009774Y-91746063D01*
X122840256Y-91632795D01*
X122651898Y-91554774D01*
X122451939Y-91515000D01*
X122248061Y-91515000D01*
X122048102Y-91554774D01*
X121859744Y-91632795D01*
X121690226Y-91746063D01*
X121546063Y-91890226D01*
X121432795Y-92059744D01*
X121354774Y-92248102D01*
X121315000Y-92448061D01*
X110934682Y-92448061D01*
X110995226Y-92301898D01*
X111035000Y-92101939D01*
X111035000Y-91898061D01*
X110995226Y-91698102D01*
X110917205Y-91509744D01*
X110803937Y-91340226D01*
X110659774Y-91196063D01*
X110490256Y-91082795D01*
X110301898Y-91004774D01*
X110101939Y-90965000D01*
X109898061Y-90965000D01*
X109698102Y-91004774D01*
X109509744Y-91082795D01*
X109340226Y-91196063D01*
X109196063Y-91340226D01*
X109082795Y-91509744D01*
X109004774Y-91698102D01*
X108965000Y-91898061D01*
X86127000Y-91898061D01*
X86127000Y-90898061D01*
X134965000Y-90898061D01*
X134965000Y-91101939D01*
X135004774Y-91301898D01*
X135082795Y-91490256D01*
X135196063Y-91659774D01*
X135340226Y-91803937D01*
X135509744Y-91917205D01*
X135638465Y-91970523D01*
X135600600Y-92027193D01*
X135522579Y-92215551D01*
X135482805Y-92415510D01*
X135482805Y-92619388D01*
X135522579Y-92819347D01*
X135600600Y-93007705D01*
X135713868Y-93177223D01*
X135858031Y-93321386D01*
X136027549Y-93434654D01*
X136215907Y-93512675D01*
X136415866Y-93552449D01*
X136619744Y-93552449D01*
X136819703Y-93512675D01*
X137008061Y-93434654D01*
X137177579Y-93321386D01*
X137321742Y-93177223D01*
X137435010Y-93007705D01*
X137513031Y-92819347D01*
X137552805Y-92619388D01*
X137552805Y-92415510D01*
X137513031Y-92215551D01*
X137505787Y-92198061D01*
X150065000Y-92198061D01*
X150065000Y-92401939D01*
X150104774Y-92601898D01*
X150182795Y-92790256D01*
X150296063Y-92959774D01*
X150440226Y-93103937D01*
X150609744Y-93217205D01*
X150798102Y-93295226D01*
X150998061Y-93335000D01*
X151201939Y-93335000D01*
X151401898Y-93295226D01*
X151590256Y-93217205D01*
X151759774Y-93103937D01*
X151903937Y-92959774D01*
X152017205Y-92790256D01*
X152089798Y-92615000D01*
X156576928Y-92615000D01*
X156576928Y-94785000D01*
X156589188Y-94909482D01*
X156625498Y-95029180D01*
X156684463Y-95139494D01*
X156763815Y-95236185D01*
X156860506Y-95315537D01*
X156970820Y-95374502D01*
X157090518Y-95410812D01*
X157215000Y-95423072D01*
X159385000Y-95423072D01*
X159509482Y-95410812D01*
X159629180Y-95374502D01*
X159739494Y-95315537D01*
X159836185Y-95236185D01*
X159915537Y-95139494D01*
X159974502Y-95029180D01*
X160010812Y-94909482D01*
X160023072Y-94785000D01*
X160023072Y-92615000D01*
X160010812Y-92490518D01*
X159974502Y-92370820D01*
X159915537Y-92260506D01*
X159836185Y-92163815D01*
X159739494Y-92084463D01*
X159629180Y-92025498D01*
X159509482Y-91989188D01*
X159385000Y-91976928D01*
X157215000Y-91976928D01*
X157090518Y-91989188D01*
X156970820Y-92025498D01*
X156860506Y-92084463D01*
X156763815Y-92163815D01*
X156684463Y-92260506D01*
X156625498Y-92370820D01*
X156589188Y-92490518D01*
X156576928Y-92615000D01*
X152089798Y-92615000D01*
X152095226Y-92601898D01*
X152135000Y-92401939D01*
X152135000Y-92198061D01*
X152095226Y-91998102D01*
X152017205Y-91809744D01*
X151903937Y-91640226D01*
X151759774Y-91496063D01*
X151590256Y-91382795D01*
X151401898Y-91304774D01*
X151201939Y-91265000D01*
X150998061Y-91265000D01*
X150798102Y-91304774D01*
X150609744Y-91382795D01*
X150440226Y-91496063D01*
X150296063Y-91640226D01*
X150182795Y-91809744D01*
X150104774Y-91998102D01*
X150065000Y-92198061D01*
X137505787Y-92198061D01*
X137435010Y-92027193D01*
X137321742Y-91857675D01*
X137177579Y-91713512D01*
X137008061Y-91600244D01*
X136879340Y-91546926D01*
X136917205Y-91490256D01*
X136995226Y-91301898D01*
X137035000Y-91101939D01*
X137035000Y-90898061D01*
X136995226Y-90698102D01*
X136917205Y-90509744D01*
X136803937Y-90340226D01*
X136659774Y-90196063D01*
X136490256Y-90082795D01*
X136301898Y-90004774D01*
X136101939Y-89965000D01*
X135898061Y-89965000D01*
X135698102Y-90004774D01*
X135509744Y-90082795D01*
X135340226Y-90196063D01*
X135196063Y-90340226D01*
X135082795Y-90509744D01*
X135004774Y-90698102D01*
X134965000Y-90898061D01*
X86127000Y-90898061D01*
X86127000Y-86000000D01*
X92561928Y-86000000D01*
X92561928Y-89600000D01*
X92574188Y-89724482D01*
X92610498Y-89844180D01*
X92669463Y-89954494D01*
X92748815Y-90051185D01*
X92845506Y-90130537D01*
X92955820Y-90189502D01*
X93075518Y-90225812D01*
X93200000Y-90238072D01*
X96000000Y-90238072D01*
X96124482Y-90225812D01*
X96244180Y-90189502D01*
X96354494Y-90130537D01*
X96451185Y-90051185D01*
X96530537Y-89954494D01*
X96589502Y-89844180D01*
X96625812Y-89724482D01*
X96638072Y-89600000D01*
X96638072Y-86000000D01*
X103961928Y-86000000D01*
X103961928Y-89600000D01*
X103974188Y-89724482D01*
X104010498Y-89844180D01*
X104069463Y-89954494D01*
X104148815Y-90051185D01*
X104245506Y-90130537D01*
X104355820Y-90189502D01*
X104475518Y-90225812D01*
X104600000Y-90238072D01*
X107400000Y-90238072D01*
X107524482Y-90225812D01*
X107644180Y-90189502D01*
X107754494Y-90130537D01*
X107851185Y-90051185D01*
X107930537Y-89954494D01*
X107960701Y-89898061D01*
X138465000Y-89898061D01*
X138465000Y-90101939D01*
X138504774Y-90301898D01*
X138582795Y-90490256D01*
X138696063Y-90659774D01*
X138840226Y-90803937D01*
X139009744Y-90917205D01*
X139198102Y-90995226D01*
X139398061Y-91035000D01*
X139601939Y-91035000D01*
X139801898Y-90995226D01*
X139990256Y-90917205D01*
X140159774Y-90803937D01*
X140303937Y-90659774D01*
X140398626Y-90518061D01*
X155245000Y-90518061D01*
X155245000Y-90721939D01*
X155284774Y-90921898D01*
X155362795Y-91110256D01*
X155476063Y-91279774D01*
X155620226Y-91423937D01*
X155789744Y-91537205D01*
X155978102Y-91615226D01*
X156178061Y-91655000D01*
X156381939Y-91655000D01*
X156581898Y-91615226D01*
X156770256Y-91537205D01*
X156939774Y-91423937D01*
X157083937Y-91279774D01*
X157197205Y-91110256D01*
X157275226Y-90921898D01*
X157315000Y-90721939D01*
X157315000Y-90518061D01*
X157275226Y-90318102D01*
X157197205Y-90129744D01*
X157083937Y-89960226D01*
X156939774Y-89816063D01*
X156770256Y-89702795D01*
X156581898Y-89624774D01*
X156381939Y-89585000D01*
X156178061Y-89585000D01*
X155978102Y-89624774D01*
X155789744Y-89702795D01*
X155620226Y-89816063D01*
X155476063Y-89960226D01*
X155362795Y-90129744D01*
X155284774Y-90318102D01*
X155245000Y-90518061D01*
X140398626Y-90518061D01*
X140417205Y-90490256D01*
X140495226Y-90301898D01*
X140535000Y-90101939D01*
X140535000Y-89898061D01*
X140495226Y-89698102D01*
X140417205Y-89509744D01*
X140303937Y-89340226D01*
X140159774Y-89196063D01*
X139990256Y-89082795D01*
X139801898Y-89004774D01*
X139601939Y-88965000D01*
X139398061Y-88965000D01*
X139198102Y-89004774D01*
X139009744Y-89082795D01*
X138840226Y-89196063D01*
X138696063Y-89340226D01*
X138582795Y-89509744D01*
X138504774Y-89698102D01*
X138465000Y-89898061D01*
X107960701Y-89898061D01*
X107989502Y-89844180D01*
X108025812Y-89724482D01*
X108038072Y-89600000D01*
X108038072Y-86898061D01*
X120965000Y-86898061D01*
X120965000Y-87101939D01*
X121004774Y-87301898D01*
X121082795Y-87490256D01*
X121196063Y-87659774D01*
X121340226Y-87803937D01*
X121509744Y-87917205D01*
X121698102Y-87995226D01*
X121898061Y-88035000D01*
X122101939Y-88035000D01*
X122301898Y-87995226D01*
X122490256Y-87917205D01*
X122518907Y-87898061D01*
X124465000Y-87898061D01*
X124465000Y-88101939D01*
X124504774Y-88301898D01*
X124582795Y-88490256D01*
X124696063Y-88659774D01*
X124840226Y-88803937D01*
X125009744Y-88917205D01*
X125198102Y-88995226D01*
X125398061Y-89035000D01*
X125601939Y-89035000D01*
X125801898Y-88995226D01*
X125990256Y-88917205D01*
X126159774Y-88803937D01*
X126303937Y-88659774D01*
X126417205Y-88490256D01*
X126459602Y-88387900D01*
X126522397Y-88429858D01*
X126710755Y-88507879D01*
X126910714Y-88547653D01*
X127114592Y-88547653D01*
X127314551Y-88507879D01*
X127502909Y-88429858D01*
X127672427Y-88316590D01*
X127816590Y-88172427D01*
X127929858Y-88002909D01*
X128007879Y-87814551D01*
X128047653Y-87614592D01*
X128047653Y-87410714D01*
X128045626Y-87400522D01*
X128082795Y-87490256D01*
X128196063Y-87659774D01*
X128340226Y-87803937D01*
X128509744Y-87917205D01*
X128698102Y-87995226D01*
X128898061Y-88035000D01*
X129101939Y-88035000D01*
X129301898Y-87995226D01*
X129490256Y-87917205D01*
X129659774Y-87803937D01*
X129803937Y-87659774D01*
X129917205Y-87490256D01*
X129995226Y-87301898D01*
X130035000Y-87101939D01*
X130035000Y-87048061D01*
X131065000Y-87048061D01*
X131065000Y-87251939D01*
X131104774Y-87451898D01*
X131182795Y-87640256D01*
X131296063Y-87809774D01*
X131440226Y-87953937D01*
X131609744Y-88067205D01*
X131798102Y-88145226D01*
X131998061Y-88185000D01*
X132201939Y-88185000D01*
X132401898Y-88145226D01*
X132552519Y-88082836D01*
X132504774Y-88198102D01*
X132465000Y-88398061D01*
X132465000Y-88601939D01*
X132504774Y-88801898D01*
X132582795Y-88990256D01*
X132696063Y-89159774D01*
X132840226Y-89303937D01*
X133009744Y-89417205D01*
X133198102Y-89495226D01*
X133398061Y-89535000D01*
X133601939Y-89535000D01*
X133801898Y-89495226D01*
X133990256Y-89417205D01*
X134159774Y-89303937D01*
X134303937Y-89159774D01*
X134417205Y-88990256D01*
X134495226Y-88801898D01*
X134535000Y-88601939D01*
X134535000Y-88398061D01*
X134495226Y-88198102D01*
X134433077Y-88048061D01*
X159965000Y-88048061D01*
X159965000Y-88251939D01*
X160004774Y-88451898D01*
X160082795Y-88640256D01*
X160196063Y-88809774D01*
X160340226Y-88953937D01*
X160509744Y-89067205D01*
X160698102Y-89145226D01*
X160898061Y-89185000D01*
X161101939Y-89185000D01*
X161301898Y-89145226D01*
X161490256Y-89067205D01*
X161659774Y-88953937D01*
X161803937Y-88809774D01*
X161917205Y-88640256D01*
X161995226Y-88451898D01*
X162035000Y-88251939D01*
X162035000Y-88048061D01*
X161995226Y-87848102D01*
X161917205Y-87659744D01*
X161803937Y-87490226D01*
X161659774Y-87346063D01*
X161490256Y-87232795D01*
X161301898Y-87154774D01*
X161101939Y-87115000D01*
X160898061Y-87115000D01*
X160698102Y-87154774D01*
X160509744Y-87232795D01*
X160340226Y-87346063D01*
X160196063Y-87490226D01*
X160082795Y-87659744D01*
X160004774Y-87848102D01*
X159965000Y-88048061D01*
X134433077Y-88048061D01*
X134417205Y-88009744D01*
X134303937Y-87840226D01*
X134159774Y-87696063D01*
X133990256Y-87582795D01*
X133801898Y-87504774D01*
X133601939Y-87465000D01*
X133398061Y-87465000D01*
X133198102Y-87504774D01*
X133047481Y-87567164D01*
X133095226Y-87451898D01*
X133135000Y-87251939D01*
X133135000Y-87048061D01*
X133095226Y-86848102D01*
X133017205Y-86659744D01*
X132903937Y-86490226D01*
X132759774Y-86346063D01*
X132590256Y-86232795D01*
X132401898Y-86154774D01*
X132201939Y-86115000D01*
X131998061Y-86115000D01*
X131798102Y-86154774D01*
X131609744Y-86232795D01*
X131440226Y-86346063D01*
X131296063Y-86490226D01*
X131182795Y-86659744D01*
X131104774Y-86848102D01*
X131065000Y-87048061D01*
X130035000Y-87048061D01*
X130035000Y-86898061D01*
X129995226Y-86698102D01*
X129917205Y-86509744D01*
X129803937Y-86340226D01*
X129659774Y-86196063D01*
X129490256Y-86082795D01*
X129301898Y-86004774D01*
X129101939Y-85965000D01*
X128898061Y-85965000D01*
X128698102Y-86004774D01*
X128509744Y-86082795D01*
X128340226Y-86196063D01*
X128196063Y-86340226D01*
X128082795Y-86509744D01*
X128004774Y-86698102D01*
X127965000Y-86898061D01*
X127965000Y-87101939D01*
X127967027Y-87112131D01*
X127929858Y-87022397D01*
X127816590Y-86852879D01*
X127672427Y-86708716D01*
X127502909Y-86595448D01*
X127314551Y-86517427D01*
X127114592Y-86477653D01*
X126910714Y-86477653D01*
X126710755Y-86517427D01*
X126522397Y-86595448D01*
X126352879Y-86708716D01*
X126208716Y-86852879D01*
X126095448Y-87022397D01*
X126053051Y-87124753D01*
X125990256Y-87082795D01*
X125801898Y-87004774D01*
X125601939Y-86965000D01*
X125398061Y-86965000D01*
X125198102Y-87004774D01*
X125009744Y-87082795D01*
X124840226Y-87196063D01*
X124696063Y-87340226D01*
X124582795Y-87509744D01*
X124504774Y-87698102D01*
X124465000Y-87898061D01*
X122518907Y-87898061D01*
X122659774Y-87803937D01*
X122803937Y-87659774D01*
X122917205Y-87490256D01*
X122995226Y-87301898D01*
X123035000Y-87101939D01*
X123035000Y-86898061D01*
X122995226Y-86698102D01*
X122917205Y-86509744D01*
X122803937Y-86340226D01*
X122659774Y-86196063D01*
X122490256Y-86082795D01*
X122301898Y-86004774D01*
X122101939Y-85965000D01*
X121898061Y-85965000D01*
X121698102Y-86004774D01*
X121509744Y-86082795D01*
X121340226Y-86196063D01*
X121196063Y-86340226D01*
X121082795Y-86509744D01*
X121004774Y-86698102D01*
X120965000Y-86898061D01*
X108038072Y-86898061D01*
X108038072Y-86000000D01*
X108025812Y-85875518D01*
X107989502Y-85755820D01*
X107930537Y-85645506D01*
X107851185Y-85548815D01*
X107754494Y-85469463D01*
X107644180Y-85410498D01*
X107603181Y-85398061D01*
X129465000Y-85398061D01*
X129465000Y-85601939D01*
X129504774Y-85801898D01*
X129582795Y-85990256D01*
X129696063Y-86159774D01*
X129840226Y-86303937D01*
X130009744Y-86417205D01*
X130198102Y-86495226D01*
X130398061Y-86535000D01*
X130601939Y-86535000D01*
X130801898Y-86495226D01*
X130990256Y-86417205D01*
X131159774Y-86303937D01*
X131303937Y-86159774D01*
X131417205Y-85990256D01*
X131495226Y-85801898D01*
X131535000Y-85601939D01*
X131535000Y-85398061D01*
X132965000Y-85398061D01*
X132965000Y-85601939D01*
X133004774Y-85801898D01*
X133082795Y-85990256D01*
X133196063Y-86159774D01*
X133340226Y-86303937D01*
X133509744Y-86417205D01*
X133698102Y-86495226D01*
X133898061Y-86535000D01*
X134101939Y-86535000D01*
X134301898Y-86495226D01*
X134490256Y-86417205D01*
X134659774Y-86303937D01*
X134803937Y-86159774D01*
X134917205Y-85990256D01*
X134995226Y-85801898D01*
X135035000Y-85601939D01*
X135035000Y-85398061D01*
X134995226Y-85198102D01*
X134917205Y-85009744D01*
X134803937Y-84840226D01*
X134659774Y-84696063D01*
X134490256Y-84582795D01*
X134301898Y-84504774D01*
X134101939Y-84465000D01*
X133898061Y-84465000D01*
X133698102Y-84504774D01*
X133509744Y-84582795D01*
X133340226Y-84696063D01*
X133196063Y-84840226D01*
X133082795Y-85009744D01*
X133004774Y-85198102D01*
X132965000Y-85398061D01*
X131535000Y-85398061D01*
X131495226Y-85198102D01*
X131438149Y-85060306D01*
X131627245Y-85060306D01*
X131827204Y-85020532D01*
X132015562Y-84942511D01*
X132185080Y-84829243D01*
X132329243Y-84685080D01*
X132442511Y-84515562D01*
X132520532Y-84327204D01*
X132560306Y-84127245D01*
X132560306Y-83923367D01*
X132520532Y-83723408D01*
X132442511Y-83535050D01*
X132329243Y-83365532D01*
X132185080Y-83221369D01*
X132015562Y-83108101D01*
X131827204Y-83030080D01*
X131627245Y-82990306D01*
X131423367Y-82990306D01*
X131223408Y-83030080D01*
X131035050Y-83108101D01*
X130865532Y-83221369D01*
X130721369Y-83365532D01*
X130608101Y-83535050D01*
X130530080Y-83723408D01*
X130490306Y-83923367D01*
X130490306Y-84127245D01*
X130530080Y-84327204D01*
X130587157Y-84465000D01*
X130398061Y-84465000D01*
X130198102Y-84504774D01*
X130009744Y-84582795D01*
X129840226Y-84696063D01*
X129696063Y-84840226D01*
X129582795Y-85009744D01*
X129504774Y-85198102D01*
X129465000Y-85398061D01*
X107603181Y-85398061D01*
X107524482Y-85374188D01*
X107400000Y-85361928D01*
X104600000Y-85361928D01*
X104475518Y-85374188D01*
X104355820Y-85410498D01*
X104245506Y-85469463D01*
X104148815Y-85548815D01*
X104069463Y-85645506D01*
X104010498Y-85755820D01*
X103974188Y-85875518D01*
X103961928Y-86000000D01*
X96638072Y-86000000D01*
X96625812Y-85875518D01*
X96589502Y-85755820D01*
X96530537Y-85645506D01*
X96451185Y-85548815D01*
X96354494Y-85469463D01*
X96244180Y-85410498D01*
X96124482Y-85374188D01*
X96000000Y-85361928D01*
X93200000Y-85361928D01*
X93075518Y-85374188D01*
X92955820Y-85410498D01*
X92845506Y-85469463D01*
X92748815Y-85548815D01*
X92669463Y-85645506D01*
X92610498Y-85755820D01*
X92574188Y-85875518D01*
X92561928Y-86000000D01*
X86127000Y-86000000D01*
X86127000Y-80138967D01*
X96165000Y-80138967D01*
X96165000Y-80461033D01*
X96227832Y-80776912D01*
X96351082Y-81074463D01*
X96530013Y-81342252D01*
X96757748Y-81569987D01*
X97025537Y-81748918D01*
X97323088Y-81872168D01*
X97638967Y-81935000D01*
X97961033Y-81935000D01*
X98276912Y-81872168D01*
X98574463Y-81748918D01*
X98842252Y-81569987D01*
X99050000Y-81362239D01*
X99257748Y-81569987D01*
X99525537Y-81748918D01*
X99823088Y-81872168D01*
X100138967Y-81935000D01*
X100461033Y-81935000D01*
X100776912Y-81872168D01*
X101074463Y-81748918D01*
X101342252Y-81569987D01*
X101550000Y-81362239D01*
X101757748Y-81569987D01*
X102025537Y-81748918D01*
X102323088Y-81872168D01*
X102638967Y-81935000D01*
X102961033Y-81935000D01*
X103276912Y-81872168D01*
X103574463Y-81748918D01*
X103842252Y-81569987D01*
X104064178Y-81348061D01*
X122465000Y-81348061D01*
X122465000Y-81551939D01*
X122504774Y-81751898D01*
X122582795Y-81940256D01*
X122696063Y-82109774D01*
X122840226Y-82253937D01*
X123009744Y-82367205D01*
X123198102Y-82445226D01*
X123398061Y-82485000D01*
X123601939Y-82485000D01*
X123801898Y-82445226D01*
X123990256Y-82367205D01*
X124159774Y-82253937D01*
X124303937Y-82109774D01*
X124417205Y-81940256D01*
X124495226Y-81751898D01*
X124535000Y-81551939D01*
X124535000Y-81348061D01*
X124495226Y-81148102D01*
X124417205Y-80959744D01*
X124303937Y-80790226D01*
X124159774Y-80646063D01*
X123990256Y-80532795D01*
X123801898Y-80454774D01*
X123601939Y-80415000D01*
X123398061Y-80415000D01*
X123198102Y-80454774D01*
X123009744Y-80532795D01*
X122840226Y-80646063D01*
X122696063Y-80790226D01*
X122582795Y-80959744D01*
X122504774Y-81148102D01*
X122465000Y-81348061D01*
X104064178Y-81348061D01*
X104069987Y-81342252D01*
X104248918Y-81074463D01*
X104372168Y-80776912D01*
X104435000Y-80461033D01*
X104435000Y-80138967D01*
X104372168Y-79823088D01*
X104248918Y-79525537D01*
X104069987Y-79257748D01*
X103842252Y-79030013D01*
X103574463Y-78851082D01*
X103276912Y-78727832D01*
X102961033Y-78665000D01*
X102638967Y-78665000D01*
X102323088Y-78727832D01*
X102025537Y-78851082D01*
X101757748Y-79030013D01*
X101550000Y-79237761D01*
X101342252Y-79030013D01*
X101074463Y-78851082D01*
X100776912Y-78727832D01*
X100461033Y-78665000D01*
X100138967Y-78665000D01*
X99823088Y-78727832D01*
X99525537Y-78851082D01*
X99257748Y-79030013D01*
X99050000Y-79237761D01*
X98842252Y-79030013D01*
X98574463Y-78851082D01*
X98276912Y-78727832D01*
X97961033Y-78665000D01*
X97638967Y-78665000D01*
X97323088Y-78727832D01*
X97025537Y-78851082D01*
X96757748Y-79030013D01*
X96530013Y-79257748D01*
X96351082Y-79525537D01*
X96227832Y-79823088D01*
X96165000Y-80138967D01*
X86127000Y-80138967D01*
X86127000Y-74898061D01*
X111465000Y-74898061D01*
X111465000Y-75101939D01*
X111504774Y-75301898D01*
X111582795Y-75490256D01*
X111696063Y-75659774D01*
X111840226Y-75803937D01*
X112009744Y-75917205D01*
X112198102Y-75995226D01*
X112398061Y-76035000D01*
X112601939Y-76035000D01*
X112801898Y-75995226D01*
X112990256Y-75917205D01*
X113159774Y-75803937D01*
X113303937Y-75659774D01*
X113343230Y-75600967D01*
X119997000Y-75600967D01*
X119997000Y-75923033D01*
X120059832Y-76238912D01*
X120183082Y-76536463D01*
X120362013Y-76804252D01*
X120589748Y-77031987D01*
X120857537Y-77210918D01*
X121155088Y-77334168D01*
X121470967Y-77397000D01*
X121793033Y-77397000D01*
X122108912Y-77334168D01*
X122406463Y-77210918D01*
X122674252Y-77031987D01*
X122901987Y-76804252D01*
X123080918Y-76536463D01*
X123138246Y-76398061D01*
X132965000Y-76398061D01*
X132965000Y-76601939D01*
X133004774Y-76801898D01*
X133082795Y-76990256D01*
X133196063Y-77159774D01*
X133286289Y-77250000D01*
X133196063Y-77340226D01*
X133082795Y-77509744D01*
X133004774Y-77698102D01*
X132965000Y-77898061D01*
X132965000Y-78101939D01*
X133004774Y-78301898D01*
X133082795Y-78490256D01*
X133196063Y-78659774D01*
X133340226Y-78803937D01*
X133509744Y-78917205D01*
X133698102Y-78995226D01*
X133898061Y-79035000D01*
X134101939Y-79035000D01*
X134301898Y-78995226D01*
X134490256Y-78917205D01*
X134659774Y-78803937D01*
X134725499Y-78738212D01*
X158715000Y-78738212D01*
X158715000Y-78961788D01*
X158758617Y-79181067D01*
X158844176Y-79387624D01*
X158968388Y-79573520D01*
X159126480Y-79731612D01*
X159312376Y-79855824D01*
X159518933Y-79941383D01*
X159738212Y-79985000D01*
X159961788Y-79985000D01*
X160181067Y-79941383D01*
X160387624Y-79855824D01*
X160390742Y-79853740D01*
X173275000Y-79853740D01*
X173275000Y-80146260D01*
X173332068Y-80433158D01*
X173444010Y-80703411D01*
X173606525Y-80946632D01*
X173813368Y-81153475D01*
X174056589Y-81315990D01*
X174326842Y-81427932D01*
X174613740Y-81485000D01*
X174906260Y-81485000D01*
X175193158Y-81427932D01*
X175463411Y-81315990D01*
X175706632Y-81153475D01*
X175838487Y-81021620D01*
X175860498Y-81094180D01*
X175919463Y-81204494D01*
X175998815Y-81301185D01*
X176095506Y-81380537D01*
X176205820Y-81439502D01*
X176325518Y-81475812D01*
X176450000Y-81488072D01*
X177014250Y-81485000D01*
X177173000Y-81326250D01*
X177173000Y-80127000D01*
X177427000Y-80127000D01*
X177427000Y-81326250D01*
X177585750Y-81485000D01*
X178150000Y-81488072D01*
X178274482Y-81475812D01*
X178394180Y-81439502D01*
X178504494Y-81380537D01*
X178601185Y-81301185D01*
X178680537Y-81204494D01*
X178739502Y-81094180D01*
X178775812Y-80974482D01*
X178788072Y-80850000D01*
X178785000Y-80285750D01*
X178626250Y-80127000D01*
X177427000Y-80127000D01*
X177173000Y-80127000D01*
X177153000Y-80127000D01*
X177153000Y-79873000D01*
X177173000Y-79873000D01*
X177173000Y-78673750D01*
X177427000Y-78673750D01*
X177427000Y-79873000D01*
X178626250Y-79873000D01*
X178785000Y-79714250D01*
X178788072Y-79150000D01*
X178775812Y-79025518D01*
X178739502Y-78905820D01*
X178680537Y-78795506D01*
X178601185Y-78698815D01*
X178504494Y-78619463D01*
X178394180Y-78560498D01*
X178274482Y-78524188D01*
X178150000Y-78511928D01*
X177585750Y-78515000D01*
X177427000Y-78673750D01*
X177173000Y-78673750D01*
X177014250Y-78515000D01*
X176450000Y-78511928D01*
X176325518Y-78524188D01*
X176205820Y-78560498D01*
X176095506Y-78619463D01*
X175998815Y-78698815D01*
X175919463Y-78795506D01*
X175860498Y-78905820D01*
X175838487Y-78978380D01*
X175706632Y-78846525D01*
X175463411Y-78684010D01*
X175193158Y-78572068D01*
X174906260Y-78515000D01*
X174613740Y-78515000D01*
X174326842Y-78572068D01*
X174056589Y-78684010D01*
X173813368Y-78846525D01*
X173606525Y-79053368D01*
X173444010Y-79296589D01*
X173332068Y-79566842D01*
X173275000Y-79853740D01*
X160390742Y-79853740D01*
X160573520Y-79731612D01*
X160731612Y-79573520D01*
X160855824Y-79387624D01*
X160941383Y-79181067D01*
X160985000Y-78961788D01*
X160985000Y-78738212D01*
X160941383Y-78518933D01*
X160855824Y-78312376D01*
X160731612Y-78126480D01*
X160573520Y-77968388D01*
X160387624Y-77844176D01*
X160181067Y-77758617D01*
X159961788Y-77715000D01*
X159738212Y-77715000D01*
X159518933Y-77758617D01*
X159312376Y-77844176D01*
X159126480Y-77968388D01*
X158968388Y-78126480D01*
X158844176Y-78312376D01*
X158758617Y-78518933D01*
X158715000Y-78738212D01*
X134725499Y-78738212D01*
X134803937Y-78659774D01*
X134917205Y-78490256D01*
X134995226Y-78301898D01*
X135035000Y-78101939D01*
X135035000Y-77898061D01*
X134995226Y-77698102D01*
X134917205Y-77509744D01*
X134842582Y-77398061D01*
X138465000Y-77398061D01*
X138465000Y-77601939D01*
X138504774Y-77801898D01*
X138582795Y-77990256D01*
X138696063Y-78159774D01*
X138840226Y-78303937D01*
X139009744Y-78417205D01*
X139198102Y-78495226D01*
X139398061Y-78535000D01*
X139601939Y-78535000D01*
X139801898Y-78495226D01*
X139990256Y-78417205D01*
X140159774Y-78303937D01*
X140303937Y-78159774D01*
X140417205Y-77990256D01*
X140495226Y-77801898D01*
X140535000Y-77601939D01*
X140535000Y-77398061D01*
X140495226Y-77198102D01*
X140417205Y-77009744D01*
X140342582Y-76898061D01*
X156465000Y-76898061D01*
X156465000Y-77101939D01*
X156504774Y-77301898D01*
X156582795Y-77490256D01*
X156696063Y-77659774D01*
X156840226Y-77803937D01*
X157009744Y-77917205D01*
X157198102Y-77995226D01*
X157398061Y-78035000D01*
X157601939Y-78035000D01*
X157801898Y-77995226D01*
X157990256Y-77917205D01*
X158159774Y-77803937D01*
X158303937Y-77659774D01*
X158417205Y-77490256D01*
X158495226Y-77301898D01*
X158535000Y-77101939D01*
X158535000Y-76898061D01*
X158495226Y-76698102D01*
X158417205Y-76509744D01*
X158303937Y-76340226D01*
X158159774Y-76196063D01*
X157990256Y-76082795D01*
X157801898Y-76004774D01*
X157601939Y-75965000D01*
X157398061Y-75965000D01*
X157198102Y-76004774D01*
X157009744Y-76082795D01*
X156840226Y-76196063D01*
X156696063Y-76340226D01*
X156582795Y-76509744D01*
X156504774Y-76698102D01*
X156465000Y-76898061D01*
X140342582Y-76898061D01*
X140303937Y-76840226D01*
X140159774Y-76696063D01*
X139990256Y-76582795D01*
X139801898Y-76504774D01*
X139601939Y-76465000D01*
X139398061Y-76465000D01*
X139198102Y-76504774D01*
X139009744Y-76582795D01*
X138840226Y-76696063D01*
X138696063Y-76840226D01*
X138582795Y-77009744D01*
X138504774Y-77198102D01*
X138465000Y-77398061D01*
X134842582Y-77398061D01*
X134803937Y-77340226D01*
X134713711Y-77250000D01*
X134803937Y-77159774D01*
X134917205Y-76990256D01*
X134995226Y-76801898D01*
X135035000Y-76601939D01*
X135035000Y-76398061D01*
X134995226Y-76198102D01*
X134917205Y-76009744D01*
X134803937Y-75840226D01*
X134659774Y-75696063D01*
X134490256Y-75582795D01*
X134301898Y-75504774D01*
X134101939Y-75465000D01*
X133898061Y-75465000D01*
X133698102Y-75504774D01*
X133509744Y-75582795D01*
X133340226Y-75696063D01*
X133196063Y-75840226D01*
X133082795Y-76009744D01*
X133004774Y-76198102D01*
X132965000Y-76398061D01*
X123138246Y-76398061D01*
X123204168Y-76238912D01*
X123267000Y-75923033D01*
X123267000Y-75600967D01*
X123204168Y-75285088D01*
X123080918Y-74987537D01*
X122991518Y-74853740D01*
X138435000Y-74853740D01*
X138435000Y-75146260D01*
X138492068Y-75433158D01*
X138604010Y-75703411D01*
X138766525Y-75946632D01*
X138973368Y-76153475D01*
X139216589Y-76315990D01*
X139486842Y-76427932D01*
X139773740Y-76485000D01*
X140066260Y-76485000D01*
X140353158Y-76427932D01*
X140623411Y-76315990D01*
X140866632Y-76153475D01*
X141073475Y-75946632D01*
X141190000Y-75772240D01*
X141306525Y-75946632D01*
X141513368Y-76153475D01*
X141756589Y-76315990D01*
X142026842Y-76427932D01*
X142313740Y-76485000D01*
X142606260Y-76485000D01*
X142893158Y-76427932D01*
X143163411Y-76315990D01*
X143406632Y-76153475D01*
X143613475Y-75946632D01*
X143730000Y-75772240D01*
X143846525Y-75946632D01*
X144053368Y-76153475D01*
X144296589Y-76315990D01*
X144566842Y-76427932D01*
X144853740Y-76485000D01*
X145146260Y-76485000D01*
X145433158Y-76427932D01*
X145703411Y-76315990D01*
X145946632Y-76153475D01*
X146153475Y-75946632D01*
X146275195Y-75764466D01*
X146344822Y-75881355D01*
X146539731Y-76097588D01*
X146773080Y-76271641D01*
X147035901Y-76396825D01*
X147183110Y-76441476D01*
X147413000Y-76320155D01*
X147413000Y-75127000D01*
X147667000Y-75127000D01*
X147667000Y-76320155D01*
X147896890Y-76441476D01*
X148044099Y-76396825D01*
X148306920Y-76271641D01*
X148540269Y-76097588D01*
X148616034Y-76013534D01*
X148640498Y-76094180D01*
X148699463Y-76204494D01*
X148778815Y-76301185D01*
X148875506Y-76380537D01*
X148985820Y-76439502D01*
X149105518Y-76475812D01*
X149230000Y-76488072D01*
X149794250Y-76485000D01*
X149953000Y-76326250D01*
X149953000Y-75127000D01*
X150207000Y-75127000D01*
X150207000Y-76326250D01*
X150365750Y-76485000D01*
X150930000Y-76488072D01*
X151054482Y-76475812D01*
X151174180Y-76439502D01*
X151284494Y-76380537D01*
X151381185Y-76301185D01*
X151460537Y-76204494D01*
X151519502Y-76094180D01*
X151555812Y-75974482D01*
X151568072Y-75850000D01*
X151566717Y-75600967D01*
X166733000Y-75600967D01*
X166733000Y-75923033D01*
X166795832Y-76238912D01*
X166919082Y-76536463D01*
X167098013Y-76804252D01*
X167325748Y-77031987D01*
X167593537Y-77210918D01*
X167891088Y-77334168D01*
X168206967Y-77397000D01*
X168529033Y-77397000D01*
X168844912Y-77334168D01*
X169142463Y-77210918D01*
X169410252Y-77031987D01*
X169637987Y-76804252D01*
X169816918Y-76536463D01*
X169940168Y-76238912D01*
X169977000Y-76053740D01*
X173275000Y-76053740D01*
X173275000Y-76346260D01*
X173332068Y-76633158D01*
X173444010Y-76903411D01*
X173606525Y-77146632D01*
X173813368Y-77353475D01*
X174056589Y-77515990D01*
X174326842Y-77627932D01*
X174613740Y-77685000D01*
X174906260Y-77685000D01*
X175193158Y-77627932D01*
X175463411Y-77515990D01*
X175706632Y-77353475D01*
X175838487Y-77221620D01*
X175860498Y-77294180D01*
X175919463Y-77404494D01*
X175998815Y-77501185D01*
X176095506Y-77580537D01*
X176205820Y-77639502D01*
X176325518Y-77675812D01*
X176450000Y-77688072D01*
X178150000Y-77688072D01*
X178274482Y-77675812D01*
X178394180Y-77639502D01*
X178504494Y-77580537D01*
X178601185Y-77501185D01*
X178680537Y-77404494D01*
X178739502Y-77294180D01*
X178775812Y-77174482D01*
X178788072Y-77050000D01*
X178788072Y-75350000D01*
X178775812Y-75225518D01*
X178739502Y-75105820D01*
X178680537Y-74995506D01*
X178601185Y-74898815D01*
X178504494Y-74819463D01*
X178394180Y-74760498D01*
X178274482Y-74724188D01*
X178150000Y-74711928D01*
X176450000Y-74711928D01*
X176325518Y-74724188D01*
X176205820Y-74760498D01*
X176095506Y-74819463D01*
X175998815Y-74898815D01*
X175919463Y-74995506D01*
X175860498Y-75105820D01*
X175838487Y-75178380D01*
X175706632Y-75046525D01*
X175463411Y-74884010D01*
X175193158Y-74772068D01*
X174906260Y-74715000D01*
X174613740Y-74715000D01*
X174326842Y-74772068D01*
X174056589Y-74884010D01*
X173813368Y-75046525D01*
X173606525Y-75253368D01*
X173444010Y-75496589D01*
X173332068Y-75766842D01*
X173275000Y-76053740D01*
X169977000Y-76053740D01*
X170003000Y-75923033D01*
X170003000Y-75600967D01*
X169940168Y-75285088D01*
X169816918Y-74987537D01*
X169637987Y-74719748D01*
X169410252Y-74492013D01*
X169142463Y-74313082D01*
X168844912Y-74189832D01*
X168529033Y-74127000D01*
X168206967Y-74127000D01*
X167891088Y-74189832D01*
X167593537Y-74313082D01*
X167325748Y-74492013D01*
X167098013Y-74719748D01*
X166919082Y-74987537D01*
X166795832Y-75285088D01*
X166733000Y-75600967D01*
X151566717Y-75600967D01*
X151565000Y-75285750D01*
X151406250Y-75127000D01*
X150207000Y-75127000D01*
X149953000Y-75127000D01*
X147667000Y-75127000D01*
X147413000Y-75127000D01*
X147393000Y-75127000D01*
X147393000Y-74873000D01*
X147413000Y-74873000D01*
X147413000Y-73679845D01*
X147667000Y-73679845D01*
X147667000Y-74873000D01*
X149953000Y-74873000D01*
X149953000Y-73673750D01*
X150207000Y-73673750D01*
X150207000Y-74873000D01*
X151406250Y-74873000D01*
X151565000Y-74714250D01*
X151568072Y-74150000D01*
X151555812Y-74025518D01*
X151519502Y-73905820D01*
X151460537Y-73795506D01*
X151381185Y-73698815D01*
X151284494Y-73619463D01*
X151174180Y-73560498D01*
X151054482Y-73524188D01*
X150954531Y-73514344D01*
X156415000Y-73514344D01*
X156415000Y-73885656D01*
X156487439Y-74249834D01*
X156629534Y-74592882D01*
X156835825Y-74901618D01*
X157098382Y-75164175D01*
X157407118Y-75370466D01*
X157750166Y-75512561D01*
X158114344Y-75585000D01*
X158485656Y-75585000D01*
X158849834Y-75512561D01*
X159192882Y-75370466D01*
X159501618Y-75164175D01*
X159764175Y-74901618D01*
X159970466Y-74592882D01*
X160112561Y-74249834D01*
X160185000Y-73885656D01*
X160185000Y-73514344D01*
X160112561Y-73150166D01*
X159970466Y-72807118D01*
X159764175Y-72498382D01*
X159619533Y-72353740D01*
X173275000Y-72353740D01*
X173275000Y-72646260D01*
X173332068Y-72933158D01*
X173444010Y-73203411D01*
X173606525Y-73446632D01*
X173813368Y-73653475D01*
X174056589Y-73815990D01*
X174326842Y-73927932D01*
X174613740Y-73985000D01*
X174906260Y-73985000D01*
X175193158Y-73927932D01*
X175463411Y-73815990D01*
X175706632Y-73653475D01*
X175838487Y-73521620D01*
X175860498Y-73594180D01*
X175919463Y-73704494D01*
X175998815Y-73801185D01*
X176095506Y-73880537D01*
X176205820Y-73939502D01*
X176325518Y-73975812D01*
X176450000Y-73988072D01*
X178150000Y-73988072D01*
X178274482Y-73975812D01*
X178394180Y-73939502D01*
X178504494Y-73880537D01*
X178601185Y-73801185D01*
X178680537Y-73704494D01*
X178739502Y-73594180D01*
X178775812Y-73474482D01*
X178788072Y-73350000D01*
X178788072Y-71650000D01*
X178775812Y-71525518D01*
X178739502Y-71405820D01*
X178680537Y-71295506D01*
X178601185Y-71198815D01*
X178504494Y-71119463D01*
X178394180Y-71060498D01*
X178274482Y-71024188D01*
X178150000Y-71011928D01*
X176450000Y-71011928D01*
X176325518Y-71024188D01*
X176205820Y-71060498D01*
X176095506Y-71119463D01*
X175998815Y-71198815D01*
X175919463Y-71295506D01*
X175860498Y-71405820D01*
X175838487Y-71478380D01*
X175706632Y-71346525D01*
X175463411Y-71184010D01*
X175193158Y-71072068D01*
X174906260Y-71015000D01*
X174613740Y-71015000D01*
X174326842Y-71072068D01*
X174056589Y-71184010D01*
X173813368Y-71346525D01*
X173606525Y-71553368D01*
X173444010Y-71796589D01*
X173332068Y-72066842D01*
X173275000Y-72353740D01*
X159619533Y-72353740D01*
X159501618Y-72235825D01*
X159192882Y-72029534D01*
X158849834Y-71887439D01*
X158485656Y-71815000D01*
X158114344Y-71815000D01*
X157750166Y-71887439D01*
X157407118Y-72029534D01*
X157098382Y-72235825D01*
X156835825Y-72498382D01*
X156629534Y-72807118D01*
X156487439Y-73150166D01*
X156415000Y-73514344D01*
X150954531Y-73514344D01*
X150930000Y-73511928D01*
X150365750Y-73515000D01*
X150207000Y-73673750D01*
X149953000Y-73673750D01*
X149794250Y-73515000D01*
X149230000Y-73511928D01*
X149105518Y-73524188D01*
X148985820Y-73560498D01*
X148875506Y-73619463D01*
X148778815Y-73698815D01*
X148699463Y-73795506D01*
X148640498Y-73905820D01*
X148616034Y-73986466D01*
X148540269Y-73902412D01*
X148306920Y-73728359D01*
X148044099Y-73603175D01*
X147896890Y-73558524D01*
X147667000Y-73679845D01*
X147413000Y-73679845D01*
X147183110Y-73558524D01*
X147035901Y-73603175D01*
X146773080Y-73728359D01*
X146539731Y-73902412D01*
X146344822Y-74118645D01*
X146275195Y-74235534D01*
X146153475Y-74053368D01*
X145946632Y-73846525D01*
X145703411Y-73684010D01*
X145433158Y-73572068D01*
X145146260Y-73515000D01*
X144853740Y-73515000D01*
X144566842Y-73572068D01*
X144296589Y-73684010D01*
X144053368Y-73846525D01*
X143846525Y-74053368D01*
X143730000Y-74227760D01*
X143613475Y-74053368D01*
X143406632Y-73846525D01*
X143163411Y-73684010D01*
X142893158Y-73572068D01*
X142606260Y-73515000D01*
X142313740Y-73515000D01*
X142026842Y-73572068D01*
X141756589Y-73684010D01*
X141513368Y-73846525D01*
X141306525Y-74053368D01*
X141190000Y-74227760D01*
X141073475Y-74053368D01*
X140866632Y-73846525D01*
X140623411Y-73684010D01*
X140353158Y-73572068D01*
X140066260Y-73515000D01*
X139773740Y-73515000D01*
X139486842Y-73572068D01*
X139216589Y-73684010D01*
X138973368Y-73846525D01*
X138766525Y-74053368D01*
X138604010Y-74296589D01*
X138492068Y-74566842D01*
X138435000Y-74853740D01*
X122991518Y-74853740D01*
X122901987Y-74719748D01*
X122674252Y-74492013D01*
X122406463Y-74313082D01*
X122108912Y-74189832D01*
X121793033Y-74127000D01*
X121470967Y-74127000D01*
X121155088Y-74189832D01*
X120857537Y-74313082D01*
X120589748Y-74492013D01*
X120362013Y-74719748D01*
X120183082Y-74987537D01*
X120059832Y-75285088D01*
X119997000Y-75600967D01*
X113343230Y-75600967D01*
X113417205Y-75490256D01*
X113495226Y-75301898D01*
X113535000Y-75101939D01*
X113535000Y-74898061D01*
X113495226Y-74698102D01*
X113417205Y-74509744D01*
X113303937Y-74340226D01*
X113159774Y-74196063D01*
X112990256Y-74082795D01*
X112801898Y-74004774D01*
X112601939Y-73965000D01*
X112398061Y-73965000D01*
X112198102Y-74004774D01*
X112009744Y-74082795D01*
X111840226Y-74196063D01*
X111696063Y-74340226D01*
X111582795Y-74509744D01*
X111504774Y-74698102D01*
X111465000Y-74898061D01*
X86127000Y-74898061D01*
X86127000Y-66127000D01*
X112873000Y-66127000D01*
X112873000Y-72000000D01*
G37*
%TD.AperFunction*%
%TD*%
D24*
%TO.N,+12V*%
X174326842Y-86172068D02*
X174056589Y-86284010D01*
X173813368Y-86446525D01*
X173606525Y-86653368D01*
X173444010Y-86896589D01*
X173332068Y-87166842D01*
X173275000Y-87453740D01*
X173275000Y-87746260D01*
X173332068Y-88033158D01*
X173444010Y-88303411D01*
X173606525Y-88546632D01*
X173813368Y-88753475D01*
X174056589Y-88915990D01*
X174326842Y-89027932D01*
X174613740Y-89085000D01*
X174906260Y-89085000D01*
X175193158Y-89027932D01*
X175463411Y-88915990D01*
X175706632Y-88753475D01*
X175838487Y-88621620D01*
X175860498Y-88694180D01*
X175919463Y-88804494D01*
X175998815Y-88901185D01*
X176095506Y-88980537D01*
X176205820Y-89039502D01*
X176325518Y-89075812D01*
X176450000Y-89088072D01*
X177014250Y-89085000D01*
X177173000Y-88926250D01*
X177173000Y-87727000D01*
X177427000Y-87727000D01*
X177427000Y-88926250D01*
X177585750Y-89085000D01*
X178150000Y-89088072D01*
X178274482Y-89075812D01*
X178394180Y-89039502D01*
X178504494Y-88980537D01*
X178601185Y-88901185D01*
X178680537Y-88804494D01*
X178739502Y-88694180D01*
X178775812Y-88574482D01*
X178788072Y-88450000D01*
X178785000Y-87885750D01*
X178626250Y-87727000D01*
X177427000Y-87727000D01*
X177173000Y-87727000D01*
X177153000Y-87727000D01*
X177153000Y-87473000D01*
X177173000Y-87473000D01*
X177173000Y-87453000D01*
X177427000Y-87453000D01*
X177427000Y-87473000D01*
X178626250Y-87473000D01*
X178785000Y-87314250D01*
X178788072Y-86750000D01*
X178775812Y-86625518D01*
X178739502Y-86505820D01*
X178680537Y-86395506D01*
X178601185Y-86298815D01*
X178504494Y-86219463D01*
X178394180Y-86160498D01*
X178283752Y-86127000D01*
X178873000Y-86127000D01*
X178873000Y-100611928D01*
X177200000Y-100611928D01*
X177075518Y-100624188D01*
X176955820Y-100660498D01*
X176845506Y-100719463D01*
X176748815Y-100798815D01*
X176669463Y-100895506D01*
X176610498Y-101005820D01*
X176574188Y-101125518D01*
X176561928Y-101250000D01*
X176561928Y-105750000D01*
X176574188Y-105874482D01*
X176610498Y-105994180D01*
X176669463Y-106104494D01*
X176748815Y-106201185D01*
X176845506Y-106280537D01*
X176955820Y-106339502D01*
X177075518Y-106375812D01*
X177200000Y-106388072D01*
X178873000Y-106388072D01*
X178873000Y-108873000D01*
X178088072Y-108873000D01*
X178088072Y-107200000D01*
X178075812Y-107075518D01*
X178039502Y-106955820D01*
X177980537Y-106845506D01*
X177901185Y-106748815D01*
X177804494Y-106669463D01*
X177694180Y-106610498D01*
X177574482Y-106574188D01*
X177450000Y-106561928D01*
X172950000Y-106561928D01*
X172825518Y-106574188D01*
X172705820Y-106610498D01*
X172595506Y-106669463D01*
X172498815Y-106748815D01*
X172419463Y-106845506D01*
X172360498Y-106955820D01*
X172324188Y-107075518D01*
X172311928Y-107200000D01*
X172311928Y-108873000D01*
X158127000Y-108873000D01*
X158127000Y-106752980D01*
X163409437Y-106752980D01*
X163480429Y-106971094D01*
X163624031Y-107246923D01*
X163818685Y-107489437D01*
X164056911Y-107689316D01*
X164329554Y-107838879D01*
X164626137Y-107932378D01*
X164873000Y-107805570D01*
X164873000Y-106507000D01*
X165127000Y-106507000D01*
X165127000Y-107805570D01*
X165373863Y-107932378D01*
X165670446Y-107838879D01*
X165943089Y-107689316D01*
X166181315Y-107489437D01*
X166375969Y-107246923D01*
X166519571Y-106971094D01*
X166590563Y-106752980D01*
X166470594Y-106507000D01*
X165127000Y-106507000D01*
X164873000Y-106507000D01*
X163529406Y-106507000D01*
X163409437Y-106752980D01*
X158127000Y-106752980D01*
X158127000Y-100152007D01*
X158131974Y-100127000D01*
X163403315Y-100127000D01*
X163374188Y-100223018D01*
X163361928Y-100347500D01*
X163361928Y-102252500D01*
X163374188Y-102376982D01*
X163410498Y-102496680D01*
X163469463Y-102606994D01*
X163548815Y-102703685D01*
X163645506Y-102783037D01*
X163729446Y-102827905D01*
X163626155Y-102953765D01*
X163478745Y-103229551D01*
X163387970Y-103528796D01*
X163357319Y-103840000D01*
X163387970Y-104151204D01*
X163478745Y-104450449D01*
X163626155Y-104726235D01*
X163824537Y-104967963D01*
X164003899Y-105115163D01*
X163818685Y-105270563D01*
X163624031Y-105513077D01*
X163480429Y-105788906D01*
X163409437Y-106007020D01*
X163529406Y-106253000D01*
X164873000Y-106253000D01*
X164873000Y-106233000D01*
X165127000Y-106233000D01*
X165127000Y-106253000D01*
X166470594Y-106253000D01*
X166590563Y-106007020D01*
X166519571Y-105788906D01*
X166375969Y-105513077D01*
X166181315Y-105270563D01*
X165996101Y-105115163D01*
X166175463Y-104967963D01*
X166373845Y-104726235D01*
X166521255Y-104450449D01*
X166612030Y-104151204D01*
X166642681Y-103840000D01*
X166612030Y-103528796D01*
X166521255Y-103229551D01*
X166373845Y-102953765D01*
X166270554Y-102827905D01*
X166354494Y-102783037D01*
X166451185Y-102703685D01*
X166530537Y-102606994D01*
X166589502Y-102496680D01*
X166625812Y-102376982D01*
X166638072Y-102252500D01*
X166638072Y-100347500D01*
X166625812Y-100223018D01*
X166596685Y-100127000D01*
X166800839Y-100127000D01*
X166919082Y-100412463D01*
X167098013Y-100680252D01*
X167325748Y-100907987D01*
X167593537Y-101086918D01*
X167891088Y-101210168D01*
X168206967Y-101273000D01*
X168529033Y-101273000D01*
X168644662Y-101250000D01*
X170561928Y-101250000D01*
X170561928Y-105750000D01*
X170574188Y-105874482D01*
X170610498Y-105994180D01*
X170669463Y-106104494D01*
X170748815Y-106201185D01*
X170845506Y-106280537D01*
X170955820Y-106339502D01*
X171075518Y-106375812D01*
X171200000Y-106388072D01*
X173200000Y-106388072D01*
X173324482Y-106375812D01*
X173444180Y-106339502D01*
X173554494Y-106280537D01*
X173651185Y-106201185D01*
X173730537Y-106104494D01*
X173789502Y-105994180D01*
X173825812Y-105874482D01*
X173838072Y-105750000D01*
X173838072Y-101250000D01*
X173825812Y-101125518D01*
X173789502Y-101005820D01*
X173730537Y-100895506D01*
X173651185Y-100798815D01*
X173554494Y-100719463D01*
X173444180Y-100660498D01*
X173324482Y-100624188D01*
X173200000Y-100611928D01*
X171200000Y-100611928D01*
X171075518Y-100624188D01*
X170955820Y-100660498D01*
X170845506Y-100719463D01*
X170748815Y-100798815D01*
X170669463Y-100895506D01*
X170610498Y-101005820D01*
X170574188Y-101125518D01*
X170561928Y-101250000D01*
X168644662Y-101250000D01*
X168844912Y-101210168D01*
X169142463Y-101086918D01*
X169410252Y-100907987D01*
X169637987Y-100680252D01*
X169816918Y-100412463D01*
X169935161Y-100127000D01*
X173000000Y-100127000D01*
X173024776Y-100124560D01*
X173048601Y-100117333D01*
X173070557Y-100105597D01*
X173089803Y-100089803D01*
X173105597Y-100070557D01*
X173117333Y-100048601D01*
X173124560Y-100024776D01*
X173127000Y-100000000D01*
X173127000Y-96053740D01*
X173275000Y-96053740D01*
X173275000Y-96346260D01*
X173332068Y-96633158D01*
X173444010Y-96903411D01*
X173606525Y-97146632D01*
X173813368Y-97353475D01*
X174056589Y-97515990D01*
X174326842Y-97627932D01*
X174613740Y-97685000D01*
X174906260Y-97685000D01*
X175193158Y-97627932D01*
X175463411Y-97515990D01*
X175706632Y-97353475D01*
X175838487Y-97221620D01*
X175860498Y-97294180D01*
X175919463Y-97404494D01*
X175998815Y-97501185D01*
X176095506Y-97580537D01*
X176205820Y-97639502D01*
X176325518Y-97675812D01*
X176450000Y-97688072D01*
X178150000Y-97688072D01*
X178274482Y-97675812D01*
X178394180Y-97639502D01*
X178504494Y-97580537D01*
X178601185Y-97501185D01*
X178680537Y-97404494D01*
X178739502Y-97294180D01*
X178775812Y-97174482D01*
X178788072Y-97050000D01*
X178788072Y-95350000D01*
X178775812Y-95225518D01*
X178739502Y-95105820D01*
X178680537Y-94995506D01*
X178601185Y-94898815D01*
X178504494Y-94819463D01*
X178394180Y-94760498D01*
X178274482Y-94724188D01*
X178150000Y-94711928D01*
X176450000Y-94711928D01*
X176325518Y-94724188D01*
X176205820Y-94760498D01*
X176095506Y-94819463D01*
X175998815Y-94898815D01*
X175919463Y-94995506D01*
X175860498Y-95105820D01*
X175838487Y-95178380D01*
X175706632Y-95046525D01*
X175463411Y-94884010D01*
X175193158Y-94772068D01*
X174906260Y-94715000D01*
X174613740Y-94715000D01*
X174326842Y-94772068D01*
X174056589Y-94884010D01*
X173813368Y-95046525D01*
X173606525Y-95253368D01*
X173444010Y-95496589D01*
X173332068Y-95766842D01*
X173275000Y-96053740D01*
X173127000Y-96053740D01*
X173127000Y-91253740D01*
X173275000Y-91253740D01*
X173275000Y-91546260D01*
X173332068Y-91833158D01*
X173444010Y-92103411D01*
X173606525Y-92346632D01*
X173813368Y-92553475D01*
X174056589Y-92715990D01*
X174326842Y-92827932D01*
X174613740Y-92885000D01*
X174906260Y-92885000D01*
X175193158Y-92827932D01*
X175463411Y-92715990D01*
X175706632Y-92553475D01*
X175838487Y-92421620D01*
X175860498Y-92494180D01*
X175919463Y-92604494D01*
X175998815Y-92701185D01*
X176095506Y-92780537D01*
X176205820Y-92839502D01*
X176325518Y-92875812D01*
X176450000Y-92888072D01*
X177014250Y-92885000D01*
X177173000Y-92726250D01*
X177173000Y-91527000D01*
X177427000Y-91527000D01*
X177427000Y-92726250D01*
X177585750Y-92885000D01*
X178150000Y-92888072D01*
X178274482Y-92875812D01*
X178394180Y-92839502D01*
X178504494Y-92780537D01*
X178601185Y-92701185D01*
X178680537Y-92604494D01*
X178739502Y-92494180D01*
X178775812Y-92374482D01*
X178788072Y-92250000D01*
X178785000Y-91685750D01*
X178626250Y-91527000D01*
X177427000Y-91527000D01*
X177173000Y-91527000D01*
X177153000Y-91527000D01*
X177153000Y-91273000D01*
X177173000Y-91273000D01*
X177173000Y-90073750D01*
X177427000Y-90073750D01*
X177427000Y-91273000D01*
X178626250Y-91273000D01*
X178785000Y-91114250D01*
X178788072Y-90550000D01*
X178775812Y-90425518D01*
X178739502Y-90305820D01*
X178680537Y-90195506D01*
X178601185Y-90098815D01*
X178504494Y-90019463D01*
X178394180Y-89960498D01*
X178274482Y-89924188D01*
X178150000Y-89911928D01*
X177585750Y-89915000D01*
X177427000Y-90073750D01*
X177173000Y-90073750D01*
X177014250Y-89915000D01*
X176450000Y-89911928D01*
X176325518Y-89924188D01*
X176205820Y-89960498D01*
X176095506Y-90019463D01*
X175998815Y-90098815D01*
X175919463Y-90195506D01*
X175860498Y-90305820D01*
X175838487Y-90378380D01*
X175706632Y-90246525D01*
X175463411Y-90084010D01*
X175193158Y-89972068D01*
X174906260Y-89915000D01*
X174613740Y-89915000D01*
X174326842Y-89972068D01*
X174056589Y-90084010D01*
X173813368Y-90246525D01*
X173606525Y-90453368D01*
X173444010Y-90696589D01*
X173332068Y-90966842D01*
X173275000Y-91253740D01*
X173127000Y-91253740D01*
X173127000Y-86127000D01*
X174553412Y-86127000D01*
X174326842Y-86172068D01*
%TA.AperFunction,Conductor*%
D25*
G36*
X174326842Y-86172068D02*
G01*
X174056589Y-86284010D01*
X173813368Y-86446525D01*
X173606525Y-86653368D01*
X173444010Y-86896589D01*
X173332068Y-87166842D01*
X173275000Y-87453740D01*
X173275000Y-87746260D01*
X173332068Y-88033158D01*
X173444010Y-88303411D01*
X173606525Y-88546632D01*
X173813368Y-88753475D01*
X174056589Y-88915990D01*
X174326842Y-89027932D01*
X174613740Y-89085000D01*
X174906260Y-89085000D01*
X175193158Y-89027932D01*
X175463411Y-88915990D01*
X175706632Y-88753475D01*
X175838487Y-88621620D01*
X175860498Y-88694180D01*
X175919463Y-88804494D01*
X175998815Y-88901185D01*
X176095506Y-88980537D01*
X176205820Y-89039502D01*
X176325518Y-89075812D01*
X176450000Y-89088072D01*
X177014250Y-89085000D01*
X177173000Y-88926250D01*
X177173000Y-87727000D01*
X177427000Y-87727000D01*
X177427000Y-88926250D01*
X177585750Y-89085000D01*
X178150000Y-89088072D01*
X178274482Y-89075812D01*
X178394180Y-89039502D01*
X178504494Y-88980537D01*
X178601185Y-88901185D01*
X178680537Y-88804494D01*
X178739502Y-88694180D01*
X178775812Y-88574482D01*
X178788072Y-88450000D01*
X178785000Y-87885750D01*
X178626250Y-87727000D01*
X177427000Y-87727000D01*
X177173000Y-87727000D01*
X177153000Y-87727000D01*
X177153000Y-87473000D01*
X177173000Y-87473000D01*
X177173000Y-87453000D01*
X177427000Y-87453000D01*
X177427000Y-87473000D01*
X178626250Y-87473000D01*
X178785000Y-87314250D01*
X178788072Y-86750000D01*
X178775812Y-86625518D01*
X178739502Y-86505820D01*
X178680537Y-86395506D01*
X178601185Y-86298815D01*
X178504494Y-86219463D01*
X178394180Y-86160498D01*
X178283752Y-86127000D01*
X178873000Y-86127000D01*
X178873000Y-100611928D01*
X177200000Y-100611928D01*
X177075518Y-100624188D01*
X176955820Y-100660498D01*
X176845506Y-100719463D01*
X176748815Y-100798815D01*
X176669463Y-100895506D01*
X176610498Y-101005820D01*
X176574188Y-101125518D01*
X176561928Y-101250000D01*
X176561928Y-105750000D01*
X176574188Y-105874482D01*
X176610498Y-105994180D01*
X176669463Y-106104494D01*
X176748815Y-106201185D01*
X176845506Y-106280537D01*
X176955820Y-106339502D01*
X177075518Y-106375812D01*
X177200000Y-106388072D01*
X178873000Y-106388072D01*
X178873000Y-108873000D01*
X178088072Y-108873000D01*
X178088072Y-107200000D01*
X178075812Y-107075518D01*
X178039502Y-106955820D01*
X177980537Y-106845506D01*
X177901185Y-106748815D01*
X177804494Y-106669463D01*
X177694180Y-106610498D01*
X177574482Y-106574188D01*
X177450000Y-106561928D01*
X172950000Y-106561928D01*
X172825518Y-106574188D01*
X172705820Y-106610498D01*
X172595506Y-106669463D01*
X172498815Y-106748815D01*
X172419463Y-106845506D01*
X172360498Y-106955820D01*
X172324188Y-107075518D01*
X172311928Y-107200000D01*
X172311928Y-108873000D01*
X158127000Y-108873000D01*
X158127000Y-106752980D01*
X163409437Y-106752980D01*
X163480429Y-106971094D01*
X163624031Y-107246923D01*
X163818685Y-107489437D01*
X164056911Y-107689316D01*
X164329554Y-107838879D01*
X164626137Y-107932378D01*
X164873000Y-107805570D01*
X164873000Y-106507000D01*
X165127000Y-106507000D01*
X165127000Y-107805570D01*
X165373863Y-107932378D01*
X165670446Y-107838879D01*
X165943089Y-107689316D01*
X166181315Y-107489437D01*
X166375969Y-107246923D01*
X166519571Y-106971094D01*
X166590563Y-106752980D01*
X166470594Y-106507000D01*
X165127000Y-106507000D01*
X164873000Y-106507000D01*
X163529406Y-106507000D01*
X163409437Y-106752980D01*
X158127000Y-106752980D01*
X158127000Y-100152007D01*
X158131974Y-100127000D01*
X163403315Y-100127000D01*
X163374188Y-100223018D01*
X163361928Y-100347500D01*
X163361928Y-102252500D01*
X163374188Y-102376982D01*
X163410498Y-102496680D01*
X163469463Y-102606994D01*
X163548815Y-102703685D01*
X163645506Y-102783037D01*
X163729446Y-102827905D01*
X163626155Y-102953765D01*
X163478745Y-103229551D01*
X163387970Y-103528796D01*
X163357319Y-103840000D01*
X163387970Y-104151204D01*
X163478745Y-104450449D01*
X163626155Y-104726235D01*
X163824537Y-104967963D01*
X164003899Y-105115163D01*
X163818685Y-105270563D01*
X163624031Y-105513077D01*
X163480429Y-105788906D01*
X163409437Y-106007020D01*
X163529406Y-106253000D01*
X164873000Y-106253000D01*
X164873000Y-106233000D01*
X165127000Y-106233000D01*
X165127000Y-106253000D01*
X166470594Y-106253000D01*
X166590563Y-106007020D01*
X166519571Y-105788906D01*
X166375969Y-105513077D01*
X166181315Y-105270563D01*
X165996101Y-105115163D01*
X166175463Y-104967963D01*
X166373845Y-104726235D01*
X166521255Y-104450449D01*
X166612030Y-104151204D01*
X166642681Y-103840000D01*
X166612030Y-103528796D01*
X166521255Y-103229551D01*
X166373845Y-102953765D01*
X166270554Y-102827905D01*
X166354494Y-102783037D01*
X166451185Y-102703685D01*
X166530537Y-102606994D01*
X166589502Y-102496680D01*
X166625812Y-102376982D01*
X166638072Y-102252500D01*
X166638072Y-100347500D01*
X166625812Y-100223018D01*
X166596685Y-100127000D01*
X166800839Y-100127000D01*
X166919082Y-100412463D01*
X167098013Y-100680252D01*
X167325748Y-100907987D01*
X167593537Y-101086918D01*
X167891088Y-101210168D01*
X168206967Y-101273000D01*
X168529033Y-101273000D01*
X168644662Y-101250000D01*
X170561928Y-101250000D01*
X170561928Y-105750000D01*
X170574188Y-105874482D01*
X170610498Y-105994180D01*
X170669463Y-106104494D01*
X170748815Y-106201185D01*
X170845506Y-106280537D01*
X170955820Y-106339502D01*
X171075518Y-106375812D01*
X171200000Y-106388072D01*
X173200000Y-106388072D01*
X173324482Y-106375812D01*
X173444180Y-106339502D01*
X173554494Y-106280537D01*
X173651185Y-106201185D01*
X173730537Y-106104494D01*
X173789502Y-105994180D01*
X173825812Y-105874482D01*
X173838072Y-105750000D01*
X173838072Y-101250000D01*
X173825812Y-101125518D01*
X173789502Y-101005820D01*
X173730537Y-100895506D01*
X173651185Y-100798815D01*
X173554494Y-100719463D01*
X173444180Y-100660498D01*
X173324482Y-100624188D01*
X173200000Y-100611928D01*
X171200000Y-100611928D01*
X171075518Y-100624188D01*
X170955820Y-100660498D01*
X170845506Y-100719463D01*
X170748815Y-100798815D01*
X170669463Y-100895506D01*
X170610498Y-101005820D01*
X170574188Y-101125518D01*
X170561928Y-101250000D01*
X168644662Y-101250000D01*
X168844912Y-101210168D01*
X169142463Y-101086918D01*
X169410252Y-100907987D01*
X169637987Y-100680252D01*
X169816918Y-100412463D01*
X169935161Y-100127000D01*
X173000000Y-100127000D01*
X173024776Y-100124560D01*
X173048601Y-100117333D01*
X173070557Y-100105597D01*
X173089803Y-100089803D01*
X173105597Y-100070557D01*
X173117333Y-100048601D01*
X173124560Y-100024776D01*
X173127000Y-100000000D01*
X173127000Y-96053740D01*
X173275000Y-96053740D01*
X173275000Y-96346260D01*
X173332068Y-96633158D01*
X173444010Y-96903411D01*
X173606525Y-97146632D01*
X173813368Y-97353475D01*
X174056589Y-97515990D01*
X174326842Y-97627932D01*
X174613740Y-97685000D01*
X174906260Y-97685000D01*
X175193158Y-97627932D01*
X175463411Y-97515990D01*
X175706632Y-97353475D01*
X175838487Y-97221620D01*
X175860498Y-97294180D01*
X175919463Y-97404494D01*
X175998815Y-97501185D01*
X176095506Y-97580537D01*
X176205820Y-97639502D01*
X176325518Y-97675812D01*
X176450000Y-97688072D01*
X178150000Y-97688072D01*
X178274482Y-97675812D01*
X178394180Y-97639502D01*
X178504494Y-97580537D01*
X178601185Y-97501185D01*
X178680537Y-97404494D01*
X178739502Y-97294180D01*
X178775812Y-97174482D01*
X178788072Y-97050000D01*
X178788072Y-95350000D01*
X178775812Y-95225518D01*
X178739502Y-95105820D01*
X178680537Y-94995506D01*
X178601185Y-94898815D01*
X178504494Y-94819463D01*
X178394180Y-94760498D01*
X178274482Y-94724188D01*
X178150000Y-94711928D01*
X176450000Y-94711928D01*
X176325518Y-94724188D01*
X176205820Y-94760498D01*
X176095506Y-94819463D01*
X175998815Y-94898815D01*
X175919463Y-94995506D01*
X175860498Y-95105820D01*
X175838487Y-95178380D01*
X175706632Y-95046525D01*
X175463411Y-94884010D01*
X175193158Y-94772068D01*
X174906260Y-94715000D01*
X174613740Y-94715000D01*
X174326842Y-94772068D01*
X174056589Y-94884010D01*
X173813368Y-95046525D01*
X173606525Y-95253368D01*
X173444010Y-95496589D01*
X173332068Y-95766842D01*
X173275000Y-96053740D01*
X173127000Y-96053740D01*
X173127000Y-91253740D01*
X173275000Y-91253740D01*
X173275000Y-91546260D01*
X173332068Y-91833158D01*
X173444010Y-92103411D01*
X173606525Y-92346632D01*
X173813368Y-92553475D01*
X174056589Y-92715990D01*
X174326842Y-92827932D01*
X174613740Y-92885000D01*
X174906260Y-92885000D01*
X175193158Y-92827932D01*
X175463411Y-92715990D01*
X175706632Y-92553475D01*
X175838487Y-92421620D01*
X175860498Y-92494180D01*
X175919463Y-92604494D01*
X175998815Y-92701185D01*
X176095506Y-92780537D01*
X176205820Y-92839502D01*
X176325518Y-92875812D01*
X176450000Y-92888072D01*
X177014250Y-92885000D01*
X177173000Y-92726250D01*
X177173000Y-91527000D01*
X177427000Y-91527000D01*
X177427000Y-92726250D01*
X177585750Y-92885000D01*
X178150000Y-92888072D01*
X178274482Y-92875812D01*
X178394180Y-92839502D01*
X178504494Y-92780537D01*
X178601185Y-92701185D01*
X178680537Y-92604494D01*
X178739502Y-92494180D01*
X178775812Y-92374482D01*
X178788072Y-92250000D01*
X178785000Y-91685750D01*
X178626250Y-91527000D01*
X177427000Y-91527000D01*
X177173000Y-91527000D01*
X177153000Y-91527000D01*
X177153000Y-91273000D01*
X177173000Y-91273000D01*
X177173000Y-90073750D01*
X177427000Y-90073750D01*
X177427000Y-91273000D01*
X178626250Y-91273000D01*
X178785000Y-91114250D01*
X178788072Y-90550000D01*
X178775812Y-90425518D01*
X178739502Y-90305820D01*
X178680537Y-90195506D01*
X178601185Y-90098815D01*
X178504494Y-90019463D01*
X178394180Y-89960498D01*
X178274482Y-89924188D01*
X178150000Y-89911928D01*
X177585750Y-89915000D01*
X177427000Y-90073750D01*
X177173000Y-90073750D01*
X177014250Y-89915000D01*
X176450000Y-89911928D01*
X176325518Y-89924188D01*
X176205820Y-89960498D01*
X176095506Y-90019463D01*
X175998815Y-90098815D01*
X175919463Y-90195506D01*
X175860498Y-90305820D01*
X175838487Y-90378380D01*
X175706632Y-90246525D01*
X175463411Y-90084010D01*
X175193158Y-89972068D01*
X174906260Y-89915000D01*
X174613740Y-89915000D01*
X174326842Y-89972068D01*
X174056589Y-90084010D01*
X173813368Y-90246525D01*
X173606525Y-90453368D01*
X173444010Y-90696589D01*
X173332068Y-90966842D01*
X173275000Y-91253740D01*
X173127000Y-91253740D01*
X173127000Y-86127000D01*
X174553412Y-86127000D01*
X174326842Y-86172068D01*
G37*
%TD.AperFunction*%
%TD*%
D24*
%TO.N,+12V*%
X179340000Y-11565827D02*
X179340001Y-47435526D01*
X158871634Y-57182368D01*
X158154373Y-57194752D01*
X140735396Y-48900000D01*
X148011928Y-48900000D01*
X148011928Y-50600000D01*
X148024188Y-50724482D01*
X148060498Y-50844180D01*
X148119463Y-50954494D01*
X148198815Y-51051185D01*
X148295506Y-51130537D01*
X148405820Y-51189502D01*
X148525518Y-51225812D01*
X148650000Y-51238072D01*
X150350000Y-51238072D01*
X150474482Y-51225812D01*
X150594180Y-51189502D01*
X150704494Y-51130537D01*
X150801185Y-51051185D01*
X150880537Y-50954494D01*
X150939502Y-50844180D01*
X150961513Y-50771620D01*
X151093368Y-50903475D01*
X151336589Y-51065990D01*
X151606842Y-51177932D01*
X151893740Y-51235000D01*
X152186260Y-51235000D01*
X152473158Y-51177932D01*
X152743411Y-51065990D01*
X152986632Y-50903475D01*
X153193475Y-50696632D01*
X153310000Y-50522240D01*
X153426525Y-50696632D01*
X153633368Y-50903475D01*
X153876589Y-51065990D01*
X154146842Y-51177932D01*
X154433740Y-51235000D01*
X154726260Y-51235000D01*
X155013158Y-51177932D01*
X155283411Y-51065990D01*
X155526632Y-50903475D01*
X155733475Y-50696632D01*
X155850000Y-50522240D01*
X155966525Y-50696632D01*
X156173368Y-50903475D01*
X156416589Y-51065990D01*
X156686842Y-51177932D01*
X156973740Y-51235000D01*
X157266260Y-51235000D01*
X157553158Y-51177932D01*
X157823411Y-51065990D01*
X158066632Y-50903475D01*
X158273475Y-50696632D01*
X158390000Y-50522240D01*
X158506525Y-50696632D01*
X158713368Y-50903475D01*
X158956589Y-51065990D01*
X159226842Y-51177932D01*
X159513740Y-51235000D01*
X159806260Y-51235000D01*
X160093158Y-51177932D01*
X160363411Y-51065990D01*
X160606632Y-50903475D01*
X160813475Y-50696632D01*
X160930000Y-50522240D01*
X161046525Y-50696632D01*
X161253368Y-50903475D01*
X161496589Y-51065990D01*
X161766842Y-51177932D01*
X162053740Y-51235000D01*
X162346260Y-51235000D01*
X162633158Y-51177932D01*
X162903411Y-51065990D01*
X163146632Y-50903475D01*
X163353475Y-50696632D01*
X163470000Y-50522240D01*
X163586525Y-50696632D01*
X163793368Y-50903475D01*
X164036589Y-51065990D01*
X164306842Y-51177932D01*
X164593740Y-51235000D01*
X164886260Y-51235000D01*
X165173158Y-51177932D01*
X165443411Y-51065990D01*
X165686632Y-50903475D01*
X165893475Y-50696632D01*
X166015195Y-50514466D01*
X166084822Y-50631355D01*
X166279731Y-50847588D01*
X166513080Y-51021641D01*
X166775901Y-51146825D01*
X166923110Y-51191476D01*
X167153000Y-51070155D01*
X167153000Y-49877000D01*
X167407000Y-49877000D01*
X167407000Y-51070155D01*
X167636890Y-51191476D01*
X167784099Y-51146825D01*
X168046920Y-51021641D01*
X168280269Y-50847588D01*
X168475178Y-50631355D01*
X168624157Y-50381252D01*
X168721481Y-50106891D01*
X168600814Y-49877000D01*
X167407000Y-49877000D01*
X167153000Y-49877000D01*
X167133000Y-49877000D01*
X167133000Y-49623000D01*
X167153000Y-49623000D01*
X167153000Y-48429845D01*
X167407000Y-48429845D01*
X167407000Y-49623000D01*
X168600814Y-49623000D01*
X168721481Y-49393109D01*
X168624157Y-49118748D01*
X168475178Y-48868645D01*
X168280269Y-48652412D01*
X168046920Y-48478359D01*
X167784099Y-48353175D01*
X167636890Y-48308524D01*
X167407000Y-48429845D01*
X167153000Y-48429845D01*
X166923110Y-48308524D01*
X166775901Y-48353175D01*
X166513080Y-48478359D01*
X166279731Y-48652412D01*
X166084822Y-48868645D01*
X166015195Y-48985534D01*
X165893475Y-48803368D01*
X165686632Y-48596525D01*
X165443411Y-48434010D01*
X165173158Y-48322068D01*
X164886260Y-48265000D01*
X164593740Y-48265000D01*
X164306842Y-48322068D01*
X164036589Y-48434010D01*
X163793368Y-48596525D01*
X163586525Y-48803368D01*
X163470000Y-48977760D01*
X163353475Y-48803368D01*
X163146632Y-48596525D01*
X162903411Y-48434010D01*
X162633158Y-48322068D01*
X162346260Y-48265000D01*
X162053740Y-48265000D01*
X161766842Y-48322068D01*
X161496589Y-48434010D01*
X161253368Y-48596525D01*
X161046525Y-48803368D01*
X160930000Y-48977760D01*
X160813475Y-48803368D01*
X160606632Y-48596525D01*
X160363411Y-48434010D01*
X160093158Y-48322068D01*
X159806260Y-48265000D01*
X159513740Y-48265000D01*
X159226842Y-48322068D01*
X158956589Y-48434010D01*
X158713368Y-48596525D01*
X158506525Y-48803368D01*
X158390000Y-48977760D01*
X158273475Y-48803368D01*
X158066632Y-48596525D01*
X157823411Y-48434010D01*
X157553158Y-48322068D01*
X157266260Y-48265000D01*
X156973740Y-48265000D01*
X156686842Y-48322068D01*
X156416589Y-48434010D01*
X156173368Y-48596525D01*
X155966525Y-48803368D01*
X155850000Y-48977760D01*
X155733475Y-48803368D01*
X155526632Y-48596525D01*
X155283411Y-48434010D01*
X155013158Y-48322068D01*
X154726260Y-48265000D01*
X154433740Y-48265000D01*
X154146842Y-48322068D01*
X153876589Y-48434010D01*
X153633368Y-48596525D01*
X153426525Y-48803368D01*
X153310000Y-48977760D01*
X153193475Y-48803368D01*
X152986632Y-48596525D01*
X152743411Y-48434010D01*
X152473158Y-48322068D01*
X152186260Y-48265000D01*
X151893740Y-48265000D01*
X151606842Y-48322068D01*
X151336589Y-48434010D01*
X151093368Y-48596525D01*
X150961513Y-48728380D01*
X150939502Y-48655820D01*
X150880537Y-48545506D01*
X150801185Y-48448815D01*
X150704494Y-48369463D01*
X150594180Y-48310498D01*
X150474482Y-48274188D01*
X150350000Y-48261928D01*
X148650000Y-48261928D01*
X148525518Y-48274188D01*
X148405820Y-48310498D01*
X148295506Y-48369463D01*
X148198815Y-48448815D01*
X148119463Y-48545506D01*
X148060498Y-48655820D01*
X148024188Y-48775518D01*
X148011928Y-48900000D01*
X140735396Y-48900000D01*
X137660000Y-47435526D01*
X137660000Y-45124911D01*
X137735225Y-39708665D01*
X155063523Y-39708665D01*
X155063523Y-39991335D01*
X155118670Y-40268574D01*
X155226843Y-40529727D01*
X155383886Y-40764759D01*
X155583764Y-40964637D01*
X155818796Y-41121680D01*
X156079949Y-41229853D01*
X156357188Y-41285000D01*
X156639858Y-41285000D01*
X156917097Y-41229853D01*
X157178250Y-41121680D01*
X157413282Y-40964637D01*
X157613160Y-40764759D01*
X157770203Y-40529727D01*
X157878376Y-40268574D01*
X157933523Y-39991335D01*
X157933523Y-39708665D01*
X159066477Y-39708665D01*
X159066477Y-39991335D01*
X159121624Y-40268574D01*
X159229797Y-40529727D01*
X159386840Y-40764759D01*
X159586718Y-40964637D01*
X159821750Y-41121680D01*
X160082903Y-41229853D01*
X160360142Y-41285000D01*
X160642812Y-41285000D01*
X160920051Y-41229853D01*
X161181204Y-41121680D01*
X161416236Y-40964637D01*
X161616114Y-40764759D01*
X161773157Y-40529727D01*
X161881330Y-40268574D01*
X161936477Y-39991335D01*
X161936477Y-39708665D01*
X161881330Y-39431426D01*
X161773157Y-39170273D01*
X161616114Y-38935241D01*
X161416236Y-38735363D01*
X161181204Y-38578320D01*
X160920051Y-38470147D01*
X160642812Y-38415000D01*
X160360142Y-38415000D01*
X160082903Y-38470147D01*
X159821750Y-38578320D01*
X159586718Y-38735363D01*
X159386840Y-38935241D01*
X159229797Y-39170273D01*
X159121624Y-39431426D01*
X159066477Y-39708665D01*
X157933523Y-39708665D01*
X157878376Y-39431426D01*
X157770203Y-39170273D01*
X157613160Y-38935241D01*
X157413282Y-38735363D01*
X157178250Y-38578320D01*
X156917097Y-38470147D01*
X156639858Y-38415000D01*
X156357188Y-38415000D01*
X156079949Y-38470147D01*
X155818796Y-38578320D01*
X155583764Y-38735363D01*
X155383886Y-38935241D01*
X155226843Y-39170273D01*
X155118670Y-39431426D01*
X155063523Y-39708665D01*
X137735225Y-39708665D01*
X137823419Y-33358665D01*
X144065000Y-33358665D01*
X144065000Y-33641335D01*
X144120147Y-33918574D01*
X144228320Y-34179727D01*
X144385363Y-34414759D01*
X144585241Y-34614637D01*
X144820273Y-34771680D01*
X145081426Y-34879853D01*
X145358665Y-34935000D01*
X145641335Y-34935000D01*
X145918574Y-34879853D01*
X146179727Y-34771680D01*
X146414759Y-34614637D01*
X146614637Y-34414759D01*
X146771680Y-34179727D01*
X146879853Y-33918574D01*
X146935000Y-33641335D01*
X146935000Y-33358665D01*
X170065000Y-33358665D01*
X170065000Y-33641335D01*
X170120147Y-33918574D01*
X170228320Y-34179727D01*
X170385363Y-34414759D01*
X170585241Y-34614637D01*
X170820273Y-34771680D01*
X171081426Y-34879853D01*
X171358665Y-34935000D01*
X171641335Y-34935000D01*
X171918574Y-34879853D01*
X172179727Y-34771680D01*
X172414759Y-34614637D01*
X172614637Y-34414759D01*
X172771680Y-34179727D01*
X172879853Y-33918574D01*
X172935000Y-33641335D01*
X172935000Y-33358665D01*
X172879853Y-33081426D01*
X172771680Y-32820273D01*
X172614637Y-32585241D01*
X172414759Y-32385363D01*
X172179727Y-32228320D01*
X171918574Y-32120147D01*
X171641335Y-32065000D01*
X171358665Y-32065000D01*
X171081426Y-32120147D01*
X170820273Y-32228320D01*
X170585241Y-32385363D01*
X170385363Y-32585241D01*
X170228320Y-32820273D01*
X170120147Y-33081426D01*
X170065000Y-33358665D01*
X146935000Y-33358665D01*
X146879853Y-33081426D01*
X146771680Y-32820273D01*
X146614637Y-32585241D01*
X146414759Y-32385363D01*
X146179727Y-32228320D01*
X145918574Y-32120147D01*
X145641335Y-32065000D01*
X145358665Y-32065000D01*
X145081426Y-32120147D01*
X144820273Y-32228320D01*
X144585241Y-32385363D01*
X144385363Y-32585241D01*
X144228320Y-32820273D01*
X144120147Y-33081426D01*
X144065000Y-33358665D01*
X137823419Y-33358665D01*
X137869253Y-30058665D01*
X142065000Y-30058665D01*
X142065000Y-30341335D01*
X142120147Y-30618574D01*
X142228320Y-30879727D01*
X142385363Y-31114759D01*
X142585241Y-31314637D01*
X142820273Y-31471680D01*
X143081426Y-31579853D01*
X143358665Y-31635000D01*
X143641335Y-31635000D01*
X143918574Y-31579853D01*
X144179727Y-31471680D01*
X144414759Y-31314637D01*
X144614637Y-31114759D01*
X144771680Y-30879727D01*
X144879853Y-30618574D01*
X144935000Y-30341335D01*
X144935000Y-30058665D01*
X172065000Y-30058665D01*
X172065000Y-30341335D01*
X172120147Y-30618574D01*
X172228320Y-30879727D01*
X172385363Y-31114759D01*
X172585241Y-31314637D01*
X172820273Y-31471680D01*
X173081426Y-31579853D01*
X173358665Y-31635000D01*
X173641335Y-31635000D01*
X173918574Y-31579853D01*
X174179727Y-31471680D01*
X174414759Y-31314637D01*
X174614637Y-31114759D01*
X174771680Y-30879727D01*
X174879853Y-30618574D01*
X174935000Y-30341335D01*
X174935000Y-30058665D01*
X174879853Y-29781426D01*
X174771680Y-29520273D01*
X174614637Y-29285241D01*
X174414759Y-29085363D01*
X174179727Y-28928320D01*
X173918574Y-28820147D01*
X173641335Y-28765000D01*
X173358665Y-28765000D01*
X173081426Y-28820147D01*
X172820273Y-28928320D01*
X172585241Y-29085363D01*
X172385363Y-29285241D01*
X172228320Y-29520273D01*
X172120147Y-29781426D01*
X172065000Y-30058665D01*
X144935000Y-30058665D01*
X144879853Y-29781426D01*
X144771680Y-29520273D01*
X144614637Y-29285241D01*
X144414759Y-29085363D01*
X144179727Y-28928320D01*
X143918574Y-28820147D01*
X143641335Y-28765000D01*
X143358665Y-28765000D01*
X143081426Y-28820147D01*
X142820273Y-28928320D01*
X142585241Y-29085363D01*
X142385363Y-29285241D01*
X142228320Y-29520273D01*
X142120147Y-29781426D01*
X142065000Y-30058665D01*
X137869253Y-30058665D01*
X138045641Y-17358665D01*
X142065000Y-17358665D01*
X142065000Y-17641335D01*
X142120147Y-17918574D01*
X142228320Y-18179727D01*
X142385363Y-18414759D01*
X142585241Y-18614637D01*
X142820273Y-18771680D01*
X143081426Y-18879853D01*
X143358665Y-18935000D01*
X143641335Y-18935000D01*
X143918574Y-18879853D01*
X144179727Y-18771680D01*
X144414759Y-18614637D01*
X144614637Y-18414759D01*
X144771680Y-18179727D01*
X144879853Y-17918574D01*
X144935000Y-17641335D01*
X144935000Y-17358665D01*
X172065000Y-17358665D01*
X172065000Y-17641335D01*
X172120147Y-17918574D01*
X172228320Y-18179727D01*
X172385363Y-18414759D01*
X172585241Y-18614637D01*
X172820273Y-18771680D01*
X173081426Y-18879853D01*
X173358665Y-18935000D01*
X173641335Y-18935000D01*
X173918574Y-18879853D01*
X174179727Y-18771680D01*
X174414759Y-18614637D01*
X174614637Y-18414759D01*
X174771680Y-18179727D01*
X174879853Y-17918574D01*
X174935000Y-17641335D01*
X174935000Y-17358665D01*
X174879853Y-17081426D01*
X174771680Y-16820273D01*
X174614637Y-16585241D01*
X174414759Y-16385363D01*
X174179727Y-16228320D01*
X173918574Y-16120147D01*
X173641335Y-16065000D01*
X173358665Y-16065000D01*
X173081426Y-16120147D01*
X172820273Y-16228320D01*
X172585241Y-16385363D01*
X172385363Y-16585241D01*
X172228320Y-16820273D01*
X172120147Y-17081426D01*
X172065000Y-17358665D01*
X144935000Y-17358665D01*
X144879853Y-17081426D01*
X144771680Y-16820273D01*
X144614637Y-16585241D01*
X144414759Y-16385363D01*
X144179727Y-16228320D01*
X143918574Y-16120147D01*
X143641335Y-16065000D01*
X143358665Y-16065000D01*
X143081426Y-16120147D01*
X142820273Y-16228320D01*
X142585241Y-16385363D01*
X142385363Y-16585241D01*
X142228320Y-16820273D01*
X142120147Y-17081426D01*
X142065000Y-17358665D01*
X138045641Y-17358665D01*
X138096335Y-13708665D01*
X144066477Y-13708665D01*
X144066477Y-13991335D01*
X144121624Y-14268574D01*
X144229797Y-14529727D01*
X144386840Y-14764759D01*
X144586718Y-14964637D01*
X144821750Y-15121680D01*
X145082903Y-15229853D01*
X145360142Y-15285000D01*
X145642812Y-15285000D01*
X145920051Y-15229853D01*
X146181204Y-15121680D01*
X146416236Y-14964637D01*
X146616114Y-14764759D01*
X146773157Y-14529727D01*
X146881330Y-14268574D01*
X146936477Y-13991335D01*
X146936477Y-13708665D01*
X170063523Y-13708665D01*
X170063523Y-13991335D01*
X170118670Y-14268574D01*
X170226843Y-14529727D01*
X170383886Y-14764759D01*
X170583764Y-14964637D01*
X170818796Y-15121680D01*
X171079949Y-15229853D01*
X171357188Y-15285000D01*
X171639858Y-15285000D01*
X171917097Y-15229853D01*
X172178250Y-15121680D01*
X172413282Y-14964637D01*
X172613160Y-14764759D01*
X172770203Y-14529727D01*
X172878376Y-14268574D01*
X172933523Y-13991335D01*
X172933523Y-13708665D01*
X172878376Y-13431426D01*
X172770203Y-13170273D01*
X172613160Y-12935241D01*
X172413282Y-12735363D01*
X172178250Y-12578320D01*
X171917097Y-12470147D01*
X171639858Y-12415000D01*
X171357188Y-12415000D01*
X171079949Y-12470147D01*
X170818796Y-12578320D01*
X170583764Y-12735363D01*
X170383886Y-12935241D01*
X170226843Y-13170273D01*
X170118670Y-13431426D01*
X170063523Y-13708665D01*
X146936477Y-13708665D01*
X146881330Y-13431426D01*
X146773157Y-13170273D01*
X146616114Y-12935241D01*
X146416236Y-12735363D01*
X146181204Y-12578320D01*
X145920051Y-12470147D01*
X145642812Y-12415000D01*
X145360142Y-12415000D01*
X145082903Y-12470147D01*
X144821750Y-12578320D01*
X144586718Y-12735363D01*
X144386840Y-12935241D01*
X144229797Y-13170273D01*
X144121624Y-13431426D01*
X144066477Y-13708665D01*
X138096335Y-13708665D01*
X138125867Y-11582451D01*
X147462657Y-7358665D01*
X155065000Y-7358665D01*
X155065000Y-7641335D01*
X155120147Y-7918574D01*
X155228320Y-8179727D01*
X155385363Y-8414759D01*
X155585241Y-8614637D01*
X155820273Y-8771680D01*
X156081426Y-8879853D01*
X156358665Y-8935000D01*
X156641335Y-8935000D01*
X156918574Y-8879853D01*
X157179727Y-8771680D01*
X157414759Y-8614637D01*
X157614637Y-8414759D01*
X157771680Y-8179727D01*
X157879853Y-7918574D01*
X157935000Y-7641335D01*
X157935000Y-7358665D01*
X159065000Y-7358665D01*
X159065000Y-7641335D01*
X159120147Y-7918574D01*
X159228320Y-8179727D01*
X159385363Y-8414759D01*
X159585241Y-8614637D01*
X159820273Y-8771680D01*
X160081426Y-8879853D01*
X160358665Y-8935000D01*
X160641335Y-8935000D01*
X160918574Y-8879853D01*
X161179727Y-8771680D01*
X161414759Y-8614637D01*
X161614637Y-8414759D01*
X161771680Y-8179727D01*
X161879853Y-7918574D01*
X161935000Y-7641335D01*
X161935000Y-7358665D01*
X161879853Y-7081426D01*
X161771680Y-6820273D01*
X161614637Y-6585241D01*
X161414759Y-6385363D01*
X161179727Y-6228320D01*
X160918574Y-6120147D01*
X160641335Y-6065000D01*
X160358665Y-6065000D01*
X160081426Y-6120147D01*
X159820273Y-6228320D01*
X159585241Y-6385363D01*
X159385363Y-6585241D01*
X159228320Y-6820273D01*
X159120147Y-7081426D01*
X159065000Y-7358665D01*
X157935000Y-7358665D01*
X157879853Y-7081426D01*
X157771680Y-6820273D01*
X157614637Y-6585241D01*
X157414759Y-6385363D01*
X157179727Y-6228320D01*
X156918574Y-6120147D01*
X156641335Y-6065000D01*
X156358665Y-6065000D01*
X156081426Y-6120147D01*
X155820273Y-6228320D01*
X155585241Y-6385363D01*
X155385363Y-6585241D01*
X155228320Y-6820273D01*
X155120147Y-7081426D01*
X155065000Y-7358665D01*
X147462657Y-7358665D01*
X158999363Y-2139679D01*
X179340000Y-11565827D01*
%TA.AperFunction,Conductor*%
D25*
G36*
X179340000Y-11565827D02*
G01*
X179340001Y-47435526D01*
X158871634Y-57182368D01*
X158154373Y-57194752D01*
X140735396Y-48900000D01*
X148011928Y-48900000D01*
X148011928Y-50600000D01*
X148024188Y-50724482D01*
X148060498Y-50844180D01*
X148119463Y-50954494D01*
X148198815Y-51051185D01*
X148295506Y-51130537D01*
X148405820Y-51189502D01*
X148525518Y-51225812D01*
X148650000Y-51238072D01*
X150350000Y-51238072D01*
X150474482Y-51225812D01*
X150594180Y-51189502D01*
X150704494Y-51130537D01*
X150801185Y-51051185D01*
X150880537Y-50954494D01*
X150939502Y-50844180D01*
X150961513Y-50771620D01*
X151093368Y-50903475D01*
X151336589Y-51065990D01*
X151606842Y-51177932D01*
X151893740Y-51235000D01*
X152186260Y-51235000D01*
X152473158Y-51177932D01*
X152743411Y-51065990D01*
X152986632Y-50903475D01*
X153193475Y-50696632D01*
X153310000Y-50522240D01*
X153426525Y-50696632D01*
X153633368Y-50903475D01*
X153876589Y-51065990D01*
X154146842Y-51177932D01*
X154433740Y-51235000D01*
X154726260Y-51235000D01*
X155013158Y-51177932D01*
X155283411Y-51065990D01*
X155526632Y-50903475D01*
X155733475Y-50696632D01*
X155850000Y-50522240D01*
X155966525Y-50696632D01*
X156173368Y-50903475D01*
X156416589Y-51065990D01*
X156686842Y-51177932D01*
X156973740Y-51235000D01*
X157266260Y-51235000D01*
X157553158Y-51177932D01*
X157823411Y-51065990D01*
X158066632Y-50903475D01*
X158273475Y-50696632D01*
X158390000Y-50522240D01*
X158506525Y-50696632D01*
X158713368Y-50903475D01*
X158956589Y-51065990D01*
X159226842Y-51177932D01*
X159513740Y-51235000D01*
X159806260Y-51235000D01*
X160093158Y-51177932D01*
X160363411Y-51065990D01*
X160606632Y-50903475D01*
X160813475Y-50696632D01*
X160930000Y-50522240D01*
X161046525Y-50696632D01*
X161253368Y-50903475D01*
X161496589Y-51065990D01*
X161766842Y-51177932D01*
X162053740Y-51235000D01*
X162346260Y-51235000D01*
X162633158Y-51177932D01*
X162903411Y-51065990D01*
X163146632Y-50903475D01*
X163353475Y-50696632D01*
X163470000Y-50522240D01*
X163586525Y-50696632D01*
X163793368Y-50903475D01*
X164036589Y-51065990D01*
X164306842Y-51177932D01*
X164593740Y-51235000D01*
X164886260Y-51235000D01*
X165173158Y-51177932D01*
X165443411Y-51065990D01*
X165686632Y-50903475D01*
X165893475Y-50696632D01*
X166015195Y-50514466D01*
X166084822Y-50631355D01*
X166279731Y-50847588D01*
X166513080Y-51021641D01*
X166775901Y-51146825D01*
X166923110Y-51191476D01*
X167153000Y-51070155D01*
X167153000Y-49877000D01*
X167407000Y-49877000D01*
X167407000Y-51070155D01*
X167636890Y-51191476D01*
X167784099Y-51146825D01*
X168046920Y-51021641D01*
X168280269Y-50847588D01*
X168475178Y-50631355D01*
X168624157Y-50381252D01*
X168721481Y-50106891D01*
X168600814Y-49877000D01*
X167407000Y-49877000D01*
X167153000Y-49877000D01*
X167133000Y-49877000D01*
X167133000Y-49623000D01*
X167153000Y-49623000D01*
X167153000Y-48429845D01*
X167407000Y-48429845D01*
X167407000Y-49623000D01*
X168600814Y-49623000D01*
X168721481Y-49393109D01*
X168624157Y-49118748D01*
X168475178Y-48868645D01*
X168280269Y-48652412D01*
X168046920Y-48478359D01*
X167784099Y-48353175D01*
X167636890Y-48308524D01*
X167407000Y-48429845D01*
X167153000Y-48429845D01*
X166923110Y-48308524D01*
X166775901Y-48353175D01*
X166513080Y-48478359D01*
X166279731Y-48652412D01*
X166084822Y-48868645D01*
X166015195Y-48985534D01*
X165893475Y-48803368D01*
X165686632Y-48596525D01*
X165443411Y-48434010D01*
X165173158Y-48322068D01*
X164886260Y-48265000D01*
X164593740Y-48265000D01*
X164306842Y-48322068D01*
X164036589Y-48434010D01*
X163793368Y-48596525D01*
X163586525Y-48803368D01*
X163470000Y-48977760D01*
X163353475Y-48803368D01*
X163146632Y-48596525D01*
X162903411Y-48434010D01*
X162633158Y-48322068D01*
X162346260Y-48265000D01*
X162053740Y-48265000D01*
X161766842Y-48322068D01*
X161496589Y-48434010D01*
X161253368Y-48596525D01*
X161046525Y-48803368D01*
X160930000Y-48977760D01*
X160813475Y-48803368D01*
X160606632Y-48596525D01*
X160363411Y-48434010D01*
X160093158Y-48322068D01*
X159806260Y-48265000D01*
X159513740Y-48265000D01*
X159226842Y-48322068D01*
X158956589Y-48434010D01*
X158713368Y-48596525D01*
X158506525Y-48803368D01*
X158390000Y-48977760D01*
X158273475Y-48803368D01*
X158066632Y-48596525D01*
X157823411Y-48434010D01*
X157553158Y-48322068D01*
X157266260Y-48265000D01*
X156973740Y-48265000D01*
X156686842Y-48322068D01*
X156416589Y-48434010D01*
X156173368Y-48596525D01*
X155966525Y-48803368D01*
X155850000Y-48977760D01*
X155733475Y-48803368D01*
X155526632Y-48596525D01*
X155283411Y-48434010D01*
X155013158Y-48322068D01*
X154726260Y-48265000D01*
X154433740Y-48265000D01*
X154146842Y-48322068D01*
X153876589Y-48434010D01*
X153633368Y-48596525D01*
X153426525Y-48803368D01*
X153310000Y-48977760D01*
X153193475Y-48803368D01*
X152986632Y-48596525D01*
X152743411Y-48434010D01*
X152473158Y-48322068D01*
X152186260Y-48265000D01*
X151893740Y-48265000D01*
X151606842Y-48322068D01*
X151336589Y-48434010D01*
X151093368Y-48596525D01*
X150961513Y-48728380D01*
X150939502Y-48655820D01*
X150880537Y-48545506D01*
X150801185Y-48448815D01*
X150704494Y-48369463D01*
X150594180Y-48310498D01*
X150474482Y-48274188D01*
X150350000Y-48261928D01*
X148650000Y-48261928D01*
X148525518Y-48274188D01*
X148405820Y-48310498D01*
X148295506Y-48369463D01*
X148198815Y-48448815D01*
X148119463Y-48545506D01*
X148060498Y-48655820D01*
X148024188Y-48775518D01*
X148011928Y-48900000D01*
X140735396Y-48900000D01*
X137660000Y-47435526D01*
X137660000Y-45124911D01*
X137735225Y-39708665D01*
X155063523Y-39708665D01*
X155063523Y-39991335D01*
X155118670Y-40268574D01*
X155226843Y-40529727D01*
X155383886Y-40764759D01*
X155583764Y-40964637D01*
X155818796Y-41121680D01*
X156079949Y-41229853D01*
X156357188Y-41285000D01*
X156639858Y-41285000D01*
X156917097Y-41229853D01*
X157178250Y-41121680D01*
X157413282Y-40964637D01*
X157613160Y-40764759D01*
X157770203Y-40529727D01*
X157878376Y-40268574D01*
X157933523Y-39991335D01*
X157933523Y-39708665D01*
X159066477Y-39708665D01*
X159066477Y-39991335D01*
X159121624Y-40268574D01*
X159229797Y-40529727D01*
X159386840Y-40764759D01*
X159586718Y-40964637D01*
X159821750Y-41121680D01*
X160082903Y-41229853D01*
X160360142Y-41285000D01*
X160642812Y-41285000D01*
X160920051Y-41229853D01*
X161181204Y-41121680D01*
X161416236Y-40964637D01*
X161616114Y-40764759D01*
X161773157Y-40529727D01*
X161881330Y-40268574D01*
X161936477Y-39991335D01*
X161936477Y-39708665D01*
X161881330Y-39431426D01*
X161773157Y-39170273D01*
X161616114Y-38935241D01*
X161416236Y-38735363D01*
X161181204Y-38578320D01*
X160920051Y-38470147D01*
X160642812Y-38415000D01*
X160360142Y-38415000D01*
X160082903Y-38470147D01*
X159821750Y-38578320D01*
X159586718Y-38735363D01*
X159386840Y-38935241D01*
X159229797Y-39170273D01*
X159121624Y-39431426D01*
X159066477Y-39708665D01*
X157933523Y-39708665D01*
X157878376Y-39431426D01*
X157770203Y-39170273D01*
X157613160Y-38935241D01*
X157413282Y-38735363D01*
X157178250Y-38578320D01*
X156917097Y-38470147D01*
X156639858Y-38415000D01*
X156357188Y-38415000D01*
X156079949Y-38470147D01*
X155818796Y-38578320D01*
X155583764Y-38735363D01*
X155383886Y-38935241D01*
X155226843Y-39170273D01*
X155118670Y-39431426D01*
X155063523Y-39708665D01*
X137735225Y-39708665D01*
X137823419Y-33358665D01*
X144065000Y-33358665D01*
X144065000Y-33641335D01*
X144120147Y-33918574D01*
X144228320Y-34179727D01*
X144385363Y-34414759D01*
X144585241Y-34614637D01*
X144820273Y-34771680D01*
X145081426Y-34879853D01*
X145358665Y-34935000D01*
X145641335Y-34935000D01*
X145918574Y-34879853D01*
X146179727Y-34771680D01*
X146414759Y-34614637D01*
X146614637Y-34414759D01*
X146771680Y-34179727D01*
X146879853Y-33918574D01*
X146935000Y-33641335D01*
X146935000Y-33358665D01*
X170065000Y-33358665D01*
X170065000Y-33641335D01*
X170120147Y-33918574D01*
X170228320Y-34179727D01*
X170385363Y-34414759D01*
X170585241Y-34614637D01*
X170820273Y-34771680D01*
X171081426Y-34879853D01*
X171358665Y-34935000D01*
X171641335Y-34935000D01*
X171918574Y-34879853D01*
X172179727Y-34771680D01*
X172414759Y-34614637D01*
X172614637Y-34414759D01*
X172771680Y-34179727D01*
X172879853Y-33918574D01*
X172935000Y-33641335D01*
X172935000Y-33358665D01*
X172879853Y-33081426D01*
X172771680Y-32820273D01*
X172614637Y-32585241D01*
X172414759Y-32385363D01*
X172179727Y-32228320D01*
X171918574Y-32120147D01*
X171641335Y-32065000D01*
X171358665Y-32065000D01*
X171081426Y-32120147D01*
X170820273Y-32228320D01*
X170585241Y-32385363D01*
X170385363Y-32585241D01*
X170228320Y-32820273D01*
X170120147Y-33081426D01*
X170065000Y-33358665D01*
X146935000Y-33358665D01*
X146879853Y-33081426D01*
X146771680Y-32820273D01*
X146614637Y-32585241D01*
X146414759Y-32385363D01*
X146179727Y-32228320D01*
X145918574Y-32120147D01*
X145641335Y-32065000D01*
X145358665Y-32065000D01*
X145081426Y-32120147D01*
X144820273Y-32228320D01*
X144585241Y-32385363D01*
X144385363Y-32585241D01*
X144228320Y-32820273D01*
X144120147Y-33081426D01*
X144065000Y-33358665D01*
X137823419Y-33358665D01*
X137869253Y-30058665D01*
X142065000Y-30058665D01*
X142065000Y-30341335D01*
X142120147Y-30618574D01*
X142228320Y-30879727D01*
X142385363Y-31114759D01*
X142585241Y-31314637D01*
X142820273Y-31471680D01*
X143081426Y-31579853D01*
X143358665Y-31635000D01*
X143641335Y-31635000D01*
X143918574Y-31579853D01*
X144179727Y-31471680D01*
X144414759Y-31314637D01*
X144614637Y-31114759D01*
X144771680Y-30879727D01*
X144879853Y-30618574D01*
X144935000Y-30341335D01*
X144935000Y-30058665D01*
X172065000Y-30058665D01*
X172065000Y-30341335D01*
X172120147Y-30618574D01*
X172228320Y-30879727D01*
X172385363Y-31114759D01*
X172585241Y-31314637D01*
X172820273Y-31471680D01*
X173081426Y-31579853D01*
X173358665Y-31635000D01*
X173641335Y-31635000D01*
X173918574Y-31579853D01*
X174179727Y-31471680D01*
X174414759Y-31314637D01*
X174614637Y-31114759D01*
X174771680Y-30879727D01*
X174879853Y-30618574D01*
X174935000Y-30341335D01*
X174935000Y-30058665D01*
X174879853Y-29781426D01*
X174771680Y-29520273D01*
X174614637Y-29285241D01*
X174414759Y-29085363D01*
X174179727Y-28928320D01*
X173918574Y-28820147D01*
X173641335Y-28765000D01*
X173358665Y-28765000D01*
X173081426Y-28820147D01*
X172820273Y-28928320D01*
X172585241Y-29085363D01*
X172385363Y-29285241D01*
X172228320Y-29520273D01*
X172120147Y-29781426D01*
X172065000Y-30058665D01*
X144935000Y-30058665D01*
X144879853Y-29781426D01*
X144771680Y-29520273D01*
X144614637Y-29285241D01*
X144414759Y-29085363D01*
X144179727Y-28928320D01*
X143918574Y-28820147D01*
X143641335Y-28765000D01*
X143358665Y-28765000D01*
X143081426Y-28820147D01*
X142820273Y-28928320D01*
X142585241Y-29085363D01*
X142385363Y-29285241D01*
X142228320Y-29520273D01*
X142120147Y-29781426D01*
X142065000Y-30058665D01*
X137869253Y-30058665D01*
X138045641Y-17358665D01*
X142065000Y-17358665D01*
X142065000Y-17641335D01*
X142120147Y-17918574D01*
X142228320Y-18179727D01*
X142385363Y-18414759D01*
X142585241Y-18614637D01*
X142820273Y-18771680D01*
X143081426Y-18879853D01*
X143358665Y-18935000D01*
X143641335Y-18935000D01*
X143918574Y-18879853D01*
X144179727Y-18771680D01*
X144414759Y-18614637D01*
X144614637Y-18414759D01*
X144771680Y-18179727D01*
X144879853Y-17918574D01*
X144935000Y-17641335D01*
X144935000Y-17358665D01*
X172065000Y-17358665D01*
X172065000Y-17641335D01*
X172120147Y-17918574D01*
X172228320Y-18179727D01*
X172385363Y-18414759D01*
X172585241Y-18614637D01*
X172820273Y-18771680D01*
X173081426Y-18879853D01*
X173358665Y-18935000D01*
X173641335Y-18935000D01*
X173918574Y-18879853D01*
X174179727Y-18771680D01*
X174414759Y-18614637D01*
X174614637Y-18414759D01*
X174771680Y-18179727D01*
X174879853Y-17918574D01*
X174935000Y-17641335D01*
X174935000Y-17358665D01*
X174879853Y-17081426D01*
X174771680Y-16820273D01*
X174614637Y-16585241D01*
X174414759Y-16385363D01*
X174179727Y-16228320D01*
X173918574Y-16120147D01*
X173641335Y-16065000D01*
X173358665Y-16065000D01*
X173081426Y-16120147D01*
X172820273Y-16228320D01*
X172585241Y-16385363D01*
X172385363Y-16585241D01*
X172228320Y-16820273D01*
X172120147Y-17081426D01*
X172065000Y-17358665D01*
X144935000Y-17358665D01*
X144879853Y-17081426D01*
X144771680Y-16820273D01*
X144614637Y-16585241D01*
X144414759Y-16385363D01*
X144179727Y-16228320D01*
X143918574Y-16120147D01*
X143641335Y-16065000D01*
X143358665Y-16065000D01*
X143081426Y-16120147D01*
X142820273Y-16228320D01*
X142585241Y-16385363D01*
X142385363Y-16585241D01*
X142228320Y-16820273D01*
X142120147Y-17081426D01*
X142065000Y-17358665D01*
X138045641Y-17358665D01*
X138096335Y-13708665D01*
X144066477Y-13708665D01*
X144066477Y-13991335D01*
X144121624Y-14268574D01*
X144229797Y-14529727D01*
X144386840Y-14764759D01*
X144586718Y-14964637D01*
X144821750Y-15121680D01*
X145082903Y-15229853D01*
X145360142Y-15285000D01*
X145642812Y-15285000D01*
X145920051Y-15229853D01*
X146181204Y-15121680D01*
X146416236Y-14964637D01*
X146616114Y-14764759D01*
X146773157Y-14529727D01*
X146881330Y-14268574D01*
X146936477Y-13991335D01*
X146936477Y-13708665D01*
X170063523Y-13708665D01*
X170063523Y-13991335D01*
X170118670Y-14268574D01*
X170226843Y-14529727D01*
X170383886Y-14764759D01*
X170583764Y-14964637D01*
X170818796Y-15121680D01*
X171079949Y-15229853D01*
X171357188Y-15285000D01*
X171639858Y-15285000D01*
X171917097Y-15229853D01*
X172178250Y-15121680D01*
X172413282Y-14964637D01*
X172613160Y-14764759D01*
X172770203Y-14529727D01*
X172878376Y-14268574D01*
X172933523Y-13991335D01*
X172933523Y-13708665D01*
X172878376Y-13431426D01*
X172770203Y-13170273D01*
X172613160Y-12935241D01*
X172413282Y-12735363D01*
X172178250Y-12578320D01*
X171917097Y-12470147D01*
X171639858Y-12415000D01*
X171357188Y-12415000D01*
X171079949Y-12470147D01*
X170818796Y-12578320D01*
X170583764Y-12735363D01*
X170383886Y-12935241D01*
X170226843Y-13170273D01*
X170118670Y-13431426D01*
X170063523Y-13708665D01*
X146936477Y-13708665D01*
X146881330Y-13431426D01*
X146773157Y-13170273D01*
X146616114Y-12935241D01*
X146416236Y-12735363D01*
X146181204Y-12578320D01*
X145920051Y-12470147D01*
X145642812Y-12415000D01*
X145360142Y-12415000D01*
X145082903Y-12470147D01*
X144821750Y-12578320D01*
X144586718Y-12735363D01*
X144386840Y-12935241D01*
X144229797Y-13170273D01*
X144121624Y-13431426D01*
X144066477Y-13708665D01*
X138096335Y-13708665D01*
X138125867Y-11582451D01*
X147462657Y-7358665D01*
X155065000Y-7358665D01*
X155065000Y-7641335D01*
X155120147Y-7918574D01*
X155228320Y-8179727D01*
X155385363Y-8414759D01*
X155585241Y-8614637D01*
X155820273Y-8771680D01*
X156081426Y-8879853D01*
X156358665Y-8935000D01*
X156641335Y-8935000D01*
X156918574Y-8879853D01*
X157179727Y-8771680D01*
X157414759Y-8614637D01*
X157614637Y-8414759D01*
X157771680Y-8179727D01*
X157879853Y-7918574D01*
X157935000Y-7641335D01*
X157935000Y-7358665D01*
X159065000Y-7358665D01*
X159065000Y-7641335D01*
X159120147Y-7918574D01*
X159228320Y-8179727D01*
X159385363Y-8414759D01*
X159585241Y-8614637D01*
X159820273Y-8771680D01*
X160081426Y-8879853D01*
X160358665Y-8935000D01*
X160641335Y-8935000D01*
X160918574Y-8879853D01*
X161179727Y-8771680D01*
X161414759Y-8614637D01*
X161614637Y-8414759D01*
X161771680Y-8179727D01*
X161879853Y-7918574D01*
X161935000Y-7641335D01*
X161935000Y-7358665D01*
X161879853Y-7081426D01*
X161771680Y-6820273D01*
X161614637Y-6585241D01*
X161414759Y-6385363D01*
X161179727Y-6228320D01*
X160918574Y-6120147D01*
X160641335Y-6065000D01*
X160358665Y-6065000D01*
X160081426Y-6120147D01*
X159820273Y-6228320D01*
X159585241Y-6385363D01*
X159385363Y-6585241D01*
X159228320Y-6820273D01*
X159120147Y-7081426D01*
X159065000Y-7358665D01*
X157935000Y-7358665D01*
X157879853Y-7081426D01*
X157771680Y-6820273D01*
X157614637Y-6585241D01*
X157414759Y-6385363D01*
X157179727Y-6228320D01*
X156918574Y-6120147D01*
X156641335Y-6065000D01*
X156358665Y-6065000D01*
X156081426Y-6120147D01*
X155820273Y-6228320D01*
X155585241Y-6385363D01*
X155385363Y-6585241D01*
X155228320Y-6820273D01*
X155120147Y-7081426D01*
X155065000Y-7358665D01*
X147462657Y-7358665D01*
X158999363Y-2139679D01*
X179340000Y-11565827D01*
G37*
%TD.AperFunction*%
%TD*%
M02*
