%TF.GenerationSoftware,KiCad,Pcbnew,(5.1.8)-1*%
%TF.CreationDate,2020-12-09T14:15:50+00:00*%
%TF.ProjectId,Project,50726f6a-6563-4742-9e6b-696361645f70,rev?*%
%TF.SameCoordinates,Original*%
%TF.FileFunction,Paste,Top*%
%TF.FilePolarity,Positive*%
%FSLAX46Y46*%
G04 Gerber Fmt 4.6, Leading zero omitted, Abs format (unit mm)*
G04 Created by KiCad (PCBNEW (5.1.8)-1) date 2020-12-09 14:15:50*
%MOMM*%
%LPD*%
G01*
G04 APERTURE LIST*
%ADD10R,1.350000X0.400000*%
%ADD11R,5.000000X5.000000*%
%ADD12R,0.900000X2.000000*%
%ADD13R,2.000000X0.900000*%
%ADD14R,1.400000X0.620000*%
%ADD15R,2.400000X1.100000*%
%ADD16R,0.900000X0.800000*%
%ADD17R,0.800000X0.900000*%
%ADD18R,1.100000X0.200000*%
%ADD19R,0.700000X0.500000*%
%ADD20R,3.800000X2.000000*%
%ADD21R,1.500000X2.000000*%
%ADD22R,2.400000X1.930000*%
%ADD23R,2.400000X0.820000*%
G04 APERTURE END LIST*
%TO.C,R12*%
G36*
G01*
X150075000Y-50375000D02*
X150075000Y-49825000D01*
G75*
G02*
X150275000Y-49625000I200000J0D01*
G01*
X150675000Y-49625000D01*
G75*
G02*
X150875000Y-49825000I0J-200000D01*
G01*
X150875000Y-50375000D01*
G75*
G02*
X150675000Y-50575000I-200000J0D01*
G01*
X150275000Y-50575000D01*
G75*
G02*
X150075000Y-50375000I0J200000D01*
G01*
G37*
G36*
G01*
X148425000Y-50375000D02*
X148425000Y-49825000D01*
G75*
G02*
X148625000Y-49625000I200000J0D01*
G01*
X149025000Y-49625000D01*
G75*
G02*
X149225000Y-49825000I0J-200000D01*
G01*
X149225000Y-50375000D01*
G75*
G02*
X149025000Y-50575000I-200000J0D01*
G01*
X148625000Y-50575000D01*
G75*
G02*
X148425000Y-50375000I0J200000D01*
G01*
G37*
%TD*%
%TO.C,R15*%
G36*
G01*
X148425000Y-42125000D02*
X148425000Y-41575000D01*
G75*
G02*
X148625000Y-41375000I200000J0D01*
G01*
X149025000Y-41375000D01*
G75*
G02*
X149225000Y-41575000I0J-200000D01*
G01*
X149225000Y-42125000D01*
G75*
G02*
X149025000Y-42325000I-200000J0D01*
G01*
X148625000Y-42325000D01*
G75*
G02*
X148425000Y-42125000I0J200000D01*
G01*
G37*
G36*
G01*
X150075000Y-42125000D02*
X150075000Y-41575000D01*
G75*
G02*
X150275000Y-41375000I200000J0D01*
G01*
X150675000Y-41375000D01*
G75*
G02*
X150875000Y-41575000I0J-200000D01*
G01*
X150875000Y-42125000D01*
G75*
G02*
X150675000Y-42325000I-200000J0D01*
G01*
X150275000Y-42325000D01*
G75*
G02*
X150075000Y-42125000I0J200000D01*
G01*
G37*
%TD*%
%TO.C,R16*%
G36*
G01*
X150075000Y-39375000D02*
X150075000Y-38825000D01*
G75*
G02*
X150275000Y-38625000I200000J0D01*
G01*
X150675000Y-38625000D01*
G75*
G02*
X150875000Y-38825000I0J-200000D01*
G01*
X150875000Y-39375000D01*
G75*
G02*
X150675000Y-39575000I-200000J0D01*
G01*
X150275000Y-39575000D01*
G75*
G02*
X150075000Y-39375000I0J200000D01*
G01*
G37*
G36*
G01*
X148425000Y-39375000D02*
X148425000Y-38825000D01*
G75*
G02*
X148625000Y-38625000I200000J0D01*
G01*
X149025000Y-38625000D01*
G75*
G02*
X149225000Y-38825000I0J-200000D01*
G01*
X149225000Y-39375000D01*
G75*
G02*
X149025000Y-39575000I-200000J0D01*
G01*
X148625000Y-39575000D01*
G75*
G02*
X148425000Y-39375000I0J200000D01*
G01*
G37*
%TD*%
%TO.C,R14*%
G36*
G01*
X150075000Y-44875000D02*
X150075000Y-44325000D01*
G75*
G02*
X150275000Y-44125000I200000J0D01*
G01*
X150675000Y-44125000D01*
G75*
G02*
X150875000Y-44325000I0J-200000D01*
G01*
X150875000Y-44875000D01*
G75*
G02*
X150675000Y-45075000I-200000J0D01*
G01*
X150275000Y-45075000D01*
G75*
G02*
X150075000Y-44875000I0J200000D01*
G01*
G37*
G36*
G01*
X148425000Y-44875000D02*
X148425000Y-44325000D01*
G75*
G02*
X148625000Y-44125000I200000J0D01*
G01*
X149025000Y-44125000D01*
G75*
G02*
X149225000Y-44325000I0J-200000D01*
G01*
X149225000Y-44875000D01*
G75*
G02*
X149025000Y-45075000I-200000J0D01*
G01*
X148625000Y-45075000D01*
G75*
G02*
X148425000Y-44875000I0J200000D01*
G01*
G37*
%TD*%
%TO.C,R17*%
G36*
G01*
X148425000Y-36625000D02*
X148425000Y-36075000D01*
G75*
G02*
X148625000Y-35875000I200000J0D01*
G01*
X149025000Y-35875000D01*
G75*
G02*
X149225000Y-36075000I0J-200000D01*
G01*
X149225000Y-36625000D01*
G75*
G02*
X149025000Y-36825000I-200000J0D01*
G01*
X148625000Y-36825000D01*
G75*
G02*
X148425000Y-36625000I0J200000D01*
G01*
G37*
G36*
G01*
X150075000Y-36625000D02*
X150075000Y-36075000D01*
G75*
G02*
X150275000Y-35875000I200000J0D01*
G01*
X150675000Y-35875000D01*
G75*
G02*
X150875000Y-36075000I0J-200000D01*
G01*
X150875000Y-36625000D01*
G75*
G02*
X150675000Y-36825000I-200000J0D01*
G01*
X150275000Y-36825000D01*
G75*
G02*
X150075000Y-36625000I0J200000D01*
G01*
G37*
%TD*%
%TO.C,R13*%
G36*
G01*
X148425000Y-47625000D02*
X148425000Y-47075000D01*
G75*
G02*
X148625000Y-46875000I200000J0D01*
G01*
X149025000Y-46875000D01*
G75*
G02*
X149225000Y-47075000I0J-200000D01*
G01*
X149225000Y-47625000D01*
G75*
G02*
X149025000Y-47825000I-200000J0D01*
G01*
X148625000Y-47825000D01*
G75*
G02*
X148425000Y-47625000I0J200000D01*
G01*
G37*
G36*
G01*
X150075000Y-47625000D02*
X150075000Y-47075000D01*
G75*
G02*
X150275000Y-46875000I200000J0D01*
G01*
X150675000Y-46875000D01*
G75*
G02*
X150875000Y-47075000I0J-200000D01*
G01*
X150875000Y-47625000D01*
G75*
G02*
X150675000Y-47825000I-200000J0D01*
G01*
X150275000Y-47825000D01*
G75*
G02*
X150075000Y-47625000I0J200000D01*
G01*
G37*
%TD*%
D10*
%TO.C,J1*%
X166000000Y-104000000D03*
X166000000Y-103350000D03*
X166000000Y-102700000D03*
X166000000Y-104650000D03*
X166000000Y-105300000D03*
%TD*%
D11*
%TO.C,U1*%
X106560000Y-87995000D03*
D12*
X99060000Y-95495000D03*
X100330000Y-95495000D03*
X101600000Y-95495000D03*
X102870000Y-95495000D03*
X104140000Y-95495000D03*
X105410000Y-95495000D03*
X106680000Y-95495000D03*
X107950000Y-95495000D03*
X109220000Y-95495000D03*
X110490000Y-95495000D03*
X111760000Y-95495000D03*
X113030000Y-95495000D03*
X114300000Y-95495000D03*
X115570000Y-95495000D03*
D13*
X116570000Y-92710000D03*
X116570000Y-91440000D03*
X116570000Y-90170000D03*
X116570000Y-88900000D03*
X116570000Y-87630000D03*
X116570000Y-86360000D03*
X116570000Y-85090000D03*
X116570000Y-83820000D03*
X116570000Y-82550000D03*
X116570000Y-81280000D03*
D12*
X115570000Y-78495000D03*
X114300000Y-78495000D03*
X113030000Y-78495000D03*
X111760000Y-78495000D03*
X110490000Y-78495000D03*
X109220000Y-78495000D03*
X107950000Y-78495000D03*
X106680000Y-78495000D03*
X105410000Y-78495000D03*
X104140000Y-78495000D03*
X102870000Y-78495000D03*
X101600000Y-78495000D03*
X100330000Y-78495000D03*
X99060000Y-78495000D03*
%TD*%
%TO.C,R5*%
G36*
G01*
X105725000Y-59275000D02*
X106275000Y-59275000D01*
G75*
G02*
X106475000Y-59475000I0J-200000D01*
G01*
X106475000Y-59875000D01*
G75*
G02*
X106275000Y-60075000I-200000J0D01*
G01*
X105725000Y-60075000D01*
G75*
G02*
X105525000Y-59875000I0J200000D01*
G01*
X105525000Y-59475000D01*
G75*
G02*
X105725000Y-59275000I200000J0D01*
G01*
G37*
G36*
G01*
X105725000Y-60925000D02*
X106275000Y-60925000D01*
G75*
G02*
X106475000Y-61125000I0J-200000D01*
G01*
X106475000Y-61525000D01*
G75*
G02*
X106275000Y-61725000I-200000J0D01*
G01*
X105725000Y-61725000D01*
G75*
G02*
X105525000Y-61525000I0J200000D01*
G01*
X105525000Y-61125000D01*
G75*
G02*
X105725000Y-60925000I200000J0D01*
G01*
G37*
%TD*%
%TO.C,R4*%
G36*
G01*
X106275000Y-64725000D02*
X105725000Y-64725000D01*
G75*
G02*
X105525000Y-64525000I0J200000D01*
G01*
X105525000Y-64125000D01*
G75*
G02*
X105725000Y-63925000I200000J0D01*
G01*
X106275000Y-63925000D01*
G75*
G02*
X106475000Y-64125000I0J-200000D01*
G01*
X106475000Y-64525000D01*
G75*
G02*
X106275000Y-64725000I-200000J0D01*
G01*
G37*
G36*
G01*
X106275000Y-63075000D02*
X105725000Y-63075000D01*
G75*
G02*
X105525000Y-62875000I0J200000D01*
G01*
X105525000Y-62475000D01*
G75*
G02*
X105725000Y-62275000I200000J0D01*
G01*
X106275000Y-62275000D01*
G75*
G02*
X106475000Y-62475000I0J-200000D01*
G01*
X106475000Y-62875000D01*
G75*
G02*
X106275000Y-63075000I-200000J0D01*
G01*
G37*
%TD*%
%TO.C,U3*%
G36*
G01*
X108180000Y-68925000D02*
X107880000Y-68925000D01*
G75*
G02*
X107730000Y-68775000I0J150000D01*
G01*
X107730000Y-67025000D01*
G75*
G02*
X107880000Y-66875000I150000J0D01*
G01*
X108180000Y-66875000D01*
G75*
G02*
X108330000Y-67025000I0J-150000D01*
G01*
X108330000Y-68775000D01*
G75*
G02*
X108180000Y-68925000I-150000J0D01*
G01*
G37*
G36*
G01*
X109450000Y-68925000D02*
X109150000Y-68925000D01*
G75*
G02*
X109000000Y-68775000I0J150000D01*
G01*
X109000000Y-67025000D01*
G75*
G02*
X109150000Y-66875000I150000J0D01*
G01*
X109450000Y-66875000D01*
G75*
G02*
X109600000Y-67025000I0J-150000D01*
G01*
X109600000Y-68775000D01*
G75*
G02*
X109450000Y-68925000I-150000J0D01*
G01*
G37*
G36*
G01*
X110720000Y-68925000D02*
X110420000Y-68925000D01*
G75*
G02*
X110270000Y-68775000I0J150000D01*
G01*
X110270000Y-67025000D01*
G75*
G02*
X110420000Y-66875000I150000J0D01*
G01*
X110720000Y-66875000D01*
G75*
G02*
X110870000Y-67025000I0J-150000D01*
G01*
X110870000Y-68775000D01*
G75*
G02*
X110720000Y-68925000I-150000J0D01*
G01*
G37*
G36*
G01*
X111990000Y-68925000D02*
X111690000Y-68925000D01*
G75*
G02*
X111540000Y-68775000I0J150000D01*
G01*
X111540000Y-67025000D01*
G75*
G02*
X111690000Y-66875000I150000J0D01*
G01*
X111990000Y-66875000D01*
G75*
G02*
X112140000Y-67025000I0J-150000D01*
G01*
X112140000Y-68775000D01*
G75*
G02*
X111990000Y-68925000I-150000J0D01*
G01*
G37*
G36*
G01*
X113260000Y-68925000D02*
X112960000Y-68925000D01*
G75*
G02*
X112810000Y-68775000I0J150000D01*
G01*
X112810000Y-67025000D01*
G75*
G02*
X112960000Y-66875000I150000J0D01*
G01*
X113260000Y-66875000D01*
G75*
G02*
X113410000Y-67025000I0J-150000D01*
G01*
X113410000Y-68775000D01*
G75*
G02*
X113260000Y-68925000I-150000J0D01*
G01*
G37*
G36*
G01*
X114530000Y-68925000D02*
X114230000Y-68925000D01*
G75*
G02*
X114080000Y-68775000I0J150000D01*
G01*
X114080000Y-67025000D01*
G75*
G02*
X114230000Y-66875000I150000J0D01*
G01*
X114530000Y-66875000D01*
G75*
G02*
X114680000Y-67025000I0J-150000D01*
G01*
X114680000Y-68775000D01*
G75*
G02*
X114530000Y-68925000I-150000J0D01*
G01*
G37*
G36*
G01*
X115800000Y-68925000D02*
X115500000Y-68925000D01*
G75*
G02*
X115350000Y-68775000I0J150000D01*
G01*
X115350000Y-67025000D01*
G75*
G02*
X115500000Y-66875000I150000J0D01*
G01*
X115800000Y-66875000D01*
G75*
G02*
X115950000Y-67025000I0J-150000D01*
G01*
X115950000Y-68775000D01*
G75*
G02*
X115800000Y-68925000I-150000J0D01*
G01*
G37*
G36*
G01*
X117070000Y-68925000D02*
X116770000Y-68925000D01*
G75*
G02*
X116620000Y-68775000I0J150000D01*
G01*
X116620000Y-67025000D01*
G75*
G02*
X116770000Y-66875000I150000J0D01*
G01*
X117070000Y-66875000D01*
G75*
G02*
X117220000Y-67025000I0J-150000D01*
G01*
X117220000Y-68775000D01*
G75*
G02*
X117070000Y-68925000I-150000J0D01*
G01*
G37*
G36*
G01*
X117070000Y-59625000D02*
X116770000Y-59625000D01*
G75*
G02*
X116620000Y-59475000I0J150000D01*
G01*
X116620000Y-57725000D01*
G75*
G02*
X116770000Y-57575000I150000J0D01*
G01*
X117070000Y-57575000D01*
G75*
G02*
X117220000Y-57725000I0J-150000D01*
G01*
X117220000Y-59475000D01*
G75*
G02*
X117070000Y-59625000I-150000J0D01*
G01*
G37*
G36*
G01*
X115800000Y-59625000D02*
X115500000Y-59625000D01*
G75*
G02*
X115350000Y-59475000I0J150000D01*
G01*
X115350000Y-57725000D01*
G75*
G02*
X115500000Y-57575000I150000J0D01*
G01*
X115800000Y-57575000D01*
G75*
G02*
X115950000Y-57725000I0J-150000D01*
G01*
X115950000Y-59475000D01*
G75*
G02*
X115800000Y-59625000I-150000J0D01*
G01*
G37*
G36*
G01*
X114530000Y-59625000D02*
X114230000Y-59625000D01*
G75*
G02*
X114080000Y-59475000I0J150000D01*
G01*
X114080000Y-57725000D01*
G75*
G02*
X114230000Y-57575000I150000J0D01*
G01*
X114530000Y-57575000D01*
G75*
G02*
X114680000Y-57725000I0J-150000D01*
G01*
X114680000Y-59475000D01*
G75*
G02*
X114530000Y-59625000I-150000J0D01*
G01*
G37*
G36*
G01*
X113260000Y-59625000D02*
X112960000Y-59625000D01*
G75*
G02*
X112810000Y-59475000I0J150000D01*
G01*
X112810000Y-57725000D01*
G75*
G02*
X112960000Y-57575000I150000J0D01*
G01*
X113260000Y-57575000D01*
G75*
G02*
X113410000Y-57725000I0J-150000D01*
G01*
X113410000Y-59475000D01*
G75*
G02*
X113260000Y-59625000I-150000J0D01*
G01*
G37*
G36*
G01*
X111990000Y-59625000D02*
X111690000Y-59625000D01*
G75*
G02*
X111540000Y-59475000I0J150000D01*
G01*
X111540000Y-57725000D01*
G75*
G02*
X111690000Y-57575000I150000J0D01*
G01*
X111990000Y-57575000D01*
G75*
G02*
X112140000Y-57725000I0J-150000D01*
G01*
X112140000Y-59475000D01*
G75*
G02*
X111990000Y-59625000I-150000J0D01*
G01*
G37*
G36*
G01*
X110720000Y-59625000D02*
X110420000Y-59625000D01*
G75*
G02*
X110270000Y-59475000I0J150000D01*
G01*
X110270000Y-57725000D01*
G75*
G02*
X110420000Y-57575000I150000J0D01*
G01*
X110720000Y-57575000D01*
G75*
G02*
X110870000Y-57725000I0J-150000D01*
G01*
X110870000Y-59475000D01*
G75*
G02*
X110720000Y-59625000I-150000J0D01*
G01*
G37*
G36*
G01*
X109450000Y-59625000D02*
X109150000Y-59625000D01*
G75*
G02*
X109000000Y-59475000I0J150000D01*
G01*
X109000000Y-57725000D01*
G75*
G02*
X109150000Y-57575000I150000J0D01*
G01*
X109450000Y-57575000D01*
G75*
G02*
X109600000Y-57725000I0J-150000D01*
G01*
X109600000Y-59475000D01*
G75*
G02*
X109450000Y-59625000I-150000J0D01*
G01*
G37*
G36*
G01*
X108180000Y-59625000D02*
X107880000Y-59625000D01*
G75*
G02*
X107730000Y-59475000I0J150000D01*
G01*
X107730000Y-57725000D01*
G75*
G02*
X107880000Y-57575000I150000J0D01*
G01*
X108180000Y-57575000D01*
G75*
G02*
X108330000Y-57725000I0J-150000D01*
G01*
X108330000Y-59475000D01*
G75*
G02*
X108180000Y-59625000I-150000J0D01*
G01*
G37*
%TD*%
D14*
%TO.C,J3*%
X127580000Y-86420000D03*
X127580000Y-87520000D03*
X127580000Y-88620000D03*
X127580000Y-89720000D03*
X127580000Y-90820000D03*
X127580000Y-91920000D03*
X127580000Y-93020000D03*
X127580000Y-94120000D03*
X127580000Y-95220000D03*
D15*
X138580000Y-96600000D03*
X129580000Y-96600000D03*
X129580000Y-80450000D03*
X138580000Y-80450000D03*
%TD*%
%TO.C,C1*%
G36*
G01*
X99560000Y-97230000D02*
X99560000Y-97570000D01*
G75*
G02*
X99420000Y-97710000I-140000J0D01*
G01*
X99140000Y-97710000D01*
G75*
G02*
X99000000Y-97570000I0J140000D01*
G01*
X99000000Y-97230000D01*
G75*
G02*
X99140000Y-97090000I140000J0D01*
G01*
X99420000Y-97090000D01*
G75*
G02*
X99560000Y-97230000I0J-140000D01*
G01*
G37*
G36*
G01*
X100520000Y-97230000D02*
X100520000Y-97570000D01*
G75*
G02*
X100380000Y-97710000I-140000J0D01*
G01*
X100100000Y-97710000D01*
G75*
G02*
X99960000Y-97570000I0J140000D01*
G01*
X99960000Y-97230000D01*
G75*
G02*
X100100000Y-97090000I140000J0D01*
G01*
X100380000Y-97090000D01*
G75*
G02*
X100520000Y-97230000I0J-140000D01*
G01*
G37*
%TD*%
%TO.C,C2*%
G36*
G01*
X100510000Y-98164999D02*
X100510000Y-98504999D01*
G75*
G02*
X100370000Y-98644999I-140000J0D01*
G01*
X100090000Y-98644999D01*
G75*
G02*
X99950000Y-98504999I0J140000D01*
G01*
X99950000Y-98164999D01*
G75*
G02*
X100090000Y-98024999I140000J0D01*
G01*
X100370000Y-98024999D01*
G75*
G02*
X100510000Y-98164999I0J-140000D01*
G01*
G37*
G36*
G01*
X99550000Y-98164999D02*
X99550000Y-98504999D01*
G75*
G02*
X99410000Y-98644999I-140000J0D01*
G01*
X99130000Y-98644999D01*
G75*
G02*
X98990000Y-98504999I0J140000D01*
G01*
X98990000Y-98164999D01*
G75*
G02*
X99130000Y-98024999I140000J0D01*
G01*
X99410000Y-98024999D01*
G75*
G02*
X99550000Y-98164999I0J-140000D01*
G01*
G37*
%TD*%
%TO.C,C3*%
G36*
G01*
X103260000Y-103330000D02*
X103260000Y-103670000D01*
G75*
G02*
X103120000Y-103810000I-140000J0D01*
G01*
X102840000Y-103810000D01*
G75*
G02*
X102700000Y-103670000I0J140000D01*
G01*
X102700000Y-103330000D01*
G75*
G02*
X102840000Y-103190000I140000J0D01*
G01*
X103120000Y-103190000D01*
G75*
G02*
X103260000Y-103330000I0J-140000D01*
G01*
G37*
G36*
G01*
X102300000Y-103330000D02*
X102300000Y-103670000D01*
G75*
G02*
X102160000Y-103810000I-140000J0D01*
G01*
X101880000Y-103810000D01*
G75*
G02*
X101740000Y-103670000I0J140000D01*
G01*
X101740000Y-103330000D01*
G75*
G02*
X101880000Y-103190000I140000J0D01*
G01*
X102160000Y-103190000D01*
G75*
G02*
X102300000Y-103330000I0J-140000D01*
G01*
G37*
%TD*%
%TO.C,C4*%
G36*
G01*
X163739000Y-104316000D02*
X164079000Y-104316000D01*
G75*
G02*
X164219000Y-104456000I0J-140000D01*
G01*
X164219000Y-104736000D01*
G75*
G02*
X164079000Y-104876000I-140000J0D01*
G01*
X163739000Y-104876000D01*
G75*
G02*
X163599000Y-104736000I0J140000D01*
G01*
X163599000Y-104456000D01*
G75*
G02*
X163739000Y-104316000I140000J0D01*
G01*
G37*
G36*
G01*
X163739000Y-105276000D02*
X164079000Y-105276000D01*
G75*
G02*
X164219000Y-105416000I0J-140000D01*
G01*
X164219000Y-105696000D01*
G75*
G02*
X164079000Y-105836000I-140000J0D01*
G01*
X163739000Y-105836000D01*
G75*
G02*
X163599000Y-105696000I0J140000D01*
G01*
X163599000Y-105416000D01*
G75*
G02*
X163739000Y-105276000I140000J0D01*
G01*
G37*
%TD*%
%TO.C,C5*%
G36*
G01*
X109758000Y-70920000D02*
X109758000Y-70580000D01*
G75*
G02*
X109898000Y-70440000I140000J0D01*
G01*
X110178000Y-70440000D01*
G75*
G02*
X110318000Y-70580000I0J-140000D01*
G01*
X110318000Y-70920000D01*
G75*
G02*
X110178000Y-71060000I-140000J0D01*
G01*
X109898000Y-71060000D01*
G75*
G02*
X109758000Y-70920000I0J140000D01*
G01*
G37*
G36*
G01*
X108798000Y-70920000D02*
X108798000Y-70580000D01*
G75*
G02*
X108938000Y-70440000I140000J0D01*
G01*
X109218000Y-70440000D01*
G75*
G02*
X109358000Y-70580000I0J-140000D01*
G01*
X109358000Y-70920000D01*
G75*
G02*
X109218000Y-71060000I-140000J0D01*
G01*
X108938000Y-71060000D01*
G75*
G02*
X108798000Y-70920000I0J140000D01*
G01*
G37*
%TD*%
%TO.C,C6*%
G36*
G01*
X162739000Y-105276000D02*
X163079000Y-105276000D01*
G75*
G02*
X163219000Y-105416000I0J-140000D01*
G01*
X163219000Y-105696000D01*
G75*
G02*
X163079000Y-105836000I-140000J0D01*
G01*
X162739000Y-105836000D01*
G75*
G02*
X162599000Y-105696000I0J140000D01*
G01*
X162599000Y-105416000D01*
G75*
G02*
X162739000Y-105276000I140000J0D01*
G01*
G37*
G36*
G01*
X162739000Y-104316000D02*
X163079000Y-104316000D01*
G75*
G02*
X163219000Y-104456000I0J-140000D01*
G01*
X163219000Y-104736000D01*
G75*
G02*
X163079000Y-104876000I-140000J0D01*
G01*
X162739000Y-104876000D01*
G75*
G02*
X162599000Y-104736000I0J140000D01*
G01*
X162599000Y-104456000D01*
G75*
G02*
X162739000Y-104316000I140000J0D01*
G01*
G37*
%TD*%
%TO.C,C7*%
G36*
G01*
X108798000Y-69920000D02*
X108798000Y-69580000D01*
G75*
G02*
X108938000Y-69440000I140000J0D01*
G01*
X109218000Y-69440000D01*
G75*
G02*
X109358000Y-69580000I0J-140000D01*
G01*
X109358000Y-69920000D01*
G75*
G02*
X109218000Y-70060000I-140000J0D01*
G01*
X108938000Y-70060000D01*
G75*
G02*
X108798000Y-69920000I0J140000D01*
G01*
G37*
G36*
G01*
X109758000Y-69920000D02*
X109758000Y-69580000D01*
G75*
G02*
X109898000Y-69440000I140000J0D01*
G01*
X110178000Y-69440000D01*
G75*
G02*
X110318000Y-69580000I0J-140000D01*
G01*
X110318000Y-69920000D01*
G75*
G02*
X110178000Y-70060000I-140000J0D01*
G01*
X109898000Y-70060000D01*
G75*
G02*
X109758000Y-69920000I0J140000D01*
G01*
G37*
%TD*%
%TO.C,C8*%
G36*
G01*
X108120000Y-32820000D02*
X107780000Y-32820000D01*
G75*
G02*
X107640000Y-32680000I0J140000D01*
G01*
X107640000Y-32400000D01*
G75*
G02*
X107780000Y-32260000I140000J0D01*
G01*
X108120000Y-32260000D01*
G75*
G02*
X108260000Y-32400000I0J-140000D01*
G01*
X108260000Y-32680000D01*
G75*
G02*
X108120000Y-32820000I-140000J0D01*
G01*
G37*
G36*
G01*
X108120000Y-33780000D02*
X107780000Y-33780000D01*
G75*
G02*
X107640000Y-33640000I0J140000D01*
G01*
X107640000Y-33360000D01*
G75*
G02*
X107780000Y-33220000I140000J0D01*
G01*
X108120000Y-33220000D01*
G75*
G02*
X108260000Y-33360000I0J-140000D01*
G01*
X108260000Y-33640000D01*
G75*
G02*
X108120000Y-33780000I-140000J0D01*
G01*
G37*
%TD*%
%TO.C,C9*%
G36*
G01*
X106850000Y-32820000D02*
X106510000Y-32820000D01*
G75*
G02*
X106370000Y-32680000I0J140000D01*
G01*
X106370000Y-32400000D01*
G75*
G02*
X106510000Y-32260000I140000J0D01*
G01*
X106850000Y-32260000D01*
G75*
G02*
X106990000Y-32400000I0J-140000D01*
G01*
X106990000Y-32680000D01*
G75*
G02*
X106850000Y-32820000I-140000J0D01*
G01*
G37*
G36*
G01*
X106850000Y-33780000D02*
X106510000Y-33780000D01*
G75*
G02*
X106370000Y-33640000I0J140000D01*
G01*
X106370000Y-33360000D01*
G75*
G02*
X106510000Y-33220000I140000J0D01*
G01*
X106850000Y-33220000D01*
G75*
G02*
X106990000Y-33360000I0J-140000D01*
G01*
X106990000Y-33640000D01*
G75*
G02*
X106850000Y-33780000I-140000J0D01*
G01*
G37*
%TD*%
%TO.C,C10*%
G36*
G01*
X107830000Y-46180000D02*
X108170000Y-46180000D01*
G75*
G02*
X108310000Y-46320000I0J-140000D01*
G01*
X108310000Y-46600000D01*
G75*
G02*
X108170000Y-46740000I-140000J0D01*
G01*
X107830000Y-46740000D01*
G75*
G02*
X107690000Y-46600000I0J140000D01*
G01*
X107690000Y-46320000D01*
G75*
G02*
X107830000Y-46180000I140000J0D01*
G01*
G37*
G36*
G01*
X107830000Y-45220000D02*
X108170000Y-45220000D01*
G75*
G02*
X108310000Y-45360000I0J-140000D01*
G01*
X108310000Y-45640000D01*
G75*
G02*
X108170000Y-45780000I-140000J0D01*
G01*
X107830000Y-45780000D01*
G75*
G02*
X107690000Y-45640000I0J140000D01*
G01*
X107690000Y-45360000D01*
G75*
G02*
X107830000Y-45220000I140000J0D01*
G01*
G37*
%TD*%
%TO.C,C11*%
G36*
G01*
X106830000Y-45240000D02*
X107170000Y-45240000D01*
G75*
G02*
X107310000Y-45380000I0J-140000D01*
G01*
X107310000Y-45660000D01*
G75*
G02*
X107170000Y-45800000I-140000J0D01*
G01*
X106830000Y-45800000D01*
G75*
G02*
X106690000Y-45660000I0J140000D01*
G01*
X106690000Y-45380000D01*
G75*
G02*
X106830000Y-45240000I140000J0D01*
G01*
G37*
G36*
G01*
X106830000Y-46200000D02*
X107170000Y-46200000D01*
G75*
G02*
X107310000Y-46340000I0J-140000D01*
G01*
X107310000Y-46620000D01*
G75*
G02*
X107170000Y-46760000I-140000J0D01*
G01*
X106830000Y-46760000D01*
G75*
G02*
X106690000Y-46620000I0J140000D01*
G01*
X106690000Y-46340000D01*
G75*
G02*
X106830000Y-46200000I140000J0D01*
G01*
G37*
%TD*%
%TO.C,C12*%
G36*
G01*
X125222000Y-88842000D02*
X124882000Y-88842000D01*
G75*
G02*
X124742000Y-88702000I0J140000D01*
G01*
X124742000Y-88422000D01*
G75*
G02*
X124882000Y-88282000I140000J0D01*
G01*
X125222000Y-88282000D01*
G75*
G02*
X125362000Y-88422000I0J-140000D01*
G01*
X125362000Y-88702000D01*
G75*
G02*
X125222000Y-88842000I-140000J0D01*
G01*
G37*
G36*
G01*
X125222000Y-89802000D02*
X124882000Y-89802000D01*
G75*
G02*
X124742000Y-89662000I0J140000D01*
G01*
X124742000Y-89382000D01*
G75*
G02*
X124882000Y-89242000I140000J0D01*
G01*
X125222000Y-89242000D01*
G75*
G02*
X125362000Y-89382000I0J-140000D01*
G01*
X125362000Y-89662000D01*
G75*
G02*
X125222000Y-89802000I-140000J0D01*
G01*
G37*
%TD*%
%TO.C,C13*%
G36*
G01*
X126238000Y-89802000D02*
X125898000Y-89802000D01*
G75*
G02*
X125758000Y-89662000I0J140000D01*
G01*
X125758000Y-89382000D01*
G75*
G02*
X125898000Y-89242000I140000J0D01*
G01*
X126238000Y-89242000D01*
G75*
G02*
X126378000Y-89382000I0J-140000D01*
G01*
X126378000Y-89662000D01*
G75*
G02*
X126238000Y-89802000I-140000J0D01*
G01*
G37*
G36*
G01*
X126238000Y-88842000D02*
X125898000Y-88842000D01*
G75*
G02*
X125758000Y-88702000I0J140000D01*
G01*
X125758000Y-88422000D01*
G75*
G02*
X125898000Y-88282000I140000J0D01*
G01*
X126238000Y-88282000D01*
G75*
G02*
X126378000Y-88422000I0J-140000D01*
G01*
X126378000Y-88702000D01*
G75*
G02*
X126238000Y-88842000I-140000J0D01*
G01*
G37*
%TD*%
%TO.C,C14*%
G36*
G01*
X120185000Y-53465000D02*
X119845000Y-53465000D01*
G75*
G02*
X119705000Y-53325000I0J140000D01*
G01*
X119705000Y-53045000D01*
G75*
G02*
X119845000Y-52905000I140000J0D01*
G01*
X120185000Y-52905000D01*
G75*
G02*
X120325000Y-53045000I0J-140000D01*
G01*
X120325000Y-53325000D01*
G75*
G02*
X120185000Y-53465000I-140000J0D01*
G01*
G37*
G36*
G01*
X120185000Y-52505000D02*
X119845000Y-52505000D01*
G75*
G02*
X119705000Y-52365000I0J140000D01*
G01*
X119705000Y-52085000D01*
G75*
G02*
X119845000Y-51945000I140000J0D01*
G01*
X120185000Y-51945000D01*
G75*
G02*
X120325000Y-52085000I0J-140000D01*
G01*
X120325000Y-52365000D01*
G75*
G02*
X120185000Y-52505000I-140000J0D01*
G01*
G37*
%TD*%
%TO.C,C15*%
G36*
G01*
X118915000Y-52505000D02*
X118575000Y-52505000D01*
G75*
G02*
X118435000Y-52365000I0J140000D01*
G01*
X118435000Y-52085000D01*
G75*
G02*
X118575000Y-51945000I140000J0D01*
G01*
X118915000Y-51945000D01*
G75*
G02*
X119055000Y-52085000I0J-140000D01*
G01*
X119055000Y-52365000D01*
G75*
G02*
X118915000Y-52505000I-140000J0D01*
G01*
G37*
G36*
G01*
X118915000Y-53465000D02*
X118575000Y-53465000D01*
G75*
G02*
X118435000Y-53325000I0J140000D01*
G01*
X118435000Y-53045000D01*
G75*
G02*
X118575000Y-52905000I140000J0D01*
G01*
X118915000Y-52905000D01*
G75*
G02*
X119055000Y-53045000I0J-140000D01*
G01*
X119055000Y-53325000D01*
G75*
G02*
X118915000Y-53465000I-140000J0D01*
G01*
G37*
%TD*%
%TO.C,C16*%
G36*
G01*
X110200000Y-97420000D02*
X110200000Y-97080000D01*
G75*
G02*
X110340000Y-96940000I140000J0D01*
G01*
X110620000Y-96940000D01*
G75*
G02*
X110760000Y-97080000I0J-140000D01*
G01*
X110760000Y-97420000D01*
G75*
G02*
X110620000Y-97560000I-140000J0D01*
G01*
X110340000Y-97560000D01*
G75*
G02*
X110200000Y-97420000I0J140000D01*
G01*
G37*
G36*
G01*
X109240000Y-97420000D02*
X109240000Y-97080000D01*
G75*
G02*
X109380000Y-96940000I140000J0D01*
G01*
X109660000Y-96940000D01*
G75*
G02*
X109800000Y-97080000I0J-140000D01*
G01*
X109800000Y-97420000D01*
G75*
G02*
X109660000Y-97560000I-140000J0D01*
G01*
X109380000Y-97560000D01*
G75*
G02*
X109240000Y-97420000I0J140000D01*
G01*
G37*
%TD*%
%TO.C,C17*%
G36*
G01*
X107830000Y-98240000D02*
X108170000Y-98240000D01*
G75*
G02*
X108310000Y-98380000I0J-140000D01*
G01*
X108310000Y-98660000D01*
G75*
G02*
X108170000Y-98800000I-140000J0D01*
G01*
X107830000Y-98800000D01*
G75*
G02*
X107690000Y-98660000I0J140000D01*
G01*
X107690000Y-98380000D01*
G75*
G02*
X107830000Y-98240000I140000J0D01*
G01*
G37*
G36*
G01*
X107830000Y-99200000D02*
X108170000Y-99200000D01*
G75*
G02*
X108310000Y-99340000I0J-140000D01*
G01*
X108310000Y-99620000D01*
G75*
G02*
X108170000Y-99760000I-140000J0D01*
G01*
X107830000Y-99760000D01*
G75*
G02*
X107690000Y-99620000I0J140000D01*
G01*
X107690000Y-99340000D01*
G75*
G02*
X107830000Y-99200000I140000J0D01*
G01*
G37*
%TD*%
%TO.C,C18*%
G36*
G01*
X118330000Y-94240000D02*
X118670000Y-94240000D01*
G75*
G02*
X118810000Y-94380000I0J-140000D01*
G01*
X118810000Y-94660000D01*
G75*
G02*
X118670000Y-94800000I-140000J0D01*
G01*
X118330000Y-94800000D01*
G75*
G02*
X118190000Y-94660000I0J140000D01*
G01*
X118190000Y-94380000D01*
G75*
G02*
X118330000Y-94240000I140000J0D01*
G01*
G37*
G36*
G01*
X118330000Y-95200000D02*
X118670000Y-95200000D01*
G75*
G02*
X118810000Y-95340000I0J-140000D01*
G01*
X118810000Y-95620000D01*
G75*
G02*
X118670000Y-95760000I-140000J0D01*
G01*
X118330000Y-95760000D01*
G75*
G02*
X118190000Y-95620000I0J140000D01*
G01*
X118190000Y-95340000D01*
G75*
G02*
X118330000Y-95200000I140000J0D01*
G01*
G37*
%TD*%
D16*
%TO.C,D1*%
X105680000Y-53660000D03*
X105680000Y-55560000D03*
X107680000Y-54610000D03*
%TD*%
D17*
%TO.C,D2*%
X101346000Y-72374000D03*
X100396000Y-70374000D03*
X102296000Y-70374000D03*
%TD*%
%TO.C,Q1*%
X152459000Y-101076000D03*
X154359000Y-101076000D03*
X153409000Y-99076000D03*
%TD*%
%TO.C,Q2*%
X153409000Y-107076000D03*
X152459000Y-105076000D03*
X154359000Y-105076000D03*
%TD*%
%TO.C,Q3*%
X153850000Y-51050000D03*
X154800000Y-53050000D03*
X152900000Y-53050000D03*
%TD*%
%TO.C,Q4*%
X152900000Y-49550000D03*
X154800000Y-49550000D03*
X153850000Y-47550000D03*
%TD*%
%TO.C,Q5*%
X153850000Y-44050000D03*
X154800000Y-46050000D03*
X152900000Y-46050000D03*
%TD*%
%TO.C,Q6*%
X152900000Y-42550000D03*
X154800000Y-42550000D03*
X153850000Y-40550000D03*
%TD*%
%TO.C,Q7*%
X152900000Y-39050000D03*
X154800000Y-39050000D03*
X153850000Y-37050000D03*
%TD*%
%TO.C,Q8*%
X153850000Y-33550000D03*
X154800000Y-35550000D03*
X152900000Y-35550000D03*
%TD*%
%TO.C,R1*%
G36*
G01*
X105425000Y-104025000D02*
X105425000Y-103475000D01*
G75*
G02*
X105625000Y-103275000I200000J0D01*
G01*
X106025000Y-103275000D01*
G75*
G02*
X106225000Y-103475000I0J-200000D01*
G01*
X106225000Y-104025000D01*
G75*
G02*
X106025000Y-104225000I-200000J0D01*
G01*
X105625000Y-104225000D01*
G75*
G02*
X105425000Y-104025000I0J200000D01*
G01*
G37*
G36*
G01*
X103775000Y-104025000D02*
X103775000Y-103475000D01*
G75*
G02*
X103975000Y-103275000I200000J0D01*
G01*
X104375000Y-103275000D01*
G75*
G02*
X104575000Y-103475000I0J-200000D01*
G01*
X104575000Y-104025000D01*
G75*
G02*
X104375000Y-104225000I-200000J0D01*
G01*
X103975000Y-104225000D01*
G75*
G02*
X103775000Y-104025000I0J200000D01*
G01*
G37*
%TD*%
%TO.C,R2*%
G36*
G01*
X110575000Y-71725000D02*
X110575000Y-72275000D01*
G75*
G02*
X110375000Y-72475000I-200000J0D01*
G01*
X109975000Y-72475000D01*
G75*
G02*
X109775000Y-72275000I0J200000D01*
G01*
X109775000Y-71725000D01*
G75*
G02*
X109975000Y-71525000I200000J0D01*
G01*
X110375000Y-71525000D01*
G75*
G02*
X110575000Y-71725000I0J-200000D01*
G01*
G37*
G36*
G01*
X112225000Y-71725000D02*
X112225000Y-72275000D01*
G75*
G02*
X112025000Y-72475000I-200000J0D01*
G01*
X111625000Y-72475000D01*
G75*
G02*
X111425000Y-72275000I0J200000D01*
G01*
X111425000Y-71725000D01*
G75*
G02*
X111625000Y-71525000I200000J0D01*
G01*
X112025000Y-71525000D01*
G75*
G02*
X112225000Y-71725000I0J-200000D01*
G01*
G37*
%TD*%
%TO.C,R3*%
G36*
G01*
X108425000Y-72275000D02*
X108425000Y-71725000D01*
G75*
G02*
X108625000Y-71525000I200000J0D01*
G01*
X109025000Y-71525000D01*
G75*
G02*
X109225000Y-71725000I0J-200000D01*
G01*
X109225000Y-72275000D01*
G75*
G02*
X109025000Y-72475000I-200000J0D01*
G01*
X108625000Y-72475000D01*
G75*
G02*
X108425000Y-72275000I0J200000D01*
G01*
G37*
G36*
G01*
X106775000Y-72275000D02*
X106775000Y-71725000D01*
G75*
G02*
X106975000Y-71525000I200000J0D01*
G01*
X107375000Y-71525000D01*
G75*
G02*
X107575000Y-71725000I0J-200000D01*
G01*
X107575000Y-72275000D01*
G75*
G02*
X107375000Y-72475000I-200000J0D01*
G01*
X106975000Y-72475000D01*
G75*
G02*
X106775000Y-72275000I0J200000D01*
G01*
G37*
%TD*%
%TO.C,R6*%
G36*
G01*
X154634000Y-102801000D02*
X154634000Y-103351000D01*
G75*
G02*
X154434000Y-103551000I-200000J0D01*
G01*
X154034000Y-103551000D01*
G75*
G02*
X153834000Y-103351000I0J200000D01*
G01*
X153834000Y-102801000D01*
G75*
G02*
X154034000Y-102601000I200000J0D01*
G01*
X154434000Y-102601000D01*
G75*
G02*
X154634000Y-102801000I0J-200000D01*
G01*
G37*
G36*
G01*
X152984000Y-102801000D02*
X152984000Y-103351000D01*
G75*
G02*
X152784000Y-103551000I-200000J0D01*
G01*
X152384000Y-103551000D01*
G75*
G02*
X152184000Y-103351000I0J200000D01*
G01*
X152184000Y-102801000D01*
G75*
G02*
X152384000Y-102601000I200000J0D01*
G01*
X152784000Y-102601000D01*
G75*
G02*
X152984000Y-102801000I0J-200000D01*
G01*
G37*
%TD*%
%TO.C,R7*%
G36*
G01*
X156684000Y-107151000D02*
X156134000Y-107151000D01*
G75*
G02*
X155934000Y-106951000I0J200000D01*
G01*
X155934000Y-106551000D01*
G75*
G02*
X156134000Y-106351000I200000J0D01*
G01*
X156684000Y-106351000D01*
G75*
G02*
X156884000Y-106551000I0J-200000D01*
G01*
X156884000Y-106951000D01*
G75*
G02*
X156684000Y-107151000I-200000J0D01*
G01*
G37*
G36*
G01*
X156684000Y-108801000D02*
X156134000Y-108801000D01*
G75*
G02*
X155934000Y-108601000I0J200000D01*
G01*
X155934000Y-108201000D01*
G75*
G02*
X156134000Y-108001000I200000J0D01*
G01*
X156684000Y-108001000D01*
G75*
G02*
X156884000Y-108201000I0J-200000D01*
G01*
X156884000Y-108601000D01*
G75*
G02*
X156684000Y-108801000I-200000J0D01*
G01*
G37*
%TD*%
%TO.C,R8*%
G36*
G01*
X109225000Y-98275000D02*
X109775000Y-98275000D01*
G75*
G02*
X109975000Y-98475000I0J-200000D01*
G01*
X109975000Y-98875000D01*
G75*
G02*
X109775000Y-99075000I-200000J0D01*
G01*
X109225000Y-99075000D01*
G75*
G02*
X109025000Y-98875000I0J200000D01*
G01*
X109025000Y-98475000D01*
G75*
G02*
X109225000Y-98275000I200000J0D01*
G01*
G37*
G36*
G01*
X109225000Y-99925000D02*
X109775000Y-99925000D01*
G75*
G02*
X109975000Y-100125000I0J-200000D01*
G01*
X109975000Y-100525000D01*
G75*
G02*
X109775000Y-100725000I-200000J0D01*
G01*
X109225000Y-100725000D01*
G75*
G02*
X109025000Y-100525000I0J200000D01*
G01*
X109025000Y-100125000D01*
G75*
G02*
X109225000Y-99925000I200000J0D01*
G01*
G37*
%TD*%
%TO.C,R9*%
G36*
G01*
X110725000Y-98275000D02*
X111275000Y-98275000D01*
G75*
G02*
X111475000Y-98475000I0J-200000D01*
G01*
X111475000Y-98875000D01*
G75*
G02*
X111275000Y-99075000I-200000J0D01*
G01*
X110725000Y-99075000D01*
G75*
G02*
X110525000Y-98875000I0J200000D01*
G01*
X110525000Y-98475000D01*
G75*
G02*
X110725000Y-98275000I200000J0D01*
G01*
G37*
G36*
G01*
X110725000Y-99925000D02*
X111275000Y-99925000D01*
G75*
G02*
X111475000Y-100125000I0J-200000D01*
G01*
X111475000Y-100525000D01*
G75*
G02*
X111275000Y-100725000I-200000J0D01*
G01*
X110725000Y-100725000D01*
G75*
G02*
X110525000Y-100525000I0J200000D01*
G01*
X110525000Y-100125000D01*
G75*
G02*
X110725000Y-99925000I200000J0D01*
G01*
G37*
%TD*%
%TO.C,R10*%
G36*
G01*
X109775000Y-104225000D02*
X109225000Y-104225000D01*
G75*
G02*
X109025000Y-104025000I0J200000D01*
G01*
X109025000Y-103625000D01*
G75*
G02*
X109225000Y-103425000I200000J0D01*
G01*
X109775000Y-103425000D01*
G75*
G02*
X109975000Y-103625000I0J-200000D01*
G01*
X109975000Y-104025000D01*
G75*
G02*
X109775000Y-104225000I-200000J0D01*
G01*
G37*
G36*
G01*
X109775000Y-102575000D02*
X109225000Y-102575000D01*
G75*
G02*
X109025000Y-102375000I0J200000D01*
G01*
X109025000Y-101975000D01*
G75*
G02*
X109225000Y-101775000I200000J0D01*
G01*
X109775000Y-101775000D01*
G75*
G02*
X109975000Y-101975000I0J-200000D01*
G01*
X109975000Y-102375000D01*
G75*
G02*
X109775000Y-102575000I-200000J0D01*
G01*
G37*
%TD*%
%TO.C,R11*%
G36*
G01*
X111275000Y-102575000D02*
X110725000Y-102575000D01*
G75*
G02*
X110525000Y-102375000I0J200000D01*
G01*
X110525000Y-101975000D01*
G75*
G02*
X110725000Y-101775000I200000J0D01*
G01*
X111275000Y-101775000D01*
G75*
G02*
X111475000Y-101975000I0J-200000D01*
G01*
X111475000Y-102375000D01*
G75*
G02*
X111275000Y-102575000I-200000J0D01*
G01*
G37*
G36*
G01*
X111275000Y-104225000D02*
X110725000Y-104225000D01*
G75*
G02*
X110525000Y-104025000I0J200000D01*
G01*
X110525000Y-103625000D01*
G75*
G02*
X110725000Y-103425000I200000J0D01*
G01*
X111275000Y-103425000D01*
G75*
G02*
X111475000Y-103625000I0J-200000D01*
G01*
X111475000Y-104025000D01*
G75*
G02*
X111275000Y-104225000I-200000J0D01*
G01*
G37*
%TD*%
D18*
%TO.C,SW1*%
X102000000Y-102475000D03*
X105500000Y-97525000D03*
X105500000Y-102475000D03*
X102000000Y-97525000D03*
D19*
X102000000Y-102125000D03*
X102000000Y-97875000D03*
X105500000Y-102125000D03*
X105500000Y-97875000D03*
%TD*%
%TO.C,U4*%
G36*
G01*
X157911500Y-105326000D02*
X157786500Y-105326000D01*
G75*
G02*
X157724000Y-105263500I0J62500D01*
G01*
X157724000Y-104563500D01*
G75*
G02*
X157786500Y-104501000I62500J0D01*
G01*
X157911500Y-104501000D01*
G75*
G02*
X157974000Y-104563500I0J-62500D01*
G01*
X157974000Y-105263500D01*
G75*
G02*
X157911500Y-105326000I-62500J0D01*
G01*
G37*
G36*
G01*
X158411500Y-105326000D02*
X158286500Y-105326000D01*
G75*
G02*
X158224000Y-105263500I0J62500D01*
G01*
X158224000Y-104563500D01*
G75*
G02*
X158286500Y-104501000I62500J0D01*
G01*
X158411500Y-104501000D01*
G75*
G02*
X158474000Y-104563500I0J-62500D01*
G01*
X158474000Y-105263500D01*
G75*
G02*
X158411500Y-105326000I-62500J0D01*
G01*
G37*
G36*
G01*
X158911500Y-105326000D02*
X158786500Y-105326000D01*
G75*
G02*
X158724000Y-105263500I0J62500D01*
G01*
X158724000Y-104563500D01*
G75*
G02*
X158786500Y-104501000I62500J0D01*
G01*
X158911500Y-104501000D01*
G75*
G02*
X158974000Y-104563500I0J-62500D01*
G01*
X158974000Y-105263500D01*
G75*
G02*
X158911500Y-105326000I-62500J0D01*
G01*
G37*
G36*
G01*
X159411500Y-105326000D02*
X159286500Y-105326000D01*
G75*
G02*
X159224000Y-105263500I0J62500D01*
G01*
X159224000Y-104563500D01*
G75*
G02*
X159286500Y-104501000I62500J0D01*
G01*
X159411500Y-104501000D01*
G75*
G02*
X159474000Y-104563500I0J-62500D01*
G01*
X159474000Y-105263500D01*
G75*
G02*
X159411500Y-105326000I-62500J0D01*
G01*
G37*
G36*
G01*
X159911500Y-105326000D02*
X159786500Y-105326000D01*
G75*
G02*
X159724000Y-105263500I0J62500D01*
G01*
X159724000Y-104563500D01*
G75*
G02*
X159786500Y-104501000I62500J0D01*
G01*
X159911500Y-104501000D01*
G75*
G02*
X159974000Y-104563500I0J-62500D01*
G01*
X159974000Y-105263500D01*
G75*
G02*
X159911500Y-105326000I-62500J0D01*
G01*
G37*
G36*
G01*
X160411500Y-105326000D02*
X160286500Y-105326000D01*
G75*
G02*
X160224000Y-105263500I0J62500D01*
G01*
X160224000Y-104563500D01*
G75*
G02*
X160286500Y-104501000I62500J0D01*
G01*
X160411500Y-104501000D01*
G75*
G02*
X160474000Y-104563500I0J-62500D01*
G01*
X160474000Y-105263500D01*
G75*
G02*
X160411500Y-105326000I-62500J0D01*
G01*
G37*
G36*
G01*
X161386500Y-104351000D02*
X160686500Y-104351000D01*
G75*
G02*
X160624000Y-104288500I0J62500D01*
G01*
X160624000Y-104163500D01*
G75*
G02*
X160686500Y-104101000I62500J0D01*
G01*
X161386500Y-104101000D01*
G75*
G02*
X161449000Y-104163500I0J-62500D01*
G01*
X161449000Y-104288500D01*
G75*
G02*
X161386500Y-104351000I-62500J0D01*
G01*
G37*
G36*
G01*
X161386500Y-103851000D02*
X160686500Y-103851000D01*
G75*
G02*
X160624000Y-103788500I0J62500D01*
G01*
X160624000Y-103663500D01*
G75*
G02*
X160686500Y-103601000I62500J0D01*
G01*
X161386500Y-103601000D01*
G75*
G02*
X161449000Y-103663500I0J-62500D01*
G01*
X161449000Y-103788500D01*
G75*
G02*
X161386500Y-103851000I-62500J0D01*
G01*
G37*
G36*
G01*
X161386500Y-103351000D02*
X160686500Y-103351000D01*
G75*
G02*
X160624000Y-103288500I0J62500D01*
G01*
X160624000Y-103163500D01*
G75*
G02*
X160686500Y-103101000I62500J0D01*
G01*
X161386500Y-103101000D01*
G75*
G02*
X161449000Y-103163500I0J-62500D01*
G01*
X161449000Y-103288500D01*
G75*
G02*
X161386500Y-103351000I-62500J0D01*
G01*
G37*
G36*
G01*
X161386500Y-102851000D02*
X160686500Y-102851000D01*
G75*
G02*
X160624000Y-102788500I0J62500D01*
G01*
X160624000Y-102663500D01*
G75*
G02*
X160686500Y-102601000I62500J0D01*
G01*
X161386500Y-102601000D01*
G75*
G02*
X161449000Y-102663500I0J-62500D01*
G01*
X161449000Y-102788500D01*
G75*
G02*
X161386500Y-102851000I-62500J0D01*
G01*
G37*
G36*
G01*
X161386500Y-102351000D02*
X160686500Y-102351000D01*
G75*
G02*
X160624000Y-102288500I0J62500D01*
G01*
X160624000Y-102163500D01*
G75*
G02*
X160686500Y-102101000I62500J0D01*
G01*
X161386500Y-102101000D01*
G75*
G02*
X161449000Y-102163500I0J-62500D01*
G01*
X161449000Y-102288500D01*
G75*
G02*
X161386500Y-102351000I-62500J0D01*
G01*
G37*
G36*
G01*
X161386500Y-101851000D02*
X160686500Y-101851000D01*
G75*
G02*
X160624000Y-101788500I0J62500D01*
G01*
X160624000Y-101663500D01*
G75*
G02*
X160686500Y-101601000I62500J0D01*
G01*
X161386500Y-101601000D01*
G75*
G02*
X161449000Y-101663500I0J-62500D01*
G01*
X161449000Y-101788500D01*
G75*
G02*
X161386500Y-101851000I-62500J0D01*
G01*
G37*
G36*
G01*
X160411500Y-101451000D02*
X160286500Y-101451000D01*
G75*
G02*
X160224000Y-101388500I0J62500D01*
G01*
X160224000Y-100688500D01*
G75*
G02*
X160286500Y-100626000I62500J0D01*
G01*
X160411500Y-100626000D01*
G75*
G02*
X160474000Y-100688500I0J-62500D01*
G01*
X160474000Y-101388500D01*
G75*
G02*
X160411500Y-101451000I-62500J0D01*
G01*
G37*
G36*
G01*
X159911500Y-101451000D02*
X159786500Y-101451000D01*
G75*
G02*
X159724000Y-101388500I0J62500D01*
G01*
X159724000Y-100688500D01*
G75*
G02*
X159786500Y-100626000I62500J0D01*
G01*
X159911500Y-100626000D01*
G75*
G02*
X159974000Y-100688500I0J-62500D01*
G01*
X159974000Y-101388500D01*
G75*
G02*
X159911500Y-101451000I-62500J0D01*
G01*
G37*
G36*
G01*
X159411500Y-101451000D02*
X159286500Y-101451000D01*
G75*
G02*
X159224000Y-101388500I0J62500D01*
G01*
X159224000Y-100688500D01*
G75*
G02*
X159286500Y-100626000I62500J0D01*
G01*
X159411500Y-100626000D01*
G75*
G02*
X159474000Y-100688500I0J-62500D01*
G01*
X159474000Y-101388500D01*
G75*
G02*
X159411500Y-101451000I-62500J0D01*
G01*
G37*
G36*
G01*
X158911500Y-101451000D02*
X158786500Y-101451000D01*
G75*
G02*
X158724000Y-101388500I0J62500D01*
G01*
X158724000Y-100688500D01*
G75*
G02*
X158786500Y-100626000I62500J0D01*
G01*
X158911500Y-100626000D01*
G75*
G02*
X158974000Y-100688500I0J-62500D01*
G01*
X158974000Y-101388500D01*
G75*
G02*
X158911500Y-101451000I-62500J0D01*
G01*
G37*
G36*
G01*
X158411500Y-101451000D02*
X158286500Y-101451000D01*
G75*
G02*
X158224000Y-101388500I0J62500D01*
G01*
X158224000Y-100688500D01*
G75*
G02*
X158286500Y-100626000I62500J0D01*
G01*
X158411500Y-100626000D01*
G75*
G02*
X158474000Y-100688500I0J-62500D01*
G01*
X158474000Y-101388500D01*
G75*
G02*
X158411500Y-101451000I-62500J0D01*
G01*
G37*
G36*
G01*
X157911500Y-101451000D02*
X157786500Y-101451000D01*
G75*
G02*
X157724000Y-101388500I0J62500D01*
G01*
X157724000Y-100688500D01*
G75*
G02*
X157786500Y-100626000I62500J0D01*
G01*
X157911500Y-100626000D01*
G75*
G02*
X157974000Y-100688500I0J-62500D01*
G01*
X157974000Y-101388500D01*
G75*
G02*
X157911500Y-101451000I-62500J0D01*
G01*
G37*
G36*
G01*
X157511500Y-101851000D02*
X156811500Y-101851000D01*
G75*
G02*
X156749000Y-101788500I0J62500D01*
G01*
X156749000Y-101663500D01*
G75*
G02*
X156811500Y-101601000I62500J0D01*
G01*
X157511500Y-101601000D01*
G75*
G02*
X157574000Y-101663500I0J-62500D01*
G01*
X157574000Y-101788500D01*
G75*
G02*
X157511500Y-101851000I-62500J0D01*
G01*
G37*
G36*
G01*
X157511500Y-102351000D02*
X156811500Y-102351000D01*
G75*
G02*
X156749000Y-102288500I0J62500D01*
G01*
X156749000Y-102163500D01*
G75*
G02*
X156811500Y-102101000I62500J0D01*
G01*
X157511500Y-102101000D01*
G75*
G02*
X157574000Y-102163500I0J-62500D01*
G01*
X157574000Y-102288500D01*
G75*
G02*
X157511500Y-102351000I-62500J0D01*
G01*
G37*
G36*
G01*
X157511500Y-102851000D02*
X156811500Y-102851000D01*
G75*
G02*
X156749000Y-102788500I0J62500D01*
G01*
X156749000Y-102663500D01*
G75*
G02*
X156811500Y-102601000I62500J0D01*
G01*
X157511500Y-102601000D01*
G75*
G02*
X157574000Y-102663500I0J-62500D01*
G01*
X157574000Y-102788500D01*
G75*
G02*
X157511500Y-102851000I-62500J0D01*
G01*
G37*
G36*
G01*
X157511500Y-103351000D02*
X156811500Y-103351000D01*
G75*
G02*
X156749000Y-103288500I0J62500D01*
G01*
X156749000Y-103163500D01*
G75*
G02*
X156811500Y-103101000I62500J0D01*
G01*
X157511500Y-103101000D01*
G75*
G02*
X157574000Y-103163500I0J-62500D01*
G01*
X157574000Y-103288500D01*
G75*
G02*
X157511500Y-103351000I-62500J0D01*
G01*
G37*
G36*
G01*
X157511500Y-103851000D02*
X156811500Y-103851000D01*
G75*
G02*
X156749000Y-103788500I0J62500D01*
G01*
X156749000Y-103663500D01*
G75*
G02*
X156811500Y-103601000I62500J0D01*
G01*
X157511500Y-103601000D01*
G75*
G02*
X157574000Y-103663500I0J-62500D01*
G01*
X157574000Y-103788500D01*
G75*
G02*
X157511500Y-103851000I-62500J0D01*
G01*
G37*
G36*
G01*
X157511500Y-104351000D02*
X156811500Y-104351000D01*
G75*
G02*
X156749000Y-104288500I0J62500D01*
G01*
X156749000Y-104163500D01*
G75*
G02*
X156811500Y-104101000I62500J0D01*
G01*
X157511500Y-104101000D01*
G75*
G02*
X157574000Y-104163500I0J-62500D01*
G01*
X157574000Y-104288500D01*
G75*
G02*
X157511500Y-104351000I-62500J0D01*
G01*
G37*
G36*
G01*
X158724001Y-104151000D02*
X158173999Y-104151000D01*
G75*
G02*
X157924000Y-103901001I0J249999D01*
G01*
X157924000Y-103350999D01*
G75*
G02*
X158173999Y-103101000I249999J0D01*
G01*
X158724001Y-103101000D01*
G75*
G02*
X158974000Y-103350999I0J-249999D01*
G01*
X158974000Y-103901001D01*
G75*
G02*
X158724001Y-104151000I-249999J0D01*
G01*
G37*
G36*
G01*
X160024001Y-104151000D02*
X159473999Y-104151000D01*
G75*
G02*
X159224000Y-103901001I0J249999D01*
G01*
X159224000Y-103350999D01*
G75*
G02*
X159473999Y-103101000I249999J0D01*
G01*
X160024001Y-103101000D01*
G75*
G02*
X160274000Y-103350999I0J-249999D01*
G01*
X160274000Y-103901001D01*
G75*
G02*
X160024001Y-104151000I-249999J0D01*
G01*
G37*
G36*
G01*
X158724001Y-102851000D02*
X158173999Y-102851000D01*
G75*
G02*
X157924000Y-102601001I0J249999D01*
G01*
X157924000Y-102050999D01*
G75*
G02*
X158173999Y-101801000I249999J0D01*
G01*
X158724001Y-101801000D01*
G75*
G02*
X158974000Y-102050999I0J-249999D01*
G01*
X158974000Y-102601001D01*
G75*
G02*
X158724001Y-102851000I-249999J0D01*
G01*
G37*
G36*
G01*
X160024001Y-102851000D02*
X159473999Y-102851000D01*
G75*
G02*
X159224000Y-102601001I0J249999D01*
G01*
X159224000Y-102050999D01*
G75*
G02*
X159473999Y-101801000I249999J0D01*
G01*
X160024001Y-101801000D01*
G75*
G02*
X160274000Y-102050999I0J-249999D01*
G01*
X160274000Y-102601001D01*
G75*
G02*
X160024001Y-102851000I-249999J0D01*
G01*
G37*
%TD*%
D20*
%TO.C,U5*%
X114300000Y-52680000D03*
D21*
X114300000Y-46380000D03*
X112000000Y-46380000D03*
X116600000Y-46380000D03*
%TD*%
D22*
%TO.C,D3*%
X165700000Y-63965000D03*
D23*
X165700000Y-66190000D03*
%TD*%
%TO.C,D4*%
X161200000Y-66190000D03*
D22*
X161200000Y-63965000D03*
%TD*%
%TO.C,D5*%
X170200000Y-63965000D03*
D23*
X170200000Y-66190000D03*
%TD*%
%TO.C,D6*%
X165765001Y-60100999D03*
D22*
X165765001Y-57875999D03*
%TD*%
%TO.C,D7*%
X170200000Y-57965000D03*
D23*
X170200000Y-60190000D03*
%TD*%
%TO.C,D8*%
X161200000Y-60190000D03*
D22*
X161200000Y-57965000D03*
%TD*%
%TO.C,D9*%
X165700000Y-51965000D03*
D23*
X165700000Y-54190000D03*
%TD*%
%TO.C,D10*%
X170200000Y-54190000D03*
D22*
X170200000Y-51965000D03*
%TD*%
%TO.C,D11*%
X161200000Y-51965000D03*
D23*
X161200000Y-54190000D03*
%TD*%
%TO.C,D12*%
X170200000Y-48190000D03*
D22*
X170200000Y-45965000D03*
%TD*%
D23*
%TO.C,D13*%
X161200000Y-48190000D03*
D22*
X161200000Y-45965000D03*
%TD*%
%TO.C,D14*%
X165700000Y-45965000D03*
D23*
X165700000Y-48190000D03*
%TD*%
%TO.C,D15*%
X161200000Y-42190000D03*
D22*
X161200000Y-39965000D03*
%TD*%
%TO.C,D16*%
X170200000Y-39965000D03*
D23*
X170200000Y-42190000D03*
%TD*%
%TO.C,D17*%
X165700000Y-42190000D03*
D22*
X165700000Y-39965000D03*
%TD*%
%TO.C,D18*%
X161200000Y-33965000D03*
D23*
X161200000Y-36190000D03*
%TD*%
%TO.C,D19*%
X165700000Y-36190000D03*
D22*
X165700000Y-33965000D03*
%TD*%
%TO.C,D20*%
X170200000Y-33965000D03*
D23*
X170200000Y-36190000D03*
%TD*%
M02*
