%TF.GenerationSoftware,KiCad,Pcbnew,(5.1.8)-1*%
%TF.CreationDate,2020-12-09T14:15:50+00:00*%
%TF.ProjectId,Project,50726f6a-6563-4742-9e6b-696361645f70,rev?*%
%TF.SameCoordinates,Original*%
%TF.FileFunction,Profile,NP*%
%FSLAX46Y46*%
G04 Gerber Fmt 4.6, Leading zero omitted, Abs format (unit mm)*
G04 Created by KiCad (PCBNEW (5.1.8)-1) date 2020-12-09 14:15:50*
%MOMM*%
%LPD*%
G01*
G04 APERTURE LIST*
%TA.AperFunction,Profile*%
%ADD10C,0.050000*%
%TD*%
G04 APERTURE END LIST*
D10*
X143000000Y-50000000D02*
G75*
G03*
X143000000Y-50000000I-1000000J0D01*
G01*
X143000000Y-47000000D02*
G75*
G03*
X143000000Y-47000000I-1000000J0D01*
G01*
X143000000Y-44000000D02*
G75*
G03*
X143000000Y-44000000I-1000000J0D01*
G01*
X143000000Y-41000000D02*
G75*
G03*
X143000000Y-41000000I-1000000J0D01*
G01*
X143000000Y-38000000D02*
G75*
G03*
X143000000Y-38000000I-1000000J0D01*
G01*
X143000000Y-35000000D02*
G75*
G03*
X143000000Y-35000000I-1000000J0D01*
G01*
X143000000Y-106000000D02*
G75*
G03*
X143000000Y-106000000I-1000000J0D01*
G01*
X143000000Y-103000000D02*
G75*
G03*
X143000000Y-103000000I-1000000J0D01*
G01*
X143000000Y-100000000D02*
G75*
G03*
X143000000Y-100000000I-1000000J0D01*
G01*
X141000000Y-67000000D02*
G75*
G02*
X143000000Y-67000000I1000000J0D01*
G01*
X143000000Y-64000000D02*
G75*
G02*
X141000000Y-64000000I-1000000J0D01*
G01*
X141000000Y-67000000D02*
X141000000Y-97000000D01*
X141000000Y-53500000D02*
X141000000Y-64000000D01*
X170000000Y-110000000D02*
X144000000Y-110000000D01*
X170000000Y-97000000D02*
X170000000Y-110000000D01*
X143000000Y-97000000D02*
X170000000Y-97000000D01*
X190000000Y-30000000D02*
X143000000Y-30000000D01*
X190000000Y-69000000D02*
X190000000Y-30000000D01*
X143000000Y-69000000D02*
X190000000Y-69000000D01*
X143000000Y-67000000D02*
X143000000Y-69000000D01*
X143000000Y-53500000D02*
X143000000Y-64000000D01*
X143000000Y-110000000D02*
X144000000Y-110000000D01*
X143000000Y-109000000D02*
X143000000Y-110000000D01*
X141000000Y-109000000D02*
G75*
G02*
X143000000Y-109000000I1000000J0D01*
G01*
X143000000Y-97000000D02*
G75*
G02*
X141000000Y-97000000I-1000000J0D01*
G01*
X141000000Y-53500000D02*
G75*
G02*
X143000000Y-53500000I1000000J0D01*
G01*
X143000000Y-31500000D02*
G75*
G02*
X141000000Y-31500000I-1000000J0D01*
G01*
X143000000Y-31500000D02*
X143000000Y-30000000D01*
X141000000Y-110000000D02*
X141000000Y-109000000D01*
X140750000Y-110000000D02*
X141000000Y-110000000D01*
X141000000Y-30000000D02*
X141000000Y-31500000D01*
X140750000Y-30000000D02*
X141000000Y-30000000D01*
X131250000Y-30000000D02*
X131000000Y-30000000D01*
X140750000Y-30000000D02*
X131250000Y-30000000D01*
X95000000Y-110000000D02*
X140750000Y-110000000D01*
X131000000Y-30000000D02*
X95000000Y-30000000D01*
X95000000Y-110000000D02*
X95000000Y-30000000D01*
M02*
