M48
; DRILL file {KiCad (5.1.8)-1} date 03/10/21 15:31:18
; FORMAT={-:-/ absolute / inch / decimal}
; #@! TF.CreationDate,2021-03-10T15:31:18+00:00
; #@! TF.GenerationSoftware,Kicad,Pcbnew,(5.1.8)-1
; #@! TF.FileFunction,Plated,1,4,PTH
FMAT,2
INCH
T1C0.0236
T2C0.0315
T3C0.0394
%
G90
G05
T1
X4.9016Y-2.7874
X5.1929Y-2.874
X5.3228Y-2.9409
X5.6102Y-2.9803
X5.622Y-2.2008
X5.8819Y-2.8504
X6.0079Y-2.8425
T2
X5.0Y-2.5866
X5.433Y-2.8366
X5.5906Y-2.8366
X6.0236Y-2.5866
X4.9213Y-1.9567
X4.9213Y-2.4567
X5.0001Y-1.813
X5.4331Y-1.563
X6.1024Y-1.9567
X6.1024Y-2.4567
X5.5906Y-1.563
X6.0236Y-1.813
T3
X5.1575Y-3.2264
X5.2575Y-3.2264
X5.3575Y-3.2264
X5.4575Y-3.2264
X5.5575Y-3.2264
X5.6575Y-3.2264
X5.7575Y-3.2264
X5.8575Y-3.2264
T0
M30
