%TF.GenerationSoftware,KiCad,Pcbnew,(5.1.8)-1*%
%TF.CreationDate,2021-03-10T15:31:21+00:00*%
%TF.ProjectId,Project_2_smaller,50726f6a-6563-4745-9f32-5f736d616c6c,rev?*%
%TF.SameCoordinates,Original*%
%TF.FileFunction,Legend,Top*%
%TF.FilePolarity,Positive*%
%FSLAX46Y46*%
G04 Gerber Fmt 4.6, Leading zero omitted, Abs format (unit mm)*
G04 Created by KiCad (PCBNEW (5.1.8)-1) date 2021-03-10 15:31:21*
%MOMM*%
%LPD*%
G01*
G04 APERTURE LIST*
%ADD10C,0.200000*%
%ADD11C,0.127000*%
%ADD12C,0.120000*%
%ADD13C,0.015000*%
%ADD14C,0.150000*%
G04 APERTURE END LIST*
D10*
%TO.C,D17*%
X143042820Y-52265064D02*
G75*
G03*
X143042820Y-52265064I-100000J0D01*
G01*
D11*
X145865544Y-49102757D02*
X144165544Y-52047243D01*
X141134456Y-50297243D02*
X142834456Y-47352757D01*
D12*
%TO.C,R14*%
X135912258Y-79722500D02*
X135437742Y-79722500D01*
X135912258Y-78677500D02*
X135437742Y-78677500D01*
%TO.C,R17*%
X153512742Y-75722500D02*
X153987258Y-75722500D01*
X153512742Y-74677500D02*
X153987258Y-74677500D01*
%TO.C,R12*%
X125987258Y-75722500D02*
X125512742Y-75722500D01*
X125987258Y-74677500D02*
X125512742Y-74677500D01*
%TO.C,R13*%
X130987258Y-76677500D02*
X130512742Y-76677500D01*
X130987258Y-77722500D02*
X130512742Y-77722500D01*
%TO.C,R15*%
X143512742Y-79722500D02*
X143987258Y-79722500D01*
X143512742Y-78677500D02*
X143987258Y-78677500D01*
%TO.C,R16*%
X148512742Y-76677500D02*
X148987258Y-76677500D01*
X148512742Y-77722500D02*
X148987258Y-77722500D01*
%TO.C,Q5*%
X137580000Y-75940000D02*
X137580000Y-77400000D01*
X134420000Y-75940000D02*
X134420000Y-78100000D01*
X134420000Y-75940000D02*
X135350000Y-75940000D01*
X137580000Y-75940000D02*
X136650000Y-75940000D01*
D11*
%TO.C,D5*%
X134200000Y-57450000D02*
X130800000Y-57450000D01*
X130800000Y-53950000D02*
X134200000Y-53950000D01*
D10*
X135100000Y-54900000D02*
G75*
G03*
X135100000Y-54900000I-100000J0D01*
G01*
D11*
%TO.C,D7*%
X137865544Y-61325888D02*
X136165544Y-64270374D01*
X133134456Y-62520374D02*
X134834456Y-59575888D01*
D10*
X136157180Y-59358067D02*
G75*
G03*
X136157180Y-59358067I-100000J0D01*
G01*
%TO.C,D10*%
X141657180Y-60158067D02*
G75*
G03*
X141657180Y-60158067I-100000J0D01*
G01*
D11*
X142834456Y-64270374D02*
X141134456Y-61325888D01*
X144165544Y-59575888D02*
X145865544Y-62520374D01*
D10*
%TO.C,D14*%
X145100000Y-56500000D02*
G75*
G03*
X145100000Y-56500000I-100000J0D01*
G01*
D11*
X149200000Y-57450000D02*
X145800000Y-57450000D01*
X145800000Y-53950000D02*
X149200000Y-53950000D01*
%TO.C,D20*%
X135834456Y-52047243D02*
X134134456Y-49102757D01*
X137165544Y-47352757D02*
X138865544Y-50297243D01*
D10*
X138542820Y-51465064D02*
G75*
G03*
X138542820Y-51465064I-100000J0D01*
G01*
D12*
%TO.C,Q3*%
X127580000Y-71940000D02*
X127580000Y-73400000D01*
X124420000Y-71940000D02*
X124420000Y-74100000D01*
X124420000Y-71940000D02*
X125350000Y-71940000D01*
X127580000Y-71940000D02*
X126650000Y-71940000D01*
%TO.C,Q4*%
X132580000Y-73940000D02*
X132580000Y-75400000D01*
X129420000Y-73940000D02*
X129420000Y-76100000D01*
X129420000Y-73940000D02*
X130350000Y-73940000D01*
X132580000Y-73940000D02*
X131650000Y-73940000D01*
%TO.C,Q6*%
X145580000Y-75940000D02*
X144650000Y-75940000D01*
X142420000Y-75940000D02*
X143350000Y-75940000D01*
X142420000Y-75940000D02*
X142420000Y-78100000D01*
X145580000Y-75940000D02*
X145580000Y-77400000D01*
%TO.C,Q7*%
X150580000Y-73940000D02*
X149650000Y-73940000D01*
X147420000Y-73940000D02*
X148350000Y-73940000D01*
X147420000Y-73940000D02*
X147420000Y-76100000D01*
X150580000Y-73940000D02*
X150580000Y-75400000D01*
%TO.C,Q8*%
X155580000Y-71940000D02*
X154650000Y-71940000D01*
X152420000Y-71940000D02*
X153350000Y-71940000D01*
X152420000Y-71940000D02*
X152420000Y-74100000D01*
X155580000Y-71940000D02*
X155580000Y-73400000D01*
%TO.C,R18*%
X125000000Y-61360000D02*
X125000000Y-60670000D01*
X125000000Y-50740000D02*
X125000000Y-51430000D01*
X126720000Y-60670000D02*
X126720000Y-51430000D01*
X123280000Y-60670000D02*
X126720000Y-60670000D01*
X123280000Y-51430000D02*
X123280000Y-60670000D01*
X126720000Y-51430000D02*
X123280000Y-51430000D01*
%TO.C,R19*%
X129358224Y-65075436D02*
X127638224Y-68054564D01*
X127638224Y-68054564D02*
X135640299Y-72674564D01*
X135640299Y-72674564D02*
X137360299Y-69695436D01*
X137360299Y-69695436D02*
X129358224Y-65075436D01*
X127900666Y-66220000D02*
X128498224Y-66565000D01*
X137097856Y-71530000D02*
X136500299Y-71185000D01*
%TO.C,R20*%
X152361776Y-68054564D02*
X150641776Y-65075436D01*
X150641776Y-65075436D02*
X142639701Y-69695436D01*
X142639701Y-69695436D02*
X144359701Y-72674564D01*
X144359701Y-72674564D02*
X152361776Y-68054564D01*
X152099334Y-66220000D02*
X151501776Y-66565000D01*
X142902144Y-71530000D02*
X143499701Y-71185000D01*
%TO.C,R21*%
X155000000Y-61360000D02*
X155000000Y-60670000D01*
X155000000Y-50740000D02*
X155000000Y-51430000D01*
X156720000Y-60670000D02*
X156720000Y-51430000D01*
X153280000Y-60670000D02*
X156720000Y-60670000D01*
X153280000Y-51430000D02*
X153280000Y-60670000D01*
X156720000Y-51430000D02*
X153280000Y-51430000D01*
%TO.C,R22*%
X144358224Y-39075436D02*
X142638224Y-42054564D01*
X142638224Y-42054564D02*
X150640299Y-46674564D01*
X150640299Y-46674564D02*
X152360299Y-43695436D01*
X152360299Y-43695436D02*
X144358224Y-39075436D01*
X142900666Y-40220000D02*
X143498224Y-40565000D01*
X152097856Y-45530000D02*
X151500299Y-45185000D01*
%TO.C,R23*%
X127902144Y-45530000D02*
X128499701Y-45185000D01*
X137099334Y-40220000D02*
X136501776Y-40565000D01*
X129359701Y-46674564D02*
X137361776Y-42054564D01*
X127639701Y-43695436D02*
X129359701Y-46674564D01*
X135641776Y-39075436D02*
X127639701Y-43695436D01*
X137361776Y-42054564D02*
X135641776Y-39075436D01*
%TO.C,D17*%
D13*
X145716761Y-53115218D02*
X144850736Y-52615218D01*
X144969783Y-52409022D01*
X145082451Y-52309113D01*
X145212549Y-52274254D01*
X145318837Y-52280634D01*
X145507604Y-52334632D01*
X145631322Y-52406061D01*
X145772469Y-52542538D01*
X145831138Y-52631397D01*
X145865998Y-52761494D01*
X145835809Y-52909022D01*
X145716761Y-53115218D01*
X146478666Y-51795560D02*
X146192952Y-52290432D01*
X146335809Y-52042996D02*
X145469783Y-51542996D01*
X145545882Y-51696904D01*
X145580742Y-51827001D01*
X145574362Y-51933289D01*
X145779307Y-51006885D02*
X146112640Y-50429535D01*
X146764380Y-51300689D01*
%TO.C,R14*%
D14*
X134127380Y-79907856D02*
X133651190Y-80241189D01*
X134127380Y-80479284D02*
X133127380Y-80479284D01*
X133127380Y-80098332D01*
X133175000Y-80003094D01*
X133222619Y-79955475D01*
X133317857Y-79907856D01*
X133460714Y-79907856D01*
X133555952Y-79955475D01*
X133603571Y-80003094D01*
X133651190Y-80098332D01*
X133651190Y-80479284D01*
X134127380Y-78955475D02*
X134127380Y-79526903D01*
X134127380Y-79241189D02*
X133127380Y-79241189D01*
X133270238Y-79336427D01*
X133365476Y-79431665D01*
X133413095Y-79526903D01*
X133460714Y-78098332D02*
X134127380Y-78098332D01*
X133079761Y-78336427D02*
X133794047Y-78574522D01*
X133794047Y-77955475D01*
%TO.C,R17*%
X152064380Y-75748857D02*
X151588190Y-76082190D01*
X152064380Y-76320285D02*
X151064380Y-76320285D01*
X151064380Y-75939333D01*
X151112000Y-75844095D01*
X151159619Y-75796476D01*
X151254857Y-75748857D01*
X151397714Y-75748857D01*
X151492952Y-75796476D01*
X151540571Y-75844095D01*
X151588190Y-75939333D01*
X151588190Y-76320285D01*
X152064380Y-74796476D02*
X152064380Y-75367904D01*
X152064380Y-75082190D02*
X151064380Y-75082190D01*
X151207238Y-75177428D01*
X151302476Y-75272666D01*
X151350095Y-75367904D01*
X151064380Y-74463142D02*
X151064380Y-73796476D01*
X152064380Y-74225047D01*
%TO.C,R12*%
X123977380Y-76242857D02*
X123501190Y-76576190D01*
X123977380Y-76814285D02*
X122977380Y-76814285D01*
X122977380Y-76433333D01*
X123025000Y-76338095D01*
X123072619Y-76290476D01*
X123167857Y-76242857D01*
X123310714Y-76242857D01*
X123405952Y-76290476D01*
X123453571Y-76338095D01*
X123501190Y-76433333D01*
X123501190Y-76814285D01*
X123977380Y-75290476D02*
X123977380Y-75861904D01*
X123977380Y-75576190D02*
X122977380Y-75576190D01*
X123120238Y-75671428D01*
X123215476Y-75766666D01*
X123263095Y-75861904D01*
X123072619Y-74909523D02*
X123025000Y-74861904D01*
X122977380Y-74766666D01*
X122977380Y-74528571D01*
X123025000Y-74433333D01*
X123072619Y-74385714D01*
X123167857Y-74338095D01*
X123263095Y-74338095D01*
X123405952Y-74385714D01*
X123977380Y-74957142D01*
X123977380Y-74338095D01*
%TO.C,R13*%
X133402380Y-77842857D02*
X132926190Y-78176190D01*
X133402380Y-78414285D02*
X132402380Y-78414285D01*
X132402380Y-78033333D01*
X132450000Y-77938095D01*
X132497619Y-77890476D01*
X132592857Y-77842857D01*
X132735714Y-77842857D01*
X132830952Y-77890476D01*
X132878571Y-77938095D01*
X132926190Y-78033333D01*
X132926190Y-78414285D01*
X133402380Y-76890476D02*
X133402380Y-77461904D01*
X133402380Y-77176190D02*
X132402380Y-77176190D01*
X132545238Y-77271428D01*
X132640476Y-77366666D01*
X132688095Y-77461904D01*
X132402380Y-76557142D02*
X132402380Y-75938095D01*
X132783333Y-76271428D01*
X132783333Y-76128571D01*
X132830952Y-76033333D01*
X132878571Y-75985714D01*
X132973809Y-75938095D01*
X133211904Y-75938095D01*
X133307142Y-75985714D01*
X133354761Y-76033333D01*
X133402380Y-76128571D01*
X133402380Y-76414285D01*
X133354761Y-76509523D01*
X133307142Y-76557142D01*
%TO.C,R15*%
X142002380Y-79842857D02*
X141526190Y-80176190D01*
X142002380Y-80414285D02*
X141002380Y-80414285D01*
X141002380Y-80033333D01*
X141050000Y-79938095D01*
X141097619Y-79890476D01*
X141192857Y-79842857D01*
X141335714Y-79842857D01*
X141430952Y-79890476D01*
X141478571Y-79938095D01*
X141526190Y-80033333D01*
X141526190Y-80414285D01*
X142002380Y-78890476D02*
X142002380Y-79461904D01*
X142002380Y-79176190D02*
X141002380Y-79176190D01*
X141145238Y-79271428D01*
X141240476Y-79366666D01*
X141288095Y-79461904D01*
X141002380Y-77985714D02*
X141002380Y-78461904D01*
X141478571Y-78509523D01*
X141430952Y-78461904D01*
X141383333Y-78366666D01*
X141383333Y-78128571D01*
X141430952Y-78033333D01*
X141478571Y-77985714D01*
X141573809Y-77938095D01*
X141811904Y-77938095D01*
X141907142Y-77985714D01*
X141954761Y-78033333D01*
X142002380Y-78128571D01*
X142002380Y-78366666D01*
X141954761Y-78461904D01*
X141907142Y-78509523D01*
%TO.C,R16*%
X151202380Y-77842857D02*
X150726190Y-78176190D01*
X151202380Y-78414285D02*
X150202380Y-78414285D01*
X150202380Y-78033333D01*
X150250000Y-77938095D01*
X150297619Y-77890476D01*
X150392857Y-77842857D01*
X150535714Y-77842857D01*
X150630952Y-77890476D01*
X150678571Y-77938095D01*
X150726190Y-78033333D01*
X150726190Y-78414285D01*
X151202380Y-76890476D02*
X151202380Y-77461904D01*
X151202380Y-77176190D02*
X150202380Y-77176190D01*
X150345238Y-77271428D01*
X150440476Y-77366666D01*
X150488095Y-77461904D01*
X150202380Y-76033333D02*
X150202380Y-76223809D01*
X150250000Y-76319047D01*
X150297619Y-76366666D01*
X150440476Y-76461904D01*
X150630952Y-76509523D01*
X151011904Y-76509523D01*
X151107142Y-76461904D01*
X151154761Y-76414285D01*
X151202380Y-76319047D01*
X151202380Y-76128571D01*
X151154761Y-76033333D01*
X151107142Y-75985714D01*
X151011904Y-75938095D01*
X150773809Y-75938095D01*
X150678571Y-75985714D01*
X150630952Y-76033333D01*
X150583333Y-76128571D01*
X150583333Y-76319047D01*
X150630952Y-76414285D01*
X150678571Y-76461904D01*
X150773809Y-76509523D01*
%TO.C,Q5*%
X138937619Y-76755238D02*
X138890000Y-76850476D01*
X138794761Y-76945714D01*
X138651904Y-77088571D01*
X138604285Y-77183809D01*
X138604285Y-77279047D01*
X138842380Y-77231428D02*
X138794761Y-77326666D01*
X138699523Y-77421904D01*
X138509047Y-77469523D01*
X138175714Y-77469523D01*
X137985238Y-77421904D01*
X137890000Y-77326666D01*
X137842380Y-77231428D01*
X137842380Y-77040952D01*
X137890000Y-76945714D01*
X137985238Y-76850476D01*
X138175714Y-76802857D01*
X138509047Y-76802857D01*
X138699523Y-76850476D01*
X138794761Y-76945714D01*
X138842380Y-77040952D01*
X138842380Y-77231428D01*
X137842380Y-75898095D02*
X137842380Y-76374285D01*
X138318571Y-76421904D01*
X138270952Y-76374285D01*
X138223333Y-76279047D01*
X138223333Y-76040952D01*
X138270952Y-75945714D01*
X138318571Y-75898095D01*
X138413809Y-75850476D01*
X138651904Y-75850476D01*
X138747142Y-75898095D01*
X138794761Y-75945714D01*
X138842380Y-76040952D01*
X138842380Y-76279047D01*
X138794761Y-76374285D01*
X138747142Y-76421904D01*
%TO.C,D5*%
D13*
X132396904Y-52977380D02*
X132396904Y-51977380D01*
X132635000Y-51977380D01*
X132777857Y-52025000D01*
X132873095Y-52120238D01*
X132920714Y-52215476D01*
X132968333Y-52405952D01*
X132968333Y-52548809D01*
X132920714Y-52739285D01*
X132873095Y-52834523D01*
X132777857Y-52929761D01*
X132635000Y-52977380D01*
X132396904Y-52977380D01*
X133873095Y-51977380D02*
X133396904Y-51977380D01*
X133349285Y-52453571D01*
X133396904Y-52405952D01*
X133492142Y-52358333D01*
X133730238Y-52358333D01*
X133825476Y-52405952D01*
X133873095Y-52453571D01*
X133920714Y-52548809D01*
X133920714Y-52786904D01*
X133873095Y-52882142D01*
X133825476Y-52929761D01*
X133730238Y-52977380D01*
X133492142Y-52977380D01*
X133396904Y-52929761D01*
X133349285Y-52882142D01*
%TO.C,D7*%
X133090594Y-60651104D02*
X132224569Y-60151104D01*
X132343616Y-59944908D01*
X132456284Y-59844999D01*
X132586382Y-59810140D01*
X132692670Y-59816519D01*
X132881437Y-59870518D01*
X133005155Y-59941947D01*
X133146303Y-60078424D01*
X133204972Y-60167283D01*
X133239831Y-60297380D01*
X133209642Y-60444908D01*
X133090594Y-60651104D01*
X132676950Y-59367557D02*
X133010283Y-58790207D01*
X133662023Y-59661361D01*
%TO.C,D10*%
X139433952Y-62135293D02*
X140299978Y-61635293D01*
X140419025Y-61841489D01*
X140449215Y-61989017D01*
X140414355Y-62119114D01*
X140355686Y-62207973D01*
X140214538Y-62344450D01*
X140090820Y-62415879D01*
X139902054Y-62469877D01*
X139795765Y-62476257D01*
X139665668Y-62441398D01*
X139553000Y-62341489D01*
X139433952Y-62135293D01*
X140195857Y-63454950D02*
X139910143Y-62960079D01*
X140053000Y-63207515D02*
X140919025Y-62707515D01*
X140747688Y-62696465D01*
X140617591Y-62661605D01*
X140528732Y-62602936D01*
X141371406Y-63491061D02*
X141419025Y-63573540D01*
X141425405Y-63679828D01*
X141407975Y-63744877D01*
X141349306Y-63833735D01*
X141208158Y-63970213D01*
X141001962Y-64089260D01*
X140813195Y-64143259D01*
X140706907Y-64149639D01*
X140641858Y-64132209D01*
X140553000Y-64073540D01*
X140505381Y-63991061D01*
X140499001Y-63884773D01*
X140516431Y-63819724D01*
X140575100Y-63730866D01*
X140716248Y-63594389D01*
X140922444Y-63475341D01*
X141111211Y-63421342D01*
X141217499Y-63414963D01*
X141282548Y-63432392D01*
X141371406Y-63491061D01*
%TO.C,D14*%
X145650714Y-59327380D02*
X145650714Y-58327380D01*
X145888809Y-58327380D01*
X146031666Y-58375000D01*
X146126904Y-58470238D01*
X146174523Y-58565476D01*
X146222142Y-58755952D01*
X146222142Y-58898809D01*
X146174523Y-59089285D01*
X146126904Y-59184523D01*
X146031666Y-59279761D01*
X145888809Y-59327380D01*
X145650714Y-59327380D01*
X147174523Y-59327380D02*
X146603095Y-59327380D01*
X146888809Y-59327380D02*
X146888809Y-58327380D01*
X146793571Y-58470238D01*
X146698333Y-58565476D01*
X146603095Y-58613095D01*
X148031666Y-58660714D02*
X148031666Y-59327380D01*
X147793571Y-58279761D02*
X147555476Y-58994047D01*
X148174523Y-58994047D01*
%TO.C,D20*%
X138627504Y-48445817D02*
X138886323Y-47479891D01*
X139116305Y-47541514D01*
X139241970Y-47624485D01*
X139309313Y-47741127D01*
X139330660Y-47845445D01*
X139327358Y-48041756D01*
X139290384Y-48179745D01*
X139195088Y-48351406D01*
X139124443Y-48431074D01*
X139007800Y-48498418D01*
X138857486Y-48507440D01*
X138627504Y-48445817D01*
X139781603Y-47818378D02*
X139839924Y-47784706D01*
X139944242Y-47763359D01*
X140174224Y-47824983D01*
X140253892Y-47895629D01*
X140287564Y-47953950D01*
X140308911Y-48058268D01*
X140284261Y-48150261D01*
X140201291Y-48275925D01*
X139501437Y-48679986D01*
X140099391Y-48840208D01*
X140956164Y-48034503D02*
X141048157Y-48059153D01*
X141127825Y-48129798D01*
X141161497Y-48188120D01*
X141182844Y-48292437D01*
X141179541Y-48488748D01*
X141117918Y-48718730D01*
X141022622Y-48890391D01*
X140951977Y-48970060D01*
X140893655Y-49003731D01*
X140789338Y-49025078D01*
X140697345Y-49000429D01*
X140617677Y-48929783D01*
X140584005Y-48871462D01*
X140562658Y-48767144D01*
X140565960Y-48570834D01*
X140627584Y-48340851D01*
X140722879Y-48169190D01*
X140793525Y-48089522D01*
X140851846Y-48055850D01*
X140956164Y-48034503D01*
%TO.C,Q3*%
D14*
X128947619Y-72895238D02*
X128900000Y-72990476D01*
X128804761Y-73085714D01*
X128661904Y-73228571D01*
X128614285Y-73323809D01*
X128614285Y-73419047D01*
X128852380Y-73371428D02*
X128804761Y-73466666D01*
X128709523Y-73561904D01*
X128519047Y-73609523D01*
X128185714Y-73609523D01*
X127995238Y-73561904D01*
X127900000Y-73466666D01*
X127852380Y-73371428D01*
X127852380Y-73180952D01*
X127900000Y-73085714D01*
X127995238Y-72990476D01*
X128185714Y-72942857D01*
X128519047Y-72942857D01*
X128709523Y-72990476D01*
X128804761Y-73085714D01*
X128852380Y-73180952D01*
X128852380Y-73371428D01*
X127852380Y-72609523D02*
X127852380Y-71990476D01*
X128233333Y-72323809D01*
X128233333Y-72180952D01*
X128280952Y-72085714D01*
X128328571Y-72038095D01*
X128423809Y-71990476D01*
X128661904Y-71990476D01*
X128757142Y-72038095D01*
X128804761Y-72085714D01*
X128852380Y-72180952D01*
X128852380Y-72466666D01*
X128804761Y-72561904D01*
X128757142Y-72609523D01*
%TO.C,Q4*%
X134052875Y-74734468D02*
X134005256Y-74829706D01*
X133910017Y-74924944D01*
X133767160Y-75067801D01*
X133719541Y-75163039D01*
X133719541Y-75258277D01*
X133957636Y-75210658D02*
X133910017Y-75305896D01*
X133814779Y-75401134D01*
X133624303Y-75448753D01*
X133290970Y-75448753D01*
X133100494Y-75401134D01*
X133005256Y-75305896D01*
X132957636Y-75210658D01*
X132957636Y-75020182D01*
X133005256Y-74924944D01*
X133100494Y-74829706D01*
X133290970Y-74782087D01*
X133624303Y-74782087D01*
X133814779Y-74829706D01*
X133910017Y-74924944D01*
X133957636Y-75020182D01*
X133957636Y-75210658D01*
X133290970Y-73924944D02*
X133957636Y-73924944D01*
X132910017Y-74163039D02*
X133624303Y-74401134D01*
X133624303Y-73782087D01*
%TO.C,Q6*%
X142047619Y-76795238D02*
X142000000Y-76890476D01*
X141904761Y-76985714D01*
X141761904Y-77128571D01*
X141714285Y-77223809D01*
X141714285Y-77319047D01*
X141952380Y-77271428D02*
X141904761Y-77366666D01*
X141809523Y-77461904D01*
X141619047Y-77509523D01*
X141285714Y-77509523D01*
X141095238Y-77461904D01*
X141000000Y-77366666D01*
X140952380Y-77271428D01*
X140952380Y-77080952D01*
X141000000Y-76985714D01*
X141095238Y-76890476D01*
X141285714Y-76842857D01*
X141619047Y-76842857D01*
X141809523Y-76890476D01*
X141904761Y-76985714D01*
X141952380Y-77080952D01*
X141952380Y-77271428D01*
X140952380Y-75985714D02*
X140952380Y-76176190D01*
X141000000Y-76271428D01*
X141047619Y-76319047D01*
X141190476Y-76414285D01*
X141380952Y-76461904D01*
X141761904Y-76461904D01*
X141857142Y-76414285D01*
X141904761Y-76366666D01*
X141952380Y-76271428D01*
X141952380Y-76080952D01*
X141904761Y-75985714D01*
X141857142Y-75938095D01*
X141761904Y-75890476D01*
X141523809Y-75890476D01*
X141428571Y-75938095D01*
X141380952Y-75985714D01*
X141333333Y-76080952D01*
X141333333Y-76271428D01*
X141380952Y-76366666D01*
X141428571Y-76414285D01*
X141523809Y-76461904D01*
%TO.C,Q7*%
X147187619Y-74705238D02*
X147140000Y-74800476D01*
X147044761Y-74895714D01*
X146901904Y-75038571D01*
X146854285Y-75133809D01*
X146854285Y-75229047D01*
X147092380Y-75181428D02*
X147044761Y-75276666D01*
X146949523Y-75371904D01*
X146759047Y-75419523D01*
X146425714Y-75419523D01*
X146235238Y-75371904D01*
X146140000Y-75276666D01*
X146092380Y-75181428D01*
X146092380Y-74990952D01*
X146140000Y-74895714D01*
X146235238Y-74800476D01*
X146425714Y-74752857D01*
X146759047Y-74752857D01*
X146949523Y-74800476D01*
X147044761Y-74895714D01*
X147092380Y-74990952D01*
X147092380Y-75181428D01*
X146092380Y-74419523D02*
X146092380Y-73752857D01*
X147092380Y-74181428D01*
%TO.C,Q8*%
X152047619Y-72795238D02*
X152000000Y-72890476D01*
X151904761Y-72985714D01*
X151761904Y-73128571D01*
X151714285Y-73223809D01*
X151714285Y-73319047D01*
X151952380Y-73271428D02*
X151904761Y-73366666D01*
X151809523Y-73461904D01*
X151619047Y-73509523D01*
X151285714Y-73509523D01*
X151095238Y-73461904D01*
X151000000Y-73366666D01*
X150952380Y-73271428D01*
X150952380Y-73080952D01*
X151000000Y-72985714D01*
X151095238Y-72890476D01*
X151285714Y-72842857D01*
X151619047Y-72842857D01*
X151809523Y-72890476D01*
X151904761Y-72985714D01*
X151952380Y-73080952D01*
X151952380Y-73271428D01*
X151380952Y-72271428D02*
X151333333Y-72366666D01*
X151285714Y-72414285D01*
X151190476Y-72461904D01*
X151142857Y-72461904D01*
X151047619Y-72414285D01*
X151000000Y-72366666D01*
X150952380Y-72271428D01*
X150952380Y-72080952D01*
X151000000Y-71985714D01*
X151047619Y-71938095D01*
X151142857Y-71890476D01*
X151190476Y-71890476D01*
X151285714Y-71938095D01*
X151333333Y-71985714D01*
X151380952Y-72080952D01*
X151380952Y-72271428D01*
X151428571Y-72366666D01*
X151476190Y-72414285D01*
X151571428Y-72461904D01*
X151761904Y-72461904D01*
X151857142Y-72414285D01*
X151904761Y-72366666D01*
X151952380Y-72271428D01*
X151952380Y-72080952D01*
X151904761Y-71985714D01*
X151857142Y-71938095D01*
X151761904Y-71890476D01*
X151571428Y-71890476D01*
X151476190Y-71938095D01*
X151428571Y-71985714D01*
X151380952Y-72080952D01*
%TO.C,R18*%
X123052380Y-56742857D02*
X122576190Y-57076190D01*
X123052380Y-57314285D02*
X122052380Y-57314285D01*
X122052380Y-56933333D01*
X122100000Y-56838095D01*
X122147619Y-56790476D01*
X122242857Y-56742857D01*
X122385714Y-56742857D01*
X122480952Y-56790476D01*
X122528571Y-56838095D01*
X122576190Y-56933333D01*
X122576190Y-57314285D01*
X123052380Y-55790476D02*
X123052380Y-56361904D01*
X123052380Y-56076190D02*
X122052380Y-56076190D01*
X122195238Y-56171428D01*
X122290476Y-56266666D01*
X122338095Y-56361904D01*
X122480952Y-55219047D02*
X122433333Y-55314285D01*
X122385714Y-55361904D01*
X122290476Y-55409523D01*
X122242857Y-55409523D01*
X122147619Y-55361904D01*
X122100000Y-55314285D01*
X122052380Y-55219047D01*
X122052380Y-55028571D01*
X122100000Y-54933333D01*
X122147619Y-54885714D01*
X122242857Y-54838095D01*
X122290476Y-54838095D01*
X122385714Y-54885714D01*
X122433333Y-54933333D01*
X122480952Y-55028571D01*
X122480952Y-55219047D01*
X122528571Y-55314285D01*
X122576190Y-55361904D01*
X122671428Y-55409523D01*
X122861904Y-55409523D01*
X122957142Y-55361904D01*
X123004761Y-55314285D01*
X123052380Y-55219047D01*
X123052380Y-55028571D01*
X123004761Y-54933333D01*
X122957142Y-54885714D01*
X122861904Y-54838095D01*
X122671428Y-54838095D01*
X122576190Y-54885714D01*
X122528571Y-54933333D01*
X122480952Y-55028571D01*
%TO.C,R19*%
X130217078Y-71170344D02*
X130166499Y-70591285D01*
X129722207Y-70884630D02*
X130222207Y-70018605D01*
X130552121Y-70209081D01*
X130610790Y-70297939D01*
X130628220Y-70362988D01*
X130621840Y-70469276D01*
X130550412Y-70592994D01*
X130461553Y-70651663D01*
X130396505Y-70669093D01*
X130290216Y-70662713D01*
X129960302Y-70472237D01*
X131041865Y-71646535D02*
X130546993Y-71360821D01*
X130794429Y-71503678D02*
X131294429Y-70637652D01*
X131140521Y-70713751D01*
X131010424Y-70748611D01*
X130904136Y-70742231D01*
X131454258Y-71884630D02*
X131619215Y-71979868D01*
X131725503Y-71986248D01*
X131790552Y-71968818D01*
X131944459Y-71892719D01*
X132080936Y-71751572D01*
X132271413Y-71421657D01*
X132277792Y-71315369D01*
X132260362Y-71250320D01*
X132201693Y-71161462D01*
X132036736Y-71066224D01*
X131930448Y-71059844D01*
X131865399Y-71077274D01*
X131776541Y-71135943D01*
X131657493Y-71342139D01*
X131651113Y-71448427D01*
X131668543Y-71513476D01*
X131727212Y-71602335D01*
X131892170Y-71697573D01*
X131998458Y-71703952D01*
X132063507Y-71686523D01*
X132152365Y-71627854D01*
%TO.C,R20*%
X148530198Y-71943790D02*
X148003428Y-71698064D01*
X148035327Y-72229505D02*
X147535327Y-71363479D01*
X147865241Y-71173003D01*
X147971529Y-71166623D01*
X148036578Y-71184053D01*
X148125436Y-71242722D01*
X148196865Y-71366440D01*
X148203245Y-71472728D01*
X148185815Y-71537777D01*
X148127146Y-71626636D01*
X147797231Y-71817112D01*
X148407732Y-70969767D02*
X148425162Y-70904719D01*
X148483831Y-70815860D01*
X148690027Y-70696813D01*
X148796315Y-70690433D01*
X148861364Y-70707863D01*
X148950223Y-70766532D01*
X148997842Y-70849010D01*
X149028031Y-70996538D01*
X148818873Y-71777124D01*
X149354984Y-71467600D01*
X149391095Y-70292051D02*
X149473574Y-70244432D01*
X149579862Y-70238052D01*
X149644911Y-70255482D01*
X149733769Y-70314151D01*
X149870247Y-70455299D01*
X149989294Y-70661495D01*
X150043293Y-70850262D01*
X150049673Y-70956550D01*
X150032243Y-71021599D01*
X149973574Y-71110457D01*
X149891095Y-71158076D01*
X149784807Y-71164456D01*
X149719758Y-71147026D01*
X149630900Y-71088357D01*
X149494423Y-70947209D01*
X149375375Y-70741013D01*
X149321376Y-70552246D01*
X149314997Y-70445958D01*
X149332426Y-70380909D01*
X149391095Y-70292051D01*
%TO.C,R21*%
X158172380Y-56692857D02*
X157696190Y-57026190D01*
X158172380Y-57264285D02*
X157172380Y-57264285D01*
X157172380Y-56883333D01*
X157220000Y-56788095D01*
X157267619Y-56740476D01*
X157362857Y-56692857D01*
X157505714Y-56692857D01*
X157600952Y-56740476D01*
X157648571Y-56788095D01*
X157696190Y-56883333D01*
X157696190Y-57264285D01*
X157267619Y-56311904D02*
X157220000Y-56264285D01*
X157172380Y-56169047D01*
X157172380Y-55930952D01*
X157220000Y-55835714D01*
X157267619Y-55788095D01*
X157362857Y-55740476D01*
X157458095Y-55740476D01*
X157600952Y-55788095D01*
X158172380Y-56359523D01*
X158172380Y-55740476D01*
X158172380Y-54788095D02*
X158172380Y-55359523D01*
X158172380Y-55073809D02*
X157172380Y-55073809D01*
X157315238Y-55169047D01*
X157410476Y-55264285D01*
X157458095Y-55359523D01*
%TO.C,R22*%
X148076339Y-40589755D02*
X148025760Y-40010696D01*
X147581468Y-40304041D02*
X148081468Y-39438016D01*
X148411382Y-39628492D01*
X148470051Y-39717350D01*
X148487481Y-39782399D01*
X148481101Y-39888687D01*
X148409673Y-40012405D01*
X148320814Y-40071074D01*
X148255766Y-40088504D01*
X148149477Y-40082124D01*
X147819563Y-39891648D01*
X148858635Y-39996685D02*
X148923684Y-39979255D01*
X149029972Y-39985635D01*
X149236168Y-40104682D01*
X149294837Y-40193541D01*
X149312267Y-40258589D01*
X149305887Y-40364878D01*
X149258268Y-40447356D01*
X149145600Y-40547265D01*
X148365015Y-40756422D01*
X148901126Y-41065946D01*
X149683421Y-40472875D02*
X149748470Y-40455445D01*
X149854758Y-40461825D01*
X150060954Y-40580873D01*
X150119623Y-40669731D01*
X150137053Y-40734780D01*
X150130674Y-40841068D01*
X150083054Y-40923547D01*
X149970387Y-41023455D01*
X149189801Y-41232612D01*
X149725912Y-41542136D01*
%TO.C,R23*%
X133530198Y-45943790D02*
X133003428Y-45698064D01*
X133035327Y-46229505D02*
X132535327Y-45363479D01*
X132865241Y-45173003D01*
X132971529Y-45166623D01*
X133036578Y-45184053D01*
X133125436Y-45242722D01*
X133196865Y-45366440D01*
X133203245Y-45472728D01*
X133185815Y-45537777D01*
X133127146Y-45626636D01*
X132797231Y-45817112D01*
X133407732Y-44969767D02*
X133425162Y-44904719D01*
X133483831Y-44815860D01*
X133690027Y-44696813D01*
X133796315Y-44690433D01*
X133861364Y-44707863D01*
X133950223Y-44766532D01*
X133997842Y-44849010D01*
X134028031Y-44996538D01*
X133818873Y-45777124D01*
X134354984Y-45467600D01*
X134143660Y-44434908D02*
X134679771Y-44125384D01*
X134581572Y-44621965D01*
X134705290Y-44550537D01*
X134811578Y-44544157D01*
X134876626Y-44561587D01*
X134965485Y-44620256D01*
X135084532Y-44826452D01*
X135090912Y-44932740D01*
X135073482Y-44997789D01*
X135014813Y-45086648D01*
X134767378Y-45229505D01*
X134661089Y-45235884D01*
X134596041Y-45218455D01*
%TD*%
M02*
