%TF.GenerationSoftware,KiCad,Pcbnew,(5.1.8)-1*%
%TF.CreationDate,2021-03-10T15:31:21+00:00*%
%TF.ProjectId,Project_2_smaller,50726f6a-6563-4745-9f32-5f736d616c6c,rev?*%
%TF.SameCoordinates,Original*%
%TF.FileFunction,Soldermask,Bot*%
%TF.FilePolarity,Negative*%
%FSLAX46Y46*%
G04 Gerber Fmt 4.6, Leading zero omitted, Abs format (unit mm)*
G04 Created by KiCad (PCBNEW (5.1.8)-1) date 2021-03-10 15:31:21*
%MOMM*%
%LPD*%
G01*
G04 APERTURE LIST*
%ADD10R,1.700000X1.700000*%
%ADD11O,1.700000X1.700000*%
%ADD12O,1.600000X1.600000*%
%ADD13C,1.600000*%
G04 APERTURE END LIST*
D10*
%TO.C,J14*%
X131000000Y-81950000D03*
D11*
X133540000Y-81950000D03*
X136080000Y-81950000D03*
X138620000Y-81950000D03*
X141160000Y-81950000D03*
X143700000Y-81950000D03*
X146240000Y-81950000D03*
X148780000Y-81950000D03*
%TD*%
D12*
%TO.C,R18*%
X125000000Y-62400000D03*
D13*
X125000000Y-49700000D03*
%TD*%
%TO.C,R19*%
X127000000Y-65700000D03*
G36*
G01*
X137305703Y-71650000D02*
X137305703Y-71650000D01*
G75*
G02*
X138398523Y-71357180I692820J-400000D01*
G01*
X138398523Y-71357180D01*
G75*
G02*
X138691343Y-72450000I-400000J-692820D01*
G01*
X138691343Y-72450000D01*
G75*
G02*
X137598523Y-72742820I-692820J400000D01*
G01*
X137598523Y-72742820D01*
G75*
G02*
X137305703Y-71650000I400000J692820D01*
G01*
G37*
%TD*%
%TO.C,R20*%
X153000000Y-65700000D03*
G36*
G01*
X142694297Y-71650000D02*
X142694297Y-71650000D01*
G75*
G02*
X142401477Y-72742820I-692820J-400000D01*
G01*
X142401477Y-72742820D01*
G75*
G02*
X141308657Y-72450000I-400000J692820D01*
G01*
X141308657Y-72450000D01*
G75*
G02*
X141601477Y-71357180I692820J400000D01*
G01*
X141601477Y-71357180D01*
G75*
G02*
X142694297Y-71650000I400000J-692820D01*
G01*
G37*
%TD*%
D12*
%TO.C,R21*%
X155000000Y-62400000D03*
D13*
X155000000Y-49700000D03*
%TD*%
%TO.C,R22*%
X142000000Y-39700000D03*
G36*
G01*
X152305703Y-45650000D02*
X152305703Y-45650000D01*
G75*
G02*
X153398523Y-45357180I692820J-400000D01*
G01*
X153398523Y-45357180D01*
G75*
G02*
X153691343Y-46450000I-400000J-692820D01*
G01*
X153691343Y-46450000D01*
G75*
G02*
X152598523Y-46742820I-692820J400000D01*
G01*
X152598523Y-46742820D01*
G75*
G02*
X152305703Y-45650000I400000J692820D01*
G01*
G37*
%TD*%
%TO.C,R23*%
G36*
G01*
X127694297Y-45650000D02*
X127694297Y-45650000D01*
G75*
G02*
X127401477Y-46742820I-692820J-400000D01*
G01*
X127401477Y-46742820D01*
G75*
G02*
X126308657Y-46450000I-400000J692820D01*
G01*
X126308657Y-46450000D01*
G75*
G02*
X126601477Y-45357180I692820J400000D01*
G01*
X126601477Y-45357180D01*
G75*
G02*
X127694297Y-45650000I400000J-692820D01*
G01*
G37*
X138000000Y-39700000D03*
%TD*%
M02*
